ply
format ascii 1.0
comment Created by Open3D
element vertex 1981
property double x
property double y
property double z
end_header
-17.6463 96.1149 4.45572
4.60578 109.597 9.24877
-23.5936 94.0553 0.105717
-10.9694 98.6923 8.97969
2.6598 107.291 11.2532
-5.08091 103.283 8.27058
-17.9289 103.373 -10.5161
-0.170194 109.315 3.24238
0.440784 113.709 -4.77822
11.0594 119.447 -1.06802
-7.15924 100.132 11.8942
-1.47777 102.725 14.8488
-4.18323 104.505 7.51142
-10.7796 107.667 -8.47832
4.32956 109.595 9.53913
-3.39166 105.102 7.53653
-1.54464 106.013 8.40229
-1.66538 102.727 14.9512
-6.86681 110.05 -7.4174
-3.26809 104.993 8.17721
3.79166 109.21 9.88161
-7.16849 100.533 11.7123
-12.6338 97.9202 9.13204
7.11996 115.012 3.09936
2.54602 107.738 11.3187
5.62396 110.918 9.3619
4.64034 116.9 -4.23466
5.04258 110.422 9.58871
-7.18248 99.9554 13.3143
9.20654 118.288 -0.0187297
13.4055 120.081 2.44945
12.7828 119.865 1.9953
-25.2588 95.7662 -3.95875
-3.05148 105.485 8.42492
0.0899348 114.239 -4.85761
0.895351 114.502 -4.18107
12.6477 120.158 1.32923
13.1892 119.304 3.97452
15.7232 119.704 6.83516
8.47308 119.709 -3.56057
16.0248 120.053 6.72666
14.2321 120.78 2.72708
2.78663 116.162 -4.44834
-8.01229 101.968 8.83479
-0.893398 104.155 14.8251
-24.9494 98.4877 -8.43061
-7.74669 102.918 7.55308
-8.0257 102.71 7.59741
0.344274 110.775 3.30698
13.0162 119.58 3.74178
-7.23325 100.202 13.9187
1.50726 111.738 3.13249
6.88479 119.097 -4.0658
-8.06289 102.218 8.7621
13.431 119.935 3.83988
6.33112 112.517 8.67998
9.15616 120.669 -3.8073
2.68145 116.379 -4.40204
16.3305 120.855 6.48414
-4.6017 105.445 7.55078
15.9621 121.389 4.89914
-9.0852 109.558 -7.25607
14.2461 120.585 4.12715
-6.40018 100.641 14.8608
-4.23364 101.824 15.641
8.81759 119.039 -0.516888
8.72694 118.977 -0.485583
0.270802 114.932 -4.48378
-14.1541 107.478 -10.1568
-3.2012 106.02 8.71517
13.5481 120.529 3.43937
-15.3113 106.857 -10.5183
-20.5915 102.881 -9.96295
15.3733 121.14 4.98285
-1.78252 107.412 8.14084
-3.96869 113.516 -7.39871
-15.7051 97.9747 7.28183
0.286169 111.31 3.28745
1.47876 110.464 6.81375
6.52996 115.577 3.71929
8.59159 118.318 1.1487
-7.64217 101.404 12.0967
10.0262 120.418 -1.04124
2.00638 116.331 -4.3067
-11.5502 100.514 8.27892
1.81035 112.522 3.18098
1.73561 107.444 13.4399
16.5672 121.869 5.56443
-8.15095 102.933 8.45773
-8.16922 102.868 8.59891
9.62398 120.367 -1.2502
-0.98906 104.859 14.9715
9.46525 119.272 0.756083
-10.387 101.616 7.96387
0.500887 109.449 7.81171
-0.751466 105.126 14.8229
-25.9338 97.7612 -6.60167
2.03109 112.707 3.48918
4.76653 118.231 -3.76967
14.2408 120.581 5.24102
-2.19219 114.896 -6.90597
-17.2659 97.934 5.81912
7.07854 116.696 2.86801
6.38457 119.445 -3.62421
-3.56158 106.631 8.07686
13.7851 120.146 5.67833
5.95215 112.728 9.48156
-21.1653 96.701 2.86632
6.92285 116.088 4.11033
7.7624 117.987 1.49478
-12.9059 99.6662 8.8929
-5.54291 105.39 7.94926
11.2125 120.133 2.18868
1.23819 112.604 3.14904
-12.2119 108.938 -8.8279
-25.4504 98.9377 -7.60946
-25.2005 96.6703 -2.62307
-25.1542 99.2898 -7.87517
11.2426 122.968 -3.3211
-8.15258 102.262 10.8004
10.9296 121.675 -1.0616
-25.926 98.2014 -6.58102
-7.09967 104.482 7.90377
-0.190835 109.149 8.47952
13.6961 120.02 6.4541
13.8861 120.074 6.64306
3.83119 117.964 -3.58683
4.71997 111.429 11.0238
-2.57617 107.567 8.39881
11.0264 120.326 2.13714
13.0673 119.779 6.36327
-24.2318 96.2606 0.266866
-7.9058 111.349 -6.80642
-6.45459 105.176 7.91214
0.499887 115.966 -3.9929
17.1726 122.144 7.5866
14.5885 122.699 2.74082
15.2659 119.935 9.38778
8.52148 121.652 -3.85259
6.68857 116.139 4.81858
-2.31334 115.442 -6.7843
10.7949 121.547 -0.212381
17.2568 122.499 7.21258
-1.17126 109.367 7.29829
-7.91706 102.905 10.7288
7.86492 120.929 -3.12388
5.80631 114.916 6.14525
0.471108 107.035 14.5172
-23.2885 96.667 1.23111
-7.59062 104.22 8.65553
-25.8 97.8188 -4.67037
-25.0427 97.2078 -2.26821
-10.1122 102.837 7.92475
-7.58668 103.86 9.52929
-12.6439 100.723 8.6179
-2.62642 107.935 8.48549
10.9391 119.878 3.88292
-15.1629 99.1088 8.42075
-12.962 109.238 -8.97501
-17.1744 98.5586 6.71074
9.11363 119.938 1.28136
-3.93558 106.765 9.2422
17.179 122.16 8.56383
-10.8066 102.55 7.97152
-7.93841 102.234 12.7813
-6.05984 105.751 8.35132
7.79023 117.054 5.40689
10.3039 120.249 2.60794
-6.58536 105.621 8.08161
-1.56571 105.962 14.6958
17.0482 123.391 6.18397
3.30595 118.357 -3.41342
17.201 122.304 8.70493
-25.637 98.1923 -4.23283
-0.83504 106.595 14.6056
-0.882086 109.297 9.07018
-2.59195 105.335 14.6904
-2.8784 107.607 9.75048
17.3677 123.381 6.99141
-22.2525 97.3887 2.54486
-12.8316 109.658 -8.77885
9.73581 121.529 -0.195103
3.94669 118.784 -2.97578
-7.02885 105.63 7.939
-19.0629 98.4283 5.17958
7.17037 116.5 6.4191
-25.5798 98.3557 -4.06592
11.6023 123.783 -1.9251
-22.3026 97.4851 2.54659
-23.2973 102.436 -8.88012
8.60174 120.51 0.532854
-1.4215 106.541 14.5155
9.31369 121.37 -0.133054
8.79716 120.191 1.597
13.9683 120.493 8.48313
-25.9962 98.5546 -4.71162
-22.2103 97.6275 2.67779
-19.2827 98.5171 5.11884
-6.8781 102.868 14.2645
19.4137 122.928 11.5208
7.65286 117.123 6.33186
-8.55929 104.821 7.92587
18.6204 122.86 10.572
-0.815192 111.973 4.59516
2.26594 113.398 6.16048
-3.07494 107.793 9.86207
8.99003 121.773 -1.02772
-7.1793 105.801 8.15311
8.28078 117.957 5.89794
19.2924 122.453 12.7645
1.59295 109.552 13.4353
17.0986 122.384 9.76326
12.3675 120.113 7.59593
-7.10222 105.141 9.95781
-24.1442 97.5647 0.731876
-4.35887 115.421 -6.93819
17.5003 123.359 8.57077
-0.788958 112.16 4.89452
4.62667 119.67 -2.5569
-2.45668 106.294 14.443
-1.69659 106.915 14.3194
4.54543 112.642 11.7343
19.3276 122.741 12.7035
10.4739 121.207 3.03445
-0.989872 110.127 9.00756
11.5067 119.789 7.4883
-25.8504 99.659 -5.54287
1.71421 118.304 -3.58279
-6.93544 105.193 10.6055
10.051 124.703 -4.4379
17.7908 124.744 6.72315
-23.7285 102.707 -8.48124
-14.23 109.871 -9.28352
7.61831 117.381 7.08057
10.3902 120.878 4.01532
-7.1812 103.392 14.1811
-1.67446 109.614 9.53288
-8.02037 105.734 8.26317
-25.8573 99.1973 -4.2058
-7.52111 103.696 13.1978
-22.2834 103.971 -8.73889
-19.3399 106.617 -9.82677
8.84422 119.822 4.14742
2.70712 115.905 3.23695
-20.0381 98.9202 4.9895
-3.43319 108.796 8.98868
-24.1519 98.0686 0.860847
-1.66206 109.845 9.45782
-12.9898 102.045 8.94757
18.0111 124.618 7.88962
3.6021 112.049 12.6242
8.25167 120.73 1.73996
-15.9791 109.443 -10.2865
-5.57382 104.427 15.0151
18.2122 122.194 13.2912
-15.3629 109.715 -9.89739
4.43239 113 12.1026
-12.4084 102.855 8.38554
-12.6906 110.85 -8.29036
17.8321 122.106 13.0347
-2.03551 110.27 8.45442
-1.57644 107.896 14.0058
7.79002 117.828 7.38711
-1.28782 111.126 7.89145
17.2925 125.31 5.92767
-25.6749 100.251 -5.20616
-25.353 101.094 -6.42916
-25.7287 100.128 -4.97522
8.282 121.745 0.296056
11.0224 120.002 7.8671
-9.04087 105.667 8.08888
8.85551 122.467 -0.172766
7.84413 117.989 7.52013
6.69263 116.783 8.30988
3.30593 116.582 3.8156
-25.618 99.5762 -3.4216
9.75106 123.55 -0.962088
-20.0261 106.7 -9.71715
-25.4007 99.5468 -2.8552
-7.97007 106.402 8.48396
17.4853 125.645 6.26099
9.096 122.785 -0.041894
-19.3952 99.6486 5.81311
-2.19059 110.486 8.68517
-0.480577 114.262 3.48268
-5.38962 107.824 9.52657
9.01546 121.907 1.70681
-15.352 110.246 -9.73325
10.4778 124.293 -0.893944
8.12244 121.913 0.555166
4.03315 114.709 9.33658
-7.03426 105.899 11.2799
-6.9444 106.058 11.1126
6.88164 122.876 -3.11095
-18.1243 100.138 7.10437
-6.78899 104.571 14.4989
-7.82937 113.836 -5.86926
11.9593 126.125 -2.21476
13.7889 121.545 9.78156
9.12114 122.856 0.415206
-1.42338 111.555 8.19152
-4.71915 116.326 -6.29633
6.75974 122.893 -3.04007
10.7306 120.284 8.04479
-16.3728 100.626 8.87752
9.25323 123.49 -0.512382
4.16742 120.815 -2.29472
14.9389 121.271 12.4691
2.79331 115.863 5.9347
13.7843 125.243 2.77987
-7.04416 105.247 13.356
16.7668 122.696 12.3345
-1.44859 111.423 8.9549
9.37279 122.489 2.09453
-7.02084 105.833 12.2967
-6.103 107.904 9.45313
-20.698 106.901 -9.64052
-4.42575 109.219 9.23392
-13.7573 102.361 9.69829
-23.9734 103.754 -7.92203
8.46254 122.962 -0.0507551
-3.27116 109.489 10.4335
-3.62807 107.154 14.7012
17.1009 126.111 6.23238
-4.74523 108.58 10.3013
11.9324 127.04 -3.00706
6.0019 122.564 -2.47811
9.26008 123.637 0.0828774
-7.96862 114.285 -5.73872
-6.5475 107.436 10.329
-5.93621 108.486 9.15912
16.927 126.229 6.16784
-2.97898 110.199 9.99397
-25.596 100.693 -3.37711
-16.3597 101.204 9.0415
15.2473 120.908 14.6992
19.0474 126.375 9.22359
-17.9853 100.849 7.573
3.63159 117.708 4.56454
-22.3829 99.8114 3.35022
-15.6615 101.636 9.40984
10.8278 125.261 -0.239576
-21.5729 106.757 -9.45832
-13.8435 111.858 -8.56688
-23.9043 99.8657 1.34852
-23.2833 99.8521 2.41122
16.8195 126.5 6.23878
0.766033 120.261 -4.29125
-9.81155 113.735 -6.26834
-2.57489 111.421 9.17543
7.84407 125.382 -4.15638
0.758644 114.665 7.4178
9.05973 120.674 7.24221
9.32873 122.241 4.44519
9.67357 123.699 1.99657
9.28613 124.749 -0.692774
7.81223 125.421 -4.15708
12.7613 121.825 10.3451
0.479881 120.412 -4.56137
-25.3282 100.882 -2.1251
-2.8863 111.059 9.68313
15.8537 122.946 12.6515
-25.3543 103.157 -6.73608
-1.35653 112.888 8.23228
-0.229026 113.751 8.14819
16.0983 126.571 5.79704
-23.6253 100.257 1.85481
-4.41572 109.28 11.3325
-0.497198 115.591 4.17248
-10.4332 113.835 -6.53788
3.15041 118.7 3.23408
-7.07262 107.573 11.2359
-1.73017 112.547 8.93794
-2.22331 119.415 -5.75045
18.5602 126.381 10.1886
3.38569 121.629 -2.07037
-0.913352 113.395 8.48068
9.16638 124.745 -0.0277245
9.09437 124.951 -0.456693
-23.281 100.497 2.46203
-6.07972 116.52 -5.24491
-4.37479 117.959 -5.70488
-24.8834 100.992 -0.713307
-0.456036 115.976 4.1563
6.63973 124.897 -3.7292
-1.09617 120.101 -5.16044
19.5602 127.716 9.34009
9.0644 125.051 -0.390707
9.32219 121.979 6.28071
11.4027 127.062 -1.05909
15.3571 126.966 4.87428
3.82553 116.083 10.3739
11.0275 126.224 0.237722
-18.9803 101.586 6.99304
18.8717 127.239 9.635
-6.43328 108.543 11.0769
14.3914 122.769 12.4773
0.692089 112.391 13.8594
8.62085 121.057 7.76458
14.0229 121.658 14.404
8.42341 121.769 6.201
8.38464 121.926 5.84647
-5.54868 110.217 9.5327
13.7228 122.717 12.121
-8.70588 108.33 8.94356
8.34861 125.388 -1.07216
8.26501 120.467 8.86397
-10.0072 107.631 8.56647
4.81889 117.514 9.97035
2.48425 114.213 13.3423
-2.0446 113.1 9.12455
9.85855 123.264 5.68376
3.83473 119.263 5.11075
-14.2943 113.097 -8.55793
15.054 127.724 4.16698
-0.520035 116.409 4.70455
11.4967 126.924 0.698638
-24.931 104.967 -7.32816
12.0044 128.783 -2.29152
4.94836 118.149 9.17912
16.25 127.673 6.19105
-21.5491 108.188 -8.85153
11.2605 126.994 0.401433
15.8614 124.616 11.9402
-17.9678 102.494 8.03198
-15.2866 112.971 -9.40059
11.3973 127.643 -0.593829
-20.4368 101.901 5.76158
-5.34082 109.634 11.9071
3.67076 116.131 11.7878
7.79593 123.59 2.65725
-4.95023 110.244 11.3825
2.30504 119.639 2.76869
-13.9051 104.657 9.8363
13.1068 128.077 1.30764
-23.7993 101.715 1.55205
-5.4538 109.671 11.9405
-3.46685 112.163 9.75724
-5.66447 109.525 11.9615
-21.1337 108.833 -9.01288
17.2263 126.506 10.5665
10.1667 125.32 2.82957
-25.2821 103.863 -4.7626
-16.1812 112.875 -9.93057
10.2866 125.07 3.6351
-4.11001 119.247 -5.3091
7.90799 122.233 6.06732
-21.1004 108.997 -8.95288
0.58514 118.376 3.3926
-8.93129 108.843 9.03723
10.8197 122.199 10.4748
-14.3065 113.678 -8.55949
1.17735 122.312 -3.71607
-17.1339 103.17 8.86057
8.73284 121.829 8.36881
8.33359 126.412 -1.54581
14.183 122.938 14.0131
-20.0528 110.379 -9.95509
9.49996 127.112 -1.09076
-7.38638 108.439 12.5194
8.10168 121.243 8.91503
-11.0499 115.265 -6.58349
15.1853 128.72 4.03072
4.54228 120.816 4.74567
1.9174 119.952 2.82255
13.3989 129.085 0.8693
3.90797 117.241 11.2621
12.83 128.902 0.4869
4.52433 120.875 4.81841
-10.1292 115.763 -5.97572
15.1896 128.88 4.03841
-0.123312 113.225 13.8005
9.18293 122.376 8.69505
15.6516 125.403 11.9045
-2.90402 113.384 9.50833
4.31846 120.701 5.10399
-22.4616 107.997 -7.8106
-20.0513 110.739 -9.90403
-24.5216 102.78 -0.142998
-6.28738 109.746 12.1481
-6.57015 110.86 9.47798
13.3739 123.677 12.2732
9.45476 123.889 6.25497
0.804204 117.27 7.22829
-8.62171 109.629 9.1403
15.1469 124.643 13.0083
-10.7005 115.707 -6.23429
-0.860468 116.282 6.90192
-9.69992 109.023 8.8952
-17.554 103.625 8.58316
-24.8465 104.713 -4.16043
8.99539 123.371 6.89016
11.0056 122.814 10.9984
11.6166 130.376 -3.48469
7.851 126.015 -0.0403251
10.8118 128.162 -0.115974
-8.86377 116.62 -5.10664
-8.05251 117.111 -4.9017
-17.9028 112.65 -10.0563
9.47868 126.846 0.773547
-25.0085 105.866 -6.40265
-23.3454 107.601 -7.36318
-11.7158 108.1 8.48253
-3.67662 120.494 -4.99423
-21.331 103.062 4.94508
11.4892 129.217 -0.767114
-25.1356 105.403 -5.29294
-23.4978 103.021 1.97362
1.67852 123.355 -2.95635
12.2519 129.626 -0.372781
13.9405 129.775 1.77242
-17.676 113.112 -10.0152
-1.33639 115.704 8.43472
15.3452 125.828 11.99
-3.49762 113.506 9.80477
-2.82485 114.044 9.70019
1.61423 120.557 2.86619
9.02265 122.825 9.04657
10.4698 128.14 0.326118
8.21581 127.352 -1.30174
2.79331 119.618 6.60604
-18.9162 112.322 -9.94876
13.2375 130.186 0.320703
10.3672 128.903 -1.20687
8.59265 123.779 6.67715
-21.0065 110.475 -9.1034
-5.54292 110.072 14.1451
3.44286 117.406 12.3032
4.14332 119.204 9.75082
4.14672 119.312 9.54858
-13.4956 106.799 9.50483
-17.6511 113.4 -9.94872
9.57551 127.533 0.779993
-9.57745 116.963 -5.35108
4.2064 119.576 9.37449
18.4546 129.616 9.57807
1.14472 118.437 7.29402
4.22644 121.589 5.3784
12.9703 123.681 13.7873
10.335 123.246 10.8737
-5.67573 112.443 9.69464
11.5903 129.9 -0.844891
13.7601 130.684 0.731183
-12.3144 116.018 -7.11838
9.65457 125.852 4.73026
-18.9281 104.197 7.53533
-0.199713 118.442 5.6684
-22.1972 103.663 3.92969
-0.961717 116.787 8.01212
15.4937 130.113 4.74602
0.676221 115.252 13.5927
-13.8791 115.593 -8.18888
-23.525 103.932 1.70655
9.5877 123.91 9.03012
-0.218015 123.508 -4.33888
-23.202 103.984 2.18087
-11.6874 109.112 8.41902
-18.0154 113.631 -9.93884
-13.1944 115.945 -7.66067
9.7831 130.312 -3.63211
-0.224415 123.554 -4.33479
6.87013 126.277 0.406557
-19.6199 104.33 6.79523
-4.56728 113.328 10.2779
-5.10532 113.128 9.93452
8.82772 128.454 -1.08175
-18.404 104.631 8.08895
7.92029 123.535 7.76281
12.9604 124.742 12.6424
15.2365 130.573 4.12322
14.6924 126.14 12.3785
3.74066 123.23 2.45188
5.52723 121.2 9.26416
2.57085 120.333 6.76552
-15.8487 115.16 -9.38319
6.66384 123.668 6.02834
9.12364 125.768 5.39549
5.22536 127.128 -3.00404
15.3363 130.759 4.30264
-0.198783 118.586 6.61795
2.72082 117.791 12.4999
-3.914 114.306 9.99668
16.9166 129.045 10.2642
8.58875 130.003 -3.73204
4.53498 120.66 9.43332
6.76656 123.874 6.29937
-20.091 104.773 6.31572
-5.3158 120.41 -4.06371
9.13076 123.795 10.0504
1.34878 124.62 -2.90216
-24.033 107.355 -4.49534
1.12534 121.288 3.57802
9.93207 127.777 3.2012
13.0161 124.72 13.9412
8.24459 124.046 8.4191
2.65376 118.092 12.4847
-15.9166 106.209 9.78991
-13.1593 108.476 9.1862
-6.89795 119.5 -4.08564
4.93908 127.214 -2.6469
10.3228 128.826 1.87918
-0.0755562 119.583 5.65043
9.55203 123.963 10.7044
16.7814 129.346 10.2465
14.3912 126.644 12.327
-24.0124 105.329 0.13647
9.11369 124.43 9.24207
-20.1784 112.853 -9.60347
-2.98654 115.5 9.91905
-5.99582 112.576 11.5437
-19.918 105.179 6.46692
-12.2599 117.321 -7.17423
-8.08978 112.314 9.09643
-4.94409 114.078 10.1079
-13.2241 116.944 -7.72756
14.558 132.101 1.79494
6.70302 124.162 6.66454
-2.7968 122.6 -3.91122
11.0586 129.226 2.67896
13.9502 126.118 13.2036
4.74807 124.689 2.81399
-21.3292 112.06 -9.18315
15.7737 131.034 5.92198
-7.31031 112.962 9.2965
0.440508 124.828 -3.60745
13.7829 125.831 13.7323
-6.00324 112.157 12.9422
7.04669 123.957 7.85399
14.7725 132.159 2.35277
4.2087 126.699 -1.75234
5.10043 124.75 3.51923
-9.0662 112.01 8.95659
-6.25686 113.664 9.70101
-0.101599 119.406 6.96518
-18.1942 105.767 8.54292
3.71772 126.391 -1.70831
8.38761 125.191 7.52501
-23.812 105.759 0.462405
18.3316 131.768 8.53552
-2.10374 116.754 9.57283
11.4589 130.956 0.293516
12.8707 125.322 13.8333
-20.8697 105.528 5.39323
6.16246 126.334 2.1928
8.02579 129.085 -0.63513
4.98021 127.988 -2.68046
18.5136 131.84 9.11643
3.87508 121.026 9.96325
-4.16328 113.763 13.1836
5.24794 128.419 -3.00774
4.40592 127.347 -1.98239
15.8789 131.372 6.49953
0.506098 117.069 13.3917
-10.7042 118.724 -6.21063
16.4942 131.634 7.01322
-13.539 109.017 9.60133
-5.49336 112.845 13.5584
2.56885 126.104 -1.74118
-1.40958 124.302 -3.82466
9.11909 125.947 8.16008
10.4683 132.203 -2.62119
8.78903 125.052 9.51842
11.2061 132.769 -2.66973
13.0046 132.715 0.133091
-8.62175 119.561 -4.40199
-22.8081 105.79 3.12853
8.36642 127.288 4.50812
4.25731 121.641 10.0716
-20.9234 106.119 5.22314
12.2606 132.423 -0.270062
-11.4269 111.213 8.67518
5.85712 125.502 4.61315
11.1559 132.857 -2.68681
-11.1378 118.841 -6.38323
10.3614 128.95 4.17561
16.067 132.46 5.29403
2.81239 126.53 -1.76685
8.10414 131.061 -3.2379
9.94693 131.039 -0.506065
-7.93149 120.017 -3.93247
6.64966 125.157 6.82135
9.93754 125.149 11.6101
-23.1973 106.31 2.06016
0.281631 121.427 5.28066
-5.7003 114.837 10.0466
8.36136 127.146 5.34574
1.62171 123.144 3.75108
17.4262 131.335 9.97654
5.94375 126.61 3.009
9.25131 126.17 8.79573
-2.39915 117.413 9.81802
-9.79589 119.545 -5.20077
8.13365 128.96 1.65668
-14.5537 108.787 9.96302
-11.9219 118.918 -6.78976
-9.84454 112.772 8.82444
-23.0516 108.888 -2.32384
5.83252 130.177 -3.82018
-21.4378 106.593 4.74493
16.1663 133.652 4.1658
4.54975 124.674 5.7336
-23.0922 109.05 -2.46907
16.375 133.593 4.72791
12.8864 134.053 -1.25489
-7.12699 121.001 -3.6137
3.62912 127.714 -1.68785
-5.51582 114.295 12.4561
-1.64165 118.512 9.55205
10.7662 130.658 2.85936
-1.97193 118.786 8.61522
13.6409 134.068 0.122524
16.6165 133.172 6.29907
6.6181 127.688 2.99714
5.00668 122.896 10.4723
16.2744 134.054 4.11849
-20.5443 107.029 5.83759
-2.6058 118.263 8.97444
5.80847 126.664 4.12669
5.72986 126.337 4.7045
-1.86421 119.049 8.56774
17.1359 131.765 10.2149
13.1503 127.47 13.2216
-4.44913 114.976 13.2151
-2.17375 118.839 8.70308
3.99283 126.228 2.61038
17.2171 133.288 7.41764
-5.21705 114.657 12.9435
5.98797 127.582 2.89249
9.00698 126.237 10.0219
8.93028 126.406 9.57219
4.68088 129.388 -2.64255
4.51254 122.794 10.5501
-0.503865 120.564 7.9723
-0.352796 126.219 -3.30363
0.67099 119.005 13.0068
2.36646 121.301 10.8814
-5.05971 115.569 11.8029
13.4795 134.501 0.141808
-4.77774 115.633 12.1439
-24.778 109.795 -4.93863
-24.3329 110.83 -6.38905
-4.18241 117.06 10.1389
-3.77049 117.57 9.76011
5.78798 125.711 7.02646
-12.7522 119.51 -7.13209
-0.617541 120.557 8.3763
-12.6162 119.555 -6.9664
4.4283 125.309 6.0463
-15.5778 109.174 9.97166
-13.6616 119.301 -7.86462
4.18448 126.818 2.71476
8.12736 130.977 0.0210381
-24.0799 109.656 -3.10584
1.52917 122.782 7.25929
2.95076 128.073 -1.45891
-2.78251 124.998 -3.47436
-22.597 108.139 2.20777
6.45129 126.659 6.60875
-17.5695 117.158 -8.79695
10.8604 132.179 1.79941
10.6727 126.462 13.1755
8.01707 130.926 0.235245
-20.1473 107.857 6.44268
-12.8955 119.706 -7.15905
-3.99777 117.677 9.89113
-3.08907 116.698 13.2605
5.35242 124.085 10.4575
-22.19 109.709 -0.0761346
-3.82882 116.342 13.0243
-4.6532 116.84 10.8376
-4.68563 116.765 10.9884
16.7221 133.92 7.09191
-22.0146 109.989 -0.263027
-13.6713 110.989 9.82449
-3.7834 116.483 12.9692
13.5629 134.92 0.556323
-3.43801 118.47 9.46709
9.69069 131.14 2.68684
-2.66725 118.89 9.76087
-12.0311 112.595 9.03056
9.40438 126.476 11.8228
9.72333 126.546 12.1653
11.7144 135.522 -3.21701
5.89714 126.368 7.01898
-23.4998 110.08 -2.23107
-3.47539 116.891 12.9154
-22.2614 113.904 -8.2044
14.1411 129.459 12.8539
-0.88849 126.672 -3.23718
2.64192 128.268 -1.36313
10.7186 132.783 1.1505
12.6772 134.703 0.112804
-22.2401 108.292 3.33932
5.89838 127.749 4.47871
10.272 126.795 12.7587
-2.57431 119.575 8.87619
-9.96552 114.355 8.81235
8.88067 131.061 2.11018
0.656805 120.002 12.7512
-7.02813 115.923 9.98194
2.27699 124.1 6.91843
17.136 134.248 7.79882
8.98283 127.447 9.8812
-6.23408 123.061 -3.1905
-4.00341 118.117 10.1218
15.9796 135.619 3.43605
0.594708 127.7 -2.69308
-17.0686 109.129 9.61348
0.222553 122.462 7.52448
15.7441 131.934 10.7319
1.41638 124.853 4.41925
10.1721 127.072 12.6611
-13.0965 120.21 -7.05822
10.6405 133.072 1.16007
6.00843 126.963 6.92432
-12.8997 120.28 -6.81538
-3.82259 118.692 9.58404
1.63959 121.461 11.9353
-21.9518 108.491 4.19873
1.80053 125.411 4.14259
-1.99808 118.362 13.0126
12.2488 128.03 13.9691
-24.3411 111.878 -6.10811
-1.54467 120.499 9.36604
7.4296 130.742 1.51015
-22.344 114.263 -8.0521
-4.37526 124.692 -3.25509
9.62443 127.127 12.0785
-6.17024 116.743 10.3512
-2.99951 119.629 9.08064
11.8625 133.708 2.00493
4.42679 124.199 10.609
-9.09305 121.87 -4.20373
7.60677 130.812 1.79016
1.63478 128.418 -1.93516
10.3988 133.37 0.701573
10.3363 133.436 0.563077
-15.3648 110.553 9.98703
-20.6254 108.73 6.15166
-16.4878 118.829 -8.4072
-21.6387 108.823 4.59366
17.8334 134.512 9.4485
8.52792 127.783 9.6816
7.77227 133.631 -3.32347
-15.7516 119.426 -8.46431
-13.7434 120.427 -7.58637
-21.7037 108.637 4.92442
1.1014 128.394 -2.27442
5.1144 127.33 5.72051
-21.0989 108.725 5.66664
9.45442 127.631 11.4401
-21.3107 110.213 2.38089
-21.3972 109.591 3.59123
-8.13654 122.596 -3.67803
11.6608 133.994 1.86576
9.31421 134.806 -3.16745
-9.00088 115.569 9.49402
4.71392 124.854 10.4964
16.77 134.837 7.64638
10.0595 133.896 -0.153341
6.35262 127.885 6.76638
-3.71048 118.788 10.7318
-21.1435 110.291 2.81149
6.68466 129.978 3.03721
1.63465 122.374 11.2706
14.8819 136.116 2.83687
-5.28462 118.52 9.48567
15.6026 136.352 3.46149
-15.4363 120.08 -8.32709
-0.714964 120.178 12.8611
0.713077 121.331 12.5988
-2.84549 118.947 12.3018
13.3396 130.385 12.4634
12.0682 136.425 -1.67455
0.52478 123.717 7.50018
-20.9304 109.311 5.79476
3.17665 123.909 10.9866
16.7139 135.316 7.43648
0.563576 124.211 6.75355
12.0892 136.022 -0.503357
-14.552 112.093 9.66216
6.97412 130.884 2.61765
-3.27482 119.015 12.0203
13.0652 136.151 0.800906
10.2255 133.791 1.49772
6.49279 129.799 4.27598
-3.10555 120.188 9.94997
-19.2324 117.98 -8.75164
9.91399 128.472 12.1503
13.2197 136.261 1.12536
-2.73221 126.874 -2.84741
9.88817 128.66 11.8543
-22.0452 115.801 -8.16294
6.56945 130.118 4.12991
9.98359 134.192 0.919166
-13.0058 121.449 -6.30038
5.90822 130.525 2.64359
-3.0834 120.377 10.2922
-3.95317 120.563 8.67754
17.2173 136.699 6.53503
-2.74118 121.139 9.32175
-13.7108 113.225 9.5896
-20.8575 110.175 5.59467
-14.7983 112.626 9.51137
4.55218 128.005 6.24739
4.42652 132.467 -2.96565
10.2458 134.985 0.377798
-24.5999 112.366 -3.96159
16.4481 134.468 10.5257
10.4037 134.839 1.05004
-2.09024 122.312 8.59177
-20.8506 110.467 5.55409
-2.99669 121.491 9.03505
-14.1443 121.687 -7.49981
-3.04097 120.681 10.6851
16.7358 137.683 4.70725
6.71967 134.896 -4.1121
10.4958 135.173 0.86973
-20.5513 111.563 4.10451
4.6953 133.212 -3.41611
11.2093 135.668 1.09224
1.10841 123.167 11.9702
6.61062 135.059 -4.17023
-21.5251 112.299 1.43932
11.5481 136.15 0.890519
9.19983 136.77 -3.75681
2.90498 128.387 4.27491
-10.0882 123.603 -4.77139
17.5468 136.239 9.53138
11.5905 137.639 -1.92457
-19.1203 110.684 8.54194
9.73384 129.788 11.473
14.8993 133.519 11.4808
3.48645 127.787 6.64051
-24.622 113.684 -5.31109
12.0828 136.903 0.589329
-13.7442 114.181 9.46267
-16.4619 112.17 9.62331
13.3071 132.183 12.0786
3.15442 125.904 10.1796
9.07043 130.124 10.2239
6.471 132.03 2.60924
-8.67999 117.559 10.1482
-5.1981 120.703 8.80747
-14.4921 122.201 -7.69857
5.46607 128.088 9.27906
4.63827 130.799 2.68943
8.77899 130.706 8.87943
10.7152 136.218 0.460164
5.62249 128.229 9.38438
3.82048 132.679 -2.29151
-19.9298 118.865 -8.54836
-8.32107 124.838 -3.8769
-20.0303 118.849 -8.57099
16.0643 138.241 4.2273
-1.0112 122.357 11.8992
1.42897 124.175 11.7347
-19.546 111.138 7.92761
-14.0447 122.42 -7.0396
-10.1851 124.121 -4.90888
4.37353 129.065 6.20371
-24.6086 113.034 -2.96428
-7.86454 125.243 -3.49905
15.5515 138.28 3.88762
3.16911 126.933 9.1225
-19.3161 111.405 8.22114
-1.90944 123.34 9.13987
-21.4978 113.001 1.83954
0.127739 123.501 11.8429
-6.25916 120.298 9.14408
-16.4289 121.513 -8.0235
-20.3473 111.69 6.34091
10.5904 138.767 -3.98428
13.2717 132.873 11.9456
4.94829 131.57 2.57472
-0.828883 122.965 11.7389
-0.0447436 125.276 8.22186
15.5455 138.497 3.92413
4.40147 128.174 8.84214
9.25 137.977 -4.09166
-23.8423 112.809 -0.745752
-6.20519 126.368 -2.76106
5.09056 134.827 -3.59085
-1.63514 123.862 9.00566
-16.7225 121.47 -7.97426
10.8693 136.89 0.615626
4.12753 133.738 -2.7187
-22.7879 116.81 -7.224
-1.66245 122.823 11.1458
4.04891 129.333 6.18515
-2.33254 129.079 -2.51638
6.23652 129.237 9.61914
3.59083 130.089 4.05207
-6.55008 120.334 9.26145
11.4265 131.937 11.7192
4.95707 131.846 2.54002
-17.6841 112.156 9.87114
-7.99242 119.119 9.88441
1.85904 126.198 9.75455
-3.19986 128.623 -2.39499
-21.3886 118.547 -8.17749
-1.19491 124.733 8.53193
-4.7706 122.21 8.50228
-10.2692 125.049 -5.22762
-1.00259 124.948 8.46603
-0.888703 125.313 7.88776
17.2179 139.293 5.67339
-6.8093 120.421 9.36428
-9.36854 118.221 10.1455
0.337859 126.255 7.85201
15.7692 139.092 4.20353
-23.7129 116.186 -6.2795
-24.7002 113.953 -3.15041
10.7619 139.537 -3.73055
2.16788 128.698 6.12798
16.7504 139.63 5.0917
-20.3751 114.358 2.79275
-20.2142 114.081 3.6257
16.0868 139.449 4.53862
-19.5095 120.352 -8.06602
2.26311 128.878 6.11373
8.25993 131.638 9.18785
7.74102 137.891 -4.29813
-20.4702 114.402 2.70222
7.24524 133.441 4.09092
15.4629 139.329 4.03158
-0.856965 125.616 8.36102
-24.739 114.388 -3.36251
11.0512 137.579 1.26965
16.6573 139.73 5.04691
8.24758 138.384 -4.3686
-9.68897 125.969 -4.98044
-1.09409 125.235 9.01114
7.94339 134.302 3.65305
-21.183 119.435 -8.13736
-12.2989 124.606 -5.72926
-9.22038 126.247 -4.4999
-21.6389 119.092 -7.84957
0.350643 126.93 8.0529
15.1647 139.6 3.87459
-9.20972 119.192 10.1392
-3.37262 129.431 -2.26278
-1.36674 124.985 9.74987
-0.0149886 127.003 7.62892
17.6358 139.319 8.13117
6.81649 133.347 4.6689
-20.1368 113.879 5.34944
-20.1115 114.469 4.19117
15.8207 137.183 10.0894
-12.2687 117.572 9.39391
-0.465297 126.441 8.48086
-6.96571 127.563 -3.16401
-20.0382 115.022 3.55856
3.72074 135.032 -2.73453
17.7239 139.791 7.89051
-2.55546 124.822 9.02697
-1.95267 125.379 8.79603
-4.51336 124.073 7.75419
-13.0194 124.83 -6.11086
0.820296 127.902 7.68665
-22.2004 114.749 1.17192
11.8857 138.998 1.18236
17.4836 140.39 6.62722
-16.3515 114.796 9.82274
17.5388 140.372 6.90832
0.631333 127.944 7.84559
6.50347 133.485 5.07246
11.3007 139.179 0.589387
7.81424 134.964 4.16137
-7.73996 121.207 9.69955
-18.8696 114.103 8.13433
0.379587 127.41 8.95238
11.1076 140.707 -2.54456
2.43497 134.123 -1.68789
3.60042 129.747 8.92296
1.22523 128.974 7.27052
-20.9031 120.602 -7.70326
-24.6395 115.057 -1.80269
-21.703 119.658 -6.79575
-13.8935 125.195 -6.56183
1.02622 128.94 7.43074
11.8099 134.918 10.8918
-20.7114 120.947 -7.75335
-0.661659 127.13 8.77281
1.149 129.232 7.15248
4.86416 137.31 -3.89016
6.82249 138.998 -4.46497
-14.7936 116.896 9.25892
-19.6045 115.426 5.28418
-0.0433514 127.844 8.3635
17.4071 141.244 6.385
-5.19166 124.293 8.22138
2.02158 130.365 6.30655
1.05474 128.697 8.33511
-19.7345 115.85 4.3896
-21.2801 120.037 -6.34444
2.25284 130.724 6.07998
5.97506 134.595 3.59439
-7.09269 128.757 -3.43289
3.77792 132.484 4.74275
-2.62755 125.884 8.91137
15.4781 138.134 10.2003
14.9424 137.563 10.6101
8.33253 133.391 9.55955
5.74049 138.345 -4.27985
11.788 141.023 -0.831764
-10.7902 127.481 -5.95631
10.0091 141.444 -4.19956
0.988547 129.642 6.98409
-12.5504 126.867 -6.92867
-23.1394 118.031 -4.25335
-14.62 125.208 -6.50146
-23.6901 116.963 -2.81447
-2.86458 131.393 -2.03785
-23.9156 116.787 -2.68961
2.8045 135.446 -1.96152
16.998 140.397 8.58463
4.11358 131.404 8.27649
-11.5095 119.773 9.41532
-10.2604 120.652 9.49719
-0.45245 128.291 8.22325
-20.5423 120.537 -5.02952
2.54949 131.614 6.13993
-0.311694 133.136 -1.06553
13.1891 137.118 10.3889
-11.0917 128.016 -6.15277
-10.502 120.801 9.43206
-8.61051 122 9.75154
11.6371 140.281 1.88546
13.7871 137.672 10.3772
7.26655 140.172 -3.9621
-5.09394 125.828 7.37073
6.62039 139.795 -4.11074
8.00313 137.216 3.17509
-22.8872 119.077 -4.51787
-18.9085 115.735 8.09218
1.37136 130.864 6.69709
-23.1918 117.859 -2.37743
9.10842 134.743 10.0527
3.95208 137.591 -3.18301
-4.91722 126.288 7.02781
-20.2774 122.19 -6.49714
-15.8173 117.359 9.87401
16.7021 142.833 5.12041
-21.9574 120.218 -4.77437
3.9347 137.916 -3.21152
2.24128 132.087 6.29397
6.08626 139.924 -4.03653
13.812 142.127 2.72733
-20.4089 121.341 -4.48906
3.81314 132.425 8.02478
15.003 142.469 3.80155
7.75415 134.471 9.649
10.9884 141.57 -0.119462
-10.8139 121.439 9.34668
8.03814 138.333 2.35559
-7.05362 130.619 -3.55087
3.26994 137.478 -2.5286
-12.535 120.417 9.34307
1.96692 136.073 -1.50802
-1.57134 128.532 8.76975
3.5428 133.639 5.84884
-11.2603 129.222 -6.59625
9.06309 142.402 -3.99715
-3.04921 132.648 -1.66791
-11.6881 129.182 -7.11982
-18.7543 116.436 8.62151
-22.1377 119.82 -3.08424
-19.893 117.111 5.73697
11.9721 141.309 2.72675
-9.77493 122.563 9.45087
11.3026 142.714 -1.0063
8.42623 138.174 4.07373
-19.8554 117.181 6.00064
2.9362 133.986 4.99822
14.5949 139.769 10.155
-20.6468 122.529 -5.67009
2.2193 136.877 -1.7418
0.759361 131.536 7.13481
-16.8673 126.33 -7.75994
-6.62826 125.534 8.84182
5.42353 135.871 5.388
-3.98809 128.214 7.44169
-4.48688 132.551 -2.10801
-17.6436 117.458 9.63789
-10.2771 122.873 9.31783
-1.5368 129.528 8.43955
-18.1843 117.297 9.28928
-1.19043 129.917 8.28366
-24.0549 117.574 0.325395
0.240695 131.239 7.69136
-4.81192 132.628 -2.31108
-10.4102 130.88 -6.81525
17.0166 143.751 6.70765
10.4198 141.538 1.66439
9.37112 143.538 -3.92859
10.0222 143.694 -3.28033
-16.6276 118.175 10.2267
2.4516 133.597 6.5738
12.3352 142.385 3.01536
-20.0012 117.838 6.24762
12.7405 139.508 9.61576
-24.2279 117.851 0.190481
11.4362 141.837 3.07137
-18.3212 117.661 9.23981
8.18711 139.907 2.36021
5.76904 138.394 1.96397
-14.2986 129.078 -8.1317
14.9203 141.368 9.28768
-8.7851 131.863 -5.60961
-4.15873 133.378 -1.99274
-1.47025 134.917 -1.14101
8.56626 136.896 9.4035
12.7784 143.015 3.05629
-23.1682 120.603 -3.34651
-16.9385 126.76 -6.8554
-18.0191 125.996 -6.86037
-15.6374 127.875 -7.21795
13.1717 143.248 3.21816
7.54533 139.878 1.9502
5.64782 136.863 5.34824
2.61051 134.391 6.02135
-17.8395 126.164 -6.82483
1.82862 133.459 6.90993
14.9832 144.075 4.38578
-8.53159 132.141 -5.34621
-19.5223 124.712 -6.13174
2.29801 138.196 -1.95331
4.1745 135.792 5.80036
-19.3992 125.039 -6.3975
6.77659 142.193 -3.36259
-15.3318 128.315 -7.09444
10.6375 138.624 9.55874
11.1502 143.966 -0.461852
-9.43173 124.352 9.71297
5.98042 135.877 8.63475
2.99381 135.162 5.78833
-0.100526 136.384 -1.11845
-16.0604 128.057 -7.27441
13.3679 143.639 3.66718
-7.47181 126.131 9.16027
7.96023 139.211 4.94438
-19.462 124.806 -5.43201
-21.3442 123.141 -4.73962
-3.01797 129.957 7.96795
8.61162 144.084 -3.90409
-21.2043 122.651 -3.41931
8.98992 140.978 3.13364
-22.2582 121.277 -1.92636
9.56386 138.321 9.46472
-23.8943 118.497 1.38764
-22.3485 122.043 -3.56965
1.5299 133.812 7.12225
6.97926 140.423 1.55706
3.46661 135.637 6.22356
-16.0364 119.724 10.4692
-24.3644 119.962 -2.07108
-22.2723 121.428 -1.9622
3.55534 135.735 6.33526
-2.54736 135.175 -1.33425
11.8318 140.132 9.44993
14.8461 142.543 8.91452
-7.84573 133.107 -4.6978
-22.8086 118.685 3.01633
7.52536 137.772 8.20968
-7.23555 127.651 7.49968
-22.2955 122.563 -3.94769
-22.2745 122.371 -3.4995
1.8788 134.621 6.60144
-20.9655 122.26 -1.31159
13.8214 144.346 4.09374
-15.2277 120.745 10.1732
8.56843 140.504 4.43231
-18.0391 126.875 -6.16539
-8.43714 133.637 -5.94904
-23.1713 121.781 -3.09795
-10.3942 124.506 9.88668
10.6191 143.221 2.2702
10.7439 144.698 -0.476872
-10.048 124.806 9.93351
4.3826 138.112 3.78026
-21.2761 123.721 -4.0699
8.82261 141.484 3.42432
-21.9441 123.19 -3.74601
9.96022 143.285 1.54292
-20.9536 122.928 -1.75538
9.80332 139.585 8.94969
-13.1876 122.712 10.0293
-17.6416 119.964 9.2058
3.74819 141.236 -3.1363
-25.048 119.942 -1.41909
-24.1214 119.743 0.349199
-21.8345 122.903 -2.72418
1.1083 138.618 -1.46472
-17.4908 120.156 9.22109
-3.47358 130.859 7.76632
4.42508 138.538 3.60669
10.4331 144.746 -0.231963
-23.8012 121.779 -2.94828
5.98582 137.778 7.69419
10.4399 144.962 -0.417221
0.786136 138.552 -1.32721
-18.5395 126.93 -5.61211
-16.8568 128.423 -6.17053
-17.0374 120.749 9.26007
1.81061 135.819 5.8711
-21.1958 123.939 -3.14665
-0.608818 137.629 -1.17479
11.2442 144.178 2.82847
6.57151 139.322 5.95621
-22.8775 121.934 -1.27117
-3.85208 131.334 7.22854
8.62374 141.901 3.77775
-20.2918 124.947 -3.5125
-6.21464 135.265 -4.07167
-23.861 120.581 0.298212
-21.7694 119.968 4.67325
-19.8235 125.196 -3.103
-0.646117 133.733 7.30321
-4.42378 131.152 7.09957
-17.5026 120.999 8.83539
4.03761 138.322 4.77548
-12.8599 123.73 10.0945
15.5739 145.65 6.63417
-8.58612 135.02 -6.67485
-2.52865 132.865 6.52855
-12.3705 132.702 -7.39739
-17.7026 128.003 -5.51742
-9.31442 126.908 8.90417
14.3777 143.995 8.45905
-7.09771 135.543 -5.40986
-25.2009 121.343 -2.70594
14.0393 146.004 3.91455
-23.3404 121.526 -0.368808
-20.2134 125.909 -4.74764
-4.32467 135.921 -2.11936
-3.3447 132.329 6.62656
3.09836 137.624 5.23596
-20.7429 124.199 -1.92608
-8.42741 135.315 -6.65251
8.74662 143.266 2.08012
10.9052 144.635 2.4249
-23.8433 121.494 -0.730686
-22.3363 122.697 -0.949033
-20.7362 125.876 -5.10545
-25.7881 120.352 -1.13017
10.0141 145.834 -1.16133
-7.4563 129.811 6.20942
-17.329 121.52 8.86681
-7.24866 135.818 -5.64362
6.02101 139.234 6.65743
-23.3604 121.517 0.184827
-16.1601 121.78 10.1716
-20.6945 120.359 6.54751
-13.7503 131.815 -6.70566
5.79683 143.984 -3.11574
-24.0516 121.052 0.358798
-20.8945 124.225 -1.52696
9.20739 143.739 2.3785
-21.5906 123.598 -1.20315
9.57173 141.316 7.95593
-18.6609 121.198 8.11469
-20.2828 126.433 -4.89646
-15.9477 122.023 10.3715
-20.2593 126.091 -4.0599
-21.8751 120.625 4.76908
1.54045 140.599 -1.84948
4.22822 139.617 4.05516
8.10096 140.688 7.49948
-2.59004 137.526 -1.38365
13.1197 146.245 3.66767
-6.5739 131.153 5.885
9.75606 141.817 7.91533
-1.32271 138.446 -1.24724
-7.47995 130.674 5.67692
-22.978 122.698 -0.526775
-17.0952 122.124 9.18064
-18.0295 128.268 -4.67924
9.98041 145.557 0.701227
-20.3026 126.427 -4.19057
-22.6886 124.508 -3.73798
7.36501 143.37 1.50273
4.41955 140.425 3.28667
11.0889 142.483 8.76628
-18.4196 121.855 8.06878
-8.46677 129.686 6.5967
-22.2147 124.244 -2.22941
14.3057 147.345 3.64454
10.6024 145.916 1.23372
-4.06145 133.466 5.36161
-0.00673093 136.201 5.7111
-21.6582 121.391 4.53209
-1.61908 138.51 -1.28677
-21.9463 121.523 4.00262
-22.7796 122.907 -0.023882
2.57639 142.101 -2.3539
-23.0749 122.895 -0.273205
8.04546 141.366 7.22651
-4.15956 133.68 5.21818
-16.7343 129.81 -5.11547
-19.0249 127.741 -4.14278
8.44202 141.844 6.93722
7.76606 144.113 1.35978
9.84906 147.457 -2.42252
-21.9222 126.016 -4.64384
-0.0644296 140.016 -1.41177
5.0777 141.855 2.31087
-20.7696 126.892 -4.53243
3.66804 139.649 4.90161
7.43208 141.153 7.29424
1.39072 141.321 -1.79918
13.7106 145.581 7.39199
14.3102 147.379 4.65055
-19.2001 122.293 7.22088
3.07768 143.097 -2.66582
-18.0019 122.645 8.47685
13.7372 145.878 7.15386
-23.75 122.558 0.386011
-8.869 129.477 7.85789
7.02527 141.098 7.26686
-24.4333 122.069 0.464583
-22.9467 121.905 2.96737
-21.2688 125.688 -2.26352
8.25533 143.379 4.47269
10.144 143.177 7.66559
-8.72171 130.686 5.80615
-22.9653 123.457 -0.0732486
10.5926 147.523 -0.413574
-26.5832 121.312 -0.731521
-16.6539 130.451 -4.93154
-22.5305 125.211 -2.7597
-21.1267 126.02 -2.31889
-14.6194 131.956 -4.85614
-21.8455 125.987 -3.11334
7.57528 142.181 6.53458
8.5707 143.038 6.28795
-18.4178 128.416 -2.97953
-21.9417 124.479 0.0894228
-21.4404 126.08 -2.40203
8.57249 143.216 6.19787
-16.9442 123.638 9.11612
9.92721 147.792 -1.15646
13.0962 148 3.04252
3.83495 144.504 -3.19697
6.35216 146.061 -2.69277
-26.6676 120.46 1.68153
-26.2147 122.479 -1.75636
-18.6973 127.983 -2.00254
-6.22122 138.213 -4.76018
-13.251 126.38 9.22264
0.910002 141.769 -1.59438
-22.6974 123.963 0.517826
-18.8434 128.676 -3.47584
0.904483 141.797 -1.59255
-17.033 124.321 8.13473
-7.64294 138.252 -6.63173
-12.87 133.836 -5.17945
-21.929 122.975 3.85966
-9.33237 137.216 -6.88581
-7.5545 138.327 -6.54086
-18.6783 129.242 -4.11605
-6.54095 133.444 4.94599
-19.1418 127.863 -1.8986
2.56405 143.544 -2.39607
-24.0361 122.838 1.26714
-18.7943 127.901 -1.4229
-18.5707 123.449 7.97725
6.50547 146.51 -2.67095
-4.38211 138.999 -3.13622
-22.0217 126.447 -3.10324
-27.508 120.709 0.645142
2.16756 139.925 4.53729
-22.7148 124.56 -0.193718
-7.44005 132.824 5.11076
-2.41332 136.044 5.86326
-24.7504 124.461 -2.63199
8.47978 144.175 5.36428
10.0866 148.622 -1.36539
-17.9551 129.62 -3.24057
-0.905538 137.754 4.97246
-23.2089 123.937 0.808475
-19.785 127.903 -2.30741
5.19302 143.376 2.44871
12.9193 146.755 6.76145
-24.2936 123.509 0.212517
9.86553 144.563 6.8609
-19.7112 123.721 6.57971
-27.5376 121.23 0.413076
0.226787 138.861 4.75735
-23.7048 122.932 2.55164
-23.418 126.288 -3.8
-15.8904 132.042 -4.56315
-23.8719 124.023 0.217429
-18.7047 123.992 7.81506
8.76689 144.769 5.29636
-18.3212 129.39 -2.44887
-23.3159 123.627 2.06723
-15.1429 126.039 9.01664
11.8114 146.054 7.3457
5.58347 146.599 -2.77235
-15.2554 126.637 7.70735
-14.6901 132.845 -4.03983
-23.2874 123.348 2.86099
-3.39085 140.067 -2.34726
-18.3429 125.008 6.71844
-25.496 122.403 1.78655
-17.9669 130.185 -3.14676
-18.0336 125.831 5.73874
-14.6992 127.658 6.89322
9.92025 147.19 2.87028
-9.89976 131.943 5.27919
-23.9164 123.648 1.91485
-19.5804 128.984 -2.67042
-24.3405 123.224 2.16845
5.62092 144.66 1.93961
-18.8697 125.089 6.35868
-21.0557 128.662 -4.07738
-23.5441 123.443 2.95515
-15.9732 132.308 -4.09259
-5.12033 139.976 -3.97765
10.2698 145.629 6.87078
9.8535 146.955 3.62998
-23.4451 123.465 3.28466
-23.222 123.552 3.46
-18.0712 126.726 4.50413
-3.24463 140.637 -2.29728
8.00179 149.157 -3.15403
12.8771 149.539 3.16783
-28.1242 121.426 1.06957
7.37362 148.642 -2.92677
-20.1044 125.706 4.07697
-7.20281 134.978 3.88075
-22.6272 123.786 4.34164
-18.6457 129.811 -2.07474
-19.9703 124.902 6.07465
-26.3416 124.627 -2.54693
12.0145 149.198 3.07802
-20.3878 124.756 5.98657
5.28701 144.764 2.44256
-19.1069 129.853 -2.49217
-20.6481 125.433 4.31604
-13.7174 134.597 -4.30045
-25.2894 125.492 -2.44089
9.46947 150.048 -2.03717
9.91935 149.952 -1.13813
-26.5969 124.419 -1.97348
6.53744 148.342 -2.66513
-6.6214 136.074 3.27276
-5.52226 140.858 -4.87413
12.0361 149.673 2.74608
13.2311 150.028 3.75975
9.89986 148.567 1.92767
-9.01208 134.328 3.61952
-26.5662 124.685 -2.16024
-13.9993 128.621 8.08737
8.2695 147.834 1.21631
5.8412 145.824 1.79566
-3.36069 137.778 4.92432
9.26535 146.889 4.70351
-24.2042 122.808 5.34601
9.80685 148.89 1.529
-2.5827 141.81 -1.87249
4.4224 144.101 3.77685
6.3712 146.673 1.38706
10.0526 147.196 5.70435
12.8624 149.813 4.46462
-25.1836 122.609 4.77461
-9.45141 134.42 3.50979
-26.4379 125.405 -2.73528
-25.0589 122.54 5.12208
-10.8926 132.886 4.58226
10.3593 149.517 1.55271
1.65046 145.127 -2.09301
-25.968 121.431 6.17465
9.95603 148.61 2.92945
-22.8102 128.278 -3.09583
-22.4381 129.745 -5.53435
-23.7175 124.649 3.0022
-13.2209 129.875 7.57033
5.3639 145.657 2.46651
-26.8441 122.965 2.04595
9.6779 147.547 4.89457
-24.1296 124.005 3.90899
-25.117 122.98 4.62505
-20.2016 131.189 -4.9147
-22.9075 124.995 3.82201
-17.739 132.291 -3.51735
9.14664 149.035 1.32434
-24.0314 128.04 -3.96933
-23.4129 128.457 -3.91021
-26.9641 122.597 2.90974
10.6656 148.224 5.24082
-25.009 126.579 -2.34254
-6.02074 141.545 -5.3212
-28.4624 122.205 1.56709
-23.735 124.874 3.04524
-24.8269 122.457 6.41393
-9.74508 139.303 -6.01446
-24.4093 128.104 -4.42023
9.86911 147.88 4.95607
-23.7008 128.585 -4.35704
-20.9243 125.927 5.14066
-2.95009 138.869 4.83069
-22.1421 130.388 -5.59769
-19.1075 130.525 -1.48017
-22.1573 124.982 5.45411
-21.0992 126.383 4.17805
-26.7932 122.708 3.42547
-26.1473 121.886 6.10936
12.3165 150.151 4.31676
-7.05691 141.179 -5.40104
-19.2046 130.576 -1.39833
-28.5064 122.467 1.66692
10.8434 150.729 1.11429
4.06067 147.845 -2.80039
4.33033 144.764 3.91181
-25.6818 122.803 5.18822
-19.8841 131.56 -4.24842
-11.8319 132.75 5.0851
-6.08031 141.893 -5.17336
-23.9535 128.926 -4.6526
-21.9803 126.251 3.6973
-17.4272 131.883 -1.15867
-25.6529 126.767 -2.63019
0.0196474 141.335 4.8882
-0.184236 144.368 -1.55587
-0.679655 140.845 4.9272
-17.3482 132.319 -1.70575
8.93909 149.688 1.04079
-22.4004 125.943 4.01299
-22.5392 125.12 5.59747
-14.0875 135.875 -3.97972
-21.8522 130.9 -5.08594
-21.6621 125.768 5.68279
-17.8984 132.733 -3.01032
-3.3123 139.561 4.22919
-0.790053 141.195 4.61786
-17.3716 132.389 -1.37093
-26.1391 122.722 5.62508
-5.81131 138.487 3.00227
-21.4036 126.489 4.92147
3.82486 148.247 -2.77044
-1.9863 143.587 -1.64328
-21.6084 126.644 4.47679
-14.6963 135.515 -3.55168
-1.0158 144.266 -1.53431
-27.5637 124.879 -0.400242
-3.26352 140.057 3.97523
-26.1553 123.175 5.21738
-0.758573 141.74 4.19661
-6.81435 137.934 3.18258
2.64447 144.272 4.0377
10.2637 150.454 2.50906
7.49682 149.382 0.868649
-17.5418 129.29 5.52804
-21.449 126.453 5.65578
6.9494 150.871 -2.91247
-9.94749 140.193 -5.63173
-22.2695 126.366 4.70692
9.35011 151.095 0.140017
2.84944 147.929 -2.76649
-3.98397 143.194 -2.96897
-2.35318 141.13 3.66134
7.00937 151.02 -2.92143
-18.1 128.945 5.80388
-7.15199 137.996 3.23465
-21.3723 126.978 5.17153
-12.2508 133.915 4.2546
-24.4166 128.865 -2.95255
-3.48221 140.629 3.46261
10.8722 151.698 1.72127
10.0807 150.79 2.45091
-4.38765 143.499 -3.61538
-27.323 126.162 -1.45969
-10.2608 140.303 -5.54072
-0.00137983 142.701 4.64536
-22.3345 126.862 4.57654
-28.0746 124.838 0.462572
-17.5701 133.97 -2.89284
8.80409 150.75 1.15697
-0.303951 142.717 4.35618
-27.6711 125.695 -0.598706
-10.557 140.292 -5.51804
-9.37156 137.059 2.79462
-2.92165 144.138 -2.10539
-24.0505 129.372 -2.62852
-28.5755 123.413 2.95838
-7.59725 138.167 3.3622
-16.928 129.952 6.67957
-20.0611 132.985 -3.90245
-0.283963 143.017 4.39505
-27.4602 123.255 5.34288
7.80346 150.496 0.992119
-4.49721 144.107 -3.80942
-10.647 136.024 3.77877
5.94458 148.693 2.05448
-21.7838 132.167 -4.34586
3.10211 149.076 -2.7371
1.43025 144.376 4.41984
-22.7358 126.424 6.01888
-1.28577 142.715 4.06639
-23.0656 130.727 -3.0212
-23.6011 125.955 6.06559
-20.9153 127.562 6.71744
-25.8822 128.314 -1.95952
10.6048 152.555 1.52375
5.33147 148.041 3.14586
-7.87588 142.751 -5.18699
-0.899612 146.018 -1.63621
-20.754 127.736 6.89151
1.33748 144.622 4.56706
-16.4144 135.283 -2.11227
-14.3439 137.925 -4.38555
9.7059 152.152 1.51416
-7.07799 139.045 3.92538
-1.35455 142.67 4.86985
9.63025 152.875 0.000110072
-21.7439 127.566 6.20235
-1.32223 142.744 5.00822
-19.423 134.497 -4.32595
-23.79 126.257 6.17245
6.7336 152.252 -2.55737
-6.76558 143.98 -5.25917
-0.142847 147.02 -1.85298
-23.0222 131.31 -2.91935
9.19227 153.176 -0.569068
-22.5357 128.013 4.76017
-20.2269 128.695 6.74411
0.0761057 144.16 4.6561
-22.6466 127.729 5.22032
-28.1446 125.979 0.854538
-21.7487 128.1 5.92486
-26.9681 124.629 5.47155
-9.05074 142.568 -5.0598
-26.3727 124.999 5.86636
-2.57129 142.516 4.98479
6.84712 150.677 2.01481
-27.161 127.538 -0.100149
-15.0856 137.63 -3.0786
-10.3265 141.751 -4.55492
-14.4403 133.652 6.17004
-25.1984 129.554 -1.01387
-0.0926645 147.877 -1.95839
7.09785 152.97 -1.90343
-9.72465 138.958 2.41554
-19.8451 130.005 6.19295
-10.9098 141.641 -4.52165
-10.9855 138.095 2.63137
-1.6955 146.868 -1.66184
3.71897 151.119 -2.40202
-28.1877 125.426 3.90378
1.13887 149.427 -2.35966
-5.47702 141.417 4.47498
6.69983 153.221 -1.88531
-26.9435 128.181 0.407507
-14.91 138.204 -2.55215
-25.9765 129.299 -0.387988
-1.06703 147.765 -1.80298
-16.5518 136.74 -1.73624
-22.4118 128.464 6.66526
0.796749 149.433 -2.29102
-23.707 128.72 4.50619
-19.4327 135.686 -3.41402
-6.51375 145.668 -4.98879
-27.3116 126.096 4.92443
-24.6254 127.583 5.85407
-9.98162 143.383 -5.01546
-26.7793 128.615 0.972587
0.8879 150.028 -2.38209
-12.0028 138.019 3.55357
-13.7233 136.221 4.79969
-7.92509 140.567 4.44856
4.63074 152.799 -2.24149
-21.1582 129.777 7.33206
-3.98893 147.139 -3.13728
-24.3705 128.985 4.49521
-27.6885 127.947 1.82899
-1.78414 148.13 -1.68531
-13.2564 141.25 -4.16336
4.89134 153.109 -2.00997
-14.1082 140.629 -4.07739
-13.7346 135.958 6.07422
-27.6124 127.079 4.30652
-27.0287 127.36 4.90473
-20.5303 136.133 -3.46514
-19.0334 137.183 -3.39224
2.5931 152.063 -2.34574
-15.4755 138.965 -1.49177
-4.85832 142.967 5.82114
-3.62865 148.096 -2.84097
-11.1356 140.177 2.48814
-16.2938 138.878 -2.07701
-2.753 148.588 -2.21655
-22.3291 130.923 5.55689
-15.9238 139.022 -1.64813
-6.46973 142.348 5.40074
-21.0258 131.659 6.16599
-15.5672 135.183 6.99343
-4.05982 148.365 -3.07255
-27.789 128.9 2.26912
-7.60253 142.439 3.98109
4.42778 153.853 -1.81171
-14.5163 140.99 -2.95216
-6.29169 142.722 5.46635
-12.045 139.769 3.15745
-16.2083 134.754 7.42107
-22.1034 132.302 3.89695
-22.3828 135.506 -3.0245
-7.42381 142.784 3.94161
-6.86912 142.837 4.91737
-8.98764 146.405 -5.27395
-20.3837 136.907 -2.41427
-14.9903 140.453 -1.48372
0.948084 152.244 -2.36435
-21.2064 133.026 4.92187
-26.6051 131.078 1.0882
-21.2983 133.209 4.4441
2.8606 153.587 -1.94671
-9.17136 142.529 3.17755
-22.0818 136.061 -2.27668
-9.1289 146.884 -5.21404
-6.84485 148.248 -4.60886
-23.4686 135.142 -1.71769
-14.4706 138.064 5.40146
-20.7476 134.19 4.2955
4.51531 155.009 -1.40667
-22.7539 135.95 -2.02589
-3.7576 149.821 -2.69357
-13.4066 143.51 -3.70187
-24.9984 131.911 3.24222
-10.9606 142.306 2.45645
-15.6779 140.776 -0.966352
-12.4597 144.71 -4.3071
-9.3523 143.592 2.50941
-22.5831 133.6 3.96847
-18.896 134.716 7.08928
1.92352 153.904 -1.83496
-27.5711 130.695 2.74585
-23.6321 135.623 -1.5674
-23.0339 136.115 -1.57195
-19.0276 134.769 6.99756
-26.0807 131.452 3.73408
-11.8911 141.695 3.60888
-23.8753 133.307 3.39852
-25.8008 133.256 0.775277
-15.9792 141.051 -0.820234
-9.00229 144.449 2.39305
-21.558 137.276 -1.05836
-14.3136 143.421 -3.07446
-4.62286 150.413 -3.08516
-13.5626 144.223 -3.04866
-18.5865 140.162 -1.73313
-11.5156 146.485 -4.35356
-24.2809 133.727 3.46729
-27.1678 132.404 2.2831
-1.08637 153.057 -1.97349
-20.9501 138.448 -0.898991
-21.0471 135.453 5.0806
-27.0405 132.437 3.02307
-9.9826 144.979 2.28805
-9.65646 148.532 -4.47153
-16.0798 142.135 -0.710944
-26.555 132.705 3.3995
-24.0338 136.246 0.0250519
-17.4127 141.603 -1.10442
-8.44866 149.579 -4.20395
-15.5012 142.898 -0.674323
-13.4205 145.62 -3.16782
-23.1977 137.28 -0.201521
-0.914735 154.244 -2.07359
-24.1522 136.66 0.306041
-7.27637 150.756 -3.75636
-25.0487 135.502 1.58065
-23.8341 135.078 4.32336
-19.896 140.542 -0.916784
-11.4695 148.154 -3.73472
-22.3308 136.206 4.8984
-2.73405 153.417 -1.74719
-3.15081 153.169 -1.82478
-11.2528 148.394 -3.77119
-8.68721 147.294 2.24172
-11.0293 148.691 -3.78804
-14.0692 145.521 -1.56245
-13.3171 142.917 4.84504
-5.59151 152.299 -2.83046
-20.0821 137.212 6.96214
-14.1384 142.45 5.11517
-21.9824 136.727 5.44359
-10.4992 146.253 2.73973
-14.0835 145.883 -1.63599
-10.1102 146.607 2.67226
-15.295 144.505 -0.537328
-3.5559 153.65 -1.84441
-14.1107 145.942 -1.35441
-13.5656 146.93 -2.46435
-20.2876 137.572 6.95359
-22.9954 136.594 5.10898
-11.0359 146.157 2.9595
-14.8947 142.223 5.54494
-5.90702 152.563 -2.46212
-8.78478 148.212 2.27122
-15.6123 141.338 6.45822
-12.263 144.761 4.39809
-23.679 138.196 1.31119
-20.6472 137.7 6.81027
-14.1802 146.264 -0.748951
-8.08264 151.474 -2.50332
-19.2777 138.886 7.00988
-23.5182 138.69 1.33883
-16.0449 141.472 6.75813
-10.567 147.246 2.98857
-11.4148 149.679 -3.10986
-14.169 146.991 -1.36685
-20.6174 141.833 0.0392161
-13.0579 144.951 4.97477
-13.2927 144.726 5.14306
-11.5909 146.827 3.45009
-10.3036 148.018 3.06237
-12.2529 149.389 -2.41283
-24.2274 137.735 4.53005
-24.3953 138.575 2.57738
-19.1002 143.69 0.154345
-20.2916 139.948 6.58488
-20.9253 142.396 0.886249
-11.0681 148.209 3.4288
-6.12328 153.913 -0.853495
-15.3867 146.556 0.879381
-19.509 143.893 0.498211
-23.4902 139.384 4.0978
-10.2245 151.702 -1.59064
-7.05653 153.617 -0.767742
-14.1169 145.641 5.35378
-11.6499 148.353 3.62958
-18.9044 141.686 6.71414
-21.8923 141.94 2.00375
-15.4213 144.319 6.64004
-19.5381 141.505 6.56419
-14.9345 144.874 6.54429
-10.0938 152.115 -1.14509
-22.7968 140.827 3.47822
-6.50862 154.279 -0.298652
-16.1414 143.925 6.86468
-15.1332 144.754 6.66757
-7.83294 152.593 1.33204
-7.8239 152.735 1.22513
-21.1068 141.313 5.50843
-20.5288 141.572 5.871
-7.73403 153.042 1.05332
-7.572 153.138 1.11645
-8.4704 152.845 0.576033
-16.3887 146.608 1.83126
-14.5452 148.787 0.259157
-17.8083 143.421 6.67928
-8.28814 153.316 0.351371
-10.6718 150.626 2.3813
-22.2002 141.547 4.28189
-11.5808 151.452 -0.500442
-22.0207 141.792 4.05473
-13.831 147.3 4.73216
-9.04335 153.215 -0.349215
-21.2759 142.821 3.41494
-18.399 143.575 6.29513
-16.5009 144.969 6.30076
-12.118 149.937 3.19472
-13.3865 148.911 3.82617
-17.1139 147.094 2.47231
-17.5959 145.064 5.92458
-18.3548 146.337 2.25448
-18.6866 146.011 2.48212
-13.6857 149.831 2.34791
-14.5627 149.441 2.23661
-18.467 146.4 2.89381
-17.5147 147.293 2.75231
-18.1468 146.804 2.96326
-16.7092 147.087 4.54445
-16.3636 148.409 2.39949
-16.6456 147.373 4.25239
-17.2843 146.854 4.57472
-18.8797 146.163 3.72509
-18.2698 146.818 3.48706
-17.3878 147.543 3.7415
