ply
format ascii 1.0
comment Created by Open3D
element vertex 1942
property double x
property double y
property double z
end_header
25.663 124.407 3.6665
-4.80799 89.0845 7.52494
23.1702 121.595 3.90784
6.87103 99.0333 12.191
23.3106 123.57 0.831541
17.8242 107.987 17.2288
19.2185 109.718 16.8865
5.74039 97.8085 12.4483
17.9758 117.176 2.12416
9.83188 103.304 10.6652
-9.98499 91.0762 -4.94677
-7.06753 93.8625 -4.291
20.1699 116.859 6.8096
-5.72364 88.4656 7.33649
23.3143 116.566 13.1212
18.5498 109.932 15.6106
17.6122 108.074 17.0712
18.9619 124.72 -8.64376
20.0221 122.422 -2.80165
26.4859 131.935 -6.99401
14.8207 116.952 -3.03017
0.815578 93.2348 11.4664
26.9296 128.299 0.0439767
4.71493 96.7924 12.6138
23.7805 118.667 10.5983
25.7453 131.578 -7.56675
-5.08194 96.5902 -4.89305
19.0356 118.191 2.901
21.129 127.634 -9.16924
20.4383 120.161 2.31267
23.1257 122.733 3.11545
20.0638 119.92 2.30388
26.1221 125.491 4.07724
12.087 107.301 9.13551
23.4781 123.989 1.80367
17.1143 123.045 -8.22452
23.4424 122.754 3.96017
23.272 122.661 3.90862
16.6479 115.07 4.62551
22.2922 120.482 5.8299
17.7563 108.853 17.2149
7.98514 101.693 11.4224
12.1542 107.668 8.99295
16.9771 123.227 -8.49642
16.2972 117.734 -0.432686
9.06552 103.249 10.8951
-11.0397 84.769 5.31189
25.6038 126.721 1.67537
-4.20371 98.3101 -4.93356
16.7985 123.392 -8.80992
22.7663 116.636 13.6147
21.8813 123.648 0.145032
23.1119 122.445 4.49257
23.3187 123.052 3.8677
-3.90896 90.9028 8.31364
7.87316 109.399 -1.27476
13.5215 115.38 -1.01451
-12.5135 87.597 -1.7592
18.655 116.382 6.80092
-14.9322 83.7307 0.437764
13.4568 114.705 0.12671
12.7318 112.931 1.86466
-8.30444 93.9837 -4.68034
16.1087 118.654 -1.45929
13.6851 116.233 -1.80061
16.5074 118.578 -0.585542
-3.1586 99.7313 -4.78939
16.3327 115.531 4.48245
-14.4098 85.095 -0.424361
21.4565 114.908 14.9827
4.62895 107.801 -3.89875
-1.43665 93.1469 9.85014
1.49848 104.957 -4.73158
17.8814 116.979 5.02711
-6.73806 96.1232 -4.87619
-15.1908 84.3125 -0.349739
15.6371 114.89 4.51987
17.1444 122.557 -5.67213
16.9018 122.472 -5.97045
18.3472 113.476 11.9798
18.8324 111.069 17.021
25.5183 126.951 2.41899
24.177 124.344 4.49627
18.8676 116.733 7.64953
8.3248 103.382 10.9111
23.0329 122.838 4.97306
21.3702 123.981 0.00711662
-8.50876 94.4647 -4.87967
22.3639 121.425 6.18621
20.2006 113.086 16.354
18.3967 117.562 5.62418
17.879 110.36 16.953
17.7915 123.165 -4.74525
21.191 119.86 7.13966
17.7561 110.215 17.1757
5.29568 99.6424 12.197
25.8966 132.185 -4.88979
-4.81469 99.0848 -5.00165
-14.9811 83.6195 2.56205
21.9478 123.497 2.87637
-12.5398 88.6154 -1.39726
-15.1109 83.5656 2.44861
6.3119 110.211 -3.2646
13.833 113.606 4.82599
23.0522 123.425 5.13101
-3.25254 92.4411 9.29606
12.8622 111.806 6.12329
-15.6637 83.83 1.12286
21.8723 123.546 2.85258
5.22809 100.079 12.0428
17.7075 126.248 -9.35481
17.267 119.17 1.83175
22.8362 119.985 10.7115
26.187 131.496 -2.59972
24.4802 132.648 -7.61115
21.2344 124.024 1.10181
21.9012 116.998 14.2723
15.964 120.425 -2.44699
26.2622 130.729 -0.968563
-15.0374 83.8705 2.59585
7.69384 110.37 -0.520598
12.9418 112.507 5.54001
-0.667926 104.022 -5.08183
-3.59695 101.035 -5.30707
13.2537 117.027 -1.36952
16.7041 123.35 -5.73793
21.7951 120.426 8.57832
-14.7678 85.2784 1.02358
-8.76573 88.2544 7.03838
-9.52994 94.8397 -5.43693
22.7955 123.352 5.69631
21.9618 124.308 2.59645
-11.0153 93.0373 -4.93559
22.4902 118.747 13.0849
17.7967 118.456 4.97993
5.01856 109.636 -3.53803
15.6059 120.709 -2.73945
-2.49254 102.722 -5.49972
2.85505 97.6316 12.9573
20.6159 123.47 1.85688
18.2335 115.783 10.5472
19.483 124.932 -2.64095
-14.2208 86.6726 0.256177
-2.59284 93.6022 9.94668
-2.75088 93.4718 9.88192
25.7002 133.846 -6.24467
20.5434 124.505 0.136639
20.2109 123.229 1.76302
7.7842 110.933 -0.227687
12.3689 115.055 1.25648
-8.89804 96.0839 -5.59474
18.8845 122.247 1.21174
22.5875 131.408 -7.42976
17.593 126.928 -8.98848
1.70582 96.5503 13.3193
1.44524 96.2231 13.4032
6.83918 110.836 -1.43366
18.6118 118.727 6.83434
16.6579 125.961 -8.9728
16.6961 120.377 0.597246
7.18893 110.882 -0.741568
20.8427 124.249 1.76926
16.3215 124.069 -6.10705
19.5093 125.711 -2.96969
21.6538 118.01 14.0241
20.5089 124.492 1.02675
-10.8789 87.5981 5.8827
23.5673 126.269 3.68625
9.79341 112.755 1.28291
5.89298 102.783 11.0518
22.4374 120.5 11.4471
2.17992 107.775 -4.21781
-9.43359 88.6314 6.90577
12.9358 113.913 5.19566
25.7049 132.088 -2.07301
20.8793 130.18 -7.69162
19.1454 123.056 1.22003
17.9536 116.069 10.9084
-13.3898 89.2628 -1.2711
20.7145 116.607 15.0998
-13.8103 88.6376 -0.806147
22.4924 124.991 4.34912
17.4583 114.797 12.4296
13.9848 115.909 4.16192
21.7755 118.81 13.5913
-14.6921 87.3525 -0.0778838
8.34417 112.036 0.431629
12.4399 117.182 -0.757083
21.5176 124.317 3.91059
24.2666 133.802 -7.07998
20.8671 120.919 8.50968
-5.23721 100.427 -4.67765
11.8977 115.947 0.523988
15.1913 121.613 -3.02187
25.3135 134.535 -6.29062
25.437 134.177 -5.4469
-10.9206 94.5915 -5.16418
0.605852 96.4465 12.8801
17.094 121.641 0.586751
-13.8654 86.203 3.81826
21.0868 125.336 1.76099
-8.88819 97.2279 -5.69001
16.7671 121.333 0.631226
-14.2695 88.489 -0.694597
20.5245 125.541 0.475255
18.879 128.982 -8.32622
20.7639 121.046 8.62329
11.8872 111.407 8.69513
13.638 115.947 4.32025
21.1401 122.194 7.55726
-12.2661 92.6273 -3.73374
0.840655 96.771 13.3818
21.3844 122.734 7.21534
18.073 117.336 10.2951
-2.60368 104.009 -5.11326
12.133 112.8 7.09478
-10.9928 95.0127 -5.02956
-13.5963 90.931 -2.87353
-9.36989 97.1991 -5.71316
22.3136 124.208 6.79357
12.3439 113.685 6.32384
-0.893899 106.003 -4.93595
-15.4685 85.8687 2.40525
5.43405 103.58 10.9168
16.6932 125.166 -4.94496
2.30478 109.03 -4.00922
23.2126 126.392 4.99994
15.0179 118.272 3.73457
25.6196 129.938 3.53992
17.253 114.349 14.5947
-12.9008 87.7765 4.26164
18.106 120.695 5.46928
6.86168 112.07 -0.549111
15.7306 121.485 -0.18288
20.1284 124.677 2.49658
21.8102 120.497 12.7185
16.0037 119.6 3.6232
0.508415 97.0939 13.2884
18.4496 120.682 6.35215
20.8345 118.559 14.4003
22.7287 125.742 5.72188
22.8223 127.266 3.37687
16.9118 122.891 -0.0451856
17.6037 120.972 4.56176
-14.429 90.088 -1.87905
20.8375 124.96 3.9323
21.751 125.982 3.99018
22.7741 127.896 2.66342
23.1254 127.209 4.48562
-15.3262 88.3621 -0.347088
18.0906 121.308 5.34883
12.8778 115.995 4.82602
-5.76357 93.1168 9.33501
17.728 117.902 10.5162
16.5338 125.717 -4.91002
19.504 125.077 1.64556
1.35875 98.6321 13.1896
3.94198 111.206 -3.34336
17.2394 115.907 13.1332
6.20739 105.394 10.7588
15.7787 125.814 -6.18261
17.8041 118.341 10.2296
-0.736657 97.0704 12.2026
23.7827 134.809 -6.68378
17.3402 117.225 11.302
16.8938 121.176 3.79767
-0.516795 97.2085 12.4486
10.6141 115.639 1.75551
18.8763 116.479 15.5274
-16.0221 86.9376 1.53936
12.5196 119.683 -1.49185
22.8389 127.595 4.07805
-5.53421 93.6269 9.49539
14.8544 119.28 3.51149
15.2496 119.841 3.29955
-14.5905 90.7249 -2.195
24.2567 128.701 4.885
18.2819 125.58 -0.781539
12.5295 115.398 6.03768
17.2202 115.843 14
4.5059 103.827 10.997
21.2658 125.735 4.67479
25.1499 130.561 3.66822
-5.14484 94.1754 9.66541
22.8543 128.115 3.71353
-5.37862 94.0823 9.59827
21.4642 123.989 8.31036
18.5252 126.122 -0.581464
17.7986 129.722 -8.00991
-2.86301 96.1374 10.9855
2.47165 110.545 -3.56233
20.6297 125.165 5.04923
21.4347 132.958 -6.6441
13.7291 122.377 -2.85363
15.6684 126.03 -5.47214
19.1157 117.515 15.312
19.9983 127.073 0.863897
24.9869 132.139 1.4654
1.35918 109.772 -4.04185
-0.973858 97.5634 12.3716
2.48287 101.54 12.0445
2.36097 101.38 12.1239
21.0916 123.603 8.91584
17.9799 122.335 5.37564
24.8771 135.073 -3.52365
7.69036 113.952 0.72179
20.2842 132.104 -6.8922
18.078 120.307 9.10179
18.0826 122.339 5.7444
16.6669 126.788 -4.39401
19.0318 117.869 15.1625
14.9799 124.205 -2.9838
-15.6751 89.6223 -0.632536
17.9305 125.775 -0.10502
20.5817 126.45 3.64999
-12.0895 89.8151 5.76531
-11.4848 96.5885 -4.52986
17.7473 127.285 -2.79282
-16.0784 88.0164 1.59078
18.3595 122.337 6.73161
20.9643 122.623 11.041
5.90323 106.357 10.9405
10.8662 118.289 -0.150614
-14.9273 88.2991 3.37006
3.70729 103.887 11.2279
16.0851 128.59 -7.84457
21.4597 124.849 8.38722
16.4832 122.37 3.50483
11.5736 119.412 -0.477583
8.93832 109.972 10.6897
22.5168 128.365 4.50163
-13.8815 93.3 -2.94499
15.2704 127.129 -6.51252
16.9574 116.693 14.3374
6.52469 107.416 10.9001
4.82825 113.548 -2.59106
10.2429 111.798 10.3356
20.131 125.645 5.12977
-16.0887 88.5492 1.55575
2.49434 102.744 11.6962
21.667 134.227 -6.40386
24.8658 136.591 -4.51082
17.5445 125.976 0.0232986
4.70828 113.693 -2.73631
-7.08765 94.0225 9.0396
0.952886 110.387 -3.90357
18.3398 118.083 15.0998
0.748463 110.271 -3.98247
1.47085 101.367 12.522
24.5839 133.809 0.0801833
5.36058 106.517 11.0191
11.8916 120.539 -0.722155
13.6644 119.572 4.17665
-3.81159 96.6213 10.9609
4.29945 105.429 10.9896
20.3772 123.065 10.7058
19.9048 126.744 3.6136
23.5565 130.864 3.36303
-0.0617179 99.2067 13.6553
-16.3191 89.0922 1.02735
22.2426 135.275 -6.36085
15.4147 124.625 -0.855384
12.2876 117.169 6.06538
4.22997 105.522 11.0092
24.0769 135.223 -2.70912
17.189 119.805 10.7957
-13.9201 94.3169 -3.14088
17.2326 119.945 10.6961
24.4261 136.954 -4.8973
-15.7076 91.0119 -0.765642
4.021 105.455 11.0227
15.2068 122.398 2.88254
21.4827 126.791 7.0253
-2.07867 98.0657 12.4322
23.942 131.572 3.49496
18.5361 119.054 14.7753
16.9322 126.875 -1.40418
17.8865 118.35 14.8045
17.26 127.103 -1.17134
16.2107 127.619 -3.89611
6.9297 108.848 10.8697
17.2237 128.033 -2.71569
-13.75 90.0379 4.79394
17.8564 122.023 8.70809
19.753 126.422 4.77412
24.0933 135.707 -2.9617
-12.9072 96.0144 -3.65987
-2.9029 107.023 -3.7916
15.3182 128.386 -6.48561
-0.538925 99.3937 13.5724
14.8953 126.38 -3.74732
0.476021 100.641 13.3858
16.6849 119.081 11.9317
11.6865 122.333 -2.75605
11.5815 121.546 -1.60597
15.546 127.696 -4.73235
19.4264 126.429 4.58973
14.9303 125.127 -1.41516
12.0568 123.108 -3.2641
11.3919 115.616 8.24705
3.89494 105.875 11.0654
-5.52801 96.1996 10.1642
18.1782 123.818 6.95552
17.8256 127.645 -0.177588
22.1078 136.048 -6.5085
17.4006 131.45 -7.34954
17.8839 126.238 2.42365
2.12773 103.709 11.6505
-2.05503 98.5663 12.6983
21.3945 128.397 5.24365
16.928 127.169 -0.838462
16.5387 118.45 13.2935
4.50284 106.723 11.0957
-1.04183 109.365 -3.50838
-13.1546 90.933 5.47709
19.6546 126.646 5.30723
12.1892 117.947 6.40852
-14.2016 91.2226 3.26343
24.8984 137.832 -3.75866
16.6275 119.727 11.7996
22.1439 136.538 -6.49064
2.09903 113.038 -3.464
-8.95284 94.0466 8.41182
19.4525 121.756 13.7491
10.7773 120.554 -0.109043
20.7078 127.409 6.54616
17.5234 128.509 -1.13088
16.9218 126.536 1.17625
3.9055 106.588 11.1174
3.4883 106.193 11.1104
19.9054 128.119 4.13881
-11.4915 92.4636 6.9176
-13.8404 96.005 -3.38476
23.6014 133.392 2.11665
17.1446 128.202 -0.930732
-11.2031 92.6346 7.25698
22.4109 131.28 3.56368
24.7714 138.256 -3.91854
-9.62803 93.9113 8.02629
11.1408 122.416 -2.05617
19.6667 122.563 13.3895
22.3608 136.971 -6.06713
22.0387 136.877 -6.46221
5.95688 115.566 0.100742
15.6479 130.344 -7.12762
19.9389 128.656 3.62781
23.5067 134.988 -0.514114
20.456 125.656 9.7064
19.5816 128.388 3.4916
6.81703 110.295 10.7238
23.508 133.417 2.22084
-14.7722 91.8474 2.33303
18.5674 128.583 1.3631
13.6108 126.71 -4.50805
16.4307 131.406 -7.13625
-0.295723 101.063 13.5533
2.99526 106.143 11.1806
16.0039 128.166 -2.15545
23.3494 135.281 -0.665274
18.9546 127.4 4.67451
19.5837 134.987 -6.96914
18.4258 129.265 0.616935
-11.2176 93.1342 7.39341
17.9612 125.978 5.48573
-7.52834 104.926 -5.66352
19.5541 130.089 1.47466
0.860349 103.35 12.4673
17.1991 128.451 0.0469352
3.46276 115.328 -2.94087
-7.9628 104.513 -5.5307
13.8232 127.498 -4.43674
20.3739 136.145 -6.93845
10.8461 122.775 -1.76401
17.5615 124.095 8.37779
22.9321 132.803 3.6242
3.36831 107.127 11.1964
11.386 124.308 -3.17508
-11.4564 100.64 -5.0434
20.8881 130.796 3.33599
20.0853 127.396 7.63733
14.7176 128.418 -3.95751
20.7176 136.674 -6.86744
13.6904 122.891 3.58759
13.6347 127.632 -4.50446
-3.39824 99.1561 12.5078
20.1562 128.388 6.29389
17.3385 129.895 -1.41221
17.1426 120.82 13.6149
15.0236 125.135 2.42075
16.923 126.811 3.25205
16.2985 121.216 11.5995
-1.24985 101.098 13.4682
-7.40705 96.5864 9.88765
-9.25767 103.569 -5.3284
19.3567 129.348 3.61194
-5.41553 97.963 11.281
17.39 128.653 1.19072
11.1405 124.371 -3.0064
-15.5534 92.5941 1.81273
19.9967 126.43 9.83355
12.1277 125.969 -3.83574
10.7014 116.561 9.56581
9.49088 120.529 0.775297
-1.1722 111.233 -3.05236
16.3479 126.88 2.63958
-0.526555 102.199 13.4531
23.7066 138.054 -2.7275
16.9096 129.801 -1.219
15.3526 129.284 -3.07931
0.340107 103.643 12.8064
12.1168 120.976 5.14661
16.9437 128.959 0.641488
19.5313 127.142 8.48668
8.62477 114.025 10.6882
17.7033 127.314 4.9766
1.13203 105.315 11.8037
10.563 116.73 9.83392
15.7749 128.591 -0.65705
17.8063 126.74 6.23065
-1.2651 111.48 -2.93718
16.6149 123.114 10.2113
16.5442 127.539 2.60139
11.1669 125.321 -3.48314
22.5905 135.772 -0.19005
17.7026 127.449 5.02277
22.5187 133.6 3.63646
16.3838 122.833 10.638
18.3227 129.502 2.90378
-0.829347 102.547 13.4159
8.48573 119.651 1.58345
17.017 131.071 -2.02144
-7.2484 97.4005 10.4563
11.0122 118.115 8.94693
-3.73556 109.241 -3.09791
15.2699 129.896 -3.1694
3.3141 116.513 -2.39343
18.3415 135.582 -6.98335
-9.0799 96.2362 9.30117
16.3111 133.064 -6.3869
22.9159 136.903 -0.747176
2.63985 116.298 -2.95584
7.98038 114.042 10.6846
-13.6527 94.2933 4.39468
22.508 139.015 -4.85734
-7.18998 106.785 -4.77085
19.0274 131.064 2.30187
-12.0408 94.6822 6.88616
19.0654 128.111 7.45278
-10.6638 95.3948 8.27089
14.9264 131.649 -6.12896
20.2435 131.466 4.01098
18.9614 131.379 1.80689
-0.847182 103.092 13.3384
-14.356 98.4141 -3.52262
-5.1546 108.621 -3.89277
18.7609 124.797 12.6716
16.5113 123.946 9.99337
18.873 127.805 7.97102
11.1792 119.202 8.45532
21.9454 134.417 2.52934
14.016 130.051 -4.61644
22.5805 139.426 -4.76151
-9.32138 96.5837 9.28948
-13.2689 100.734 -4.884
15.0932 129.822 -1.99951
-1.6072 112.089 -2.55345
17.3124 135.019 -6.6292
8.24332 114.915 10.808
-5.00865 109.127 -3.73731
-11.3352 95.4258 7.85977
14.8711 132.095 -6.0944
14.9782 129.993 -2.31888
-3.58409 110.153 -2.79723
15.9749 133.435 -6.239
8.4447 120.681 1.70172
18.4945 131.981 1.04684
-15.8498 94.2077 1.94162
15.1702 129.911 -1.44372
15.2122 129.873 -1.27242
-14.3403 99.3425 -3.7922
6.43073 119.114 0.912291
18.3278 132.04 0.933751
8.56847 121.038 1.64687
11.8201 121.632 6.61689
14.542 130.805 -3.90524
15.5911 129.484 0.263026
-14.3677 95.0811 3.50836
8.82976 121.425 1.51983
15.1744 130.565 -2.1936
10.1265 125.091 -2.17179
15.23 130.583 -2.01738
14.6873 130.879 -3.48457
11.9404 122.284 6.04393
20.709 132.822 4.3056
18.2083 132.916 -0.437323
17.1583 129.117 4.11333
22.7734 137.869 -0.263553
-12.3087 102.788 -5.28079
18.606 128.849 7.42259
-5.4741 100.097 11.9125
9.71734 117.573 10.2435
6.98926 119.744 1.55916
12.3685 123.857 4.48249
17.9258 132.128 0.711098
11.9615 122.616 5.94853
17.8721 133.267 -1.20794
11.9615 128.814 -4.51896
21.1926 139.717 -5.98413
-16.054 95.2222 1.03989
-11.1561 104.355 -5.43425
22.1194 136.862 0.645952
23.8535 141.013 -3.16998
14.792 130.68 -2.24897
19.5291 130.525 6.79144
15.9041 124.413 10.5526
17.9226 126.674 10.4409
17.6384 136.706 -7.0789
0.294755 106.789 12.1804
11.8947 123.008 6.09427
-5.9216 109.614 -3.94276
-11.1719 104.749 -5.33927
6.35902 119.958 1.11914
-6.29142 109.347 -4.11176
9.64845 125.095 -1.49599
9.90812 125.827 -2.21878
23.7118 141.347 -3.13287
14.2821 127.893 2.34756
-5.62077 100.669 11.9211
15.9594 132.678 -2.52914
15.8365 124.925 10.398
-16.1134 95.804 1.0386
-1.51126 113.482 -2.07852
-13.2402 102.446 -4.92924
15.1333 130.946 -1.05697
21.4892 140.585 -5.49821
5.09191 119.603 -0.0463793
5.62188 119.875 0.498125
-14.7781 95.9963 3.48547
-7.15831 108.907 -4.38687
12.0641 124.142 5.15864
14.5185 131.396 -2.57234
19.2085 131.058 6.65726
-16.1519 96.7752 -0.0801021
3.74401 111.953 10.7872
16.0423 130.72 1.66827
17.2506 127.297 9.69623
16.2469 126.429 9.3886
2.56738 110.604 11.0691
11.8631 123.824 5.87464
-13.8149 96.5731 4.90843
22.5047 139.178 -0.453157
-3.60715 102.816 13.1852
20.0724 133.495 4.7854
-14.6646 100.995 -3.94256
16.7916 125.397 12.5253
-2.58207 113.065 -2.08951
15.4494 133.9 -4.24252
4.12021 119.741 -1.0544
17.0611 125.812 12.4871
10.8266 121.344 8.63411
7.44806 121.69 1.88587
-16.0274 96.581 1.31691
16.0238 125.631 11.0053
18.4946 130.205 7.80429
-6.34245 101.031 11.6321
20.2226 134.362 4.00781
13.0707 126.975 3.40915
-0.067092 116.206 -2.46142
12.9717 132.005 -5.24404
21.6822 141.452 -5.15683
22.6936 142.072 -4.33021
17.0989 134.455 -1.65096
17.2642 137.517 -6.50278
16.4896 125.806 11.9213
21.0033 136.836 1.62273
9.03206 124.651 0.271917
3.30385 119.629 -1.69621
14.3918 129.415 2.12341
-8.20422 109.088 -4.89793
5.78416 120.882 0.884269
17.1352 135.588 -3.15669
4.50209 120.365 -0.510051
-5.89509 110.853 -3.49852
12.4014 125.997 4.50947
20.1407 134.79 3.84406
-4.4065 112.07 -2.76708
17.3565 128.523 9.36332
0.751721 117.491 -2.40531
20.3505 135.349 3.52238
16.7945 132.061 2.661
15.3797 131.097 1.72209
9.8801 127.899 -2.94652
18.5196 131.395 7.01661
10.2316 121.111 9.25489
17.0887 131.74 3.87686
-10.7491 98.6966 8.71273
-16.2754 97.6669 0.399662
19.8256 134.158 5.00552
-12.4486 104.876 -4.62324
14.4001 132.853 -2.65613
19.0315 139.905 -6.01596
13.5767 133.825 -5.69601
14.2989 132.287 -1.70229
10.7673 129.8 -3.91522
4.12242 120.765 -0.707323
4.45497 120.9 -0.304772
-10.5233 99.3296 8.8159
13.631 129.406 2.31644
15.6762 133.403 -0.629595
6.84688 116.925 11.1397
3.47391 120.681 -1.35722
12.8237 133.057 -5.11783
11.5285 124.535 6.95127
-12.0779 98.7126 7.37582
-5.04553 103.31 12.5976
-12.6205 105.28 -4.64588
14.9112 136.185 -6.40175
12.3047 132.383 -4.68468
-6.71738 111.536 -4.25964
-4.06623 104.155 13.1549
-16.4019 98.9697 -0.692652
16.9669 131.972 4.76738
20.0046 136.368 2.9243
15.3953 133.575 -0.784507
-3.87628 113.694 -2.26298
-11.2991 107.547 -5.46339
6.43244 116.891 11.2931
-14.0707 103.799 -4.15222
11.2071 124.133 7.94633
22.4313 141.138 -0.241649
11.4149 131.596 -4.3024
-11.7437 99.3776 7.74422
-8.67332 110.366 -5.22817
-15.4237 98.9065 1.79289
-7.53816 111.274 -4.63542
-0.656271 108.559 12.6344
17.1195 129.853 9.28809
7.92348 124.415 1.60649
-7.49057 111.391 -4.63659
-15.1021 98.7751 2.88501
7.17784 123.64 1.74718
-15.1481 98.8899 2.65751
16.2463 130.765 6.34749
-10.5803 100.182 8.89621
-12.9626 105.695 -4.73121
-1.7759 115.876 -1.41591
4.04341 121.604 -0.399554
19.3576 141.273 -5.5443
-5.72723 113.114 -3.90106
16.9222 134.098 2.21012
16.4621 134.204 1.34021
15.3651 135.434 -2.58897
16.9066 134.428 2.00248
15.0272 136.587 -5.08026
1.12361 119.712 -2.0346
15.4966 135.261 -1.90676
-8.47163 111.217 -5.18605
-13.8802 99.0748 5.48806
-3.26032 114.987 -1.83092
-4.79422 104.624 12.9253
22.0505 143.765 -4.04778
18.6271 134.363 5.61888
-5.16562 113.967 -3.54317
0.00385049 110.37 12.0631
20.5255 139.155 1.01704
20.7527 139.565 0.74518
11.5614 126.291 6.40635
-0.433858 117.955 -1.51047
-7.58948 112.215 -4.87091
-8.39847 102.306 10.5958
-14.5248 99.5269 4.06779
4.39584 122.279 0.286966
8.48995 126.901 -0.00743684
-15.0645 103.215 -3.12722
12.5503 134.436 -5.26617
-16.2956 100.536 -0.83111
-16.4163 100.256 -0.519182
-11.1822 109.022 -5.68083
-1.20007 117.34 -1.36007
-9.52876 101.71 9.83428
5.59432 117.224 11.3826
11.751 127.217 5.82459
19.2412 135.967 4.77043
2.35011 114.058 10.8678
2.30835 121.315 -1.48085
22.44 144.076 -2.86976
-1.37776 117.338 -1.31452
15.6579 131.128 6.64999
15.4328 129.978 8.20841
15.9698 136.884 -2.48055
15.0192 136.994 -4.35233
15.9623 132.088 5.78116
13.8239 136.576 -5.6741
-3.71541 106.383 13.3844
15.784 136.879 -2.31703
17.0664 132.607 7.3181
16.4847 134.943 2.29724
-6.20266 104.74 11.8965
22.2804 144.069 -2.37287
-8.05818 112.892 -5.02771
13.9671 132.435 2.39842
-15.6606 100.453 2.2042
-7.26379 113.606 -4.63667
17.8621 141.113 -5.0626
12.697 129.528 5.14822
10.8814 132.822 -3.76903
-5.36323 115.144 -3.65382
14.9976 137.337 -3.78408
17.0907 140.525 -5.318
15.2843 129.421 10.2331
15.5334 129.751 10.138
13.7333 137.073 -5.51762
22.0126 142.937 -0.132712
10.0047 124.898 8.44596
8.51199 122.784 9.3155
3.50978 123.225 -0.544691
-12.8052 108.29 -5.16259
-14.7169 105.472 -3.87818
9.34888 131.151 -3.11288
16.8244 132.838 7.81555
7.88566 127.154 1.0276
-15.7435 100.923 2.06255
-7.01215 114.317 -4.49863
17.1237 133.836 6.78899
1.94731 122.104 -1.19703
-7.74213 113.754 -4.81039
-16.0215 100.991 1.63832
0.701781 121.004 -1.50236
13.9789 132.929 2.70473
12.1207 135.805 -5.57618
-7.63921 104.733 10.8303
15.6211 135.324 1.78467
5.86786 124.981 1.42662
15.7096 131.459 8.64926
-14.9451 104.977 -2.78228
7.92052 127.882 0.436477
10.3508 132.854 -3.50887
14.6806 138.065 -4.31235
-14.3117 106.566 -4.21512
-2.42718 109.143 13.2886
-11.4107 102.557 7.96668
15.3119 138.191 -3.30512
-15.398 103.586 -1.09851
12.1483 129.301 6.02455
13.3424 131.516 4.48969
-1.86581 109.974 13.0536
-15.9419 101.436 1.65289
-15.0793 104.351 -1.69481
-10.5844 102.994 8.90248
13.7573 133.099 2.70867
-4.68877 116.33 -2.65408
-7.70231 105.112 10.8937
12.2969 136.934 -6.21111
15.5432 133.855 5.01438
21.8342 145.582 -3.26056
21.9182 144.107 -0.596293
5.15516 119.428 10.438
21.7866 144.788 -1.95945
4.16028 117.667 11.6107
-1.11202 111.465 12.4967
-12.1087 110.174 -5.43369
-14.8175 105.84 -3.04339
17.0275 141.527 -4.92291
-14.8305 105.856 -2.97439
-15.8604 102.085 1.60092
19.2221 139.907 2.01012
3.69847 117.41 11.6035
4.45314 118.596 11.0458
-2.11353 110.339 12.9751
10.2979 126.668 8.14256
16.4366 133.281 8.22419
-11.6358 103.1 7.81012
14.947 138.023 -2.49183
-13.9444 103.022 3.83537
-14.7802 105.839 -2.34224
20.7037 142.207 1.29341
13.3754 138.039 -5.04314
15.068 138.859 -3.31074
-9.36785 113.57 -5.35723
-0.995385 112.249 12.2977
2.84582 124.109 -0.66843
19.2123 139.092 4.10064
12.0723 137.41 -6.12269
0.0574068 113.957 11.581
-2.90159 118.29 -1.16247
-8.21306 114.767 -4.91315
-13.1789 102.957 5.98131
3.50317 124.887 -0.392116
19.1924 144.445 -4.69898
-2.4716 110.529 12.9646
9.13701 125.75 8.6171
15.4626 134.945 4.71285
16.6775 137.195 3.13759
-15.5432 104.822 -1.1677
7.32295 128.332 1.14693
14.9299 133.062 7.11891
14.7806 132.489 7.88157
3.44863 117.955 11.6883
-11.9401 103.78 7.43283
-6.93795 106.729 11.6515
20.2599 145.454 -3.95285
1.35601 122.904 -0.397036
-2.56309 118.984 -0.925903
-2.59691 118.962 -0.93857
14.5299 139.754 -4.6549
11.417 129.724 6.64378
5.10513 126.131 1.24484
13.3511 134.543 2.2786
7.07392 124.079 8.48438
11.074 136.693 -5.44626
-5.42974 107.991 12.9391
0.562848 122.403 -0.438481
7.53785 129.771 -0.086973
-2.11737 119.731 -0.715136
12.5782 132.31 5.06057
10.6998 128.806 7.55756
-12.4494 111.276 -5.25237
16.0809 137.828 2.20024
10.4458 135.772 -4.60368
-11.5138 112.46 -5.35218
13.7161 135.481 2.02753
14.2802 136.891 0.729589
1.66984 116.98 11.4001
21.1438 146.436 -2.67887
-14.0525 105.028 2.86785
16.6176 138.264 2.96887
11.5094 138.154 -6.10166
16.8966 136.304 6.96031
14.2509 139.818 -3.84883
6.49751 124.329 8.19083
18.8273 141.388 1.96679
20.4844 143.475 1.60134
17.8623 138.408 5.39793
7.27599 130.73 -1.02921
15.6866 136.625 4.47809
15.1797 135.355 5.80599
15.1441 134.254 7.64226
14.351 140.597 -4.55334
9.91348 135.646 -4.31127
20.3475 143.506 1.69936
18.8732 140.92 3.39266
12.3746 139.151 -5.4228
20.9147 146.445 -2.07903
-4.74221 119.003 -2.72067
18.7585 141.662 2.24276
15.9881 142.547 -4.22515
14.4578 138.036 0.635463
-14.5332 109.524 -4.27479
-10.7222 106.051 8.62507
-12.8764 106.079 4.74025
-9.9372 115.16 -5.23099
-5.62047 109.085 13.0088
3.92817 126.997 0.28718
-5.53324 109.209 13.0492
14.537 138.201 0.894215
17.1469 137.504 6.87313
13.8502 139.601 -2.63208
10.9889 131.227 6.33353
14.0193 140.85 -4.37776
12.9136 136.574 0.842292
2.15309 125.561 -0.0263672
-16.2714 105.402 0.356692
12.8494 136.363 1.4622
-1.54743 121.772 -0.244597
-0.308869 123.087 -0.0840992
6.04792 129.034 1.5593
19.7187 143.657 1.9231
13.0508 137.199 0.664318
15.0186 135.404 7.36908
15.0424 141.662 -3.17082
-15.6035 107.708 -1.91765
10.6763 131.149 6.67765
-4.49327 110.771 13.5896
6.80913 130.991 0.113571
4.88749 123.235 9.80572
-12.2429 113.413 -5.0094
-15.8695 107.426 -1.45366
-13.8529 106.573 3.71116
-10.4546 108.056 7.45874
-11.3842 107.857 6.10088
-9.52506 116.442 -5.02696
-2.32422 121.545 -0.428455
19.6341 143.959 2.00191
19.9018 147.138 -2.88109
14.816 135.599 7.33709
1.74763 119.036 11.4295
10.0703 137.965 -5.33136
7.35216 133.064 -1.94035
-9.84221 108.548 8.02219
17.3907 144.84 -3.37005
18.342 140.812 5.23211
-16.1535 106.177 0.547592
-0.250417 123.862 -0.116663
8.88412 136.03 -3.94576
-6.13919 109.797 12.9605
-3.25162 121.169 -0.918977
10.9251 139.623 -6.00179
-16.1793 107.302 -1.00694
10.1813 138.641 -5.65361
-9.17198 108.402 10.092
3.02055 121.202 11.0701
12.2716 135.718 3.48047
2.51983 120.674 11.1208
-0.983969 116.706 11.5289
17.8075 145.592 -2.86279
15.734 138.254 5.77682
1.27267 125.791 0.324549
15.6607 143.039 -2.37556
-13.0806 113.276 -4.73114
-15.4181 106.341 2.75603
15.1949 142.425 -2.11929
7.98132 135.457 -3.46205
13.686 140.787 -2.0068
-2.67353 114.882 12.0749
16.0911 139.886 4.23385
1.43428 126.246 0.412528
19.9536 147.679 -1.86155
13.5783 141.155 -2.49305
7.53511 134.998 -3.11707
-2.53778 122.422 -0.276403
-16.2437 107.985 -0.911215
-10.7307 109.506 6.66917
9.4676 138.314 -4.98681
17.8817 141.827 4.55625
14.8247 139.813 2.36046
18.0053 142.947 2.90417
18.1737 146.563 -2.89519
15.89 140.682 3.00591
12.1395 135.903 4.39043
13.1842 142.47 -4.62294
-16.2679 107.27 0.965975
17.641 142.416 3.73116
4.08061 123.92 10.1615
17.8512 141.557 5.58389
3.54636 123.023 10.7417
14.3538 142.147 -1.76493
6.39206 132.73 -0.431769
6.19144 127.809 7.69952
13.6615 139.986 0.853913
-3.50262 114.332 12.8079
-1.49604 124.181 -0.0193872
3.46151 123.253 10.6922
16.5685 140.923 4.96701
-5.10793 112.335 13.5801
4.4652 125.305 9.22177
-10.8784 116.902 -4.72352
1.13396 120.879 10.9263
13.28 142.804 -3.82827
-8.23061 110.782 10.9573
-3.88395 123.146 -1.99029
-2.08723 123.949 0.0574994
3.1741 123.423 10.6504
-13.7566 108.424 4.95728
4.77038 130.698 1.36763
16.5287 145.423 -1.93313
-9.67246 118.615 -4.5894
-15.425 107.647 3.44894
9.50064 132.439 7.27081
-15.3299 111.828 -3.43171
17.1054 146.367 -2.25596
-3.23413 115.61 12.5367
12.3321 142.589 -4.5648
-15.3462 111.938 -3.39992
-7.74603 111.689 11.1106
10.9666 135.478 5.2146
-15.4483 111.898 -3.31146
1.20718 121.681 10.7892
10.4416 134.327 6.37411
18.588 145.639 2.2494
-8.20749 111.568 10.7599
11.1264 142.076 -5.37319
10.8929 135.727 4.99221
4.42971 126.825 8.21181
3.58861 130.174 1.02208
-3.39825 115.743 12.6793
13.0977 143.67 -4.1033
14.936 141.382 3.15583
6.26994 134.463 -1.04541
-8.28797 111.795 10.6303
12.1451 138.592 2.8811
9.42336 133.245 7.04484
17.7677 148.033 -2.63263
3.73509 130.671 1.22391
-16.3995 109.899 -0.565092
-11.7613 110.459 7.01106
-11.9831 110.323 6.89983
9.46258 133.634 6.87633
18.9273 148.16 -0.315691
8.69244 132.545 7.36523
6.25629 134.963 -1.20171
-16.0845 108.71 2.26858
-14.1386 109.089 5.23962
6.06028 129.511 7.79016
1.891 129.077 0.908777
-9.15105 119.947 -3.8725
-10.8668 118.531 -4.56433
12.1818 143.679 -4.73007
18.2966 146.043 2.59721
17.2737 144.559 3.23707
-3.03669 124.799 -0.587092
4.15074 131.612 1.20978
7.15607 137.915 -3.9238
-8.16325 120.864 -3.17832
6.81532 137.316 -3.45631
16.486 142.898 4.91425
10.4576 137.094 3.69804
-15.9535 112.109 -2.48518
-3.15326 117.205 12.4047
11.595 139.547 1.66399
-1.70248 119.329 11.5263
-5.98744 113.786 13.0469
-0.727897 126.912 0.525902
-1.42242 126.276 0.357399
3.02034 130.638 1.15173
3.79493 131.478 1.2424
17.5727 148.671 -2.50579
13.485 143.749 -1.64517
16.7643 144.156 3.74684
14.0925 141.836 2.83769
8.53603 133.39 7.0218
-12.0472 117.903 -4.36279
-15.9655 112.674 -2.66067
-16.1651 112.065 -1.92859
14.4069 142.083 3.42025
3.91401 128.336 7.43522
-11.4615 111.831 7.22009
11.6358 140.852 0.56616
-3.49464 125.3 -0.837241
-0.991076 120.95 11.1541
3.14963 126.333 9.72716
-15.2709 109.488 4.4191
-16.4225 109.718 1.92397
13.8515 142.235 2.55313
-1.45671 127.028 0.326937
-6.19696 114.572 12.8923
-13.9986 115.888 -3.67537
11.338 144.348 -5.23501
-7.75819 122.291 -2.91107
10.493 143.651 -5.52058
11.5973 141.35 0.493787
-0.928772 121.623 11.1402
-7.14759 114.698 11.5259
-11.3062 112.697 7.3215
15.8825 147.229 -1.18096
11.541 141.625 0.456724
11.5466 140.443 2.47714
11.5938 144.884 -4.95036
-16.6084 111.642 -0.330694
5.21264 135.043 0.11819
11.5026 141.668 0.453464
14.8233 146.162 -1.00418
15.4896 146.733 -0.697725
5.8534 136.611 -1.19157
11.8689 142.229 0.346318
11.1301 140.45 2.00807
11.8153 145.188 -4.724
-3.0415 126.448 -0.261509
2.01607 125.703 10.3222
-14.7403 110.475 5.38426
14.5236 143.115 3.95514
-7.65899 123.101 -2.88774
12.4471 145.642 -4.1304
5.76553 136.773 -1.13404
-2.73801 119.783 12.0606
9.79139 139.858 1.08553
5.1355 131.104 7.38967
13.148 143.234 1.57941
7.40425 140.403 -4.17025
-10.6687 113.599 8.06298
-16.5521 112.71 -0.939233
2.97239 128.902 7.58478
-3.73385 118.452 13.0745
2.26929 127.796 8.36577
-4.51539 117.558 13.3059
9.44259 139.993 0.975507
-10.7027 113.835 8.30561
1.1133 125.527 10.2451
13.3675 143.483 2.45801
8.41308 136.172 5.75861
-7.12324 124.791 -3.47538
4.29812 134.686 0.841047
-16.1333 111.166 3.154
-3.48397 127.14 -0.585333
-16.7833 111.544 1.41163
-8.35382 123.542 -3.36455
-7.39013 124.693 -3.53599
16.8469 146.723 3.69842
8.49144 137.126 4.63035
14.5094 143.924 4.21892
7.42842 134.927 6.49558
-8.90484 115.16 10.0182
3.35329 130.067 7.34678
-15.8547 115.406 -3.04041
2.56006 132.888 1.20074
8.50319 142.901 -4.8138
-16.0332 115.098 -2.7449
-12.4335 119.695 -3.90812
3.93216 134.622 0.884177
3.36248 133.876 1.1262
-16.3699 114.351 -2.01836
13.8398 146.675 -1.16495
-10.0857 122.062 -3.37366
10.3519 140.937 2.21878
0.772606 126.122 9.75394
-12.118 113.546 7.42207
-10.8102 121.735 -3.9853
-5.48921 126.374 -1.98437
-15.8918 111.619 3.90903
6.81119 140.729 -3.65711
3.03171 130.383 7.09349
-5.09124 126.904 -1.88926
12.614 146.092 -1.85137
5.66613 138.417 -1.46261
-16.6605 112.192 1.95201
7.58598 136.082 6.03107
13.2302 146.724 -1.62321
9.81556 141.835 0.525409
-2.71738 121.284 12.3492
0.367167 131.836 0.149246
-5.09519 118.345 13.0362
3.87602 135.404 0.748298
7.44095 136.419 5.76905
10.1176 141.722 1.70168
-13.758 118.829 -3.31303
-16.0252 112.17 3.83156
7.86457 137.657 4.56838
-0.131047 125.398 10.6773
-16.6427 114.359 -0.911068
3.7088 132.097 6.4611
10.8435 143.416 0.40292
13.7239 147.964 -1.96841
-4.53026 119.462 12.9453
-16.147 112.366 3.62917
13.0632 147.473 -2.16871
-4.79427 128.064 -1.98238
2.55991 131.229 6.50146
-0.406859 125.642 10.5488
7.19338 136.953 5.35855
-8.31811 116.67 11.2318
1.98358 130.581 6.59449
-10.5468 115.347 9.43657
12.878 147.779 -2.46782
3.47471 135.651 0.81044
15.1123 145.911 4.87321
-11.1635 114.995 8.98105
2.46084 134.511 1.02748
-11.4601 114.848 8.8648
-4.66166 128.567 -1.87499
10.1913 142.744 1.45885
6.93338 136.809 5.55539
-16.4056 115.963 -1.8426
7.58112 139.52 2.34653
14.9187 149.208 -0.551222
7.26888 142.804 -3.72459
-16.705 115.128 -0.880719
11.3656 146.959 -3.16301
15.3286 150.101 -1.18515
-5.11816 128.642 -2.32929
0.077115 127.635 8.95277
-6.4208 127.364 -2.5302
-13.3424 120.45 -3.36649
-13.5373 120.215 -3.32206
16.4775 150.321 0.882286
14.6802 149.138 -0.331685
-0.928484 126.348 9.61529
12.7718 145.415 2.57858
1.55286 134.234 1.02997
-4.58572 129.277 -1.77881
13.431 149.013 -2.10871
8.48724 142.118 0.513075
16.3542 150.773 0.399052
-14.2238 119.807 -3.32164
-2.7158 130.645 -0.500068
-16.6523 115.596 -0.560448
-6.02215 119.551 12.304
3.68027 133.842 5.9483
-14.9666 114.598 4.32254
-4.32309 121.134 13.075
-5.28687 129.306 -2.47902
-14.6032 117.989 -0.395409
2.51902 135.765 0.970165
15.689 149.513 1.91262
-0.811933 132.899 -0.112786
3.37024 137.065 0.570674
-1.64266 125.426 11.1031
5.12897 140.506 -1.91441
3.96996 138.188 -0.0210198
6.53869 143.02 -3.4141
12.1717 146.154 1.63023
8.00622 145.263 -4.48542
-15.9163 118.309 -2.70337
-2.09963 124.87 11.6231
-14.1771 117.994 1.08943
-2.21086 124.78 11.6825
-4.50492 130.188 -1.672
-11.5357 116.404 8.83202
-4.09101 122.232 12.7006
-2.15029 132.121 -0.421082
-16.0874 116.662 0.171857
2.62679 133.487 6.09399
-15.0487 117.736 0.357577
-1.58925 127.358 8.81199
-14.2622 118.774 0.0694316
-15.8236 116.056 1.90639
15.6255 151.014 0.523428
5.66548 137.383 5.35204
6.08485 138.312 4.61174
12.8781 149.507 -1.80912
10.7498 148.227 -3.54508
0.935765 131.754 6.4065
-14.6043 116.901 3.03473
-2.71155 125.909 9.63603
-7.31997 128.84 -3.72579
-8.65762 118.283 11.9378
6.51638 141.485 0.654787
-8.53321 128.085 -4.24681
-8.07077 119.021 12.0458
12.4192 146.667 2.87293
-15.5341 119.208 -1.90824
1.8883 133.318 6.26447
-3.55154 131.768 -1.10173
-12.8888 123.474 -4.16175
11.8555 146.918 1.6073
-0.0173443 130.385 7.80826
2.76838 134.588 5.8641
10.4216 148.758 -4.03343
-7.89593 129.006 -4.22011
0.719935 132.173 6.36941
-0.107219 130.833 7.17457
-14.8596 115.599 5.88146
-3.54865 124.622 11.5964
-3.62222 124.55 11.6312
2.63547 134.787 5.80955
12.0701 147.159 2.32397
-4.63213 123.935 11.1028
-6.3182 130.899 -3.66599
-1.82584 128.928 7.93215
-14.0576 120.964 -1.04843
-8.13154 129.58 -4.72177
4.03048 140.457 -0.625778
-5.8906 123.214 10.4475
14.3501 150.305 1.82774
-3.97129 132.414 -1.48158
5.95067 144.149 -3.10519
14.2501 151.565 -0.395072
-4.08957 124.743 11.3641
-4.96076 124.356 10.4744
5.55113 140.356 2.83028
1.33301 137.241 0.359345
-14.7045 116.007 6.89838
-5.23606 124.687 9.6504
-0.626196 130.747 7.86681
-6.11492 122.785 11.3144
-4.78397 125.629 8.94824
-0.64061 130.888 7.65148
-14.8296 116.564 5.85171
-6.68927 131.448 -4.20812
2.97518 136.51 4.98411
9.38439 145.732 1.14973
8.83168 144.373 2.46603
10.2427 149.924 -4.32606
-15.3091 119.436 0.404747
-0.414068 132.28 6.05937
5.33586 140.293 3.08046
-6.16204 131.713 -3.50766
13.6807 151.422 -0.380567
-6.39584 122.895 11.0773
14.3318 151.874 0.0644056
-11.2937 127.165 -5.12613
-14.2545 118.675 3.8251
-6.99307 131.47 -4.50879
-5.53416 131.981 -2.67891
5.03705 139.628 3.89584
13.0033 148.755 3.10177
-3.92684 126.295 10.122
-13.4621 117.818 7.0001
9.36441 146.17 0.930818
11.3862 150.496 -2.67567
-12.7811 125.145 -3.97762
-9.36381 120.166 10.7778
-10.4899 128.716 -5.69261
-4.13669 126.208 10.2803
-15.0977 116.727 6.38978
-14.6465 118.992 3.38303
-3.53186 133.968 -1.39318
9.76013 147.146 0.838731
-14.0008 116.313 9.42377
9.92984 150.351 -4.19167
0.326327 137.368 0.207129
-6.16809 125.743 8.02452
-10.1731 129.367 -5.44496
-13.8155 123.975 -2.94938
-4.95227 133.335 -2.42206
0.909049 134.884 5.80501
-13.7652 124.146 -2.87565
-13.3264 118.236 7.95309
4.87959 141.764 1.5451
0.752472 138.064 0.24537
2.88534 140.791 -0.428105
-14.8356 118.326 5.19353
-7.48601 123.081 10.6701
13.2316 150.738 1.87929
-15.8203 119.566 1.35455
-3.74399 128.969 7.6523
-8.45525 131.779 -5.73638
-10.5825 120.353 9.7924
-11.6179 119.533 9.3893
8.1525 149.021 -4.23787
-1.70836 132.4 5.8097
9.00345 150.309 -4.81663
3.28625 138.747 4.29503
-14.9344 121.547 0.00572402
-13.0224 125.438 -2.99882
-10.1005 120.862 10.1289
-14.134 122.997 -0.811852
-14.1176 120.816 2.92436
-15.0579 121.311 0.360614
-14.0073 117.27 9.26506
-14.9924 122.496 -1.27581
-13.9097 123.74 -1.3487
-14.082 120.487 3.86619
-5.06504 134.495 -3.27527
-14.8796 122.934 -1.67922
6.11568 146.546 -3.08429
-4.86233 134.6 -3.00128
-13.1415 121.495 3.99233
2.86517 141.52 -0.504883
-2.09833 132.25 6.11961
-13.3292 121.212 4.24218
-13.9549 123.718 -1.14395
-11.6488 120.259 9.02256
3.16208 142.042 -0.620285
13.1087 152.179 0.489125
4.20317 143.161 -0.571084
3.97163 140.393 3.80105
-13.4645 121.807 3.28281
-13.7942 120.949 4.18864
4.10072 143.859 -1.53125
6.42807 147.351 -3.13354
-5.79993 134.86 -4.43568
-12.9476 127.173 -4.45913
-14.917 118.686 6.31371
-2.18089 136.659 -0.641494
-13.875 125.217 -2.66174
-13.4972 120.417 6.20161
-13.3351 121.176 5.22562
-9.91086 121.835 10.482
-13.3917 122.222 3.44045
-14.0112 118.241 9.05266
-13.5181 122.486 2.76612
-13.6429 121.153 4.79868
11.5731 149.701 2.76655
-13.8161 119.086 7.99906
-8.99278 132.486 -5.47213
7.926 146.762 1.65113
-13.2019 119.062 9.80836
5.47699 146.894 -2.92822
-5.86626 135.516 -4.48335
12.5516 152.502 0.58656
11.2596 152.03 -0.914269
-13.9843 121.987 3.60731
-14.4766 118.979 7.8261
-4.28117 136.252 -2.67048
-14.4237 121.718 3.33792
-0.478846 138.921 -0.100164
2.4478 142.347 -0.513202
0.636318 137.29 4.78087
-14.0864 117.917 10.5542
-13.3173 122.112 4.88371
-6.96511 134.998 -5.26069
-14.7437 124.157 -1.1667
-13.5078 119.839 8.43871
-13.755 117.98 11.2244
10.94 149.997 2.39811
-14.1885 122.964 2.05898
9.70997 149.42 1.15341
-13.0729 121.93 5.90475
-14.4558 121.189 4.63546
-13.6006 119.147 9.69402
-14.0506 123.454 1.57908
-3.88824 136.973 -2.5973
-9.86883 123.54 9.1861
-0.591551 135.777 5.55111
-5.85844 135.97 -4.438
-12.932 119.943 9.73111
-13.6029 121.241 6.32707
8.29138 151.276 -4.25165
-13.1505 119.953 9.42721
9.88494 151.695 -2.02611
-3.5614 131.607 7.31813
-13.1815 119.939 9.42198
-3.00832 133.321 5.58084
-14.6826 117.554 10.8487
12.1309 152.371 1.18824
1.32771 138.894 4.18176
-6.9004 135.674 -5.4324
-1.47069 138.634 -0.427129
-14.7297 124.506 -0.7471
-13.4768 120.208 8.85682
-15.8051 119.794 5.32836
-14.3195 119.566 8.51868
-15.6813 119.635 5.95558
-14.0899 120.318 7.72761
-14.2934 122.19 4.19733
-13.8002 122.804 4.08265
-6.1568 136.421 -4.83964
1.80547 139.972 3.77975
-4.72567 130.375 8.05543
8.74202 149.014 1.26658
-12.4754 121.401 9.18668
-0.975678 136.068 5.47593
-10.1632 124.25 8.65585
-15.1732 124.019 -0.153886
-9.21744 125.504 8.32067
12.0033 153.076 0.599463
-10.875 130.892 -3.85454
-13.9829 122.771 4.26663
-10.255 124.176 8.74421
5.87067 148.6 -3.00149
-14.5894 120.792 6.5353
-12.8001 120.675 10.0977
2.35284 143.515 -0.710501
-14.1556 118.933 10.6356
-14.6173 121.961 4.67132
-13.6124 126.45 -1.03946
-9.96301 131.982 -3.59521
-2.22129 138.862 -1.02074
-13.4864 120.202 9.90043
-12.8768 120.864 10.029
-14.2755 124.187 1.8681
-15.1546 118.156 10.4809
0.337292 141.4 -0.397382
-6.01899 137.073 -4.71328
-6.86484 128.284 8.72936
-14.7591 121.037 6.54122
-12.8478 121.411 9.44507
-9.29132 125.443 9.32693
-9.16098 134.081 -5.06347
-8.51009 126.067 9.74558
-13.971 125.088 1.37074
-13.8542 119.685 10.7682
-14.8781 120.621 7.42552
-6.00201 137.479 -4.77986
-15.0301 124.67 0.370294
9.42401 150.505 1.57034
-9.77365 125.002 9.65759
-11.2962 130.393 -2.22529
-14.6124 125.309 0.301405
-2.30871 135.447 5.74387
-5.04149 137.925 -3.47158
-15.0666 120.977 6.88275
-14.9661 123.311 3.16645
-4.43898 132.16 7.60871
-10.8262 124.335 9.15614
-14.1814 120.022 10.3773
-15.5483 122.179 4.25401
-3.80925 138.902 -2.49679
-0.987003 137.762 4.63444
-14.6646 123.472 3.71278
-14.845 123.166 3.91208
-12.5156 121.287 11.3934
-5.86935 138.029 -4.70256
-9.74593 133.574 -4.20087
-15.5586 124.173 1.12582
-14.5882 121.058 8.19303
9.06562 152.745 -1.96105
-0.588332 138.382 4.65448
-16.1623 119.886 7.50123
-15.1941 123.312 3.49431
-1.21031 141.014 -0.750135
-4.03982 133.456 6.90284
-16.7287 121.39 4.06449
-15.0972 123.291 3.84108
-5.83572 138.422 -4.74068
-13.8052 125.764 2.09687
-7.23926 128.698 9.2126
9.67818 151.48 1.78283
-12.5133 122.832 9.54874
-13.4018 122.576 8.36246
-4.54136 132.864 7.26711
-14.6442 123.865 3.98544
-2.34052 136.541 5.11951
-14.6944 123.734 4.12243
-13.7194 121.167 10.282
-13.9626 126.772 0.363716
1.80343 144.589 -0.802092
1.75574 144.582 -0.798917
-16.3742 119.876 7.90495
-4.65661 132.974 7.2674
-16.8471 117.74 10.6816
-5.11921 132.056 8.02618
-17.6024 120.127 5.33062
5.20061 149.712 -2.83471
2.63104 145.939 -1.15611
-17.2323 117.304 10.8682
-4.1377 133.849 7.01823
-13.5495 126.625 1.98186
-16.2349 120.173 7.98253
-15.8596 122.534 4.67455
-14.8806 120.25 10.3896
-15.8383 124.228 1.88831
-11.8373 122.968 11.4285
-15.0868 121.079 8.77654
0.19493 140.573 3.90229
-5.87579 139.098 -4.75328
-12.3907 130.119 -1.49663
-13.886 121.449 10.4526
5.50057 150.386 -2.94391
-17.7963 120.556 4.81549
-16.7816 118.122 10.8274
-9.49858 126.545 9.94387
-13.6867 126.73 1.96153
-17.4429 119.593 7.25451
-14.1682 127.163 0.735209
-13.0056 122.152 11.4081
-6.90557 130.149 9.1299
-5.02443 139.97 -3.8909
-2.7747 141.114 -1.68277
-7.23117 129.893 9.14276
-9.7547 134.999 -4.09128
-14.107 121.891 10.1232
1.79905 145.823 -1.09998
6.77142 152.601 -3.44529
-4.20805 134.7 6.72345
-14.6444 126.753 1.08422
-11.8038 124.414 10.2897
-14.6232 126.679 1.29671
-4.74214 133.816 7.44499
-6.05721 131.416 9.13349
-13.5571 127.638 1.79009
-13.8745 127.931 0.713928
-13.5626 128.389 0.552489
-18.7741 117.862 8.86246
-5.99637 131.729 8.87019
0.317959 141.93 3.30411
3.47374 148.91 -2.59953
0.725684 142.888 2.71684
-11.4306 124.597 11.4418
-18.8882 119.633 6.30401
9.4417 153.174 1.62552
-17.6459 122.735 3.49733
-2.91718 138.567 4.07105
-12.4064 124.493 10.5708
-12.2602 131.268 -0.533671
-16.8042 122.585 5.83352
-15.4476 120.558 12.0437
1.91208 147.275 -1.32354
-17.0512 123.908 3.45999
-17.1347 123.928 3.48665
-8.23438 138.593 -4.84552
-11.9362 125.299 11.1323
-13.4863 129.516 1.14222
-15.9093 126.588 1.74095
3.83605 150.659 -2.7019
-8.2411 130.531 9.2232
-15.5273 120.997 12.0962
-15.4212 121.131 12.099
-7.05859 131.734 9.52669
0.204957 145.839 -0.993993
-13.7334 123.161 12.0228
-8.37504 130.6 9.26549
-5.71573 141.39 -4.11239
-9.54486 128.789 10.2215
-12.9114 124.718 10.9863
3.59623 150.703 -2.68704
-13.2071 124.116 11.4894
-13.9053 129.297 1.43744
8.02764 154.263 -0.508725
-8.31801 139.125 -4.75919
-4.18404 138.135 4.73266
-8.80163 130.534 9.17887
-4.02332 138.572 4.44106
-17.4735 125.226 2.43081
-5.26237 136.25 6.43613
-19.387 118.954 9.93585
-5.55784 135.285 7.67827
-17.4807 125.327 2.65022
-11.1846 135.323 -2.43698
-19.0157 118.815 11.2223
-12.0861 125.724 12.268
-8.36211 139.781 -4.68062
-18.9252 122.405 5.43154
-11.0694 135.897 -2.95313
-17.4005 123.655 6.2726
-19.797 120.436 7.3302
-12.5926 132.336 0.412589
-17.1285 127.329 0.587473
-17.7713 119.89 12.0239
-16.7781 120.95 12.0982
-1.80321 145.148 -1.37092
-19.2641 119.122 10.7254
-17.9583 125.557 2.3084
-8.10876 140.412 -4.74493
-6.25099 134.334 8.99713
-12.1152 126.208 12.0941
-2.39981 141.672 3.88717
-9.75542 130.486 9.33514
0.224318 147.597 -1.24927
-8.70546 139.905 -4.50723
-11.0811 136.625 -3.19541
5.20141 153.642 -2.08918
-19.8502 121.354 6.62093
-8.43877 140.404 -4.49435
-7.85496 141.221 -4.74677
-12.2154 134.125 -0.656777
-11.675 135.199 -1.35466
-13.0685 132.325 1.13996
-14.4425 124.652 11.6268
-6.11761 136.59 6.91719
-18.1828 125.453 3.64438
-1.65198 143.906 2.77635
-6.12098 136.434 7.22611
4.24159 153.435 -2.46418
-7.8174 133.036 10.1721
-18.3355 120.79 11.8055
-2.22596 143.363 3.22504
-18.2562 124.957 4.96295
-14.8481 131.044 0.938775
0.358992 149.037 -1.48184
-18.6207 126.188 2.55397
-13.5265 132.266 1.63913
-13.3184 132.952 0.913274
-7.11745 134.763 9.53066
-11.01 130.16 10.1887
-6.09077 137.563 6.80139
-19.483 124.965 3.5891
-6.24341 143.944 -4.19411
-19.6825 124.884 3.75331
-19.7694 124.962 3.46717
-13.8006 132.821 1.12564
-14.5492 126.536 10.534
-10.9832 138.278 -2.78275
-19.4219 125.985 2.65584
-16.455 123.663 12.2268
-5.5723 144.972 -3.82067
-20.404 121.659 8.43637
-11.575 130.145 10.467
-17.184 129.531 1.244
-9.47421 140.599 -3.3275
-13.6257 133.888 0.500227
-3.63116 146.553 -2.43665
-8.04681 134.638 9.7964
-18.9772 126.453 3.59003
-2.96311 147.162 -1.99662
-17.4122 129.565 1.27259
-12.5 136.749 -1.8358
-7.81076 135.066 9.63578
-8.18173 142.877 -4.2762
-20.3389 124.717 4.37212
-4.8178 141.782 3.9986
-18.1471 129.047 1.22909
-13.4439 135.394 -0.86276
-0.206681 150.327 -1.82547
-2.9764 144.631 2.74377
-12.9099 134.936 1.06367
-4.037 143.336 3.15735
-9.32963 133.079 10.8284
-20.7405 122.593 7.94566
-8.47508 143.025 -4.12845
-2.06198 148.589 -1.54277
-10.7362 139.653 -2.34076
-9.87187 141.014 -3.02403
-18.143 129.232 1.89256
-18.676 126.491 5.561
-20.8019 122.815 7.91439
-10.3411 132.834 10.4632
-20.5026 124.594 5.76007
-20.4451 124.955 5.4055
-15.1518 132.857 1.7617
-4.88087 146.966 -3.2458
-20.4337 122.777 9.1846
-3.13982 145.538 2.47428
-18.1112 129.292 2.64932
-11.5861 132.207 9.70586
-18.4527 126.876 6.17448
-20.3143 123.187 9.0582
-12.6935 137.574 -1.02249
-8.24012 136.181 9.72057
-5.92107 141.217 5.50307
-4.89993 143.436 3.65107
-12.4321 137.308 0.27351
-19.6905 124.564 8.7167
-10.5001 133.281 10.9714
-20.2041 124.521 8.04871
-21.1138 124.695 6.11779
-3.65761 145.793 2.48205
-2.58158 149.529 -1.73844
-0.296051 152.266 -2.13838
-15.4832 128.479 10.286
-3.41834 148.923 -2.16265
-15.5447 128.527 10.2996
-5.36831 147.682 -3.43892
-15.3436 133.621 2.16858
-9.4983 143.444 -3.69226
-10.6033 141.686 -2.71468
-18.7877 125.924 8.98134
-19.7144 125.807 7.51307
-11.5867 140.096 -1.74009
-17.4441 125.693 11.9163
-0.931292 151.778 -1.79718
-16.8846 126.356 12.0024
-18.584 127.209 7.53398
-18.011 131.147 1.96308
-18.6408 127.666 6.73896
-16.2331 127.91 10.8697
-10.0289 134.528 11.1168
-4.62617 145.166 3.02033
-8.36613 137.29 9.72509
-18.3747 130 3.76589
-12.1386 138.178 1.62975
-3.99895 149.394 -2.40727
-9.39066 144.382 -3.75067
-16.8403 127.366 11.6531
-10.4606 142.835 -2.81635
-16.4025 133.544 2.00778
-18.4606 130.382 3.67616
-1.33287 152.258 -1.75792
-11.4925 141.49 -2.06636
-12.2071 138.49 1.7059
0.031693 154.059 -2.07609
-18.271 131.808 2.13677
-18.2491 131.931 2.11767
-11.3986 134.078 11.204
-16.8805 133.676 1.83313
-1.47923 152.483 -1.72604
-10.1965 143.805 -2.91435
-15.9885 129.864 10.2498
-16.0523 129.831 10.2763
-13.268 132.808 10.3559
-18.8933 128.258 7.76358
-8.95924 137.824 10.0471
-16.4595 129.425 10.5989
-18.6184 126.569 11.5421
-0.857558 153.915 -2.07906
-18.4344 130.979 4.58732
-7.9764 139.697 9.07772
-18.0004 133.091 1.98986
-18.2531 132.663 2.38923
-11.7503 140.416 1.23963
-18.2436 131.009 5.26989
-19.1252 126.768 10.8788
-10.7192 143.954 -2.3339
-8.58801 139.117 9.82657
-18.2699 130.836 6.09992
-18.3037 130.716 6.25215
-3.95499 151.258 -2.14875
-7.02831 148.706 -3.35649
-12.3 139.767 2.14257
-14.7296 131.967 10.9551
-10.1112 137.06 10.8264
-14.2669 137.655 2.25355
-9.17031 138.804 10.1498
-18.1657 131.548 6.00012
-18.2056 130.994 6.8906
-17.0409 134.038 3.88143
-16.9408 134.15 3.93425
-7.20744 143.262 6.42236
-4.20855 151.594 -2.17042
-17.275 133.801 4.00761
-12.5997 141.289 -0.04187
-9.74609 146.286 -3.21699
-18.0865 131.628 6.32024
-16.6733 130.615 10.6815
-11.0832 144.092 -1.87232
-15.6016 135.708 4.04001
-3.94482 151.96 -2.06185
-7.59221 142.333 7.58555
-9.7771 138.306 10.4926
-14.1531 138.438 2.77318
-13.1463 134.496 11.5861
-6.48738 150.602 -2.95065
-11.6303 143.66 -0.518445
-16.5493 131.563 10.9802
-5.51015 151.533 -2.52487
-11.944 142.212 1.52745
-12.8762 135.082 11.9468
-12.0059 142.347 1.39604
-12.393 135.999 11.5971
-6.15334 147.628 3.36586
-8.29391 149.078 -2.84681
-18.3976 133.125 5.87587
-17.6972 130.733 11.2227
-13.9268 139.608 3.15353
-4.86892 152.697 -2.20021
-12.6883 136.324 11.5191
-11.2467 143.424 2.35314
-16.4137 136.232 5.39511
-18.287 133.38 6.82977
-14.6582 139.337 3.40651
-7.5967 150.511 -2.38151
-17.7148 134.173 6.75858
-18.306 133.586 6.74015
-13.9482 135.38 11.7236
-11.5938 145.184 -0.369982
-8.96696 142.248 9.53753
-15.4686 134.129 11.5991
-18.1157 133.928 7.09729
-15.6156 138.281 4.44552
-8.45001 144.584 7.23186
-14.5355 140.139 3.69699
-15.5243 134.624 11.4434
-11.707 144.715 1.52266
-10.5364 147.804 -1.5176
-4.98346 153.832 -1.49742
-10.5368 147.969 -1.46311
-11.7384 139.455 10.8102
-16.2874 137.009 6.64925
-8.02985 150.958 -1.6808
-11.5591 144.806 2.50969
-17.3997 134.958 8.63079
-13.5504 142.136 3.80886
-11.1719 147.162 -0.309605
-12.054 143.644 4.04196
-11.6198 144.237 3.8393
-16.1098 138.311 5.77404
-14.4946 141.018 4.42264
-9.26115 144.622 8.12381
-11.9722 140.491 10.5079
-12.007 140.453 10.5136
-7.4374 150.233 2.76075
-15.9599 138.423 7.48133
-9.32028 145.916 7.08482
-11.0856 148.156 0.462101
-6.24355 154.111 -0.484972
-12.4122 141.097 10.2533
-15.1526 140.909 5.55904
-8.43858 149.74 3.51702
-15.7913 138.62 8.94305
-10.1452 145.755 7.32892
-11.4536 143.258 9.36299
-9.63324 147.046 6.37864
-11.328 147.67 2.62709
-15.0475 141.087 7.03451
-14.6938 141.884 6.78348
-13.6648 143.579 5.8802
-14.5798 141.111 8.68933
-10.604 147.317 5.92758
-10.7137 146.862 6.68377
-13.8577 142.962 7.78464
-11.6554 147.157 4.88191
-12.0236 146.426 5.85931
-12.0405 146.326 6.25381
