ply
format ascii 1.0
comment Created by Open3D
element vertex 1974
property double x
property double y
property double z
end_header
6.94431 114.497 -3.03977
3.54255 102.352 15.8233
-7.01648 105.991 -7.44087
-5.76052 97.9142 10.4903
12.6471 110.625 13.5418
13.1872 112.266 11.1359
-3.64169 99.8974 9.8458
-14.1168 101.896 -10.0812
-9.93749 94.8782 10.1921
-16.1845 100.432 -10.3022
12.1422 116.743 0.861553
-9.74583 94.906 10.5409
-2.42274 101.35 9.11797
-15.6328 93.358 4.74041
3.6985 105.95 9.52212
-9.3058 105.248 -8.86998
-11.4291 103.78 -9.16724
-10.8943 95.1645 8.85254
5.69045 109.095 6.82596
11.1809 109.303 14.9512
4.1616 112.441 -1.95725
1.70592 112.16 -5.10562
5.48383 111.111 2.7678
-22.6402 94.1709 -6.77234
5.93474 109.884 5.93487
-18.8894 98.3368 -9.14824
-9.39727 95.5539 11.0534
6.16966 110.524 5.30555
-18.8073 92.993 1.75038
-15.3917 101.715 -10.1742
12.1675 114.231 7.31178
0.343382 103.502 10.4602
14.2129 119.143 0.836425
4.71777 107.513 9.40805
2.06453 112.203 -3.89033
11.8566 116.813 1.99526
10.3467 118.601 -3.82427
11.7389 116.283 2.98022
-22.2034 95.2094 -7.26667
-2.45183 102.601 8.39335
-15.2168 94.3144 5.33994
4.84451 111.327 2.42533
11.7065 117.204 1.31228
11.1516 109.922 14.8739
13.0598 120.445 -3.00036
-2.81806 102.36 8.45644
-4.70933 100.381 9.48385
11.4273 115.969 3.39612
11.7692 114.867 6.12769
3.30192 112.559 -2.2491
-2.18927 103.125 8.12971
-1.96271 103.431 7.91421
2.02718 108.89 3.2294
11.6705 117.159 1.65062
-14.6735 102.828 -10.1205
4.80337 114.01 -2.3603
15.1233 120.478 0.689116
14.4624 119.673 1.3535
4.84512 108.42 8.912
-2.36016 103.348 7.99832
-13.4134 95.4312 6.75502
11.7782 114.414 7.78219
11.6692 114.775 6.93403
-21.159 97.0071 -8.10977
9.50682 108.657 15.8513
6.49998 112.469 3.73868
11.2263 120.367 -4.59028
11.6146 114.787 7.04472
10.4038 119.3 -3.65528
11.6993 120.768 -4.44394
15.7618 121.194 1.01883
11.5168 111.176 14.3876
12.364 120.92 -3.55319
-22.7547 94.8852 -5.79753
10.6349 119.806 -3.91388
2.00079 109.384 3.52017
-20.7259 93.5228 0.124079
14.9204 120.536 1.30125
-6.61169 99.5747 9.79764
1.23676 107 7.13438
3.03363 106.709 10.5151
-21.6907 93.8507 -1.89408
10.7274 115.445 5.02472
-22.3823 95.5852 -6.37773
15.7682 121.213 1.37918
1.2809 107.194 6.93634
-5.84356 100.448 9.3718
-12.7594 104.82 -9.74076
10.4941 119.815 -3.75
11.2672 117.409 2.25284
-17.0392 94.6004 4.0674
12.2477 121.151 -3.51541
1.88654 106.025 10.5425
11.65 114.138 9.48621
5.30432 110.151 7.77499
11.6178 118.248 1.46161
7.06762 107.286 16.1719
11.4194 114.367 8.87477
-21.4154 93.8563 -0.780995
11.9927 118.761 1.12
13.0537 120.423 -0.524123
-6.95235 108.02 -6.56532
12.247 116.992 5.20342
1.38753 104.764 12.8325
5.8772 113.403 2.79275
15.5437 122.052 0.538763
1.25251 107.633 7.18927
1.40783 108.04 6.66752
10.9076 116.935 3.62643
-3.42008 110.748 -6.06379
12.0023 113.763 11.5774
2.25925 113.486 -2.76004
11.8875 113.891 11.2709
11.7412 116.612 5.67421
1.52321 113.594 -3.97284
-0.28542 106.191 7.89968
-11.3323 106.514 -9.50659
5.74314 111.451 6.88875
11.4002 116.351 5.89763
-18.7796 94.7345 2.50403
12.1643 121.616 -3.25999
-6.95016 100.375 9.51104
-9.77677 97.5309 10.9064
-2.58837 111.77 -6.1094
-17.3648 102.146 -9.67175
14.2799 120.666 2.23084
11.5317 114.134 10.9905
-20.1034 94.459 1.52197
1.27803 105.249 12.9415
4.23543 112.921 2.31596
15.7331 121.685 2.62854
3.96981 106.153 15.4097
11.6834 113.954 11.8247
16.1278 121.666 3.39844
12.3793 116.784 7.38356
11.8453 116.532 7.08464
-21.5435 95.6165 -2.6501
-15.4871 96.1208 5.63845
2.77615 105.485 15.0934
11.7558 118.26 3.64937
14.535 120.791 2.90187
3.0804 114.441 -2.06724
1.98951 110.66 3.77378
1.90784 106.65 11.6077
3.59238 106.112 15.2614
6.34273 114.377 3.23764
13.6453 121.803 -0.261994
12.0111 119.563 1.68309
-21.1839 94.7528 -0.065173
6.33381 113.238 5.5987
5.62282 114.223 2.58622
3.28781 112.451 2.58648
-5.31957 110.016 -5.75658
10.7076 117.777 3.46774
15.82 122.889 1.21086
-12.7938 106.466 -10.1039
11.7916 116.396 7.90031
-21.5086 95.154 -1.04539
6.47692 117.625 -2.64088
-15.2057 104.624 -10.099
-16.0699 103.988 -10.1389
1.89508 106.675 12.0579
-6.12174 109.598 -5.95216
6.95688 114.824 3.80954
-14.2867 105.416 -10.0704
-9.81942 98.3541 10.7684
14.9174 121.468 2.93669
10.9823 115.911 7.92325
1.87846 110.418 4.85256
12.2465 118.76 4.26847
2.04971 114.349 -2.55826
11.2072 114.301 11.6447
-16.9798 103.495 -10.0941
1.88425 110.538 4.87383
11.4595 116.039 8.66784
12.5781 121.376 -0.155192
-21.3121 99.0545 -7.8109
7.42191 109.513 15.4989
6.00933 117.499 -2.36677
13.0923 122.352 -1.12041
14.802 123.164 -0.0763043
1.4233 109.192 7.13502
2.30048 107.125 12.5686
16.6364 122.64 3.84316
11.7076 120.094 1.33513
15.13 121.344 4.1279
11.1911 114.263 12.1087
-9.13448 99.4563 10.3345
11.3417 113.361 14.2013
-9.0485 99.5848 10.2523
4.75651 111.237 8.39194
1.19114 114.572 -3.6566
5.70151 112.89 6.62059
16.9983 122.703 4.56692
-7.22324 101.586 9.35253
1.72096 110.125 6.15915
-18.2237 102.452 -9.15732
-17.1271 96.3668 4.72337
-22.2141 96.7287 -3.7056
11.8517 121.344 -0.238993
12.7681 117.654 8.56576
-21.5316 96.6151 -2.27678
14.6408 123.599 -0.210117
-6.74806 109.918 -5.89197
0.241433 108.188 8.2578
12.9794 119.442 5.53155
-21.3066 96.2417 -1.06084
-19.8557 95.6971 2.27302
16.2858 122.161 5.27623
-21.3008 96.4196 -1.33353
15.0111 121.243 5.20828
5.82957 115.461 2.59121
-22.4641 97.8496 -5.82008
13.1212 121.905 1.09454
9.76913 121.741 -3.61829
-13.0118 107.344 -9.97854
2.89657 107.309 14.5291
10.4082 122.668 -4.2913
2.8555 107.331 14.5183
6.01197 114.209 5.75675
-17.1194 96.7257 4.92706
-13.081 107.398 -9.97964
13.7302 121.939 2.31309
16.2009 123.927 2.1967
11.8632 121.41 0.54687
13.578 121.632 2.7521
13.2691 119.77 6.13788
3.34895 107.754 14.7407
2.83842 109.048 11.5259
3.77294 108.094 14.8724
16.629 123.71 3.71685
8.58015 120.505 -2.22792
5.90398 114.34 5.8742
16.3776 124.094 2.63838
2.10363 112.476 3.88851
-21.0192 96.7929 -0.377471
8.46508 111.605 15.4815
-6.05876 110.968 -5.47896
-11.9236 98.4699 10.256
15.1793 121.988 5.29093
13.601 121.695 3.5002
-7.19973 110.394 -5.95595
-19.9527 96.3316 2.43416
5.6115 109.625 15.2863
2.20709 113.081 3.2981
10.9066 121.524 -0.045641
1.58169 107.156 14.1114
-0.381239 115.366 -5.1076
15.1179 122.044 5.41279
6.3986 116.497 3.16297
11.8494 117.698 9.23177
13.1801 121.915 2.97604
7.80511 120.284 -2.008
-9.47777 100.703 10.2629
-21.2112 97.2846 -0.871256
-0.676393 108.316 8.77504
-20.1348 96.5721 2.34289
-22.3597 98.4417 -4.68129
1.83163 107.62 14.2262
17.9181 124.01 6.45317
8.60625 121.229 -2.27808
-19.8281 102.096 -7.93999
13.5641 119.8 8.21269
16.7777 122.829 7.14367
5.7765 115.063 5.80291
-7.71796 102.861 9.28691
17.5684 124.386 5.47358
13.1394 124.21 -0.886765
13.6362 121.777 4.72109
13.0233 122.342 2.66907
6.04922 117.036 2.53561
11.3118 116.864 11.2435
-13.4689 108.38 -9.82016
-9.11313 101.843 9.77133
11.7594 122.419 1.15801
15.6777 123.471 5.09811
1.7497 112.16 6.25929
10.9183 122.674 -0.492904
-14.6003 98.553 8.14745
2.29672 109.771 11.8335
2.80331 108.778 14.7324
12.6247 124.38 -1.07922
14.1506 125.132 -0.1988
-0.109389 116.538 -4.97783
-5.13825 105.485 9.21752
-10.9984 100.001 11.1232
18.2374 124.463 7.52491
14.3225 121.245 7.90391
12.8263 121.628 4.87411
12.0583 122.421 2.14592
8.99857 122.934 -3.34032
15.6945 122.284 8.23612
2.87148 115.171 2.72731
6.53509 117.905 2.96693
6.11013 117.828 2.55906
18.1576 123.471 9.84805
16.5446 123.1 8.13687
18.5802 124.604 8.28941
5.683 115.832 5.90352
-17.8094 98.0217 5.20175
11.9302 123.621 0.165503
12.2441 122.939 1.99623
-22.2368 98.6773 -2.75574
11.6311 124.101 -1.16972
9.74848 124.201 -4.2082
16.2681 125.466 3.28122
2.62306 117.627 -2.03546
12.75 125.606 -2.14008
19.0898 124.673 9.50311
-20.8442 98.0712 1.00684
6.29033 111.998 15.0218
0.68465 117.004 -3.43732
4.7904 114.757 7.31765
12.988 122.109 5.43784
-20.068 103.11 -7.46501
-4.98231 106.257 9.40405
-5.3345 113.123 -4.67717
18.0634 123.809 10.0493
-8.81701 111.385 -6.49339
16.5921 124.823 5.98861
11.1183 125.898 -4.48104
12.1708 119.703 9.41479
-15.6959 99.152 7.40803
6.49708 120.793 -1.35245
8.42781 122.89 -2.53116
7.73474 122.05 -1.75861
4.54538 114.84 7.62003
1.73223 113.21 6.55961
15.9867 123.219 8.58746
17.5105 123.161 11.0699
-8.46005 111.811 -6.23119
9.16265 114.658 15.1386
19.1513 125.011 9.97075
-0.148169 110.558 9.02225
-1.48678 116.662 -5.07194
12.7641 123.164 3.91243
16.5088 124.601 6.82433
6.31138 112.587 15.0069
12.9723 126.716 -2.65085
-4.67167 106.926 9.54757
-22.1116 101.22 -5.83268
13.6979 121.701 8.48526
3.2204 112.872 9.91205
4.83649 119.742 -1.17868
15.9583 126.522 2.49804
12.9703 125.792 -0.550079
19.1411 125.465 9.55726
-9.32822 103.339 9.73988
-21.9526 99.4448 -1.85955
0.118608 117.766 -4.25665
15.5955 122.873 9.34348
3.25605 110.492 14.9526
6.97736 118.943 3.94312
18.271 123.912 11.4127
-18.8855 98.904 4.11171
17.8455 124.025 10.6765
-18.1187 106.289 -9.28649
18.4425 124.595 10.476
11.1064 123.851 0.731656
-17.9201 99.1428 5.21472
15.0236 122.747 8.97907
-14.9705 99.8518 8.38758
5.74932 116.944 6.33103
1.21045 112.683 7.93209
13.6074 121.944 8.67141
1.78365 118.562 -2.72002
0.223555 111.529 8.80649
14.5044 122.647 8.7421
-14.3725 100.195 9.04581
-18.0776 106.672 -9.39642
18.0651 125.048 9.58546
16.5088 124.67 7.95293
17.0259 124.374 9.34032
11.5083 124.764 0.133849
17.2235 123.5 11.4247
1.36261 113.141 7.67077
20.0427 127.4 8.09348
18.5648 124.983 10.6555
2.34594 112.08 11.3672
16.9945 125.023 8.19982
-22.2688 101.681 -5.66553
2.3861 112.209 11.3039
1.52386 118.89 -3.13613
-5.24274 107.218 9.60287
-15.9702 100.02 7.47988
13.5982 123.432 6.46784
3.56568 119.662 -1.36447
10.2796 118.898 10.532
4.67261 116.124 7.45718
2.00979 115.488 4.64713
15.7452 127.524 1.89846
16.0803 122.251 12.8806
11.5154 125.495 -0.446346
-22.2627 102.004 -5.68478
-19.53 105.002 -7.38706
-18.9058 106.065 -8.52145
9.28624 125.667 -4.10748
18.0422 125.632 9.38087
16.5527 124.178 9.978
-21.9243 100.848 -2.77793
-4.51721 108.019 9.69762
11.8966 122.755 5.68395
-2.98394 116.382 -4.43772
16.1987 123.31 11.2222
11.0886 124.883 0.331114
16.1714 123.201 11.4477
1.60524 114.262 6.84628
12.5753 128.258 -4.03157
15.7074 127.74 1.78687
-9.97097 103.593 10.2338
17.0079 123.626 11.9288
-8.36454 113.117 -5.99651
-21.9071 101.044 -2.83758
-21.5019 100.059 -0.259252
-9.46819 112.821 -6.9765
-6.52315 113.971 -4.72139
12.3569 125.22 1.93978
12.7198 127.141 -1.29552
-4.12263 115.533 -4.11915
18.836 127.69 7.0167
10.3014 119.539 10.0834
15.3351 123.43 10.1457
12.0891 121.201 9.60907
15.7814 127.969 1.93565
-11.1557 102.568 11.0145
-21.8992 101.39 -2.97872
-10.7726 102.983 10.9328
17.0239 123.792 12.3411
17.1982 125.001 10.2304
-1.7698 110.64 9.65529
19.3523 126.528 10.5755
13.557 123.202 8.31783
18.3822 127.702 6.8175
16.4512 124.736 9.73459
12.5875 127.154 -0.941529
11.559 126.496 -1.14814
16.0445 127.928 2.91091
16.0259 124.125 10.4068
-1.90538 117.735 -4.31026
13.0613 122.652 8.8738
-3.61451 116.322 -4.0919
12.0391 125.78 1.18307
15.8729 123.712 11.1443
16.1668 124.216 10.616
-2.33026 117.449 -4.24841
-21.8648 103.597 -6.72045
2.27399 120.027 -2.2499
12.7163 122.96 7.98788
13.8488 128.199 -0.634199
9.74133 119.318 10.7662
-20.1625 105.147 -6.94748
12.3316 125.873 1.81247
2.72436 117.726 3.2711
12.2226 121.956 9.44624
12.9303 128.557 -2.47776
12.4822 128.909 -3.85581
7.01507 115.169 14.9701
18.3238 126.764 9.39649
12.333 128.951 -4.08351
8.35331 125.648 -3.58473
1.61198 115.357 6.48806
12.5961 127.755 -0.983852
16.151 124.236 11.4554
6.32458 114.871 14.9422
19.0552 127.017 10.4141
7.60235 115.872 14.9558
-5.92686 108.044 9.73928
19.1566 127.255 10.1483
-12.0264 102.812 10.7583
12.2117 126.208 1.62396
20.1731 128.411 9.48984
10.3062 120.46 10.148
17.9447 126.414 10.0726
5.21301 114.142 14.8701
6.3989 119.504 6.16428
9.85368 124.327 2.08176
15.7052 123.921 11.8441
-20.1729 100.88 2.49947
2.33967 117.847 3.77802
-1.36025 119.067 -4.21064
15.5044 123.998 11.8528
7.42394 116.232 14.9116
16.623 125.363 10.9583
9.73576 124.492 2.15951
-0.709328 112.676 9.54534
-10.9085 113.496 -7.67654
10.998 123.252 6.64769
11.3123 126.848 0.0663328
-18.1736 108.572 -8.91703
12.2124 129.589 -3.96017
5.84295 121.587 2.13037
11.8193 123.432 7.65195
-17.9028 109.044 -9.37917
-21.9679 103.921 -5.45845
14.6405 123.769 11.3397
14.3901 129.479 -0.146511
-6.09209 108.622 9.74807
-6.89391 115.284 -4.61425
-17.8356 101.536 5.85132
1.99208 116.837 6.03657
-1.9889 111.824 9.86309
14.1352 123.722 11.017
12.6195 123.455 9.30566
-13.531 102.705 10.3643
6.70238 116.111 14.8664
12.9996 129.927 -2.7759
-4.36478 110.196 9.73809
-0.441819 120.015 -3.6658
5.69909 115.422 14.8471
-9.22286 106.589 9.48619
10.2396 123.815 5.2207
13.1345 129.272 -1.13192
-21.2665 103.602 -3.02443
16.1825 128.958 4.19397
-20.8628 105.744 -6.52184
3.05522 114.068 13.7066
-22.0124 104.052 -4.82357
10.2836 128.815 -4.25788
-6.2104 116.036 -4.17344
9.42885 120.531 10.9505
-21.3149 102.908 -1.2548
17.3158 127.473 9.31347
2.80252 115.561 10.777
-6.02365 109.284 9.7304
13.6911 124.977 8.93169
-18.8127 101.98 4.72138
-5.02126 110.143 9.7166
-19.7049 102.2 2.97291
-8.07301 107.917 9.50276
10.1544 123.793 6.02239
-4.10595 117.571 -3.49675
16.5747 126.186 11.1188
12.1885 124.227 8.30029
-7.78445 115.598 -5.19667
7.56331 126.285 -2.82678
7.17671 122.022 5.08279
11.7049 126.724 2.7473
9.94297 127.228 -0.800186
6.72919 121.283 6.07065
8.25622 118.241 14.4645
-2.17188 112.469 9.95648
-10.5713 105.679 10.5384
-4.50571 117.452 -3.41471
-3.20649 118.47 -3.43135
-9.95222 106.473 10.0131
12.1009 126.581 4.11262
-5.69028 109.991 9.70984
-7.33575 116.086 -4.74981
17.0715 126.435 12.1888
12.9262 124.664 9.45976
2.97558 114.901 13.5368
10.1878 124.129 6.34743
8.64709 120.194 11.7894
11.388 128.053 0.466522
-13.8849 103.576 10.2002
6.58716 121.328 6.47875
11.4603 125.447 5.9394
5.44265 120.161 7.20099
6.01379 120.785 6.90541
-18.8614 109.346 -8.48448
-21.277 103.398 -0.385788
1.98634 122.205 -1.95164
18.7118 129.68 8.92533
13.6291 125.946 8.53735
2.15231 122.338 -1.80897
5.15969 120.024 7.38692
11.2395 127.661 1.63789
3.69471 118.179 8.89359
10.7649 124.426 7.38658
7.27187 122.793 5.29036
-8.20408 116.227 -5.35686
11.7426 127.919 2.0902
11.9985 124.77 8.72527
-20.2351 107.943 -7.29056
-20.2501 103.352 1.78133
12.6015 130.711 -1.93904
-5.66813 110.742 9.60688
-16.6152 103.42 7.34111
18.3159 130.505 7.25206
4.91062 122.7 2.29056
16.41 130.178 5.13124
10.7197 122.827 10.9559
10.1468 128.386 -0.880539
3.44889 115.763 13.8483
-3.49988 119.003 -3.13004
18.0509 129.489 9.18098
7.25389 127.142 -2.66179
-9.54944 107.846 9.77179
-17.2002 103.522 6.7035
-4.26527 112.097 9.58999
19.3061 131.178 7.94854
4.41299 119.563 8.14374
12.4245 129.026 1.71064
3.03934 117.526 10.1127
11.7348 128.496 1.78106
-20.5893 103.96 0.844895
-20.7359 105.837 -3.05599
11.3012 127.691 2.80697
11.1221 127.662 2.59469
14.546 131.78 -0.273545
6.28149 121.793 6.87295
12.152 128.012 3.56412
8.34976 120.186 13.232
11.9081 131.422 -3.52522
-20.812 105.774 -2.84707
-21.1215 104.67 -1.08682
12.4452 129.684 0.834196
12.1299 128.103 3.48093
6.94581 127.022 -2.08053
5.20799 123.578 2.09709
13.1078 131.104 -0.683233
7.46717 124.028 4.70727
-9.19538 108.61 9.6927
18.4984 130.488 8.85142
7.46318 124.863 3.08609
14.7523 131.886 0.359206
11.1289 125.147 8.17621
10.6459 125.613 6.51567
17.2228 129.135 9.62974
-11.7848 106.093 10.8178
4.3378 116.911 14.1088
10.9949 131.018 -3.58978
5.4977 117.559 14.6209
7.01993 118.831 14.4392
-18.9871 103.702 4.59358
13.0941 126.348 8.96694
9.66137 128.249 -0.0417823
11.9056 130.515 -1.04822
10.6998 129.512 -0.892635
-21.7028 106.384 -4.72782
4.66262 117.217 14.2253
15.854 126.738 12.5439
-14.1489 114.488 -9.12543
-13.9692 114.624 -9.07826
13.498 131.025 0.554819
13.227 130.221 1.76688
10.0038 127.373 2.4936
-9.02328 116.974 -6.05664
-20.4619 104.513 1.08093
12.7475 126.576 8.32128
11.3089 127.259 4.76926
11.7679 126.226 7.6735
6.01615 122.077 7.09407
6.33263 118.537 14.6058
1.83824 118.699 7.4158
2.9032 117.177 12.0617
18.6658 130.95 8.96745
16.7977 127.535 12.8679
12.2476 130.898 -0.623433
10.6004 127.859 2.86668
10.0458 125.144 7.60309
-8.36353 117.513 -5.46503
9.14269 130.103 -3.51333
12.8562 131.852 -1.27414
14.8839 132.9 -0.236387
14.639 126.27 12.5136
-8.13731 117.626 -5.24771
10.2239 129.698 -1.01448
9.98994 129.302 -0.526751
11.4105 128.806 2.67447
1.66153 123.835 -2.32601
-10.8865 107.641 10.5454
5.27304 121.65 7.61613
-21.6251 107.483 -5.52766
-7.6153 117.911 -4.69811
12.6123 129.667 3.01585
-15.694 104.929 8.63745
-5.95568 118.599 -3.40837
-0.0716627 116.635 9.56512
-5.99808 112.119 9.44288
7.45234 120.219 14.0821
9.91638 125.409 7.64013
5.55359 118.69 14.3694
-1.19296 115.709 9.9981
10.1436 127.998 3.05455
17.3454 131.511 7.16268
-18.1636 112.263 -9.11458
13.1245 132.571 -1.37774
7.74347 129.393 -3.32197
-5.84921 112.443 9.41117
3.16984 124.663 -0.94342
9.02314 125.455 6.46129
16.4032 131.921 4.981
3.13297 117.975 12.258
11.3347 129.014 3.02978
7.99896 126.153 3.59368
9.95672 125.818 7.30677
-13.9617 105.785 10.3254
-5.16438 119.344 -3.01061
-12.9807 106.357 10.7444
10.4791 126.419 6.98447
13.7397 133.77 -2.47092
11.0717 132.001 -3.00586
12.4828 126.127 10.7886
5.12716 118.763 14.1064
-12.1887 116.634 -8.1829
5.34947 118.886 14.2047
13.4353 132.311 0.101986
17.467 131.004 8.87087
12.4689 131.557 0.151023
-17.2587 105.397 6.4273
5.89883 122.96 7.19442
-20.6571 107.417 -2.65134
-10.5111 117.596 -7.12867
7.38725 129.491 -3.23729
7.65808 125.472 5.14866
-0.0860221 117.202 9.65639
0.130635 117.446 9.55796
10.3026 128.242 3.79009
9.31501 128.35 2.08793
11.6238 128.878 4.60201
-11.6638 117.143 -7.82203
-8.8791 118.307 -5.82307
13.5127 127.99 9.3282
15.4603 134.073 0.323159
2.43496 120.847 6.55094
8.71386 126.057 5.94392
-10.621 108.82 10.4787
8.67949 127.332 3.41736
10.0475 128.237 3.77232
1.17995 124.502 -2.38914
13.7245 132.958 0.166101
5.79859 123.23 7.2788
-8.61146 118.588 -5.57376
-11.0746 108.455 10.7021
10.0832 128.125 4.19612
8.89938 128.512 1.6897
6.87196 126.752 2.09397
-4.91291 113.773 9.82082
13.4985 132.357 1.30153
-4.9438 120.179 -2.8263
11.7114 126.503 10.2594
-19.6437 111.602 -8.2574
8.43186 123.052 12.15
-12.2967 117.35 -8.1734
16.7079 132.597 6.07464
11.2404 126.292 10.1817
-0.114015 117.776 9.70852
-20.1767 108.047 -1.75294
15.9576 129.957 10.2992
6.84795 127.023 2.16074
10.3323 131.351 -1.03029
10.6418 128.996 4.14621
15.3859 128.13 13.2387
10.1123 131.032 -0.564057
4.28527 121.941 8.53774
8.78913 131.246 -2.93059
-16.7384 114.66 -9.18853
3.72374 124.139 3.39657
10.2412 131.325 -0.817112
11.801 133.798 -3.25515
7.69565 122.717 12.3747
6.18562 128.748 -1.8479
-6.08267 113.489 9.54646
-13.8069 116.602 -8.38435
-9.30548 110.959 9.68045
-20.9135 110.346 -6.84823
11.9083 131.421 1.71659
-10.6141 118.36 -6.91194
-15.9679 106.424 8.50503
-0.214042 124.073 -2.16415
9.68267 128.45 4.37332
4.46688 119.807 13.4867
-18.6403 113.232 -8.84148
8.01235 127.059 4.63341
9.42517 127.151 6.61695
11.6538 127.184 9.98844
-13.0045 107.779 10.7703
9.81166 128.412 4.89496
13.1049 135.408 -3.77489
0.845862 119.383 9.15961
-19.5657 107.66 1.10371
17.2065 133.859 5.64789
7.73035 126.675 5.36928
-7.36367 119.801 -4.13321
16.4485 130.82 10.62
7.33042 128.008 2.23663
-12.5534 108.385 10.8015
10.9702 133.681 -3.19348
14.7051 128.319 13.1414
-20.6236 108.571 -1.84384
-7.41318 113.178 9.30224
-21.7179 109.642 -5.57526
-10.4823 110.292 10.3382
10.234 131.615 -0.087941
12.6036 127.48 11.7453
11.1118 129.935 4.61022
-17.8409 114.373 -8.9139
-14.3569 107.421 10.2003
2.51008 122.187 6.82537
12.2021 132.677 0.93094
10.8902 131.478 1.31735
16.7473 135.374 2.66161
6.4033 121.603 14.1251
9.55091 128.691 4.92984
9.9028 130.491 2.00581
16.0722 131.365 9.79728
-3.68834 115.865 10.2432
-19.0006 108.436 1.5637
14.1388 134.832 0.212503
-17.6319 107.117 6.4191
0.702211 125.54 -1.92919
-10.0778 111.115 10.0937
4.71353 120.931 13.3629
10.4653 129.613 5.12134
-1.93794 117.885 9.36488
-5.70279 114.696 9.91943
-17.6008 107.251 6.47254
17.8525 133.102 9.62822
-2.37173 117.582 9.43554
8.96443 128.128 5.96926
9.67412 130.933 1.54672
6.1612 122.083 13.7891
5.27221 127.121 2.48802
-8.047 120.432 -4.57977
4.54944 126.44 2.89031
12.4079 133.385 1.28123
-7.13058 120.838 -3.77675
8.77412 128.053 6.29861
-16.4203 107.816 8.10409
-16.9082 107.841 7.32725
-20.4268 109.366 -1.02919
8.29206 129.092 3.99623
11.1258 128.164 10.1783
9.45437 127.105 9.76369
-3.3053 123.303 -2.17557
7.6398 132.154 -2.91851
1.94065 127.162 -1.58166
4.4617 123.98 8.58106
16.5599 132.624 10.0064
-19.3612 114.191 -8.35152
-20.9926 112.094 -6.69329
14.555 135.963 0.546826
11.4704 129.322 8.96605
0.594082 120.844 9.1305
0.694034 120.994 8.99266
6.8956 129.166 2.33212
3.26597 127.884 -0.661572
11.2655 128.715 9.96171
-8.72405 120.705 -4.79167
8.17959 132.955 -3.13551
4.78638 122.122 13.1428
-8.36417 120.91 -4.56616
-10.8245 111.401 10.4777
-8.31791 120.943 -4.53111
13.6571 129.125 12.947
14.5988 130.015 12.639
14.9126 131.016 11.2452
5.04721 129.556 -0.915057
3.4211 122.521 10.5194
16.7648 132.429 11.3589
0.623734 126.685 -1.80302
-13.9974 109.062 10.6691
-18.2373 108.525 5.24704
14.8522 136.208 1.2227
-16.1413 117.125 -8.38984
8.49348 126.864 10.0803
-6.97604 121.82 -3.51707
-19.5741 110.036 0.513901
8.44051 130.171 3.66879
17.25 133.954 9.70566
11.5232 133.897 1.09616
2.06541 127.847 -1.3456
4.85765 127.751 3.13544
4.82414 122.735 13.0135
11.314 133.914 0.908788
9.02121 134.377 -3.50518
3.72823 123.781 9.35778
12.7868 136.212 -1.27656
-19.729 110.316 0.568156
3.09541 128.658 -0.581266
13.1501 135.886 0.538791
8.56412 131.174 2.88662
6.3945 125.103 11.5831
-8.61966 114.659 9.4058
13.1865 136.095 0.436167
17.5651 135.968 7.39132
18.2845 137.312 5.84507
-14.1741 119.34 -8.29208
12.9988 136.168 0.0396398
5.00108 130.835 -1.58597
-17.2 109.261 7.10727
-17.6838 110.112 4.76117
-18.39 116.364 -8.62684
-9.17388 114.338 9.5075
6.85705 130.453 2.36173
5.59949 124.738 11.9291
4.132 123.43 12.277
-9.22156 114.518 9.47389
13.7208 136.916 0.337687
15.6108 137.335 2.40268
-17.6562 110.778 4.03829
16.6626 137.643 3.48868
-1.34387 121.267 8.35059
16.573 134.043 10.6212
8.8463 132.253 2.35978
1.46738 123.586 8.20544
-5.97121 116.804 10.2872
-19.9732 115.092 -7.75186
-21.1453 113.534 -6.40365
4.57398 130.558 -0.70013
-4.06852 118.813 9.36791
3.90294 125.107 9.14931
13.0286 136.517 0.610581
8.1359 130.571 4.87917
11.4393 135.603 0.00190373
5.21127 126.613 8.25563
-16.5238 109.598 8.68713
18.3612 138.065 5.84108
16.5027 134.421 10.2
7.46388 127.68 9.7206
-9.62985 121.854 -4.85776
14.2178 137.311 1.0819
-13.9237 110.825 10.3912
8.39761 135.303 -3.68929
16.3336 133.763 11.5271
5.00405 125.014 11.4935
12.1413 136.997 -1.2473
-17.4863 110.696 5.41578
-8.28375 122.776 -4.38074
-0.117319 127.732 -1.66729
3.9841 127.583 5.06153
0.691275 123.193 8.70869
6.9281 131.306 2.26142
8.44163 132.461 2.3301
-16.8894 118.222 -8.16584
-1.30481 122.014 8.20872
3.23193 126.78 5.88463
-0.639427 122.461 8.54439
-17.5735 117.898 -8.34775
-1.49265 122.045 8.07874
6.43058 134.089 -3.58314
-21.75 111.319 -1.65144
6.72609 134.399 -3.6698
18.116 138.876 4.91827
-12.2894 121.39 -6.94239
12.1562 131.316 10.8783
-0.772896 127.627 -1.60269
-21.8164 113.234 -5.28671
-5.16758 118.516 9.77247
4.35579 126.313 9.00166
4.28704 128.261 5.1234
8.37772 132.853 2.36549
18.0935 137.643 7.80656
-14.6505 120.331 -7.97603
11.8729 138.124 -2.54131
-4.4919 125.263 -2.12169
3.52733 127.421 5.90178
18.579 138.436 7.22532
-5.43865 118.514 9.87922
5.69402 127.031 10.1376
9.10053 133.193 3.28934
4.16073 125.303 11.3352
-12.5266 113.158 9.8192
18.2406 137.509 8.8055
18.6202 139.044 6.35893
-0.184271 128.59 -1.67092
11.8087 138.882 -3.55307
17.3873 136.5 9.70762
-0.0539136 123.368 8.99573
11.3973 136.734 0.143144
5.6485 127.379 10.0051
8.3727 136.53 -3.83696
6.03701 131.342 2.86639
9.98545 131.082 9.57776
5.21603 133.629 -2.72171
9.79081 138.096 -4.39572
4.96626 133.217 -2.0669
6.78715 130.554 6.03216
18.3027 137.726 9.54756
-12.9773 122.093 -7.38173
12.0196 138.854 -2.23652
4.14313 126.222 10.7392
-15.9997 120.028 -7.81344
8.29484 129.921 9.89216
-6.30489 125.291 -3.21426
-8.28221 124.658 -4.89262
10.8331 139.168 -4.31191
-8.88378 124.24 -4.94577
-14.4739 121.356 -7.75246
5.42531 130.573 4.4839
-3.0399 127.179 -1.74735
3.67482 126.459 9.98447
2.33828 130.786 -0.570051
-21.4348 114.696 -5.07148
8.51314 130.426 9.6608
-8.31906 124.774 -4.91593
18.0134 137.881 9.49493
2.9959 127.436 7.16711
5.09328 134.019 -2.60679
7.13718 136.345 -4.06352
-20.7894 116.1 -6.65707
4.86358 128.542 8.05764
-22.1034 113.44 -3.30741
6.21222 131.994 3.36673
10.3103 139.126 -4.45935
-14.487 121.572 -7.69705
-21.0177 115.873 -6.38902
-21.7697 112.681 -1.21744
-16.6382 120.036 -7.88783
11.5729 137.253 1.26862
0.14694 129.794 -1.45095
-17.731 113.61 3.18685
-7.26769 118.238 10.1601
16.0673 139.805 3.41106
4.36774 127.944 8.96753
16.2142 136.034 11.1199
10.8847 139.649 -4.15749
1.55606 130.693 -0.711512
-1.76754 128.571 -1.56707
-21.0269 114.982 -4.16062
-9.84486 124.195 -5.17234
11.3612 137.899 0.218702
3.21107 128.172 7.01795
2.70506 127.663 7.50197
-12.6305 114.628 9.88192
17.3858 140.548 4.60389
-12.5412 122.936 -6.34819
-21.538 113.135 -0.72558
-5.58089 126.505 -2.68517
4.22641 127.797 9.86417
5.35874 131.164 5.00398
3.1365 128.431 7.04727
16.4395 136.85 10.7873
9.31797 139.15 -4.64023
-2.312 128.617 -1.57652
4.63756 134.26 -2.02515
3.85692 129.571 6.2134
-1.54707 129.349 -1.58742
-10.1752 124.712 -5.6047
0.11495 130.576 -1.34387
-21.8788 114.415 -3.01175
-20.5557 117.102 -6.27657
13.4911 134.433 11.5934
0.528493 130.884 -1.08976
12.4887 133.83 11.4152
9.08057 139.303 -4.57079
8.18927 138.659 -4.57724
-11.0987 124.48 -5.98537
11.3014 138.267 1.11229
-1.72283 124.876 7.74271
12.2314 140.052 -0.890204
8.69767 139.201 -4.5625
-16.9744 121.027 -7.90423
9.65586 132.9 9.42862
9.68003 132.921 9.43969
-20.8474 115.673 -3.14273
-11.989 124.01 -6.06424
-11.8526 124.125 -6.07794
4.00582 130.355 5.93839
-12.4899 115.61 9.84687
-21.7731 114.737 -2.52603
13.3245 134.798 11.5672
-13.5318 123.47 -7.13027
-20.7387 114.106 0.526419
16.9831 141.601 3.95119
-19.2214 118.825 -6.37205
6.93323 131.272 9.09161
-21.8923 114.716 -2.26031
-1.63323 125.31 7.81049
12.6694 134.57 11.4754
4.94909 129.89 8.93539
11.8448 140.912 -2.26218
-11.2986 117.061 9.52813
3.59271 133.835 -0.833508
0.574267 131.569 -0.876003
-19.8645 114.654 1.32022
-18.8549 120.04 -7.68725
-18.7339 119.777 -6.88459
7.63104 135.484 2.4824
8.54937 135.267 4.37937
6.97841 133.711 5.14193
-18.6946 119.383 -5.80204
-20.3575 117.84 -5.14444
17.8693 140.115 9.317
-9.79313 118.574 9.60846
8.82133 136.684 2.33637
5.10819 130.511 8.89768
-16.3977 115.129 6.48151
16.6973 142.259 3.50121
4.08289 135.134 -1.69071
0.938944 132.131 -0.563243
9.06675 136.341 3.62152
4.67628 130.903 7.67891
-7.91345 127.239 -4.31444
9.24197 136.187 4.3299
3.52685 130.845 6.15135
-7.13254 120.879 9.62996
-22.0751 115.095 -1.69998
-19.2221 115.024 2.81387
-2.99315 125.559 6.92829
9.27426 140.787 -4.33451
5.21197 131.061 8.76711
6.10606 133.065 6.2125
-18.8177 115.105 3.58709
6.32709 131.772 9.13237
-18.688 119.42 -4.70351
-7.99562 120.516 9.50417
5.57125 131.099 9.37808
2.66888 133.887 -0.562893
12.2377 135.528 10.9042
6.92646 135.698 2.48523
5.11362 137.336 -3.46569
-13.2214 116.193 10.2936
6.20146 138.579 -4.23158
-15.4548 114.729 9.78311
-5.06763 129.023 -2.54853
7.78224 135.213 4.88423
17.3684 140.288 9.6658
-21.5227 115.421 -0.57517
14.6707 141.985 2.30345
-13.8145 124.778 -6.96717
-14.9286 115.283 10.1297
5.84076 133.22 6.56948
-2.60414 130.881 -1.70912
9.77707 141.832 -4.37853
7.77646 135.531 5.01631
8.9843 137.932 2.15342
2.75208 130.771 6.8193
-1.27438 127.242 7.75074
-20.828 115.549 0.973675
-2.31639 126.827 7.09599
14.3374 137.991 10.5983
5.40204 132.242 8.30347
17.618 143.483 4.77725
-10.7585 127.426 -6.70712
-0.342618 132.624 -0.96967
13.0776 141.313 2.40012
-20.1967 118.528 -3.42969
-18.7657 120.453 -4.96396
18.5191 143.481 6.64762
-13.9239 125.358 -7.06914
12.8233 141.279 2.42785
-5.92471 129.63 -3.20008
-18.5222 120.981 -5.37513
0.308755 133.119 -0.549867
15.4793 142.928 3.28557
7.392 134.004 8.55912
4.71886 134.174 4.18046
17.0434 143.716 4.18987
15.7073 143.035 3.51571
9.37026 137.972 3.8441
-4.86471 124.307 9.10802
-10.0673 120.173 9.54808
8.13815 136.506 5.15019
17.8061 143.964 5.27766
-2.07011 127.602 7.20849
16.5389 140.445 10.3244
13.3936 137.899 10.5758
-20.968 117.319 -1.25972
-19.284 119.777 -3.5211
17.6682 142.617 7.92217
9.51901 142.555 -4.34426
-19.0813 121.144 -5.7406
-9.95594 120.507 9.56875
3.45986 136.345 -1.17048
8.4075 137.096 5.13108
-0.242262 128.793 8.33925
-9.84384 128.717 -6.19644
17.4002 144.42 4.52085
15.1992 139.956 10.0463
-18.3828 116.455 5.13497
3.33124 132.506 6.67145
9.17278 139.286 2.33121
16.2648 140.827 10.2577
7.70274 141.286 -3.73936
9.52427 143.052 -4.37638
5.64953 134.337 6.92498
-16.5236 124.48 -7.42423
-18.3035 122.693 -6.52105
-9.69598 129.354 -6.4295
15.1477 140.338 9.9214
-14.1666 117.284 10.6448
17.105 142.759 8.20782
-8.7578 129.883 -5.88945
-9.96213 129.445 -6.86328
-11.3874 128.982 -8.11718
8.34445 135.525 9.17466
-17.9359 123.277 -6.81244
15.4837 143.772 3.81823
-8.21541 130.189 -5.59109
-11.4593 129.039 -8.14824
11.4904 143.656 -1.89136
-8.36401 122.609 9.5262
11.4265 137.581 10.2815
-8.62639 130.317 -6.01179
-3.72194 127.715 6.65598
9.56974 139.149 4.39736
8.87266 136.496 8.68151
8.56554 138.041 5.1607
3.32054 133.126 6.85493
-17.783 116.917 6.62005
9.67631 140.042 2.96327
5.39935 136.051 4.36045
-4.48715 127.018 7.09701
-7.66046 130.897 -5.21409
5.51526 140.429 -3.7623
6.03599 135.456 6.86956
-9.75775 121.888 9.58999
-15.9311 117.315 9.2007
-18.3259 123.076 -5.70594
17.3179 145.199 5.23925
-8.84959 130.868 -6.39849
-18.1191 123.551 -6.11451
-16.4127 125.215 -6.76719
9.62711 143.961 -3.96936
9.82107 140.627 2.92806
-16.4906 117.569 8.31305
6.77024 135.633 8.24169
14.572 144.056 3.57895
6.8012 136.621 6.43053
-18.6463 121.641 -2.8964
-12.2546 120.025 10.2271
-14.4668 126.988 -6.88715
8.29577 140.298 1.63762
12.9021 143.23 2.93675
-9.99862 130.879 -7.66277
12.8303 143.204 2.946
14.1691 140.969 9.42561
-15.9647 125.798 -6.58103
-14.6691 127.137 -7.23752
-19.9224 121.389 -3.88338
11.2739 143.584 -0.0185939
-17.2739 124.902 -6.76094
-8.83735 131.332 -6.52276
16.1718 142.765 9.16937
6.97679 137.083 6.39136
-9.7151 131.163 -7.41886
-17.0993 124.558 -5.55074
0.0509746 135.318 -0.500546
11.5267 144.332 -0.735625
6.87452 137.046 6.56874
7.27557 137.695 6.2088
-9.03905 123.288 9.82003
16.9657 144.858 7.00673
-18.8037 122.214 -2.95998
6.00287 138.632 2.54723
-18.0815 117.887 6.80265
-8.8066 131.928 -6.70437
-5.13308 128.027 6.71958
-18.6054 123.797 -5.44417
-19.1582 122.93 -4.49952
9.59702 141.671 2.48
-19.5697 122.617 -4.45412
5.36602 136.987 5.30749
1.6682 133.208 7.14659
9.93382 141.804 2.84279
-18.8656 121.856 -1.77769
4.08358 135.984 5.53467
-13.8652 119.691 10.4603
-16.8053 125.9 -6.21047
-18.2904 118.241 6.6978
-16.9579 125.722 -5.97458
5.51822 137.816 4.60558
9.54452 141.185 4.11046
-18.7295 118.301 6.10126
-20.825 120.76 -1.74477
-3.63874 134.171 -1.89804
1.65404 133.877 6.78583
2.38388 134.752 6.18158
-18.9653 118.546 5.61185
-16.9463 118.518 8.76113
-17.8745 118.479 7.42491
-19.4338 121.597 -1.09267
-13.1656 129.636 -7.37058
6.99525 137.942 7.09854
-15.793 127.044 -6.15823
-16.6624 126.309 -5.92295
-1.0308 132.309 6.1676
-2.13222 131.254 6.57413
-12.4201 121.269 10.606
1.04641 133.584 6.88263
-14.8027 120.053 9.44273
-21.0987 120.196 -0.430904
9.37424 139.327 8.44431
-16.7795 126.322 -5.86677
-20.0908 121.773 -1.90316
-18.8423 123.682 -3.75901
0.472688 137.018 -0.554773
-13.5121 129.102 -6.16027
3.05563 139.721 -1.67357
6.88469 141.049 1.57549
-19.4749 122.641 -2.3118
10.5131 146.317 -3.22156
-19.1189 122.529 -1.54
16.4425 145.856 6.7686
-0.210613 133.34 6.06429
-11.9579 122.093 10.4535
-0.916745 136.326 -0.784106
8.21189 139.043 7.87355
-20.7038 119.514 2.2432
-11.5965 131.516 -7.52259
-20.6934 120.95 -0.546772
-17.9611 125.583 -5.40512
15.7179 147.04 3.77247
5.37182 138.389 5.05713
2.48287 136.195 4.99027
-20.1153 121.537 -0.51754
-6.42602 128.509 6.69014
-4.14631 130.565 6.12047
-8.48218 125.791 9.02442
7.72548 144.74 -3.62309
-18.4585 119.223 6.80247
-3.92329 130.926 5.92044
10.6147 146.638 -2.88868
-19.5176 122.574 -1.41325
-19.141 122.466 -0.603754
-19.2207 123.295 -2.36147
12.6287 142.327 8.81638
-16.6353 119.872 8.48498
-19.1526 122.951 -1.44832
-20.7637 119.584 2.76241
-8.68255 125.722 9.13604
8.84822 140.921 5.92199
-5.80521 129.612 5.88217
15.9983 146.924 5.09258
7.65625 142.339 1.41546
13.4751 145.9 3.4848
-19.0627 122.294 0.395454
0.942961 134.909 6.1042
-18.3272 124.239 -2.28263
-4.45156 131.067 5.50126
-20.673 119.408 3.75112
-5.54241 130.204 5.58459
-19.5863 122.507 -0.645326
8.13182 142.931 1.42723
11.8884 145.37 2.36462
9.35722 143.713 1.88589
13.947 143.653 9.04692
8.76724 141.185 6.00081
-19.7817 122.758 -1.24721
-18.6598 124.21 -2.3989
-19.6922 122.434 -0.446838
-2.69394 132.908 4.86307
-14.0473 121.378 10.2928
-6.78542 127.898 8.53556
2.51211 137.104 4.60388
-6.40155 129.801 5.40911
15.1552 145.137 8.10618
8.85026 141.403 5.84604
-19.956 122.348 -0.547947
-20.9492 119.917 2.82886
-22.4254 121.18 -1.88958
-20.0438 122.202 -0.237059
9.58521 146.897 -3.70363
-19.5202 121.744 1.4947
-19.6227 122.732 -0.561013
-18.928 123.808 -1.60574
-13.6506 121.774 10.4975
-22.307 121.44 -2.07325
11.9919 145.681 2.50665
-12.0236 131.923 -6.975
-4.87826 135.581 -3.25578
5.34425 139.458 4.72838
-20.5462 119.927 3.73262
7.30537 142.657 1.47194
-18.1163 125.144 -2.80601
10.1864 145.818 -0.329714
10.9029 145.893 0.720205
-10.852 132.851 -6.76117
-1.77412 136.986 -0.98815
-17.0076 120.722 7.90721
-11.7693 123.585 10.2694
-20.3483 120.214 3.83319
-18.1269 126.227 -4.65234
-18.141 125.276 -2.75577
13.269 146.497 3.39232
3.26382 138.329 4.24869
-20.2708 120.339 3.86937
-19.6999 120.601 4.29922
-20.8775 120.784 2.17576
-19.7458 120.63 4.25229
-0.532325 134.813 5.69677
13.7049 147.141 3.12531
-4.77128 136.197 -3.44116
-23.1371 121.095 -1.68771
-12.3742 131.952 -6.52876
8.08153 146.41 -3.73797
10.9821 146.898 -0.238971
9.10982 142.812 4.99891
9.60435 141.579 8.23596
-13.4921 122.922 9.84077
-20.8387 121.478 1.46922
6.25568 142.276 1.83729
-13.264 122.971 10.1616
-13.4854 123.324 9.13955
-21.3052 120.574 2.61569
-19.1156 125.182 -3.09136
-7.51727 135.89 -6.50915
-14.8317 122 9.76547
15.3849 147.3 6.02976
-19.9768 123.912 -1.73516
-20.9194 121.646 1.31824
6.72548 145.255 -3.0376
-19.8222 124.797 -3.21399
-8.24542 128.232 7.72341
3.998 139.456 4.28247
-21.3968 120.925 2.06194
-20.5273 122.451 0.394946
-8.04468 135.774 -6.83012
-15.5177 129.312 -5.47429
-19.1483 124.908 -2.32258
-19.0313 124.811 -1.87328
-19.3068 125.077 -2.74968
-6.17387 136.311 -4.84562
9.70196 148.115 -3.86181
8.03622 146.721 -3.62178
-16.8125 121.633 7.96243
-5.00641 136.705 -3.76596
14.0618 145.693 7.80569
12.5304 146.884 3.18023
-14.2628 123.608 8.2326
14.564 146.694 6.81117
-9.39205 127.758 7.68276
-21.4281 123.587 -2.42921
-20.7253 122.029 1.74161
-20.6598 122.154 1.61523
-19.8392 121.513 4.22825
-20.4267 122.029 2.3126
8.2739 141.787 7.18702
-1.0521 135.564 5.26781
-10.7873 126.632 8.03674
4.25739 144.089 -3.43137
5.79969 142.209 2.70798
-20.8887 122.22 1.39781
-19.2031 125.967 -3.42819
-20.9845 122.105 1.53173
-15.0747 123.095 8.78558
-20.7247 124.582 -2.72633
-15.1766 123.076 8.79522
10.073 148.729 -3.14748
-19.0878 125.84 -2.48967
3.99396 140.593 3.69391
9.02002 143.712 5.29859
-14.0812 125.294 6.40246
-7.44151 137.116 -6.75797
-13.2461 124.618 9.10586
12.3869 147.629 2.92479
-22.3112 120.576 3.31694
-21.2068 122.163 1.91062
-20.3658 125.46 -3.30559
-20.6662 121.908 3.26066
-16.7955 122.496 8.09861
13.6099 146.475 7.23387
-19.2799 125.128 -0.753647
-20.9795 121.611 3.60705
-20.6316 124.864 -2.24619
-19.4454 125.527 -1.70685
10.5284 148.543 -1.27339
-17.638 127.824 -3.39016
-19.6986 125.456 -1.85653
-16.1135 122.831 8.82099
-8.37771 136.698 -6.74998
-7.43725 131.519 4.95762
14.1635 149.066 3.4123
-2.7175 135.841 3.79487
9.47241 143.64 7.03285
-6.04823 132.772 4.82099
-8.32489 129.887 7.05968
3.60911 144.164 -2.86946
-20.1725 122.084 4.4329
-11.9154 133.415 -5.32912
-20.9782 121.923 3.61895
-21.7489 121.689 2.91397
-7.96979 131.018 5.56979
-21.743 123.637 -0.903775
-4.61603 134.545 3.75006
-3.46573 138.564 -2.43133
-18.4135 127.087 -2.5819
5.93853 146.165 -2.98653
-15.7155 130.341 -4.83573
-17.7964 128.129 -3.63302
-20.1072 126.204 -3.35569
9.56825 145.274 4.3924
-16.5804 129.15 -3.73358
-19.9879 122.277 4.68207
-20.3752 125.27 -1.80898
12.3857 145.992 7.44078
9.98631 149.297 -2.71059
-18.5983 122.702 6.15513
-21.0277 121.936 3.97291
9.35076 149.309 -3.64917
-10.7955 127.971 7.85478
6.60453 144.728 1.42064
-6.70675 138.206 -6.05007
-22.2683 121.846 2.50357
-4.38942 135.445 2.97785
2.49174 140.347 3.84209
14.1364 148.455 5.66967
-11.4683 134.576 -6.0367
-20.9289 121.721 4.98341
-12.9632 132.743 -4.53847
-18.686 122.99 6.17544
-8.05292 132.01 4.63707
-24.4269 121.51 0.434527
-9.61652 129.746 6.87215
9.60265 145.524 5.10023
9.95962 145.187 6.31477
-22.3868 121.44 3.7649
2.052 140.279 3.97851
14.0194 148.885 5.4016
-2.41866 139.732 -1.6406
-20.4173 125.772 -1.55025
7.23969 147.926 -3.02062
-20.7085 125.442 -1.33634
13.9493 150.183 2.93971
-20.4351 126.34 -2.53409
-6.07512 134.503 3.30422
-9.27573 136.878 -6.28508
7.51252 146.105 1.219
-16.4558 129.985 -3.57533
-6.48446 134.116 3.51892
-21.5431 122.361 3.72346
-0.331453 138.527 4.2786
-19.7733 123.314 4.68538
-7.15775 133.57 3.79652
-22.1013 122.348 3.18415
-14.732 131.828 -4.24726
-20.0034 126.587 -1.94006
-20.1787 122.245 6.4946
2.92605 144.675 -2.48005
-19.9918 126.439 -1.42369
-21.8988 122.285 3.91348
-22.7779 125.18 -3.14268
-8.85451 131.682 5.31929
-19.7778 123.714 4.39004
-4.12347 136.972 2.18947
-5.04553 139.42 -4.03836
-15.8827 126.332 5.2546
-19.2009 124.119 4.59606
10.0527 148.286 1.60523
5.27758 143.439 3.88717
-24.1287 122.093 1.11824
6.08577 144.912 2.2492
10.0321 146.727 4.73029
-22.7058 125.451 -3.27726
-1.40874 138.255 4.00522
-11.8944 135.111 -5.81068
-6.00592 135.379 2.68098
-18.2807 128.679 -2.8519
5.73177 144.409 2.81267
-24.9708 120.874 2.55192
-20.2778 123.035 5.49372
13.0424 150.362 2.52717
12.4328 147.73 6.83319
-0.373671 140.195 2.1426
-23.5123 122.301 2.14686
7.09669 148.607 -2.98629
-0.592806 140.248 1.78986
-4.19468 140.045 -3.30635
-0.112212 139.708 3.62925
-19.3714 128.946 -4.54077
-14.7858 132.183 -3.91744
-22.1646 125.773 -2.43872
-20.9232 122.206 6.51488
0.776905 140.221 4.12189
0.704157 140.336 3.79253
-0.495526 139.673 3.33569
10.3838 148.556 2.44088
-9.79591 131.553 5.17642
-9.73081 131.704 5.03285
12.8288 150.667 2.07029
-19.9324 124.436 3.81581
-16.9691 130.06 -2.76902
-3.07157 140.566 -2.18351
2.88768 142.498 3.12833
-25.4687 121.395 1.59835
-21.1155 123.632 3.87478
-12.0099 129.044 7.21545
-21.0801 122.043 7.20749
-19.2384 128.433 -2.50393
-22.9156 122.759 3.20409
-11.181 129.768 7.39886
10.4483 149.393 1.87764
-23.3151 125.103 -1.741
0.513385 141.317 2.70649
-19.8501 124.762 4.28489
-23.3072 125.739 -2.91955
-25.5477 121.994 1.06652
-22.2063 122.644 4.92182
-22.3312 122.754 4.5459
-4.9904 140.798 -4.55085
-11.8812 136.095 -5.74622
10.2222 150.362 -0.123572
-16.5731 126.977 5.13255
13.0109 150.57 3.82523
-17.64 129.589 -1.58824
-17.4654 129.92 -1.94195
-13.9497 133.545 -3.71437
9.90541 150.611 -0.76025
3.07167 143.481 2.89788
12.5931 151.171 2.27463
-12.4271 129.777 6.28995
12.253 149.855 4.47835
-0.984706 142.439 -1.10771
-5.91067 140.713 -5.23043
5.51166 145.26 3.26041
-23.243 122.047 5.16908
-8.3458 134.358 3.68457
-23.3733 122.312 4.5332
-23.5347 124.758 -0.533712
-21.5169 123.537 5.03732
-24.997 124.527 -2.24217
-23.58 124.813 -0.557766
0.366613 141.434 3.34572
-24.1058 124.785 -1.12305
-22.3378 127.571 -3.90039
-21.6035 122.387 7.47496
-21.7012 122.343 7.43859
-23.5446 122.275 4.90031
-23.9443 122.231 4.43774
-15.8704 127.893 5.64832
-23.9387 121.52 5.99089
-15.7636 132.326 -2.85615
-24.6166 122.039 3.97347
-13.6139 134.592 -3.93068
-21.9774 128.472 -4.57427
-10.1519 132.869 4.84289
-5.62912 141.324 -4.93918
-14.1129 134.09 -3.61446
9.54929 150.005 1.22577
-3.86292 139.024 2.4446
-22.0225 122.684 7.00935
-24.8991 121.369 5.21526
-24.7651 121.413 5.38174
-0.134062 143.75 -1.07606
3.45491 147.553 -3.06318
0.986989 144.87 -1.52284
-24.5697 121.561 5.46107
-20.7648 124.798 4.9113
-9.82079 133.752 4.01312
3.37323 147.524 -3.00876
-10.3237 133.004 4.75544
-7.50282 136.274 2.62632
-9.73058 133.856 4.06264
-8.69783 139.568 -5.59693
-25.4954 121.296 4.84999
-4.71789 138.406 2.82461
-20.2983 124.869 5.76068
-19.3805 125.216 6.50836
-19.2293 125.831 5.56906
-16.2717 132.245 -2.5204
-7.55641 136.434 2.57989
-4.71498 138.533 2.86012
-10.1658 133.381 4.71861
-22.2706 122.946 6.83161
-2.11699 142.823 -1.56371
3.53766 144.784 3.28962
-24.7569 122.17 4.77669
-26.0287 123.157 0.905567
-23.5122 122.913 5.29646
-20.9942 123.594 7.85063
6.97605 150.753 -3.03302
-22.5061 127.593 -2.07045
-24.6978 121.772 6.1282
-3.34488 140.184 2.50182
-11.9177 137.637 -5.57028
-8.78585 140.021 -5.37246
6.2128 147.917 1.99614
6.65336 148.594 1.34665
-20.7428 125.079 5.953
-15.5703 133.461 -2.58158
-24.5298 122.563 5.34865
-3.59835 142.818 -2.64539
-24.6939 122.038 6.18167
9.74086 150.974 1.70574
-23.3678 127.651 -2.84339
-12.394 131.231 6.87627
-2.93775 140.7 2.64183
-22.7602 127.674 -1.92281
-8.79585 140.193 -5.28848
-25.0532 125.762 -1.62388
0.792917 143.462 2.93482
-24.9128 122.597 4.96761
-23.7209 127.716 -3.25653
-26.1901 124.205 0.00550679
-2.97213 143.244 -2.03076
-14.6349 134.892 -3.34546
-25.4411 125.79 -1.88862
9.73944 151.99 0.179435
-19.8844 125.705 6.81453
-17.6292 132.581 -3.32157
-12.1903 137.891 -5.4259
-25.9305 122.245 4.5184
-17.1434 127.688 7.26104
-23.8129 126.807 -1.12694
-6.75926 137.981 2.93672
-21.3871 125.297 5.71021
-1.34135 144.379 -1.29389
-0.566497 144.95 -1.12605
-10.7736 134.294 4.3566
-15.1696 129.49 7.17876
5.33514 150.364 -2.6052
10.9864 153.043 0.798753
-26.5051 123.229 2.39795
-19.0131 132.084 -3.63609
-15.5211 134.439 -2.94901
-23.6903 128.237 -3.1843
-21.6327 124.185 7.98765
-18.6723 132.461 -3.82496
0.541855 143.609 3.57637
-16.8224 132.79 -1.59647
-17.3177 133.204 -3.16387
6.02366 151.1 -2.72938
-16.8123 132.792 -1.40891
-23.6238 128.222 -2.77657
10.8309 153.109 0.754043
-21.3697 130.802 -4.36082
9.21985 151.758 1.02269
9.03674 152.582 -0.834054
-20.8581 131.389 -4.31977
-9.70196 136.152 3.42357
-20.1187 131.68 -3.65236
-13.1363 131.78 7.03606
-26.3121 125.814 -1.29519
-19.8011 126.455 7.63462
-2.11072 144.929 -1.59928
7.06327 150.802 1.07939
-15.9596 134.576 -2.06402
-2.84929 144.65 -1.8406
-11.0169 134.845 5.10105
3.15562 149.799 -2.74478
-23.4155 123.981 7.66829
-25.676 127.142 -1.94953
-25.0973 123.663 6.05062
-24.7054 123.795 6.50029
-5.99952 139.896 3.31431
-20.4846 126.608 7.45449
-3.94737 141.412 3.50607
-15.9631 135.151 -2.502
9.59395 153.295 0.774585
7.79878 153.211 -1.63359
7.4803 153.112 -1.80569
-14.3753 131.643 7.29769
-20.9191 126.579 7.34831
-12.2095 139.41 -4.66714
-16.0997 135.505 -2.86119
-17.3107 134.422 -2.5288
-19.9855 132.975 -3.6722
-12.3192 134.008 6.03003
-26.8365 124.892 1.94929
-13.0988 133.333 6.29161
-21.51 126.111 7.8206
-19.8693 127.343 7.9443
-20.6965 132.618 -3.71971
-19.0446 128.188 7.62973
-11.6093 135.367 4.81677
-5.95343 144.53 -4.58775
9.95312 154.168 0.804713
-19.9131 127.477 7.87864
-15.26 136.249 -2.19669
-17.614 134.606 -2.47697
-26.2604 124.358 4.61118
-19.835 133.579 -3.78295
-26.6353 126.849 -0.858102
-11.7895 135.418 4.92344
-25.8823 127.635 -1.1124
-4.64914 145.468 -3.87538
6.49758 153.244 -1.99865
-5.82561 144.986 -4.51647
-4.81806 141.708 3.56914
-20.3698 127.694 7.55329
-15.5404 131.842 6.88447
-26.6802 125.788 1.88354
-21.9918 127.069 6.52502
-4.66185 141.962 3.71184
-26.253 126.327 1.59723
-7.07048 140.369 3.30857
-24.4355 128.622 0.00649281
-1.7648 146.853 -1.27054
-18.7803 129.274 7.44973
-14.2709 138.79 -4.3637
-14.5775 137.475 -2.09772
-26.2093 126.926 1.00147
-10.2878 142.098 -4.44496
9.47466 154.565 1.20914
-16.8963 131.681 6.16073
-21.9125 132.494 -3.10575
-9.64969 139.163 2.52643
-14.0902 133.383 7.20317
-7.92649 144.371 -5.06144
-22.9665 126.507 7.39076
-8.28497 140.185 2.88308
-24.0868 129.215 0.467769
-14.0565 139.418 -4.31604
2.06104 151.017 -2.522
-21.219 128.372 6.98727
-23.2941 130.984 -1.34092
-16.2471 136.602 -1.65638
-14.797 137.849 -1.80013
-11.946 141.286 -4.22543
-25.4766 128.377 0.732433
-8.85386 144.175 -4.97677
-17.888 131.523 6.33865
5.35841 153.602 -1.69791
-6.98354 145.666 -4.8839
-25.564 125.945 5.72434
-20.9537 134.331 -3.66126
-12.9716 140.665 -3.94101
-23.0582 127.894 5.87964
-25.6253 128.366 1.02211
-21.4051 129.763 4.76575
-8.02408 141.066 2.99926
-12.7134 136.227 5.3966
-12.9355 135.415 6.73802
-18.6241 131.143 6.75182
-22.6382 128.871 5.14032
-21.2939 129.95 5.13534
-10.1875 139.86 2.60289
-10.1219 143.749 -4.74233
-2.5005 148.154 -1.7799
1.20283 151.344 -2.34611
1.41243 151.526 -2.35459
-19.7812 130.416 7.1173
-26.7768 126.786 3.59252
-14.3575 134.365 7.61657
-15.0651 133.735 7.82709
8.10961 154.98 1.31374
-17.4251 137.19 -2.58864
-19.0062 131.384 6.61523
-23.2839 128.731 5.38929
-12.8302 136.828 5.38731
-15.9617 133.392 7.61827
-22.4535 133.402 -2.26984
-4.92131 147.653 -3.53889
-20.982 130.354 6.14133
-10.445 143.973 -4.61356
-17.5929 137.399 -2.38803
-8.56505 141.873 2.60083
-20.2769 130.721 6.82494
-8.98517 141.689 2.58484
-19.8374 131.329 6.66843
-20.3782 131.644 5.32653
-2.56641 149.261 -1.75743
-16.8184 138.39 -2.02147
-14.2524 135.64 7.41174
-13.7841 141.618 -3.64055
-16.3941 133.847 7.73321
-6.03901 144.547 2.51386
-13.8605 140.765 -1.96193
-25.1816 130.049 2.00421
-7.79936 147.028 -4.7437
-24.0032 129.489 5.17158
-0.127115 151.718 -2.13679
4.68883 155.105 -1.38302
-24.7442 128.67 6.01403
-19.4048 133.151 5.33092
-15.1636 135.416 7.4002
-22.7761 134.003 -1.276
-21.0447 132.234 4.89481
-20.3295 132.849 5.02726
-24.9817 131.163 1.24345
-14.2398 141.864 -3.44781
3.35257 154.561 -1.58433
-25.7586 128.682 5.29376
-8.5594 147.186 -4.77777
-8.16142 144.041 2.0552
-23.9542 130.505 4.72057
-7.80064 147.732 -4.53376
-14.1757 141.812 -2.52848
3.38399 154.888 -1.43849
-23.1815 133.599 0.288614
-15.4319 136.151 7.2385
-22.9974 134.411 -0.835096
-2.59573 150.749 -1.74619
-12.7778 143.631 -3.23652
-25.1646 131.577 1.84005
-26.2726 129.726 4.11308
-18.0363 134.434 7.50516
-0.292833 153.193 -2.15365
-15.184 140.982 -0.610561
-18.519 134.517 7.10317
-17.7022 135.128 7.7546
-4.28278 150.709 -2.40421
-12.7913 144.54 -3.11294
-18.7094 138.868 -0.907818
-14.3949 142.007 -0.482186
-3.69921 151.13 -2.14871
-10.9448 146.526 -4.09357
-22.8156 132.829 4.85015
-14.0623 138.669 7.13023
-12.111 145.609 -3.58605
-25.5408 132.005 2.76333
-12.1035 145.631 -3.58673
-10.878 146.813 -4.03657
-7.60288 149.388 -4.01757
-10.4283 143.389 3.53262
-12.6886 145.08 -3.16972
-24.7118 131.907 4.48687
-10.6503 147.153 -4.05907
-18.9312 139.238 -0.685856
-25.4213 132.648 3.19404
-20.3527 135.157 5.9925
-14.0274 143.895 -1.32332
-9.33956 145.648 2.45954
-25.387 132.252 4.44518
-10.4851 144.437 3.40715
-23.2155 133.874 5.11962
-10.8919 147.878 -3.60156
-18.4113 136.499 7.76987
-4.86289 152.342 -2.3693
-8.44815 150.09 -3.24013
-2.79256 153.703 -1.70185
-12.6988 146.534 -2.61106
-25.1142 133.65 3.87834
-7.23763 151.035 -3.04417
-21.5294 135.428 6.04685
-12.5024 143.065 4.9688
-6.3303 151.829 -2.84247
-14.355 140.821 6.67133
-23.0693 134.666 5.53273
-16.3491 139.006 7.41265
-23.4864 136.426 1.76212
-22.807 135.025 5.82238
-22.5689 135.329 6.07427
-8.26342 148.422 2.13924
-6.19061 152.366 -2.26163
-18.7609 141.463 0.101134
-24.2004 135.436 3.79075
-3.83706 154.11 -1.79962
-13.3713 142.868 5.88911
-18.5281 138.121 7.55612
-14.9843 144.474 0.559376
-11.2393 149.323 -2.7507
-8.23281 151.331 -2.0827
-6.59342 152.52 -1.88611
-8.06418 149.409 2.01916
-5.68905 153.167 -1.64051
-5.09466 153.797 -1.50622
-15.2662 141.567 7.22232
-22.1522 136.693 6.45009
-16.6395 140.437 7.498
-21.9477 137.345 6.3696
-16.5753 144.378 0.97535
-8.29832 150.375 1.99424
-19.0087 142.682 0.974444
-11.448 147.177 4.11921
-19.5907 142.285 1.36755
-14.1513 143.785 6.9443
-19.7169 139.579 6.83385
-6.88009 153.581 -0.732595
-20.1434 139.903 6.46979
-12.4675 149.547 -0.543193
-8.37512 151.586 1.89654
-15.4357 146.045 2.24934
-20.0307 142.365 2.51082
-11.9606 150.251 -0.615125
-12.9283 149.301 0.134878
-6.57414 154.449 -0.0784013
-9.2728 151.779 1.13636
-12.2037 150.225 -0.227486
-9.38675 151.973 0.691824
-13.8026 148.503 0.957372
-20.8281 140.702 5.65191
-15.7403 144.178 6.67467
-17.9632 142.551 6.69529
-17.279 143.126 6.67881
-20.1045 142.524 3.63127
-15.0638 145.103 6.25359
-8.74749 153.25 -0.0854948
-10.3685 151.462 1.09365
-11.5176 149.428 3.42584
-12.8486 149.814 0.91224
-19.7334 141.971 5.88919
-15.3828 147.231 2.38272
-11.7214 149.98 2.69941
-18.7649 142.943 6.12888
-16.6152 146.258 2.98224
-18.4875 144.664 3.35381
-17.383 145.975 3.06225
-17.459 145.886 3.12422
-13.4125 149.025 3.30811
-13.6386 149.098 2.98761
-15.2381 147.506 4.32124
