ply
format ascii 1.0
comment Created by Open3D
element vertex 1970
property double x
property double y
property double z
end_header
19.6488 115.278 7.31654
-7.40998 128.291 -2.28202
21.7667 124.642 -3.6407
12.1212 129.529 4.24181
13.3815 95.0201 3.41666
18.7313 128.122 5.58872
-1.9968 120.443 12.7642
-10.4254 149.611 2.27899
17.8251 111.939 19.1173
14.643 110.535 14.6163
9.69412 152.379 0.941336
17.4417 94.8291 6.87541
12.0556 95.6964 13.3707
10.0983 121.92 7.39109
-0.347993 140.761 -0.489759
19.4534 122.523 7.62779
15.2508 121.268 -1.47753
15.3489 128.801 6.26311
10.8815 98.0721 -0.127481
15.0847 133.29 -4.45054
-0.883843 149.804 -1.70228
19.3143 113.402 16.9179
14.4565 126.16 7.30763
-3.54603 134.957 -0.524367
15.7199 94.6967 18.7576
16.0585 85.7153 14.3933
23.0405 134.476 4.93952
9.06568 110.015 9.46344
-11.4966 148.47 0.92716
10.7217 136.449 4.4958
13.9033 135.337 -6.09961
12.2642 128.286 -1.82691
14.8517 108.682 9.28457
20.7928 107.991 11.1821
13.6259 127.174 3.35353
17.6727 100.859 4.56492
16.1374 143.797 -1.15016
19.101 147.204 2.56996
16.9031 145.361 -0.471569
15.1317 116.367 16.8544
-4.51211 154.412 -1.48683
11.8966 149.935 1.00909
-14.8202 130.368 11.9406
18.8083 119.554 10.5
23.7775 138.303 0.687746
11.5262 88.3835 10.6459
14.517 88.6217 7.69159
20.3532 106.899 10.1676
-6.70084 132.98 9.10818
13.5341 144.992 2.39165
20.7942 145.876 1.39313
7.46545 93.8092 9.12345
12.1116 95.6302 13.123
17.4863 148.505 -0.66727
13.6986 125.245 -4.49472
-13.6326 138.329 11.2093
21.8225 139.606 4.12954
18.5031 106.787 5.51012
11.5098 122.097 4.7052
16.7432 113.826 18.0998
-15.6408 135.005 10.9843
12.1361 131.383 8.35527
21.433 94.4362 24.9499
8.09172 141.956 5.56557
10.0356 106.552 8.40545
6.4127 119.668 -1.29766
6.65131 133.932 -3.71408
9.40314 93.6452 8.7577
-12.9323 143.012 2.03834
6.1558 131.057 -2.35611
13.5172 111.974 15.7849
1.70133 140.194 -0.759525
19.9127 100.283 8.08832
13.3247 124.883 -1.78973
18.75 120.332 10.5583
22.5277 129.621 -2.19361
12.3181 98.9079 14.0865
-9.00642 150.385 -2.49267
-1.04834 122.898 12.3701
13.2113 119.76 15.2921
4.24009 137.834 -1.83718
-6.49729 145.609 -4.0174
9.41781 118.752 9.3128
14.1431 86.0896 8.21404
7.04063 140.308 5.49698
17.7606 124.232 6.46015
20.9034 107.857 18.8293
22.6439 94.1258 14.6551
15.833 122.767 0.468691
9.68458 109.333 8.456
5.12218 117.92 -2.92041
21.0935 111.056 16.5464
10.5141 93.4919 16.0537
9.85663 93.8693 15.3866
13.7267 92.4331 16.9373
16.1651 84.5727 10.3859
15.2571 118.728 3.97369
15.2794 126.147 -3.41592
19.295 128.973 4.97826
11.3285 94.6904 14.0818
21.2638 105.448 19.9733
3.9289 119.215 11.7202
16.1204 125.228 10.6733
6.75032 118.013 -2.05172
13.2959 129.428 2.89902
-16.5978 142.099 5.01139
13.3682 139.327 6.2919
9.70382 124.906 -3.92698
14.7261 125.04 2.60943
-5.6476 119.889 12.8342
-5.19352 147.808 -3.05294
22.642 103.445 16.3526
2.7314 123.833 -2.16746
-3.96299 127.513 10.5822
22.2726 97.4137 22.7822
20.2493 83.5835 15.6918
22.1594 124.658 4.75289
0.00980811 151.448 -2.15733
10.9318 139.17 3.67087
14.7705 120.262 -1.01743
-11.0593 141.826 -3.05958
16.8792 135.403 -4.90437
16.3618 126.397 0.992054
1.59403 125.31 -1.93573
9.11825 98.2264 8.37021
10.2115 106.745 -1.83618
13.7261 112.149 -1.99088
-0.285356 106.805 12.272
12.6524 106.523 17.2962
21.3849 96.3746 12.0435
12.7104 84.403 7.99933
11.7145 138.749 -6.46415
13.0581 112.289 16.8754
14.768 138.99 -1.52723
15.1795 109.362 10.2188
6.54125 145.778 -4.56869
-8.08286 136.008 -5.08605
18.4951 142.132 5.71013
18.3844 115.149 3.35486
16.7894 124.67 2.82039
13.1196 118.955 10.7555
2.24209 152.282 -2.61067
8.22486 119.439 -1.76514
6.85567 142.05 4.76575
-6.45597 135.911 -3.6754
23.1652 142.359 0.302222
-10.8083 134.473 10.8391
12.1053 129.195 1.41681
-7.03894 126.98 11.3738
17.4553 84.7557 12.1973
-9.17036 129.423 -4.13612
1.50508 126.981 -1.44491
16.1406 90.6104 17.8085
16.0103 123.842 2.25189
21.1837 130.315 7.24691
9.09222 131.115 -4.12446
12.7399 123.608 8.75476
14.3562 88.1912 15.6075
18.7892 121.558 2.62358
-10.1016 131.776 -5.24208
12.4522 120.066 -2.63571
23.6043 126.704 -0.767855
16.2721 127.798 8.30544
-12.469 126.172 10.6679
17.5692 128.517 5.57405
21.2129 106.516 11.8195
18.4719 109.815 6.6415
3.21664 144.657 -2.31427
8.90913 111.411 10.3313
1.72105 142.281 4.4766
17.2283 122.408 9.43545
5.24608 130.336 -0.532634
-1.62435 113.305 -3.31489
12.3896 103.982 15.9175
23.4186 126.195 -1.53938
15.4309 145.565 0.246188
24.7581 90.5493 21.4282
13.2847 99.6463 12.9814
10.2092 124.489 7.66923
-2.65093 152.011 -1.77728
-14.9884 134.602 0.540218
1.94167 108.104 12.8498
20.801 140.3 4.46022
-6.37595 134.131 -3.29561
-18.0458 139.073 10.6313
23.3727 123.914 -5.86942
-10.4616 137.902 -4.0249
15.0582 134.776 -2.91919
23.599 127.726 -5.38896
1.99512 103.545 12.3466
1.65468 140.531 -0.782827
19.3759 103.823 22.6086
5.92121 101.993 12.0014
11.3759 128.921 6.70138
14.6624 89.7099 16.3481
23.8844 86.582 25.1023
-11.4429 129.023 10.3148
-15.8057 139.83 2.87181
4.27145 117.064 12.677
16.4011 125.349 5.44175
18.3012 142.124 5.84993
24.4211 83.9974 26.1639
12.7444 152.121 1.13867
13.0456 94.8863 17.6674
18.5225 148.309 0.029212
13.6972 151.847 0.0271374
22.0019 126.905 7.22728
-7.20098 117.929 13.5705
18.0439 98.3519 24.6777
14.9729 145.451 -1.15278
23.4787 134.54 -0.698131
-3.89932 137.435 6.61988
-11.6062 127.695 9.98209
20.4748 144.365 3.79669
11.2083 96.9153 17.4338
12.4691 136.247 5.84202
9.07055 131.208 8.20147
9.27034 120.327 9.53644
12.7763 136.493 -6.51618
13.9074 141.093 6.14129
12.9699 136.902 5.33297
2.68309 121.774 -2.75041
14.2149 120.474 -3.10111
-7.70854 125.767 11.6785
11.4758 123.018 4.98303
17.3347 116.911 6.98912
11.4164 95.084 17.3884
15.1653 128.163 5.95625
-6.72839 132.162 9.36108
16.1274 129.865 5.51298
11.5797 96.469 14.1242
12.8635 116.849 -1.37571
16.2299 116.348 16.2313
15.7089 130.494 8.70814
20.2781 146.405 2.1567
17.4492 127.46 8.81967
-2.61205 143.853 4.69103
-11.8963 146.754 -0.588054
-11.1552 135.396 10.6598
-8.16607 148.816 4.60148
18.9527 89.3189 11.1832
7.60341 154.608 1.76672
-6.42911 125.084 12.5865
8.32714 102.38 10.7325
13.6901 147.616 -2.34058
14.5192 132.888 -0.663858
3.75775 131.027 9.38201
-4.71389 136.895 -2.212
19.492 91.8969 10.2294
21.2095 137.492 -2.81309
17.3462 115.943 -0.0887517
-9.15482 145.932 7.47694
15.2882 109.485 11.6052
10.0347 91.5129 9.49722
-6.48048 143.465 6.23293
-2.1497 116.053 -2.14532
23.0244 142.307 1.08879
9.22856 104.149 -2.59651
4.45424 135.696 -1.59489
8.60432 99.0023 8.92118
9.51406 119.212 9.12037
-10.6166 149.12 3.59424
18.471 144.802 -1.3929
9.90895 92.2915 2.07529
18.1071 137.339 6.93271
21.4847 136.67 5.057
-15.6358 144.177 7.15905
6.77266 120.394 -0.743929
13.2131 103.929 8.83171
22.1602 130.187 7.85088
7.31552 143.603 -4.96695
13.4706 151.702 -0.0578413
16.7869 87.542 19.2757
14.0641 82.7095 10.3785
14.0022 138.774 4.38943
15.1064 78.8401 14.3205
17.9433 148.671 -0.048771
20.8229 99.0981 23.6616
25.0268 136.126 1.16386
17.7731 84.8611 24.1014
0.560774 144.762 -1.20196
15.7632 110.322 0.342562
13.6911 141.562 -2.28776
-5.45205 141.23 5.57146
15.271 112.393 -1.23466
16.12 134.78 -3.50101
10.6488 113.039 -3.13729
13.1335 112.268 17.771
-14.8601 129.808 12.1137
20.5377 115.088 9.81204
23.2946 80.4799 19.746
17.7458 84.6449 24.0351
-11.3221 138.309 -3.73552
15.8938 129.883 5.49901
-11.5347 132.23 -3.33162
12.8829 92.3058 16.7546
14.5541 138.505 -4.18988
-10.161 135.987 -4.16389
-4.57264 116.799 -0.635252
-7.92618 122.183 13.4642
-8.02543 151.017 0.329826
22.7355 126.516 -2.93097
1.04862 139.422 4.97958
-3.59584 118.271 13.2925
-13.9282 143.947 3.60099
10.8427 128.368 9.00022
16.6906 121.56 2.71018
-14.3463 135.112 10.9695
13.5729 128.721 2.87143
22.964 93.4833 15.4199
-2.32484 112.936 -2.66734
-11.0553 144.731 -2.83016
14.7149 124.266 0.829783
-0.147922 147.17 -1.46695
22.2141 125.3 -5.04336
-0.970218 134.669 7.31338
-2.02096 132.212 0.448378
16.2978 126.788 -3.36502
7.4131 118.72 11.2837
14.7908 132.986 -4.24739
13.7249 119.472 15.2683
-0.783566 117.584 13.4664
-10.9375 147.122 -2.24144
19.6126 126.016 6.80807
-7.12876 123.346 -1.90496
-3.32714 117.652 13.4381
13.5644 123.077 14.134
13.1121 119.271 5.07407
20.1335 98.6893 24.7023
-4.60117 145.086 -2.52256
5.72787 104.492 11.9293
7.61265 98.695 -1.59762
22.4782 141.596 -0.75238
12.6825 89.0877 6.17886
18.6362 82.3878 19.0267
-8.71867 140.227 8.49235
-0.974991 151.165 -1.81791
8.62088 90.9203 11.4833
14.5111 130.913 6.15075
-3.18214 133.748 -0.25224
16.5391 129.049 5.74611
21.1807 98.2436 11.3068
13.4753 116.154 -0.74411
17.5977 104.994 2.40825
-2.11275 110.523 12.8119
20.2305 127.038 -2.48562
13.5539 97.3589 18.4667
19.343 115.604 16.0402
5.05225 134.876 -1.96188
19.221 127.329 8.64624
17.8317 99.4413 5.16189
10.898 137.657 6.58229
2.55085 147.857 -2.45391
14.0097 148.818 3.4768
22.7869 85.8019 17.426
-0.355337 138.644 -0.0793732
10.1488 128.589 -4.23979
18.9853 137.642 6.40841
9.54786 148.096 1.441
21.6467 139.059 -2.13409
-6.15818 131.358 9.18658
1.68155 141.759 4.44111
19.4457 144.094 -2.09782
11.9665 120.203 11.9667
8.04192 108.308 11.4067
17.9448 132.216 6.97969
7.30842 148.087 -4.61079
17.9862 111.287 2.17003
8.62049 142.246 5.61052
19.188 146.757 2.98032
18.342 84.9627 23.0425
12.4538 137.071 6.6097
11.1195 117.056 5.71703
18.2234 109.874 3.81449
10.1468 146.281 3.29144
12.6885 120.563 -3.75815
19.208 125.466 6.75276
12.9126 135.429 5.58986
17.7883 85.1454 24.2288
18.259 122.12 8.7209
14.4855 129.498 -3.08071
18.5821 107.387 5.25873
15.6668 134.99 -2.64003
20.2566 104.127 10.5044
22.6262 131.387 -1.92612
15.5902 87.9372 8.71291
18.0529 115.479 3.73559
10.5294 122.772 6.50962
9.46736 137.658 6.52383
4.27427 139.052 -2.21324
14.5167 128.034 -1.39051
6.64195 116.521 -2.93411
23.5392 136.884 3.59703
21.4303 124.454 -5.80294
8.0087 123.962 10.4697
15.1422 97.8827 20.7107
-13.4901 141.203 1.75958
6.44656 99.9928 10.7036
-6.70144 150.266 3.2216
-14.5997 144.721 5.06024
22.9462 127.523 3.53948
15.0676 117.939 1.64221
20.9206 135.957 5.50643
9.8321 108.704 8.23117
19.257 101.634 6.69667
-0.70642 147.793 -1.47055
22.571 100.182 20.6927
5.11584 102.399 -1.98595
11.7424 89.781 14.752
19.3499 98.5156 7.4745
12.6626 119.055 11.5396
4.83709 123.205 -1.02599
-8.56931 139.061 8.55207
18.0959 120.862 4.21083
16.3426 89.5306 18.4382
1.4422 143.597 -1.1503
13.7104 116.861 -2.40998
9.03718 152.912 -1.72359
-13.0564 142.776 -0.336738
-0.881587 129.493 8.97021
19.8544 126.18 -2.55531
14.9521 108.182 9.90925
20.6882 108.364 18.6278
13.5476 143.32 4.25656
4.59805 102.822 -2.08519
17.752 125.621 -2.95706
12.4099 118.182 5.13677
15.249 122.324 -0.168044
20.5837 146.91 0.478632
-9.7143 125.329 9.43055
22.6755 132.929 5.34367
1.43625 135.782 0.241274
-2.30614 135.397 0.0449023
15.1048 121.228 6.35951
0.87506 139.516 -0.397601
-1.0829 148.327 -1.45016
4.42924 114.63 -2.23943
16.8385 103.023 22.0029
-5.78211 144.032 5.42652
6.69261 140.745 5.2675
15.8685 126.835 0.324647
17.6452 90.5493 8.66
23.4729 86.4191 25.8071
-9.66649 133.148 -5.20903
1.6251 138.267 5.44784
18.0934 99.8299 23.7476
-9.77819 127.495 -3.65415
-1.31484 128.76 -0.0761634
12.6436 141.677 -5.3868
19.0821 121.532 3.64022
22.3095 124.698 2.96513
13.6931 96.1103 3.1635
24.3005 135.887 2.62024
-1.93565 142.737 4.94904
-3.55858 121.114 -0.119638
22.2264 136.577 4.84069
-11.216 148.928 0.127893
12.3 129.603 4.01478
23.1114 91.8431 23.4188
18.5978 80.1177 15.8034
15.1616 112.625 11.9488
5.27428 104.009 12.1362
1.69606 113.593 12.9902
8.59835 123.838 10.2884
18.4173 89.411 26.4124
-0.819108 113.939 -3.43605
19.2384 98.0848 7.53324
1.77663 115.311 13.2037
3.27899 105.982 12.3054
21.2037 143.758 3.28093
15.0364 110.975 13.91
14.0447 143.091 1.52308
-5.44343 133.491 8.40616
13.6779 133.641 7.60996
14.4252 103.959 12.8874
-2.65053 108.42 12.891
-5.03687 117.842 12.9541
24.5707 84.2784 20.6645
15.7207 97.1113 20.7509
18.3967 108.637 3.80744
23.2761 128.93 5.10869
-6.18529 137.708 -3.47306
-8.97836 133.181 -5.12588
-1.0172 122.757 -0.984977
14.8471 147.282 -0.378775
-17.8269 137.799 4.60312
11.858 129.982 0.50957
12.6566 127.644 -2.31547
19.8035 87.2789 27.804
20.5862 122.465 1.45028
24.1049 93.5586 21.1236
18.186 124.738 9.56717
16.3983 127.095 1.52816
0.546496 116.154 13.3304
9.31251 97.921 8.35957
-6.86281 149.468 -3.37271
16.5982 100.012 4.27949
10.5867 125.233 7.23064
9.91422 151.917 -1.50402
17.9852 129.122 -2.66851
21.7952 123.005 -1.71262
9.6709 105.546 9.54187
10.1496 108.109 -1.7619
14.3531 140.384 2.13087
5.71265 124.214 10.805
18.6605 144.062 -2.03467
6.60221 147.868 -4.46617
17.6581 81.7942 14.5063
8.88536 100.08 9.01005
14.0755 133.195 2.57447
-6.245 118.887 12.9893
14.8306 146.623 -1.02353
19.9161 80.273 16.7646
1.00755 152.95 -2.54616
-12.6708 139.781 10.4627
15.3799 148.988 -0.0646862
23.5522 130.013 5.97895
3.43252 145.914 -2.71705
14.8364 120.622 0.0687745
-2.58165 127.479 10.9493
14.1691 98.8146 20.5353
14.3607 116.799 -2.24237
18.5502 119.972 13.5271
16.7442 131.321 0.323372
-5.22195 144.63 -2.95753
13.7625 89.3825 6.99939
5.07437 120.254 -2.22912
9.48307 124.066 -3.66493
16.1273 113.904 -0.447025
-10.9592 126.879 8.7762
15.7532 134.739 -3.30174
17.9975 108.651 2.22633
5.95377 110.916 -2.04404
-2.21424 145.833 4.08939
4.72938 119.322 -2.44231
19.3718 108.318 20.0651
8.69166 91.5839 8.9743
19.2764 127.781 6.45254
22.3515 137.917 -1.02696
18.4827 113.054 17.9973
9.8018 100.133 8.43332
14.5468 118.39 1.49126
16.6909 84.9732 15.6247
7.54137 154.864 0.770009
21.3859 109.566 15.2933
-4.21937 149.882 -2.21434
15.4794 129.175 2.39057
22.4891 86.9211 26.7637
18.499 87.3519 23.3182
10.1144 126.848 -4.42471
17.9832 93.1839 7.88425
-16.6637 134.91 11.2059
22.3045 90.54 15.2777
23.3987 129.473 4.7145
11.3817 100.199 17.3558
-5.30325 125.804 -0.436873
24.3649 132.68 -2.23588
15.3242 114.419 8.44732
-0.117312 136.227 6.38081
18.1782 88.272 22.5617
20.4818 105.038 21.4564
-7.67776 125.602 -2.30278
14.5986 140.823 2.22322
-3.96615 134.912 -0.883584
18.4819 106.837 4.16666
-6.73193 149.676 -3.33494
20.4997 85.6686 28.2358
14.8389 114.954 6.9843
15.9056 90.1957 7.91286
21.5309 107.941 13.3881
-11.0875 135.638 10.5691
-11.7778 131.056 -4.51558
11.9655 130.872 -1.3723
1.45898 123.599 11.5874
16.551 122.371 1.66614
13.9386 146.589 3.89118
13.3295 98.8507 1.46243
18.0874 95.8993 24.094
-4.99656 135.549 7.53504
-16.504 142.202 9.33055
13.5329 123.135 -2.22688
15.3266 109.219 12.6176
13.0231 113.751 15.6688
18.3636 90.3263 26.1564
-2.50999 131.074 0.382464
20.0456 124.598 8.21234
1.08349 118.078 13.0195
0.132881 115.315 -3.543
14.8263 126.071 6.94169
-5.57703 133.396 -1.80297
11.3797 86.7786 8.23884
9.51321 143.101 -6.01553
18.5068 118.857 11.3874
9.25554 88.6597 10.6339
-10.1979 150.042 1.27459
-14.4215 135.573 -0.253859
11.8289 96.7995 1.49481
-5.88883 135.348 7.60024
13.2299 144.438 1.43833
22.9164 123.158 0.602035
-1.29116 150.628 -1.67221
18.0567 111.595 3.49932
7.31807 141.68 5.52926
15.6744 136.787 -3.31929
9.48942 107.056 -2.58898
18.1127 118.18 7.58256
24.8669 136.373 0.840488
16.7776 117.949 6.83642
15.284 83.8066 9.78511
6.33641 98.8068 -1.15554
1.49118 126.619 10.2575
21.5356 91.3552 13.7835
14.9634 123.302 0.74487
9.58284 143.961 -5.87467
6.13942 97.6098 10.1654
-13.3053 142.332 1.0321
10.1747 139.164 4.54117
10.9527 97.9376 0.0325455
15.2933 109.333 11.7349
25.2464 84.6538 24.0254
17.8956 84.9689 23.9209
4.98025 115.866 -2.45569
9.95706 89.9026 3.24063
11.6413 131.038 5.18456
20.638 124.101 6.34648
7.40327 142.494 -4.99903
14.7671 134.328 -1.97824
20.675 106.932 10.7238
4.80473 99.8848 -0.987767
10.1305 145.447 3.64628
13.9964 89.1692 16.1178
10.8293 100.744 -1.11902
22.3269 127.185 7.40788
18.199 84.6514 23.1506
-3.19387 143.698 -1.46531
18.7026 108.624 6.47804
17.9846 108.285 20.9618
14.2769 127.47 -1.02899
-8.05963 149.69 2.79245
19.5628 80.0855 16.3729
-13.9884 132.254 10.5985
17.7679 118.32 6.24936
-6.31058 138.626 -3.93719
6.01157 138.991 -4.2119
23.824 134.695 4.1458
-12.7251 143.79 2.16599
15.9073 147.857 4.18159
16.6689 97.9103 23.1391
0.876829 109.004 -3.26582
18.8547 82.0209 13.0164
-3.08771 118.758 -0.729019
20.1328 146.562 -0.964317
-8.14364 137.777 8.44407
-1.08337 142.247 -0.636851
19.7787 123.982 -3.25671
0.23986 132.105 8.0596
-0.20179 141.388 4.9297
12.1845 95.774 12.8811
-6.09445 121.388 -1.00274
11.7014 121.527 12.6151
13.2606 113.12 6.31747
23.342 126.134 -0.850993
-8.06851 123.663 -2.10462
22.05 123.323 -1.56299
11.2907 133.001 4.36173
-4.74842 136.784 -2.19851
14.4376 141.53 6.4427
-11.3314 128.162 9.34947
14.6116 131.892 0.855636
-13.711 138.912 10.8873
-5.63351 127.885 10.6429
21.9378 124.785 5.29057
20.9116 88.246 14.6769
18.0925 126.985 -2.62807
19.5858 117.344 15.0279
19.1056 110.181 18.9009
21.0014 104.077 11.847
19.4478 97.1659 8.54464
13.7237 80.8052 12.4438
-14.4601 143.741 3.83306
16.6881 122.316 11.7579
-11.2371 131.344 -4.69506
15.0655 120.87 -0.731163
9.40037 114.538 9.39192
22.0782 122.969 4.68059
-9.17903 150.527 -0.281473
18.6049 83.4319 15.1746
23.4212 126.752 -5.64019
24.0643 91.1372 18.2228
16.9577 123.281 -3.97505
20.3096 132.347 7.34642
-6.65376 136.734 7.68536
23.9112 126.598 5.58091
14.6724 140.89 6.77385
9.27966 108.032 -2.68131
14.4118 79.8639 13.309
19.7278 104.351 22.1297
4.26195 127.406 9.82985
18.5848 121.374 3.74415
20.2119 128.425 7.41027
-7.09697 141.933 -4.1574
10.8877 110.293 -1.65996
13.3304 132.437 0.816506
-9.98006 148.322 5.74858
13.468 141.042 -5.60971
-1.64106 122.838 12.2986
20.8553 98.5336 24.0681
13.7541 146.706 -2.34477
13.2333 103.953 8.8235
-1.90406 133.857 0.390779
8.13142 119.613 -1.50826
22.5784 127.497 7.406
17.4319 132.435 7.84249
13.9792 104.318 19.4363
20.5527 115.245 14.8863
10.4385 93.3304 9.30661
19.0924 126.771 5.89724
17.5037 87.6649 21.2808
24.1603 93.4707 21.0213
11.5821 103.237 8.06448
8.12376 130.819 -3.4352
-11.7575 129.195 10.2541
5.22177 142.737 -3.85035
-6.78889 142.526 6.73738
10.8555 136.451 6.73505
19.2687 141.473 5.35269
7.37877 128.91 -3.07733
23.6359 139.006 2.08085
13.0622 130.492 0.946518
19.1362 82.9529 14.8438
13.5895 119.482 -3.15818
-0.50731 109.509 12.6292
13.9108 140.574 -2.12156
-7.58521 126.128 11.3987
-19.1315 138.62 8.21581
0.101263 119.67 12.9733
15.5506 86.0499 9.59789
17.6697 115.845 4.14295
18.172 122.882 6.23173
19.1243 92.3993 26.4423
16.8129 88.7385 20.4703
-14.5451 140.17 2.19687
9.41127 99.5441 -1.57809
-2.91528 117.914 -1.06113
22.5399 140.924 3.22141
19.769 89.8634 27.2861
21.9756 131.065 -1.97778
11.0879 98.2472 8.75382
-9.4166 144.512 -4.06397
15.1633 107.418 11.9769
14.4449 130.341 8.92805
18.3659 123.413 -3.46123
-11.1781 148.487 -1.41188
15.9535 127.164 6.03675
-5.07656 127.44 -0.671321
12.2152 127.51 9.39537
-13.0302 146.426 7.53663
11.6817 130.644 4.73665
16.1524 91.1492 7.40598
-8.15776 119.068 13.5708
10.9883 118.771 5.74145
5.42472 113.09 12.675
12.5526 149.223 -2.65686
8.16804 116.12 -3.02928
-7.57167 131.844 9.60604
11.5857 129.175 -2.46599
-14.5295 144.978 8.26
8.70806 150.669 2.51708
2.09699 115.524 13.1872
12.3441 93.7286 17.14
12.4831 132.066 3.06155
15.4688 84.1795 9.81987
-13.6993 129.405 12.1124
-5.7052 124.615 -0.73637
14.033 126.11 3.30292
12.1016 131.247 -1.70986
-10.8797 123.258 11.4785
-9.69991 127.971 -3.84673
-12.6423 145.907 8.37687
-16.2443 138.349 2.10816
-9.16166 133.668 9.93526
16.8681 78.7405 15.3405
15.5277 123.709 12.3546
21.7749 94.7804 13.0919
22.9617 102.047 17.2608
20.9098 113.8 13.8682
1.24405 108.121 -3.27065
16.0547 90.3862 16.8641
3.0125 127.965 9.46095
19.029 90.2162 10.8358
23.6691 127.025 -5.8714
13.8405 105.737 15.3427
14.4695 93.8572 5.20603
22.97 89.0129 17.3998
12.5203 126.106 -5.17184
10.6752 131.235 -4.95829
5.31864 98.2567 11.357
8.75021 101.58 -2.36392
18.4099 91.02 23.8933
7.99595 125.757 10.1977
19.8697 91.6699 10.9506
23.6193 129.894 4.86404
20.5473 108.01 19.0516
0.307183 138.709 5.38214
15.8071 123.773 11.2138
13.7221 112.247 -2.04607
13.8615 126.666 7.8271
23.1146 126.901 0.704138
-6.1015 134.457 8.60869
11.731 132.281 3.76216
18.0834 114.44 1.49215
17.7862 127.392 8.85604
12.2147 130.877 9.05411
22.2143 126.985 7.50085
10.8088 93.1869 11.6039
6.4859 147.13 -4.49614
17.9369 86.2821 25.6516
10.1595 107.629 -1.81393
18.8625 126.413 6.46242
10.3526 109.232 7.30131
2.26649 140.085 -1.03481
7.01126 123.386 -0.442101
15.2885 130.932 1.37615
-14.786 145.223 6.5761
13.9907 126.372 -2.12877
17.0915 123.044 4.94057
5.84503 109.441 -2.48541
23.0123 96.8301 16.8983
13.7449 125.902 -1.35478
10.9805 99.2338 16.9264
10.0436 142.662 3.21519
22.8023 129.552 3.28456
12.5458 127.036 0.909397
6.32666 100.366 10.9391
7.70357 115.822 11.2964
7.48788 139.421 5.78576
-5.60697 134.831 -2.57523
15.6962 86.3993 11.7281
19.8743 141.622 -2.17543
-16.4951 142.858 8.18211
21.2315 89.3321 14.4965
23.1176 96.6407 17.5429
20.2825 105.211 21.5664
18.1591 107.662 2.88253
8.29717 144.451 5.26934
12.2737 132.291 7.86007
12.5359 120.052 4.7355
15.4044 98.7863 21.9454
12.9363 116.709 16.3319
6.16744 135.079 -3.28924
1.45747 116.291 -3.65269
16.0782 135.104 -2.98477
16.449 112.633 -0.450619
13.5127 143.568 4.12538
24.6092 137.232 0.589911
7.15067 123.713 10.7145
-8.8306 127.59 -2.94775
22.1701 92.6868 14.1543
16.4264 127.625 2.19364
2.29936 154.287 -1.74011
10.8371 94.2797 9.36361
10.6041 142.137 5.08752
10.5556 116.194 6.49959
16.5291 96.6071 21.7178
-9.76122 150.224 -1.01868
12.027 101.3 17.4938
7.30631 151.142 -3.85483
-8.01028 145.277 7.0745
6.49345 124.623 10.578
9.63313 108.14 8.56732
21.5801 85.2841 27.7472
7.20788 129.975 -3.14098
14.4157 106.465 14.8526
8.51901 110.74 10.8378
-5.97682 151.835 -2.8609
-4.01414 132.986 -0.723845
1.34096 123.227 -2.3858
18.4087 85.1773 20.0732
-4.83905 133.017 8.23729
12.8178 143.04 -5.04252
19.9678 117.541 14.3267
3.69433 144.431 -2.62825
-7.03366 122.166 -1.69862
5.36384 131.696 -1.16551
9.40989 93.1996 13.4068
19.6063 123.762 -3.10581
21.7683 97.1492 12.9189
13.2089 132.992 -6.27452
23.127 98.0857 20.2248
3.86795 126.476 9.83698
10.665 95.4802 16.7469
-0.0356911 118.395 -3.19038
20.6645 121.385 0.489431
-0.611392 126.015 11.9967
21.7074 106.622 14.562
7.67043 144.067 4.28221
4.18628 102.462 -1.91424
18.4881 90.0688 24.1719
22.1791 94.8414 24.1505
7.56469 112.753 -2.41954
6.28097 136.931 -4.15608
13.2889 145.41 -4.51024
7.32645 152.718 -2.67696
20.6868 124.156 6.38984
15.6776 121.393 -0.209683
22.5992 138.504 -0.545012
16.7261 143.203 -2.34857
-17.7651 140.88 8.25782
18.3609 119.597 9.26375
0.0367546 110.176 12.8348
15.7412 125.385 0.619024
19.3414 134.495 -3.76435
21.1257 96.0731 24.8141
-12.9912 135.546 -1.92327
16.9699 130.559 -0.453039
-7.37833 120.503 13.822
-6.70422 148.721 5.19898
16.0793 85.8161 14.1225
-6.3092 121.08 13.3215
15.7299 137.467 -3.88826
-4.17751 121.351 0.0499531
20.161 109.789 11.1834
12.819 87.5027 11.2934
12.2293 127.634 4.94017
5.03989 129.031 9.96982
-3.04032 136.864 -0.806824
17.7623 79.8264 15.4713
-1.74613 123.436 12.4356
9.51566 108.295 -2.4004
18.027 85.4197 23.823
15.9443 88.8002 8.64327
14.0524 134.646 2.2538
12.5006 98.3906 13.7736
17.3552 84.6947 14.0251
13.4242 108.519 16.605
19.3638 93.6891 9.58685
16.0336 129.771 -0.193467
20.5548 111.016 16.974
15.5238 136.377 -3.37126
20.683 113.342 13.322
14.5041 103.108 11.1409
-14.7202 145.164 7.27535
14.2179 137.916 2.50756
2.40944 117.174 -3.48691
8.50687 108.231 10.6137
10.1412 122.391 7.2199
13.9345 98.0848 2.64269
18.9135 140.167 -2.80852
3.28147 104.9 -3.34039
12.4188 104.155 17.932
-1.48363 145.356 4.11592
13.5331 129.49 4.21845
5.59275 128.226 -0.114159
-5.05381 151.937 -2.42804
15.2083 132.233 -3.57148
18.8074 106.811 21.1569
13.421 136.479 2.33517
-8.10138 149.192 3.82669
1.52718 134.154 0.555485
-2.05524 119.714 12.9555
23.4606 85.089 26.716
18.508 124.278 6.19932
3.63258 100.597 12.6924
14.4717 121.189 1.6013
9.31813 134.441 8.44032
14.2331 105.74 0.194896
17.0257 118.851 4.02101
11.4948 129.583 8.22078
17.1046 140.866 -3.32168
-4.14599 132.886 8.09179
8.75231 94.0632 8.60062
-5.52176 149.485 -3.17462
-12.2778 144.032 -0.99251
16.5426 80.7426 14.2687
19.2758 104.869 8.73911
11.9874 87.5118 6.40228
13.4645 131.222 -5.44899
15.3704 134.847 -2.32295
15.374 135.813 7.83625
17.453 95.9052 22.3071
-9.3983 145.642 -4.06163
23.8509 128.264 6.06306
18.0786 110.561 2.12855
17.4099 122.062 12.0228
13.5814 141.713 -3.90867
16.351 125.039 10.6161
-1.34787 108.192 12.5532
14.4624 115.332 12.7417
16.2958 97.2576 4.8751
-5.86979 153.693 -1.10254
-7.36705 128.945 9.6998
21.2991 89.6687 26.2654
22.5465 93.795 14.5647
10.0507 114.845 -3.05658
3.46947 112.73 12.9071
17.6809 129.238 -2.71724
25.5392 85.5942 22.5373
-14.9835 142.345 3.06308
18.9356 145.945 3.95784
18.4157 106.166 4.76402
14.9051 81.0138 12.828
14.3273 117.685 -0.639224
21.5622 81.3158 17.9031
17.3111 114.284 0.195299
6.07588 112.818 -1.9376
17.3637 116.08 1.3073
16.5736 129.533 8.61784
11.5679 97.604 18.0769
4.06237 132.591 -0.729606
-9.55949 150.345 0.278239
5.35404 97.9659 11.1978
14.3007 118.95 -2.06136
-8.56692 148.347 5.45398
17.7989 110.427 1.04246
-0.136982 113.593 -3.66096
20.2011 79.7402 17.3344
17.532 100.825 22.6711
2.55657 119.3 12.0003
3.30723 119.882 -3.00724
-11.5091 127.237 8.72241
12.487 117.547 15.5543
14.3148 118.257 -1.6485
1.82123 130.906 -0.0706804
-2.41132 109.173 12.7225
-9.25234 138.011 10.3409
15.8562 117.538 15.7581
15.2058 125.664 5.89174
14.226 145.486 4.18812
16.3912 82.2898 13.1355
17.4458 85.2493 12.0292
-6.88716 147.335 -3.83685
8.04589 119.222 -1.84983
8.77018 99.6556 9.18682
8.40081 117.007 10.6712
-2.76775 148.942 -1.73694
-0.936964 112.197 -3.45164
7.5903 127.17 -1.73401
12.0949 132.422 -1.64183
15.4195 129.501 6.22317
19.2019 125.46 8.95414
-6.38647 142.236 6.31601
7.64882 133.588 -3.74575
18.632 103.686 6.65854
1.97056 133.17 7.62773
15.4107 123.188 0.220866
14.268 148.902 -0.52562
20.9745 95.4449 11.6913
13.136 106.174 16.2401
13.5682 124.981 -0.885442
-5.53527 154.476 -0.75893
-1.2048 116.049 -3.03451
-0.136895 107.12 12.3279
14.0511 122.92 -1.0969
18.7011 80.3815 15.8232
8.02899 117.223 11.0041
-16.0397 139.737 2.97499
16.664 146.683 4.36981
10.416 133.602 6.40751
16.2289 140.85 6.63566
22.7489 131.02 -2.02671
12.3383 151.974 1.50732
0.763958 124.771 11.6437
23.5316 130.623 5.27482
18.9453 112.492 17.8024
12.2329 124.803 12.5877
8.63293 105.42 -2.4856
14.8226 136.208 -5.31362
14.6089 125.382 3.0793
20.0206 110.598 17.6856
-7.08202 133.087 9.15241
17.6307 111.562 0.653024
-6.8529 123.995 -1.88688
-6.6663 125.255 12.443
16.1646 126.74 10.3708
18.6301 91.6715 26.8604
-1.12563 138.205 -0.0188342
23.4684 127.122 0.154119
14.3524 130.12 3.6219
15.2148 107.849 11.9046
18.6321 95.3483 25.3395
-13.7297 136.497 -0.143044
15.6676 103.922 21.764
14.4415 145.552 -2.33056
14.5052 116.965 -2.87877
5.90008 97.2654 10.4344
8.29626 101.667 -2.52258
19.3328 85.0282 26.8399
15.6965 96.545 20.1406
-1.60477 116.371 13.1093
18.3433 131.865 -3.67854
17.8158 118.771 5.06533
-7.65955 123.102 -1.92653
20.2492 104.127 10.4895
22.5802 91.5351 15.202
-0.413906 116.93 13.4544
6.0397 124.683 -0.243195
20.8461 128.257 -2.08145
23.5768 131.698 -2.57403
18.7282 85.2016 22.1203
-12.2864 147.59 5.91371
13.8992 149.977 -0.10934
-8.76141 137.361 -4.56696
24.62 135.963 0.177561
22.4582 133.122 5.45231
18.9574 101.821 6.21747
-11.732 127.543 10.1548
14.0975 124.604 0.198419
13.6044 147.223 3.5855
23.4205 128.737 -3.37052
10.353 148.397 -4.902
10.2297 120.709 7.15792
8.4551 143.982 5.50318
15.98 121.542 1.94945
-1.11521 125.466 12.054
13.6897 104.866 15.0076
2.36025 111.659 -3.90539
12.9364 117.9 12.2187
19.7294 129.487 -2.69921
9.36214 93.2726 12.6202
5.71005 138.409 5.32254
15.5591 86.2302 11.0081
15.4254 112.105 -1.16645
23.8342 133.592 1.74494
4.86859 123.109 -1.04334
-6.69182 136.924 -4.10729
14.4914 127.33 -2.69366
24.5189 132.779 -2.01271
15.7428 86.207 9.70919
-4.92578 134.297 -1.59236
10.9139 135.993 3.76911
20.2646 138.831 5.06239
10.5378 124.282 6.93963
13.8494 112.932 14.6982
19.7591 88.5157 27.5414
-12.979 142.174 -1.31143
-3.61467 113.558 13.4266
13.7494 110.839 7.00926
11.4948 152.108 -0.634129
0.761532 122.892 -2.07052
12.2288 99.802 0.203396
25.0319 83.7506 25.235
20.8863 81.4244 17.3789
9.99535 134.408 6.69237
10.3283 93.6836 13.3186
20.5337 96.743 10.5829
-16.9266 141.299 9.86005
16.4185 128.436 7.92478
12.0383 84.8741 8.48441
7.99682 101.489 -2.5665
-14.0966 136.701 -1.91078
15.4033 118.68 8.01557
-9.29488 149.044 3.94177
8.26319 113.95 -2.62495
13.8692 87.8547 12.6032
16.2922 111.688 18.9258
13.7775 91.3269 16.4798
22.7825 127.759 2.84611
-12.3221 147.329 6.64386
-14.8694 137.156 1.24161
8.23892 145.074 -5.38707
18.6605 83.5157 15.511
1.12477 110.915 12.8458
4.94352 97.8288 11.607
-14.5562 135.85 -1.40281
18.3456 109.426 3.04712
-7.80964 122.472 13.4296
17.4116 81.5021 11.3085
13.8912 134.398 2.13798
-11.625 148.096 -0.130285
0.171635 134.439 7.48535
-4.5919 130.12 9.60521
-12.0762 131.904 -2.95643
15.6248 122.912 13.9769
-4.2784 120.461 -0.0423669
13.7472 124.677 0.714226
-8.4996 125.108 -2.76993
20.7917 92.5848 25.5761
12.5778 123.38 13.498
12.1992 125.124 -4.84893
9.95061 91.7548 12.9423
16.8385 99.3376 22.5055
-18.5409 139.705 8.35109
20.9269 131.608 -2.8322
23.9255 94.9308 18.9779
11.6882 100.749 -0.421902
15.7892 120.887 14.7784
22.7595 100.747 19.9481
17.6356 83.5045 24.1928
18.8003 84.5215 19.0641
11.5542 90.2584 12.1344
-13.1844 141.664 10.7374
20.308 84.9663 26.7015
-8.86838 141.687 8.40297
7.41906 111.603 11.6713
-4.74779 127.407 -0.405273
10.0281 114.235 7.22263
21.3867 139.978 4.20416
-6.50514 135.534 8.79344
19.3202 118.848 13.7776
10.5874 137.885 5.31069
19.8666 117.755 14.2293
6.86174 141.301 -4.69814
14.8692 125.604 4.8776
8.25167 128.902 9.57079
2.80174 139.176 -1.11039
10.7542 128.008 7.5594
21.6662 124.945 -4.06926
-11.9569 145.047 -1.43938
15.2329 146.267 0.140182
17.1205 102.018 3.31408
1.48831 126.419 10.418
-13.4693 142.474 0.156739
-15.9555 140.211 3.07958
-9.87463 122.901 12.224
-0.914159 120.57 -2.04648
12.6938 131.365 8.78919
-3.18362 132.218 -0.0952832
15.5958 97.1706 4.27923
22.9235 129.033 -4.36286
24.1871 136.986 0.152658
10.2954 148.51 -4.88162
-1.77361 125.12 -0.555112
14.6099 122.613 0.398022
19.352 116.323 9.10667
18.8136 125.296 6.61681
-7.24381 148.59 5.27416
12.9315 100.523 18.5327
24.8807 133.375 -1.36107
22.8137 93.454 23.408
4.0066 131.182 9.33593
23.9118 81.8075 19.9909
15.9553 87.3254 15.8123
9.25074 119.321 -2.41894
12.0373 131.594 7.88548
18.156 85.2427 12.6646
21.6903 105.564 12.9279
0.995988 151.359 -2.36307
13.1693 150.234 -0.22202
19.2917 96.556 8.66791
-4.51297 127.929 -0.325203
11.2954 125.069 10.0982
3.16976 126.295 9.6391
-9.17649 141.144 -4.14934
16.4107 147.215 -0.0715492
11.8279 146.313 -4.93375
11.8803 130.179 7.58471
18.796 93.1117 25.9032
14.0091 107.477 0.267184
15.9522 127.709 5.7504
-15.6581 131.456 11.2783
5.2228 123.348 10.7785
20.2052 132.263 -3.34046
-6.06056 145.951 5.28921
11.8151 102.74 17.5792
2.00176 144.244 -1.47142
8.01621 127.466 -2.8512
21.0325 143.018 -1.68546
18.1539 119.45 5.13158
20.2384 99.4752 8.76063
15.8618 136.809 -4.05565
15.345 119.108 8.46597
-14.3086 135.208 10.9871
0.640713 121.629 -2.57764
18.6212 119.077 8.84189
14.6596 110.306 14.793
4.51445 141.525 3.84921
14.5562 113.671 6.84216
4.09565 135.66 -1.18151
14.3434 127.996 -3.63564
18.8098 129.266 5.23979
15.698 136.818 -1.65616
-9.60083 138.505 -4.40478
24.7053 130.938 -1.87899
22.3798 140.922 -1.04079
-11.6176 148.185 2.89367
0.345247 124.489 -1.57791
15.1411 125.938 4.97761
13.5137 122.416 4.71521
16.4621 126.011 10.3085
-18.7809 136.917 11.4805
21.0011 87.0457 15.1199
15.2341 94.268 5.58994
22.2006 105.167 15.0194
-6.66052 144.361 6.17488
11.1561 125.948 -4.89502
19 120.195 12.3818
6.67664 110.255 -2.12262
6.77154 133.127 8.95672
3.40539 117.721 -2.57518
15.3329 94.0482 17.8227
2.1109 149.959 -2.40284
-9.38357 148.034 6.17108
6.29216 105.836 -3.35016
-6.79526 140.202 7.35655
19.8866 117.665 14.306
8.97676 113.453 -3.04369
-7.02945 130.614 9.25425
15.337 83.4109 10.7173
-3.05493 122.067 12.3459
-5.27366 145.328 -3.06557
8.77563 120.68 10.3007
12.6362 95.6129 17.8436
9.78783 142.915 5.6716
22.1792 103.725 19.0084
-11.8894 129.246 10.2329
16.0638 90.246 16.7882
-16.9172 139.29 3.58819
-5.78642 148.297 4.99495
-6.54023 129.384 9.66295
14.4284 149.86 2.86536
12.8185 137.129 5.81523
6.6586 127.589 -0.665991
-17.3418 138.627 4.07171
17.3077 126.314 2.18921
18.512 109.665 20.1568
22.832 127.605 -3.63473
23.1962 132.347 4.96825
15.5226 128.382 -0.507546
14.7635 127.524 -1.25468
2.67884 99.3966 12.8763
-5.15555 125.304 12.6421
7.84222 119.372 -1.5301
-13.8096 138.807 -0.339934
3.3284 134.91 -0.465147
18.8649 112.187 17.9476
15.0556 138.115 -1.74815
13.8094 129.197 8.31177
7.49426 104.266 -2.96397
2.69865 107.103 12.6251
-3.89517 133.761 7.46022
-9.62162 138.802 10.3369
19.2378 101.572 6.62918
-0.0631188 137.34 0.0850153
10.7216 144.498 4.44666
17.7462 138.547 6.86009
-11.6547 147.953 5.71612
10.2468 154.012 -0.0322999
12.7607 87.494 10.269
16.192 91.4375 19.826
9.68546 104.012 9.58075
-3.99714 137.397 -1.88538
-6.67961 154.689 0.15288
3.69441 153.186 -2.66737
-14.923 138.71 1.44846
17.4079 141.333 6.31736
15.8533 92.1094 18.6296
-3.01513 153.125 -1.75259
12.4514 150.581 -0.399195
22.2866 98.3857 22.3262
14.2897 102.033 11.4003
19.5035 107.398 9.05247
19.8322 115.596 8.40646
21.4048 95.703 24.6822
15.667 135.91 -4.37887
7.64616 125.096 -0.964245
9.71578 96.1439 -0.102481
17.8693 133.437 7.59271
1.71333 123.864 11.3145
4.00863 131.444 9.16157
12.4797 84.0072 8.48839
22.7892 138.572 -0.137298
15.0206 103.124 1.10742
15.9389 122.01 1.94551
-8.81483 141.591 -4.48723
14.7557 120.504 -1.37353
15.9033 93.5275 19.0539
-3.13476 115.904 -1.14932
3.09899 109.151 12.8472
15.7982 120.191 14.8556
16.4487 122.29 1.5276
-4.34168 121.604 12.6002
15.5676 86.2839 14.2082
11.6103 94.1125 10.2489
4.91133 150.387 -3.64514
10.2193 126.486 -4.49274
17.2727 98.4951 5.11186
18.1468 94.9021 25.2199
21.9763 131.721 -1.47605
20.0443 84.4891 14.8412
9.03125 90.1324 10.4495
-7.72259 141.001 -4.43804
13.9983 142.418 4.23169
15.5043 106.311 20.6674
14.6194 139.875 -4.18322
7.72451 119.273 11.0224
22.7545 102.927 16.7469
20.9043 106.059 20.5316
11.5499 129.885 9.04631
18.5778 99.8011 24.326
15.8165 113.014 -0.768727
21.4294 85.7036 27.7827
19.5009 123.95 7.58592
17.0428 90.509 21.6456
14.0179 92.69 5.45854
9.81532 93.8769 15.2876
14.6176 130.066 -3.4524
13.4311 128.567 4.01855
21.4783 127.034 5.48248
13.6384 124.821 -2.4845
13.6861 103.138 9.60799
14.1045 123.578 -1.27367
15.6594 103.597 1.31356
18.3461 87.5955 11.4929
21.1727 133.1 6.21625
12.5616 104.314 8.10066
6.79845 127.694 -0.885046
16.4838 122.317 13.6188
14.3027 88.4728 16.065
3.85382 113.405 -2.6618
19.1221 135.343 -4.00848
-3.26118 127.073 10.9248
2.40957 115.852 -3.51332
15.4062 139.527 -2.45487
22.5091 103.953 15.9789
1.20712 131.442 8.56745
8.21965 132.927 -3.57963
12.5063 129.889 8.70607
10.8488 94.4847 14.4854
15.2998 109.447 11.9023
-14.9167 143.552 9.48629
16.3737 83.9434 10.8127
10.3682 151.428 -1.65136
14.1142 89.5273 7.17394
14.844 123.66 7.48021
19.8389 126.711 7.05537
0.178777 130.9 -0.469971
-5.53625 138.321 6.50015
14.7262 105.935 0.395276
19.9743 115.179 15.8651
13.915 82.2439 8.94325
2.31975 114.092 -3.81249
16.1081 128.19 2.31048
8.05581 127.155 -2.76199
-13.2691 137.455 11.4709
19.78 132.12 -3.43106
14.4145 138.243 -2.06255
4.37155 111.052 -2.93627
3.4938 134.476 -0.567676
11.3441 128.191 -2.25467
20.3013 95.8542 25.5128
-6.27783 133.073 -2.45515
11.0513 151.256 1.4275
10.2258 91.7145 11.7951
18.3853 89.2786 26.426
-8.15132 134.382 9.17016
24.8605 87.9685 20.9723
-5.27732 132.881 8.51179
-11.3507 147.559 -1.58146
19.2634 124.831 8.95084
-0.331214 128.863 9.29389
-11.2566 130.659 10.3403
14.7657 132.939 -4.22719
13.8222 125.362 -3.39263
15.3713 130.362 5.71473
23.8846 133.223 -1.58471
22.7987 87.7139 17.3376
14.7464 124.015 1.04951
-2.57202 152.041 -1.76036
14.3237 122.333 -2.21936
10.6815 121.746 -2.86305
17.3556 131.793 7.22545
11.9949 102.508 15.6789
-6.257 140.493 6.54369
22.8012 127.814 3.00157
-17.2773 140.904 5.23013
3.85162 112.349 12.9156
12.4857 129.66 8.64741
22.4758 122.928 1.67159
2.0217 103.258 12.3122
24.8458 88.4363 20.8402
-5.28414 127.318 -0.791289
5.803 133.351 -2.55256
-5.09904 115.682 13.0826
11.6876 93.5513 10.6022
24.4508 84.6605 25.5217
14.4021 146.713 -1.73931
22.1979 86.3567 27.2252
17.5065 122.562 5.03138
11.9755 102.69 15.7387
14.5611 124.258 0.447099
14.2218 130.554 -2.17881
12.7209 88.982 13.9072
-4.87104 126.395 10.9556
16.6981 118.999 14.9819
18.5375 110.876 4.9625
-13.7193 133.864 10.5411
-12.0181 134.465 11.1725
15.2776 115.164 8.14881
14.1436 129.737 0.187969
19.2864 124.535 7.73615
13.4531 119.693 10.0587
13.4374 102.17 9.80885
1.64445 141.803 4.44533
15.0184 116.157 6.96977
18.7923 125.302 6.4151
5.79079 112.678 -2.03148
19.6205 141.191 -2.38388
-1.20241 140.585 5.60738
15.4255 131.89 -3.06969
18.2021 128.826 -2.45881
15.9313 123.753 3.14821
3.00115 142.067 4.23452
12.4118 94.2841 3.15841
19.301 127.855 8.18672
17.788 88.6983 10.3869
16.5577 122.065 1.43759
23.7752 140.156 1.21417
-9.14861 134.114 9.9321
21.3016 122.362 0.657796
14.2477 108.23 19.8368
20.8065 114.294 9.89564
8.44217 108.695 10.8029
14.8664 108.007 14.6991
-2.88485 130.619 0.373189
16.6496 118.984 3.7894
21.3206 101.672 22.2177
-1.35433 144.636 -1.10964
-7.4011 146.562 6.20236
18.7168 82.4881 18.7774
2.13001 115.771 13.1933
-1.77845 148.067 -1.36613
14.1035 100.249 19.7429
-5.33754 153.131 -1.899
15.3724 93.4074 17.5834
23.4263 99.468 18.4792
-6.85401 153.587 -1.11239
13.0057 128.935 3.30051
-9.91283 132.848 10.4078
13.5067 107.063 15.9466
5.90629 130.069 -0.881169
3.09486 109.294 -3.86753
9.59613 115.601 -3.10306
13.0369 110.441 6.77295
11.8028 131.753 -1.96163
14.615 119.616 2.71033
1.59465 113.677 13.0047
13.2242 134.68 -6.52029
20.1693 147.102 0.089756
7.89956 113.135 -2.56524
5.37536 133.421 8.31416
12.9399 128.796 7.81977
17.7652 108.634 1.55459
13.8551 83.411 9.67378
22.8929 141.086 -0.362691
16.1265 140.369 -2.47345
0.675021 129.889 -0.719771
15.6677 137.553 -2.34237
-4.86267 145.177 -2.71489
22.0663 143.852 -0.466928
13.5989 97.155 2.69371
7.52242 94.4967 9.13829
15.1578 129.548 5.66119
15.9551 99.6755 3.91374
-3.65459 150.113 -1.95102
22.6914 143.35 0.0703328
5.23578 131.901 -0.952829
3.15289 141.323 4.173
14.3261 121.937 8.65594
-9.17982 128.998 9.17751
15.2009 111.101 10.7403
15.8902 82.228 12.8268
21.5486 132.147 6.78142
19.3659 120.927 6.55857
-13.3842 135.56 -1.55589
21.5487 96.6016 24.33
15.3145 124.09 2.09945
19.2771 125.506 6.48786
3.42318 128.487 -0.588976
-11.0637 131.599 10.4487
-14.8801 143.435 9.67642
10.8162 108.095 -1.04963
11.707 143.683 1.81573
12.5566 126.671 4.06382
1.59368 121.965 -2.7823
20.8441 114.039 13.3211
19.935 99.9921 8.13659
4.03315 99.5232 12.4832
15.6475 135.361 -2.21657
23.4661 126.435 -6.03399
19.3969 128.034 7.78935
7.34369 119.926 11.2712
8.08274 99.3081 9.6427
8.57777 98.4448 -1.40168
-1.34267 130.377 8.81098
18.2712 86.4971 23.1302
15.2111 130.381 4.79422
-7.57951 122.746 -1.89947
14.2682 113.483 14.016
-9.60836 133.18 10.3916
7.66158 137.62 6.30802
-12.7339 140.63 -1.9044
19.661 112.169 17.3497
17.793 84.1507 24.8342
19.2578 138.967 5.81353
19.6006 94.8558 25.5088
19.9451 133.621 -3.39333
20.3678 115.446 8.95231
11.3519 142.122 2.66693
16.941 85.2443 12.2949
14.8343 83.273 9.4714
14.6365 114.628 12.9538
7.81307 93.5168 8.71071
21.5502 94.5968 12.7861
23.0064 100.449 19.3183
7.54857 103.913 -3.09989
23.1986 133.511 4.97205
19.5581 112.953 5.36873
-3.9043 148.817 -2.0451
21.7307 123.114 0.847707
10.255 126.053 8.15567
14.959 121.985 6.56582
14.9283 83.8495 10.0225
12.0162 95.2555 2.2981
6.23114 123.173 -0.500619
16.8905 88.6466 20.7307
12.8976 97.6981 10.7244
1.59582 124.095 11.3241
21.1111 130.98 7.28893
8.00056 98.5168 -1.48414
13.0575 130.245 3.0574
7.21461 111.269 11.8042
3.44571 105.558 12.2384
23.496 130.946 -2.95407
-12.6587 142.127 10.6873
20.8983 116.085 13.2232
12.6329 115.136 16.2297
7.48255 103.238 11.5089
19.2128 128.164 4.93757
-7.02115 122.02 13.4227
23.5222 96.5116 20.0327
12.3782 97.0226 13.5008
9.35983 122.234 -1.7059
21.5675 106.737 15.9106
5.43089 121.57 11.2286
23.0179 96.0338 21.581
17.4655 123.191 5.63103
-7.0057 143.194 6.75828
5.81267 116.074 -2.92105
12.7075 123.024 -3.90157
15.6494 116.702 -1.69726
13.5881 81.7006 8.9737
22.2369 123.229 -4.68428
22.8885 91.3085 23.6727
13.8097 141.773 5.77245
10.1065 152.055 1.11545
6.1981 120.732 11.5668
7.00593 102.386 -2.81529
18.8599 135.096 -4.04039
15.2307 114.177 11.9353
16.2771 89.4388 16.8743
10.0513 121.728 7.52864
-11.314 148.797 -0.012724
14.9988 136.833 -2.12698
15.9392 127.534 1.25851
-10.7627 148.358 5.89003
14.7622 105.03 10.6537
8.99297 146.117 -5.44635
19.5438 110.995 9.94755
21.316 105.364 12.2149
4.5174 145.952 -3.42408
7.43128 134.317 8.48035
5.34034 141.221 3.96535
21.0049 101.621 22.809
16.9067 95.6272 21.0592
18.3381 81.8864 19.9143
23.1569 95.5174 17.3818
1.02799 104.637 12.3069
-5.19962 144.397 4.92232
15.456 81.156 10.8526
7.54992 136.147 6.72693
-5.7552 146.725 -3.54534
21.7349 125.004 -5.97052
13.7793 88.8062 15.6485
15.6014 136.357 -3.44989
24.7962 86.6678 20.1995
19.3109 91.8145 10.0394
17.9716 145.955 -0.610756
14.5089 127.058 -2.97621
14.1276 132.936 6.12718
-14.2301 135.502 0.0355871
14.9249 99.4194 21.4643
17.19 84.5474 12.0385
16.551 85.1934 14.4785
17.9417 90.149 9.50377
10.7294 96.1088 0.730341
13.5794 125.284 -4.5606
22.6266 101.46 19.8342
13.3964 145.071 3.98824
15.7463 122.967 11.1788
12.5033 125.099 8.38472
5.54589 116.409 12.5233
14.4506 87.4008 11.9743
14.2906 119.696 5.26998
12.1888 142.205 -5.24852
-14.2638 140.718 2.18486
10.9543 104.885 7.6798
21.6448 126.821 5.06362
4.91726 137.238 -2.52084
4.75114 132.929 -1.12201
17.9545 88.1888 22.1716
3.27309 112.565 -3.39158
21.1194 91.2477 25.0721
18.0482 106.308 3.07888
2.76 120.112 11.6377
0.434695 138.899 5.29851
11.4105 139.074 3.3139
15.7962 135.463 -3.27834
13.8536 110.349 18.3096
19.3873 126.984 5.73379
14.0219 123 -0.581623
17.4489 121.603 3.98756
23.1184 135.587 4.63561
8.90312 90.9579 9.07816
-16.1694 136.026 11.5862
14.9186 114.756 12.2716
-9.98333 127.89 9.12148
17.7383 87.7766 10.8197
15.0893 115.897 10.6961
14.0681 101.601 1.06818
24.3252 83.636 26.6601
6.75672 154.499 -0.818799
-8.55137 124.015 -2.29838
13.2127 137.543 2.08404
-3.59204 124.745 0.133036
7.07862 111.906 -2.22727
13.6554 91.9719 5.48339
14.6787 139.286 -4.21642
15.9044 137.151 6.8163
14.9951 95.8017 4.46602
24.3634 136.19 2.50496
14.7019 148.559 3.70356
-2.31763 119.483 12.9841
-13.4443 142.157 -0.594581
20.9401 115.511 13.8217
2.9533 154.618 -1.58269
15.7084 145.273 -0.107893
-16.1363 143.477 6.51741
20.9575 93.9244 12.045
23.3574 140.704 0.502664
18.2111 92.0041 23.3842
18.4969 90.9788 24.0879
15.1854 110.114 9.84289
3.43294 143.001 -2.10269
-5.71941 131.246 8.98934
8.00737 135.337 -4.44089
11.5435 89.4242 4.86332
12.8434 128.726 -2.54221
17.1759 84.6753 15.3728
2.04051 105.356 12.5654
24.7542 83.4301 26.0402
-7.64441 141.064 -4.38772
18.4092 137.928 6.66826
18.5289 125.146 6.42829
-9.04644 146.398 -4.02579
-12.5307 129.096 10.5366
21.2537 108.177 16.9875
23.4749 127.333 -5.25294
14.8893 87.4461 15.3025
10.8708 108.44 7.27593
12.7453 114.286 -1.29672
-2.18193 116.073 -2.10431
9.74088 88.8956 10.0399
22.4571 127.025 -4.80958
-8.36766 134.641 -5.06758
22.0808 126.02 4.22452
10.424 93.0112 9.36864
12.0635 123.058 13.1909
5.86885 135.144 7.89088
12.7422 85.8577 7.20484
24.427 136.173 2.38247
18.4682 123.002 8.82003
15.4211 147.33 4.36526
11.4844 120.549 5.17505
5.36465 105.143 -3.63134
14.2611 81.5028 12.2674
14.0521 107.633 15.4861
17.4092 98.4949 23.9318
-4.68324 151.977 -2.25432
18.6347 83.8707 20.3913
-8.22958 143.921 7.54094
13.8004 123.614 8.1308
21.9779 143.303 -0.796203
15.8051 129.578 -0.127764
18.7909 124.361 9.06293
15.3213 108.616 13.0991
14.1328 121.662 8.87026
17.6488 122.359 5.08216
14.7209 84.5603 9.45101
8.57015 135.254 7.63529
5.24959 117.684 12.4181
14.3148 105.795 19.0078
10.4379 124.529 -4.38988
17.9366 109.241 1.74512
15.453 123.711 1.60677
13.9683 100.254 10.9291
7.59103 131.565 9.29302
13.3469 132.888 -6.08796
14.4856 122.594 -1.33442
10.0073 91.1392 2.71267
2.83499 139.892 4.64665
1.4881 143.682 4.58174
16.2251 94.7981 19.473
17.8843 115.144 1.26444
-7.45423 131.86 9.58698
-11.0884 149.054 0.95916
9.77732 132.667 -4.50564
-17.3262 141.308 8.51422
12.347 123.652 -4.50252
-6.67468 141.879 6.75806
15.3048 109.216 12.0409
15.1614 111.365 9.77711
2.77735 138.937 5.30254
24.0123 136.235 -0.51542
19.4585 122.735 6.78955
13.7946 107.592 15.751
14.429 127.406 3.99185
23.5378 83.2065 19.0576
-12.5856 144.156 0.91209
22.1065 97.3509 13.5976
11.0319 123.618 5.84415
-3.24839 124.099 12.768
15.1746 112.473 12.2218
10.4629 139.09 -6.28259
-6.33976 121.408 -1.13325
23.1282 94.8933 16.9215
13.829 122.313 8.73273
-6.85569 144.44 6.32036
13.7722 134.926 -6.19083
-2.3626 109.516 12.6954
14.8625 121.181 -1.83983
13.2263 152.564 0.0122066
21.8671 104.599 13.2696
15 130.809 -2.06956
21.6921 97.3058 12.7487
24.5528 136.976 1.93864
-2.19595 149.44 -1.57286
14.647 139.641 -4.39336
-12.3691 147.542 5.94443
21.9867 100.448 21.9644
1.37888 138.729 -0.347745
18.5489 91.6204 24.8026
13.139 129.233 7.72927
19.3634 125.049 8.85891
12.2267 152.166 1.07633
13.5327 97.2472 18.3739
10.1454 97.2625 -0.36287
-7.29322 121.453 -1.62807
-1.85299 147.247 -1.33205
18.2261 127.49 7.99712
17.7576 108.117 21.0362
-6.0177 138.177 -3.37954
21.5192 98.5423 12.139
19.6411 116.883 11.2545
10.8379 143.474 -5.65854
13.6981 151.18 0.16381
10.2214 112.919 -3.15178
1.49718 131.88 0.105736
18.9699 121.248 0.765936
18.6466 141.346 -2.53756
1.13264 114.123 13.0588
-2.98049 113.857 13.2619
-15.3056 136.708 1.25156
7.98313 120.429 -0.730127
13.3636 108.981 19.1515
4.47548 117.261 -2.59428
14.5716 113.765 6.83871
3.61189 134.983 -0.626026
17.1779 125.012 6.85945
21.0375 132.007 7.66064
16.6514 84.8252 11.355
21.035 115.687 12.3479
-6.17134 131.337 -2.0206
13.6616 135.69 7.38622
19.2538 127.656 5.89731
-3.98493 112.984 13.5288
-4.56728 123.605 12.7303
15.3388 83.4608 10.6405
14.6923 99.2181 2.98495
2.84514 134.617 7.10444
4.73685 105.1 -3.37297
12.4562 132.881 -0.921482
-7.76367 117.401 13.7883
23.89 127.253 -1.16723
11.6851 93.5407 2.75346
16.7099 134.197 8.0677
11.9172 123.424 12.9444
20.0863 97.8249 9.25409
-8.36827 125.108 10.9087
0.818689 127.695 9.63645
-16.7602 142.49 6.62351
13.9385 125.916 2.64718
19.3745 145.082 -1.51507
15.5928 117.864 2.4516
15.2853 103.858 0.87251
-17.3641 140.615 10.1115
2.15872 143.291 4.47962
-11.8427 148.193 4.38318
7.37714 101.654 10.8809
24.3274 138.089 0.929623
14.6025 81.1722 12.6062
9.27777 117.972 9.64651
-1.37777 131.58 8.29315
24.3391 89.5295 23.0519
22.2488 99.5256 21.8139
14.0836 130.317 -3.24188
6.94992 140.918 5.4465
6.10883 142.342 3.73236
-3.37019 114.062 -1.32534
6.43762 96.615 9.99554
18.8956 126.401 6.53074
14.8734 126.396 12.0612
11.7416 101.179 -0.531644
-5.3775 133.571 8.06905
14.6613 130.237 0.840276
11.7458 125.461 5.05522
9.49691 139.341 -5.85769
21.0107 116.17 11.7953
-13.2292 141.137 10.6826
8.61499 138.335 -5.31441
5.97499 103.02 -2.75632
11.7861 96.7112 1.50034
19.4487 121.316 6.96859
10.6072 121.726 -1.5846
-7.27071 134.97 9.12781
17.5422 134.506 7.6397
16.3304 132.072 -0.738935
12.207 87.8066 10.2602
20.8782 122.995 1.67328
-12.3985 145.052 1.59902
8.14176 134.644 8.32778
22.5242 138.898 -0.817999
11.1893 99.9086 17.3504
6.04424 120.34 -1.24859
20.2056 135.042 -3.52355
22.5457 81.4911 18.5718
18.851 83.3576 17.7181
-2.83101 125.18 0.0782797
-3.79729 144.081 4.90372
18.695 114.256 3.50397
16.2724 132.886 8.07472
17.9638 129.72 7.05353
22.5055 129.082 -3.12199
11.5586 129.926 -0.724675
14.1193 134.316 2.28327
18.9104 99.4323 6.34928
7.17462 151.819 -3.52165
20.0005 98.6141 8.59773
21.7078 141.727 3.90325
6.07449 116.676 12.2297
8.98017 153.893 1.51562
14.158 128.252 -3.98891
-2.91954 142.648 5.35365
14.7389 113.893 7.20146
-12.9562 142.533 1.7464
21.233 107.716 11.8949
17.0357 121.616 9.4159
15.6926 149.201 3.32398
22.8624 94.2238 15.0643
1.1824 126.204 10.8231
-3.10189 128.249 10.5047
17.4804 125.665 -3.07142
12.5593 143.991 1.60277
22.3345 139.272 -1.3479
24.755 90.4876 20.3164
18.6766 84.8614 20.4825
11.1301 112.221 6.67497
22.8786 124.284 -5.29424
4.98124 135.597 -2.17178
12.8994 98.3627 13.0859
16.6348 110.176 19.9327
