ply
format ascii 1.0
comment Created by Open3D
element vertex 2026
property double x
property double y
property double z
end_header
9.04018 144.569 3.67808
-2.02405 109.2 12.2652
18.1462 84.6913 12.2756
13.5546 144.116 -4.05145
-1.17739 115.438 -2.68949
2.16716 137.477 5.88293
8.59089 139.13 3.26284
11.7489 137.859 2.1201
17.524 148.026 2.92398
9.22386 142.746 2.84973
13.4132 101.134 0.0506676
16.5883 130.823 8.64928
-13.8084 127.707 1.65628
1.59761 104.935 11.0497
18.8559 123.94 12.7407
16.347 131.143 -3.23364
4.83755 140.115 -2.6195
20.0934 118.552 1.60928
3.29934 115.591 11.438
28.8965 85.3456 14.8489
-6.96928 133.552 9.48278
-9.76228 145.259 -3.45462
18.7214 122.941 12.8183
19.7983 114.354 -0.216201
9.69959 150.646 -3.97527
21.1085 86.9718 9.27909
3.77656 119.81 10.8128
-8.83659 140.774 8.83054
21.8492 98.9744 4.62723
26.9716 106.532 12.6153
-17.706 133.061 2.30828
13.3798 118.415 -1.92171
-5.57533 116.656 -4.30774
-14.7472 127.991 -0.588024
8.93106 133.02 -3.44594
18.4737 148.989 -1.63101
6.92877 125.806 8.97472
-13.9361 126.904 9.46267
23.3335 130.023 2.79463
-12.4347 120.949 -4.85618
14.3686 137.873 -4.63432
-12.2439 144.595 5.13106
18.4111 139.353 -6.17214
18.5068 124.681 -7.01237
20.0962 129.06 -10.5895
18.5826 103.359 16.069
9.29944 152.053 -2.2634
-5.63027 131.743 8.39908
-2.30163 151.21 -1.57157
19.3038 145.797 -4.02061
15.1885 88.31 5.55873
19.7028 89.2371 17.8007
-1.84674 138.851 -1.02096
-8.81839 143.926 8.27554
13.9029 97.3601 3.11401
18.5623 127.928 -2.2684
-4.62643 111.416 12.3259
14.1286 149.829 2.43238
1.69556 106.322 10.9616
3.23171 103.26 -4.09746
23.8365 83.2039 16.2184
24.6249 108.817 15.3559
28.3647 128.009 -7.79176
21.105 143.169 -5.49757
24.0967 120.483 11.0706
9.6793 138.414 -5.00088
21.9299 145.491 -3.85038
23.8476 118.221 6.81594
16.4493 136.664 -4.34546
11.3322 112.597 7.70177
1.81441 141.254 -0.539315
21.7359 144.023 -5.1302
12.2997 138.509 1.30236
11.5094 94.3687 11.2232
23.1145 104.967 3.96808
1.08816 106.889 -4.70677
7.77697 135.839 7.0894
5.94596 146.561 -3.66728
13.4094 132.044 4.31456
26.433 103.338 9.0821
-11.4806 129.001 -4.85714
26.4801 113.373 8.83533
20.8597 118.388 1.99544
-0.392048 131.583 6.62796
15.9733 138.938 -4.07709
23.3529 133.132 -8.47703
-3.43404 147.36 -2.08814
9.56755 112.932 1.14288
-3.95095 117.942 -2.49947
2.46403 103.949 -4.70404
18.0192 131.016 9.54903
28.0127 96.549 11.284
15.9595 143.259 -1.49732
17.8514 144.763 -3.76646
9.13949 138.838 3.11997
7.46895 109.661 10.6968
16.4133 133.518 8.48946
-9.77009 124.129 8.0386
-8.4263 150.05 3.22559
11.8978 115.818 6.48845
-12.0725 146.391 3.60221
24.8637 139.649 -4.01683
20.7383 103.518 1.37105
26.8707 133.648 -8.24571
-11.2068 142.875 -1.96988
17.1555 143.025 5.84296
-7.09327 123.473 9.39757
-5.85262 128.233 8.08661
6.65264 127.112 8.65354
16.464 98.7107 15.4871
15.3476 88.594 5.73409
17.6965 112.583 -1.00891
27.2256 124.879 2.2588
24.4806 111.244 4.85011
16.3831 139.874 4.43075
20.889 125.007 12.0406
16.6079 141.151 4.016
-12.167 122.109 9.85215
15.6991 107.075 5.36632
24.824 91.0699 9.68784
10.9978 143.794 -5.42987
19.3481 103.27 16.702
18.7516 123.303 -7.99286
12.1382 142.957 -4.98358
14.905 105.884 1.04155
-6.39415 138.689 -5.07805
18.9771 114.616 7.7934
-10.7814 123.714 -4.3207
-4.62377 133.78 -2.67816
19.8702 130.199 8.70663
-14.5027 126.805 -0.161854
23.1684 122.059 11.6132
3.89307 105.862 -4.23176
14.6129 121.55 3.52819
11.7634 94.2269 9.80243
11.9995 93.0561 7.74726
21.0565 116.987 4.6058
26.7084 123.657 0.203729
-10.4861 137.842 10.4582
19.8042 92.1511 17.2733
17.2596 140.245 6.04277
9.05636 151.875 1.72506
19.3861 110.451 10.0377
1.54867 123.237 10.8055
15.2071 147.635 3.72823
21.0012 121.894 -4.53102
5.05819 117.646 11.1342
22.2696 144.976 -1.87954
17.8657 146.614 -2.38145
24.9998 101.577 8.28396
24.597 133.665 -8.54717
22.0752 82.5866 11.5377
-11.9856 121.518 -5.24231
22.6428 105.353 3.0541
27.0396 102.798 9.58361
4.42489 134.811 6.66397
26.1463 83.1846 13.9473
-10.6103 126.443 -5.59287
-10.4967 119.954 9.40812
-13.8032 124.954 0.65777
20.3025 125.18 -8.8947
25.7928 104.057 8.51247
17.4733 85.7335 13.669
21.5431 124.579 2.76157
-18.8625 129.987 9.5956
18.3544 104.315 0.551278
11.9162 150.815 -1.08741
5.7648 125.677 8.42128
6.93371 108.27 10.6296
1.66475 133.127 0.433711
-18.9861 129.078 7.70279
25.4357 108.875 6.82084
-8.00687 148.949 3.88864
15.5404 136.977 -4.86732
27.9652 131.089 -7.77095
1.7415 123.621 -0.779131
20.4039 83.0017 14.2967
15.9726 98.6576 7.13071
19.1525 129.107 1.03203
18.2312 127.005 -2.46546
3.62794 108.814 10.6674
22.4743 103.729 2.91001
8.24316 132.645 7.93563
-1.17624 108.235 11.8321
14.8089 151.792 -0.292422
4.40673 110.19 10.5163
9.25217 152.433 -1.88759
4.23336 130.909 0.520578
15.383 137.842 -2.65455
6.95878 135.81 -3.53532
19.529 93.925 16.6683
25.22 129.15 -11.2855
22.685 115.841 7.1233
15.6437 133.03 -2.71779
6.16886 131.409 8.12892
17.7368 105.598 14.9304
12.6827 105.707 1.06777
11.9338 152.907 0.993834
15.9753 97.6887 8.82664
-8.41886 149.314 -2.61128
6.81369 119.443 10.1401
0.819162 114.611 10.9044
13.7039 128.941 2.79041
7.51777 141.115 2.28338
1.99309 121.122 11.1375
2.87669 116.104 -2.99198
-11.7241 128.423 -3.50551
8.44996 119.92 10.1955
5.97311 140.87 3.71607
16.8492 87.2468 6.81437
21.1296 132.882 4.38163
2.52802 119.667 -2.01844
13.4812 111.015 1.40278
16.2194 135.925 6.5992
18.7593 142.745 2.37261
6.01534 126.739 0.931084
19.1495 96.2407 17.2722
16.9607 129.397 -4.67387
3.73574 129.555 0.385778
-15.2166 129.97 9.53476
18.9874 106.847 10.9364
25.5858 96.7536 17.5332
23.8672 118.723 7.14187
12.7277 141.863 -5.09745
16.8489 89.3128 11.7229
7.87926 131.532 8.38824
13.0748 139.552 -5.42602
11.9736 137.614 -6.34228
27.7293 97.9185 14.252
-6.52033 139.844 6.46676
10.6386 126.276 8.37918
25.7431 108.996 14.0204
16.4507 129.71 -3.59205
11.6663 151.262 -0.899425
-12.6369 122.339 8.0299
-10.4936 147.186 -1.88196
17.7168 126.695 4.91421
2.09058 135.163 0.481735
22.5225 123.183 11.8555
17.8019 127.367 -6.18158
23.2746 121.198 -1.71299
-7.52122 123.237 9.71937
1.62686 139.692 -0.28794
22.6475 128.813 3.13106
-1.87337 131.172 6.9051
21.723 128.295 6.17552
-2.7019 140.674 4.63937
16.4963 138.811 5.27589
20.0487 108.939 -0.0843769
-8.36471 120.107 -4.24967
17.974 98.6393 3.95625
10.1573 118.802 9.50915
24.9242 91.2888 9.71374
20.0251 88.0051 17.5579
17.7508 130.875 -8.28897
27.6083 83.2957 17.4533
0.544023 134.4 6.77981
-4.11921 127.799 9.17192
24.1177 113.013 14.2062
-4.22427 119.596 -2.68062
17.1186 105.837 13.5129
18.8685 84.3834 14.8412
20.2866 97.3588 4.93026
-8.11975 150.591 2.63596
10.3768 144.174 1.43047
24.5558 91.018 9.48929
12.9149 90.7707 6.47623
6.43612 118.18 10.6047
-10.9836 122.136 -4.61364
9.30448 141.543 1.61896
27.358 105.517 12.0668
2.9876 115.398 -3.18032
13.7287 122.993 -3.96017
25.1643 137.28 -5.45327
14.6829 117.272 -2.99056
8.00831 142.682 -4.58824
12.6245 118.285 -1.29034
-9.02384 129.358 -6.12592
13.7226 128.731 -5.21823
-14.0489 126.538 1.05492
-18.0444 130.425 2.60362
11.5974 126.781 5.95954
-12.2731 123.044 10.8413
22.1888 125.712 3.02967
27.8223 128.201 -5.21448
-13.1401 123.172 1.74236
25.2446 112.541 13.2161
13.513 145.278 -1.61052
-5.69235 147.418 -3.69011
11.9264 92.9949 7.63491
-12.499 121.611 8.33466
18.3226 133.925 -3.3515
27.1147 102.966 14.069
-10.2637 130.621 9.04192
12.3316 107.664 7.95413
23.5906 99.6104 5.26049
27.4546 81.3022 15.2409
-14.2749 135.612 11.2998
-7.66455 118.879 11.5053
16.2844 123.481 -3.10453
5.36047 122.558 9.59695
9.0943 107.141 10.2074
20.4275 137.828 2.43231
20.5933 122.428 13.338
-7.89449 144.639 6.20337
-11.5041 136.554 -2.70666
19.1651 117.238 9.27358
19.9837 86.8444 8.76819
-11.758 132.026 -0.793004
-16.3585 138.238 5.67354
-16.2942 137.693 5.03671
23.0542 135.22 -7.71365
0.848165 136.276 6.20514
26.5545 129.173 -8.85629
0.592674 118.617 -2.42364
24.5179 121.534 3.15559
-5.55122 115.703 12.704
16.2938 98.3118 8.57434
27.2483 133.422 -7.81935
18.5888 125.984 0.96846
16.4044 134.965 -6.94606
-6.523 123.692 -3.97304
23.9778 139.592 -4.62649
-7.14424 133.144 9.69002
22.3706 117.661 14.3258
2.18286 131.533 0.317846
23.597 134.655 -0.217269
8.7103 98.8485 10.0406
11.6286 110.006 8.63936
8.95054 123.193 0.592317
-17.371 134.53 6.24378
1.45316 120.252 -2.09256
16.4016 136.402 7.19481
4.4703 121.483 10.3181
23.5948 126.047 -12.4939
-2.11554 130.107 7.53506
25.0148 110.19 5.84536
7.27486 116.716 0.924529
18.4612 125.685 -0.691753
23.1206 117.427 13.6928
11.3213 102.638 8.08424
4.12688 114.885 -1.88834
-7.16355 144.082 -4.56236
-10.7123 149.509 1.00043
18.3471 98.0817 4.23007
15.0738 137.075 -4.90501
14.5487 98.085 14.0869
10.3408 95.5685 1.30972
28.6155 88.49 14.6369
19.5078 138.728 4.55977
21.5197 114.579 3.55508
-7.98659 147.575 -3.60514
-16.3175 138.189 6.28137
-4.36992 121.595 -3.3477
12.4342 106.856 1.19355
5.52611 107.432 10.5328
19.7634 118.411 14.4938
-10.0086 130.118 9.32915
24.7893 107.078 15.7919
20.9501 127.797 7.74693
17.8197 136.738 -7.53204
21.9527 89.8981 18.6569
10.1203 151.921 -1.41729
-11.3883 143.422 2.50527
24.8984 134.749 -2.99702
20.5014 83.3812 15.4503
21.7731 110.975 2.7369
4.70306 111.092 -3.34352
-16.5638 127.259 10.232
18.2739 105.974 0.503766
16.1986 108.558 5.31148
-13.3385 129.675 0.047647
25.0439 124.024 4.03872
22.8875 93.2568 7.52955
1.96888 131.849 7.00715
2.12697 151.271 -2.64041
12.7856 93.4461 3.15796
26.2613 83.358 16.9992
-12.5531 144.257 5.01236
17.3324 131.994 -7.70305
3.34285 105.929 10.7125
16.6715 131.813 8.94521
-17.5692 134.244 6.05478
-4.20445 112.826 -3.22697
23.08 137.296 -0.589804
27.9761 131.8 -8.07435
11.3185 139.26 1.64205
22.3987 121.692 12.9081
15.9238 93.472 11.7606
24.4308 114.252 6.21557
18.9302 147.835 1.27685
-13.8454 122.053 9.83049
-17.569 134.169 9.87745
-11.5548 140.71 -2.02053
16.4899 122.796 -1.45266
-1.24104 142.138 4.68613
22.4212 87.1396 10.4261
24.461 109.767 15.1609
-8.77182 149.128 -2.48244
-17.8679 131.408 6.45822
-13.9204 123.929 1.32042
18.5595 121.641 10.4632
-5.66499 125.751 -2.95582
2.8486 138.47 -0.347319
-9.51895 127.209 -5.54445
22.6894 82.0686 12.3326
11.26 140.136 -5.90516
27.2363 79.7764 16.2449
28.4864 86.0341 16.8242
11.1513 147.792 -3.81141
21.7726 88.4615 18.1582
7.63613 130.795 -2.46124
-0.577292 116.467 11.3663
13.4511 142.393 -4.72103
27.1817 134.048 -7.13457
7.93032 127.158 -0.318532
-18.0545 131.878 5.65654
-12.909 133.898 10.824
18.2768 92.5577 6.01462
3.50793 112.739 -3.45835
-4.63871 125.555 10.3739
22.3664 102.598 17.3753
-17.8562 132.734 1.36359
-18.1158 131.669 9.48529
-4.64692 118.487 -3.21042
17.1616 87.6018 12.2992
-16.4688 129.685 9.62664
27.2728 125.533 -7.44023
17.5622 115.363 -2.0526
16.6341 144.617 4.16135
-8.1636 118.083 -5.05838
20.9761 146.971 -3.32092
14.7688 125.526 2.84475
0.937346 153.423 -2.21694
23.7522 137.482 -7.4205
6.35426 125.512 1.02012
15.2397 95.2999 13.0203
-8.76832 151.335 1.48245
23.7388 139.873 -2.33367
-2.24175 117.749 11.2067
2.33258 109.502 10.7767
4.1548 138.831 5.86236
4.88447 121.817 0.0985116
14.3548 96.3018 13.5111
-7.79306 151.584 -1.16298
19.8079 93.0788 6.92447
1.31814 138.048 0.0296877
8.47752 140.053 2.45828
16.7518 97.873 16.1987
12.6956 107.107 1.25036
5.66815 125.654 8.37604
2.8805 139.68 5.33314
-4.45712 151.003 -2.19895
11.4264 124.742 -3.61625
16.3086 126.788 3.32781
22.8236 132.983 -8.43694
-13.2547 143.266 4.49749
27.6816 126.542 -4.90772
-11.3816 127.49 -6.01756
-6.35211 120.962 11.9137
-1.75752 109.545 12.1575
26.6605 122.524 -0.874956
25.5199 106.098 15.4276
-9.74696 130.332 -6.25296
-7.66694 132.486 -5.59632
14.9761 96.365 6.80477
-14.5118 124.206 -2.22921
25.9578 83.9758 13.4143
25.3265 134.583 -8.57228
18.3909 125.655 -9.39061
3.62195 141.778 4.56192
-9.88486 118.179 -5.48096
5.37154 112.09 -1.85511
13.1487 93.4463 7.09429
13.2309 91.6198 6.46964
19.6727 92.6326 16.4748
3.90044 135.056 0.013947
20.4818 115.112 3.28516
22.9472 144.441 -3.76801
28.3915 92.8415 13.3739
7.16657 149.328 -3.82697
12.1726 104.604 8.39327
25.117 128.636 3.90606
25.6712 128.367 3.40607
6.20528 113.981 11.233
11.6396 123.829 5.76295
22.5905 101.78 17.3313
15.0301 145.869 4.91967
21.1654 108.581 16.5054
13.2037 102.107 0.334755
-14.0578 123.95 -1.89971
-15.1427 139.519 3.72806
26.3521 94.7711 17.2708
24.9783 84.7143 17.1362
-18.2981 133.789 6.715
12.8092 112.251 5.20963
-0.477184 126.507 9.4324
16.2483 136.459 -4.59758
6.11103 119.646 0.440206
25.5179 110.865 7.49033
10.2148 144.56 1.72889
-9.43782 146.004 -3.78609
23.3146 83.2996 16.2171
12.3782 114.995 5.36509
28.396 88.1627 13.5189
-12.2172 136.911 -0.0816651
25.8893 104.918 8.39921
27.9488 82.1017 15.2098
15.6263 149.267 -0.916727
-6.79371 133.517 9.20831
-2.41781 143.121 -1.49793
16.9418 123.45 -1.48497
23.2608 142.741 -4.61822
8.34076 135.836 6.88351
22.1337 124.769 -10.7703
10.9948 123.798 -2.90638
22.6664 122.81 12.3353
11.5371 119.35 6.87537
-1.34364 153.945 -1.93132
16.1339 129.157 2.69579
-13.7617 127.123 1.83368
4.93347 127.823 8.01115
-14.4893 136.608 1.36348
27.1779 106.8 11.198
-18.0814 132.576 1.87819
17.4545 134.675 -2.25841
15.5755 99.6585 14.5108
0.253645 130.242 7.85208
3.61938 113.143 10.8079
-13.0502 132.161 1.08996
11.9449 114.38 6.34913
-12.0761 127.852 11.0149
5.36397 119.338 -0.22398
18.1122 148.728 2.10285
20.5621 124.589 -3.49021
16.3664 145.246 -1.4842
27.2114 133.708 -7.05364
-2.79892 123.649 11.5606
18.1049 142.008 5.48809
-5.70332 119.062 -4.40959
12.4005 102.494 6.30379
18.5658 110.432 7.09473
26.1946 111.575 8.37021
22.8358 135.932 0.295763
-13.8351 128.978 1.22125
-13.2499 123.52 9.08369
-5.26885 149.84 -2.87068
21.2143 82.493 13.2996
13.5632 134.117 2.59572
7.41822 128.779 8.77268
24.4169 132.483 -9.38597
17.0615 88.4967 6.93021
12.6551 99.0109 0.78968
6.25622 134.841 7.07675
16.1951 98.0184 7.7632
5.1151 104.754 10.5794
19.3563 109.711 11.8305
9.29036 133.367 7.78977
-8.44853 133.181 -6.23518
15.8315 130.77 2.20031
2.62749 107.136 -4.08608
14.8586 140.601 -3.34111
26.5817 129.263 -1.07348
23.8016 137.442 -2.02223
-12.2468 142.681 0.495157
13.8656 91.9053 11.8711
-5.74722 144.774 4.12171
19.7147 114.257 1.03435
14.167 144.276 -1.60105
21.491 119.45 14.0055
21.8325 134.845 3.08221
10.8776 135.28 -4.868
0.605273 106.053 -4.86166
14.6533 97.6973 9.99139
21.1669 83.0248 10.7356
22.1351 114.891 14.9815
-11.6828 138.854 10.5877
4.29853 123.59 -0.165226
5.29598 122.656 9.59917
18.2806 118.328 13.3127
10.4407 97.8405 0.927775
23.2722 123.697 7.70583
-13.257 130.991 1.08143
-5.96305 115.993 -4.80686
7.14013 104.748 -3.1591
15.6351 135.189 -4.64875
14.517 94.1673 12.7321
1.98806 138.137 -0.0388302
14.7824 115.528 4.44393
12.4256 145.878 -4.43815
-0.952438 118.606 11.1875
16.6082 97.6937 15.7747
12.4866 133.557 3.52775
26.1428 130.025 1.13203
27.5656 132.064 -7.11439
19.936 124.954 2.36968
27.2981 97.6413 15.505
19.0029 112.747 15.5953
0.0347004 129.258 9.08477
-13.7483 144.159 6.41025
-13.4777 121.798 7.96971
19.6713 127.418 9.77386
-0.534337 142.457 4.48985
11.999 138.899 3.51915
-13.635 123.708 8.17033
4.89632 119.018 -0.649059
-2.09181 116.175 -2.06154
21.3754 123.836 -2.49433
16.4125 104.384 14.6494
-2.96465 111.962 11.8778
5.69246 118.387 10.6153
-7.71771 130.442 -5.24458
6.01746 124.952 0.922813
-8.15692 143.311 7.93645
23.1793 127.933 2.33476
16.1572 97.3483 14.7568
-7.87911 148.602 -3.36578
-15.4801 138.549 9.6055
14.0701 110.258 1.36145
-0.878312 118.425 -1.89706
17.87 103.966 7.1285
0.605098 128.026 9.63627
16.9113 101.638 1.21535
-13.5672 129.072 0.279098
-5.02122 139.712 5.10387
17.0113 129.453 -3.17459
10.2205 140.88 2.72741
20.8526 99.7754 17.4209
25.2519 133.576 -1.37189
-10.5087 135.536 -3.89727
26.0332 123.446 1.10866
-12.5456 135.193 0.708199
19.3451 118.94 1.41898
5.47273 120.262 0.131052
0.0664902 134.75 -0.124452
-0.181642 149.504 -1.71806
27.7461 83.8552 14.5114
23.4316 98.8003 18.3773
-3.72105 134.214 6.00264
7.87674 125.5 9.44795
21.5822 126.138 -11.1466
5.69208 128.524 0.985524
16.6946 103.667 11.1422
13.7538 138.301 -5.21015
-1.01322 118.717 11.153
18.8876 120.929 13.4515
-15.7986 139.452 4.9928
-0.139842 111.904 11.2684
15.7301 111.51 -0.372642
19.2792 122.114 -0.0175281
-3.89909 120.226 12.283
-3.90279 147.471 -2.36865
-10.9455 147.819 -0.789058
19.7238 85.2456 16.4878
-5.65909 126.215 8.00599
21.6775 139.636 0.193087
12.3078 131.252 -4.97782
1.89226 135.254 0.46754
-17.9652 132.025 10.7405
-11.056 148.199 3.58129
20.8428 113.781 15.9182
10.4586 141.149 1.93169
-13.2117 125.701 1.12062
14.1343 96.4036 10.2081
12.9831 92.7753 3.31655
27.4604 129.01 -8.53608
9.76223 103.498 -1.29495
20.0749 129.852 -10.1854
17.1642 87.3641 13.086
5.71036 135.704 6.85929
8.29811 130.948 8.43171
16.1667 142.982 -1.90991
-0.637945 135.966 -0.3302
12.5969 133.654 -5.16826
21.7029 139.6 -7.26253
16.1165 88.6681 6.28798
14.7667 91.9822 5.01576
15.8811 106.751 1.11042
8.64534 102.435 10.9281
18.4822 127.895 -0.851805
3.43151 122.482 -1.09412
6.51067 140.288 3.81111
26.6399 82.0928 16.3392
11.4926 99.257 7.10368
27.716 101.5 12.0687
18.8807 141.447 -5.37083
26.0844 112.794 8.26268
14.1361 102.69 0.527284
23.6702 126.274 3.9102
26.6776 131.34 -10.2227
28.8349 82.2703 16.4624
12.7823 103.205 0.574178
-10.5935 135.97 -3.84542
15.485 97.1314 13.7524
12.7683 152.37 0.70816
15.9929 97.1583 4.10366
25.9076 114.117 8.15138
14.1766 89.9305 10.7445
5.81787 145.068 -3.73325
14.557 140.051 -2.305
-13.7546 141.916 3.34677
-13.2425 132.407 1.36575
1.23679 106.704 11.0336
-8.56829 127.64 -4.75197
0.759029 115.923 -3.42637
13.5583 131.903 2.93064
-9.03255 125.925 9.2299
20.5286 128.614 1.78833
-6.20972 124.069 -4.07449
25.0217 108.847 15.0516
0.61086 132.503 -0.122141
10.8968 147.591 -4.69935
22.4413 128.528 5.17556
24.1814 124.024 0.762846
9.27773 104.583 -1.16579
-0.0330666 123.621 11.2457
12.1708 106.751 1.04341
-11.0084 147.32 -0.972591
13.3636 104.63 6.65228
11.5658 127.911 -4.29752
18.8759 120.8 9.53872
-2.75037 150.478 -1.68989
21.0439 94.0777 6.72889
18.9939 126.852 -10.5317
22.0523 125.903 9.68052
23.7048 141.968 -2.23693
18.8123 88.5372 7.51711
13.7044 104.91 5.84059
9.02681 95.365 9.69297
16.425 127.527 -4.26957
10.1055 108.462 10.0997
14.8437 149.6 2.46721
11.0864 144.95 -5.27306
21.6778 87.557 17.7163
13.1179 105.143 7.07248
-6.19304 125.936 -3.44872
-7.05272 146.119 4.72974
17.8793 102.551 7.7158
19.6524 131.018 0.387346
12.3323 104.041 0.527093
12.3144 101.835 6.50355
-11.7054 143.243 1.20885
-6.69532 128.572 7.69368
-7.99462 143.87 6.9182
26.9234 100.875 9.81692
11.0078 143.878 -5.40156
12.9878 141.487 1.2525
18.4545 132.019 9.29681
17.1517 88.5127 12.4059
23.4062 125.456 6.58471
26.6467 125.488 -4.25649
-2.68513 154.234 -1.8087
11.0147 140.466 2.91973
17.0887 133.701 -1.90268
-12.5424 138.814 10.6185
7.30335 122.312 9.47492
5.53039 136.677 -2.19272
24.665 139.889 -3.48387
10.5774 98.2225 0.766403
24.395 107.564 15.9321
18.6305 105.46 9.44635
13.8874 100.973 12.4892
22.8467 122.365 -5.61916
-11.576 126.227 11.5386
25.0894 130.943 -10.5894
28.0739 94.1687 14.5736
12.6656 111.193 5.51874
5.12915 114.327 11.2522
24.5108 82.7361 13.3984
26.9355 132.06 -9.49865
26.7408 110.158 10.5036
-13.18 121.716 3.67474
-6.46247 114.693 -4.98745
-9.92392 126.151 9.99598
-3.7911 134.308 5.97481
12.9249 110.212 5.34441
5.8755 133.228 -0.853486
16.4295 132.41 8.02476
28.711 88.5535 13.7042
28.1962 92.0649 15.1009
15.6349 122.717 3.68845
18.3863 125.835 9.27421
16.6532 115.242 -2.65458
10.8126 131.38 6.86673
14.8247 151.227 1.08818
24.2694 122.061 -0.748982
13.7571 143.186 -3.55019
12.8857 129.799 4.97563
10.6604 136.374 5.19237
21.8775 107.221 2.06084
19.5778 138.597 -7.45904
19.8992 124.724 -1.39449
0.141578 111.533 11.1441
-9.91828 121.355 -4.41979
25.8902 106 7.73915
19.1039 126.935 -10.6105
13.6081 97.5864 10.4406
12.0456 98.996 6.73257
-13.6781 134.716 11.5754
14.5933 100.671 6.74164
26.0169 130.673 -0.134109
3.53814 132.137 0.577265
-13.5971 125.986 1.57426
17.1356 121.125 4.61627
4.14955 150.717 -2.99827
24.0881 98.4629 6.31574
18.896 121.248 9.17866
10.2952 141.754 2.44257
17.48 143.295 4.20696
0.916813 108.28 -4.75138
21.3025 129.815 -10.6799
-0.568206 136.667 -0.266697
24.0895 121.71 -2.76732
20.668 95.9287 18.4773
-1.6345 150.5 -1.34949
18.8245 120.929 13.3956
16.0529 133.08 -6.00622
11.3576 139.354 2.30916
22.9862 142.169 -0.879991
-11.6008 136.425 11.0197
16.9055 144.188 -3.57209
16.5324 123.011 4.11025
6.25347 113.435 -0.428201
17.6996 129.38 5.12042
-8.62542 138.795 -4.88246
-14.3816 123.022 1.45888
27.8634 87.9106 13.2775
20.9978 125.036 11.9373
13.1133 91.4964 8.30738
23.1528 105.416 17.0318
16.9183 139.708 6.00141
24.4432 124.018 0.469752
-8.2425 122.82 10.2119
10.0306 95.7599 8.40548
24.461 101.942 6.39029
22.8284 121.437 -2.50187
2.72919 121.368 11.1622
14.2089 125.929 -4.83764
19.6763 130.472 0.720152
23.6406 117.593 13.1365
-6.42101 143.704 -4.40457
18.2671 94.6571 15.5819
10.0688 123.212 9.05921
24.7763 117.751 8.86661
13.8313 98.449 1.65435
-5.18521 124.827 10.5111
14.412 125.11 3.01074
-13.013 129.631 -1.7244
5.24168 106.053 -4.22728
10.951 118.525 8.66419
21.3012 103.39 1.82724
-14.3097 143.38 6.03836
-16.801 134.113 3.95689
17.2769 127.463 -2.60626
4.30187 133.181 0.371118
0.496481 107.239 -4.94495
28.7301 87.6111 14.5781
21.6638 129.934 5.61494
-11.6933 143.455 -0.52029
3.20764 139.648 -0.899191
16.2218 137.764 -6.25649
1.4675 110.855 10.8675
13.5502 142.247 -2.32569
22.2512 143.039 -5.30336
7.80159 99.4445 -1.88713
-13.9404 131.184 0.380535
-11.351 143.005 2.06506
12.9255 149.58 2.8547
1.57186 107.293 11.0075
13.2008 149.759 2.66543
19.857 109.213 16.6883
8.71829 127.211 -1.80223
11.7263 121.778 -2.53531
16.3154 118.515 4.27931
21.3414 133.366 3.80089
2.29391 111.284 -3.66967
-13.7143 126.263 9.59367
21.7738 129.497 4.71559
15.8281 133.287 1.91527
-16.9287 125.786 11.1299
21.1597 125.183 11.712
-13.8621 130.28 9.28547
15.8314 138.227 -3.94798
9.22581 143.317 3.5308
-5.90043 127.132 8.1658
15.8786 131.651 2.04562
-2.70322 152.901 -1.60838
21.1587 108.117 1.01438
14.1024 142.821 -1.97513
7.68342 109.336 -0.493198
12.1918 95.7052 2.67938
-4.4085 144.389 -3.11886
15.7176 109.414 0.884435
5.26321 123.117 9.45872
14.0949 94.1625 9.41505
-7.98807 134.494 9.68482
15.3754 116.248 -3.06473
-5.93356 121.742 12.2965
18.4573 123.578 12.2852
1.35268 109.098 -4.36499
1.5349 138.258 5.71033
7.23934 116.904 0.87396
-7.81196 124.286 8.40975
-12.0577 133.008 10.2888
18.7373 126.94 11.9828
15.7411 131.275 -4.5893
5.75176 111.164 -1.92025
28.0796 93.7886 14.7334
17.2091 128.39 -5.33192
-2.89619 110.354 -3.57347
19.7894 136.643 4.52463
22.2294 123.469 12.2052
5.68047 116.487 11.5318
25.1249 115.487 8.85718
20.4085 118.287 14.6899
15.9581 104.439 13.8644
20.4386 109.118 0.280141
2.49607 126.543 9.9402
-13.6381 124.965 0.997848
-4.15695 136.059 -2.81513
-1.87489 132.04 -0.880903
1.94733 140.368 5.1234
9.78662 140.374 1.87206
14.8627 139.965 -4.55978
13.5927 119.246 4.40579
21.8417 111.2 2.92286
16.4914 132.237 2.72602
20.6486 136.898 2.56413
-9.02648 118.327 11.2653
22.1675 85.495 17.2492
-12.6386 140.706 -0.844863
-12.8451 143.232 4.0154
15.0292 127.738 -4.76557
-1.3154 118.979 -1.63698
23.9635 123.643 5.3269
-13.3227 128.493 -0.353355
24.4339 113.619 6.04612
27.3501 128.127 -3.20616
-3.27229 141.685 -2.18454
13.4685 112.864 5.17399
-6.71061 144.628 5.00437
27.669 132.853 -7.79668
-13.6112 123.562 8.7817
18.9368 96.6473 5.03325
24.2321 105.652 6.70095
-16.0372 125.49 1.07414
-13.2957 130.011 1.19244
17.4657 95.4096 15.0784
8.92815 101.572 10.3106
5.66663 129.081 0.882005
18.4994 128.811 -9.43114
10.2069 108.305 10.0326
3.48523 125.603 -0.686511
19.8278 116.968 14.9601
-1.8182 113.555 -2.70827
-2.67683 110.097 -3.66917
13.5886 100.051 12.9009
-11.4219 121.475 -5.15005
25.7338 132.089 -2.80488
-13.6813 128.356 1.61628
13.6057 131.416 2.34758
12.4663 112.639 5.51213
19.1105 90.6567 6.51893
18.0082 95.3836 5.5246
-8.21426 123.769 9.02452
23.7475 122.87 2.87438
2.74979 137.223 0.113834
13.7503 129.258 -5.20454
20.2334 126.395 3.25192
8.42071 114.385 1.08841
18.6774 118.805 13.5049
-11.8413 124.665 10.1357
-11.0793 124.3 8.76097
22.4636 124.581 -12.3943
18.2126 104.862 8.56066
-14.7534 140.894 8.7815
8.91736 149.229 -4.75611
4.89547 142.349 3.26584
-7.33448 148.378 -3.46595
18.4319 124.753 -8.60225
16.5366 136.724 3.9279
19.837 115.256 2.79786
-14.8429 125.45 -0.0666635
-16.5242 137.891 7.57206
17.7557 129.835 10.4369
18.4515 112.641 -1.07404
23.8992 102.982 16.8918
5.23229 114.276 -0.989189
-8.41756 148.095 -3.38292
22.7184 128.976 4.23302
1.89601 130.602 7.18973
25.2389 108.708 6.17805
-1.421 141.08 -0.95822
15.4791 141.513 3.79437
19.1303 116.491 10.0217
-1.20939 121.688 10.9732
18.0995 137.854 -6.97418
18.1868 122.309 6.05312
19.6793 129.996 1.05235
-6.20343 132.884 8.2377
-18.1039 128.348 0.170431
7.04519 108.859 10.6865
-8.21646 127.896 9.09054
10.5648 143.281 1.45147
21.1156 118.073 14.5831
2.43102 105.622 -4.40364
-1.25827 115.081 -2.71337
15.6866 119.236 -3.27792
16.6347 133.806 -4.27237
24.6473 87.7879 10.8725
14.3524 140.467 -4.94142
14.3548 133.623 -5.60534
-10.039 142.055 -3.3371
-1.13767 148.041 -1.22167
-9.39337 142.056 9.55206
24.8395 124.003 1.64392
7.6762 105.841 10.0037
22.4052 131.809 -9.20457
-12.1623 122.909 9.7037
22.1396 128.872 2.92408
-11.4236 139.525 -1.99903
-12.399 132.97 10.1544
18.6939 118.531 10.6271
25.7622 96.2354 9.88962
20.5226 145.392 1.21534
17.6858 119.831 5.2475
11.4197 101.735 7.15169
12.4574 130.843 -5.11849
6.22041 152.9 -2.899
16.0374 124.198 -2.73518
-12.1529 145.61 4.95957
-4.82549 136.422 -3.37127
19.8901 104.084 0.607243
0.977309 107.527 -4.77156
23.0217 129.015 3.03509
4.08638 110.377 -3.4731
0.0181039 114.587 10.9604
-4.65326 152.161 -2.15469
28.8508 81.9529 16.203
27.048 130.523 -4.81521
21.9773 126.708 -11.6599
13.004 95.1878 7.34643
16.7813 101.217 15.5911
14.7759 140.775 -2.44736
25.4227 116.944 10.8172
-9.6447 142.524 -3.70653
-3.59352 135.916 -2.31971
25.0254 131.811 2.08454
20.7073 113.681 0.983894
-5.81199 140.202 5.70608
16.3051 106.332 1.06718
10.8857 116.639 0.0755614
11.5811 94.778 11.0159
-2.28287 110.427 -3.65445
-1.59374 144.637 -1.18242
13.6305 98.7897 10.8973
6.88939 109.294 -1.76519
24.8316 80.867 14.0374
28.4393 128.203 -8.18415
19.0269 111.377 12.1563
26.4013 125.791 1.98258
20.1706 133.796 5.62628
-7.09047 122.127 -3.71239
0.0261448 132.666 6.82409
-10.6987 133.373 -2.80893
4.01162 138.65 5.89405
21.125 123.671 0.267773
17.9059 114.04 5.71724
26.5724 133.326 -6.23382
14.0884 151.76 -0.270463
-8.34052 132.428 10.0678
20.001 146.254 -4.11833
1.87868 144.753 -1.41027
16.7226 124.978 -1.76229
26.5383 135.297 -6.81494
26.8612 106.364 9.21735
9.76759 135.397 -4.49142
17.3417 135.788 -3.81534
21.0232 126.838 1.85029
10.5521 123.831 -2.43783
-10.3406 121.559 -4.55559
-3.1587 139.886 -2.08848
16.5481 146.826 -1.40504
16.3748 97.4614 8.16497
-13.1058 132.534 0.999659
9.79836 119.152 9.84642
17.0408 133.201 4.11615
5.37707 124.911 8.49368
20.941 128.894 7.11232
18.0245 133.254 -1.86626
-13.7174 123.767 2.17758
27.6651 101.309 11.5099
24.2671 121.601 -2.13942
28.3193 91.9798 12.4337
-14.5899 126.682 1.1992
16.4784 144.412 5.01895
22.9857 106.393 4.05583
15.3451 99.0172 9.75998
16.4052 90.8212 6.08624
-7.78027 127.908 8.57739
22.8213 123.077 -0.479393
9.5787 99.0641 8.56319
25.6494 108.885 14.246
11.5181 127.454 -4.2181
24.5445 135.724 -2.97721
18.3343 134.405 -3.0751
14.5319 121.148 -3.70697
-5.7987 145.455 3.96763
0.433131 128.208 9.51419
1.11519 120.625 -2.11604
13.0892 129.496 3.42397
9.36649 131.151 -3.50309
26.3437 122.823 -1.48796
9.7493 146.309 1.40914
19.8016 96.1678 5.47165
23.7787 126.884 3.20319
24.7691 138.993 -4.45042
17.0745 131.188 9.19531
19.7612 130.574 8.62458
16.5472 133.228 2.419
9.48229 137.815 -4.8213
-4.58807 137.835 -3.26574
-9.84964 123.611 -4.53826
18.745 113.839 12.1275
-12.4872 134.473 11.2469
26.1824 106.656 8.17071
22.9342 127.125 2.12759
22.7661 106.123 3.38068
24.2831 117.747 7.1213
7.72595 131.806 -2.60982
25.5954 95.7573 17.6467
18.6825 88.9348 17.4178
26.3348 83.5552 13.8195
18.3853 126.864 1.42365
17.1308 128.939 -4.83215
-8.22551 118.707 -4.77872
-9.62589 130.158 -6.40144
9.64923 131.699 8.04157
27.8854 127.918 -5.11943
-13.1964 122.266 3.65476
4.65717 120.839 -0.378472
-17.4335 135.644 7.92647
-9.15226 132.564 -5.1754
20.2752 120.202 0.988076
17.4037 129.466 10.5279
18.6839 112.887 13.1482
26.2938 91.6742 17.6085
23.385 134.329 -7.91315
11.3744 120.02 -0.821054
17.8398 122.556 -0.888326
16.2569 138.808 -5.59621
11.0496 105.582 9.55295
24.4068 129.644 -11.3882
10.6362 129.404 -4.04482
-11.858 132.186 9.41531
-18.0696 132.05 5.93073
25.5293 98.9161 16.8064
-13.4206 126.043 1.3413
-9.90563 120.272 9.7238
19.3711 109.455 13.679
1.46283 144.035 3.68614
-4.73205 118.103 -3.30691
5.82678 109.326 10.5593
-11.8339 138.095 10.6988
19.7169 102.266 17.4673
15.8043 91.4619 5.7589
16.6412 89.358 10.9197
20.0185 126.373 10.7
-0.532453 128.503 -0.243263
11.0758 94.787 7.04123
15.0849 103.18 6.19734
0.247481 120.938 -1.71078
-3.82341 144.697 -2.58991
16.5546 109.25 0.585054
16.5987 134.846 -2.4205
26.64 128.965 1.27343
17.7432 137.123 7.38415
22.1856 91.3768 8.25564
20.6216 136.663 3.32168
26.2425 98.3079 16.4853
20.8326 126.228 3.10886
17.5694 136.512 -7.53567
-9.71698 118.974 -5.29846
1.61196 126.313 -0.18877
-9.54058 127.337 -5.6354
23.958 103.886 5.56042
11.6468 94.1412 10.4222
2.63949 107.345 -4.08716
-13.4896 123.155 3.28186
-13.6814 124.708 0.707256
9.22573 119.786 10.3701
11.6714 138.475 2.50403
24.0679 124.34 0.484917
26.0322 131.143 -2.31072
5.77006 135.099 6.92032
-6.87364 119.708 11.4822
9.27813 109.376 10.5739
18.8286 118.046 1.46612
22.7901 90.4921 18.6472
20.432 136.245 3.80823
16.4048 110.418 5.20394
18.4765 115.895 12.3141
9.80367 143.331 3.37223
10.4009 149.601 1.88246
-12.3096 123.951 -4.69344
11.5601 118.53 -0.854564
-11.053 118.955 9.45834
-16.3277 138.09 6.26724
-0.971826 151.237 -1.72638
15.9558 119.054 4.11589
28.0472 128.954 -8.44967
8.18862 116.456 1.20418
14.0623 120.336 3.84365
14.2379 113.844 -0.356107
5.21674 141.695 -3.59278
13.4238 151.403 1.60739
21.23 140.966 -6.7232
-4.41251 135.954 5.87409
24.6621 96.6824 17.8828
-5.10078 122.535 11.8919
7.64145 136.214 -4.13138
26.9568 107.503 12.3579
12.9945 130.707 4.9887
-8.59445 128.578 -5.26986
23.7679 125.943 -12.3874
16.338 87.2205 12.6115
15.8995 124.531 -2.98088
20.2311 93.2294 17.1898
10.5272 143.235 1.63257
11.7349 103.41 8.19329
26.3054 135.704 -5.85871
-18.4201 133.04 5.51393
18.4143 105.505 10.4289
26.5087 133.917 -8.58405
20.2981 105.539 0.644945
25.1956 100.177 16.5398
10.5066 115.695 1.23575
12.0908 96.9544 6.82835
19.0494 118.596 8.31186
11.8945 110.189 7.70996
1.40648 129.069 7.81254
17.8141 88.7345 7.14402
-0.000304353 143.006 4.1978
18.5221 125.63 -6.35467
9.5479 95.0945 9.20543
-6.56955 143.016 5.53683
16.1315 132.022 2.05748
25.3369 96.9551 8.75041
23.2935 81.5678 12.93
8.37189 142.226 -4.80266
2.63407 133.636 0.586176
-9.46702 132.241 -4.67286
15.6076 105.449 5.55153
-11.2523 125.444 10.8147
-5.17427 128.105 8.1431
18.458 112.895 13.9748
17.0499 138.571 6.80811
24.3166 111.871 4.92757
17.8394 129.517 -1.80459
17.4935 131.429 5.65629
21.2469 104.925 17.8282
12.5722 117.031 -1.05488
3.92565 131.488 0.563559
15.5802 136.102 -3.06461
18.4141 125.457 6.97484
4.71377 110.813 10.5389
-6.62081 146.446 4.1947
19.6355 93.238 6.75534
21.9473 123.171 1.10942
12.8338 128.961 4.59661
-13.3953 126.604 0.555645
21.6106 129.491 4.20882
20.6589 119.122 1.58406
1.64571 150.33 -2.59547
23.7384 129.992 -11.1292
-7.74808 140.836 -5.02886
-8.21727 127.938 -4.58381
-12.0764 140.658 2.16256
17.548 140.09 6.36909
5.14152 137.775 -2.12616
13.1082 93.8526 3.53681
19.8081 131.382 -0.452926
16.5191 135.954 3.30966
10.3469 126.479 8.62821
22.7172 132.572 -8.73913
5.77955 115.052 11.3618
22.3489 124.708 3.85849
-4.06188 132.305 -2.06353
12.2585 100.64 6.43877
13.878 102.951 0.580891
-14.1419 124.668 -2.56008
25.2372 136.362 -3.87345
-2.82224 148.182 -1.80698
-2.48633 112.404 11.8013
11.0547 122.456 -1.99353
23.2945 104.288 4.1808
-8.17679 119.645 -4.3384
20.6451 126.108 3.92807
-2.58116 147.324 -1.64712
-1.61141 130.288 -0.589111
10.056 139.661 2.40546
24.7121 139.749 -4.05876
10.3083 129.083 8.22822
23.5157 123.44 6.27446
18.5612 116.811 6.60604
3.89715 106.518 10.6402
-2.29191 123.098 -0.837732
-7.53302 138.142 -5.3629
25.4117 116.699 11.025
28.4698 86.0441 16.9012
-17.8941 131.107 5.77433
26.3677 129.78 -0.929945
22.2797 125.714 3.02466
24.8239 123.209 1.64286
-3.58651 146.535 3.08456
23.5143 83.4792 16.3488
27.0176 128.183 0.200341
23.7884 81.2782 13.3238
23.1354 124.361 3.26453
16.3021 135.206 -3.58726
-13.6732 135.133 11.5187
-5.46553 137.178 -4.12654
12.8074 123.473 4.30078
14.1033 91.8147 4.4937
14.2243 109.808 1.42523
24.6733 118.564 10.9204
-1.28784 111.942 11.7843
-6.19102 131.141 8.94663
2.10052 111.28 -3.71061
14.4497 97.5566 13.9398
15.5313 135.852 -3.05613
17.9803 96.3306 16.6605
17.2588 143.159 5.64904
-5.36513 113.424 -4.27223
-4.35906 115.413 -3.02231
15.0082 113.355 5.07195
13.425 139.344 -5.14477
20.6967 126.434 3.64913
-7.06909 144.194 5.58321
-10.4521 130.049 9.54682
1.83391 130.969 7.03244
25.755 126.837 -10.5382
-8.36383 130.78 -5.89892
3.82576 111.277 -3.40516
22.09 130.509 3.34692
22.1404 132.755 3.60653
15.6978 133.277 1.91077
27.0765 133.49 -6.82671
22.4841 126.766 -11.8984
18.2366 118.905 12.4406
11.143 95.4007 7.08986
6.20263 111.892 10.8009
-9.14746 137.185 -4.41964
20.3583 102.153 2.22492
22.6832 128.679 4.81383
18.1076 95.4188 5.55443
16.5728 143.06 5.27682
12.9474 138.837 -5.48063
20.3806 110.525 0.348579
13.1811 122.161 4.1467
22.2788 100.962 3.65171
21.5317 129.502 6.54971
26.8622 87.091 17.93
21.7593 110.926 2.69863
13.1647 91.3174 7.91536
-7.08211 142.597 -4.73376
22.2478 107.246 2.65192
9.48407 146.845 1.67392
22.8585 128.852 3.88078
25.984 108.055 14.0355
8.76575 127.282 -1.91777
8.94281 125.559 -1.04172
-6.56286 115.441 -5.0005
7.6216 127.42 0.0538751
-3.61448 137.193 5.00092
11.3127 147.33 -3.99542
25.6152 105.765 7.63426
25.726 116.069 9.34333
9.40418 144.73 3.44001
18.9811 106.509 9.60126
-2.27396 150.216 -1.50764
0.569901 124.411 -0.587512
16.4771 110.295 5.22313
-17.4913 128.266 -0.172808
-15.6758 140.453 6.23457
20.9966 114.678 15.7559
16.3407 135.511 -2.54607
14.5447 140.838 -2.22181
18.8178 127.159 -4.44446
21.3649 119.843 13.8958
14.0411 139.458 2.01142
-12.1501 120.9 -4.98132
18.0348 95.1838 15.8691
18.5319 87.8246 7.83521
23.6078 127.576 3.97345
13.4624 126.782 -5.01597
1.93893 129.897 7.43983
25.2529 116.52 11.5283
24.9717 121.82 1.6957
-1.1422 116.29 -2.41467
13.8872 133.899 -5.84466
23.7489 127.233 3.81335
2.11864 107.497 -4.30532
16.3869 133.576 1.93122
6.19793 149.789 -3.50688
26.7349 84.8239 13.6491
27.3873 96.162 15.6675
23.4444 112.572 3.09762
12.0262 133.97 3.52916
1.6921 126.635 -0.125764
16.0389 131.779 -3.73986
0.112169 130.777 7.26136
22.3775 138.231 0.230874
18.5541 114.67 12.7765
5.83651 100.871 11.5944
-7.02558 137.143 -5.6689
16.23 137.491 5.72337
4.19762 110.985 -3.40087
-8.93034 126.884 7.86805
-10.873 124.072 -4.42028
23.9407 102.779 16.8785
23.9682 82.6873 13.1394
-1.85746 115.072 -2.38761
-4.59765 147.959 -2.79367
-10.1679 134.071 -4.27389
10.7708 116.862 8.96054
25.641 87.673 11.6903
15.4517 133.787 -4.56831
11.9113 94.0362 11.764
12.2537 143.105 1.53906
-14.1993 124.72 0.469593
19.192 108.811 8.98263
-3.31513 143.091 4.03007
20.9447 113.415 1.12399
22.5861 122.543 10.2845
26.5826 129.397 -2.42155
-6.35597 136.989 -5.55993
28.3357 93.4235 13.282
-13.4086 142.188 9.11904
17.5467 118.915 4.9936
9.6103 122.72 0.0149003
-7.51696 123.173 -3.84827
26.215 124.416 -4.28073
5.54262 123.857 8.98193
-8.77272 135.162 9.72504
18.2539 127.826 8.15883
-12.0963 127.876 11.0071
17.5365 102.72 8.48213
18.9014 118.782 13.7056
6.92807 141.458 -4.14323
19.1235 116.876 8.9603
20.2881 130.516 -9.97825
1.73745 104.893 11.0178
19.8864 125.42 -11.4443
16.3306 134.676 3.67923
19.4949 92.6887 15.9978
9.88832 101.348 9.01541
24.7264 124.393 3.87005
8.87069 118.142 0.877797
16.9055 149.034 2.36223
5.32345 124.537 8.76077
17.5231 130.615 4.83133
16.3787 135.795 3.96063
16.1316 103.451 11.5485
16.4669 130.188 -1.10299
19.029 136.509 6.91524
-13.8572 127.892 9.44804
-8.54082 124.551 -4.75161
18.9109 145.852 2.2206
18.6035 120.975 6.64816
8.31977 135.715 7.01139
19.5552 110.943 -0.460507
-18.1351 131.632 9.11254
-3.40219 138.799 -2.33463
16.3196 141.155 -4.38726
-2.64483 117.916 -1.83256
14.6805 100.521 6.69554
-11.2956 139.519 -2.13702
15.7256 117.009 -3.04889
-9.47514 147.471 5.76864
11.516 111.198 8.12691
12.3311 137.057 4.78336
24.3222 94.1325 8.09176
-14.1908 123.572 -1.94391
-11.8867 124.516 10.1835
22.7252 121.53 -2.48515
17.0135 134.669 -7.08431
25.1982 86.4964 18.152
15.3023 104.448 0.505962
1.223 105.617 -4.61789
11.0352 121.229 -0.641589
15.6616 87.3718 10.6598
-1.12813 135.112 -0.519682
20.0318 126.385 10.6547
22.8029 121.003 8.47212
20.2215 84.1052 15.9473
14.5606 125.459 2.93193
-11.9466 146.982 4.82548
22.9794 115.547 6.6926
-0.764148 137.359 5.85583
24.7802 100.57 6.95446
-3.48449 113.722 -2.87351
14.4947 141.16 -2.09303
10.5131 143.786 1.23157
20.7477 125.884 3.4334
-7.62905 119.304 -4.30599
24.5952 122.025 1.01183
25.0436 99.0564 17.1981
-6.38385 122.841 10.4557
20.1526 122.143 0.484863
3.64727 130.915 7.75348
11.231 141.117 1.30502
-17.9728 129.962 2.01407
18.1243 122.809 -0.885368
24.1873 109.133 15.5779
-1.25108 117.653 -2.06728
11.9102 147.971 2.3408
21.4048 133.084 3.84102
0.526805 117.486 11.6239
-14.2561 125.791 1.17706
2.97394 147.859 -2.79939
-14.0791 129.845 1.66347
-0.744286 141.095 5.12734
15.8036 102.718 14.6951
19.7834 109.276 16.709
-4.78324 152.185 -2.19645
7.42318 135.912 7.12986
18.4565 106.598 7.38342
5.94166 117.41 -0.177069
7.13467 105.849 -3.59737
15.5119 106.278 5.4513
19.1346 115.259 9.97698
-0.151549 150.727 -2.00085
13.1145 109.791 5.35415
15.2146 99.1064 9.81835
17.7565 104.888 15.1396
23.4709 127.843 3.30782
15.2993 140.133 -2.4905
-11.8333 123.759 -4.52047
24.246 86.8548 18.0492
16.1567 87.3719 6.34978
23.5608 115.293 6.98617
12.3739 105.091 0.793317
13.6663 152.448 -0.0602988
13.6496 118.903 4.34637
-13.5554 129.035 1.19208
22.6432 128.436 4.83588
-9.95813 121.599 -4.32676
21.2144 142.154 -6.07255
3.72113 135.114 6.68229
18.8789 129.415 -9.49764
22.444 126.458 -11.6261
8.14914 147.447 -4.67695
-1.99923 146.709 -1.3098
-9.28299 122.286 10.4055
-12.7535 124.001 8.77908
6.00158 99.3792 11.9953
19.2745 112.677 15.8192
6.20825 154.899 -0.972403
19.9162 105.89 16.9501
18.0476 121.313 12.1165
5.35178 120.786 9.97221
18.0674 125.916 -0.253388
10.7443 127.775 -3.826
17.9724 89.327 14.2554
15.0084 146.957 4.14865
-13.6695 125.183 1.41128
-6.44787 132.208 -4.36493
-9.16323 135.055 9.88282
11.0836 113.9 7.98318
25.5711 123.095 0.932641
16.1587 104.413 5.82612
22.8977 96.5949 6.02399
12.1527 134.493 -5.16265
26.8257 100.363 15.2878
17.5954 129.306 -7.96889
11.6395 134.427 6.56648
16.032 109.408 0.729029
19.5668 104.399 0.340346
19.8211 123.645 12.9655
23.4599 115.796 13.9533
6.85008 98.8547 11.7802
25.4728 138.655 -4.20526
23.1211 122.888 7.82233
-18.0906 132.816 3.69154
-0.78477 125.236 10.7872
18.6355 126.23 -5.81564
20.5118 138.809 1.55472
9.97041 120.173 9.61553
24.9911 121.693 0.7766
-12.4899 132.158 0.197345
11.4262 153.399 0.940687
26.0887 82.5713 14.1596
0.510886 121.838 -1.21318
17.192 95.0238 14.1035
17.8136 102.708 8.04815
-3.80074 142.456 -2.69406
6.16415 110.352 -1.96716
25.5771 124.222 0.103107
-0.700077 109.135 11.5854
17.2038 115.91 4.99257
9.72453 124.06 9.11432
1.08923 117.89 -2.74257
1.08037 115.737 11.0331
10.6239 151.521 -1.48386
23.0376 122.44 7.55386
27.5958 100.497 10.3953
10.8216 107.514 0.589894
-15.2987 139.763 8.63195
10.9642 141.555 -6.11397
-12.3448 146.204 5.70776
27.1089 91.8032 17.1618
6.32453 128.326 0.898418
20.6631 96.5242 18.1412
19.8284 84.7872 9.53491
-3.87383 133.805 5.9884
11.5566 130.273 -4.75926
19.3681 91.9521 15.8497
25.8376 115.244 11.1126
18.612 113.287 14.3277
20.4887 137.437 2.79889
-10.9837 126.021 -5.1112
-10.0087 121.982 9.87745
15.3358 138.741 -4.19661
4.0913 115.312 -1.72401
16.6901 103.754 11.273
-9.69303 141.967 -3.54546
-4.63134 119.903 -3.37399
11.6374 146.773 -3.78813
25.798 123.162 1.71927
-13.8923 123.529 8.39994
28.2125 127.426 -7.48839
-8.02851 142.775 7.71021
19.9994 116.409 15.1204
-12.6117 137.488 -2.02043
18.7114 113.364 7.07384
3.50195 111.463 10.6728
7.17111 107.472 10.3902
18.6675 105.439 9.65934
24.9692 125.36 -11.0609
4.5651 136.476 -0.769553
21.1383 117.492 2.83666
-9.30241 150.378 -1.01853
-13.0022 134.181 0.333728
17.7248 147.967 2.90863
25.989 111.941 12.0999
10.8527 152.851 1.37508
24.3728 132.819 -9.10139
25.9818 115.056 10.567
22.1046 109.89 16.0039
17.0571 117.415 -1.2647
24.3146 87.5927 18.2307
17.0863 127.845 -3.06802
-6.90073 129.308 9.14044
25.315 82.3617 13.9111
15.4681 151.1 -0.5382
18.6242 105.153 0.522365
11.689 93.2585 8.70442
-10.0023 141.744 9.78425
15.2051 97.2116 9.59914
26.4519 112.039 10.2074
-7.72934 151.718 -1.05818
18.6332 89.2124 16.6883
-7.58914 149.57 -3.06653
13.3667 92.0923 12.0437
14.0087 108.758 1.37047
4.20466 108.693 -3.61354
-9.97579 120.228 9.68932
14.0469 128.228 2.83076
-6.63514 124.982 -4.34864
18.4344 116.153 6.45359
12.08 93.6736 8.06903
-12.146 141.213 0.77661
-2.59696 131.173 6.82773
23.7217 119.462 12.3412
-2.99324 129.155 8.26209
-3.95969 144.943 -2.68402
16.58 137.324 -4.24854
25.2421 133.849 -1.78041
22.3526 125.141 9.71238
14.638 128.796 2.6647
-1.29727 123.449 11.3329
23.5814 119.707 7.67977
15.0734 146.421 4.54355
15.8159 97.8741 15.0437
17.9847 145.779 3.09504
12.1231 105.245 8.63188
23.5475 117.928 5.85124
-2.91188 135.513 6.14382
-14.5547 123.182 1.52189
22.1172 121.681 -4.44169
20.1628 129.096 8.33268
-16.0834 137.918 9.25269
-13.2558 136.647 1.18783
26.1402 105.381 14.7522
0.0552746 110.819 -4.36668
-7.36462 137.112 -5.45355
17.1461 124.138 -1.83347
6.41956 116.301 11.4486
18.1686 113.191 -1.49826
24.013 132.937 -8.83645
-1.68166 138.913 4.81402
11.1768 142.619 -5.55494
22.3667 123.926 11.764
26.9475 132.085 -5.69142
-16.2036 137.755 9.21784
24.2622 126.138 -10.4741
27.112 105.018 9.90129
22.3522 126.083 2.33348
18.5176 88.5702 14.8884
18.6008 133.434 -2.7945
11.527 128.009 6.74535
27.8472 96.3564 11.2215
-10.3136 149.992 0.409061
13.6889 143.838 3.59003
0.472124 136.185 6.22134
15.56 113.48 -1.12965
18.8651 108.64 16.955
9.00274 98.9592 9.47495
-1.15974 115.518 11.1526
-4.75771 126.906 -2.48906
11.5415 138.753 2.19798
19.5989 94.3558 17.2629
27.6319 127.216 -2.41235
18.0052 91.6489 14.2067
19.2747 114.865 9.52853
20.735 129.858 0.386265
-4.80852 143.163 -3.55292
21.0523 98.2152 17.7582
22.954 98.3926 5.26655
22.3379 133.744 -8.20656
-11.4504 147.064 5.44694
20.0601 130.559 8.25086
-11.6295 143.635 1.08864
17.2316 139.55 6.34878
15.5931 98.5147 6.82902
-2.78845 114.621 -2.57052
1.3105 128.108 0.127862
25.3688 130.955 -10.6019
15.8743 137.654 -4.65807
23.5518 122.789 2.28084
8.90424 142.941 -5.20909
-3.02165 130.679 7.06335
-14.4324 123.979 2.79842
-8.03264 147.226 -3.68558
16.4203 130.559 2.7818
8.29547 118.375 10.7625
-2.40927 124.68 11.4564
19.3401 102.891 1.18724
-7.02555 147.347 4.28139
-12.9015 123.453 9.75906
-10.398 127.841 10.6167
-6.88378 146.828 -3.87851
13.0832 114.187 5.01719
27.1972 126.772 -1.99546
13.229 118.363 4.58265
0.401372 113.304 11.0924
23.9417 98.6688 6.05423
-8.79192 138.037 -4.7306
13.2471 152.55 0.0651449
2.95779 117.301 11.7025
19.0959 127.962 10.1544
25.6295 99.9504 9.21403
-0.635532 127.573 -0.248618
-7.49867 120.095 11.206
18.6514 115.044 0.520804
3.31306 132.058 7.17735
21.8996 122.763 12.7338
1.44432 127.184 10.0857
17.138 134.997 -2.00891
25.2482 109.344 14.5658
-0.941808 135.243 -0.453675
-16.9833 134.671 5.75043
17.4526 144.57 3.43657
24.6811 95.4209 8.11917
11.15 98.1181 1.152
26.7859 80.2247 16.8745
-8.31907 132.252 -6.1193
16.014 141.305 3.87669
5.06908 118.753 10.6445
-11.7166 145.178 1.91623
21.9676 85.8028 10.4707
-11.3984 146.797 0.00498396
26.3868 110.257 9.07083
16.0635 108.279 1.06444
23.4132 110.248 15.6003
-7.40456 124.78 -4.42246
7.80604 138.893 4.08656
24.3624 108.185 15.7573
-4.45811 144.972 3.55961
-15.0794 130.237 0.33129
5.76916 108.493 -3.66253
13.5907 122.055 3.8269
-2.90727 124.114 11.6179
22.8397 106.147 3.55315
18.1485 87.8671 16.23
8.28856 118.413 10.7486
-18.2851 131.597 4.05672
-5.16105 139.45 -4.12574
18.9934 132.664 -8.31743
28.3204 82.4565 15.5357
0.576423 125.184 -0.451577
-9.10417 133.819 -5.39557
-10.7246 133.658 -2.96708
17.1783 130.033 -7.72001
26.5375 85.0297 17.687
24.9156 118.13 8.90204
5.88721 129.173 8.33478
-8.97901 118.77 -5.06098
15.5086 119.402 -3.40442
16.8034 128.512 -2.58063
-10.7858 147.42 5.75559
13.0371 121.772 4.26616
16.6418 124.95 -1.73277
20.1757 122.288 -5.64998
19.3494 110.512 9.38914
-16.151 125.113 10.9845
7.87439 107.074 -2.05341
16.8351 132.991 8.64477
8.64763 102.944 -2.90814
-8.7505 138.521 9.65592
9.40462 114.64 10.7662
8.20782 113.194 11.0716
9.85538 108.595 0.391461
12.384 136.776 4.34766
10.3858 123.53 -1.89657
-3.65161 145.508 3.30752
16.03 103.564 11.8402
-6.21048 132.555 8.38594
4.3384 115.046 -1.56563
20.2982 94.7277 6.38856
12.272 138.122 4.12066
19.5585 119.679 0.876067
5.54092 101.901 11.1705
26.9092 129.516 -3.80724
-11.3241 123.934 8.92534
-2.48524 114.707 11.3962
27.0717 129.097 -3.71543
5.43976 113.661 -1.02126
-13.0328 124.079 10.4732
14.0527 92.5356 4.46449
4.6875 154.446 -1.80794
4.65334 101.885 -2.27077
14.3802 147.862 -1.56515
9.05079 132.797 7.95495
19.6333 119.556 0.92809
18.5074 107.66 7.4396
21.2946 98.9274 4.44255
21.7359 123.937 0.438203
26.4787 124.821 -4.96125
11.4803 93.1219 7.4041
5.99814 136.314 -2.69666
14.1967 141.545 -1.60926
-17.7085 132.108 10.7121
-12.9992 135.2 -0.605933
15.321 124.412 -3.90311
11.7327 102.308 7.00169
1.39777 126.992 -0.0190229
12.5841 93.1421 2.91736
18.4584 124.83 7.01393
8.64689 126.029 -0.80433
2.21158 114.425 -3.49981
18.0499 104.808 7.5862
4.84545 108.238 10.4615
1.21394 129.38 7.76667
25.4117 108.774 6.72023
27.1534 99.8065 10.1871
12.7258 119.527 4.96914
19.9581 145.932 1.61485
24.5989 132.481 -9.47542
-1.8273 142.765 4.4101
11.0482 104.007 9.42213
11.5146 92.3211 8.36897
12.1219 135.819 4.63543
18.0406 148.853 2.02457
16.1706 116.88 -2.33456
20.1812 114.993 2.86452
24.9928 134.487 -2.96978
22.7803 100.421 18.1014
5.04922 133.622 6.9969
11.2725 153.242 1.06344
-13.5154 126.26 9.6684
20.3709 97.6093 17.318
26.6277 124.496 3.3855
17.6801 129.693 4.98963
21.3028 92.1708 18.8522
19.2455 123.245 13.1215
25.3336 104.425 8.1317
22.2852 128.58 3.10728
19.0438 141.701 3.02671
17.2967 143.199 5.28688
13.2387 151.683 -0.523061
21.8382 124.737 2.94875
8.3015 134.602 -3.96643
17.14 88.2491 6.9764
11.8675 114.989 6.66488
0.366035 107.122 11.1158
-12.2237 137.733 0.593952
13.4783 115.01 -1.1754
17.7856 128.511 10.3164
26.8448 108.858 11.5347
3.43931 120.926 -1.51015
25.0287 123.69 3.21237
-1.32345 116.025 11.2321
21.8387 95.067 18.9245
23.2684 124.38 1.8363
4.45526 111.804 -3.29358
-11.1452 120.029 8.83663
-8.56704 147.135 -3.66247
-2.20836 125.429 10.6481
19.7224 117.044 2.66512
3.59463 135.043 0.115385
21.0687 113.66 1.78183
-15.1079 130.003 0.463703
-4.43215 123.1 12.0718
-11.0186 134.247 -2.50381
20.7028 84.8775 9.96635
-15.1849 141.482 5.82896
5.5395 140.402 -3.65817
24.3989 125.995 -12.0621
-7.58652 135.964 9.40296
-12.4144 120.342 9.16633
-5.84212 151.792 -2.58034
27.5968 100.239 10.3658
8.95233 116.674 10.6768
22.4879 93.907 7.06029
-9.86906 118.565 -5.39491
13.7755 100.833 12.63
-9.44484 136.027 10.0682
21.3434 146.853 -3.0804
-8.07578 130.864 -5.66962
22.9437 139.62 -0.703395
28.4698 128.33 -8.6498
17.773 115.923 5.21673
19.1304 124.521 -10.7851
10.7395 115.704 8.85828
26.1135 123.806 1.33583
0.204654 118.049 11.4823
-15.3957 139.533 4.18047
4.71596 117.894 11.1225
4.934 103.172 10.7918
2.09751 118.876 11.6362
23.9015 126.474 4.27915
-12.4938 139.866 -0.680721
25.5128 138.2 -4.0947
12.0472 130.947 5.95937
13.5386 92.5534 3.89531
-4.75697 131.115 8.34238
6.59491 99.8316 11.8383
20.7529 124.299 0.282468
2.22137 114.284 10.9985
25.0946 111.313 13.5641
26.6069 108.4 12.7707
14.1118 97.5217 2.99175
19.368 136.453 6.57035
19.2253 90.8023 15.8178
-9.48472 132.594 -4.51206
22.7363 124.852 8.50537
10.1423 96.9999 1.0739
12.5075 94.054 8.41663
18.7361 123.301 7.19882
5.02967 119.237 -0.532127
27.6581 93.6407 15.8359
19.6117 147.993 -0.147515
27.9712 98.0091 13.0337
9.54063 119.872 10.0749
22.1963 143.113 0.136763
24.6545 88.3939 18.395
17.6788 125.8 10.7003
-10.3513 126.917 9.89473
-12.0111 138.613 -0.124554
17.1759 128.96 -4.00431
22.2259 90.4804 18.7343
9.77314 143.4 2.63955
20.3039 137.992 -7.69825
13.7068 135.425 -6.14127
12.6292 150.777 -0.787376
22.5987 141.246 -0.202186
24.1027 114.874 6.48685
16.2829 136.782 5.08278
-15.3156 130.077 0.5297
25.6275 83.6617 13.4017
1.93729 114.049 10.9059
12.7579 100.257 6.5398
-1.15182 129.6 -0.448176
21.1874 127.352 0.945328
-12.4878 140.83 -0.25319
20.3352 123.101 13.1197
1.17395 128.939 8.24432
13.3491 96.994 3.24303
-6.98204 128.864 -4.15498
-5.21663 131.01 8.57944
12.0755 120.377 -1.55524
20.9038 127.014 8.73222
20.0352 93.4217 6.98207
-16.6277 136.731 7.02596
28.5573 90.7113 13.3848
18.8166 133.777 6.89926
-9.14307 132.854 10.3802
-1.32976 108.534 -4.2563
-11.0251 131.414 9.08613
-12.8652 125.177 0.542337
23.7362 119.141 3.76269
22.4933 131.793 3.52566
5.62358 126.47 0.919283
-2.4225 127.131 -0.798024
13.2014 116.668 -1.29536
17.2338 104.327 0.605721
-0.259001 153.076 -2.20632
19.8317 96.897 17.3146
-10.3862 127.181 10.016
-15.6605 132.153 10.5852
15.2941 141.707 3.82982
13.2231 102.954 5.91846
26.358 126.387 2.09139
-12.5836 131.573 0.331725
13.4564 150.167 2.30722
-15.8236 137.857 9.72388
20.4579 124.464 0.223413
26.3086 125.634 1.33633
4.06765 129.077 0.332757
18.4906 140.772 -5.66035
22.2961 135.627 1.04189
-17.8813 131.305 1.22253
14.7126 139.207 -4.49019
22.9566 100.541 4.32205
