ply
format ascii 1.0
comment Created by Open3D
element vertex 1982
property double x
property double y
property double z
end_header
0.645543 116.441 11.2881
-5.76422 135.016 8.28355
-14.5088 121.512 7.38342
-2.35508 123.974 0.190659
-14.3032 106.753 3.90418
-15.2951 121.428 3.60201
-7.93371 153.439 0.524563
-14.7166 121.949 3.15861
-16.2332 110.102 2.20096
19.1889 83.5974 7.54251
-7.1459 97.6233 -5.5311
-3.24915 108.071 13.9076
-14.8443 102.118 -2.46811
17.2992 101.339 8.42102
-15.7698 91.4087 0.851529
-12.5667 140.822 2.60084
26.3439 81.954 14.03
-13.2532 119.531 10.0549
23.437 86.6347 20.0385
-9.80805 143.752 -3.1546
19.8137 93.5805 18.4865
-11.1005 144.297 8.68836
21.4461 86.5297 19.7232
-11.6807 81.6884 4.36891
-6.48463 126.739 -2.26019
11.7134 95.4209 7.98982
16.2028 108.038 14.8471
-15.8332 124.098 2.45747
-11.7327 106.138 7.0362
13.2099 104.3 0.555737
-9.45353 81.5777 -0.783399
-4.99826 89.0907 -4.4794
-15.599 93.0959 0.993949
-11.5239 143.705 3.13193
14.4995 112.225 4.94227
15.571 81.4297 7.93258
17.5633 87.7038 12.4378
-13.1681 119.671 11.2623
-1.05926 141.501 3.19036
-13.5161 93.7101 3.97475
-9.88705 120.008 -4.04254
-15.0825 120.299 2.09791
17.5758 94.0556 13.8198
7.76909 99.0963 -1.76418
-7.68963 131.889 -4.72176
-7.46637 127.282 7.87712
-11.1519 95.6003 -3.86542
-4.99981 125.429 8.75367
5.69617 130.937 7.17282
-11.255 142.794 -1.76808
-5.96942 132.983 -3.33711
20.018 102.146 18.9936
-14.1472 121.391 3.58572
14.5061 112.558 4.92236
-17.0717 127.771 12.1025
-15.7944 119.353 12.4427
7.5672 122.83 2.31574
1.70703 78.4285 3.27519
25.8473 89.1254 19.3147
23.5915 82.8011 10.9419
-11.4396 83.1359 -2.48474
13.1138 108.947 7.19793
5.31825 82.7937 6.72767
-14.4374 119.966 8.85405
17.5803 110.28 15.4256
-2.5622 114.756 12.0569
-2.99046 106.84 13.919
17.4203 82.3783 6.82538
3.66315 86.99 10.5538
-15.1756 92.6197 -0.772968
-11.774 110.51 -5.01996
-15.5803 138.229 4.11671
-10.0428 78.9897 -0.132605
14.602 112.044 4.95128
-10.8948 94.0329 7.90789
-13.7528 119.388 11.6393
-14.6471 118.48 11.7304
-10.7466 130.9 -2.45478
-14.1625 137.957 2.36244
-4.12775 100.335 -4.70526
-15.2928 122.337 4.30719
-13.1442 139.391 10.6567
-13.4406 95.8702 4.9286
11.0268 84.4312 2.44986
-3.56967 143.321 2.88761
-14.0225 117.62 11.1338
1.86333 79.0715 3.72149
1.48598 82.1218 2.13551
-6.83304 128.232 8.01472
9.0839 85.7183 9.5424
-3.51897 113.643 -2.18553
-3.55051 130.904 -0.368298
-7.96358 146.464 5.46108
4.18146 89.5827 11.4636
-3.72145 142.858 2.98352
17.7307 101.527 16.8252
-13.0627 82.2143 -1.92035
-14.7238 124.684 1.9552
11.0108 91.9633 0.883388
13.8696 93.6389 7.18568
-3.50334 94.3756 -3.39376
-13.8981 123.934 2.31684
17.1123 100.354 7.24515
14.3495 106.443 1.63173
2.9313 96.3727 -0.260111
11.7657 113.673 2.53879
-2.27282 127.468 0.615414
10.1862 113.33 10.2728
4.9995 120.917 9.76978
-2.29146 85.6921 1.40582
-10.4057 138.156 -3.30302
-5.98193 102.296 11.8624
-11.2568 141.476 10.0666
-3.55118 106.141 -4.09542
-12.7484 136.111 1.0819
24.3077 87.4987 19.9619
13.9059 111.459 4.91002
-17.1032 126.267 1.28263
9.68912 80.9613 4.83671
-11.4755 140.016 -1.85687
26.101 93.6137 18.4476
0.674059 100.45 13.88
-17.1097 117.557 12.3668
-13.4507 126.504 2.53076
-9.97458 114.983 9.94229
3.43877 127.414 0.866486
15.9398 93.1998 7.75974
-12.5873 139.527 -0.556252
-15.4908 119.459 0.280916
-12.4087 123.362 10.0522
12.0452 107.19 9.30279
-9.73404 129.858 -4.9062
-14.5004 123.269 12.6992
-9.19606 131.401 -4.77395
-10.1573 91.3431 7.52407
-13.1492 80.7956 -1.78224
-9.14027 118.249 -4.22086
17.7196 103.604 9.37966
7.16632 124.607 2.47862
-0.863001 81.0254 1.72127
-10.3432 128.254 -5.21973
12.3126 111.148 7.80443
-14.378 119.967 8.33836
-3.01785 90.5771 -2.34281
-2.12654 94.8261 10.5762
13.8422 89.4942 6.32629
-3.44715 114.404 -1.89645
19.7321 104.397 18.4916
-14.5117 119.254 1.76643
-11.6623 125.756 12.363
-9.05809 99.9433 -5.41247
13.58 93.1017 7.96981
23.4383 92.6368 10.6813
-5.31889 123.956 10.1162
-13.6765 127.792 2.32757
-8.6062 128.525 -4.42536
-14.9368 97.852 2.70966
-7.00308 140.252 6.6517
-2.49094 77.8796 2.03399
-5.63067 107.262 12.8773
22.888 88.7165 12.3085
-7.87272 105.193 10.9783
6.92184 105.595 -3.15718
-15.5406 120.065 9.487
-3.2638 91.0473 8.86332
23.2945 81.6284 19.7601
-10.1952 125.093 9.75723
-16.3005 137.079 10.0091
-8.46407 141.898 -4.07362
4.07478 91.7595 0.226545
-3.26665 102.629 13.461
-13.3757 88.7833 -0.694472
-10.0698 92.5285 -4.78086
17.2326 87.8009 10.3966
-10.2539 97.7222 9.13514
-9.87613 112.617 8.13296
8.15938 126.32 1.88287
10.0479 109.215 0.321962
-0.335479 141.943 2.80567
-9.46359 141.332 9.97226
-1.64432 135.236 0.465904
19.6637 89.1972 8.616
-4.52222 88.8844 -3.41798
-8.945 135.23 -4.16507
-4.63747 87.8004 -3.36733
4.4401 125.31 0.953683
-17.8768 131.98 1.95746
13.3955 115.921 4.26854
12.8636 90.8884 7.68431
11.8566 96.5749 2.22311
-15.5711 118.873 6.07037
12.3472 95.9778 11.3245
24.7352 85.5601 14.2236
-1.59156 96.3225 11.8919
-2.70388 109.008 -3.00918
-8.85581 92.795 7.95721
18.9183 103.046 2.71634
2.97523 80.5714 2.72184
-2.7461 106.458 13.9386
-19.2031 124.309 10.7475
-15.0841 112.422 -2.82982
-3.4858 89.6511 -2.08162
16.655 84.6027 5.10047
-14.9814 116.144 11.1119
4.43879 123.236 9.60271
7.70664 95.3663 -1.2973
-6.2345 150.029 2.00475
0.519605 80.7206 2.32683
18.6214 107.553 11.1851
14.6597 89.5106 9.69531
-15.7697 120.088 4.36396
-5.0774 82.5515 1.51467
-17.3804 135.33 9.13032
2.64744 127.398 7.75587
19.362 94.9926 7.39757
-9.00701 111.717 9.56527
-14.2257 122.536 2.92743
-10.3122 80.2891 -1.07012
28.2568 82.599 17.5013
8.56472 89.412 11.5605
0.386616 124.297 11.0519
-3.05368 102.371 -5.44363
-5.49453 125.593 8.11782
-14.5638 87.7875 -0.0949408
-4.73839 138.887 -2.91587
-4.11054 120.789 13.1134
11.4542 104.565 -0.643547
-14.6455 109.56 5.27758
-18.3201 129.94 2.07728
-6.08755 125.867 8.09926
-0.63352 85.3381 8.84432
-11.0262 107.573 6.98695
15.1404 103.382 5.97684
17.1457 111.907 13.3038
-15.2936 89.3852 1.85034
-9.69341 142.93 9.25357
-6.6773 124.114 -2.62647
6.28585 99.4017 12.5656
-15.2578 106.818 -1.16821
-4.14605 118.399 -1.94565
-4.58674 91.4408 9.05171
-10.21 108.626 7.43818
-11.8726 126.519 12.1107
9.18558 108.129 -1.30405
-4.36955 126.06 -0.696401
-16.8219 128.919 11.3072
-11.0971 123.188 -3.01801
-17.9819 123.768 4.79247
13.0617 91.4696 8.60023
13.2229 103.659 6.81835
-17.8304 118.156 12.6834
4.84114 82.3483 6.18575
12.2782 92.1133 1.83945
-8.05396 92.1484 -5.24548
-13.1389 131.916 1.20544
-2.61894 83.6056 7.37494
-8.43125 133.254 -5.10416
-13.0123 121.365 11.3508
-6.70402 142.722 5.48254
16.9394 106.621 12.8633
8.93684 125.447 8.34294
-18.5016 130.4 7.79054
13.3389 88.0429 5.57817
17.2048 106.11 12.3978
8.02063 90.7336 0.0898097
8.64957 125.172 1.83947
-6.29944 84.3193 -0.511279
10.694 105.811 -0.910419
15.5885 102.358 0.389764
-2.6729 106.898 -3.91527
5.89188 115.094 -0.307233
9.56761 115.023 2.21196
20.7003 99.4089 19.1007
-4.26226 119.53 13.0786
8.5855 124.309 2.06643
-9.7658 108.52 8.22315
14.6797 92.0879 9.50223
-6.95435 78.1914 3.20372
-4.34039 137.813 4.41404
-11.7085 124.88 11.9749
-9.71411 80.0588 0.839921
16.6444 95.6319 13.6462
-8.23879 102.111 -4.84136
-15.5815 120.094 8.61321
-15.975 115.183 0.575652
-15.543 113.25 -2.31555
-6.42624 118.282 -3.45261
-0.302067 135.137 4.54478
-14.5203 113.088 -3.23954
26.0957 94.6097 18.2434
14.2687 99.1143 10.079
13.3032 110.82 5.43385
8.45971 103.458 10.9817
-7.78581 85.1894 -3.93132
-4.68266 91.1824 -4.33527
13.2534 89.9222 9.94534
9.70125 113.465 10.6222
-11.3896 123.605 9.59927
-17.4607 135.181 9.76745
-11.9197 123.039 10.7178
-8.02575 140 8.57923
-19.1115 121.727 5.73362
-10.9771 148.201 0.182943
3.58275 110.364 10.9254
3.15062 98.2718 13.3879
-13.9257 100.801 4.89097
13.3284 88.9865 9.84073
2.01537 137.394 3.79917
19.9063 92.458 7.57503
-7.81371 80.6868 4.10682
-18.7693 126.388 7.89772
-11.6635 144.969 -0.209298
4.82091 90.9331 12.8958
23.1172 86.2373 12.9206
-9.60662 84.8149 -3.81099
-0.853143 116.122 -1.49805
-4.89748 96.363 10.5096
18.2433 102.826 8.04483
13.9771 94.1062 3.52671
17.0134 108.069 17.324
8.44142 113.012 1.01993
20.3863 101.545 19.2371
20.8309 97.6767 7.46559
-17.1292 122.978 6.32633
-12.0644 145.328 6.18472
20.6847 94.3035 9.05381
-4.26546 122.026 -2.01032
9.64907 105.974 -2.24975
29.3382 82.3462 16.3858
-15.5209 95.7881 1.71145
-10.9992 79.9009 0.310319
11.6719 96.5078 2.02455
-9.35661 82.6692 -3.40874
6.37172 82.4867 2.93293
-5.38826 143.038 -3.47562
20.4374 79.568 9.11167
4.77092 87.2492 10.8541
-7.68565 113.54 -4.69057
17.7217 86.5569 16.3372
-8.66591 91.1814 7.71978
-7.00986 97.4929 -5.5167
14.5336 102.973 14.2367
5.99301 84.0044 4.31915
18.466 101.114 4.56233
-14.147 99.2131 4.62057
-18.4388 127.865 2.90396
-2.09317 131.405 6.16031
-11.0513 147.991 3.27283
-7.56418 87.7455 7.71497
-4.92375 85.2448 -1.00649
-1.27336 141.627 -0.213582
-11.0398 81.1777 0.561367
6.02781 82.125 3.27437
-4.08302 120.06 13.0996
-10.6617 126.604 -4.28558
-0.422184 95.6763 -2.15402
-15.6258 107.45 2.81059
-1.95555 77.432 1.34904
-0.201545 129.185 7.93981
1.75006 80.8741 2.69335
-7.83217 151.973 0.935024
-10.8762 116.087 9.39022
-13.2644 81.4908 3.30123
22.1618 85.3606 10.7981
5.80859 125.592 7.35414
-10.7726 133.791 -2.24627
12.101 93.4425 1.86736
-1.50392 77.0826 1.27639
25.5945 84.7949 19.6215
3.77869 92.1896 0.167828
-13.0981 119.912 6.62558
-12.6377 123.924 8.85745
16.2602 104.365 11.5928
2.36012 116.432 11.2114
9.205 112.403 10.6992
-17.012 134.126 11.0382
-9.24641 111.629 -5.1914
8.53673 83.1856 5.52417
-14.7675 119.914 3.76269
8.6764 105.352 10.3693
-14.205 121.124 7.59191
0.940535 134.367 1.4946
4.03631 133.589 5.40491
0.569011 125.036 0.652605
-15.1233 119.863 9.64953
2.94473 89.3015 10.8193
-14.0013 123.93 -2.01152
6.89315 119.187 1.72369
9.71275 105.783 9.8876
-19.9436 122.482 5.80889
-14.9473 123.166 -0.280204
15.5765 107.738 2.04821
5.06207 100.42 12.3062
14.5122 88.0935 6.25327
7.76729 83.9134 1.24602
-5.77829 125.314 -2.22237
-19.0809 125.056 10.5712
15.1029 99.9481 14.5492
16.9929 88.8874 9.74076
10.3954 108.801 0.361436
8.2247 109.398 -1.83755
-10.3203 102.76 -5.20121
-14.4758 94.8891 -2.05288
6.09499 105.205 -3.44021
6.44369 83.2136 1.03456
-11.8175 115.756 -3.7084
24.3728 86.172 13.9094
5.18023 93.5946 13.4222
-18.5841 119.086 8.78908
-2.66804 98.3855 12.6493
14.1009 99.5732 2.08707
-14.419 87.3997 0.135583
15.7624 107.188 5.32112
12.5729 94.8971 11.9411
-9.39061 117.03 11.3736
22.2796 80.9941 10.9635
-12.8751 124.298 11.6931
-1.29132 133.625 4.89017
26.4799 82.5825 14.8881
-10.8293 146.909 6.61513
13.5198 79.8181 6.90705
-0.358337 95.4657 -1.93733
-7.87702 77.9832 2.88677
-2.47651 135.983 4.7665
-0.0608361 106.82 -4.78261
4.44358 113.534 10.6758
-3.34152 100.143 -4.81502
-13.6867 125.154 2.43488
-18.7061 129.454 6.41553
16.4461 107.013 5.52581
-9.89243 143.055 9.24508
12.5601 115.752 0.00726907
17.8995 104.646 10.2695
18.0251 104.17 6.84302
-5.28942 79.9318 0.378776
-14.6633 120.693 6.7316
-12.9505 122.04 3.07284
-14.7958 120.716 3.33815
-10.3905 139.029 -2.90922
-16.081 112.148 -0.970889
11.1917 106.096 -0.267681
-9.96432 100.44 9.52214
-6.83736 101.542 -4.82068
0.293014 123.815 0.384688
-13.1774 99.7627 6.38078
-11.9663 106.689 6.12976
0.358798 140.742 3.0021
-5.48303 118.526 12.9901
-5.75166 141.719 -3.70669
14.9304 92.3227 11.7519
2.76464 106.977 -4.2929
18.8859 93.8362 15.8539
-7.7902 96.4882 -5.45126
-0.709629 102.828 13.7535
-6.78563 92.9915 -4.46115
6.87424 111.09 -2.22065
-7.48438 139.397 7.90553
15.689 88.5793 7.85131
2.2943 127.93 1.34372
6.52162 78.5972 4.93435
8.04369 101.734 11.6084
18.0019 105.581 16.6074
-10.1311 97.2073 -5.01645
-3.73477 143.184 2.90685
-15.3879 125.678 12.0767
16.292 97.2238 5.25773
-5.80098 143.463 -3.69153
-12.9434 125.708 1.39272
-19.3645 123.46 6.0608
20.5928 89.9732 9.12158
-5.1608 153.719 -1.40792
6.59211 111.134 10.5212
-13.5572 120.98 9.63176
-7.68075 80.1754 -0.602121
-11.5586 107.403 -4.82634
-13.1499 132.822 0.603157
-8.5664 118.862 -3.86085
-17.6445 120.057 13.0789
-1.6697 141.489 3.37747
12.8614 92.0681 7.90159
-4.85709 88.7496 -4.07408
12.3923 95.9928 7.39791
-4.93454 95.0801 -3.97101
17.4084 86.6457 15.4085
-15.6853 112.898 -2.12156
10.3797 111.991 10.1583
14.9375 91.9393 11.5883
16.7689 108.426 16.992
7.88467 94.8918 11.4538
9.82984 84.058 5.23785
14.4375 108.642 5.16204
-11.5615 137.714 -2.57116
-1.70886 93.0704 -2.89345
4.00313 112.678 -3.20313
-13.7431 124.359 -1.85538
-9.5428 87.6679 7.01457
-14.0734 119.082 0.807776
-7.90209 106.575 11.2265
-6.19916 94.0488 9.25816
5.46874 127.004 2.09323
-15.4454 96.6841 -0.863178
6.84877 101.643 -1.73328
-18.4348 127.917 2.39629
-9.9391 83.9075 -3.68247
-13.8749 127.169 2.21547
-11.8889 122.22 11.6776
21.5676 93.7925 20.0806
-12.7368 81.2886 3.46753
-3.19969 92.9598 -3.4734
-14.577 122.755 -0.992689
4.6339 112.275 10.5475
-11.8725 92.6802 -3.22231
4.50002 119.748 -0.621259
-0.572602 86.1622 2.56091
-7.28132 137.939 8.74441
-16.5074 112.804 0.730978
-1.81841 139.819 3.40235
-8.6423 82.508 -1.40305
-10.442 95.1107 -4.60488
-15.2485 100.247 2.64077
-11.7612 79.3053 -1.43408
1.69636 98.9184 -3.12653
-6.0468 136.736 -4.56463
-12.9454 129.124 10.395
-14.3445 94.5697 -2.15693
20.4361 93.7643 8.5581
-11.2674 128.104 -3.11835
-4.03749 146.646 -2.32355
5.43042 95.5153 12.954
-17.1316 125.388 1.52814
1.5706 123.116 0.179835
-15.4222 120.263 7.95634
-2.31565 85.9924 0.4844
2.24951 122.082 -0.876858
-5.46447 113.865 13.3572
13.2325 100.427 12.1024
15.8916 101.702 15.4973
-14.4421 119.847 8.22231
-7.7953 139.294 -4.55834
-9.70961 122.261 11.0068
20.7983 85.3666 9.86656
11.2576 92.2083 8.05765
-9.03663 113.485 -5.04086
13.5196 103.257 6.31528
16.2448 81.761 15.0667
12.4117 102.733 7.1959
18.2641 100.838 16.6833
-14.3489 121.932 5.76704
-14.0422 120.573 4.09571
-2.79462 96.5285 -4.83465
9.27934 96.369 -0.878324
-7.1842 81.2866 -1.60764
29.1323 81.1118 16.7995
8.44365 100.215 -2.50769
4.06204 80.2886 2.11908
-14.4959 118.404 5.12368
-3.01519 133.816 5.22988
-1.63002 122.952 11.1773
-2.12457 138.559 3.4206
-15.2153 110.487 -2.5985
19.0337 86.7121 18.0803
14.8857 99.62 2.42009
-3.72995 81.4146 2.96649
23.1236 88.4559 19.7373
14.1298 94.4997 9.13934
17.9142 110.177 14.2105
-10.1905 130.38 -4.46759
-6.80729 150.999 1.96332
-11.5132 128.198 -4.63863
4.25363 126.624 0.976834
-9.83907 82.5318 -2.55463
-10.9673 83.1296 -2.45152
-11.4689 82.5141 -1.71365
-8.28331 78.8357 0.00996598
10.2931 100.476 9.32963
-1.66488 139.622 -0.220757
0.992129 86.5778 9.22338
-13.7762 121.358 9.75555
-2.87173 114.4 12.4081
12.8739 115.666 4.5801
1.16563 125.786 9.61994
26.0485 85.5784 19.2801
-5.58776 114.753 -3.82254
19.4153 92.1095 17.9141
3.54864 132.303 1.99626
27.0147 82.4905 19.4356
6.24732 100.119 12.3307
-2.38495 138.561 -0.688913
15.9453 83.2055 11.8823
-3.86343 141.499 3.34877
-5.82111 127.668 8.17238
-11.774 126.654 -3.65477
-14.5504 140.138 9.47686
-16.3658 125.951 12.6552
-10.3868 145.145 7.79554
-12.9666 121.243 9.78102
26.357 90.5665 18.8308
-8.40281 87.3702 -3.40238
-14.7303 130.207 10.2802
-9.47479 82.819 -0.370395
-9.27834 147.911 -2.63397
13.0451 111.589 5.63656
-18.2262 123.957 5.85173
-10.3457 81.7978 -0.454482
-1.03207 113.907 11.9128
-5.39719 83.5647 1.29564
-10.3129 85.2261 6.14753
-5.87088 87.2177 -3.94287
6.56085 91.8178 -0.543771
-5.63641 105.718 -4.84225
7.22656 122.817 2.39746
-5.52586 120.545 -2.56526
-10.9034 102.403 8.73155
-11.2581 125.35 -3.24302
-10.9678 100.632 -4.83644
-13.4316 119.78 -2.92487
7.2834 104.805 -2.65066
-14.0344 123.409 3.82861
-15.8554 115.418 0.634789
-7.76105 121.652 11.9457
-2.23153 109.095 -3.12798
8.25696 106.312 10.2
-12.2712 128.339 -2.06514
1.32728 109.469 11.4615
-2.30141 138.432 -0.602121
-8.91899 80.5906 -0.667265
8.37629 101.995 -2.54469
-13.1203 126.1 1.62302
16.225 90.2032 10.2568
15.3595 82.3823 11.613
13.756 91.5774 7.83944
-9.66657 82.386 -1.46563
-13.1436 94.0187 -2.88145
-18.5271 126.769 1.68457
-13.735 131.513 1.14146
16.3056 83.8743 4.88685
-10.1163 124.507 10.5749
19.6841 96.5967 7.66454
-1.96634 133.013 0.243769
-7.79069 84.4596 7.13623
-13.6945 125.475 1.87689
-7.70561 150.064 -2.47116
-2.8461 116.66 12.1182
-8.66703 105.532 10.6903
4.03548 90.6279 0.2449
12.4937 91.4969 9.98553
16.4217 87.8708 5.97477
-12.4203 134.582 11.6995
12.525 90.6363 7.49884
-10.5238 149.642 0.759075
-13.2881 107.943 -4.36517
13.567 89.1207 8.9088
-0.133087 99.2927 13.9572
9.19738 117.143 10.4351
1.70152 125.636 0.75788
2.70594 81.5423 4.77495
-0.0380279 96.1053 12.21
-12.1304 80.3181 2.57092
17.7452 97.5002 5.94336
1.83479 123.665 10.3888
20.4574 79.572 9.14071
1.67756 138.734 1.03233
-13.2397 81.7058 -1.95325
-13.86 124.67 -1.25147
1.61278 130.023 1.38257
-8.68701 93.4051 -5.1086
-12.872 114.378 8.05828
-7.49833 81.2747 4.08899
-15.3038 120.552 3.37107
-11.8227 81.3041 -1.36477
-4.50616 80.5275 0.441134
-5.98813 98.8514 11.356
-17.7143 134.672 8.6045
-5.30533 109.32 -3.85821
5.2 79.613 4.94637
-3.51703 116.767 -1.56857
15.9137 81.2931 14.4186
-15.637 88.8142 1.36257
-6.27766 126.016 8.09617
15.2564 82.0004 6.10393
-13.6843 124.143 1.79414
4.79851 110.842 10.6606
-4.39128 120.039 12.9609
-18.9544 121.203 11.6631
-11.7418 100.414 7.9192
27.0703 89.0574 18.6818
-13.6105 123.277 2.12161
-2.06249 120.621 11.6507
0.330366 116.974 -1.97738
-9.71107 79.3795 3.37767
19.2547 94.1951 7.1667
-15.4603 104.935 -0.357626
1.35781 118.919 -1.81595
-10.9144 100.146 8.76653
9.60486 85.1848 8.19197
-9.75464 126.102 10.7611
17.6738 98.9025 16.9788
5.17987 113.782 -2.77461
12.7006 105.435 8.88382
-4.34348 138.238 4.23468
-0.190131 115.944 -2.02768
-5.74558 79.6434 -1.509
-13.081 119.483 11.3785
-6.04527 84.3412 -0.425771
2.04879 113.595 10.8306
11.7842 90.1732 1.3434
10.6211 109.283 10.1135
17.4408 101.583 6.96873
18.5545 106.3 8.28559
-13.0092 120.712 4.31083
-9.25834 111.028 8.94409
1.22306 131.9 5.78397
9.93076 122.398 8.72227
15.139 88.8795 9.97293
24.7974 83.7785 11.8198
-13.9166 92.136 3.03987
8.55035 96.0494 11.8803
-2.7598 90.9226 8.9136
-10.5051 116.315 9.80877
-14.925 127.848 0.280571
7.86341 107.426 -3.66274
-13.8136 98.1026 -2.99089
-6.55646 151.397 -2.40692
3.00678 95.3247 13.4421
-1.22583 102.55 13.806
12.2383 84.9677 4.03368
-6.49395 79.4338 -0.305251
27.3572 83.4377 19.3372
14.8493 83.7006 10.4137
5.69329 96.4823 12.7039
-14.2477 116.097 4.13549
6.20266 95.9365 12.7796
-2.52 143.187 2.83246
0.262184 110.277 -3.81106
13.0538 111.326 5.84488
-15.7165 119.618 0.838631
21.6799 90.7918 10.3801
-15.6349 106.157 2.41629
-3.06306 129.326 7.71794
-4.63826 108.238 13.4125
-10.7031 145.905 -1.76663
-18.4777 130.523 8.21476
16.0855 94.5848 8.04306
16.8447 108.583 16.4692
-7.66622 117.937 -4.015
-14.7708 141.759 6.94054
17.604 85.6047 15.9495
-6.0348 154.604 -0.32407
12.6153 107.515 8.42028
-18.8126 132.187 4.88941
-13.8336 122.783 4.84069
-13.1587 82.2924 0.238146
-2.29414 120.483 11.8066
0.868617 91.3439 0.808984
0.700054 123.202 10.6642
-11.7068 144.08 1.29825
14.6238 82.7878 9.56316
-17.6456 122.651 3.4745
19.788 101.841 4.44431
4.20504 120.466 10.3228
-8.78699 102.007 10.4318
20.9161 100.492 19.4313
3.73881 107.152 11.2742
15.7593 108.981 5.18575
-13.6323 120.367 7.24854
16.7719 83.744 14.8569
11.0377 89.2508 10.0446
-8.72834 135.27 9.80642
-13.2505 128.411 10.5351
-12.3481 141.567 -0.237725
11.439 121.304 7.76268
-9.63137 121.507 10.9374
29.1971 86.2523 16.2303
-0.577314 86.7345 8.9493
-15.3859 93.2855 -0.572351
-10.4389 117.583 -4.33156
8.19584 87.0068 10.8775
17.0394 92.9093 6.68736
-15.7924 138.415 9.33589
0.375597 90.7386 0.879425
18.1732 101.7 17.2795
3.39487 120.15 -1.18513
-13.1677 117.921 -3.01526
15.9801 102.176 0.350142
-14.6487 120.728 6.57433
-13.8419 125.931 10.8151
13.4965 93.7531 7.82792
-0.213148 81.6323 4.60119
-14.8794 98.3252 -2.31004
15.632 82.3745 12.5411
11.8566 97.0325 7.59867
-13.4325 93.7938 -2.70436
-14.8744 120.464 12.8244
13.7037 98.3725 3.49655
-4.71316 134.771 6.39041
14.1237 96.9409 10.1599
-9.55612 116.555 -4.55916
17.8593 99.2932 4.98444
-12.5616 123.721 10.1218
12.7578 91.5538 9.17822
-11.036 88.6558 -2.04202
-11.0816 145.228 7.77681
-4.36259 129.715 7.43253
-10.5001 78.9307 -0.336819
-9.69193 82.002 -2.26646
-4.09395 123.217 11.7759
28.9397 82.6366 17.2999
-15.2207 100.528 -2.03226
21.241 99.95 19.635
-0.514942 112.678 -2.69197
-4.41543 142.845 2.93356
3.57348 101.057 -2.73987
-11.0165 82.0913 -1.73589
-15.7285 110.978 3.88487
-13.0392 116.841 8.49191
1.7921 111.105 -3.72289
-3.07778 88.7126 -0.990131
8.75284 85.3439 9.06127
-0.998616 116.168 11.3857
7.34137 124.286 8.26328
-0.0889272 81.991 5.42559
10.362 85.7553 4.03044
13.8149 100.116 10.7354
-11.5901 147.005 1.64683
-10.1461 143.578 -2.82625
-4.30602 78.2377 -0.334393
-0.962483 95.0242 11.1757
-1.86575 98.3099 -4.777
-8.90759 89.7906 7.60696
-7.85468 79.8734 -0.475913
-14.1277 130.164 10.122
-14.8692 104.215 2.11688
3.75264 125.063 0.138109
13.7581 97.4686 6.67292
-4.52008 88.3854 7.90706
6.97946 82.9329 6.21213
-13.5489 122.794 11.0696
-11.3724 103.785 8.40086
19.2143 85.6652 8.7884
-10.7779 143.642 -2.22958
13.8269 100.286 0.920298
-13.4123 81.7372 2.9421
-9.11715 136.227 10.1241
9.81809 87.0791 3.3081
-6.8233 153.734 0.650295
-17.3743 119.508 13.0806
0.00675846 92.0715 0.583592
-1.40162 95.7596 11.562
-4.11398 101.581 -5.23885
-16.8871 122.752 12.9555
-13.3217 122.567 3.17859
0.834431 84.651 3.10418
9.22732 94.9005 -0.308346
15.0625 99.5033 2.85892
-15.6145 120.688 1.54232
18.3931 106.867 17.5719
8.69026 119.544 9.87106
-15.0929 137.678 2.77548
-8.34317 99.5228 -5.52654
14.2173 107.451 5.30974
-1.88293 102.788 -5.50699
-7.99531 143.168 -3.99705
-13.8354 124.393 1.67838
-19.1367 125.229 11.7685
-14.8607 85.3923 1.33123
6.83878 97.5817 12.4841
-13.6316 121.091 8.1891
-14.3619 100.197 -2.82105
3.08326 105.069 11.4245
-12.8428 116.312 9.143
21.9207 91.2071 20.018
16.8595 111.683 14.2428
-9.38347 151.454 1.04978
-15.2904 135.857 1.952
1.72523 135.897 4.36383
5.35943 111.605 -3.22213
17.5953 89.005 12.0283
4.06003 90.5288 11.9948
16.7486 91.3264 11.1236
-16.1844 124.291 2.17936
27.1717 81.4287 14.5006
1.35917 136.899 1.37258
17.8281 94.0159 6.76643
28.7492 86.7672 17.2026
-11.8254 121.003 -3.59275
-5.92092 106.514 12.4713
11.1671 96.9042 8.21779
24.8114 80.8962 13.9442
3.61976 129.332 7.07671
-10.6199 129.445 10.5675
-4.07348 128.388 -0.73537
-14.4261 123.821 3.08384
-2.69438 85.1328 8.20709
-0.78883 130.011 7.55064
-3.14221 141.893 -1.54971
-12.2508 131.076 -0.430349
1.00899 138.913 0.986621
-15.6608 99.9112 1.82745
4.91523 111.73 -3.22161
-0.243852 95.5096 -1.55547
-3.30668 80.4538 2.52135
8.93072 111.304 0.475027
12.4202 89.5753 7.09594
-15.2458 100.006 2.64447
-17.5711 130.908 11.4071
-6.5458 124.088 9.00583
13.5552 99.4166 13.8421
-13.3267 127.31 0.480697
-8.26661 151.955 -0.183053
-5.77319 142.567 -3.75069
2.51818 118.394 -2.46754
6.24648 106.585 -4.11874
-15.7411 97.4626 0.0553075
-14.7751 119.631 3.98995
19.5697 89.9785 18.845
-1.25952 76.9086 1.50736
0.56697 108.098 -4.4137
12.4376 106.98 1.04947
7.40434 78.4454 5.02778
2.17565 119.824 -1.74536
-1.8434 104.224 -5.14846
22.9931 83.9788 10.1173
24.6394 85.3689 19.7477
-9.46622 118.748 -4.0879
20.5688 85.9626 10.1877
-18.4979 126.686 5.3006
18.8112 103.136 18.3934
-5.75874 135.929 6.46628
-9.23012 143.678 8.71731
-14.0319 120.999 5.76214
22.2532 93.7261 9.56983
-14.0818 137.865 2.23751
0.519147 117.064 11.4392
1.90124 139.296 0.910947
-11.8398 113.608 8.0037
-12.623 142.067 9.78549
-10.7271 78.4342 1.40561
13.4145 86.309 7.34495
-16.01 109.63 -0.312962
-10.8955 120.719 -3.94277
-2.51452 96.3994 -4.66017
-9.89856 82.4493 -0.238455
3.00204 128.457 1.38427
14.3574 98.9536 3.30513
15.9995 94.2508 8.13443
11.2423 93.4086 1.1147
10.4518 103.6 -2.63681
12.5786 112.979 5.82823
23.1137 87.9949 12.8007
-5.45422 90.8266 8.91246
-9.40441 141.06 -3.18344
3.22863 118.812 11.2338
13.7978 96.8159 3.85903
-5.01102 130.495 8.10619
18.5094 109.457 17.0325
-3.9627 93.0859 -3.58672
-15.8174 129.48 10.4275
-1.50343 83.7801 7.87753
-13.6661 120.725 9.58122
-8.38882 135.311 -4.59898
11.894 98.7799 1.84771
1.99121 97.0666 -0.744148
-11.4058 94.2055 -3.68132
-15.2307 113.012 5.58142
21.3801 98.9614 6.96535
7.75828 116.665 11.0143
10.1135 119.41 9.48162
-16.4557 121.737 4.04349
7.14015 112.588 -0.349773
-14.0871 124.395 12.2213
1.69073 83.2794 7.37106
-8.20116 118.72 -3.78298
11.8636 91.1762 10.0217
-9.26286 124.714 -3.77537
-18.5564 119.546 6.93435
-5.51102 79.058 -1.92057
-5.02767 146.109 -3.11907
-13.2067 122.168 3.11969
24.5933 81.1302 11.6247
-9.28743 89.9553 7.56418
-5.5053 82.4835 5.29461
-13.0035 122.539 11.7471
17.8501 81.7295 8.36397
-13.6877 118.313 12.1313
-5.24542 118.228 -3.47459
13.9715 107.727 5.73029
-5.30983 132.525 -1.98461
17.0719 111.484 14.0309
-4.58391 151.633 -2.12812
-13.8386 85.1942 0.753731
-10.4344 125.038 9.74185
-10.2127 123.36 -2.74629
-3.14507 129.378 0.0586044
17.3338 86.7649 7.06576
-4.28034 90.482 -4.07853
-9.33937 81.1258 -1.4766
12.1389 78.9124 4.72739
-6.36776 145.402 -3.96023
-0.905371 96.2731 -2.9027
-15.0412 122.495 12.8522
-9.53583 122.887 10.9761
-14.2099 108.183 4.88684
5.35498 128.369 2.1833
-15.6253 127.759 0.324173
-3.22386 87.4724 8.32078
8.65388 125.248 1.73237
-11.4126 146.421 6.93293
14.5443 89.7057 9.29156
0.829305 101.469 13.47
23.928 85.1343 13.5536
15.6525 106.22 5.44686
18.6199 95.6389 17.678
2.10908 106.458 -4.49911
10.0232 119.792 9.48601
6.67452 88.347 11.5835
-10.1865 126.51 11.4128
-13.3575 118.417 8.91135
-17.4355 133.796 2.15487
0.540024 101.639 -4.8788
11.2634 98.0913 8.31007
-15.0824 106.484 3.27172
-6.8949 103.572 -5.1206
-9.15137 89.2786 -4.36773
-8.74199 90.6554 -4.74539
18.6915 107.03 10.4765
-14.9656 122.528 3.54225
10.9151 97.0189 8.54319
16.9937 96.5032 15.4966
-13.7018 95.7948 -2.88359
-13.5405 139.57 2.91379
12.5019 92.2493 8.53426
5.53881 87.2764 11.0566
10.4505 91.4845 0.40421
12.9343 96.9533 11.5422
5.85796 86.8403 10.6666
-14.438 137.182 1.95295
18.8648 83.8997 6.80406
-14.5625 121.037 12.784
15.3263 90.9453 5.08113
-11.3352 127.942 -5.05709
-14.4799 142.233 7.34125
4.59283 95.3077 -0.272977
-8.27925 122.496 -2.3822
-13.5277 121.17 5.98632
-12.7465 119.949 10.3299
-3.14953 138.241 -1.51552
5.76274 106.533 -4.33271
-0.967701 102.631 -5.32259
-6.38366 79.0763 -0.0317258
-6.06936 145.266 3.46864
-3.97525 82.1507 4.97542
11.8364 85.327 6.1307
-5.1143 143.014 3.37805
14.8489 100.556 13.8957
15.8004 91.2566 5.64142
-12.1765 131.776 0.166371
-8.47821 114.173 9.849
-13.4436 82.9732 1.3861
20.0075 101.358 18.568
25.5319 89.6731 19.3839
3.15885 115.449 11.1609
13.9039 84.2115 3.88332
-18.3831 132.208 6.55056
15.7123 98.264 15.216
-16.8983 135.358 7.92597
-15.0054 87.0464 0.696403
-10.3561 149.097 -1.14538
27.3751 81.509 14.6711
25.702 80.8608 14.1405
-1.64194 77.2083 1.63702
-6.05503 128.676 7.67148
-10.1923 88.1075 -2.22008
-10.3698 143.677 9.06594
-0.470297 81.7371 4.36181
12.3079 95.6472 11.8269
-12.4283 127.324 -2.33627
-13.0898 82.9071 -1.87024
22.3125 87.2287 12.0245
-2.76338 81.7614 2.56632
15.013 84.6477 9.45349
15 92.3092 4.77382
10.0031 116.856 2.41817
4.549 83.0744 7.20244
-5.25793 103.632 12.4856
3.0616 106.718 -4.22581
14.1072 97.0883 4.06747
14.2454 98.1349 3.9556
7.7482 97.7176 -1.5193
-18.719 127.816 7.15385
20.9928 79.5917 9.81986
4.78836 125.351 7.99356
-15.807 106.914 2.18442
-9.32563 132.086 -3.68288
14.8096 84.5977 4.3847
-13.7813 136.352 11.6717
-13.3012 125.488 10.836
-0.706591 83.9181 2.64658
-7.36037 93.2674 -4.64513
5.33233 110.299 10.6196
12.2501 85.5375 2.89293
12.7428 111.049 2.31496
9.59434 99.4825 -0.915572
-12.5662 106.386 4.92958
3.88097 108.488 -3.88218
-19.2186 128.514 10.5148
-13.9613 125.969 0.800518
0.839691 116.112 11.1821
12.4754 92.3518 8.42736
21.4754 86.9647 19.7861
-7.06641 114.242 11.8766
14.5695 83.6277 10.2509
-5.72245 77.9841 1.05222
-8.38461 124.632 -3.53174
-13.4842 127.005 1.90836
7.3827 84.8753 9.28137
-11.4821 128.118 11.4405
-12.5765 102.747 6.90281
-2.76253 99.9411 -4.82368
16.117 98.8545 15.9935
8.24611 119.114 2.33924
-5.44944 109.614 -3.8034
-0.501271 101.167 -5.20057
-8.27146 147.461 5.16251
23.9135 84.8363 12.7039
-5.58162 99.0477 11.6294
-5.95824 118.388 -3.35375
6.41873 90.8708 -0.197113
-9.16518 133.332 -4.10721
21.7245 89.6732 19.8553
-14.2448 82.5836 -0.57516
18.2152 94.7898 15.7885
17.7268 108.881 17.1424
18.4667 82.4952 16.6418
-10.6418 120.515 10.0819
13.4954 98.9476 2.76225
-12.0139 118.651 9.87308
-2.87705 96.4902 -4.81867
15.0176 85.8246 3.91289
-10.4739 133.715 11.0065
6.10295 87.2837 11.1979
15.3777 99.6227 9.86328
-4.99582 86.9408 7.49579
18.2984 89.4784 15.0089
-8.74775 151.632 1.09404
-0.0459535 134.89 4.54687
12.7386 87.4119 8.62057
-14.8165 119.875 8.48729
8.30619 85.0502 8.9743
-7.4338 112.663 -4.70693
-4.04702 145.088 -2.40712
-3.87861 117.825 13.4353
-10.8227 80.5234 0.766608
-13.3038 122.257 5.09783
-3.91105 138.11 -2.10845
-0.417081 119.865 10.9853
5.91259 122.915 8.59057
4.1288 80.7293 -0.10523
-10.6441 97.1196 8.70313
18.5933 103.987 17.9941
-12.8256 127.218 11.1291
19.2576 81.5531 17.6717
14.4031 100.583 13.604
16.4804 107.904 1.91285
-1.02643 84.4658 2.93033
-15.8979 112.78 2.9617
-1.85923 97.4774 12.3999
11.6275 90.8128 9.45149
-13.0622 121.266 3.85631
14.7738 92.0107 8.07825
15.5158 96.0481 5.38642
13.7324 104.561 1.03178
20.0154 87.6985 18.8732
-11.8272 107.579 5.32514
-6.86536 108.282 12.2333
18.726 92.1878 15.718
-13.9811 118.937 8.21419
-11.8484 131.511 9.45017
-3.47781 96.1217 -4.59689
18.1422 107.914 12.3605
-9.52646 82.7784 -0.362286
16.2581 93.4096 7.80497
14.3326 106.97 1.75122
-2.61932 133.656 5.21212
-9.73075 81.5399 -1.62527
-16.0034 138.55 7.76695
-20.2248 122.212 8.48374
0.472276 114.357 11.2443
-4.13222 116.695 13.4838
-0.133367 109.204 -3.80098
4.66742 105.905 -4.45073
6.96953 113.528 -0.0349789
-12.9328 127.248 -1.48727
-13.5019 81.5245 -0.0155449
-0.421336 96.4571 -2.14454
-11.1539 114.762 9.31273
-1.57515 119.286 -0.372163
-3.11652 128.591 0.0801044
0.782697 138.749 1.00787
7.78725 88.9865 11.2118
20.5723 102.471 18.6615
18.959 97.048 7.0898
7.48693 120.398 9.16373
6.63106 80.3991 4.63823
-2.51875 114.463 12.0779
-13.9852 131.451 2.32137
10.72 95.729 1.0989
-4.70362 83.948 1.33117
-15.9931 108.841 0.130103
13.0602 105.293 8.36204
15.2931 103.228 11.2277
6.67132 119.152 1.43942
14.6921 102.957 11.6544
15.3682 86.6588 8.93579
-2.33059 81.8455 2.62883
-18.4744 132.812 4.75534
-2.83872 145.419 2.14385
-19.8876 125.06 6.70718
6.31472 105.628 -3.59993
1.85008 120.651 -1.33366
5.26421 101.932 -2.04732
14.4555 89.7836 9.39065
9.358 83.6629 5.89793
4.93371 100.394 -1.29748
-4.89673 129.168 -1.47854
-2.3323 86.5746 0.363216
15.0635 93.1847 5.01327
6.45336 119.393 9.69587
-6.49974 79.2335 3.65376
-12.6406 124.194 11.6277
3.45238 93.3976 13.3861
18.2822 105.167 9.4129
5.19343 102.602 11.4442
5.21736 128.413 2.07207
-3.28857 99.5921 12.8809
2.30744 81.7169 5.11268
13.3131 100.689 12.1127
-11.6667 105.375 7.65737
-7.77112 85.1602 -4.43885
-6.02725 130.092 8.67523
-14.4003 123.291 1.51684
14.8093 105.215 5.35911
-6.26796 121.354 12.413
9.94801 91.8076 0.0536916
17.134 88.1764 9.53442
1.35208 127.155 9.25343
-1.03415 87.6737 8.91928
5.17195 107.318 -4.06987
5.81114 100.12 -1.12796
17.6859 101.272 8.11541
13.4766 93.1508 7.40828
12.1086 83.2452 4.40894
-15.0839 106.451 3.24763
-6.95106 90.2963 8.25136
0.643302 79.8191 2.99381
13.2427 90.4396 1.94538
8.44976 83.5855 3.55766
18.6412 82.3244 16.8896
13.6829 92.47 8.95207
-7.18803 115.417 11.5144
-13.0471 121.508 4.10434
6.76276 95.2312 -1.06405
-3.70342 128.872 7.39722
-17.9379 124.632 5.48254
-7.26671 83.708 6.09935
10.5377 100.446 -0.495339
-5.40786 124.357 -2.48778
12.3251 112.736 6.40933
13.3443 87.9635 3.1848
2.80291 136.182 1.66821
7.7178 111.713 10.5073
-14.3452 120.151 6.3072
-17.076 117.783 8.27698
-10.9575 143.962 -2.04184
17.6609 107.01 5.93834
-13.4837 129.701 9.69891
22.6726 87.4702 19.8221
-11.2001 143.746 -1.57395
16.0067 95.9275 7.32394
-10.506 135.149 11.2187
13.3911 88.4291 6.10858
-11.7795 130.466 -1.16323
-14.602 120.397 7.72647
-15.152 129.192 1.0068
-0.481365 123.18 0.419757
4.26698 101.033 12.2618
27.046 90.6913 18.2745
17.3991 108.583 13.5132
9.68019 117.959 10.0495
-4.16852 119.025 13.1797
-10.8793 145.145 -1.7671
1.66204 130.852 1.34642
28.238 82.9856 17.8111
0.844885 101.951 13.3202
-13.6929 122.044 -3.06354
5.68691 126.426 7.18228
-12.2544 82.6856 -2.07656
0.158568 86.2337 9.05026
-13.8934 128.584 1.39762
17.7982 88.7131 13.1371
-10.9591 147.491 -0.70748
-11.2901 113.483 8.1799
-6.57945 116.414 12.7266
-9.54485 102.1 9.92318
-9.74744 149.313 3.38546
17.3344 100.997 8.43243
-12.1959 122.828 9.93823
-6.18597 112.85 13.075
-14.5103 100.692 3.55983
28.7289 87.4235 17.0693
23.1394 84.0559 19.9627
19.9549 99.9523 5.52474
-0.0237979 77.6345 2.22211
-13.7767 119.241 10.0738
13.4099 102.239 -0.145901
16.1198 96.8421 7.06465
-2.96945 102.817 -5.2974
-14.7916 117.216 11.2891
20.966 100.105 6.03775
16.0147 87.2645 5.44815
12.5586 94.0559 9.12584
-11.954 83.2644 -2.9666
-6.33551 91.0768 8.6752
5.25814 132.672 6.21623
12.5047 90.5383 8.40771
-11.1952 128.098 -2.77393
-9.86504 121.614 -3.12858
14.7225 105.628 1.26993
8.85479 89.076 11.1834
-5.59185 118.79 12.857
4.13664 131.186 2.02836
-5.6051 83.5203 6.67901
10.4884 103.916 10.388
8.97452 102.143 -2.61178
-15.0451 120.778 -0.7338
14.8089 83.1671 9.277
8.34136 123.879 2.11576
13.1088 98.3107 12.5873
5.00675 85.9208 3.53162
-4.582 145.553 -2.80659
-3.35213 77.434 1.01165
-3.72041 122.963 -1.63313
-3.30723 144.875 2.32648
-13.8675 119.753 10.7981
19.1997 94.7539 7.22747
20.7862 95.953 19.7704
-9.25389 102.651 10.2114
-12.7618 108.492 -4.55583
6.70783 94.2312 -0.89778
24.7623 89.4592 12.8607
-18.8333 129.47 9.15419
-13.6137 121.491 -2.94297
12.3096 89.879 8.38752
-3.52096 114.585 -1.9386
-8.95533 111.995 -5.13556
-12.8676 120.387 11.4356
-16.7678 134.932 10.7316
14.5786 88.1055 6.43469
-9.85467 78.8712 0.223857
3.28142 121.232 -0.996652
14.5556 85.0564 9.92053
-13.4564 139.941 10.4811
19.5406 90.2943 18.853
-16.518 118.194 10.8546
-7.92338 82.8421 4.77683
3.06548 82.3397 6.03243
-5.43093 110.966 13.6899
-19.6391 120.655 10.3806
-8.35392 79.7638 -0.341764
9.57831 84.6937 4.35976
5.58303 114.73 -0.839494
9.17929 85.157 8.47099
-18.5025 123.874 6.20349
-0.844257 115.091 -1.73198
-14.0984 106.802 -2.92731
11.4823 80.7359 5.41392
12.9079 99.8314 1.42452
9.50022 123.989 8.66133
-13.0422 129.317 -0.487882
8.04055 118.969 2.49093
-12.4902 80.481 2.47952
1.18001 135.259 4.55929
20.2292 99.6065 18.654
-16.9125 132.072 1.23024
10.0054 111.962 1.42852
-14.8909 85.4202 2.6578
1.72825 78.7969 3.72763
-2.47842 132.654 5.29209
6.04477 94.3737 13.2521
-9.19767 116.542 11.316
22.1852 80.7607 10.8663
2.72429 112 -3.39989
6.60121 111.579 -2.13263
18.2663 106.637 10.9592
-0.71826 85.3474 2.9002
-13.2023 121.253 11.1384
-5.96754 85.9811 -2.10873
7.52665 116.6 1.92239
12.4319 88.2625 7.63896
16.0062 85.8894 5.37515
-7.91453 100.326 10.7777
-7.64641 145.519 5.49003
-10.4885 111.657 7.77901
-9.97171 82.1834 -0.96988
-10.7845 80.5222 1.08661
26.4392 91.2392 18.6977
-1.8324 118.283 -0.669959
10.1937 123.555 8.42131
5.61242 82.4417 2.34497
11.7254 116.165 1.51541
11.2054 108.157 9.7932
-3.21187 137.699 3.68132
-14.3288 109.836 5.63772
-11.0286 120.659 9.85538
1.83482 131.49 5.78961
-5.0957 110.858 13.77
-20.1312 124.586 7.89898
9.52932 123.351 8.88117
-4.42271 127.472 -0.979101
-6.4708 128.938 -2.60167
-8.72529 122.366 -2.46234
-1.62333 100.108 13.6063
4.16595 90.3144 0.230897
20.4716 90.8694 19.4803
4.983 124.879 8.07569
-11.542 103.501 8.19417
-0.89566 136.566 4.24974
9.67872 100.058 10.7198
-4.54127 81.8333 4.3483
-11.552 144.614 2.25712
26.495 91.7767 18.5157
-14.8755 126.864 2.10447
-0.3691 89.1657 1.1295
-9.04158 108.65 -5.27976
15.2889 111.967 4.99917
-4.72016 82.2187 5.2791
-14.4627 135.245 11.7763
0.273595 116.421 -2.16913
-19.2528 120.483 11.1022
-15.7168 123.709 3.2018
-12.2435 138.967 -1.47401
-7.2793 140.664 6.78291
-15.283 138.937 9.51461
12.1075 110.3 8.72213
-15.2064 139.378 4.17134
-18.9564 128.741 7.44257
16.4521 86.7608 9.10873
-14.1237 125.121 1.85112
2.99477 86.1341 9.60029
17.5979 87.6392 7.5828
-14.9719 98.8506 -2.38622
12.3975 90.9007 8.31299
6.82732 118.883 9.85062
-15.4714 90.8689 1.43518
-14.694 140.572 4.30583
-8.99282 86.7524 -3.50346
1.22199 80.4779 1.00386
16.09 82.354 14.5455
24.5936 97.0166 18.8012
2.38611 118.293 11.5771
-12.6395 124.761 11.1996
-15.1781 116.829 10.9643
6.08341 114.293 -0.559523
-14.3159 111.158 6.33612
-3.82903 123.351 -1.59579
-0.92207 82.3717 5.47642
6.04555 107.86 -4.00499
0.950812 79.4136 3.30656
-9.97048 137.582 10.566
-0.858448 140.096 0.274304
-5.58885 109.684 -3.81464
-14.7408 83.5011 1.73738
-9.59731 99.4284 -5.4106
-9.54201 125.764 10.7422
5.36972 129.625 7.2733
9.92636 98.5827 9.77402
-0.502269 115.994 -1.78755
5.20902 120.998 0.679818
7.22055 120.193 9.22063
-12.1713 106.255 6.03493
5.39524 82.8366 6.83678
-13.1309 113.831 7.57727
14.8662 87.9094 3.35463
-12.7554 125.104 -3.4183
-18.6493 126.215 9.6113
12.3698 113.124 6.16486
14.7833 89.5036 8.98272
-5.99876 102.76 -5.26349
7.20535 121.296 2.41373
-13.3951 125.051 11.263
-19.8487 124.849 5.38978
6.66911 126.241 2.37398
-13.2058 120.548 5.48503
-5.39488 144.799 -3.37777
-12.1656 84.8985 -1.11076
0.913916 97.4885 -2.05974
18.7055 88.7632 15.7492
13.365 99.8398 13.0871
4.75137 86.9124 10.5299
11.2043 95.8805 8.64492
14.6933 87.2918 10.3207
6.56314 86.9128 2.84735
6.69185 122.24 8.34491
21.2899 98.6793 19.6082
-5.61706 91.5015 9.14345
17.0627 104.179 15.9622
-9.8481 137.779 -3.74952
-8.78215 118.888 12.0328
-10.0759 77.5954 1.00803
3.96417 100.041 12.7598
-7.21989 144.323 -4.132
-13.4402 98.3187 6.0044
-15.6346 120.114 3.39642
-15.4749 129.504 1.32531
-3.51543 85.1552 0.427202
-11.7461 131.38 -0.472535
-4.82759 132.165 -1.46983
-10.9785 121.701 -3.77019
-14.1299 122.638 4.43458
-15.4549 118.926 4.39203
-8.97092 80.8753 4.12014
24.4043 80.744 13.3021
-2.46791 107.287 -3.70578
-9.93709 101.958 9.49487
22.179 91.0117 20.1209
1.37375 90.4335 10.1629
9.49508 114.013 10.5786
5.99067 127.03 7.2589
-4.54666 151.285 -2.13653
-13.7105 123.115 -0.534317
10.2285 83.3256 4.26094
-13.6445 96.898 5.1805
-10.9364 142.913 -2.28274
-4.20571 134.085 -1.49661
14.2497 93.1457 3.74236
15.2023 90.4709 4.62799
-14.9372 122.213 -0.704521
1.66456 83.1061 7.12566
6.87392 124.698 7.98609
5.83759 117.229 11.138
-14.4345 116.187 -3.00451
15.9645 100.304 9.63408
-4.06296 88.2778 8.08225
-8.23502 145.198 -3.88716
9.63582 115.675 10.4823
3.19055 97.4531 -0.672879
-12.802 96.0208 -3.20425
-9.9083 79.6554 0.933296
-6.36053 141.238 5.52395
-13.4485 143.56 5.59135
13.9292 89.812 5.89105
4.99635 82.5451 6.40299
12.0909 111.424 8.09429
18.0702 102.921 2.19583
18.5274 103.915 17.932
3.11029 115.933 11.2531
-7.42245 132.03 -4.46306
-2.12333 92.6837 10.002
-13.5958 83.1701 -1.63181
-13.7524 131.618 1.2016
-1.15399 108.543 -3.58793
-11.9963 140.476 -1.40683
-15.1154 116.514 -2.76837
-14.5171 104.806 -1.59919
0.431256 134.865 1.2634
10.5387 115.092 9.48932
20.4939 81.4882 10.4524
-2.75647 94.0036 10.2393
-2.93901 97.5273 -4.8013
0.55887 130.143 1.11934
10.3716 103.773 10.4752
27.0587 87.652 18.9375
-0.449519 115.839 -1.85993
-4.83006 147.659 -2.82863
-7.09731 145.322 4.74644
17.0501 106.064 15.6723
-14.979 117.658 0.704087
5.7184 104.096 10.9897
14.9632 96.8774 6.90652
-11.855 92.3235 -3.20021
0.861536 90.4209 9.89466
-8.07813 113.037 10.8584
-16.5934 136.513 6.09688
-7.25868 85.4896 -2.2309
2.47552 98.2457 -1.36752
0.0434347 130.927 0.934637
-8.22308 110.345 -4.99901
2.9585 80.2062 3.41617
-10.4727 150.006 1.54084
-15.9979 110.754 -0.880923
-15.4621 114.472 -2.4971
-15.2354 119.517 4.62047
-12.4124 92.4937 -2.90926
-13.5267 102.842 5.35561
9.62383 98.7341 -0.615097
-12.8526 119.703 10.3088
-13.7391 133.057 1.29875
-14.1453 84.1187 3.22
-2.33006 85.379 8.41999
-18.0459 118.327 7.83674
-6.99763 132.577 -4.17643
-5.23965 90.3535 8.70339
12.4976 81.3727 4.65123
-11.1515 108.38 6.21979
-13.6566 82.8813 1.67215
-12.0065 124.584 11.0681
-13.3231 80.1311 -1.02178
4.61468 90.1054 12.1261
-18.7355 126.214 9.16389
-15.4707 118.957 5.01855
-2.96555 120.777 -0.364985
-7.45254 79.6247 3.97419
17.2057 105.24 6.08241
14.3777 101.075 10.4984
-4.47225 89.3788 -3.47343
2.91566 96.8672 -0.463922
-16.5203 117.008 11.7421
8.13747 84.3036 4.38658
-15.2535 126.939 1.81764
-9.06068 139.013 -4.13315
-3.70275 106.873 13.6448
-15.9601 133.239 1.99241
10.6617 90.8647 8.7023
-14.4632 141.997 5.32177
-13.7706 103.974 4.63355
-13.0992 121.333 8.69779
-8.82811 82.5725 -2.76651
14.0115 106.62 1.63848
-9.63348 128.202 10.0322
-16.3143 118.662 7.5689
-11.1359 83.1481 -2.29995
-4.78908 125.639 9.02509
-14.9162 122.645 4.05527
-14.8598 141.78 6.38134
0.706216 97.1612 13.5862
-7.6129 80.6681 -0.780784
15.1865 82.2558 5.15785
-15.9644 102.845 0.481147
-1.90445 118.924 11.4897
4.56698 92.3046 13.3913
-18.8363 126.278 8.67521
21.4364 88.4124 10.3032
12.0393 98.4582 7.83527
-10.5248 81.3835 -1.79809
-5.35375 119.496 12.6118
9.37981 88.2728 2.16773
-8.40349 122.855 11.2084
6.81421 86.306 3.59278
-17.0789 132.271 1.25626
-15.301 119.7 7.50769
-7.55202 117.1 -4.29687
7.03578 106.215 -3.37562
-12.7136 119.76 10.4215
-3.78194 85.2018 -0.100286
-2.88228 122.349 -0.524742
13.3222 84.096 4.04688
13.1769 79.0734 4.93356
3.73317 115.959 -2.72265
5.50679 84.8547 9.35984
-12.2013 105.533 6.51156
16.3571 84.736 11.7224
15.2783 87.9288 8.71826
-13.0969 104.743 -4.12061
-3.93047 138.518 3.92352
-14.1695 119.885 5.22703
8.79179 101.367 -2.79295
-2.83996 130.362 0.122403
11.787 93.2811 1.59104
15.3466 100.654 14.1445
-5.07158 115.208 -3.55414
-14.8382 121.09 8.95
-6.92817 95.9234 -5.07023
8.63017 112.012 10.6211
10.2933 119.679 0.63351
-14.7145 120.18 5.43304
20.0753 88.4031 9.08804
6.02678 90.0779 0.13402
26.9757 85.4122 15.456
14.192 103.337 0.62985
-15.8895 106.053 0.265127
12.7255 91.4188 9.39234
-16.5498 136.085 10.4366
16.7957 113.241 15.9681
15.4327 97.8298 14.2595
-1.02999 142.859 2.41561
-5.55053 135.048 7.18154
12.6307 111.25 2.32515
16.5953 107.801 16.3339
15.768 93.5666 7.8947
9.2592 94.9649 -0.285736
-12.1157 84.4983 4.80739
14.3989 96.0752 4.51552
10.5886 99.628 8.80897
-2.33809 80.3018 2.42733
1.4346 88.1231 9.3674
13.4314 109.09 2.11166
25.1706 91.9119 12.5438
-11.9136 91.584 -3.13251
-7.11527 107.791 -4.53465
14.8536 102.164 10.6079
-15.509 112.87 5.08581
12.4799 90.7553 10.2919
-9.70233 145.164 7.71554
-12.2127 128.207 11.489
26.3149 90.6821 14.4091
-16.5472 111.523 1.93399
-15.2101 119.916 8.03737
15.4144 99.0381 9.84777
-9.75641 119.173 -4.0859
11.0766 78.6474 4.58221
-5.81965 153.324 -1.18779
16.6088 91.7959 6.52137
24.6729 85.0605 14.1808
-3.59625 86.7622 -0.845792
-14.9468 121.163 7.76828
14.4532 83.4492 4.18281
-13.29 120.766 9.79641
-12.9254 81.8651 -1.4869
-12.8335 123.762 12.2214
13.3806 107.662 7.26702
-14.7167 116.138 6.07899
-11.5468 137.894 11.0469
-13.1099 126.007 -2.92054
-4.66684 125.781 9.23851
-15.3197 122.385 4.47141
-11.3635 105.675 -4.47317
2.46169 111.048 11.0758
15.9219 87.9837 8.49024
3.9476 132.428 1.9548
13.3081 112.127 2.53837
-5.91061 133.348 -3.52806
-12.3544 141.836 0.200051
-5.93466 100.089 -4.96396
19.053 96.5613 7.14662
23.2215 93.7852 9.77207
-1.29932 130.156 0.855296
-13.4591 126.215 2.19593
-0.612507 111.949 -2.9293
9.8839 86.7414 10.3694
-10.4183 81.6285 -1.04671
-11.75 145.018 3.19892
-8.90958 112.228 9.80388
10.5331 105.54 -1.19471
-1.8575 102.509 13.8211
9.55562 119.869 1.23868
15.7969 105.215 13.1757
-10.0862 95.0294 8.50033
-9.84777 79.6598 1.5855
13.2853 93.6283 12.1651
-3.83026 115.794 13.3287
1.18615 125.808 9.62007
-14.3297 119.73 0.346282
2.54797 91.0262 11.2528
5.32374 84.7481 9.3009
-5.222 128.561 -1.73222
10.8135 98.6357 0.865433
5.09292 78.136 4.23415
2.45755 131.596 1.69935
-3.38313 140.748 -1.76634
24.0818 88.2183 19.9155
5.30153 89.1545 0.554206
-12.2276 91.8869 -2.98535
20.4802 84.8454 8.34545
7.22039 127.809 2.18711
-10.773 144.084 -2.22176
-6.9037 137.605 7.65076
-15.3243 103.696 -0.146273
2.05766 85.8822 2.49111
14.357 95.1462 4.56063
-3.97678 138.063 4.05534
-14.3621 89.7633 3.36307
-11.6171 112.005 7.48831
17.0659 97.9215 8.58952
20.9447 81.0735 10.6347
6.9157 95.0844 12.8219
-14.2896 139.558 3.28733
8.03863 118.978 10.016
4.74751 115.852 11.1516
-14.4582 120.907 6.65519
17.5919 104.383 6.69426
-2.58491 109.941 13.4747
11.2594 94.3336 1.2267
-14.3931 118.784 9.34091
-16.7351 135.681 5.46756
24.9864 87.8058 19.7613
-17.7776 134.623 8.66517
6.54622 130.84 7.52875
15.177 101.876 14.618
15.9959 83.5318 14.0074
-15.7733 108.847 2.78507
15.045 91.9819 4.75133
-7.7717 113.436 11.0626
3.301 132.344 5.67958
-2.2786 89.0757 -0.216
-12.5619 141.891 9.93419
-3.95417 124.423 11.4699
-4.80761 124.137 -2.00904
3.83837 124.111 9.6453
27.0909 87.5028 15.2698
-6.15405 92.7756 9.09187
-18.7265 129.281 5.79415
-13.4755 119.696 7.66461
9.68391 98.3171 -0.410671
5.02383 85.1588 3.85008
-5.78716 117.096 13.3914
12.2871 102.642 7.36751
16.3485 113.405 14.0081
-10.9088 95.4526 -4.11586
-15.4267 109.783 4.07341
-11.9594 88.7571 5.35716
-7.68194 151.4 1.53197
27.9582 80.3655 17.1245
-14.8903 97.7417 2.97427
5.98344 97.4583 12.7369
-16.1533 118.121 10.5062
16.2599 108.168 1.94404
13.935 92.124 8.05497
7.68666 91.7054 12.2317
-1.70873 99.85 -4.93994
7.5232 128.547 7.82831
-1.21518 131.1 0.759881
-4.83068 137.67 5.45258
1.08225 132.012 1.23678
-12.5902 132.586 9.98859
-9.84523 134.806 -3.60819
-12.4625 93.7065 6.19927
12.4319 116.69 5.39155
12.7032 91.9081 8.99319
11.3724 85.1481 2.70693
-1.27747 97.617 12.5947
-3.65932 135.102 -1.21292
-13.1123 142.948 8.89384
-15.1397 122.209 3.60435
-6.93557 112.547 12.0905
-11.8176 124.184 10.5255
12.5829 87.6014 9.68084
-11.7701 142.981 9.414
-2.59084 116.87 -1.29133
4.57051 120.898 10.0203
-6.11053 80.807 0.517879
8.68116 90.114 0.612237
-11.6268 80.3313 -1.42012
-15.5105 90.1177 0.419031
-10.2443 81.8056 -0.733929
8.49918 109.028 10.7319
17.5897 85.4753 6.87687
20.5281 99.1029 6.39167
-4.83027 151.735 -2.20702
-2.67997 115.536 12.0836
8.88276 106.439 -3.30461
-15.2184 115.17 -2.87214
13.9785 106.628 6.40106
3.71294 100.512 -2.31411
12.1611 95.6703 7.36976
-6.0933 148.832 2.43077
-11.9266 81.9031 -0.821267
21.8068 101.2 19.1472
-13.0673 119.272 11.2111
4.42146 128.802 1.44075
-8.13304 147.353 5.0739
6.95777 110.801 -2.43632
9.02395 81.5512 4.38215
26.7397 82.5466 15.012
22.3345 95.3151 8.69469
-17.4524 134.11 5.91767
18.6051 104.363 17.8402
0.216284 128.722 8.37945
-7.47743 103.233 11.1533
21.1569 89.4394 19.7598
1.19593 93.3536 11.9962
10.6589 87.9754 2.96285
0.359547 81.1779 4.08139
-14.7813 120.376 6.74648
-15.7511 110.971 -1.42824
-3.91305 120.523 13.1773
-14.5417 105.518 3.02154
14.5142 85.5948 7.30189
5.97547 89.7819 12.4778
-9.43098 100.894 9.91882
-14.1667 88.6882 3.92739
14.1648 110.447 5.00836
-18.092 133.132 4.41945
-7.95843 101.001 10.8109
-10.886 136.289 -3.22721
6.94984 103.478 -2.2578
17.6235 92.7703 13.9965
15.9994 84.7643 10.359
-2.25605 132.917 5.05943
-12.2316 83.467 -2.10957
-4.92855 144.171 3.00768
14.5241 85.1743 9.16835
-4.99412 78.874 3.05801
-14.0953 120.314 6.92069
-1.69625 136.871 0.41154
-6.73328 106.484 11.8539
-5.22311 106.918 -4.38675
-12.6342 137.307 0.0762009
-0.436713 96.8957 -2.2284
12.9869 93.3571 7.9926
3.45118 115.681 -2.88049
25.6542 83.3214 13.2832
16.5901 83.3679 14.8296
13.5768 107.838 6.67629
-3.40501 113.274 12.9888
-13.0882 126.634 -3.2472
-10.0412 125.165 9.27877
5.12371 81.2205 3.88899
4.81387 116.175 -0.911556
-2.32297 84.9683 8.22108
-4.90987 116.111 -3.17404
-14.0897 119.486 8.73462
-12.8856 122.015 3.56944
12.2642 111.431 7.68085
-9.09976 79.7484 0.589904
25.2954 83.8174 13.4051
14.5939 91.4596 9.43922
-13.993 117.527 7.02149
-11.7584 126.214 -3.33813
4.68749 127.602 6.89027
7.61438 117.053 10.9211
7.30975 110.599 10.5865
-17.7916 123.451 5.7985
11.0377 90.5678 10.3445
18.3079 95.7638 6.75583
-10.3865 83.1341 -1.54409
-4.8212 86.4308 -2.14732
0.0775239 120.797 10.7391
-9.91698 82.9841 -3.18685
-12.8802 118.473 9.48608
28.8254 87.3728 15.3324
0.356581 135.422 1.20201
-7.91546 80.4846 4.11201
19.7714 101.556 4.70235
-5.18337 118.97 12.8668
12.1551 117.245 6.11664
-7.00503 84.1019 6.9507
-12.3537 118.937 -3.38338
20.467 95.7978 8.29704
-8.06754 78.8086 3.31018
-4.01273 86.2428 7.80986
10.9236 85.7298 8.34046
-14.7892 119.385 1.91424
-13.2514 121.851 11.6343
-13.3299 81.29 -0.48207
-16.631 121.136 3.71672
-14.7056 89.451 2.96116
-9.42372 78.9513 1.94347
-14.2047 120.179 8.53661
-11.5288 124.435 11.0823
3.27295 125.25 0.112792
-9.6118 113.997 9.00327
-6.35912 135.371 -4.65692
17.6562 106.518 12.1264
16.7758 88.3008 6.45598
-6.72691 106.386 -4.93596
15.2732 96.5365 5.20347
3.79177 80.2686 1.60329
-20.1763 124.048 8.16072
-17.1056 124.896 3.76773
-0.881796 81.2141 1.51943
22.022 89.443 19.8146
8.14459 89.4615 0.902582
9.57371 85.4147 2.11849
-4.01353 107.454 -3.82432
6.51092 100.7 -1.35055
-10.3085 89.8677 7.01841
9.79922 110.86 0.835582
-1.27312 87.4131 8.86865
12.2274 92.5203 8.22021
25.687 83.6249 19.987
-15.0408 120.372 -0.882552
-12.2335 80.5371 1.44042
5.73421 132.258 6.58224
-13.4027 90.3263 4.62801
-13.8438 121.111 4.77821
-3.68182 87.0779 -1.12857
-14.0956 119.452 9.45625
14.1222 81.4634 5.96814
9.43068 91.2099 10.0663
-9.55244 81.5509 -1.27231
-15.6088 118.138 -2.03246
-3.8053 130.085 -0.438734
-18.9974 126.451 11.6892
