ply
format ascii 1.0
comment Created by Open3D
element vertex 1937
property double x
property double y
property double z
end_header
-33.4658 95.3736 -0.019189
-26.0878 147.556 4.99332
-32.8037 94.9845 7.42229
-28.6149 135.122 -2.92417
-26.2143 90.7373 13.1878
-18.7577 132.035 -4.33406
2.22107 116.426 -10.3652
-16.6425 130.214 10.8049
-10.3818 122.589 11.4554
-33.5987 131.796 2.13006
-12.522 83.1003 13.2748
-33.5714 140.613 6.19357
-35.6665 141.045 3.5916
-14.8859 136.137 -5.02591
-32.6066 140.587 2.38898
-4.04673 110.562 -11.8667
-9.59454 120.073 -7.92214
-23.6685 146.598 6.52628
-29.2367 104.844 10.0413
-26.0012 132.489 -1.84785
-32.9338 96.0021 5.20667
-7.58387 140.375 4.1658
-19.4699 110.99 -10.4325
-6.62364 126.233 9.23586
-9.9093 89.3957 14.4706
0.00499628 146.569 2.92688
-16.3718 143.891 2.91873
-17.1733 147.546 5.72982
-9.41449 140.825 -4.67376
-4.32295 96.6472 12.1082
-4.5641 129.959 -4.4689
-30.3976 130.147 0.717273
-27.4588 129.11 -1.1202
-5.42001 139.978 4.70022
-27.1039 83.4197 -9.07575
-31.1764 105.862 -1.92531
-22.6008 140.31 7.24998
-36.8773 83.9444 6.25051
-19.3916 136.906 -2.77184
-16.7979 151.158 4.03712
-1.21539 146.783 2.97849
-17.3599 129.114 11.9901
-13.4349 151.46 -1.60076
-32.8535 96.9775 4.64547
-39.0022 137.547 3.91439
-14.0164 102.195 -11.8425
-15.1972 111.358 -10.0838
-10.5883 129.956 9.87152
-10.1102 98.9248 12.8162
-13.601 83.3871 -13.3134
-5.53817 144.998 3.70532
-16.1842 130.676 -3.67627
-16.0686 136.876 5.0992
-10.9639 154.351 -1.09869
1.66191 121.3 6.21633
-31.4738 105.478 -1.41032
2.69847 86.4541 12.6632
-31.5293 100.051 -0.490529
-22.7766 80.3812 -11.3745
-14.0214 119.087 -7.27832
-19.031 82.4958 13.0707
-16.1155 93.2414 15.1608
-28.1049 129.116 -0.109387
-30.4629 108.775 -0.678166
-25.9507 139.539 -1.97485
-22.2529 149.415 5.11139
-1.03151 96.1388 -13.0195
-32.9588 141.841 2.44121
-29.8523 112.117 6.53476
-7.37857 137.436 -3.13865
-31.0837 82.7472 -5.89555
-6.92019 132.713 -3.31644
-24.5527 125.106 12.0491
-20.3033 93.8488 -11.0394
-6.332 118.114 -9.87486
-6.06136 98.9312 -12.8636
-20.6528 144.689 -0.886307
-35.1095 131.905 4.21422
-29.8347 102.606 8.29396
-27.4855 129.314 -0.476069
1.0293 78.8879 -9.76295
-35.0609 83.3168 -0.395393
-30.3524 82.9332 -6.6744
-14.8658 139.227 -4.63395
-25.3686 141.235 -1.9496
-15.3654 93.1122 -12.0129
-29.4793 128.764 1.94885
-33.0907 139.166 6.26985
-35.7596 132.278 3.38549
-9.40516 84.1945 12.9635
-16.1918 119.988 -7.32962
-8.68475 75.676 -13.4379
-20.3618 88.1014 -11.9776
-34.0023 93.7588 6.55335
2.32064 81.1173 12.2363
-26.7664 147.058 3.73122
-2.86744 152.609 -3.45856
-26.555 137.508 -2.1232
-16.3373 114.101 -9.62428
-34.0678 87.2375 -1.81514
3.53438 125.76 4.97264
-3.54829 135.425 -2.44541
-29.2676 128.877 2.47973
-37.3344 133.274 0.778075
-16.8242 140.957 4.55929
-11.7872 150.202 -4.71016
-3.76005 132.472 7.38087
-29.3576 143.907 5.87794
-33.6593 80.7923 1.24058
-30.3379 128.995 4.72665
-5.84715 89.2573 14.2085
2.75594 130.188 -6.06273
-28.1925 115.308 6.43715
0.575173 102.512 10.4147
-18.3102 123.178 12.6038
-31.2993 103.559 6.61741
-0.195044 75.9754 -9.40909
-1.5673 88.6669 -12.4603
2.33464 146.948 -2.94986
-22.8283 129.779 8.86922
0.841167 106.292 -12.0834
-0.724358 123.572 6.6076
-30.2462 102.805 8.13426
2.80123 105.166 9.75929
-22.8968 104.702 14.4246
-21.4392 130.081 -3.594
-22.427 133.315 -2.80389
-29.3479 137.202 7.57055
-6.43683 86.986 -13.0978
-26.8818 134.777 -2.08359
-27.7649 122.464 -3.67577
-7.54701 118.47 -9.91014
-25.646 79.1224 -10.6583
-32.9637 137.368 7.53419
-29.181 129.861 -0.00393953
-9.72379 99.7007 -12.0623
-24.9889 106.635 -9.39275
-23.4899 82.5145 12.7529
2.75338 141.452 -3.70572
-7.52488 154.398 -0.0644115
-11.8303 108.049 -12.4248
-28.3238 141.135 1.18908
-29.3703 89.0298 -6.65591
-32.4289 81.6296 8.19009
-26.0979 130.921 -1.4885
-30.8212 134.618 -1.1322
-4.21208 145.255 3.55248
-9.9171 124.488 10.9574
-16.4949 129.118 11.9167
-31.6575 100.554 -1.24428
-21.1244 130.498 10.9232
-34.0558 87.0553 -1.90248
0.524998 100.279 11.4123
0.511915 100.632 11.2006
-29.466 108.353 9.12955
-36.2855 132.28 3.67774
-28.3896 92.6162 10.7022
-28.3783 120.403 3.90081
-12.3715 116.121 -8.77564
-0.446437 145.471 -2.89542
-4.07239 135.162 7.25635
-35.1627 89.3072 4.35133
1.80938 122.086 -6.43297
-23.5275 143.808 7.56268
-4.45413 106.693 9.8718
-19.3571 122.08 12.6999
-11.6033 91.3302 15.041
-31.6578 132.204 6.5384
-27.8765 115.866 4.91782
-15.6881 118.019 -8.05693
-19.5978 90.0035 -11.587
1.06044 86.6823 -10.7936
-6.72697 123.241 -7.9771
-35.0846 88.9257 8.10523
-14.1325 115.541 -8.98152
-11.072 115.01 -9.91061
-23.5176 146.985 6.3392
-26.9908 123.346 -5.8936
-22.6566 82.3263 12.7019
-22.6609 97.2717 -10.1545
-9.17826 95.2332 13.0262
-34.2473 92.9059 2.98759
-27.8842 122.185 -4.58846
0.809843 86.9484 12.6146
-13.6204 88.4551 14.3841
-29.4251 128.959 0.9463
-6.16003 111.039 10.0946
-4.48768 77.2938 12.0103
2.28811 113.531 -11.5115
-10.5999 114.37 -10.7383
-26.8011 123.406 9.86891
-25.5157 129.834 -1.65844
-19.2543 78.3675 -12.7774
-27.6986 132.488 7.30152
-8.99047 118.897 11.2239
-10.3955 130.551 -2.8298
-28.2578 123.749 0.534335
-24.4296 126.331 -5.75628
-2.56283 122.135 7.30131
-28.0156 129.7 8.0448
-17.537 138.972 -3.96742
-10.6326 85.3761 -13.1407
-2.85629 118.055 -8.60675
0.748556 114.302 -11.0316
-28.461 129.022 0.382616
-11.592 80.2188 12.7063
-19.9149 140.545 7.06233
-2.70377 107.516 -12.347
-36.1441 138.883 7.02269
-19.8311 143.109 6.82991
-13.8504 130.451 11.0935
-1.74477 79.6374 11.9963
-5.39979 131.83 -4.15376
-26.2362 143.503 6.21156
-22.8218 97.0023 14.6365
-30.0317 116.737 -0.241372
-11.6064 146.056 -4.87038
-29.5076 103.438 -6.08282
-2.96021 125.078 -6.42781
-13.1448 96.9532 -12.3514
-1.86597 95.9468 12.803
-12.9632 137.771 -5.52107
-12.0205 113.614 -9.92528
-26.4541 82.4658 -9.56066
-21.5908 90.4638 -11.6498
-12.2632 101.595 -12.0397
-9.19976 109.1 12.2121
-3.22916 140.393 4.65877
-16.6132 143.771 2.96758
-13.3349 152.454 -1.19044
-23.9548 88.053 13.9964
-25.3993 143.308 -0.196303
-34.6076 141.817 4.30557
-0.125026 133.484 -4.3768
-29.5979 99.3494 -6.82075
-27.8927 92.2047 11.3593
-13.5709 106.7 -12.3462
-19.931 140.264 6.86781
-22.9545 105.724 14.4356
-28.4146 136.905 7.58925
-22.7344 143.601 7.56601
-16.4696 122.572 -5.42299
-5.21658 80.1817 -12.5383
2.47083 136.195 4.63728
-25.8933 100.873 12.2369
-5.67343 94.4086 -13.4511
-14.8341 139.136 5.51214
-33.8862 86.9155 -2.27045
-9.42809 152.086 -0.335581
-34.4702 137.532 7.51713
-20.3557 133.012 -3.84067
-14.3704 133.133 -4.52685
-26.8773 120.692 7.02953
-14.4341 129.979 -3.02641
-8.70292 147.103 -5.51786
0.908961 138.886 5.06909
-31.9681 93.2256 -4.03574
-11.9096 93.4479 14.384
0.726449 132.716 5.95053
-11.1944 115.393 -9.50012
-28.7498 114.797 7.64841
-0.739259 114.368 -10.0031
-26.9849 140.973 5.54384
-29.357 83.5329 12.0361
-12.1163 101.287 -11.9919
-0.874363 87.4774 -12.0566
-17.6003 88.4625 14.4988
-29.9435 116.416 0.526216
-40.9468 138.783 6.34947
-28.8317 117.694 3.6905
-21.9671 93.1451 15.3173
-31.407 105.893 0.624217
-15.7579 104.338 13.9926
2.72604 135.493 -5.77303
-28.8331 116.276 3.11029
2.0648 87.0349 12.683
-34.1328 93.0657 1.6081
-31.3996 88.0478 11.3326
-31.662 98.7735 -4.76369
-18.5121 143.65 5.62889
-25.5413 106.857 -9.2683
-36.1769 131.003 -0.0941738
-29.3788 132.84 -1.42097
-21.8167 101.379 -10.4802
-33.402 87.2479 10.4751
-4.90597 78.3333 -12.1449
-31.7345 102.135 5.45428
-6.64483 97.9636 12.0635
1.46672 114.249 -11.3495
-29.8025 129.439 5.42761
-22.1003 87.8096 14.0682
-30.3814 84.9031 -6.45424
-37.0857 82.177 6.14838
-27.0525 99.5528 9.9399
-27.8155 123.153 8.14466
-5.55362 81.6625 12.4028
-9.09043 90.2851 14.7139
-4.67554 131.181 -4.27152
-15.8219 80.7659 12.7165
-28.3689 97.3472 8.69684
-27.1126 144.525 6.64058
-29.6878 111.328 -3.86074
-22.6949 149.217 5.22626
-24.861 133.762 -1.15687
-16.5667 77.7022 13.6277
-17.3237 144.694 -2.67112
-14.2686 81.5093 -13.286
-32.0671 143.058 3.00383
-6.96836 123.093 -8.09183
2.72608 124.307 5.39935
3.19594 153.771 -2.35561
-22.9099 95.7198 14.2905
-27.0668 143.1 6.06917
-30.9721 128.288 -0.800305
-24.4271 116.686 13.3366
-15.3744 82.7771 -13.2727
-17.4037 131.347 9.96633
-12.232 139.167 -5.17287
-5.36961 83.4399 12.8196
-27.9907 109.944 -5.69365
-26.7121 120.325 8.74375
-12.3746 154.066 -1.25931
-9.86495 87.0368 -13.2438
-22.8762 138.125 -2.81969
-8.14903 82.6891 12.6236
-29.9212 117.313 0.922078
0.687997 81.6752 -10.3037
-37.6943 138.941 3.38668
-7.54819 127.419 -5.83455
-16.4419 131.817 9.71727
-3.67573 145.901 5.00254
-6.60728 148.23 -5.06474
-11.5061 99.4305 -11.84
-21.5078 104.675 14.3346
-23.3897 130.945 -3.58572
-19.8045 81.3677 12.3452
-25.2591 110.949 -8.35667
-14.0995 96.9636 14.7021
-23.7275 106.644 -9.7143
-35.7313 136.158 7.33964
-14.1686 150.098 -2.15539
-20.0246 146.109 7.14989
-14.3325 80.2276 12.8206
-9.54323 146.469 3.05461
-33.6344 129.874 2.89562
0.740785 130.626 -4.92309
-14.4905 104.78 13.9941
-8.26758 136.947 -3.51438
-22.3518 133.385 -2.79904
-0.279811 119.677 -8.06897
-24.9082 95.9299 11.822
-18.4843 142.774 4.76186
-34.8114 134.605 7.23992
-28.4764 94.0089 -6.48345
-8.61916 95.0216 13.041
-10.9765 152.151 0.723908
-15.1176 140.288 -4.70166
-12.7488 107.078 13.4097
-20.3348 99.8052 14.9807
-36.7861 81.8243 5.05364
-28.3834 112.997 9.69253
-1.13699 130.115 -4.19073
-34.0013 93.6768 -0.806332
-11.7438 138.98 4.73515
-1.14912 80.5711 12.0227
-20.6962 132.385 8.57071
-25.5638 88.6433 13.7067
0.616176 135.48 -4.22171
-28.2676 128.777 1.52699
-27.6351 145.006 2.40121
-28.2921 126.86 0.220303
0.364899 88.257 -11.5451
-3.74074 81.5749 12.4015
-7.01193 146.419 5.7969
-4.18273 129.5 -4.48271
-34.7793 88.0886 -0.621089
-26.4858 130.164 -1.00248
-29.9102 132.938 -0.834985
0.44484 80.4858 -10.2144
-17.9083 127.958 -3.58674
-29.1165 109.499 9.11388
-25.2189 133.56 -1.72975
-13.3153 105.843 13.7343
-4.2783 136.364 6.38849
-5.003 112.945 -11.1721
-13.9542 141.821 3.98305
-19.0294 141.491 -4.26846
-28.7129 125.036 3.25836
-8.91734 137.444 -3.78646
-7.02704 111.146 -11.7535
-5.80744 129.526 8.71156
-11.6979 116.638 12.4144
-32.4205 88.4577 10.3056
-28.2904 113.967 -5.51898
-4.41865 90.0667 -12.8769
-25.4429 145.407 0.87727
-11.0122 86.2576 13.3395
-27.6459 128.406 7.91138
-8.81484 92.4786 -13.2684
2.87701 90.9914 13.2424
-28.1613 94.2675 -6.75959
-17.4991 151.621 3.51864
-0.560699 114.454 7.59627
-0.23107 119.312 -8.5153
-25.2756 104.456 13.491
-10.2481 128.711 10.259
-9.11132 127.457 -4.82476
-9.91481 105.781 -12.7571
-12.3732 152.314 1.80957
-41.3621 138.635 6.2518
-34.8585 88.1696 9.21068
2.23019 93.2121 13.5398
-9.96661 136.504 6.48918
-5.76664 89.3426 -13.0149
-28.0381 126.663 6.91436
-10.2205 124.058 11.0694
-38.1177 131.733 6.35274
-19.1016 109.346 -10.8953
-3.8735 127.284 7.93577
-11.7651 142.368 -5.01774
-31.1744 128.206 -0.0607537
-13.4584 125.737 11.771
-11.1633 126.853 -4.27839
-26.4149 127.201 0.817217
-0.788017 126.255 -5.31548
-1.95128 100.766 10.7675
-19.7665 116.705 13.4302
-0.0688699 122.408 6.46705
-15.1389 130.081 -3.02759
-31.1892 99.2251 -5.32284
-11.63 128.139 -3.46635
-12.244 88.4714 14.4134
-32.5285 128.999 0.595253
-10.0204 142.12 4.83833
-28.5906 114.288 3.00558
-2.29813 111.687 -10.4297
-2.34261 89.8888 14.2487
-10.659 122.598 11.5225
-31.3504 106.179 0.838547
2.09979 98.4525 13.0777
-22.162 106.499 14.045
-17.0917 117.994 -8.45969
-25.5969 93.2977 -9.20921
-17.7585 98.1549 15.0931
-37.1636 80.9331 6.20746
-31.9701 129.999 3.50872
-8.1673 154.486 -1.26348
-31.4554 102.064 1.56984
-3.46148 144.848 3.0933
-20.0551 125.375 -5.83482
-33.4677 132.669 5.59219
-4.09909 121.623 7.96851
-2.41842 76.8891 -11.1282
-3.51456 139.532 4.9976
0.412684 76.3777 11.6375
-10.7415 131.328 9.66088
-6.08686 91.471 14.61
-13.3559 111.14 13.2585
-36.4645 85.2776 5.985
-1.61794 123.846 -6.24468
-4.94757 95.883 -13.4455
-0.987124 93.2163 -12.528
-29.7415 141.53 4.64673
-5.89884 96.056 -13.4718
-22.4878 99.6192 14.8909
-25.3586 77.9759 -10.9842
-27.6068 125.563 8.99864
2.46121 126.316 -5.83558
-26.9342 98.3293 -8.85476
0.811128 80.0425 12.118
-25.6028 107.758 -9.24326
-29.4406 106.041 9.98252
-9.3748 120.053 -8.09654
-23.6452 117.304 -8.80128
-14.6926 112.853 13.4799
-22.692 93.142 14.5762
0.519245 151.395 -3.73877
-16.454 106.178 -11.3841
-4.41675 132.178 7.83293
-5.18833 89.6758 -12.9388
-32.2279 95.8406 -4.26308
-14.3672 139.764 -4.62965
-26.6249 111.454 -7.95343
-12.5113 144.061 5.15609
-10.422 133.514 8.92281
-4.53211 111.156 9.18268
-13.6081 150.243 -3.23597
-35.6659 80.6854 3.58622
-8.28651 153.469 -3.24566
-11.471 132.575 -2.55112
-0.652778 122.306 6.62492
-16.8268 145.752 -3.58678
-18.9509 142.012 -3.0564
-12.7975 123.969 -5.26626
-27.0748 143.925 0.842047
-28.786 128.845 -0.474035
2.71572 127.652 -5.73656
-19.9892 142.762 -1.4648
-17.4511 84.8271 14.0939
1.5707 95.6562 -11.7389
-22.0196 96.6864 15.0978
-21.9402 94.3308 15.0423
-16.1074 108.916 13.5227
-19.1766 113.514 13.408
-26.7911 120.61 -6.60918
-28.6931 101.294 8.85478
-11.8292 122.044 11.9607
-14.3344 89.9061 -12.5206
-24.0564 147.542 1.3504
-26.1132 84.1261 -9.72346
-28.1671 128.734 0.331997
-18.2125 143.856 4.82872
-16.1353 146.013 -3.69623
-13.694 117.538 12.3505
3.74901 146.689 -3.13864
-10.8781 136.44 -4.74492
-2.9178 76.9865 -11.3511
-34.065 129.389 -0.350342
-38.04 133.853 4.46012
-8.00284 81.6735 12.5132
-17.3732 144.841 4.02022
-23.0083 136.354 -1.47083
1.62135 143.606 -2.75957
-30.1575 131.934 6.95682
-19.0251 81.7181 12.6418
-27.7946 144.062 6.52973
-34.5625 131.202 3.78965
2.03704 118.469 -9.64441
-7.73425 137.366 -3.37977
1.43039 110.34 8.29958
-23.998 138.92 6.68084
1.39515 78.0565 -9.10986
-26.9302 88.3455 -8.4543
3.63228 151.042 -2.92034
-8.17605 106.891 -12.7829
-28.7717 83.7385 12.3161
-27.7068 82.0623 11.9876
-28.2576 126.491 6.57883
-20.2393 150.724 1.34711
-1.6099 82.9577 12.3166
-9.73618 98.2336 12.6435
-27.8083 127.348 6.64945
-21.1404 123.249 12.4899
-16.8108 130.341 -3.98684
-26.7702 127.582 -2.00774
-4.12767 108.59 -12.651
-24.9714 132.553 -2.57721
-32.0179 102.569 -1.4785
-16.7868 129.211 11.8916
-23.9501 128.108 11.7648
-39.6259 135.558 4.37252
-11.7741 81.9605 12.7527
-33.451 82.0297 7.35077
-7.12244 112.068 10.8215
-33.8847 93.0087 -2.20216
-35.456 87.392 0.282151
-10.1742 115.471 -10.472
-40.4848 136.775 5.28773
-11.4549 153.385 -2.91286
-16.2524 108.056 -11.6959
-34.9307 130.014 1.09537
-10.223 137.291 -4.57395
-6.34189 113.49 -11.2469
-1.07262 146.363 2.91334
-22.7047 87.851 14.0101
-17.013 142.578 4.03783
-26.8781 127.884 0.0915621
-25.4282 127.282 10.8516
-26.2566 111.516 13.2186
-5.56452 98.4629 11.7185
-3.65927 95.3375 -13.3535
0.84079 114.759 -10.8028
-20.7725 105.311 14.0975
-14.4494 90.3138 -12.4977
-24.7254 139.664 6.14454
-28.642 123.239 0.733386
-13.4737 122.312 12.0734
-25.8344 100.944 12.2971
-36.5332 82.3246 3.4077
-7.08973 152.663 -4.16568
-39.5991 138.368 6.28652
-26.9039 94.589 -8.2967
-19.4354 140.789 -2.25848
-29.9594 135.228 -2.36255
-40.3108 137.912 5.06092
-19.1592 90.6162 -11.6278
-22.5413 128.274 12.1635
-37.4785 139.941 3.92874
-33.6832 87.4855 -2.33767
-8.11589 131.495 -3.31855
-25.1122 128.518 -4.70582
-10.3467 126.486 -4.77947
-2.40278 131.796 -3.90745
-12.5083 151.329 1.71148
-5.42131 139.333 5.09153
-35.7251 135.869 7.31208
-26.9368 127.776 0.31961
0.809589 115.757 7.16165
-12.7508 102.275 -12.0898
1.99656 107.536 9.01306
-6.17171 85.1137 -13.0108
-2.53183 96.2585 -13.3157
-19.7711 120.055 -7.7088
-26.8816 127.878 -0.647799
-7.7039 153.499 -3.05657
-33.7672 80.4436 -1.11988
-3.36888 124.113 7.62352
-8.10893 148.705 -5.49729
-0.300589 141.467 4.35538
-8.34069 106.688 -12.7689
-9.75488 109.196 12.6066
-14.0478 149.543 -3.30884
-27.5634 115.945 11.5138
-26.8021 117.829 11.6395
-36.3935 140.838 5.52971
-8.58612 94.1557 13.302
-5.44331 142.385 -3.53036
-6.44582 102.553 11.6091
-26.0707 119.298 12.7242
-0.4204 111.808 7.99475
1.38704 122.686 -6.25871
-1.26048 144.744 3.2254
-14.9123 79.4233 -13.0138
-27.8407 129.338 -0.615258
1.55793 109.573 8.49868
-22.5383 148.984 5.61184
-5.35055 87.7163 13.9349
-9.88163 77.9567 -13.4943
-14.5738 107.095 13.5463
-24.5805 102.833 -10.0594
-24.3157 85.3087 -10.3723
-5.12842 92.974 13.8216
-2.78775 121.114 -7.50648
-4.5778 121.925 -8.22769
-19.2286 84.9498 14.0371
-17.1075 82.1644 13.1763
-25.4573 131.913 6.33546
-8.87407 131.987 9.10414
-10.1908 147.663 -5.54455
-27.1199 127.307 -1.36015
-7.84055 122.359 -8.08424
-23.6902 132.25 -2.95831
-30.9832 100.547 8.01019
-2.89714 130.604 7.15111
-25.8475 129.481 -1.86155
-38.5809 135.069 4.9359
-32.2139 128.964 1.42612
-34.3921 92.4589 3.26733
-12.2703 145.856 -4.67161
-19.5574 147.745 6.9018
-21.051 97.184 -10.1498
-3.56205 82.7052 -12.4461
-36.3374 82.9405 2.81309
-32.3364 138.597 1.77676
3.04629 143.03 -3.44699
0.112254 90.4737 13.8756
-25.6266 143.045 6.28483
-4.16593 97.728 11.7393
-25.4616 99.0193 -9.83556
2.54808 141.59 3.51096
-10.5648 76.8255 -13.6309
-37.5163 135.101 3.7554
-29.1692 115.677 2.07982
-14.3515 147.969 2.24225
-0.621652 75.4048 -9.48578
-7.28773 131.85 -3.60143
0.0620575 93.3042 13.9875
-35.5599 86.8732 0.385727
-2.72968 98.0857 11.7228
1.70057 105.918 9.4391
-3.90717 136.28 6.44177
0.926067 82.6027 12.1622
-19.2382 103.168 -10.7703
-10.8341 135.687 -3.98117
-19.2279 107.268 13.4487
-26.5286 144.193 0.87729
-26.6092 123.097 9.90283
-17.0708 145.855 -2.76777
-3.053 110.431 8.7499
-31.4595 130.303 2.57738
-2.66293 92.0056 -12.7414
-28.2159 98.0291 -7.78915
-8.31599 127.375 10.2746
2.25689 125.098 5.37014
-26.4033 92.0813 12.1865
-15.0553 105.333 13.8181
-5.8182 134.968 -2.30593
-0.41323 99.2354 11.6895
0.239094 100.117 11.3715
1.30129 118.127 6.66723
-14.5163 131.43 10.6891
-13.9664 137.261 -5.48141
-29.5081 109.602 6.32762
-27.0593 94.3459 10.6975
-24.6415 107.507 14.0609
-2.67142 79.6915 -11.333
-18.8277 145.101 -1.16062
-25.928 123.601 11.8749
-33.1125 82.857 -3.62646
-16.8933 89.545 14.3725
-5.11668 120.487 -8.77428
-8.13629 91.764 -13.4002
-7.61041 82.0999 -13.2803
-9.86729 95.5702 13.0924
-18.1331 95.6629 -11.0056
-19.6493 100.717 14.9125
-10.649 154.492 -1.17703
-22.3334 123.646 -6.81875
-28.7783 137.533 -1.40099
-32.4919 94.0455 7.98312
-2.29281 151.183 -3.94355
-30.6443 94.4403 -4.95031
-11.0824 101.419 -12.2458
-24.7654 140.678 -1.85252
-3.25157 102.702 10.2531
-39.2943 137.78 5.64061
-30.9992 106.866 -3.36609
-31.6569 105.185 0.268559
-27.2292 126.493 8.76626
-19.8132 98.996 15.1972
-22.1029 79.8727 -11.6827
-9.95385 120.015 -7.75131
-7.29805 121.355 -8.87624
-19.8454 131.528 -3.76625
-18.4635 82.6962 13.1359
-8.91699 126.454 -5.48165
-29.6458 101.347 -6.61446
-0.771933 98.5594 -13.1956
-9.62384 109.347 12.4999
-36.5269 138.032 7.14691
-24.6829 79.4828 -11.0878
-28.9859 124.819 4.90123
-3.77 110.686 -11.643
-32.0417 101.923 3.36323
-29.0162 128.308 0.181816
-1.49271 76.5692 -10.6739
-34.3233 134.963 0.931898
-31.0213 105.773 2.75251
-11.9065 150.039 -4.69598
-20.7145 136.339 6.40076
-31.674 83.6471 9.9214
-19.8802 98.7333 15.2654
-28.2606 91.7298 11.5387
0.191495 106.057 -12.65
-12.9375 151.078 2.12437
-15.9207 98.1631 14.8656
-15.5481 136.467 6.7725
1.02658 130.782 5.36276
-3.82451 150.544 -4.40743
-1.50945 118.543 7.28749
-19.5157 105.066 -10.3774
-3.67942 113.347 8.59989
-31.1079 91.451 -4.67291
-21.1836 143.089 6.95667
-29.5664 103.075 8.81019
-36.1579 81.1252 3.81552
-23.7921 86.7514 13.4839
-24.3796 90.9548 -9.93817
-18.1212 109.138 -11.1262
-39.1415 137.392 4.12445
-1.62063 134.346 -3.1026
-20.1405 142.1 6.88344
-20.7248 109.1 -10.3163
-2.38714 111.551 -10.4711
-32.4853 85.9263 10.4221
-4.68211 148.264 -4.43145
-6.78557 89.5487 -13.2232
-24.0471 102.816 -10.1945
-0.669372 86.4346 -11.85
-35.4517 129.868 0.438097
-29.1994 112.982 0.668439
-32.4576 142.195 2.59076
-13.6154 105.435 -12.2367
-29.2759 89.4243 -6.58683
-20.0991 138.801 5.91817
-32.7186 129.812 4.12757
-12.8087 120.139 -6.58053
-14.0055 141.04 4.68797
-35.0577 138.695 1.47906
-16.6253 103.82 14.1254
1.25664 144.772 3.48604
-30.3912 110.392 5.55413
-15.8178 100.61 -11.1373
-33.3195 94.7511 2.79366
-32.4709 140.642 2.46007
-27.9537 129.438 8.04915
-34.9982 137.275 7.5043
-20.305 115.62 -9.34199
-13.4632 120.339 -6.49033
-8.60224 98.9527 -12.4395
-17.0925 94.3796 -11.5207
-29.8102 128.004 -0.361216
-9.45688 149.899 -5.21574
-31.7678 101.325 -1.49032
-3.25374 138.788 5.2199
-3.90861 82.728 12.5328
-33.7754 88.6157 -2.19615
-13.7459 88.8427 14.5125
-29.7044 114.403 -0.11446
0.213952 103.72 -12.8428
-22.1984 89.9766 14.5241
-14.6571 87.631 13.8934
-0.856119 139.884 5.01464
-8.57669 135.108 -2.47484
-36.1369 86.218 7.46844
-23.0078 84.899 -11.1611
-26.8341 107.085 -8.14303
-7.5597 131.333 -3.6817
-31.198 108.272 1.64453
-34.7563 91.5059 5.09178
-26.108 130.72 -1.38385
-16.9255 122.238 12.6495
-25.9707 113.697 -8.3801
-29.1667 129.035 5.53185
-18.7416 101.86 -10.8008
-17.0615 95.7002 -11.244
-19.8951 125.581 -5.73744
-15.7609 109.819 13.4875
-16.0342 148.217 -1.69675
-10.7196 138.7 5.41436
-26.3926 118.725 12.5015
-25.0173 81.2101 -10.2745
-28.1239 139.429 6.20858
-17.2398 147.078 -1.12863
-26.5508 86.9409 12.9233
-12.933 85.971 13.4037
-25.5859 104.992 13.3967
-25.9628 110.237 13.4752
-18.5845 85.5737 -12.301
-0.00751362 112.192 7.88506
-17.522 120.218 12.3789
-32.5487 97.7443 -0.813202
-23.6739 90.5494 -10.1393
-27.5332 113.635 11.8405
-11.1016 130.576 -2.79438
-12.6887 100.029 13.4441
-8.99143 118.836 11.2377
-39.3407 137.932 5.80464
-3.38835 101.03 10.6466
-13.5085 79.6213 12.9034
-20.1429 137.339 -2.5476
-27.3081 79.4649 -9.64367
-19.5169 120.968 12.7189
-26.0384 102.524 -8.68422
-14.238 106.029 13.7776
0.216132 87.7686 -11.5321
-29.5369 92.5354 9.94865
-9.70877 137.369 -4.2643
-30.2412 79.7046 -6.57965
0.713217 142.896 3.98535
-18.3678 114.268 -9.85025
-22.5748 136.985 -2.46136
-30.0654 144.115 5.13351
-35.9674 85.5247 0.682261
-31.2157 128.166 2.13225
-28.5924 108.664 -5.49655
-7.17511 154.13 -1.41853
-30.3983 106.613 -4.95126
-33.6175 141.712 5.69999
-21.3445 123.059 12.4968
-17.0226 139.603 -4.1271
-29.5689 108.043 6.00998
-32.3399 85.8665 -4.15332
-4.32784 76.7505 -12.004
-17.3321 145.548 4.13229
-10.0476 101.904 -12.3429
-19.3499 121.07 -7.08527
-22.0679 148.609 5.96303
-2.12978 96.8235 -13.3172
-21.8555 81.8039 -11.719
-5.83241 84.6974 -12.8942
-20.2464 127.899 12.0383
-23.1578 149.129 2.33434
-32.1488 142.239 2.79444
-5.44049 82.2955 12.5386
-24.576 138.899 -3.21601
-23.0239 137.554 -2.65541
-0.0362765 113.248 -11.1947
-2.7293 113.274 -9.99898
-5.42014 96.019 -13.4775
-21.7778 121.386 -7.10041
-26.2617 141.994 5.74822
-28.0211 121.722 -3.19385
-27.7681 117.58 5.27052
1.99776 90.9286 -10.9473
1.2292 95.8461 13.6481
-8.3556 102.886 -12.3742
-28.903 112.78 -4.81585
-25.689 81.5103 12.1705
-21.1972 130.784 -3.7738
-1.64005 99.9275 11.076
-21.008 144.146 -1.07953
-36.8977 81.5282 6.99278
-13.586 81.9969 -13.5148
-27.1258 94.4219 -7.98064
-35.6043 131.678 4.02846
-18.7979 151.215 1.53567
-30.5944 86.0724 12.2438
-34.2594 142.014 4.3995
-23.1856 92.7476 -10.9614
-20.4748 149.088 0.367527
-23.3323 97.7767 14.3904
-34.1076 89.8468 -1.98241
-25.5072 146.543 2.34166
-25.7955 138.748 6.48266
-6.5825 142.747 3.70041
-12.4884 91.7949 15.0934
4.08635 154.914 -1.53619
-13.4519 112.473 -10.0148
-33.261 142.411 3.59888
-3.38764 123.834 7.63681
-29.9929 115.629 0.0119091
-28.6567 127.088 1.68785
2.17521 115.844 -10.6878
-17.913 100.606 15.0193
-18.3001 145.583 -1.10365
-23.8875 116.041 -8.9584
-30.4633 91.9616 -5.02599
-0.203134 122.758 -6.1893
-17.683 127.868 -3.51609
-32.226 140.111 5.55044
-34.9757 134.075 6.35008
-18.8095 108.591 13.345
-12.8723 85.1511 13.397
-15.1583 125.926 12.0473
-10.7798 125.578 -4.98594
-41.2557 138.687 6.27237
-20.0752 82.615 -12.344
-26.3507 97.8602 10.5794
-32.2103 98.3353 3.68013
-37.5959 132.105 5.24174
-27.5448 118.958 -6.05286
-5.78987 109.806 9.85036
-22.7243 122.831 12.8385
-18.3091 141.97 -4.3382
-6.25358 139.769 4.64951
3.1186 114.559 7.3726
-23.4902 148.862 5.00924
-1.67352 78.7707 11.9777
-12.307 91.9038 15.1028
-12.4295 83.4712 13.3081
-28.0874 121.731 6.38533
-6.93027 100.487 11.8406
-24.0389 109.629 13.9661
3.39246 145.712 -3.07241
-12.0766 96.2836 13.9857
3.70135 135.19 4.58209
-5.5188 137.838 5.73583
-21.262 128.105 -5.40775
-22.475 108.03 13.9979
-1.2835 115.963 -9.60407
-12.4845 152.899 1.30269
-2.0578 107.731 -12.0707
0.127161 96.1169 13.5061
-32.79 84.5974 -3.60756
-15.3054 151.12 -0.241954
-8.60726 153.505 -3.25277
-7.73424 145.945 -4.89498
-30.291 101.463 -5.81674
-33.3319 132.948 6.2363
-16.4084 98.5593 -11.1946
-3.60924 84.635 13.1804
-27.6648 126.185 8.19576
-9.12414 130.952 9.34951
-1.45009 97.7578 -13.2932
-8.35821 101.694 -12.2154
-14.5685 133.508 -4.89321
-27.9447 106.803 -6.94469
-11.1272 121.299 -6.83062
-26.0939 101.049 -8.98653
-12.3363 77.3155 13.5749
-16.9029 116.259 13.022
-31.2373 135.743 7.71449
-28.5113 83.6741 12.4193
-16.9342 141.357 4.63162
-1.23092 133.727 6.71912
-20.9673 92.5747 -11.2137
0.716673 129.02 -4.70909
-9.78918 104.432 12.6251
-23.1852 81.5967 12.019
-4.89283 97.4969 -13.3903
1.43711 136.258 4.9002
-18.865 151.449 2.31844
-23.6989 135.727 6.92211
-8.41421 110.018 11.5939
-28.4975 128.526 1.54433
-4.85022 119.508 8.67783
-13.5106 98.0155 14.3505
-29.6104 112.927 5.73226
-17.6778 95.3982 15.1479
-2.80435 120.774 -7.6719
-37.7925 132.316 5.05638
-1.20152 136.108 6.32785
-4.41301 137.819 -2.11849
-26.0815 99.0489 11.1593
-5.56505 80.9318 12.3305
2.23292 122.622 -6.80661
-8.44887 150.766 -4.90242
-30.8699 85.8728 12.1701
-3.16083 132.048 7.02511
-16.6205 138.488 -4.52683
-12.6551 129.798 10.8381
-30.9935 108.975 1.65142
-22.2349 98.2879 14.994
-25.0484 95.2566 11.8433
-8.60711 146.207 5.75421
-20.1146 123.333 12.522
-18.996 134.101 -3.2136
-3.74042 139.207 -2.09261
-29.5643 129.347 5.80279
-9.79617 148.863 -5.54418
-3.13836 88.5999 -12.7047
-33.2403 132.91 6.25917
1.21553 138.381 4.97953
-8.62874 85.7672 13.5199
-8.10844 134.163 8.19775
-36.8027 132.094 1.8955
2.69849 109.068 8.68033
-28.9412 91.1952 -6.37954
-14.854 93.5306 15.2073
-20.121 124.67 12.3931
-13.6806 84.7214 -13.1179
-24.4043 89.5328 13.9508
-8.87641 83.3659 12.7766
-0.126495 131.133 6.19293
-21.3376 128.112 -5.4085
-5.29412 132.069 8.32812
-19.5252 150.669 4.48956
2.75718 153.578 -2.44669
-6.45176 101.528 -12.4023
-28.1247 90.5908 -7.24472
-25.6656 125.349 -3.14044
-18.3476 95.2169 15.3201
1.47559 120.459 -7.48864
-2.23002 101.7 10.4767
-21.5716 120.041 13.0791
3.18637 138.256 -5.19638
-27.4471 78.5368 -9.47827
-28.4818 114.249 2.35446
-10.1602 94.5043 13.4502
-20.8822 95.3001 15.5804
-26.4786 116.801 12.7095
-31.1089 103.995 7.00477
-28.3583 126.662 0.173724
0.574681 99.4873 11.8979
0.51672 113.128 7.67852
-29.6394 110.588 -1.38056
-30.7248 99.4081 7.99216
-0.413373 124.608 -5.72328
-27.2809 130.439 -0.925204
-9.47485 132.732 -2.30013
-14.2878 150.985 -0.570106
-2.21941 129.861 -4.2475
-28.4361 107.241 -6.24723
-17.8964 78.0564 13.5008
1.23828 128.221 5.53626
-13.1268 142.297 4.23281
-13.5536 90.5273 14.958
-22.3804 102.281 14.6364
1.17593 110.211 -11.4226
2.24905 109.882 -10.9189
2.23133 119.53 -9.32804
-14.5199 134.317 8.74629
-1.09594 150.307 -3.94556
-4.19858 103.85 10.4742
1.92631 130.57 4.9899
-11.9151 140.165 4.82118
-35.7974 87.4188 4.81993
-4.41894 118.224 -8.57824
-19.919 143.258 6.81465
-34.0021 93.7496 0.779269
-11.7007 95.5734 -12.5744
-15.9783 102.488 14.467
-8.45542 141.295 3.96817
-20.4173 140.053 -2.50474
-12.6828 115.195 12.7127
-19.1572 77.6104 -13.1175
-10.4958 118.034 12.2135
-14.0155 77.7111 13.4465
-22.4309 131.014 7.45827
-24.0002 130.315 7.86077
-24.2806 148.485 4.63541
-24.9709 97.7957 12.243
-10.933 140.944 -4.88648
-31.3912 91.3607 -4.53686
-25.5715 83.56 12.9088
3.06082 125.148 -7.67471
-23.5725 112.465 13.7499
-28.4229 116.03 8.71913
-15.8616 90.9775 -12.3052
-33.5939 94.6829 -1.20575
-26.7733 80.7986 -9.88822
-13.4106 141.31 4.79452
-4.54444 106.477 9.94036
-25.561 144.635 0.345409
-10.2055 138.888 5.1276
2.38891 136.422 -5.38894
-22.8667 109.297 14.0567
-26.7445 120.208 8.91938
-22.8303 113.728 -9.27715
-35.7404 87.4644 8.04146
3.55422 125.917 4.95291
-3.57239 144.033 -3.21716
1.60989 150.727 -3.18488
-26.9533 117.973 11.0106
-34.8287 85.6379 -1.26111
-18.7331 136.473 -2.97103
-31.2068 132.006 0.0699214
-2.38628 76.287 11.6658
-28.2955 129.064 0.124598
-8.79747 76.5193 -13.4976
-24.9353 86.5564 -9.63858
-10.8531 150.905 -4.70012
-24.5854 90.8646 13.9729
-6.47176 134.943 7.44647
-30.5087 102.536 7.85726
1.17206 83.3735 12.2497
-20.556 110.577 13.5859
-28.0504 121.784 6.52556
-6.48348 83.0045 -13.123
-8.75264 116.159 11.5079
-28.4507 130.683 5.71999
-18.0504 108.147 13.3007
-26.2613 104.685 -8.85949
0.920452 123.521 6.03628
-16.3857 139.315 4.64757
-29.8226 118.987 -2.37854
-17.0625 118.694 -8.09504
-1.09018 109.908 8.47177
-31.2288 103.421 4.25453
-33.8952 93.4589 -1.73533
2.58441 90.8845 13.3307
-11.2641 119.187 12.1728
-1.92841 117.065 -9.29472
-20.9689 147.711 0.0222934
-30.6307 128.023 -1.21074
-25.8401 132.327 -1.83742
-17.0317 144.928 -3.66427
-33.7395 142.207 3.37612
-29.8787 80.5037 -7.74094
-27.3637 119.41 8.84283
-33.1199 80.0341 -1.96408
-30.1838 86.2397 12.3778
1.95842 130.062 5.02256
-16.1582 80.9572 -13.0356
-1.33094 149.417 -3.74793
-6.79188 143.295 3.58079
-5.89946 120.442 9.45153
-15.5516 135.484 8.15561
-14.294 78.9008 13.014
-5.68182 83.8632 12.9932
-30.5368 127.576 0.722966
-18.9277 128.7 -3.80211
-6.74963 115.701 10.4162
-6.8401 101.762 11.8184
2.19868 96.0086 13.508
-27.8991 115.71 4.59406
-29.9107 106.159 7.62131
-8.88331 138.275 5.29593
-27.3638 102.386 10.9376
-11.447 139.5 4.41423
-32.4918 88.4041 -4.17861
-32.651 131.245 1.46245
-11.2843 124.335 11.1877
-15.8226 82.8321 13.5727
-20.1849 117.026 13.4669
-2.20668 116.323 -9.21863
-30.913 128.204 -0.676056
-32.8351 142.111 5.3191
-5.14716 114.391 -10.6019
-23.681 137.206 -2.81863
-6.59183 120.237 9.94825
-22.5991 79.767 -11.499
-24.8147 128.842 10.7131
-3.17915 104.925 9.77098
-15.9173 120.828 -6.5833
-16.7184 82.6345 -13.1149
-4.13469 77.5488 12.0226
3.19944 144.731 -3.0516
-9.71273 154.862 -1.58886
-11.6908 115.013 12.7656
-13.2169 83.988 -13.1689
-31.621 105.237 0.505164
-27.2059 96.1935 -8.43396
-24.4073 135.816 -3.06807
-28.3421 102.147 9.59048
-3.81538 123.458 7.85929
-33.5338 88.3643 9.91638
-30.8248 128.065 2.55215
1.48841 114.404 7.40044
1.89626 97.4097 -11.7682
-36.3053 85.9434 6.22085
-29.53 108.439 7.75286
-10.8984 140.467 4.11977
-9.96718 94.8151 13.3005
-13.3716 144.852 3.75243
-27.6767 97.8771 9.25576
-12.8182 150.469 -3.92346
-10.727 113.223 12.7176
-16.1133 138.335 5.12902
-24.974 133.677 -2.7786
-31.84 130.477 2.52549
-30.524 82.9882 9.39961
-26.0367 126.838 -1.48968
-14.7893 109.345 13.2714
-15.0065 98.4103 -11.6203
-31.1972 87.4214 11.7422
-16.763 146.943 -2.54729
-26.2365 122.261 11.2099
-27.5523 117.379 5.49471
-17.1049 151.468 3.66166
-33.811 138.387 1.24513
-30.0463 116.604 -0.146098
-7.648 145.851 5.54998
-21.0427 114.189 -9.46815
-8.66144 128.238 -4.77859
-18.4573 141.089 -4.02558
-29.0818 126.243 1.95159
1.70307 86.9851 12.6616
-26.201 129.581 -1.22329
-20.6063 92.4981 -11.2523
-4.62088 90.3559 14.4404
-15.7632 139.866 4.66462
-26.9266 111.021 12.8719
-25.6774 131.051 -2.2216
-13.9632 129.528 -3.01697
1.94697 134.633 -5.3431
-15.9942 111.678 -10.097
-30.0408 103.298 -5.50859
-23.9454 89.807 14.0071
-31.673 140.652 5.1297
-17.9722 93.5025 -11.5821
-3.22469 93.9411 -13.1376
-30.4531 143.672 4.59431
-29.7081 121.01 1.53617
-1.21816 140.432 -2.4662
-27.6132 95.4632 -7.84243
-24.3869 117.459 -8.65997
-25.652 129.735 -1.54463
-8.48301 104.895 11.8428
-11.3542 118.915 -7.47245
-10.9386 126.77 -4.3878
2.17346 123.784 -6.14925
-27.8505 108.175 -7.09188
0.218937 90.7014 13.8818
-24.0537 93.3793 13.6771
-3.71268 123.029 7.79197
-28.047 84.2865 12.6985
-14.8704 144.917 2.75796
-4.20613 142.917 3.49879
-3.50898 114.04 -9.74976
-27.152 84.8339 12.9562
-8.48701 144.801 -4.84186
-3.65087 83.7196 -12.3676
-29.6713 112.84 4.97484
-4.64085 96.3827 -13.4404
-17.4602 147.837 -0.533317
-13.7479 149.768 -3.55444
-6.55175 113.303 -11.2621
-11.7928 103.849 13.1396
-22.9294 138.309 -2.74081
-20.7959 114.747 13.5225
-13.2665 86.6193 13.6403
-8.56266 118.172 11.1384
-20.5789 138.518 -2.7398
-19.2624 115.669 13.5293
-17.208 139.142 5.4673
-24.4975 103.015 13.8384
-9.06947 88.411 -13.428
-0.93028 109.095 8.65579
-30.836 127.733 1.24715
-32.4419 96.868 6.33482
-33.9911 93.7143 -1.00262
-3.84336 140.803 4.39947
-24.2655 81.6985 12.0057
-23.072 84.6964 -11.1204
-15.8937 137.331 5.07535
3.31327 139.299 3.73266
-8.70678 100.803 12.5069
-31.9917 135.851 -1.30321
-8.02146 142.322 -4.11134
-26.3178 129.235 -1.31754
-5.15844 76.6375 12.0433
-15.0905 107.762 13.5418
-12.3699 143.577 -4.88346
-4.65471 145.735 -3.93495
1.14097 114.767 7.33502
-2.96598 79.1944 12.1135
-17.8519 90.9549 -11.8827
-26.334 127.903 -1.51827
-12.9256 125.242 -4.65038
-1.11147 123.098 -6.31642
-2.08609 146.072 3.66729
-8.44211 119.667 10.9137
-9.45668 99.4063 12.6249
0.0505743 126.383 6.08765
-5.4323 95.4305 -13.463
-11.0624 76.9381 13.4703
-1.49373 111.394 -10.9663
-6.95894 100.49 11.8517
-24.6962 131.449 6.60181
-22.6681 97.2477 14.7036
-6.75372 105.877 10.8895
-12.4507 98.9177 13.6254
2.48484 140.785 3.67758
-22.4257 85.1241 -11.3335
-31.9565 102.163 -1.56747
-12.4749 84.2499 13.3355
-31.0332 141.142 4.87113
-13.2052 132.528 -3.23295
-8.63293 154.339 -2.01577
-17.4819 101.194 -10.9107
-20.6279 149.801 0.851437
-2.86279 94.5646 13.2819
2.00706 138.215 -4.49311
-29.9735 113.975 -1.92653
-16.6265 121.208 12.4502
-3.69414 88.782 -12.7691
-8.46061 128.481 10.0923
-10.8369 153.41 -3.11223
-25.3258 136.729 -2.5559
-0.0776912 82.1212 12.1377
-5.60656 153.545 -2.14742
-2.59152 86.4494 13.5542
-16.3105 123.869 12.4159
-34.1266 84.7328 -2.65744
-36.1754 82.2529 3.12148
-29.2337 123.757 1.47773
-20.6459 82.2677 12.7548
-9.6042 94.4948 -12.8653
-2.05809 122.096 -6.81267
-1.92731 118.828 7.35396
1.81255 84.5325 -10.1929
-26.2989 129.923 8.35022
-26.1559 122.55 11.5255
-34.0119 131.896 4.62052
-6.21158 140.418 -3.47879
-13.0138 90.0446 -12.7321
-27.0738 88.0902 -8.35466
-31.3278 87.8093 11.5221
-8.9583 83.574 -13.2862
-25.0088 100.879 -9.97763
-31.1798 139.752 5.72405
-16.6066 115.546 13.1098
-1.8338 116.054 -9.41607
3.24022 113.882 7.53489
-13.0525 152.731 1.63008
-10.3784 132.053 -2.45388
-21.337 81.1197 11.9669
0.197 137.964 5.63158
-29.1663 128.677 0.125017
-18.223 82.5751 13.1445
-13.6764 107.114 13.5683
-26.7638 98.6415 -8.97631
-27.0596 94.8431 -8.22156
-20.3518 108.47 -10.3855
-12.6569 138.612 4.60279
-20.4561 90.3055 -11.6215
-30.4803 104.484 -4.91275
1.66365 86.0901 12.5941
-6.7796 137.864 5.76995
-29.5722 89.2476 12.0531
-20.403 148.11 6.58414
-21.0739 110.862 -10.3584
-12.2046 88.3278 -12.9106
-36.1313 135.2 6.83838
-28.3321 117.258 4.33046
-31.0875 93.5387 8.7468
-8.34158 104.891 -12.5607
-35.1336 89.3031 0.447382
-32.0236 131.596 0.719259
-8.21517 130.174 9.56912
-3.91172 97.6907 11.7711
-29.1675 93.5259 9.566
-30.9638 131.064 0.116998
-13.7484 110.705 -10.8605
-21.6994 93.1275 -11.0818
-8.49388 140.193 -3.95076
-21.8394 83.8017 13.5596
-37.7623 133.713 4.08012
-10.0213 132.48 9.09235
-4.79909 76.0066 11.9262
-27.8378 122.249 -3.51605
-17.9701 88.054 -12.4082
-7.78374 91.4186 14.7345
-3.43311 86.442 13.7732
2.15902 119.967 -8.99938
-29.1474 124.398 2.36251
-18.14 112.589 13.688
-17.0635 145.897 -2.84459
-27.962 123.716 -1.98281
-27.1921 119.339 5.67103
-19.1873 149.354 5.92628
-17.0805 117.235 -8.85004
-14.3616 150.288 -1.35404
-29.0751 117.679 2.77186
-8.8631 113.886 11.6852
-39.2875 135.461 4.08128
3.16333 126.696 -6.69843
-28.3469 105.54 11.0702
-9.44393 101.049 -12.2036
1.85359 107.448 9.02607
-36.6042 131.857 2.39277
-27.5135 89.8121 -7.84275
-32.2651 128.655 -0.968473
-15.9692 134.405 -5.36836
-2.63878 145.883 -3.38537
-22.6106 130.568 -3.7763
-18.385 134.202 -3.74477
-27.2213 118.124 10.1415
-23.5095 148.264 1.45154
-2.4111 107.048 -12.4712
-21.8042 79.2007 -11.8135
-30.4363 138.209 0.45683
2.82413 138.359 3.99361
-32.2322 80.8543 -4.17836
-22.9559 132.06 -3.12008
-3.67178 117.579 -8.423
-21.3693 130.697 10.6922
-28.0032 138.871 -0.37916
-17.1671 121.564 12.5107
-1.42249 76.8132 11.6865
-25.5855 99.8901 12.2482
-3.08458 89.7168 -12.7168
-16.274 137.817 4.71105
-0.128173 95.4332 -12.5368
-1.55434 133.029 -3.59094
-6.27991 116.273 10.003
-25.5817 116.287 13.358
-19.7837 91.4139 -11.4558
-11.4436 150.16 0.525402
-18.0274 144.805 5.15782
-22.5344 131.992 -3.19988
-2.47116 141.47 4.19726
-12.334 122.64 11.8778
-14.0765 141.964 -5.02051
2.43232 124.992 -6.42083
-28.6127 119.777 3.02529
-31.72 102.358 3.47919
-11.4487 77.9604 13.3009
-26.3752 138.387 6.80477
-1.33935 115.004 7.67267
-15.9841 91.1726 14.9478
-15.9852 135.561 8.27203
-5.587 75.7849 -12.6447
-5.951 95.0388 -13.4785
-12.7438 97.0114 14.2391
-35.4723 129.542 -0.204156
-29.6199 111.026 -0.574776
-25.3822 120.642 -7.47907
-10.7745 89.2421 14.5366
-11.4254 152.229 1.06867
-18.5446 96.4265 -10.8945
-10.3213 93.204 -12.956
-29.688 132.865 7.62292
-18.2269 93.8327 15.3203
-27.5091 88.9602 13.0437
-17.6185 142.626 4.37432
-25.1972 110.56 13.7729
-34.3372 141.405 5.44603
-14.3878 143.757 -4.23721
-26.756 125.664 10.4351
-29.0609 124.577 4.95841
-23.1635 128.893 -4.32413
-5.98414 106.414 10.3525
-18.9164 146.337 6.94556
-0.82016 130.061 -4.20931
-7.68398 129.193 -4.9153
2.3168 144.859 -2.91471
-11.3468 150.4 -4.8885
-11.6823 88.5736 -12.9828
-6.44193 90.5144 -13.3105
-0.388439 101.545 10.6859
-5.2451 139.58 -2.6131
-2.02341 107.53 9.04868
-11.0639 127.117 11.0298
-24.6956 144.717 0.46739
-8.92315 103.016 12.1841
-28.1232 94.7172 9.89168
-25.2995 84.1231 -10.138
-16.0489 127.652 11.8605
-23.787 142.081 -1.02558
-8.66501 133.776 8.61258
-4.92059 124.336 8.39736
2.59022 107.394 9.10406
-10.7813 143.463 -5.11495
-21.0375 84.9646 -11.5727
-27.947 83.891 -8.035
-28.0353 101.806 9.72885
-7.73259 100.261 -12.3015
-33.858 86.5888 9.16682
-24.2874 136.892 6.46499
-3.83928 98.9136 -13.2587
-1.45384 99.9102 11.1306
-11.6606 76.0062 -13.8094
-11.0993 132.654 -2.51974
-2.91155 113.72 8.26353
-8.20766 77.3584 -13.3633
3.77847 151.672 -2.93512
-33.6747 132.898 1.80355
-8.45699 114.755 11.3856
-24.6985 121.824 12.9386
2.82978 95.8602 13.2748
-29.9976 109.147 5.30215
-16.7351 88.8693 14.3016
-7.97703 102.311 -12.2729
-2.18425 117.176 -9.14733
-29.0711 142.783 5.55433
-30.9751 98.2889 6.55379
-24.4099 139.224 -3.06995
-18.0158 78.9955 12.7975
-2.0475 88.7143 -12.5742
-27.3065 79.0215 -9.59999
-17.4699 119.502 -7.73048
-25.343 133.275 -1.17942
-2.82721 136.402 6.38916
-26.0649 93.8315 11.3854
-4.5224 126.058 8.16974
-28.0849 79.3382 -9.2273
-24.5081 98.9309 13.3376
-39.6212 139.273 5.53941
-26.7254 125.672 -1.8887
-33.9365 80.7059 -0.84214
-22.3785 133.283 -2.82237
-28.8972 119.604 2.46499
-2.1266 149.063 -3.92265
-9.47902 78.6052 13.0653
-5.22148 81.6948 12.407
-26.1388 134.573 -3.28582
-9.35029 119.807 11.3924
-30.7394 84.5826 -6.32665
-22.5961 79.7232 13.5542
-6.15919 130.051 -4.83817
-6.44929 115.213 -10.8775
-1.7516 120.039 -7.70196
-24.0765 103.595 -10.142
-8.39994 87.6893 -13.4114
-4.91614 133.945 7.87872
-1.87378 129.215 -4.30196
-13.2897 120.229 -6.55064
-16.0058 92.254 -12.3124
-14.9712 78.7568 13.1568
-30.7618 144.545 4.67474
-20.8256 129.984 11.432
-7.4364 99.0404 -12.5794
-17.8097 134.392 -4.47325
-2.66003 86.2628 13.5314
-25.6875 107.13 -9.23207
-27.878 115.936 5.19215
-25.6773 82.5086 12.337
-0.593738 78.1889 11.9946
-0.913055 138.904 5.40359
-30.4515 136.262 -2.28881
-19.4152 144.158 -1.32024
-3.88701 120.312 7.98369
-13.2148 136.613 -5.32563
-21.5097 115.015 13.6058
-2.31835 95.5652 12.8926
-1.4234 79.5653 11.9759
-33.609 91.7056 -2.83104
-29.8665 117.836 -1.43514
-16.4163 95.4298 14.9828
-17.4734 136.188 6.109
-27.1028 106.478 -7.81384
-38.7985 133.252 6.05282
-6.73945 125.082 -6.59269
-29.1945 130.567 -0.796507
-1.09241 104.632 9.68157
-1.53081 105.237 9.51225
0.327631 86.0041 -11.1589
-27.9286 96.8955 9.34315
2.14215 145.261 3.34394
-13.0968 82.9016 13.3545
-22.3304 139.372 7.10399
-35.0724 82.8047 1.49233
-2.20462 109.074 8.80776
-20.6997 98.2509 -10.171
-7.55778 89.1884 13.9415
-9.43325 103.809 -12.5575
-27.8262 80.934 -9.33085
-25.8375 117.192 -7.91589
-19.0513 119.356 -7.98547
-6.08864 95.3111 12.7968
-10.2046 106.549 12.904
-2.15285 124.08 7.12837
-7.46089 126.521 -6.21811
-29.4267 119.66 1.38784
-8.30352 102.534 12.087
-27.317 124.892 10.0726
-18.0665 143.973 -2.19203
-15.3252 113.695 -9.53072
-26.9738 105.775 -8.18001
-17.0637 138.208 4.96671
-10.6315 145.951 3.12393
-28.5498 144.431 3.14609
-27.1549 129.362 -0.219831
-28.6178 132.473 -1.69394
-16.5184 131.897 -5.1477
-10.8956 98.602 -12.1066
-30.8028 137.16 -0.626172
-19.383 118.184 13.1203
-34.6387 87.9491 9.56874
-18.3807 120.381 12.4646
-2.29173 131.398 -4.04158
-25.0405 87.8674 -9.27916
-12.0078 121.751 -6.4526
-1.07213 152.489 -3.32548
-29.769 108.239 -4.89868
-30.0101 143.278 4.89086
-16.303 78.9155 13.1877
-23.4118 97.1158 -10.2369
-9.9417 78.424 -13.4363
-29.0421 124.482 4.8485
-12.0431 145.073 4.24318
-6.32381 102.665 -12.3499
-29.3899 122.996 4.03656
-28.3243 130.669 5.66701
-40.6535 138.329 6.68695
-22.6501 130.215 -3.28373
-14.6853 124.355 12.0188
-33.2457 93.0057 8.06235
-2.22694 150.056 -4.23457
-6.39614 108.284 10.3827
0.877856 92.8383 13.9744
-11.3778 78.1374 13.2264
-6.90618 113.678 -11.0857
-11.7306 122.237 11.8881
-0.111538 142.183 -2.63002
1.46964 79.3988 -9.66081
-0.386328 117.475 -9.76348
-26.194 107.81 13.2818
-26.0943 127.49 -1.34635
-27.8439 111.819 10.5387
-3.21271 148.534 -4.09099
-25.4188 136.391 6.55818
-18.6715 121.441 -6.85952
-33.9584 93.4685 4.88455
-7.11967 84.6525 13.3278
-35.0598 141.092 6.16776
-1.04238 146.724 2.84371
-20.1802 106.777 13.63
-14.5532 127.785 -3.40598
-1.72543 127.727 7.01141
-19.5334 94.3315 15.3841
-12.0013 153.286 0.339049
-16.4334 105.174 13.786
-3.72272 107.931 -12.6653
-33.1036 95.3603 2.72447
-13.0767 147.383 -4.57732
-1.44234 136.604 -2.63866
-5.47936 148.788 -4.75121
-24.656 97.6913 12.8041
-12.9757 117.453 12.312
-8.14137 77.6555 -13.3315
-26.1458 84.9401 12.9451
-21.1415 143.94 -1.14687
-13.5584 142.681 -4.93789
-12.9712 86.7244 13.7239
-21.2847 121.011 12.8091
-25.3226 145.275 0.559067
-10.7765 148.922 0.526157
-5.80716 137.708 5.79094
-2.37568 149.041 -4.00215
-27.2716 143.297 6.17971
-14.8529 145.353 2.26049
-26.9172 147.218 4.51648
-5.1556 116.524 -9.40479
-33.3293 94.8067 5.0818
-19.3164 124.001 12.4704
-1.00879 118.225 -9.10207
-24.3912 84.8174 13.0736
-23.6836 82.0251 12.3192
-29.5383 128.231 2.83852
2.77925 113.429 7.60605
-28.6916 110.606 8.91855
-8.30101 109.585 -11.977
-5.90807 98.442 -12.9961
-16.5458 124.176 -4.85831
-25.6271 129.77 -1.81217
-7.2465 127.366 9.54426
-29.5111 120.363 1.93185
-32.9793 80.7401 -2.85553
-31.5045 96.1631 8.07148
-34.3957 89.5535 9.00971
-19.2857 151.178 3.7742
-30.515 109.185 -2.66286
-1.63273 112.289 8.1243
-12.7104 103.36 13.3947
1.98919 108.295 -10.8762
2.26061 117.339 -9.81278
-8.57584 116.861 -10.4106
-15.9901 103.921 -11.2939
-23.5913 128.875 -3.4141
2.45272 136.245 -5.49042
-25.2567 145.752 6.95253
-3.52335 80.9825 -11.9766
-32.237 93.1163 -3.86447
-12.8377 104.088 13.4229
-26.8936 128.013 -0.0248045
-15.5049 121.666 -5.89107
-12.1246 135.921 7.22171
-27.8306 87.2321 -7.97341
2.18275 104.394 -11.4056
-15.32 99.2954 -11.145
-19.2552 87.2521 -12.0414
-27.6673 129.305 0.323917
-27.2918 128.032 0.449875
-27.1028 116.92 -6.93286
-21.2784 89.2415 -11.7754
-2.37271 114.547 8.0022
-25.3976 136.557 6.58061
-9.28203 114.052 -10.8624
-4.39146 90.0729 -12.8745
-13.7049 81.884 -13.4725
-2.40908 110.97 -10.7194
-11.9623 124.855 -5.05674
-16.8197 129.495 11.5574
-6.00253 135.415 -2.1976
1.6468 82.5126 -9.99162
-29.6371 112.998 -3.316
-16.3668 112.594 -10.0042
-21.5692 149.6 1.3059
-31.9533 85.5815 11.1359
-28.0583 124.345 8.23018
-21.6694 139.444 -2.49444
-12.8817 108.496 -12.3664
-4.1504 90.4481 -12.8621
-1.53368 153.898 -2.42559
-18.4369 92.8158 -11.5968
1.07194 153.704 -2.13944
-26.6244 124.619 -2.70158
-21.9121 114.236 -9.42807
-28.5216 85.3619 -7.12152
-15.585 124.003 -4.92491
-5.61384 101.199 -12.5419
-6.68601 80.4519 12.3678
-17.1823 119.432 -7.73365
-5.63285 148.916 -4.79282
3.18231 114.86 7.31281
-31.8847 101.056 0.555086
-3.1868 133.182 -3.39776
-12.8726 112.859 13.1481
-9.98878 143.576 -4.92186
-29.5845 142.99 5.15687
-6.26606 141.856 -3.65857
-15.3577 133.093 9.87609
-16.3976 80.3794 12.5331
-12.5357 102.001 -12.0761
-2.15037 141.697 4.11519
-27.8681 139.102 6.6617
-0.578284 105.586 9.43613
-2.41385 88.9686 -12.6268
-26.7158 87.913 -8.49794
-22.0724 138.227 -2.32365
-18.0343 139.58 5.99815
-30.9142 107.939 -1.20466
-29.2273 90.3008 11.7766
-19.557 87.0359 14.5982
-40.4617 136.829 5.63895
-28.1869 119.59 3.77537
-19.6054 135.556 6.55378
-4.87124 109.738 9.49046
-28.0021 115.893 6.36568
-5.74975 99.5229 11.4986
-23.4454 82.4716 12.7167
-13.0616 77.555 13.4888
-12.7649 147.802 -4.76262
-25.6991 131.305 -2.88926
-5.01012 101.293 -12.6247
-32.6755 83.3114 8.96952
-14.5053 144.295 3.88427
-26.596 80.5896 -10.0376
-34.7913 90.0331 -0.616752
-8.7991 82.5977 -13.356
-14.1441 152.748 2.37245
-32.0098 99.5432 0.0864675
0.666972 88.051 -11.3193
-25.1156 143.158 -0.293392
-0.634046 106.938 9.1238
-29.8703 107.403 -5.06144
-18.7747 128.822 11.8248
-4.77486 118.858 -8.55475
-4.67999 75.3912 -12.3881
-25.8231 112.527 13.3662
-29.6877 116.691 -3.30902
-4.10135 78.2215 12.1181
-14.1727 88.4588 -12.7807
-14.6948 140.17 4.91065
-2.06009 110.707 8.46662
-25.3475 113.891 -8.5347
-26.9223 88.7694 13.2673
-28.9148 109.867 9.28127
-19.499 139.005 5.82663
-18.193 149.409 -0.24889
-30.3554 128.381 3.23592
-20.6204 106.423 13.7613
-22.4789 89.2032 14.1633
-34.3785 89.8999 -1.474
-35.3333 82.5549 7.26924
-5.31153 104.904 -12.5972
-25.0221 122.318 12.7383
-28.2856 128.967 -0.135963
-31.1128 108.042 1.0842
-12.7831 141.373 5.07094
-16.0775 137.819 4.75738
-29.8211 128.893 -1.07482
0.474212 134.863 -4.19599
-7.70186 75.5176 -13.2277
-10.4102 112.67 -11.3315
-28.6173 124.947 3.49081
-38.2238 134.782 4.86145
-2.14917 87.1542 13.6128
-33.3109 129.881 4.32865
-34.5074 141.669 4.67909
-30.8994 144.053 4.29485
-15.969 109.804 -11.0293
-9.65967 110.805 -11.8982
-26.3116 115.381 -8.02485
-32.3098 101.539 -2.27914
-25.158 127.717 -4.96971
-3.75024 125.834 -6.45789
-21.6907 146.462 6.84151
-14.3397 105.097 13.9432
-9.62397 124.62 10.8952
-4.80861 90.7419 14.4754
-9.418 154.887 -1.27288
-12.006 150.697 0.963556
-9.18412 108.954 12.2121
-5.71954 106.947 -12.6495
-32.0176 93.4768 8.49622
-18.6118 119.392 -7.90053
-10.7553 101.325 -12.2339
-19.6188 137.788 -2.88771
-27.8785 120.555 5.45016
-9.73393 111.527 -11.7115
-29.6438 127.941 3.82942
-11.3505 88.3464 14.1523
0.0904163 132.867 -4.57493
-20.9487 127.632 12.2559
-24.3199 129.346 -4.58914
-5.80374 126.245 8.69638
-34.467 140.357 6.58065
-7.0154 124.688 -6.7949
-16.2768 90.3962 -12.1795
-25.5218 96.2546 11.4063
1.97935 135.513 -5.29463
-23.0219 115.709 13.674
-9.49317 139.572 -4.38009
-7.02127 139.039 -3.63024
-30.1516 99.168 8.66104
-20.3095 124.312 -6.32559
-25.6374 125.918 -3.21335
-31.2959 107.602 0.964164
-15.2719 94.4911 15.0915
-30.8731 104.765 -4.51696
-4.53369 140.101 -2.44931
-15.7484 116.29 -8.56486
-7.55773 85.9909 13.6313
0.233783 147.275 2.99061
-12.1963 152.722 1.37921
-17.6886 116.925 13.0581
-25.8599 95.9661 -9.43745
-13.2068 82.0921 -13.5073
-20.9547 88.8157 -11.848
-9.93545 88.3163 -13.3933
-4.23053 116.698 -8.9323
2.47362 88.4431 12.6581
-16.9003 134.862 7.78352
-24.001 99.4861 -9.87083
0.333878 130.604 -4.75315
-28.5528 114.068 9.63399
-18.672 137.617 -3.20933
-30.4769 93.3017 9.06485
2.52265 152.465 -3.17326
1.50467 79.4124 -9.63759
3.13158 147.438 3.71804
-16.6055 87.8649 -12.5577
-35.7182 84.807 0.0941489
2.04202 148.665 -2.99168
-5.41816 144.099 3.23675
-3.36928 137.248 5.88645
-14.7552 118.012 12.3587
-21.6317 116.358 -9.25554
-20.2985 140.057 -3.24902
-1.305 142.761 -2.47174
-29.5245 129.568 5.11651
-10.8049 106.433 13.0999
-4.59073 142.578 -3.22559
-20.246 126.565 -5.59828
-14.2473 98.4251 14.5247
-26.3806 91.1414 -8.59658
-21.3529 93.1847 -11.1011
-25.9877 91.4513 12.7958
-9.91621 134.262 8.33431
-24.7292 102.328 13.3841
-10.9334 152.945 -3.58741
0.1687 135.745 -3.78175
-14.5977 152.211 3.10467
-33.3923 136.826 0.530321
-9.7528 98.5367 12.663
-32.2157 136.56 -0.406476
-22.0412 123.549 12.6515
-9.72032 145.078 5.77602
-21.0632 87.6208 -11.6859
-23.7522 137.726 -2.76723
-22.9401 147.335 6.18172
-18.8603 142.404 -2.47778
-19.8493 112.038 -10.172
-27.8621 100.724 9.58003
-31.3871 137.579 0.426504
-14.5465 97.8161 -11.9183
-15.1586 149.343 3.64753
-31.8686 98.4998 -1.61258
2.13936 122.254 5.94419
2.95515 110.657 8.30516
-5.97288 123.859 -7.48722
-9.70346 91.0238 -13.356
-24.3759 84.2258 13.0498
-33.0909 96.1814 2.8398
-27.4606 126.347 -0.581256
-16.4723 94.6324 15.0136
-1.10905 153.188 -2.86494
-7.17789 89.5337 -13.2853
-16.7618 135.933 6.77968
-24.4512 124.836 -6.55551
-36.5595 82.166 3.55508
-6.69817 111.483 -11.7357
-10.8031 78.4266 13.1151
-0.373517 101.307 10.762
-0.0296819 80.8969 12.0988
-19.2483 88.8333 -12.0222
2.47846 108.796 -10.8035
-5.36944 132.972 -3.44157
-7.96912 76.5787 12.4562
2.92754 96.9802 13.0917
-24.5666 128.572 11.1689
-6.95415 102.742 11.6994
