ply
format ascii 1.0
comment Created by Open3D
element vertex 1978
property double x
property double y
property double z
end_header
-19.7798 99.9935 -6.07787
-19.0976 90.998 -3.26426
18.6696 81.1713 10.5962
-17.7463 113.031 -9.21268
-19.9607 101.284 -6.44753
15.7389 142.853 -8.07578
24.5975 127.855 -1.14807
18.7081 81.7829 10.5008
-8.35612 124.134 -9.59452
16.9116 78.8393 10.9141
33.054 132.89 -0.0179343
18.7896 82.8654 10.3373
-17.9079 112.879 -9.01414
-14.6632 119.244 -9.90592
16.4631 116.538 -0.0651156
29.5889 128.257 0.372022
32.2306 133.026 -0.215693
20.2414 86.3036 9.82165
-18.9325 88.0022 -2.06612
9.24902 143.183 -9.81622
17.1577 119.204 -0.560168
-18.4717 108.946 -7.95645
-6.15411 129.614 -10.3503
-20.0005 99.1669 -5.56017
11.4454 144.098 -9.40117
0.793264 134.826 -9.78674
18.7318 123.449 -1.25683
-17.3913 79.649 0.915082
14.3248 143.813 -8.41173
-18.0932 82.0421 0.0431888
-18.3473 112.377 -8.80868
22.7964 128.111 -1.38345
-20.1795 100.821 -5.97413
-18.6557 86.9387 -1.49201
29.2584 136.542 -1.89513
30.3071 135.943 -1.41488
-17.3258 79.3082 1.12477
-8.66318 124.526 -9.39456
21.093 99.7311 6.44076
18.3845 141.151 -6.29441
20.6586 128.734 -2.01245
-20.271 100.511 -5.72339
-14.2922 121.025 -9.88854
-6.92203 129.706 -10.2541
0.915016 135.448 -9.61099
19.1002 126.075 -1.57338
31.5218 133.151 0.00530629
-7.71468 126.308 -9.43048
19.0182 129.48 -2.55672
-4.68226 130.372 -9.70138
18.479 83.7745 10.5478
15.865 143.938 -7.59537
-13.065 122.23 -9.71803
8.7512 143.688 -9.57688
-17.3965 80.5415 1.09577
26.9436 136.226 -2.08983
32.1015 129.025 1.56043
19.7654 85.604 10.5429
19.5847 109.304 3.63689
-18.9773 107.498 -7.04583
6.39437 142.31 -9.73338
-10.432 123.631 -9.20024
29.8002 137.206 -1.38568
29.825 135.734 -0.940749
-16.1656 116.495 -8.73308
18.0217 141.748 -6.08033
-18.826 93.917 -2.94371
8.53577 143.96 -9.45605
-17.2019 79.9782 1.58945
20.3941 143.452 -5.84108
19.0175 84.9788 10.6907
20.317 107.079 4.69653
-13.0216 122.763 -9.54062
29.5846 134.992 -0.664526
16.6542 117.242 0.769562
18.3122 84.3195 10.7995
-0.0806271 135.193 -9.27021
-14.6848 121.965 -9.68223
-18.4804 86.5142 -0.515837
29.5705 136.306 -0.943242
-20.4497 102.928 -5.8338
19.4492 85.7379 10.7804
18.7415 84.9278 10.8243
15.9417 79.3535 11.6272
-20.0017 96.4537 -3.77958
-10.067 124.479 -8.99438
-8.28204 127.979 -9.47755
18.9256 114.843 2.24361
25.7481 141.07 -3.34902
20.0044 108.839 4.31168
27.0483 138.452 -2.20217
30.127 134.306 -0.0763692
-6.05916 130.928 -9.61209
24.8653 127.524 0.376608
5.71737 142.149 -9.4102
6.53258 142.964 -9.40009
27.2975 138.472 -2.03868
12.007 146.108 -8.68011
-13.9704 123.272 -9.61407
-11.0448 123.893 -8.93342
14.9448 145.501 -7.62396
-17.2097 114.923 -8.12406
-10.8324 124.106 -8.91572
19.6422 110.62 3.86372
20.8146 96.7187 8.24581
24.4281 127.679 0.348884
19.0077 127.917 -1.29648
29.1463 136.708 -0.887019
-19.8761 105.773 -6.18436
-19.197 95.5249 -2.99363
20.565 96.0437 8.46634
20.2004 105.12 5.73597
15.5235 79.0347 11.9646
32.1683 133.142 1.1941
7.70093 144.414 -9.18531
32.376 128.661 2.59614
17.122 144.082 -6.27776
19.8267 126.695 -0.409297
20.2732 104.788 6.06333
15.2848 145.706 -7.22949
-9.47776 126.107 -8.75636
16.523 81.344 11.7655
-20.3134 99.7331 -4.26304
-13.9526 123.795 -9.37538
-1.61092 135.358 -9.1055
16.8 116.846 1.61574
20.0867 126.104 -0.103587
17.9777 144.432 -6.00201
-17.3541 116.569 -8.21458
-12.6265 123.936 -8.95956
29.2751 128.113 2.02359
20.1027 90.5098 10.2697
-20.2856 101.812 -4.74844
17.245 118.495 1.36555
28.7881 138.365 -1.00675
-20.6165 103.819 -5.38012
18.6406 85.8879 11.2376
14.8877 146.165 -7.23183
18.2941 85.6123 11.299
-20.2489 101.702 -4.57028
23.4322 128.652 0.349008
20.5081 106.872 5.81828
-8.61255 130.523 -9.45791
20.0756 109.977 4.84076
20.3793 106.094 6.05384
20.5816 145.041 -5.15928
30.3979 128.277 2.55702
18.8181 114.924 3.06877
-20.5269 102.342 -4.67465
20.5491 100.598 7.80158
0.915367 137.336 -8.53476
29.3931 134.629 0.538442
-17.8491 83.2405 1.6708
-16.4344 118.659 -8.15901
20.2051 93.9293 9.67315
-20.7324 102.824 -4.81065
-18.7616 95.5219 -2.09337
18.0856 120.97 1.27415
-15.517 121.879 -8.76503
-20.3556 98.6468 -3.44655
29.7464 133.897 0.93537
-18.1425 118.124 -8.43165
-20.2166 107.723 -5.98725
-4.20833 133.945 -8.90024
-9.26059 131.887 -9.74837
-9.20539 132.892 -10.0227
29.1069 128.039 2.53103
30.105 133.829 1.16314
-20.1623 112.047 -7.15597
19.369 122.526 1.31548
-17.2014 118.763 -8.20999
-17.6126 82.879 2.05667
33.8909 129.333 3.60165
22.3943 143.758 -3.91439
20.3742 103.425 7.19696
34.1641 131.643 3.04379
12.7001 147.822 -7.88204
33.7012 131.028 3.09745
20.098 95.7841 9.36121
15.3916 146.445 -6.66185
14.6891 78.6455 12.7576
-20.3522 99.7227 -3.45375
11.4861 147.823 -8.08741
-2.69077 135.631 -8.68194
20.4239 111.16 5.13282
14.8017 79.1071 12.7961
34.1032 130.098 3.65839
4.00938 141.759 -8.40238
17.5745 145.117 -5.42725
15.6447 146.597 -6.36826
-16.8508 80.9828 3.19309
4.43412 142.214 -8.33041
20.2449 112.017 5.01517
-16.8719 80.4886 3.34471
20.4044 97.0261 9.41431
21.4164 145.285 -4.25868
-17.2215 82.3341 2.73082
-9.62145 128.945 -8.54675
-18.8822 96.3801 -1.81202
27.3797 136.073 0.182892
-20.0562 112.753 -6.86747
17.6899 116.145 3.13709
20.1411 99.9814 8.54242
-19.1297 114.552 -7.09619
25.4169 128.245 1.92711
-20.6709 110.486 -6.30948
20.4278 125.525 1.31236
-1.58587 136.829 -8.36095
-17.4532 83.0584 2.60244
21.2463 129.758 0.355862
11.0581 148.122 -7.92155
13.7328 148.131 -7.11079
23.9897 143.904 -2.89989
15.5744 81.6091 12.6914
12.0723 148.542 -7.70018
14.1341 78.4424 13.2076
-19.3981 116.762 -7.62313
6.10239 143.965 -8.07483
22.8495 144.272 -3.24577
30.9935 128.352 3.78001
-19.1325 93.4981 -0.675313
20.4835 108.899 6.4003
-19.1429 118.89 -8.00123
25.7917 128.483 2.29773
-13.8711 125.547 -8.37495
18.013 121.112 2.19187
-17.2002 82.7329 3.05908
-2.84006 136.041 -8.18179
19.5936 146.215 -4.56764
0.584124 138.555 -7.86098
20.2504 107.842 6.79777
-11.7075 131.501 -9.33982
20.2187 104.789 7.68654
-16.5842 122.463 -8.09225
22.2036 128.924 1.32698
-16.74 122.42 -8.11614
-15.206 75.5273 5.91257
21.4374 145.855 -3.77687
-11.9232 130.861 -9.11479
20.0796 111.661 5.75606
-12.523 130.982 -9.29089
16.3527 146.884 -5.47588
19.7629 93.4238 10.992
28.0639 127.992 3.40903
-15.7986 124.454 -8.32045
18.6268 146.116 -4.55708
15.0753 81.1034 13.2486
19.2476 115.483 4.5282
20.4393 126.39 1.72101
15.1463 81.3714 13.2405
19.1536 146.515 -4.43505
28.3857 131.301 2.66832
-11.1901 130.35 -8.56666
-15.8878 124.873 -8.31742
29.9989 129.396 3.74616
20.1641 105.778 7.74621
-17.4377 83.8185 3.16456
-11.7366 134.095 -9.72485
-11.734 134.027 -9.69725
-9.44876 135.809 -9.54341
20.1406 113.722 5.4769
-20.0574 115.49 -6.71036
20.0442 111.348 6.17434
-5.19239 135.263 -8.08114
-19.0578 96.0578 -0.735866
-16.8491 82.4848 3.84731
-15.5481 76.1817 6.15281
21.0253 146.589 -3.56538
-17.9928 86.7352 2.43142
23.7972 144.813 -2.19369
-6.48698 136.453 -8.56916
10.109 148.438 -7.18634
-21.2467 111.08 -5.48857
-20.0935 114.073 -6.00585
16.2137 84.246 13.2486
25.5501 128.997 3.0253
26.706 137.18 0.993947
-5.36671 136.346 -8.08454
-20.7801 108.711 -4.5696
-14.1707 126.762 -7.86527
22.302 145.791 -2.71488
-1.2107 138.221 -7.33426
20.0446 124.766 2.74547
28.2977 129.347 3.84808
20.2038 147.351 -3.69877
20.0943 126.55 2.33071
1.32783 140.244 -7.08014
-16.656 79.631 5.23547
-17.9572 122.249 -7.43878
-21.4091 111.291 -5.26674
-17.3458 84.2564 3.75387
16.7718 86.2646 13.1157
26.2761 138.228 0.852028
15.282 82.7157 13.7266
26.3407 141.172 0.0887663
-19.5608 99.1277 -1.09275
25.0869 131.75 2.46096
-4.36144 137.65 -7.81353
20.5256 147.255 -3.34464
-9.13658 137.023 -9.01195
-14.9298 127.184 -7.84732
-16.0026 77.1494 6.32272
19.5732 99.368 10.2458
17.8668 147.7 -4.21076
12.7097 149.289 -6.16756
-17.8345 86.5969 3.12842
19.3691 95.259 11.4569
16.834 86.8071 13.1676
-14.8973 129.445 -8.38672
5.48974 144.838 -6.90601
26.0911 138.46 0.941218
6.63402 145.843 -6.84817
-7.01554 138.173 -8.56224
-13.3436 132.395 -8.72556
27.0254 139.113 1.10144
-20.0289 118.948 -6.74758
-4.05663 138.642 -7.77644
23.7601 145.546 -1.66934
-9.43841 137.108 -8.8703
-19.5639 99.3244 -0.870701
23.1451 130.75 2.48308
20.51 127.306 2.71931
-20.4098 102.849 -2.09922
-17.593 85.5613 3.7366
-13.4211 132.575 -8.63779
19.7331 106.952 8.42718
24.4664 131.762 2.64074
-21.2033 115.87 -6.03584
27.3856 130.336 3.92225
18.663 122.988 3.52525
12.5685 149.587 -5.92809
-19.9404 105.9 -2.73841
4.8745 144.624 -6.71935
26.3429 130.945 3.50827
-13.2827 133.295 -8.70109
-19.0922 94.1009 0.96337
-20.9934 116.646 -6.11453
21.5927 129.742 2.49672
-20.8543 116.896 -6.13173
16.4124 148.715 -4.45974
9.36447 149.249 -6.6499
15.3025 148.933 -4.82139
-16.5517 82.8269 5.08064
25.6755 133.437 2.73689
9.44239 149.533 -6.63405
27.4999 131.632 3.82457
27.5184 131.603 3.84832
20.0204 114.323 6.67031
2.10036 142.178 -6.57367
-17.901 123.996 -7.1288
24.2364 132.025 2.8333
18.0243 117.737 5.17653
-14.9991 128.133 -7.43855
-18.4004 90.6957 2.41155
16.8519 87.9398 13.4672
18.8968 148.289 -3.40137
23.2511 146.347 -1.55959
-6.85346 139.118 -8.20017
19.0273 148.288 -3.29418
-18.5142 119.874 -5.96657
-18.182 122.537 -6.6276
-20.0747 100.287 -0.732874
19.6864 148.137 -2.98509
12.4494 78.7985 15.0269
13.4497 150.067 -5.30417
-21.5292 111.21 -4.23155
15.2409 84.0576 14.3373
19.8395 102.958 10.211
-19.0863 95.9023 0.973928
-18.3858 91.2642 2.52719
21.4508 129.221 3.17887
-10.0361 137.558 -8.38208
19.7223 106.382 9.3027
-19.8304 107.728 -2.58631
17.5937 118.514 5.18716
-18.0829 123.305 -6.56997
-17.6511 86.5917 4.19051
6.55779 147.14 -6.28147
19.3516 101.881 10.5535
-15.459 128.742 -7.33509
15.8663 86.0062 14.1574
-20.3007 103.493 -1.42546
-18.3673 91.5638 2.62748
-19.6477 107.567 -2.3723
17.7504 91.2179 13.2819
18.3729 92.8941 12.9917
-18.1171 89.8094 3.29103
4.45476 145.497 -6.20686
-21.1694 110.312 -3.33212
3.10828 144.203 -6.07059
-14.1661 132.072 -7.57854
18.2742 148.887 -3.00584
-14.1425 132.473 -7.66245
17.18 90.4923 13.6849
-17.61 121.667 -5.46057
-15.5663 77.7062 7.88221
-17.1547 123.745 -5.86597
15.9403 87.2376 14.3334
19.0561 98.847 11.8939
-18.1554 123.378 -6.03119
-17.7467 87.5241 4.50631
-14.3738 130.295 -6.8883
13.6972 151.114 -4.72114
-18.4176 92.608 2.89237
20.6134 128.645 3.83575
18.2853 94.3201 13.0944
21.0866 128.86 3.92158
19.2477 111.394 8.45892
-19.9766 106.107 -1.41547
17.9784 120.791 5.37927
15.2565 85.5494 14.8019
1.53257 143.22 -5.88216
-17.116 122.446 -5.27829
-18.0566 90.7423 3.63359
-14.2832 131.349 -7.0207
12.9098 151.189 -4.84477
-14.2705 131.569 -7.06563
-16.2943 129.873 -7.13424
16.3301 88.7774 14.2659
16.1521 150.03 -3.46983
-17.6535 87.3568 4.94506
-21.615 112.871 -3.57722
20.09 128.555 4.03385
-12.6958 135.478 -7.50917
-3.38248 142.162 -6.73088
2.21785 144.32 -5.71739
7.23584 149.314 -5.69925
-20.1891 116.736 -4.2272
19.4713 113.143 8.36225
-2.03984 141.897 -6.21402
-14.8239 130.715 -6.67114
-18.9937 97.8994 1.62545
-20.1971 117.099 -4.22553
-20.0669 105.369 -0.773877
18.7255 101.847 11.5351
23.689 133.452 3.86047
-18.005 91.4198 3.90766
-17.7113 89.2474 4.65761
11.1287 151.829 -5.04101
18.9643 102.51 11.5146
18.7101 99.2999 12.393
21.3035 148.227 -0.996486
18.5921 101.744 11.7209
-17.4821 87.2337 5.47231
-17.3301 126.855 -5.95074
18.4292 120.638 6.25625
-14.8471 77.7243 9.00685
-18.2662 124.698 -5.55089
-6.17851 140.852 -6.70912
18.1168 96.7123 13.1642
18.7054 102.164 11.7791
-11.1268 137.736 -7.17182
-17.2644 127.007 -5.85029
6.36064 149.406 -5.4507
25.1353 140.982 2.45243
20.2672 128.92 4.53351
-16.8686 86.2353 6.08798
19.1335 115.799 8.02606
-13.8463 77.0476 9.64856
12.8919 82.422 15.8775
20.7482 148.555 -0.932418
-19.713 108.619 -1.10327
18.5478 118.946 7.04774
-16.7406 129.476 -6.24767
3.09029 146.603 -5.41833
15.1392 87.1727 15.2978
19.7819 125.881 5.45952
19.2432 105.78 11.1241
15.8967 89.351 14.9072
-18.2463 125.095 -5.36924
17.8453 96.1375 13.5298
-21.0494 111.182 -2.12539
6.15045 149.782 -5.38103
-19.7768 121.449 -4.69157
1.96542 145.644 -5.32524
14.516 85.6844 15.6874
-0.22595 144.546 -5.62306
-14.8363 78.0905 9.36278
19.4967 110.054 10.1284
18.695 119.169 7.25749
-20.522 110.421 -1.59608
24.9702 141.892 2.5368
18.7932 102.929 12.0194
-13.501 136.442 -7.02229
7.86404 151.405 -5.12908
-19.8744 118.93 -3.79225
3.10278 147.213 -5.29265
11.774 80.1486 16.6475
17.8325 97.0187 13.5289
-19.0474 121.376 -4.24601
24.2729 138.294 3.47743
14.8265 86.8613 15.6162
23.4429 147.364 0.64102
18.9101 105.034 11.5918
-21.323 115.63 -3.18078
-20.0921 118.366 -3.61132
-16.799 86.9491 6.44614
-13.5378 135.607 -6.66979
-19.3448 118.632 -3.34914
-10.5876 138.507 -6.53999
-18.6236 99.8645 2.31902
18.0189 99.8652 12.993
18.895 123.232 6.49408
-7.68106 140.367 -6.18636
18.4314 102.35 12.4183
-21.7153 114.751 -2.85139
22.0103 133.506 4.44789
7.52589 151.689 -4.99473
-18.6927 125.685 -5.08486
24.2986 139.028 3.56436
-5.52681 141.791 -5.88612
19.224 110.601 10.4152
-2.30999 144.708 -5.72106
-21.2031 112.477 -1.88227
5.3446 150.592 -5.1835
6.63163 151.416 -5.04639
17.3828 98.0462 13.542
-17.3643 91.5286 5.32903
14.08 151.218 -2.79373
-13.4332 137.024 -6.68168
-18.914 120.224 -3.40443
18.1524 149.798 -1.17526
-21.713 114.989 -2.69779
3.38953 148.618 -5.10209
21.194 148.531 0.110511
5.54768 151.004 -5.12592
-18.3795 119.832 -3.05155
-18.4774 120.58 -3.26485
21.297 133.604 4.56198
19.2447 113.553 9.79508
-18.43 120.666 -3.22517
-17.114 129.49 -5.38289
19.0711 110.927 10.5277
20.7771 148.735 0.104588
-19.327 124.158 -4.44456
24.6636 141.937 3.22553
-18.7335 97.3898 3.49759
18.8735 121.943 7.33725
-17.6674 128.846 -5.27805
-7.11171 141.211 -5.74299
19.2054 119.415 8.22919
21.9867 135.249 4.47197
13.9982 151.246 -2.46745
-14.0015 78.2806 10.5546
-17.4537 95.0602 4.71192
-13.298 137.806 -6.42142
-19.1218 117.75 -2.30346
5.59487 151.723 -4.91936
-14.0434 78.2342 10.6392
-19.8292 116.942 -2.24706
-14.1279 136.562 -6.2628
22.4637 136.453 4.48921
-15.2924 84.5965 8.51305
-17.0452 92.0131 5.87432
0.562626 147.169 -4.95399
19.6178 125.196 7.01474
-18.9059 98.1357 3.63856
-20.3052 106.526 0.80733
23.371 146.587 1.94111
-16.0669 87.0439 7.70999
-17.0743 130.742 -5.22532
12.6939 84.4032 16.8699
19.1516 127.55 6.27645
19.491 124.454 7.27405
19.4632 119.731 8.63948
-11.183 139.335 -5.95119
-18.1932 122.886 -3.22847
-18.8477 121.933 -3.10077
16.7446 97.1202 14.4494
19.2085 122.463 7.83898
11.5364 81.2109 17.5585
-17.1123 131.744 -5.37686
17.9894 103.804 12.9454
-6.69627 142.047 -5.30089
-19.7481 110.909 -0.0443712
20.2013 132.423 5.3951
15.6377 150.695 -1.20277
-13.899 137.74 -6.04292
21.522 148.414 1.18395
-15.4884 90.3644 7.21991
-18.6366 122.805 -3.06519
-15.3191 85.5309 8.69052
-20.2529 106.567 1.16985
-18.9979 110.048 0.533144
-18.4431 101.504 3.18448
-19.1415 118.141 -1.83345
18.1799 149.91 -0.156511
18.7791 113.295 10.6478
15.0582 150.768 -1.27992
-18.6815 100.174 3.56402
18.7816 110.395 11.5296
-20.1494 105.414 1.65749
-19.3115 126.424 -4.1651
15.4005 150.742 -1.10381
-5.28013 143.843 -5.10965
22.479 141.462 3.66111
-18.975 127.314 -4.30331
23.386 145.381 2.82366
-6.66747 143.355 -5.3321
10.8978 79.9531 18.1413
-15.0157 84.9305 9.19186
-18.3944 101.924 3.29354
5.89321 152.203 -4.05408
19.7177 124.498 7.99927
2.41662 150.818 -4.63657
17.987 109.24 11.9299
-20.4904 112.09 -0.049925
-7.99775 142.369 -5.16711
19.8228 120.104 9.39537
-20.3834 111.899 0.0752621
20.4017 135.295 5.17865
-14.9155 83.5865 9.87176
-18.5419 101.199 3.7229
-20.2672 117.193 -1.37794
19.8536 122.421 8.78764
18.8923 149.16 0.76893
-18.5942 121.17 -2.03088
-14.9838 134.316 -4.74515
-8.19282 142.638 -5.17689
-18.7933 99.311 4.27969
-20.437 121.395 -2.58446
-4.51943 145.265 -4.84288
-17.8292 121.801 -1.88629
-21.0045 116.43 -1.22456
17.4672 108.681 12.2612
19.8336 123.872 8.5622
-9.86212 141.348 -5.13215
-15.5535 88.293 8.5711
14.9648 92.2397 16.3221
-18.9685 125.439 -3.08242
7.96543 153.22 -3.28347
17.4672 108.832 12.3633
17.5731 149.87 0.522034
-20.5378 115.237 -0.529892
-8.32043 144.351 -5.39217
18.8598 129.386 6.86598
10.9359 80.9979 18.5791
-14.7621 81.487 10.9619
-14.8775 85.4883 9.78878
-18.1753 130.276 -4.13111
-7.58687 145.026 -5.29982
-18.6441 100.875 4.269
18.2631 111.974 11.7985
12.1704 85.1778 17.786
11.5685 84.2717 17.8745
1.18282 150.529 -4.3174
-20.4795 123.049 -2.66448
16.7561 105.769 13.2121
-2.31797 147.467 -4.38914
13.4173 88.1124 17.3729
22.88 144.829 3.71502
-20.1098 107.275 2.0797
-15.6635 93.1401 7.48694
16.5515 102.14 14.2808
-14.3685 139.389 -5.47191
18.4093 129.147 7.03841
-14.3195 138.134 -5.08087
-19.0079 103.995 3.46167
16.4417 101.822 14.4077
22.7651 144.989 3.75391
-1.69887 148.138 -4.26857
16.5175 102.44 14.2585
5.6688 152.636 -3.41643
-18.4082 103.272 3.87248
-20.3391 121.489 -1.94581
18.4563 127.284 7.67313
14.4435 91.9287 16.7436
22.6597 145.169 3.72535
16.2959 100.827 14.7144
10.481 80.4219 18.9418
-5.24883 145.635 -4.49408
19.4609 148.718 1.81114
-18.6877 122.252 -1.61088
6.40525 152.787 -3.12966
-20.6767 123.086 -2.39206
-15.6825 134.156 -4.11894
19.517 134.424 6.0547
-18.5683 129.247 -3.5104
-13.9717 91.2869 8.83404
-18.5568 121.278 -1.15711
19.3236 125.123 8.75988
15.3273 99.3446 15.1104
13.2556 151.021 -0.420374
-12.5519 140.719 -4.93775
-1.61713 148.856 -4.10939
21.0833 142.038 4.47084
19.0519 132.585 6.62772
-19.9279 105.645 3.08418
-15.7215 134.651 -4.08579
-16.1332 133.668 -3.91549
-8.03826 146.403 -5.22892
19.9824 139.203 5.01573
-2.73045 147.969 -4.12844
19.0179 115.952 11.4752
-19.8215 129.159 -3.63382
20.691 140.873 4.76989
-17.1439 132.999 -3.95415
14.3524 150.845 0.054261
16.5053 150.176 0.891488
-18.0687 119.497 -0.268992
16.0789 105.603 13.6989
-19.7065 123.775 -1.96474
-18.7321 129.099 -3.20934
-20.4221 121.805 -1.58405
10.0933 80.1525 19.3514
2.54454 152.231 -3.70697
-20.4518 123.365 -2.03106
-21.2075 124.312 -2.52424
-20.6454 122.223 -1.74834
-5.82925 147.26 -4.65085
-12.2324 79.6596 13.0583
18.7092 129.711 7.57844
-20.1195 121.465 -1.32735
-18.7895 129.453 -3.24522
21.0461 143.047 4.41786
-18.2528 128.99 -2.92286
19.0111 131.945 7.06997
-18.9065 127.998 -2.81549
-19.9477 123.658 -1.84602
-6.45423 147.671 -4.86237
21.8781 145.554 3.99517
13.3981 90.5998 17.4854
-14.6021 85.8261 10.7319
-20.6318 123.934 -2.04059
18.1563 121.615 9.92018
-1.27567 149.971 -3.9191
18.8398 132.06 7.12965
10.6352 82.5628 19.0724
16.6689 149.869 1.34954
11.9126 86.1147 18.4346
-14.5037 86.2796 10.7415
17.9999 137.164 5.48316
-18.5393 120.764 -0.390409
-14.7525 139.954 -4.84131
-13.3864 140.653 -4.64038
2.02177 152.358 -3.5441
-13.5887 89.5184 10.1112
10.185 153.46 -1.43603
-4.26969 147.745 -3.97603
-13.9773 94.2675 8.67869
-19.5299 123.727 -1.45416
13.2139 90.8169 17.6103
14.1338 93.644 17.0711
-19.2315 132.759 -3.93374
-14.0188 94.4096 8.6846
-17.3979 130.805 -2.78856
-20.4034 124.115 -1.72457
14.8117 96.6661 16.4772
10.5243 82.9544 19.2057
0.751941 152.15 -3.64597
-20.1314 123.355 -1.38232
21.1896 146.352 3.98687
-6.94657 148.297 -4.74757
15.5154 104.423 14.493
-16.1723 135.69 -3.77005
-20.665 122.167 -1.15269
16.316 108.475 13.5707
-13.3504 93.3208 9.32563
-23.0159 119.643 -1.09899
18.2644 123.337 9.84829
11.7491 87.9454 18.2081
-19.0397 105.32 4.25615
18.5787 135.509 6.47483
-19.4026 105.644 4.07125
-13.8556 83.2921 12.1552
19.2531 141.607 4.91271
-22.843 124.176 -2.28296
-12.8061 80.4963 13.2807
15.4255 107.42 13.7275
17.9403 141.769 4.52979
6.03737 153.472 -2.31016
11.4892 86.6789 18.6092
-14.0944 86.0096 11.3613
15.4122 104.406 14.6329
-14.0728 87.467 10.963
-16.4938 135.525 -3.64964
-19.6265 121.748 -0.571558
17.8689 141.915 4.51654
17.8491 141.921 4.50999
-11.1888 144.879 -4.79206
-19.053 105.442 4.3424
11.6768 152.104 -0.218683
14.0664 94.7771 17.0708
-20.4904 128.222 -2.65911
15.2352 101.707 15.4147
18.7996 124.601 9.82553
-11.6997 79.4161 14.0431
14.9384 100.384 15.7623
-19.6565 118.781 0.386405
-21.2392 129.761 -3.24152
-18.3673 120.737 0.207397
-22.9371 124.62 -2.24285
5.53753 153.553 -2.30169
20.6525 146.611 4.12631
-16.55 136.402 -3.72922
-16.3978 98.3154 7.34314
-21.5197 123.093 -1.31545
-10.0151 147.621 -5.04167
-20.9886 122.625 -0.974876
12.649 91.2821 17.8862
17.3738 116.187 12.0754
10.2585 83.9398 19.343
-6.28266 79.4927 15.8196
18.0399 135.376 6.76129
-20.6733 120.499 -0.177118
-19.2746 113.532 2.25214
16.8827 149.402 2.39108
-0.366904 152.235 -3.43429
-18.2382 132.722 -2.98524
11.0019 86.1003 19.0617
-23.0119 120.533 -0.793942
9.75549 81.0055 20.2104
-13.6373 87.0013 11.6804
17.0847 120.789 10.854
-21.1349 122.882 -0.864439
-17.9245 133.645 -3.03686
15.046 103.739 15.2194
-13.3256 84.0626 12.664
-22.1033 130.427 -3.29103
-17.557 99.411 7.03158
-2.35359 150.89 -3.44067
13.6899 98.9 16.2969
15.0086 107.999 14.115
-22.4276 125.902 -1.94934
14.5805 102.25 15.6807
16.8685 137.492 6.14879
-14.214 95.9399 9.13984
-7.09901 80.3217 15.7366
19.8727 147.026 4.28277
2.62929 153.603 -2.63524
-8.69923 148.891 -4.56666
10.1669 82.5725 20.133
19.9815 146.519 4.48762
-18.0067 133.318 -2.74016
-20.949 121.23 -0.0840746
-18.6043 121.06 0.65088
-18.7019 115.401 2.26089
1.05234 153.346 -2.96513
-19.4392 121.909 0.17666
-23.0232 125.135 -1.79108
16.5519 137.595 6.14307
-9.57387 80.2404 15.1445
17.9155 129.767 8.82095
-22.5786 121.617 -0.570829
-16.3862 138.973 -3.79009
-19.4797 109.657 3.79573
19.17 144.56 4.94247
-5.44615 80.0639 16.466
9.25443 79.6764 20.8625
19.3448 144.903 4.923
16.5701 116.354 12.3796
-20.01 121.175 0.347104
-19.7345 106.861 4.57587
17.4033 123.05 10.7026
-14.2016 142.222 -4.02483
16.9429 111.948 13.8009
16.0058 138.207 5.96457
-9.09016 81.1107 15.2047
16.9886 112.462 13.7253
-19.4008 121.164 0.630107
14.7681 105.248 15.1798
-14.3879 141.998 -3.93326
-11.9443 90.5552 11.6816
-6.56246 80.6612 16.1126
16.771 111.539 13.967
-12.9209 94.6394 10.232
15.293 142.64 4.57753
15.9283 139.179 5.77051
-22.0594 120.46 0.155414
-14.527 141.974 -3.86996
18.8527 147.534 4.23591
9.93099 153.647 -0.128291
-18.4097 104.845 5.75341
19.0743 145.898 4.7793
-18.6228 120.979 1.02865
-15.9621 140.093 -3.70814
16.2654 141.351 5.32216
10.6729 89.4639 18.7187
-18.4685 111.426 3.88717
-10.8284 84.3781 13.947
15.7375 138.235 6.09247
17.9417 126.417 10.1547
17.7971 127.306 9.85636
-17.0985 99.7712 7.67619
16.5292 113.82 13.4182
-2.86608 151.568 -3.14745
-12.5118 145.201 -4.10661
0.427092 153.566 -2.7598
-24.3607 125.137 -1.7399
-18.2914 112.204 3.77179
-23.9976 127.386 -2.24201
11.8932 92.3472 18.3595
-11.783 89.5013 12.3083
-11.9927 146.251 -4.17445
16.1012 119.004 11.8954
-18.2108 121.358 1.24173
-7.5 79.7122 16.4159
16.1737 115.114 13.0618
15.8211 117.43 12.3032
-19.702 108.448 4.57952
-10.4664 84.4356 14.2189
16.5237 136.846 6.92073
16.3667 113.363 13.6814
-8.87003 83.5896 14.9637
-13.4984 95.891 10.0618
17.652 128.328 9.76164
-12.6246 86.8599 12.9654
-18.8708 106.441 5.5088
-12.5663 87.8851 12.7171
-17.0309 100.024 7.91079
-21.0741 121.449 0.540184
14.3883 143.306 4.54267
9.28377 81.2908 21.0071
-23.0386 130.364 -2.59284
-21.3374 121.143 0.578783
15.6959 139.935 5.92499
-9.13395 80.3893 15.9388
-6.89497 81.4965 16.2981
15.6347 117.562 12.4342
-5.01513 81.3664 16.9171
-11.1125 85.1812 14.1051
17.1491 149.026 3.85496
13.2686 100.667 16.7265
16.582 134.696 7.88806
-23.9451 129.486 -2.39466
-6.8892 81.7135 16.3973
7.27745 154.459 -0.479527
-18.4039 119.46 2.20072
15.5097 110.598 14.6459
-9.55342 84.5731 14.893
-20.3514 134.511 -2.70056
-5.64623 82.0808 16.7536
-16.0837 140.032 -3.02502
-10.8428 85.3102 14.3454
15.3777 116.178 13.0503
-5.26001 82.5046 16.8454
-4.99729 82.6567 16.9091
-13.8852 143.927 -3.40574
-10.6014 85.3244 14.5135
-23.5544 122.776 -0.0714323
-18.7805 135.347 -2.3098
-5.63737 151.7 -3.20413
9.83872 87.2356 19.9708
-6.3599 151.716 -3.40054
14.2135 149.526 3.2478
12.5694 134.364 7.1906
-18.1817 103.262 7.24721
-4.53084 78.8223 18.3
12.6108 133.905 7.37769
-22.4553 131.338 -2.04752
-3.87569 81.739 17.7143
11.378 136.989 6.17358
-20.1026 121.921 1.38013
17.0365 132.223 9.20724
11.3827 138.187 5.86776
0.198113 154.253 -2.02368
-19.9535 121.599 1.56503
17.553 132.383 9.37236
12.5728 132.942 7.76517
-11.3447 94.1337 12.0432
12.5648 132.858 7.79869
16.7612 146.412 5.10365
-16.1152 100.201 8.91824
-1.73148 153.684 -2.36955
13.103 141.977 5.3358
-18.3761 105.737 6.66824
16.8921 147.312 4.91457
-4.03976 82.4344 17.614
12.2355 96.3648 18.3704
10.9865 138.181 5.90699
12.6291 139.442 6.03549
-4.06287 82.8664 17.5763
15.0401 110.907 15.0243
-14.5372 143.751 -3.0874
15.3797 131.474 9.18131
11.846 94.9981 18.7112
14.8629 115.217 13.7401
15.0958 133.597 8.49425
12.7252 138.801 6.29902
13.1415 145.03 4.6263
-21.3498 120.536 1.68285
11.3511 134.736 7.09486
-19.4778 120.877 2.13993
5.00668 79.8808 21.1709
13.1639 131.371 8.64788
-19.584 119.009 2.69856
9.89638 88.8228 20.0156
-8.42656 85.5842 15.6245
15.7601 120.94 12.4529
12.3691 101.017 17.2395
-2.60978 138.847 1.95476
-12.0038 96.0846 11.6049
10.0362 89.9175 19.8266
-24.8487 120.517 0.845071
12.3104 97.4305 18.3669
13.1626 130.877 8.94305
13.63 130.679 9.14907
13.3665 138.532 6.80238
-4.25185 139.376 1.4383
-3.28794 137.611 2.23749
14.5889 114.001 14.2801
-24.9088 129.387 -1.65452
-7.62262 85.6813 16.0427
-23.319 120.705 1.34232
-20.8199 132.862 -1.44791
10.5716 134.439 7.23051
15.4016 134.456 8.64289
9.75942 88.2944 20.3626
10.4963 142.615 4.8583
-19.1244 108.061 6.25282
-16.6943 101.4 8.9049
-9.47611 150.658 -3.24817
-3.86801 136.733 2.43853
10.5646 143.081 4.80539
14.306 149.192 4.12718
14.5698 135.445 8.18396
-3.18041 82.1894 18.4346
-3.74734 136.599 2.53975
10.2694 141.642 5.16322
11.4579 130.921 8.62226
-15.4967 143.485 -2.8512
-4.1378 136.613 2.44392
-17.0654 138.105 -1.72726
-5.12253 152.964 -2.55057
-19.8438 119.154 2.96832
-16.7154 101.603 8.97222
-2.5912 138.551 2.38827
-10.6011 93.4242 13.1204
1.02774 144.678 1.66976
14.3764 114.068 14.4144
-8.70311 86.1421 15.7836
-2.81444 78.7432 19.6517
-25.4721 128.562 -1.35741
9.60238 154.388 1.39084
-22.9924 121.764 1.36329
13.5065 136.911 7.60132
13.1318 105.826 16.4957
12.8097 149.789 3.71677
9.79495 133.7 7.52961
-22.6684 121.41 1.64654
-2.58581 138.391 2.61204
-16.5665 139.349 -1.73241
8.57049 80.5273 22.6078
-25.38 119.089 1.59122
-27.4814 119.249 0.939061
-9.52858 86.5719 15.6228
13.1548 129.769 9.72488
-19.7089 118.539 3.41651
-19.3846 119.836 3.13762
-19.0221 121.695 2.70667
10.6628 130.023 8.93636
-2.60679 81.2475 19.199
0.587421 144.091 1.96651
-0.35643 143.633 1.83515
-18.6383 112.191 5.61796
-20.3832 121.767 2.34174
9.56441 132.794 7.86888
9.35875 134.922 7.22226
6.44633 79.5941 22.4142
9.91671 130.302 8.78004
-4.66752 85.9788 17.3698
-24.4504 129.787 -1.06166
9.19538 133.187 7.74886
-12.6592 97.9684 11.5857
-10.2449 92.299 13.9593
-19.8512 122.62 2.40095
-26.2275 126.713 -0.638688
-0.909979 140.616 2.72265
-2.34463 80.8154 19.6176
-2.54465 81.5809 19.3453
11.6967 97.6707 18.8401
9.4384 130.851 8.59528
13.7167 115.95 14.1595
14.7745 120.155 13.2584
-10.1036 92.8533 13.9339
-7.84773 87.0856 16.2698
-6.01666 142.642 0.766002
-26.336 125.347 -0.125178
-5.02774 153.516 -2.07612
12.2054 146.976 4.88299
-24.6415 129.657 -0.808388
9.73131 145.397 4.64011
-18.7579 108.173 7.14316
-18.1852 114.248 5.55174
9.31643 91.9895 19.9971
12.0389 103.28 17.5694
-2.04089 80.3595 20.1073
-22.4706 131.489 -0.634739
-17.5562 139.468 -1.51256
10.0446 146.02 4.62373
13.7513 114.006 14.9707
10.2602 128.15 9.86884
-4.04146 154.374 -1.87455
-14.6507 100.193 10.7438
12.6153 108.671 16.2302
-18.9757 122.285 3.09837
15.6177 122.961 13.0124
-6.19276 134.855 3.2457
-2.69465 85.0673 18.6849
4.5391 80.2343 22.1919
-18.342 107.77 7.57144
8.94613 128.763 9.45411
14.8134 120.81 13.4659
8.90393 85.1346 22.077
-17.1128 103.198 9.28326
-2.31773 81.8755 19.763
12.4752 148.174 4.89958
4.09141 81.976 21.6293
-7.998 87.763 16.4395
-9.82843 89.414 15.4332
-19.0311 121.141 3.6097
-13.9613 99.6194 11.3262
-19.355 110.061 6.73706
4.47706 81.4683 21.9565
-7.13467 87.6518 16.8044
2.7045 79.6128 21.9982
7.94021 80.5504 23.2712
-0.0109751 141.392 3.34947
7.41907 80.5363 23.1441
3.0617 82.4944 21.3306
13.8055 118.916 13.9166
7.89907 139.594 6.22213
3.18379 82.8282 21.3024
-26.7858 125.421 0.268696
-5.32852 138.407 2.75686
13.4254 118.118 14.1336
3.24386 145.753 3.17946
-2.26864 82.5552 19.8694
-21.4351 121.261 3.09745
-17.954 105.814 8.58391
13.3584 128.308 11.2011
2.57129 82.3748 21.3686
1.92926 144.079 3.33936
13.1531 116.622 14.5683
-3.73939 87.1003 18.21
-19.4086 122.648 3.3663
1.90235 80.2412 21.8438
8.98425 92.0432 20.5082
1.80992 80.3415 21.8175
5.68645 83.4885 22.1417
8.25601 136.934 7.42342
-8.45453 88.5379 16.5766
2.31101 82.9891 21.3151
2.10327 144.167 3.56227
-9.15343 88.9317 16.2785
10.4229 147.703 4.96457
10.052 95.761 19.8951
10.2011 147.62 4.93747
10.6286 101.696 18.3559
14.2122 127.37 11.9896
-23.3798 120.419 3.06576
8.94304 87.6992 21.9623
-7.02932 133.983 3.92972
7.89949 155.002 2.21245
1.6296 81.643 21.6412
9.0402 88.6268 21.7791
-18.0621 115.58 6.10325
-17.4614 104.397 9.52509
3.10602 84.1128 21.3808
-0.56386 140.2 4.09694
8.29 84.198 22.8992
3.76942 83.9331 21.6622
14.9769 123.796 13.3873
-24.2767 121.773 2.56953
12.9356 126.888 11.9191
7.72812 133.495 8.5058
10.3446 101.688 18.5053
-22.1866 135.72 -0.803435
-6.26584 142.781 1.79864
9.63206 152.117 3.72463
12.6725 116.225 15.0003
-10.8014 96.7398 13.8255
6.85533 128.819 9.68679
-4.00842 135.166 4.69477
-25.2971 119.529 3.03027
-27.0074 125.09 0.941717
-18.1076 115.616 6.2914
-20.2805 123.627 3.34409
-6.09844 137.858 3.37984
7.88391 82.2295 23.5587
10.8449 105.266 17.7546
-18.973 111.231 7.35803
7.29144 145.276 5.14962
-5.68578 138.573 3.33469
10.3078 99.6066 19.2689
-19.9893 123.264 3.6155
3.21305 145.36 3.97895
8.65753 92.7924 20.7828
-17.8563 107.178 8.91463
12.3534 114.953 15.4903
-17.1218 104.54 9.94234
14.247 126.36 12.756
-8.98725 132.716 4.15609
-17.5047 104.901 9.73165
7.03019 83.327 23.1198
-5.25546 134.117 4.84956
7.11729 138.447 7.21072
7.42664 133.883 8.62217
-19.0211 109.81 7.89597
-11.6488 99.5999 13.0083
-6.3711 143.703 1.79615
10.2244 97.8096 19.9095
9.13246 125.501 11.5929
14.2807 126.126 12.9134
11.8471 126.095 12.2335
-22.5812 133.913 -0.0433852
-1.76457 83.8625 20.5078
6.74355 142.505 6.01317
12.0952 126.025 12.3593
8.02842 125.374 11.3917
7.17775 127.445 10.5604
10.4201 104.376 18.1822
3.22516 85.0912 21.6737
11.6304 125.943 12.2973
-7.80331 135.392 3.90822
-20.2413 123.365 3.77117
12.1655 114.196 15.8654
2.17983 143.742 4.41223
13.3715 125.874 12.8409
-10.1801 95.3472 14.8241
-15.1902 102.809 11.2066
7.61025 147.497 4.93297
7.82888 125.251 11.4607
7.68118 83.9695 23.3677
-19.4198 124.695 3.69878
11.2743 125.823 12.3159
8.34264 148.15 5.00238
-0.564979 82.4888 21.4428
8.01992 85.6381 23.0323
6.20769 141.901 6.25308
-1.21832 86.5516 20.1245
11.0034 125.626 12.3744
-18.7656 109.747 8.31359
12.4771 125.635 12.8115
-6.44798 143.817 2.04318
3.97812 84.8992 22.1518
-7.77879 90.1486 17.2208
7.83581 85.0558 23.2419
-23.4859 121.161 3.68038
6.09691 127.975 10.3218
-14.4563 102.098 11.8321
8.51595 95.0344 20.5643
-24.4606 120.922 3.48383
-27.6297 125.344 1.31749
-19.7704 123.979 3.99975
-26.4121 122.802 2.41036
-3.87073 89.7938 18.5238
-19.486 123.957 4.11404
-17.6296 127.365 3.68116
4.70774 84.6978 22.5643
13.6491 123.288 13.9965
-15.5981 103.64 11.1997
9.91085 98.4321 20.142
5.83805 84.366 23.0401
-1.39085 88.9338 19.6171
5.66893 145.366 5.34077
13.41 121.803 14.4297
11.6903 125.275 12.9411
-20.4195 123.491 4.12526
-9.96779 132.259 4.6337
-15.549 128.686 4.07065
-6.80395 140.019 3.33693
-21.3006 137.04 0.0105528
-25.7404 121.787 3.13714
-17.5017 105.912 10.1311
-13.961 148.366 -1.12165
1.51739 141.329 5.44878
-10.2786 131.864 4.75892
-22.2602 123.986 3.55621
-20.1238 124.028 4.1678
-16.1147 127.527 4.32266
8.79296 124.368 12.4897
-1.53449 90.3449 19.343
0.833502 84.6898 21.6739
10.8079 109.288 17.4606
-15.7859 144.251 -0.385585
-26.9904 123.374 2.40033
-23.1821 134.412 0.32271
13.0563 121.228 14.6918
8.08776 124.383 12.3377
-6.20246 141.098 3.34214
-10.3143 133.96 4.2168
6.51043 132.598 9.50837
-1.10586 88.2738 20.1291
4.00658 146.08 4.88932
11.3331 110.995 17.1834
5.53564 140.971 6.83905
9.51333 104.031 18.7032
5.60108 147.777 4.91531
3.41931 86.5306 22.0081
-27.3864 124.427 2.08599
-6.16797 141.949 3.18854
6.37944 131.975 9.72692
6.77176 135.658 8.77813
9.63713 99.7596 20.0295
4.58552 128.269 10.3156
-14.3157 148.104 -0.92295
-13.7443 102.112 12.5598
4.61431 127.333 10.6182
7.80867 124.145 12.4737
3.21486 143.879 5.42953
-1.37853 90.2377 19.6225
-7.49135 91.6064 17.467
-9.57769 152.474 -0.756491
-22.328 136.468 0.172918
10.7141 124.468 13.2606
-6.40723 141.277 3.42643
-22.8523 132.119 1.30901
-18.5099 127.112 4.03067
6.33347 135.259 8.91358
-16.1198 144.326 -0.223815
-11.8809 100.955 13.5941
4.40952 126.194 11.0372
-10.4387 134.563 4.30402
5.30086 85.869 22.9943
-18.1572 117.6 7.0035
6.81134 85.3709 23.607
-7.01512 144.933 2.35818
-17.1886 106.033 10.6575
4.48819 146.031 5.40237
-15.1451 128.656 4.7219
-6.27248 91.3211 18.1111
-9.95237 136.407 3.99801
-16.3155 105.095 11.2374
-20.7833 124.236 4.40001
-0.188395 138.814 6.17565
11.1339 114.417 16.5329
-29.7133 120.763 2.82037
-10.3331 132.791 4.98961
-5.43252 91.2389 18.4469
4.56937 148.409 4.81459
1.78272 140.41 6.32796
-4.15889 133.983 6.46206
7.88295 93.8163 21.592
-10.7675 131.098 5.37514
9.73676 106.552 18.45
7.79989 94.2523 21.4709
4.17758 87.0506 22.525
-1.19075 90.6184 19.9526
-10.2632 134.869 4.50964
-7.99852 133.163 5.69487
6.62273 86.4247 23.4887
-6.95051 140.841 3.79428
-10.8039 131.914 5.26637
5.54632 132.082 9.97568
-15.189 146.492 -0.222069
-24.3345 130.82 1.65705
-26.4042 121.411 3.78188
1.87896 140.164 6.58499
-4.61759 91.8376 18.685
-18.4785 122.43 5.79949
-19.2511 140.686 0.301147
-18.6712 126.708 4.51591
-15.7702 129.089 4.68025
-19.0536 120.175 6.3066
-14.5422 129.573 4.92636
3.68857 128.838 10.4494
8.99674 100.913 20.0993
5.60438 138.794 8.14893
4.42161 87.4344 22.7124
9.26982 123.167 13.7914
-11.2965 101.161 14.1767
-8.60937 94.927 16.7685
3.45804 125.851 11.3363
7.60189 94.458 21.6367
-19.6203 140.393 0.435396
-10.6279 99.5931 14.866
-17.953 143.101 0.143327
8.57818 102.21 19.7118
2.20836 140.256 6.84889
-13.9807 129.374 5.30116
-10.5091 131.39 5.74102
-16.112 145.217 0.116453
-17.3618 126.008 5.32149
-2.8583 92.9471 19.1117
11.4085 122.82 14.6468
-8.90656 95.6045 16.6186
-4.32189 92.4495 18.8714
-1.77499 136.308 6.94056
-19.5997 140.597 0.513228
4.38837 143.076 6.77748
-17.5532 127.9 4.79951
3.90435 123.683 12.2654
-0.708753 89.526 20.8241
10.8472 112.821 17.461
-7.30255 95.9011 17.0901
3.024 124.983 11.6974
-18.6148 125.572 5.24573
5.22725 87.8434 23.1105
-7.99342 96.2241 16.8407
3.20491 124.481 11.9264
-3.60623 92.9065 19.0839
-23.4757 134.536 1.26942
-9.30135 98.2093 15.9087
-5.77324 133.608 6.69036
-27.1819 120.885 4.15536
-25.8264 130.723 1.70522
3.29495 141.549 7.05944
-7.61493 133.021 6.37019
-28.6706 128.091 1.69825
-14.6659 130.11 5.19131
-28.4847 124.014 2.94293
-9.82516 138.198 4.26712
7.95487 97.2303 21.2991
-6.99254 96.2525 17.2376
2.76907 126.173 11.4179
4.04768 132.213 10.0443
-17.5565 144.231 0.293043
-0.789696 90.7493 20.6662
-19.5498 125.323 5.20436
-7.45969 96.428 17.104
8.18775 102.705 19.8478
-28.5803 124.243 2.91795
8.78772 122.253 14.3945
-17.2907 144.621 0.351396
-28.8418 126.737 2.16755
-12.0204 130.63 5.9432
5.12762 89.5168 22.8365
5.40336 89.3142 22.988
-20.2428 124.344 5.38958
4.24532 121.91 13.2258
5.02099 135.343 9.56781
8.39351 99.0045 21.0866
-28.4979 123.097 3.39128
8.07911 102.764 19.9295
-1.41085 94.9764 19.427
-26.3252 120.942 4.69167
2.42645 128.222 10.9566
-4.63267 133.647 7.33826
-22.1913 125.396 4.62654
-18.1042 126.994 5.36778
8.2631 101.574 20.4038
-7.68894 142.396 3.95129
-14.8708 130.626 5.28622
-7.69867 96.9875 17.1211
-8.04349 132.482 6.74796
4.17798 133.112 10.1217
-17.9358 116.504 8.50031
-19.0902 125.33 5.61528
-29.7429 121.272 3.69074
-0.292489 89.1736 21.5666
8.2964 101.18 20.6247
1.87486 137.947 8.12057
-12.2618 102.703 14.2131
-18.5569 118.76 7.73571
-13.9007 128.189 6.3624
-1.61476 135.286 7.88869
-28.8006 123.908 3.27267
7.01563 92.4088 22.8148
4.6426 133.732 10.1752
-14.9751 126.28 6.62554
-15.4133 105.433 12.5324
-9.99988 138.957 4.40623
-13.3941 128.781 6.38237
-0.874733 93.3216 20.2996
-11.6442 133.654 5.49915
-5.45201 97.0487 17.8995
-19.9244 126.41 5.19775
-16.6838 129 5.39658
-10.9214 130.671 6.60808
3.04309 132.54 10.1349
4.61096 120.688 14.0222
10.984 119.328 16.2792
-17.334 129.041 5.24247
8.20379 121.379 14.8949
-18.1678 127.759 5.37589
-17.8099 109.429 10.7905
-4.70319 94.8505 18.8351
-10.8802 130.671 6.67856
8.05014 99.1516 21.316
1.00159 90.0399 21.9035
-22.7571 124.937 4.91009
7.30847 121 14.8074
1.86343 127.414 11.3683
-12.9796 129.074 6.57194
-15.974 129.962 5.44367
1.99978 129.422 10.8342
-3.78361 94.7275 19.2058
-0.58607 95.4876 19.927
9.84939 110.924 18.5074
6.72957 91.6361 23.2229
-19.2291 142.484 0.95381
-15.3039 106.124 12.6214
2.85292 138.833 8.4443
9.92763 112.978 18.007
-13.7019 149 0.713898
-8.13129 99.0792 16.7881
-19.8261 141.471 1.12845
2.66186 90.8449 22.3284
-4.76852 133.505 7.82199
-8.31533 147.842 2.64469
4.1368 140.083 8.55076
4.29918 137.871 9.2452
2.01415 122.193 13.1287
-0.60102 96.2676 19.8719
1.28853 124.951 12.1338
-1.17278 135.019 8.5055
1.33053 123.376 12.6143
0.738492 90.8031 21.8713
-9.56715 100.571 16.0558
-29.3162 125.668 3.05782
-18.9147 119.446 7.89001
2.64453 91.1845 22.344
-11.4675 136.806 5.04024
10.2203 119.219 16.4412
-16.1419 147.262 0.657492
-5.32982 98.0544 18.0536
-18.8455 128.669 5.2617
-0.0229409 96.4825 20.056
-4.10053 96.9498 18.7461
6.789 95.1369 22.4455
0.209101 91.4185 21.6254
-11.8092 134.35 5.71379
6.67031 95.9419 22.2282
1.47383 129.13 11.1141
-12.3126 106.451 13.6833
1.27044 127.252 11.6151
-12.2104 150.315 1.0189
-12.0517 106.084 13.8764
-18.7798 143.777 1.04922
-0.590866 135.375 8.78004
1.51885 131.058 10.6689
-9.05869 142.048 4.42675
6.88489 120.078 15.4371
-6.61819 98.5109 17.7664
-22.3814 125.803 5.28864
-18.9673 123.508 6.9584
-11.8874 136.872 5.15493
-11.4918 150.585 1.32362
-2.63307 96.3039 19.6174
-19.7006 120.866 7.54263
-17.9838 114.072 10.0154
-3.5719 97.4684 19.0178
-10.2495 105.5 14.754
-18.3221 113.121 10.2024
-19.7975 124.981 6.34115
3.8365 139.287 9.07764
3.76975 137.866 9.48677
-28.9319 122.462 4.43323
1.73801 121.619 13.6312
-19.6526 120.328 7.8138
-10.4089 104.235 15.1668
-11.8638 150.317 1.40602
6.65811 119.63 15.6852
-14.3539 127.815 7.20827
3.23154 138.49 9.23846
-12.3922 136.332 5.32255
1.32487 131.596 10.6852
3.64927 92.4695 22.6939
1.61457 121.642 13.6603
-0.794196 97.2139 20.0376
-10.1116 104.531 15.2189
0.154636 97.3132 20.2988
1.55052 94.7917 21.4471
0.498384 97.2848 20.4287
1.3152 96.3942 20.9375
8.18871 119.901 16.1349
-5.07059 99.282 18.245
-19.1995 129.135 5.50627
-10.5776 131.202 7.42843
7.26828 105.222 20.1545
2.15437 92.313 22.4195
-10.1615 103.48 15.609
-11.6612 135.151 6.01065
5.9615 119.048 15.8079
8.08472 108.103 19.6053
1.62708 136.595 9.49173
3.20827 138.259 9.4872
-8.75422 144.93 4.07597
9.35223 117.597 17.2785
-14.6396 148.192 1.44852
-2.94064 99.7712 18.8785
-12.6418 129.229 7.5386
7.61096 119.323 16.2989
-17.8711 112.14 10.9777
-13.1205 129.165 7.43373
7.30435 105.873 20.1203
-26.5789 123.593 5.1602
7.0108 101.45 21.3503
-19.5111 124.529 6.96144
-10.6902 150.743 1.9414
2.17057 93.2861 22.3182
-10.642 141.099 4.8005
2.53119 94.6755 22.0795
-8.84527 106.076 15.4986
-18.6649 144.404 1.55039
-16.5069 147.216 1.38571
-14.1084 133.868 5.96782
-8.66664 105.599 15.7445
-23.1835 137.052 2.42789
-11.4834 139.655 5.08316
-8.97711 146.385 3.88596
-18.2421 113.264 10.7861
-28.9032 129.571 2.9696
-23.4543 134.495 3.1403
-10.6921 107.729 14.6285
6.57025 118.503 16.5434
8.24388 118.801 16.9482
8.52971 112.088 19.009
6.47052 101.283 21.545
2.78591 95.1797 22.2528
-8.1675 105.009 16.2228
-8.50591 106.785 15.6212
-8.80462 107.019 15.4916
-15.9736 132.775 5.96915
-11.9837 139.163 5.28441
0.501099 131.384 11.1742
-29.7038 122.607 4.93644
1.59969 98.52 21.0626
-7.83164 105.859 16.1967
-7.79085 104.975 16.4646
-22.8707 126.019 6.00674
-7.69737 105.339 16.4224
1.28795 98.5514 21.0069
-1.34141 98.545 20.2453
2.39207 118.15 15.6599
-15.5343 133.055 6.13197
6.99921 118.035 17.0437
-7.58344 105.693 16.3956
-9.42064 145.315 4.41634
-1.49842 101.205 19.5117
-4.06947 102.008 18.5569
-10.9259 150.234 2.60426
0.44521 132.681 10.9945
-26.4227 132.079 3.35445
-13.168 135.229 6.29968
-24.7124 132.915 3.61135
0.850886 98.8298 20.9225
-10.1657 149.379 3.08717
6.74337 107.434 20.1557
-10.6165 142.51 4.95957
4.24835 94.2711 23.2534
-7.11402 106.324 16.512
-10.4799 130.954 8.40593
-23.8072 133.333 3.84246
-30.4775 124.988 4.33745
-11.0075 108.671 14.7454
-30.4585 125.489 4.22191
5.73906 99.5756 22.2562
-13.4408 128.461 8.31923
6.4293 102.767 21.5446
-13.7821 134.85 6.40139
-18.3137 145.393 2.0456
-18.012 114.361 11.1188
-15.3497 133.438 6.37823
-2.32035 134.013 10.0037
-3.56652 103.067 18.6099
-1.32759 102.351 19.4685
2.01669 99.3322 21.3226
-19.4716 122.047 8.51302
0.312094 99.4035 20.8362
-2.09259 122.995 13.3199
-19.5088 122.186 8.48699
1.64366 118.192 15.8502
-30.3137 122.519 5.3024
-6.48847 105.521 17.159
-29.7822 128.812 3.66285
7.30763 116.889 17.9224
5.32016 98.1643 22.7899
0.226808 134.728 10.7355
4.53966 116.656 17.2304
-23.0147 126.363 6.41737
3.81914 96.5898 22.8469
-0.9465 102.283 19.8308
-31.8647 122.79 4.90684
-1.44927 121.999 13.9922
6.26563 107.954 20.3072
-17.0292 133.044 6.27642
-1.78337 103.834 19.1795
-6.37029 103.918 17.8244
-29.3757 122.155 5.86419
5.93208 104.515 21.2497
-16.3747 125.565 8.67182
-30.8397 124.979 4.64951
-2.0102 122.183 13.849
3.48015 116.056 17.2205
-19.4511 122.847 8.58531
3.78186 116.124 17.3086
-16.4735 112.612 12.4438
-16.2126 112.054 12.6839
3.29975 97.1393 22.6914
-12.9398 136.172 6.69459
-16.7532 146.902 2.49944
-30.7641 126.684 4.28064
-12.9713 149.019 3.00372
-2.79027 124.758 13.0064
-16.7674 113.638 12.1625
0.947349 118.394 15.941
1.18231 101.203 20.9925
3.01255 99.027 22.1746
-10.7203 130.919 8.95713
-30.2824 128.273 4.07357
-15.0822 127.572 8.7007
-0.510141 120.828 14.903
3.83452 115.677 17.6806
-16.0238 113.179 12.6277
-14.3575 148.156 2.99001
-18.9494 120.982 9.52083
-15.7826 133.855 6.72647
-15.6791 127.312 8.66139
-5.37481 105.901 17.8845
-10.805 130.886 9.07535
-16.4022 114.501 12.1972
2.22021 100.985 21.5561
-18.8177 119.82 9.98463
5.89069 115.513 18.422
5.82561 107.613 20.6941
-0.292996 103.54 20.1018
-7.68444 108.772 16.4399
-20.602 142.947 2.7945
4.46445 100.104 22.4996
-29.3844 123.37 5.91931
6.81683 111.897 19.7833
-18.8312 119.377 10.1806
-22.3191 131.658 5.613
2.07794 116.253 17.1821
-13.8016 111.292 13.9979
-22.3384 131.552 5.65278
-3.08022 125.795 12.9317
-21.157 133.447 5.4729
-22.5646 131.215 5.73571
-3.46233 122.513 13.8215
-22.7219 131.096 5.74369
-10.7504 146.327 4.82351
2.34492 101.432 21.6345
-20.7507 132.908 5.83352
-23.0353 132.721 5.26754
6.53399 111.928 19.8937
-15.4589 114.362 12.7939
0.232808 102.624 20.7655
-10.4499 110.073 15.5101
-18.6552 120.988 9.96572
-20.6251 132.178 6.15616
1.23113 117.283 16.8684
-31.4085 123.5 5.573
-10.9219 130.818 9.4166
-20.6221 143.012 3.07205
-23.9978 131.807 5.36874
-24.9773 125.424 6.94748
-18.0989 118.525 10.9566
-3.93014 105.865 18.7728
1.88745 115.753 17.6079
-24.3661 130.579 5.68834
-23.1163 127.875 6.83755
-8.8254 110.081 16.1779
-4.10082 133.096 10.9074
-23.8581 135.498 4.48072
-4.42086 106.573 18.5093
5.31564 108.314 20.8456
3.32752 100.951 22.4323
-11.2407 130.314 9.70744
-22.192 139.645 3.82737
-7.92828 110.05 16.5808
-16.5804 134.673 6.95029
-12.108 148.314 4.30809
-2.15229 130.385 12.3986
-22.6436 132.955 5.70448
-18.1121 118.982 11.0753
0.395213 105.896 20.2479
3.91179 101.388 22.5822
-7.4644 109.921 16.8396
0.884239 117.119 17.1886
4.91643 105.309 21.8002
-17.8219 118.578 11.363
4.53147 103.664 22.2005
-25.74 128.302 6.27853
-31.1439 127.577 4.92775
3.45455 113.656 19.0241
-14.8998 114.825 13.3614
-24.0923 136.65 4.39063
-30.4293 128.876 4.80345
-11.4271 129.85 10.0543
-0.374074 107.521 19.78
-0.196292 118.007 16.8007
-11.8069 146.483 5.18312
-29.1995 124.032 6.63919
-21.1405 142.386 3.68862
-7.35596 130.942 11.0534
-29.4821 130.56 4.73862
-3.29192 131.207 12.2052
-4.77442 121.453 14.6128
5.15077 111.15 20.5211
-14.6467 114.89 13.6828
0.775005 116.467 17.7169
1.76675 114.02 18.7505
-18.0712 120.501 11.1028
0.372283 107.969 20.1106
1.62629 105.854 21.0955
-22.1585 140.243 4.25047
-6.00865 131.449 11.5105
-4.83799 129.706 12.4055
-7.42408 110.96 17.0795
-18.1068 124.052 10.2051
-17.0727 135.362 7.24778
-7.73415 130.594 11.3629
-25.4246 133.893 5.28616
-10.2841 112.265 15.9687
-1.8449 119.085 16.4559
-25.7244 132.204 5.71498
-31.875 126.746 5.50513
3.06353 104.049 22.2473
-30.6017 129.056 5.23325
-0.294947 116.409 17.7367
-14.7866 119.487 12.6452
-0.154659 116.105 17.8815
-15.5596 120.28 12.2035
-28.4557 132.108 5.02907
-15.5707 120.513 12.1525
-27.1588 134.381 4.76685
-3.60178 110.009 18.6847
-16.4744 146.705 4.32159
-16.192 117.963 12.7233
-13.8605 114.524 14.3989
-14.6168 119.508 12.7374
-32.0463 126.243 5.75406
-25.9855 131.088 6.11519
-32.1389 125.746 5.87886
-17.5827 121.13 11.4559
-30.8748 124.415 6.64151
-6.52956 129.292 12.3193
0.0263126 115.704 18.1696
-17.4918 121.368 11.4472
-15.4877 138.088 7.19322
-21.8222 141.351 4.41278
-10.0385 130.148 11.0918
-1.6728 115.201 17.8813
-16.6708 125.584 10.526
-9.78964 112.465 16.341
-5.77403 125.812 13.6567
-14.1252 122.098 12.3027
-13.8034 122.939 12.1569
-1.94793 109.113 19.6092
-3.19532 114.898 17.5798
3.97947 111.533 20.6453
-16.9918 120.551 11.9564
-13.7364 122.188 12.4303
-32.2491 125.528 6.08478
-18 145.675 4.43078
-15.2198 117.233 13.4731
-6.36733 121.415 14.8458
-13.948 128.1 10.7148
-15.0553 117.466 13.4909
-0.88153 113.851 18.671
-32.6099 123.882 6.53681
-16.7662 146.39 4.63317
-14.9853 117.365 13.5548
-15.1662 138.639 7.34629
3.03732 107.143 21.7669
-3.52822 113.184 18.1324
-3.82978 114.764 17.5954
-27.542 126.544 7.2907
1.77246 109.385 20.7939
-12.456 124.795 12.1955
0.776144 113.839 19.2195
-13.9463 139.875 7.40043
-6.66153 115.237 16.6543
-16.7712 125.557 10.744
0.874702 113.47 19.3912
-4.31238 113.201 17.9711
-7.38 129.04 12.5096
-17.7716 145.725 4.66981
-13.4993 125.506 11.7691
-15.9284 126.551 10.7673
-8.0024 115.1 16.4048
-14.7358 124.524 11.7187
-4.63695 111.303 18.492
3.17889 108.888 21.4769
1.01112 112.768 19.7296
-29.6859 130.916 5.55009
-2.73497 110.531 19.313
-8.5909 114.704 16.4164
-15.5972 123.928 11.7136
-12.5441 144.276 6.71467
-7.11394 124.743 13.9493
-13.8334 116.537 14.3705
-15.1705 126.678 11.0798
-30.8125 129.014 5.86068
-13.5805 116.841 14.4127
-16.4571 125.711 11.0138
-26.0745 134.297 5.73576
-13.923 142.067 7.02377
-17.6733 124.462 11.0397
-30.613 129.354 5.85924
-13.4215 119.51 13.7129
-32.3724 122.84 7.24276
-3.80776 118.896 16.7065
-13.8575 142.229 7.04309
-21.6951 141.54 4.98616
-12.7847 122.35 13.1402
-8.30554 127.676 12.906
-8.33399 129.943 12.256
-8.15922 127.368 13.057
-26.4808 131.164 6.63206
-31.4537 127.622 6.21464
-8.43745 127.744 12.8864
-26.4023 132.685 6.23085
-5.35813 117.966 16.6152
-13.116 120.778 13.5597
-11.1096 115.765 15.615
2.8043 110.103 21.3048
-11.1089 125.891 12.6929
-2.49627 111.545 19.3599
-10.0834 129.181 12.0573
-8.37825 116.867 16.119
-26.9439 133.76 5.83417
-4.27219 111.69 18.8186
-8.4351 116.958 16.1124
-13.5127 127.074 11.7083
-21.0573 136.006 6.93267
-9.2846 116.725 15.941
-26.3624 133.3 6.17848
-6.10949 118.195 16.4557
-7.94901 122.678 14.6235
-15.6497 146.204 5.58086
-26.8714 134.159 5.81108
-5.87892 120.034 16.0078
-24.99 134.939 6.13905
-9.53672 116.769 15.8954
-10.8972 125.661 12.9406
-16.4686 138.336 7.69194
-12.4442 121.546 13.7566
-13.7219 142.889 7.20911
-19.2209 144.426 5.16693
-7.58646 121.08 15.3158
-28.2118 132.488 6.04493
-13.0982 127.393 11.9198
-10.7669 124.987 13.3384
-10.3588 126.172 13.1383
-9.76967 118.11 15.7017
-9.62043 128.47 12.7654
-28.9365 125.975 7.88588
-8.92816 123.524 14.4227
-11.858 121.01 14.3047
-31.9069 127.023 6.73549
-18.0911 145.031 5.58074
-30.8703 125.291 7.62116
-24.1205 137.906 5.94921
-9.07522 126.432 13.6862
-9.16203 120.05 15.532
-8.70407 119.462 15.8719
-27.9163 129.318 7.43318
-10.2545 120.85 15.0447
-10.1472 124.847 13.9202
-27.7935 129.724 7.38121
-10.5954 121.071 14.8912
-19.4888 143.737 5.76863
-17.0876 145.276 6.02718
-33.2684 123.318 7.68399
-25.3439 135.185 6.61297
-10.1892 121.345 15.033
-18.743 137.005 8.09528
-18.7572 144.111 6.04895
-29.9707 125.766 8.10584
-23.2089 135.304 7.3401
-29.0457 127.561 7.88904
-15.898 140.828 7.94076
-29.9484 129.373 7.20372
-33.6719 124.057 7.6862
-28.5198 129.877 7.52555
-31.4256 127.659 7.37919
-30.0631 126.918 8.04257
-33.3761 123.878 8.04542
-33.7115 125.317 7.58248
-22.5007 136.069 7.80164
-22.7604 139.625 6.71764
-33.4844 123.987 8.14734
-19.1807 138.03 8.46349
-31.4402 126.714 8.20734
-19.379 138.196 8.4332
-31.3678 127.116 8.16131
-33.2972 125.051 8.20278
-17.1736 142.105 8.11473
-24.2331 136.18 7.78938
-18.2786 142.345 7.74726
-19.6217 138.89 8.35752
-31.6523 127.576 8.13217
-20.2212 138.453 8.33992
-22.5971 138.081 7.86108
