ply
format ascii 1.0
comment Created by Open3D
element vertex 1963
property double x
property double y
property double z
end_header
18.762 118.469 2.13516
17.5194 131.497 -6.44296
9.4236 96.3805 21.2897
17.6288 127.148 -3.48207
19.5566 124.972 -2.75183
18.5702 135.121 -9.42577
-21.4557 135.086 6.79099
19.305 108.188 9.02054
21.7837 124.23 -3.17563
5.17379 95.9322 23.2594
9.24947 142.453 -10.8094
18.8867 131.128 -6.81893
18.1514 119.612 1.47123
24.5605 129.563 -8.13669
13.8432 139.058 -10.4391
11.2413 90.2127 24.6411
14.4946 138.546 -10.3514
17.5557 122.586 -0.475818
18.0545 120.535 0.748627
18.6886 124.467 -2.28217
-13.3717 131.925 5.45835
19.8349 134.411 -9.71908
-13.8037 127.818 8.45326
15.488 137.075 -9.85579
14.2228 138.616 -10.437
19.9607 113.997 4.38167
4.37335 97.255 22.3505
20.6938 133.023 -9.17929
13.3972 101.142 15.9853
2.98005 99.5199 21.3298
18.6808 134.361 -9.30445
14.3626 101.533 15.3162
-21.2906 140.641 2.49349
11.8874 90.7684 23.811
18.8051 134.16 -9.2332
15.9037 133.284 -7.47382
4.23251 142.291 -9.02731
13.5618 101.007 15.9555
12.1249 91.1546 23.3918
-3.71874 107.975 18.0719
19.9539 134.185 -9.78258
-13.9782 143.805 -2.75327
9.06732 141.58 -10.5715
10.2033 140.825 -10.524
1.84576 141.326 -7.5178
21.2898 123.941 -3.27541
17.4681 130.794 -6.53518
18.5983 132.69 -8.31433
12.2322 90.5291 23.6051
-9.71528 114.249 15.9523
19.497 124.717 -3.17575
10.098 89.6561 25.0484
16.6978 102.345 13.5053
-7.21891 142.394 -4.7383
8.06926 91.4182 24.5874
-14.3013 120.53 13.3535
-7.57003 142.583 -4.73889
-13.8548 119.796 13.6663
-14.021 120.189 13.4519
12.2581 137.669 -9.36691
9.97896 140.494 -10.4143
16.6577 124.658 -2.08533
-12.7625 116.234 15.6904
9.85323 96.6452 20.1833
14.2039 100.309 15.8549
12.857 139.008 -10.567
-19.998 132.833 7.02104
18.057 131.204 -7.27196
9.71313 97.4586 19.6076
16.7886 124.083 -1.81471
-2.62865 106.426 18.3245
-17.0151 141.144 -0.0531055
11.6618 99.6085 17.196
8.66338 141.055 -10.5113
10.4669 89.078 24.9719
-8.31788 112.714 16.1007
17.9157 126.577 -4.18608
-8.67464 142.578 -4.60662
16.882 133.064 -8.3259
18.1831 102.959 12.1208
11.5215 137.834 -9.48726
19.8786 111.21 5.66365
-15.7277 122.335 12.3123
-17.9692 141.099 0.135814
15.6161 130.985 -6.42078
18.3277 132.383 -8.50166
-2.15716 140.91 -6.20221
12.6122 89.0206 23.9679
18.474 103.331 11.5894
18.5229 124.051 -2.8861
24.1623 129.528 -9.0053
14.5826 135.115 -9.02821
17.745 132.979 -8.82139
-23.5093 137.873 4.46397
-3.36976 107.128 17.7342
15.5426 129.763 -5.71485
10.3458 88.56 25.079
-14.7065 141.375 -1.58619
21.0415 131.346 -9.07955
17.1521 131.404 -7.56799
17.2886 131.298 -7.55255
17.5767 132.382 -8.44878
-13.3742 116.591 15.0559
5.5501 93.8991 23.1551
9.14339 89.6031 24.6418
-15.2526 120.133 13.2162
26.2751 127.167 -8.5013
-13.3012 128.157 6.80954
-17.3035 140.568 -0.241714
14.777 134.651 -9.10458
25.1988 128.535 -9.07312
-13.6758 129.859 5.69426
-13.7746 129.636 5.88426
19.2009 114.606 2.99572
23.5068 129.868 -9.39534
-14.5059 143.007 -3.16895
-15.5886 125.344 9.57509
5.04118 94.6227 22.6268
17.6864 129.604 -6.88327
12.4444 91.5969 21.6926
11.1635 94.8768 19.8553
5.86798 93.1013 23.1872
-15.102 142.794 -2.97736
-6.62389 140.958 -5.13056
19.5638 105.142 9.2196
5.9457 92.9575 23.2173
19.5623 131.993 -9.51154
14.424 134.693 -9.31607
-16.6534 130.816 5.94518
16.5138 125.513 -3.8018
12.1239 87.3001 24.5833
9.10719 89.759 24.0752
-1.97735 139.733 -6.26472
21.3804 130.86 -9.60164
0.478801 139.394 -7.10386
18.1898 126.002 -4.95837
-21.0004 131.541 7.03203
15.7592 130.851 -7.36472
-22.3479 132.635 6.81416
-13.0976 115.14 15.2557
-13.7262 142.704 -3.70798
12.9509 91.1367 21.4227
12.9004 87.265 24.135
2.19953 140.275 -8.47543
-17.3968 140.11 -0.436576
18.554 102.619 11.0628
14.3119 89.084 22.1899
-16.6413 124.1 10.2639
19.6058 102.79 10.4096
22.1119 122.713 -4.50343
-16.8707 124.587 9.96255
25.8763 127.604 -9.45655
18.1399 132.598 -9.81751
-9.97565 112.512 15.5411
14.4853 98.5475 15.3276
17.7338 130.939 -8.56424
8.88155 90.0931 23.4659
-14.7753 117.822 13.7165
-17.8883 129.518 6.80612
-21.831 138.865 1.85326
18.8402 132.444 -10.1505
1.82247 139.669 -8.30868
19.9458 109.838 5.13988
16.8691 126.126 -4.97273
11.8568 94.6773 18.9381
1.10343 99.8316 19.6848
20.0743 107.635 6.55546
18.3086 125.735 -5.34806
6.62571 140.857 -11.1761
-14.9619 141.147 -2.65582
15.757 98.9321 14.3039
16.2097 131.298 -8.43452
6.54112 140.801 -11.1579
19.8911 105.551 7.99025
25.5134 127.779 -9.78348
-23.735 137.196 3.57199
7.30692 91.3134 22.9723
10.1961 87.6188 24.3697
5.69938 140.762 -10.8969
-0.159227 138.626 -7.07257
8.74123 90.1771 23.08
12.3235 97.4245 16.5552
15.0591 89.0856 21.2247
-4.06517 106.448 16.8162
-12.4241 140.939 -3.85538
-16.3413 125.263 8.64644
17.6172 119.811 -1.31261
12.526 93.8289 18.8351
15.6245 129.727 -7.4796
15.2805 87.3699 22.1581
-4.92767 140.429 -6.66144
-7.13911 109.661 15.6624
-3.09476 105.362 16.9749
-16.5772 121.856 10.9358
14.7589 86.5342 22.8191
7.2081 139.581 -11.0988
12.0768 95.6105 17.5455
16.6208 125.991 -5.46485
-7.61452 140.036 -5.44881
19.7689 101.977 9.95154
0.775814 99.9488 19.0446
-22.3396 131.295 6.55755
-6.12537 140.167 -6.19201
16.4081 123.556 -3.75093
-24.3765 135.538 4.40414
-13.8059 114.643 14.6532
1.2166 99.1313 19.3793
-15.1675 125.786 7.42426
22.6513 129.62 -10.5539
14.2431 91.3129 19.5305
15.6753 89.0491 20.5188
1.80799 97.9468 19.9054
10.7715 135.84 -10.1331
-16.4083 119.326 12.3649
8.83516 90.2626 22.3837
22.852 129.475 -10.6233
16.4093 122.002 -2.83167
-13.752 113.808 15.0802
-5.71086 107.759 16.0375
-25.1478 134.583 5.20541
20.2423 102.465 9.18798
-14.5276 128.53 5.07436
-6.16165 108.073 15.9163
-16.1053 137.891 -0.843983
20.1741 130.322 -10.2595
15.6514 129.307 -7.7249
-25.2143 134.483 5.19553
23.7146 128.926 -10.7496
13.1065 94.153 17.7661
-24.3702 135.286 4.19394
16.1791 88.7712 20.1724
9.74827 88.139 23.2018
12.6952 95.4865 16.8827
10.3392 87.1572 23.6237
-14.9222 138.245 -1.7806
14.76 91.9475 18.4508
17.5353 128.974 -8.50658
17.9365 124.106 -5.28341
-3.83936 139.476 -7.1884
-5.45413 139.958 -6.87482
16.1443 89.1005 19.8149
-2.75589 104.3 16.8617
15.9778 98.6184 13.2384
9.10581 89.9159 22.0682
17.0795 119.58 -1.84455
-6.58768 108.009 15.7957
-10.1007 110.739 15.2674
-14.8633 137.769 -1.67117
15.2945 90.7052 18.9033
13.0632 95.9517 16.1484
16.2655 125.741 -5.9119
8.75202 137.005 -10.7384
15.9117 86.7447 21.3791
6.66356 138.785 -11.138
-25.3924 133.592 5.45233
-23.8818 135.981 3.14278
4.23143 93.5623 21.319
-21.7187 138.817 0.289996
12.2589 83.7833 24.8413
15.1363 97.2072 14.2968
-23.9709 135.635 3.33939
-0.795682 101.948 17.4305
3.42428 94.9442 20.5982
-6.136 107.261 15.8809
19.8993 101.214 9.5526
-24.9909 134.248 4.69649
-2.56256 137.481 -6.65851
12.9122 83.6112 24.6108
-17.0758 128.347 5.57522
16.4811 98.6773 12.6643
3.54223 94.6548 20.6648
17.6081 99.1619 11.8184
2.75872 139.266 -10.1179
-8.82879 109.483 15.3027
10.2732 87.0998 23.1624
-16.1928 128.594 4.96192
19.8839 107.618 4.97235
17.9871 130.901 -10.5428
13.3133 83.5382 24.3401
14.973 93.1661 16.9567
-6.26096 107.094 15.8325
25.1109 126.405 -10.3587
-8.25345 108.855 15.3621
-13.64 139.913 -4.10174
-14.5788 126.436 5.64612
-15.7249 125.742 6.59249
23.0572 126.712 -9.79575
18.0067 125.611 -6.99225
20.1246 102.458 8.26142
22.1393 126.378 -9.22502
17.4551 115.928 -0.0691027
13.184 82.9999 24.5363
16.1465 128.227 -8.17911
13.933 83.3322 23.9891
-19.6752 126.367 7.56872
-15.5301 115.436 13.4684
-21.3836 128.711 6.53841
-14.9442 136.832 -1.72719
13.6611 82.8986 24.2438
16.9624 130.53 -10.3034
10.5476 134.729 -10.6331
-14.914 113.726 14.2853
16.4418 128.571 -8.7747
-12.8722 139.647 -4.63522
-11.3654 139.456 -5.13774
14.2987 95.9309 14.8015
19.6829 110.18 2.68453
16.0798 94.2944 15.2098
17.1691 89.9738 17.7736
11.4331 84.8017 23.6975
-15.4472 128.361 4.21899
10.4698 134.66 -10.7076
16.5158 85.3194 21.2197
17.3084 90.2662 17.4463
17.3698 98.0868 11.9681
19.6324 100.529 9.34591
-15.2004 136.574 -1.67525
11.323 85.2218 23.338
17.6904 124.781 -6.814
6.15924 137.745 -11.1964
-16.8343 119.483 10.8197
17.4803 126.065 -7.65414
-16.3858 127.956 4.7342
-8.43244 108.186 15.2643
-8.06673 138.963 -6.34344
7.91348 136.178 -10.8869
17.3734 90.9336 16.7935
-15.7114 114.659 13.6512
-16.1336 135.923 -1.00899
-12.97 111.136 14.9745
19.4485 111.123 1.85788
-14.9993 139.43 -3.92345
-15.049 126.58 5.04837
15.6044 123.363 -5.1294
-21.1617 127.858 6.61708
-12.1448 110.412 15.0861
15.7144 124.701 -6.1802
16.0646 83.2625 22.5426
15.5307 95.713 14.0586
-15.4036 113.614 14.1031
1.3684 98.0162 18.1665
-23.894 130.97 5.42944
-15.592 135.64 -1.19819
1.03841 98.5956 17.8761
-25.7749 131.072 6.09416
17.5617 91.2288 16.2729
6.09212 137.497 -11.3259
19.7631 102.274 7.65164
18.4826 99.3085 10.2182
19.1295 99.9528 9.50267
1.18381 98.2975 17.884
16.2657 127.156 -8.34989
19.2443 112.589 0.565678
17.3022 93.0603 14.943
16.1215 121.94 -4.70167
20.9393 122.479 -7.06474
-3.20865 136.179 -6.84467
-3.56957 136.685 -7.06197
15.8995 122.265 -4.89893
17.4845 125.926 -8.11536
15.6791 124.374 -6.37128
18.7663 99.5729 9.64673
-16.4304 116.525 12.0786
2.17139 96.4369 18.5381
-8.0277 107.056 15.2637
-24.3286 130.54 5.46822
-12.598 139.061 -5.22617
-14.5195 139.052 -4.44228
19.4165 109.95 2.05974
17.6466 92.9692 14.5923
17.6103 97.1717 11.6745
22.4568 127.13 -11.1632
15.5575 124.831 -6.79729
8.43486 135.218 -11.1817
-17.3384 122.1 8.38752
14.1128 80.913 24.3526
9.8056 87.2055 21.7072
-15.6208 138.041 -3.43182
17.6636 97.0893 11.6243
18.3618 129.47 -11.2204
15.8281 121.004 -4.31924
1.34753 136.592 -9.32401
-0.513816 99.5017 17.2513
2.45241 95.7092 18.6564
-17.4385 120.353 9.49969
-16.2904 115.433 12.4597
-21.931 126.387 7.09275
12.1526 82.5384 23.8472
-17.899 120.888 9.24881
-12.674 109.614 14.988
20.7332 128.437 -11.6535
15.6479 126.332 -8.13551
-15.9354 113.621 13.4653
19.2433 128.822 -11.3641
-26.0062 132.619 4.30084
15.1351 122.765 -5.48668
-16.5287 124.279 6.26436
1.63013 97.2364 17.7425
-17.6456 135.654 -1.24487
20.1558 101.314 7.32918
6.89582 90.9269 19.918
18.6707 89.4718 16.1075
19.5203 97.7212 9.98701
17.719 83.6689 20.5037
-21.1928 124.898 7.50421
-17.868 124.125 6.69555
17.5448 87.0237 18.2074
-17.8364 124.921 6.07929
-17.8348 124.058 6.67362
-15.9962 134.597 -1.41808
-7.91999 138.341 -7.31128
-16.262 134.764 -1.46427
15.5909 118.416 -2.97246
-22.4652 125.096 7.7654
17.8511 114.71 -1.32322
17.6688 128.898 -11.154
10.4713 133.074 -11.1581
-17.2904 124.495 6.03733
20.7185 100.703 7.23008
-10.1968 106.979 15.3644
19.0274 90.84 14.7808
-17.8177 120.937 8.70457
19.3814 92.745 13.2905
-5.43349 137.267 -7.69042
-21.0703 136.881 -1.12769
2.42729 95.5853 18.0994
20.6332 122.103 -7.74838
18.2152 128.648 -11.34
-10.0883 106.74 15.3697
10.2785 86.3388 21.337
15.0638 121.16 -4.86403
18.7605 107.014 3.44292
-16.5917 122.876 6.67211
2.63681 137.148 -11.0794
18.2692 114.193 -1.41287
1.32122 136.147 -9.86585
-17.3982 123.996 6.16418
-16.4083 125.501 4.69249
-0.0487907 97.8648 17.3235
12.8179 131.43 -11.2767
-5.58237 136.976 -7.71304
14.6644 125.132 -7.66512
-22.7198 125.45 7.21103
19.6717 93.0862 12.6003
-10.898 106.772 15.4245
18.4929 108.494 2.30884
19.1002 102.565 6.17523
-13.7945 109.251 14.8104
-26.7647 128.321 6.77162
-4.87935 101.961 16.2792
21.4957 126.872 -11.7613
-17.1791 123.205 6.4405
15.1146 129.199 -10.8155
-15.8681 117.979 9.53824
-14.3747 135.646 -3.37818
-22.9549 127.004 6.10974
-3.40097 100.628 16.5718
-26.6089 131.635 4.35472
-15.8539 117.811 9.57297
18.2107 123.394 -8.10686
-11.0425 137.32 -5.97308
17.4316 80.5369 22.0566
-22.8128 125.901 6.73118
3.87642 136.011 -11.1272
-1.99786 99.3132 16.8162
20.8826 126.627 -11.4827
-15.0112 133.761 -1.92938
5.1462 135.632 -11.4029
2.32405 136.812 -11.0863
-3.32317 100.041 16.7622
-23.9817 133.452 1.83518
-16.8149 125.398 4.53902
1.34523 96.0649 17.6185
20.7013 99.9819 7.04165
-1.53682 98.7669 16.8868
-17.9717 123.788 6.09079
9.74914 132.901 -11.482
0.25953 96.9615 17.3949
-16.9395 134.413 -1.75596
-2.9966 134.984 -7.84675
10.4216 132.139 -11.2957
-17.8436 123.737 5.9977
-15.7029 117.499 9.46952
-26.9627 130.464 4.99017
-0.712271 135.333 -9.02715
-12.5677 137.3 -5.60099
-8.31408 137.674 -7.62245
-2.67178 135.062 -8.10261
15.1378 119.687 -4.62329
-19.7576 123.75 6.65137
1.82587 136.065 -10.6774
17.7492 127.828 -11.3991
-1.46391 98.3283 16.9298
19.9243 92.0938 12.5933
-16.157 118.15 8.99713
-17.6181 134.534 -1.83022
20.0891 92.8415 11.9466
17.053 124.989 -9.22755
-13.6412 108.409 14.7437
1.14566 135.373 -10.0284
17.9598 84.2565 18.7659
9.62004 132.624 -11.5647
15.8242 117.188 -3.32345
-16.0456 131.46 -0.390745
10.7247 83.1153 22.4486
-16.0784 132.865 -1.38191
20.3766 98.5351 7.75234
-18.9353 135.055 -1.78463
13.9712 129.955 -11.5501
-21.7811 123.696 7.25881
18.2245 127.488 -11.5973
6.86777 134.254 -11.7441
14.6471 123.698 -7.5499
15.2224 119.762 -5.04148
-3.03685 98.5973 17.091
-24.3631 132.625 2.01233
-14.2929 133.53 -2.69465
18.5466 125.71 -10.5419
12.6873 130.705 -11.6515
-13.8678 134.991 -3.91897
-22.3731 123.589 7.43883
14.7044 123.672 -7.66618
19.5791 90.0468 13.7832
18.9686 122.826 -8.82763
-18.1834 123.71 5.58906
20.9862 99.2703 6.75404
-15.575 132.933 -1.91621
19.8944 95.9015 9.52138
-2.67722 134.705 -8.41935
-25.5211 131.705 2.8868
12.6872 80.2202 23.2953
11.5523 81.5441 22.8118
20.221 91.6743 12.2416
-11.774 136.753 -6.22069
-23.6677 124.36 7.20377
-16.8114 131.957 -0.904806
14.7876 123.995 -8.15214
15.075 125.195 -9.1198
5.94419 90.2744 18.8837
15.3117 119.092 -5.02507
21.1931 99.0933 6.51674
-25.3821 131.627 2.67861
-21.36 135.767 -1.83415
-16.4035 132.285 -1.42363
-5.84076 100.81 16.1922
-17.3337 119.292 7.96454
6.26282 134.014 -11.8509
-16.225 131.013 -0.683029
-16.1343 131.453 -1.03152
-13.172 134.564 -4.414
18.9727 124.895 -10.6909
5.50157 133.846 -11.5206
18.8826 103.596 4.12652
20.433 92.1815 11.3762
-17.2375 122.825 5.26722
18.0661 109.404 0.32857
9.47152 88.0568 18.658
18.5556 111.804 -1.56563
-20.3921 122.929 6.43246
8.81988 88.9352 18.2738
2.17368 135.391 -11.4532
-6.01799 134.945 -7.82985
-13.7982 133.077 -3.3824
-6.01356 134.877 -7.82791
5.74952 89.8256 18.7906
15.2837 121.77 -7.3258
18.4608 112.884 -2.4389
-16.1352 114.712 10.2789
-13.6074 133.131 -3.60264
7.20859 132.952 -11.9091
19.3969 101.797 4.86349
20.8277 95.4437 8.70984
-17.0277 123.613 4.3999
-1.58761 134.497 -9.43305
-21.9848 135.19 -1.66783
2.31403 135.39 -11.6505
-0.802946 94.8972 17.78
18.0061 123.84 -10.0603
-6.63131 100.552 16.1275
-25.1567 125.71 6.09499
15.303 121.633 -7.44938
-16.3922 122.515 4.72053
-27.7205 127.145 6.05069
-24.7511 124.885 6.42182
-16.6409 123.189 4.30179
-17.224 123.269 4.47619
10.577 84.8799 19.9071
17.7968 83.3225 18.0596
17.3477 114.781 -3.70923
21.5148 95.9837 7.68152
-11.4511 104.533 15.0615
-11.3028 104.37 15.095
-16.846 122.963 4.3769
-16.3471 131.826 -2.00202
20.0138 123.106 -10.6455
17.5624 125.654 -11.4697
-2.017 94.9644 17.8198
18.5819 104.208 3.03662
18.2129 113.06 -3.01123
10.6578 84.6069 19.8463
-17.4318 122.098 5.07438
15.2711 120.081 -6.76894
-18.6307 133.971 -2.74186
-17.9269 123.234 4.4518
2.27508 134.703 -11.7263
17.7284 83.0819 17.9828
17.6916 114.368 -3.82929
-15.6996 117.2 7.70572
-17.003 132.034 -2.11721
7.11877 132.058 -11.8972
-6.78108 134.534 -8.02584
-1.88578 94.5843 17.7953
-12.0859 135.329 -6.47994
15.1464 122.752 -8.74038
-16.7313 113.807 10.382
18.5045 123.846 -10.9131
-17.0355 112.789 11.1514
15.082 124.981 -10.3524
-16.8712 121.762 4.81975
-8.98752 136.114 -8.41656
-13.1655 105.636 14.5063
-27.2185 129.131 3.80779
19.5405 100.781 4.59631
-16.8579 129.962 -1.05871
-17.2272 117.725 7.59919
17.9566 83.8088 16.9889
-16.1803 131.529 -2.4923
9.35147 87.3197 17.9173
-17.1129 117.941 7.29009
11.8428 128.876 -12.0535
15.5431 117.89 -5.9073
-4.72363 132.647 -7.99304
-16.6122 121.702 4.42746
-16.3518 121.683 4.3287
19.1688 102.325 3.41848
17.7372 110.119 -1.44204
14.9498 121.097 -7.97586
-21.5855 133.871 -2.10489
-16.4023 130.231 -1.67582
-26.5519 129.82 2.7175
-27.8289 124.731 6.76848
-2.36434 94.5665 17.4588
-11.1947 135.443 -7.45642
-1.24962 93.6859 17.5127
-22.0729 122.951 5.51851
-21.2478 133.646 -2.27484
-6.22457 97.7472 16.6485
-22.6435 133.166 -1.43306
-28.2894 124.536 6.84594
-16.0587 121.496 3.98292
-11.1754 102.817 15.0066
17.9365 80.1981 18.9661
-16.9758 113.848 9.62705
-26.5016 129.611 2.46693
-13.69 105.448 14.0647
-16.5299 115.043 8.52343
-2.4602 133.185 -9.81494
10.2105 129.434 -12.3309
6.40366 130.237 -11.3762
-15.3271 131.715 -3.61469
17.7374 111.807 -3.13377
8.99206 129.613 -12.0563
18.2326 105.597 0.892094
4.35225 130.759 -11.0245
-20.1304 122.873 4.36842
18.7577 86.0503 14.275
14.387 124.913 -11.0387
14.0914 125.772 -11.5298
10.1299 83.2706 19.6686
-16.537 130.329 -2.32806
17.9962 84.2118 15.7971
-26.1178 122.565 6.92831
-8.75485 99.8027 15.7586
15.9587 116.149 -5.65072
10.0175 85.5321 18.079
-1.67841 93.7724 17.0649
3.8857 131.463 -11.4722
-13.1396 132.69 -5.44138
-22.2998 132.434 -1.5564
9.45427 128.918 -11.985
-3.77274 94.8759 17.0531
2.50259 91.0063 17.2051
-0.556757 93.2776 16.8538
-8.19239 134.23 -8.63457
-2.05067 93.853 17.0038
8.59468 128.918 -11.7559
-6.00936 132.193 -8.13287
-7.25718 133.253 -8.40343
-17.0254 121.566 3.68849
-9.67835 100.573 15.3152
8.26647 128.83 -11.6407
0.617901 133.293 -11.6713
-15.9715 120.684 3.81816
19.5872 100.915 3.18333
-16.6494 129.561 -2.12771
-28.0076 126.134 4.79235
-18.7192 131.046 -2.39015
17.5008 82.7119 16.5925
-17.7643 127.822 -0.571601
18.2744 104.437 1.10662
21.118 96.754 5.29984
20.1629 98.4707 4.48915
12.3908 126.238 -11.7567
-24.7222 130.616 0.201336
-27.9129 123.488 6.44297
-15.8141 107.909 12.3909
-16.2181 129.581 -2.5504
-10.3752 134.697 -8.5355
-17.6885 121.529 3.59048
-13.1532 132.602 -5.99485
-15.7156 130.148 -3.25571
-27.9407 121.841 7.44859
4.20378 129.629 -11.0277
17.5604 83.2294 15.8764
-15.9472 120.379 3.54095
-16.912 110.955 10.4876
-27.7642 126.669 3.90968
21.7186 94.8227 6.06199
-16.5261 128.809 -2.14626
17.3394 107.48 -1.02782
12.578 125.639 -11.8098
-15.0382 106.023 13.0136
-16.6919 128.449 -2.03803
-17.8489 121.233 3.43797
-26.2105 128.985 1.40237
-28.2658 122.006 7.08076
17.1568 111.52 -4.01157
21.6068 94.4569 6.06764
5.33322 88.6151 16.711
-17.2009 111.329 9.97553
6.69494 127.33 -10.8935
9.53486 85.4877 17.076
-8.80695 98.5408 15.3895
-13.2096 130.684 -5.24303
9.5939 127.162 -12.0362
17.2055 107.473 -1.41715
9.6088 127.136 -12.0449
-27.4455 120.795 7.36472
-17.0151 128.981 -2.56211
-21.7802 122.112 4.15229
-16.7526 120.01 3.5681
-24.8499 122.23 5.2935
14.233 122.229 -10.5334
7.05344 127.046 -11.0077
17.3159 107.084 -1.25387
16.9453 110.781 -3.684
-15.4605 129.841 -3.89977
-4.77965 94.9794 16.0653
-26.7936 128.214 1.8063
13.4783 124.447 -11.8788
-2.43396 93.8331 15.8707
-27.2834 127.403 2.52834
-4.75204 94.9449 16.0095
9.31 81.9707 19.3339
-16.475 108.493 11.2805
-22.3666 122.009 4.2425
0.721849 132.194 -12.2202
16.7924 112.501 -5.01271
20.483 90.3132 8.94892
2.2073 130.644 -11.7626
20.6719 97.0396 4.1532
16.6225 109.331 -2.77543
9.04873 82.3645 19.067
16.7882 112.228 -4.88141
-27.4213 120.815 7.01408
-16.8362 113.33 7.9305
6.29414 126.709 -10.7551
-26.2786 120.605 6.67466
-16.9357 118.683 4.23111
-10.5001 132.918 -8.29681
19.3407 101.052 1.80895
-27.7593 125.938 3.51078
-8.81678 97.9656 15.3335
-10.8698 133.287 -8.46036
-13.768 103.529 13.4149
-10.868 132.958 -8.27452
14.2024 121.722 -10.5957
-27.8476 125.561 3.74179
7.95264 86.9556 16.144
14.305 120.844 -10.044
16.921 107.93 -2.10812
-17.3184 117.687 4.90748
-16.1671 118.62 3.79124
-8.53693 132.766 -9.17637
4.21722 88.1602 16.7399
-14.7335 104.586 12.9147
-9.4776 130.762 -7.45401
-3.34086 94.197 15.5197
-16.8842 119.677 3.21254
-17.025 119.833 3.10618
-26.0605 128.15 0.925536
-20.0236 130.323 -3.07354
3.36603 129.117 -11.7085
16.3885 115.186 -7.29948
-22.7295 129.341 -1.35181
4.21894 87.9562 16.5488
2.97474 90.0596 15.5839
-16.1227 115.676 5.426
-8.82861 130.887 -8.1263
-23.9237 128.354 -0.273283
1.73877 90.4811 15.717
-16.5357 119.787 2.67789
20.5838 90.0943 8.34057
-3.87027 94.3088 15.2882
-9.02552 97.5184 15.1215
20.8279 96.5604 3.69205
15.3013 118.019 -9.02807
-16.932 119.976 2.61171
-10.4623 99.4007 14.3175
-18.7468 129.687 -3.55523
-16.995 108.565 10.4503
7.46007 86.3927 15.9854
16.1154 112.852 -5.99094
-11.1752 99.77 14.1372
-17.2208 127.211 -2.54253
18.7485 101.39 0.88726
-16.3321 106.561 11.4671
-25.2516 127.63 0.395691
-28.0015 124.028 4.00594
3.44555 87.9088 16.4341
15.4317 117.863 -9.30528
18.8642 85.8396 11.6142
16.7863 107.584 -2.69747
-7.70978 130.296 -8.63318
0.521809 130.684 -12.2452
-19.8185 129.854 -3.44403
-26.39 121.183 5.25639
17.5105 82.2556 14.597
-26.4526 122.45 4.37609
-17.374 117.878 3.88259
6.15902 87.2535 15.6763
11.1317 122.706 -11.0571
-21.0745 120.669 3.39508
-17.1836 119.809 2.40005
-16.7335 125.141 -1.57143
11.4469 122.266 -10.9936
-16.4172 106.302 11.4023
19.4528 88.288 9.42885
3.93899 86.5093 16.9405
5.65824 85.7881 16.7402
-18.0133 110.627 9.00757
-2.46391 129.503 -10.4405
21.5258 93.8335 4.68375
-13.8548 128.976 -5.52661
4.81798 87.2993 15.9388
-17.7095 111.114 8.45077
19.1269 100.713 0.759736
-28.1548 121.459 5.43701
-12.7209 131.023 -7.4915
19.7432 88.582 8.93011
-16.7708 125.083 -1.73427
-19.0775 126.259 -1.63307
21.3732 94.313 4.23458
-7.05228 95.287 15.0296
-17.2865 108.109 10.1963
13.3135 121.486 -11.5644
-21.2462 129.4 -3.11662
-18.7619 119.847 2.51166
15.8212 117.239 -9.68026
-23.4297 127.825 -1.1848
-13.9938 126.912 -4.38636
-19.848 128.307 -2.99492
-5.5502 129.391 -9.57263
6.05963 125.058 -11.2712
-16.5504 111.861 7.06066
-5.09506 128.871 -9.45124
-13.88 127.882 -5.23146
-18.4002 125.744 -1.91338
-10.5507 98.4266 13.9347
15.8564 112.836 -6.79667
-16.5519 120.987 0.634457
-19.7118 126.884 -2.19902
-17.4566 117.997 3.06806
-15.1598 128.322 -5.06502
-27.0945 124.841 2.1806
-16.1759 120.046 1.09989
-16.8851 124.543 -1.76891
14.7678 118.669 -10.4891
14.414 119.165 -10.6923
1.75935 86.8848 16.8821
-12.2128 130.246 -7.68264
18.3324 101.468 -0.00907541
13.6501 120.808 -11.5896
-17.8408 122.128 0.225447
18.9005 84.0183 11.888
15.1876 117.396 -9.86868
-26.9692 124.218 2.42719
-16.451 120.633 0.664093
-25.344 121.272 3.79968
-26.0951 126.433 0.490494
-25.2816 124.066 1.80582
14.6849 117.639 -9.90155
-24.6519 121.632 3.22784
-27.4282 122.069 4.04027
-8.13156 127.444 -7.52386
-16.6732 126.868 -3.68996
-15.6796 125.816 -3.36492
19.2234 85.5924 10.5296
-8.55765 95.8566 14.6109
14.6349 118.786 -10.7764
-25.5203 123.558 2.13809
-27.1946 122.751 3.36735
-18.7022 120.624 1.39773
12.0455 120.264 -10.8157
-5.48553 128.448 -9.44208
-13.3793 127.689 -5.73106
-22.1802 120.808 2.62385
-16.4547 121.91 -0.461812
-16.9991 124.845 -2.33666
-17.4625 107.173 10.1151
-6.95478 94.8075 14.4701
-9.69107 127.642 -7.30332
-18.1138 109.865 8.48879
-13.4702 127.594 -5.76583
4.86013 85.4458 16.1488
-27.2423 121.788 3.80337
-20.0345 121.452 1.10431
19.1774 84.4042 11.0464
13.2988 117.926 -9.9522
-22.2531 128.325 -2.81108
-17.4579 117.298 2.93071
-17.5612 107.145 10.0193
-17.2349 124.045 -1.89797
-18.6525 121.223 0.63496
-17.1231 120.693 0.374476
-17.0493 110.736 7.2698
20.9856 95.6404 2.38892
-0.0223156 129.602 -12.7717
17.3383 103.366 -1.51865
17.7643 102.184 -0.868416
4.37741 85.8648 15.9153
-15.0123 121.508 -1.07179
-15.9266 125.966 -3.81105
-17.5103 123.728 -1.61732
-17.373 117.423 2.67873
20.6445 90.0304 6.36458
-1.95354 128.794 -11.5071
-17.9299 123.585 -1.41418
-22.3513 122.575 1.07829
-9.09807 96.2458 14.0483
-26.246 125.256 0.767344
-23.0217 127.51 -2.10914
-16.8408 120.836 0.0307471
-6.0777 128.108 -9.39784
17.7726 102.112 -0.943872
16.5962 106.294 -3.38205
10.4594 120.746 -10.9726
-26.0276 122.515 2.55869
6.24742 86.2241 14.7711
-24.4119 121.221 2.78985
-26.6159 119.101 5.15779
-12.2103 99.3134 13.1019
-27.1115 120.516 4.35162
-17.5209 121.461 -0.204074
-27.0658 120.68 4.19433
-21.6636 127.838 -3.00047
12.105 119.374 -10.7854
-8.37144 126.492 -7.48274
-16.2098 121.721 -0.987853
-18.2158 121.908 -0.338058
1.91769 128.437 -13.0661
-11.5046 127.416 -6.92526
4.30465 84.8847 16.3059
-19.6216 121.377 0.56004
10.9593 119.599 -10.6004
-18.0657 119.291 1.35646
-16.8039 122.018 -1.07694
1.3997 128.684 -13.1099
16.9448 104.544 -2.58906
-15.5733 126.455 -4.69639
11.3234 119.109 -10.4759
-17.0127 122.685 -1.5101
2.72124 127.787 -13.0708
16.9797 104.32 -2.49531
-0.420831 87.5145 16.244
-14.692 125.882 -4.72345
5.68135 124.146 -11.7654
-17.1984 117.466 2.11726
15.7638 112.369 -7.69017
4.07136 126.308 -12.6702
-15.9621 119.3 0.320244
1.642 86.0052 16.3853
-25.9116 121.823 2.57517
-18.8924 121.959 -0.36566
-16.6934 115.95 2.91294
-26.1013 120.938 3.23549
-18.0588 119.095 1.26239
-16.6032 114.33 3.96178
-25.9337 120.748 3.24673
-2.35584 89.7659 15.2873
-21.5708 120.597 1.55154
-15.7134 118.496 0.607222
14.7042 115.255 -9.45846
3.83921 84.6463 16.2301
19.3398 83.9855 10.2988
-18.2639 122.905 -1.60035
-2.23876 90.3993 14.5462
-16.5072 120.383 -0.575635
-17.2262 122.329 -1.69411
-23.3098 121.124 1.60362
-24.3089 118.853 3.58662
-16.589 119.567 -0.0363789
2.58367 85.2114 16.1368
1.76956 85.5728 16.1825
7.41184 122.535 -11.8556
-18.1793 122.101 -1.24276
15.5883 110.684 -6.97226
-16.0208 125.123 -4.2464
-1.84 87.793 15.9752
-17.3828 124.307 -3.17587
12.0795 117.423 -10.3456
-15.7878 118.402 0.230567
-24.9396 124.511 -0.32554
-15.6259 102.438 11.272
1.26704 127.914 -13.3478
19.7027 86.976 7.70347
15.7234 112.869 -8.73112
-3.18866 88.9727 15.5704
17.7359 81.0351 12.6244
-16.738 103.953 10.5715
-22.1488 120.49 1.22924
-16.0205 120.526 -1.29664
-16.6937 120.86 -1.27319
-18.0208 106.145 9.51339
-13.9869 100.266 11.9658
-18.2831 118.998 0.652448
-16.6628 120.163 -0.826284
-15.7128 125.646 -5.11256
-17.8049 109.271 7.09726
-9.69319 96.4112 12.7617
-17.523 117.632 1.12876
-4.35448 89.7363 15.2305
12.755 116.598 -10.4273
16.8269 103.406 -2.89509
-17.6856 123.163 -2.72176
-17.2631 109.805 6.40985
-24.5519 124.414 -0.818967
5.18364 123.367 -12.1421
-17.0673 120.384 -1.06447
-10.2423 96.6991 12.6566
-5.48103 126.3 -9.89598
-18.7508 119.681 0.0809611
-17.2029 116.576 1.61716
1.78191 85.0429 15.8356
20.6467 89.8425 4.77141
-15.412 123.31 -3.95796
-15.4928 122.948 -3.69312
-4.64412 91.087 14.1033
-16.9978 118.198 0.211575
15.4708 108.129 -5.91824
1.46869 127.158 -13.5104
-15.4907 122.294 -3.27462
-21.8002 122.657 -0.984652
-5.02337 91.6991 13.7852
15.6036 110.224 -7.48216
-17.7542 117.628 0.819507
-16.9627 110.184 5.68152
-3.85824 125.771 -10.5197
17.6911 80.2686 12.3777
12.407 116.3 -10.591
-16.4856 124.558 -4.65601
-16.699 121.448 -2.42548
-19.7735 123.076 -2.32643
-1.71292 126.558 -12.1036
20.4105 86.5344 6.82299
19.4403 98.0739 -0.831526
-16.8248 110.337 5.29746
-3.54986 88.1037 15.408
-14.3484 100.202 11.2863
-7.29222 93.5101 13.0673
-16.6324 120.785 -2.16339
-15.7855 125.05 -5.52818
-23.164 124.388 -2.09406
-2.20047 126.231 -11.8724
-12.3657 98.0516 11.8295
20.2918 84.2861 8.18037
-4.37173 90.1189 14.075
-4.9102 88.3015 15.5571
-18.3175 105.475 8.99303
-1.16691 125.177 -11.6834
-7.94292 123.983 -8.16786
-5.20504 89.8423 14.4984
20.4484 93.684 1.41115
-18.0611 117.213 0.595858
-0.553114 83.9383 16.6807
10.4395 117.596 -11.2786
-10.8506 124.749 -7.65539
20.435 93.563 1.3695
-6.66585 92.8802 12.7627
-5.3634 87.9916 15.6349
-14.2249 125.416 -6.86205
-15.5781 124.904 -5.95855
-1.85693 124.544 -11.2888
-4.85205 90.135 13.8857
15.2935 107.426 -6.33943
-4.28483 87.5409 15.4379
-18.1015 116.034 1.16119
-22.7134 123.658 -2.30813
13.7211 114.133 -10.4427
12.7949 115.323 -10.9025
-19.5733 120.258 -1.26035
10.9976 116.348 -10.9871
14.6336 112.167 -9.55532
-5.41723 90.7706 13.4502
-18.0731 117.038 0.262261
15.6917 109.95 -8.46757
-17.6955 118.928 -1.24005
-20.0355 119.501 -0.694086
-6.34446 92.5748 12.5092
-16.3931 119.918 -2.49524
15.9038 105.027 -5.24573
-11.2174 96.6358 11.534
-18.1621 108.085 6.3104
-16.5411 117.718 -1.07055
-14.3579 124.902 -6.97518
12.5731 115.176 -11.1102
18.3694 100.006 -2.90185
6.2447 121.283 -12.8289
-18.0553 104.047 8.98701
-16.9135 102.283 9.75294
19.5916 95.9081 -0.620041
-4.8278 86.6828 15.583
-16.484 120.555 -3.31602
-16.7521 117.33 -0.963151
-14.6995 123.705 -6.25696
-16.8038 117.256 -0.930363
-17.7071 103.249 9.18589
19.9615 79.691 10.3262
-21.9607 122.683 -2.72333
20.3624 80.5329 9.50789
19.9691 94.3041 0.0670032
-2.52584 85.1283 15.551
-11.8932 97.2144 10.8371
-2.06574 123.712 -11.6069
-15.5068 123.25 -5.87068
-3.49011 123.001 -10.5629
-18.869 115.424 0.906292
9.0404 118.354 -12.4646
-17.7172 102.942 9.0908
20.3104 92.4885 0.957232
13.4852 112.646 -10.3612
-9.01953 94.7682 11.1359
-9.31004 122.432 -8.05121
-11.3281 96.4762 10.85
-18.6613 113.887 1.65025
-1.57743 83.2653 16.0353
-7.13633 90.6107 13.1476
0.873325 124.228 -13.5214
-19.145 106.664 6.8069
-16.615 122.11 -4.99321
-13.3334 98.5475 10.0846
-19.1829 105.804 7.38799
-19.0351 106.784 6.63744
20.2269 80.0009 9.38487
-11.6619 123.197 -7.81556
-17.6994 116.621 -0.793822
-8.80273 122.142 -8.26404
15.1952 106.055 -6.80704
-1.13931 123.909 -12.6403
-4.22263 122.204 -10.2056
19.6107 94.4319 -0.514665
0.69969 124.089 -13.5243
-13.7655 123.773 -7.51855
17.119 102.076 -4.95342
-7.73504 88.7686 14.3754
-8.07606 93.1516 11.4447
-3.56679 84.0061 15.9757
-10.8873 122.379 -7.80722
18.6007 97.3346 -2.34128
-7.80552 88.8465 14.2325
-17.5359 101.995 8.99248
-1.13916 84.0944 14.7281
12.5118 113.31 -11.1672
19.7353 80.2959 8.90192
-19.098 106.488 6.30603
19.923 81.5018 7.83863
-9.06005 121.505 -8.33555
-7.96264 89.3946 13.5782
20.1452 82.0926 7.21127
4.47046 121.421 -13.8533
-18.3518 102.825 8.32827
16.0944 103.758 -6.29948
-15.1411 99.5544 9.20243
-7.59076 91.1974 11.947
15.2032 105.028 -7.02882
16.3869 102.783 -5.98782
-11.9689 96.6906 9.73209
-16.4494 121.274 -5.60829
7.38962 118.241 -13.1853
-11.9761 121.988 -7.97841
-8.69527 88.8461 13.7762
19.7626 92.4064 -0.238697
-19.1817 112.202 1.71025
-13.502 97.8998 9.32307
-9.07489 120.976 -8.55146
18.9723 79.5744 8.9342
8.52162 117.435 -13.2204
17.0313 100.561 -4.91585
19.176 81.1337 7.71784
-6.91932 121.125 -9.61291
-13.0383 97.4361 9.36638
18.8279 79.2955 9.07403
-8.59709 87.8787 14.1719
-14.7234 98.912 8.87923
1.48408 123.226 -14.6404
-9.01131 89.0066 13.4484
-8.36904 91.1337 11.6594
-19.4316 115.212 -0.671236
20.4909 87.6366 2.37963
-15.1786 99.1644 8.75115
-8.08137 87.0608 14.275
-13.9879 121.489 -7.34269
-19.6865 113.804 0.29244
-11.4993 95.5271 9.69585
-8.99698 87.8951 13.9656
11.793 111.426 -10.9391
-15.1312 119.514 -5.6969
-18.4096 116.075 -1.98894
0.994405 122.852 -14.5718
14.6202 107.51 -9.43002
-15.0616 119.406 -5.74048
-10.8326 94.3855 9.94447
-7.50325 86.0185 14.4118
3.79456 120.413 -14.1682
17.3956 98.2762 -4.26967
20.5 86.0056 3.02312
-13.105 121.317 -7.98117
-17.7453 109.404 2.13705
19.7232 83.8406 4.78309
20.0984 89.1695 0.90165
-19.4116 115.095 -1.17329
16.4425 100.649 -5.69455
0.415747 122.49 -14.4626
18.9624 81.3737 6.66556
19.7454 83.9494 4.51276
-1.35103 121.963 -13.4594
11.8345 110.161 -10.5866
-6.73731 120.379 -10.1978
18.7577 81.2053 6.75014
13.2432 108.526 -10.1691
-10.0311 92.5601 10.3611
14.1974 107.257 -9.70167
-19.9716 113.911 -0.53504
9.85527 113.875 -12.582
-18.7219 106.877 3.85501
-12.963 95.3292 9.51335
-14.5522 118.834 -6.26181
12.7387 108.702 -10.3242
-16.2458 119.112 -5.84832
-16.1062 99.2088 7.95008
0.941016 122.082 -14.9363
9.94861 112.881 -12.1793
18.3015 80.5582 6.91871
16.043 100.68 -6.22541
-3.96571 82.2597 14.6868
-10.606 89.3071 12.4457
9.58739 112.999 -12.3385
-4.19568 119.65 -11.3959
-17.907 100.935 7.17719
-9.41161 87.3511 13.1972
-10.8429 90.1379 11.8073
2.82006 118.775 -13.7537
19.05 83.1265 4.4928
-10.1752 91.445 10.5245
14.4297 106.026 -9.6206
9.96298 111.858 -11.9163
17.9047 93.23 -2.15736
-15.1582 97.7485 8.04821
18.7829 82.4404 4.97209
-19.3528 115.158 -2.39487
-8.48684 119.548 -9.87656
-4.46786 82.0611 14.6043
-10.5612 91.7447 10.3092
16.0468 98.9213 -5.46721
-20.267 114.455 -1.65223
19.6255 83.7942 3.53664
-4.24521 82.7101 13.9445
15.7248 100.312 -6.40796
-19.2018 101.614 6.71378
-12.1052 119.721 -8.77516
18.6285 82.3322 4.81866
-8.85488 86.1907 13.1727
19.7881 85.5169 2.03163
-12.9078 119.727 -8.58022
-18.8708 117.635 -4.70929
12.0194 108.284 -10.7429
-19.6997 103.237 5.57153
8.06516 113.673 -13.1586
-19.3146 106.162 3.15001
-12.5778 93.2092 9.43447
14.3119 104.882 -9.59454
-20.3266 114.558 -2.33116
-4.96717 118.848 -11.5632
-18.9572 100.982 6.51102
14.6745 103.835 -9.09888
-15.1982 116.565 -5.89719
19.0726 88.6671 -0.342437
-2.34672 119.377 -13.0743
-20.3235 114.068 -2.1023
-12.9649 119.399 -8.79822
18.3801 82.0883 4.4973
-14.0965 116.991 -6.69848
-19.9601 104.075 4.64792
-17.9965 99.7912 6.82073
-15.0104 116.293 -5.89548
6.63114 114.579 -13.462
14.6046 103.666 -9.13235
-13.2598 93.3535 9.31372
16.4163 95.2422 -4.01791
-8.81653 86.2175 12.4792
13.804 105.552 -10.1559
-17.406 98.9423 7.04801
4.99508 114.982 -13.201
-13.0109 93.0549 9.33826
-19.3718 115.547 -3.78805
-6.37417 118.679 -11.2362
19.0927 88.0014 -0.232382
-16.1358 97.1154 7.61156
-6.02495 82.7806 13.4892
-18.7266 115.293 -4.08529
-14.3756 94.9005 8.30201
-5.42887 118.265 -11.613
4.02411 115.319 -13.4245
-5.30538 82.3361 13.3183
-18.2951 115.167 -4.31031
-18.8646 108.651 0.458241
16.2177 95.0884 -4.30157
13.4865 105.435 -10.4172
-16.9739 97.8917 7.15828
-14.7383 115.74 -6.19307
7.1049 113.67 -13.626
16.4952 94.0213 -3.76093
-5.52539 82.9665 12.8302
-12.2153 90.444 10.2788
-19.6639 101.663 5.46246
-5.92533 82.3109 13.3503
6.24014 113.805 -13.5266
18.1209 89.745 -1.63048
-1.89357 118.724 -13.7378
-12.2909 91.0464 9.7443
-6.07535 82.9418 12.7732
-19.8992 104.577 3.25732
-19.75 101.803 5.12388
-9.4437 118.102 -10.4258
2.07037 116.765 -14.189
3.57413 114.963 -13.557
-17.1431 114.645 -4.99984
-19.665 101.183 5.37988
14.6734 98.4691 -6.69608
2.37961 116.126 -14.0299
-19.7579 112.247 -2.3836
14.0481 100.221 -7.69911
-12.0209 117.428 -9.17308
-19.2714 105.274 2.17865
-18.8385 106.727 0.990275
13.2469 104.193 -10.2352
16.54 92.3296 -3.33414
-19.6022 104.72 2.61571
-9.76026 117.101 -10.0839
9.92054 107.877 -11.6237
-19.1638 108.271 -0.145737
18.8044 86.3474 -0.277591
13.378 102.481 -9.33983
-12.1181 88.5813 10.6211
-19.8827 110.058 -1.24216
-2.35945 117.751 -13.7296
-0.514654 118.824 -15.2374
3.86804 113.849 -13.5765
-18.8121 107.466 0.0127659
-18.8188 106.256 0.851065
-16.1271 113.329 -5.17925
6.01345 112.501 -13.5919
-18.779 106.291 0.734822
-1.16029 118.047 -14.6688
-16.8132 112.945 -4.80657
-15.9199 94.9565 7.35346
-4.92705 117.218 -12.6097
-11.4927 115.764 -9.08532
1.67406 115.743 -14.4381
0.33786 118.078 -15.5683
3.56473 113.495 -13.6976
-10.3222 87.242 10.2135
12.2004 104.852 -11.1899
18.8576 84.2913 0.438474
-13.7902 90.7988 9.10129
-1.97928 117.371 -14.2284
-13.959 115.488 -8.07442
-19.7317 100.392 4.77168
8.43439 109.141 -12.772
-11.1008 114.959 -8.94102
16.5704 90.6942 -3.25322
-19.7542 109.829 -1.89155
-4.56596 117.021 -13.1178
-14.0499 90.2814 9.33784
-16.5534 95.0034 7.06065
-18.8998 106.953 -0.378629
-8.58618 86.0861 9.93113
-15.8137 93.6988 7.5278
13.1545 99.9879 -8.60945
-17.9804 96.3621 6.46429
13.0378 100.198 -8.76838
8.06107 109.37 -13.146
9.04919 107.478 -12.2845
4.05578 112.345 -13.7041
-17.2259 95.2637 6.77269
-17.0333 112.171 -5.09592
-9.41429 115.575 -10.558
-20.1113 101.669 3.45619
14.5377 96.1812 -6.74405
-17.457 95.4648 6.6581
18.1179 85.4146 -0.777276
-11.7463 87.522 9.83964
14.3888 96.4072 -6.9891
17.1638 87.9592 -2.2621
0.64444 116.066 -15.2145
15.6315 92.1042 -4.58859
-5.05445 116.488 -13.2082
10.4159 105.37 -11.8077
8.73426 107.476 -12.5991
-18.4611 97.2298 5.54255
-13.4991 114.298 -8.38506
16.9562 88.1308 -2.5445
-10.1669 113.257 -9.13577
-15.5571 91.6791 8.05607
-19.8558 100.225 3.80851
-16.3162 92.9485 7.42452
-13.7558 89.0907 9.02299
-5.14497 116.107 -13.3583
-20.0648 100.896 3.26772
-19.0224 106.193 -0.872607
13.0062 98.6228 -8.59148
-12.9141 113.638 -8.57553
-10.1645 87.1963 8.67815
-10.6624 112.307 -8.62853
-12.8571 113.364 -8.54247
-12.8228 87.9867 9.09428
-11.7299 112.44 -8.40683
-11.6818 112.318 -8.37693
0.0645578 115.793 -15.571
-19.1932 105.987 -0.971992
17.7809 84.6659 -1.08684
7.92571 107.982 -13.3901
0.912027 114.169 -14.9084
17.3394 85.5823 -1.64102
-9.90723 112.435 -9.34519
-9.51718 112.695 -9.73352
5.22649 110.009 -13.8291
5.41737 109.838 -13.7963
-8.61439 113.349 -10.5781
-8.02164 84.301 9.38848
-9.22197 112.858 -10.0373
11.4062 103.108 -11.6813
-9.183 112.709 -10.0523
-15.1727 90.6212 7.73799
-19.5879 104.985 -0.493119
-12.2146 111.792 -8.23528
-5.81619 83.8667 8.62503
-17.1908 111.074 -5.74655
10.6277 103.994 -12.1297
-19.5573 105.252 -0.792838
-14.6644 111.626 -7.44559
-3.69335 115.011 -14.2563
-17.3096 108.459 -4.22322
17.9908 82.7738 -0.649796
-9.6288 111.088 -9.23
17.2877 84.5129 -1.61451
-3.75373 114.589 -14.1113
-20.0924 100.682 2.18022
-19.0453 97.4678 3.98118
14.5647 93.0573 -6.58541
-6.34058 112.541 -11.7194
-19.7363 105.354 -1.31873
-14.9782 90.0638 7.3959
-7.42343 112.068 -11.0282
-18.8294 106.706 -2.74784
16.1165 87.4946 -3.53181
-7.53416 111.452 -10.6521
-13.0233 110.222 -7.59538
-17.6829 106.694 -3.32951
11.1421 102.337 -11.9769
10.8695 102.805 -12.2155
9.74968 103.934 -12.5698
17.0807 79.0804 1.7697
-17.8474 106.349 -3.10054
-6.7826 84.008 7.98052
-9.36175 110.078 -9.1472
-16.8281 106.973 -3.99773
14.9463 91.6562 -6.20211
1.60535 111.429 -14.5883
6.7096 107.563 -13.9855
11.1792 101.684 -11.7931
-6.96342 110.899 -10.8726
14.8906 91.5261 -6.28667
1.29246 111.492 -14.7245
-19.132 97.6385 3.17422
-8.34336 83.6596 8.51427
17.2324 83.2263 -1.56754
-16.6868 106.98 -4.39981
-2.413 114.545 -15.4583
-5.79139 111.39 -11.9661
-19.0282 97.3562 3.15068
15.9071 86.8123 -3.68294
-16.6466 92.4134 5.52284
-15.3808 109.324 -6.80354
-19.2256 105.299 -2.50462
-12.5866 86.9746 7.56439
-15.2435 90.0026 6.49205
-12.6568 87.0287 7.49788
-7.237 110.255 -10.9379
-9.23641 84.881 7.53501
-5.55553 110.851 -12.2041
9.09238 103.545 -13.0564
-10.4759 107.988 -8.24084
-18.8001 96.9267 2.79403
-20.1014 100.287 0.882134
14.981 87.596 -4.50564
-7.42113 109.657 -10.8382
15.4776 86.5063 -4.0114
11.7483 97.8666 -10.4378
-6.70573 83.8778 6.77263
-14.751 89.2173 6.29457
-1.85599 113.256 -15.74
-16.6559 105.001 -4.01565
14.4507 90.6633 -6.66103
-20.0726 99.7236 0.996437
-7.57804 109.21 -10.7361
-9.02171 86.1823 5.86235
-2.87651 112.523 -15.0116
2.11879 109.095 -14.7416
-0.821642 113.246 -16.4861
12.7579 93.5245 -8.28975
-11.6932 106.499 -7.45905
2.9067 108.423 -14.7447
-7.90536 108.573 -10.4939
-19.2525 100.161 -0.0460758
8.15492 103.615 -13.6819
-10.7924 86.4794 5.88981
9.66518 101.361 -12.7689
-13.5475 105.807 -6.52072
-6.76588 84.4296 5.61521
2.87177 108.013 -14.7783
-18.273 95.8546 2.24297
14.0105 88.1016 -5.50078
-10.1281 86.3982 5.44856
-18.2314 95.7821 2.18449
0.664006 110.073 -15.4282
-18.8495 99.778 -0.387576
13.7737 88.7285 -5.94116
0.0442092 111.065 -16.0215
-8.95505 84.8373 5.88913
7.56423 103.911 -14.1457
-12.6624 86.8791 5.89134
-14.1883 88.0976 5.65962
11.8232 95.3454 -9.96801
16.4838 81.8291 -2.4831
-18.5665 101.221 -1.90682
-11.353 86.2095 5.58783
-15.9612 104.543 -5.32501
-18.0545 95.589 1.75343
-15.5884 89.9997 4.6038
-3.66278 111.017 -14.9089
-11.1385 86.1817 5.40883
-10.6203 86.1917 5.17512
-14.901 104.767 -6.04051
14.7234 84.9184 -4.21894
0.209003 110.128 -15.9104
11.7901 94.3066 -9.60852
16.4793 79.0862 -0.949555
-9.92322 105.999 -9.02859
-17.1974 102.449 -3.61489
4.15641 106.016 -14.7639
-18.0987 99.7079 -1.43839
-14.3412 88.1034 5.11938
0.497521 109.295 -15.6655
13.7887 87.1873 -5.64338
-17.7106 93.2798 2.78625
3.99124 105.807 -14.7376
-15.6558 90.026 4.0698
-15.8637 90.6291 3.73082
-18.5565 96.3723 0.813615
11.8824 92.5795 -9.04412
-13.3447 87.2867 4.84647
10.1924 97.784 -12.011
-13.9307 87.7327 4.75326
15.7651 81.7728 -3.27609
-13.9255 103.497 -6.41968
-17.6428 94.2101 1.48917
1.38163 106.804 -15.0028
-9.07729 85.934 3.75855
8.46913 100.093 -13.2501
-1.93054 110.352 -16.2429
5.5821 103.175 -14.3948
3.6608 104.34 -14.5318
-17.0701 101.507 -4.20285
10.6859 95.9602 -11.5778
15.9714 80.2665 -2.82704
-18.3731 98.2356 -1.45213
-16.7497 101.66 -4.49846
-17.2504 92.091 2.33456
13.1341 87.8019 -6.97872
15.9896 80.0923 -2.82212
-8.39537 84.3933 4.04583
-17.4335 99.0195 -2.49587
10.8649 94.4761 -10.89
13.4802 85.6858 -5.83847
-16.9178 99.3106 -3.06506
-15.0236 101.477 -5.36471
5.37941 102.509 -14.3679
-16.5343 100.895 -4.39412
15.753 80.1962 -3.10597
15.3953 80.8005 -3.48995
3.79794 103.089 -14.3298
-17.5648 92.2893 1.82958
14.6952 82.6763 -4.55024
10.867 93.5745 -10.7241
15.896 79.48 -2.94284
-8.46755 85.5467 2.67316
-16.122 99.7462 -4.15506
-8.94064 106.121 -11.5028
9.54413 96.9051 -12.5908
-12.8898 101.769 -6.9114
-10.9477 85.6956 3.43909
-17.6815 93.8167 0.467417
-13.3465 101.193 -6.46192
6.68111 100.819 -14.36
15.7981 78.314 -2.38089
3.49433 102.462 -14.237
-18.4997 95.5151 -0.517028
9.7803 96.2556 -12.501
15.7863 77.878 -2.12781
15.5118 77.0348 -1.4556
-16.6552 98.8084 -3.62083
-8.85938 85.5286 2.46014
-8.37147 84.9764 2.58056
13.1976 84.9056 -6.1255
-16.3605 98.7981 -3.87646
-17.879 94.3326 -0.153093
-8.07784 106.281 -12.4527
-8.3231 83.7984 3.29549
-10.4669 85.3994 2.99073
-12.7933 87.7483 2.29224
-10.0779 85.4245 2.75235
12.8871 85.7034 -6.84909
-14.6495 100.334 -5.98511
4.08298 101.26 -14.2616
10.4418 93.4286 -11.3988
1.62851 103.954 -15.3103
-18.0386 94.5023 -0.78211
13.3396 82.8451 -5.37249
-16.933 97.9833 -3.77222
9.01705 96.3114 -13.1099
3.74655 101.011 -14.252
-3.94469 107.488 -15.6811
-17.937 93.9642 -0.623596
14.1141 81.5406 -4.98319
-11.3736 102.563 -9.34532
2.80854 102.013 -14.7188
-13.0611 88.1644 1.3515
15.323 77.2241 -2.52001
-2.87763 107.382 -16.1891
-10.0677 85.3407 2.04551
13.0933 82.8838 -5.69189
10.3475 92.8433 -11.5651
-13.6427 99.9352 -6.80041
-11.754 87.8141 0.812717
0.711868 104.827 -16.0964
-17.665 97.3415 -3.46609
7.6475 97.5413 -13.9243
-14.2528 88.5722 1.18766
12.8716 83.8115 -6.56373
-15.8671 98.1529 -4.96684
-13.4499 99.6978 -7.02287
-2.51225 106.678 -16.3986
10.7455 90.9348 -10.913
-10.9049 85.3187 1.7247
-18.2302 94.9397 -2.20652
4.46877 98.9714 -14.203
12.3203 85.7329 -8.22009
7.52514 96.5893 -13.871
-10.9819 86.2559 0.76419
-11.6422 84.5817 2.18138
-7.02001 105.205 -14.1066
-12.2214 85.5286 1.64367
12.7749 82.8902 -6.87568
-17.6065 93.2517 -1.84088
-0.464926 104.189 -16.4764
-12.0291 85.2039 1.42334
-7.99737 104.124 -13.3958
-18.074 95.8486 -3.60921
-14.0292 98.3924 -7.02598
7.51645 95.4509 -13.8341
-4.80542 104.858 -15.4202
-10.9392 87.3818 -0.761559
1.71855 101.147 -15.4805
9.32241 92.9334 -12.8807
3.11754 98.7779 -14.5723
-15.629 89.5992 -0.672106
-16.2712 90.9529 -1.55217
-17.6627 95.9645 -4.49082
14.3449 77.6226 -4.68912
3.42789 97.929 -14.4217
-14.4452 90.3524 -2.08721
0.146812 102.118 -16.2284
-14.7058 93.029 -3.89494
-13.4473 98.6447 -8.37364
6.54149 95.0857 -14.0262
-15.2678 90.9376 -2.32747
-1.86195 103.474 -16.5622
10.6315 88.0524 -10.8913
-12.4954 99.6269 -9.61522
-2.31212 103.507 -16.4594
9.40145 91.1417 -12.5864
-12.1095 87.9227 -1.64441
8.32344 93.0177 -13.4891
-15.4299 92.2914 -3.38283
-15.9353 92.3621 -3.31517
12.1359 81.1698 -6.87784
-11.3491 86.6799 -1.21975
6.60533 94.6384 -14.0611
12.3071 82.4218 -7.87687
-15.6136 97.0372 -6.7662
9.57141 90.274 -12.263
12.2673 82.6507 -8.05911
-6.0958 87.8922 -4.37742
-3.09046 103.217 -16.2723
-14.3241 97.8277 -7.98666
-12.7867 90.4271 -3.47731
8.20673 92.6095 -13.5413
12.1453 82.6622 -8.21633
-8.32786 88.1291 -3.83637
4.06787 96.0224 -14.353
-12.9114 89.8777 -3.22473
-13.5701 88.7025 -2.15057
-13.2621 91.7716 -4.45847
-12.8334 90.7021 -3.89539
-3.56654 83.9874 -2.97092
-9.28391 88.3509 -3.73378
7.36007 93.2664 -13.9185
-7.6871 88.8626 -4.76876
3.19477 96.5921 -14.6513
2.0897 98.1037 -15.3042
1.7486 98.559 -15.5003
-10.0965 88.9556 -4.01763
-10.9249 86.7726 -2.19286
-0.992231 101.563 -16.5582
9.83904 88.3192 -11.7206
10.1895 87.4025 -11.2379
-6.98661 101.645 -14.2356
-10.697 89.0217 -3.98434
-11.0655 83.7557 -0.283021
-13.6915 98.3999 -9.4312
5.3482 94.3365 -14.3164
-12.4153 87.7704 -2.56644
-12.2267 85.3534 -0.961902
-5.09713 85.035 -3.63593
-16.3106 95.5868 -6.45037
-15.7168 96.8176 -7.55317
-13.2969 94.0255 -6.59484
-12.76 89.2278 -3.47749
-8.6744 91.2101 -6.54982
-11.7875 83.9849 -0.266378
-12.6455 92.0023 -5.51547
-10.5466 100.589 -12.4191
0.565735 99.2442 -16.0252
-14.9926 95.186 -6.91073
-1.26263 101.027 -16.5491
-8.64159 91.3692 -6.90346
-5.47425 101.452 -15.2176
-9.41439 91.765 -6.92672
-6.21149 88.3067 -5.87691
9.60891 87.7118 -11.8674
-9.30544 87.0544 -3.80839
1.35433 97.6508 -15.6387
-9.81854 89.9179 -5.75568
-9.92295 99.7085 -12.5708
-12.167 85.5232 -1.82957
-11.0988 99.1768 -11.788
-15.3254 97.0321 -8.60127
9.15467 88.1147 -12.3556
9.80976 86.2881 -11.428
11.3434 82.0423 -9.09359
11.4537 81.6112 -8.85657
-7.31586 99.999 -14.0978
-15.4791 96.7864 -8.57656
-13.3568 98.0783 -10.3708
-9.99582 91.7068 -7.3295
-10.69 98.5131 -11.7998
1.08439 97.2942 -15.7244
-13.3649 97.8405 -10.291
-6.39451 87.4096 -5.85955
-11.0328 83.7005 -1.47292
-11.7306 86.8656 -3.5042
-8.5822 85.808 -4.04468
-5.47548 84.2712 -4.28955
4.11979 93.3781 -14.525
-5.53627 99.3627 -14.7868
12.2403 76.4653 -6.03123
-11.7396 86.6049 -3.43543
11.3027 81.051 -8.9192
-6.37957 87.589 -6.32737
-12.2172 84.0415 -1.49588
-12.5766 85.2481 -2.19896
0.775658 97.0594 -15.843
-11.356 90.2129 -6.17313
-10.1714 97.7174 -11.9855
7.58279 89.8307 -13.7458
-12.8908 96.8753 -10.3895
-11.2982 88.5344 -5.23145
-11.9792 96.8801 -10.7742
-1.20665 98.8357 -16.5601
-11.0851 88.4973 -5.46883
11.6636 76.7052 -6.47709
-7.53918 98.5035 -13.9631
10.9931 79.6471 -8.33373
-9.28579 84.9033 -3.79972
0.214052 96.9778 -16.0998
-5.15684 82.9602 -4.17485
-12.4235 85.9943 -3.35251
-7.99552 84.1528 -3.8635
9.67568 84.7113 -11.4249
-0.738815 98.0093 -16.5153
-12.0353 93.1988 -8.61379
-14.2849 95.9361 -9.72875
-11.8387 85.1676 -3.22932
-6.99742 90.1289 -8.67984
-4.98381 83.6963 -5.06291
-5.92371 85.2047 -5.77243
-10.9329 88.0526 -5.76097
9.94774 82.6431 -10.5213
-0.178586 96.7817 -16.2915
9.48673 84.2836 -11.5932
10.6558 78.2261 -7.856
-8.90871 91.4092 -9.20946
-8.71836 96.5855 -13.0759
-4.75646 83.9743 -5.95944
1.30038 94.3351 -15.637
-4.89066 97.8572 -15.5914
10.2755 80.6503 -9.75724
-14.1427 94.4739 -9.51192
-10.9594 95.4225 -11.4907
-0.857913 96.7751 -16.5783
-11.5254 95.3377 -11.2662
-6.74439 89.7097 -9.31493
10.916 76.5391 -7.28645
-5.48345 97.5507 -15.3269
7.73736 86.9295 -13.2875
-5.67586 85.3844 -6.82949
5.10709 90.0466 -14.4745
-0.348978 95.7958 -16.3473
-2.61389 97.5857 -16.6943
1.8082 93.1097 -15.3923
0.260622 94.883 -16.0825
-13.2429 94.0515 -10.2232
-9.35293 91.1731 -9.8209
-1.94207 96.6681 -16.6769
-12.9494 94.5888 -10.816
9.07865 81.405 -10.6611
6.97841 86.8028 -13.7737
9.15901 80.9513 -10.6122
-0.380354 94.7316 -16.411
-12.8437 93.6009 -10.5974
-9.67813 94.9443 -12.8189
-2.08387 95.9813 -16.6956
4.91356 88.7681 -14.6264
-1.31716 95.3883 -16.7205
-7.68593 89.6568 -10.2171
3.71712 89.8141 -14.9644
9.41221 79.9357 -10.4549
-11.8916 93.1391 -11.3734
-9.32821 94.425 -13.3949
-9.64528 90.5772 -10.6065
1.55226 91.3081 -15.6693
-6.1668 95.0621 -15.208
-5.26028 86.7325 -9.79123
-8.00139 89.3734 -10.5479
6.83807 84.8985 -13.4629
-2.62892 80.8851 -6.95759
-10.0567 93.6516 -12.9076
6.12878 85.4952 -13.9153
7.65104 81.3751 -11.7912
-11.2612 91.1047 -10.9348
-8.72749 93.6121 -13.7167
-5.90945 87.5031 -10.9627
-6.57853 93.6749 -15.0156
-5.25189 85.5288 -9.97428
-5.23934 87.1722 -11.3515
-3.18843 93.3366 -16.5247
-2.69438 93.0987 -16.6824
0.870478 90.1862 -16.1107
5.55846 84.725 -14.3794
-1.78101 91.6377 -16.3232
-6.88407 91.4474 -14.3002
-6.83812 91.4388 -14.3405
-6.6138 92.2588 -15.0746
-0.645487 90.542 -16.329
7.18669 79.6069 -11.9081
-5.75239 86.9838 -12.0687
1.14639 88.5638 -15.9977
-5.49181 83.6795 -10.0372
-0.288569 89.1593 -16.0183
-6.10433 89.6545 -14.0279
4.39314 85.0704 -15.1135
-5.35025 91.5667 -15.7356
-4.27011 91.4115 -16.0916
-1.54808 89.174 -15.6802
2.81838 85.7337 -15.1451
-5.46948 84.9607 -11.4142
-5.23335 85.8263 -12.1405
4.67875 84.2128 -15.0704
-3.35315 90.1036 -15.9571
-5.50777 90.1674 -15.1423
-2.35695 88.4285 -15.4233
1.22789 86.3203 -15.5143
-5.49255 84.0746 -11.4017
-4.88892 89.3536 -15.4883
-4.35161 81.073 -10.0096
7.78822 76.2848 -11.6073
4.63816 82.6342 -14.7901
-5.40077 88.5251 -14.9559
2.74545 84.4161 -15.3902
-2.51972 78.4472 -9.16885
-1.90652 86.7638 -15.275
7.57883 76.2262 -11.7934
-4.92809 82.1923 -10.897
0.584686 85.5193 -15.4622
5.14565 79.7777 -13.445
5.8272 78.2017 -12.6893
-5.42871 87.4013 -14.7513
-0.750445 79.9937 -11.6171
-2.54988 78.3356 -9.81046
-2.5387 80.5969 -11.5618
-2.44411 81.0314 -11.9722
-3.26026 80.2921 -11.1808
-2.98087 80.8705 -11.7468
-2.14442 81.3709 -12.5126
2.57479 82.8328 -15.5773
1.30693 80.4173 -13.3858
-3.62476 81.3334 -12.0663
-2.78906 78.4808 -10.4942
-3.92314 81.5391 -12.2065
-0.375478 80.802 -13.2589
-4.85285 84.8074 -14.2488
4.28307 79.1256 -14.002
-0.831792 83.6926 -15.1174
-1.28662 83.7967 -15.0201
4.2949 78.6881 -13.7292
-0.801914 81.7583 -13.8459
-0.819185 83.1091 -14.7842
-4.06549 83.2076 -13.5726
5.06662 77.1421 -13.1061
-1.18913 81.2254 -13.452
3.52542 80.9413 -15.1697
-3.17343 82.7877 -13.7558
-1.33612 82.5215 -14.3666
-2.45999 82.1797 -13.7741
1.07737 78.7342 -12.9717
-1.82253 77.5787 -11.0215
1.89667 78.8482 -13.5199
3.7645 77.828 -13.9464
2.23746 78.8615 -14.0693
2.46423 79.1504 -14.7171
1.07523 77.6921 -13.3425
2.5875 76.446 -13.8088
