ply
format ascii 1.0
comment Created by Open3D
element vertex 1978
property double x
property double y
property double z
end_header
-0.210106 81.0603 14.124
20.1169 89.207 9.54111
-10.703 91.4124 9.68078
-15.0566 125.576 -6.29851
-18.976 101.094 5.42822
-1.37973 79.3853 15.031
-18.152 121.464 -4.21109
14.6848 129.598 -9.30961
20.3033 90.5389 8.93843
17.1162 111.074 -0.641723
14.8659 116.522 -3.12982
13.5227 126.845 -7.95221
-4.55934 130.437 -8.95756
17.5455 128.42 -8.81476
-15.1749 96.5252 7.51484
9.73739 135.349 -11.7763
-0.736401 80.0679 14.7533
13.6316 123.543 -6.31626
20.9261 99.5799 4.74997
-2.77922 85.0573 12.5221
14.3635 126.891 -7.8687
-19.7914 108.673 2.05418
17.4796 108.291 0.837145
-4.83133 130.605 -8.84411
14.7357 131.798 -10.1462
-7.46451 129.36 -8.11839
-8.7162 88.1756 11.4156
-17.4379 123.753 -5.05993
21.9793 126.817 -7.97583
13.9484 125.03 -6.81431
-19.3694 117.564 -2.00649
19.7695 102.286 3.71776
-9.5362 89.4351 10.9155
-8.15853 87.6858 11.7164
-3.93697 85.6052 12.5418
15.3615 130.1 -9.2245
18.2676 85.3013 11.8512
-18.6536 120.271 -3.26246
5.59836 135.373 -11.3241
-18.8268 122.888 -4.46375
-10.8019 126.199 -6.32523
-8.94281 127.283 -6.90624
14.3254 128.579 -8.39392
19.8403 88.9259 10.1764
13.9334 128.036 -8.0687
-4.41228 131.24 -8.86416
-4.96593 86.4207 12.353
12.9585 136.598 -12.0268
-2.55275 85.4362 12.7514
-2.41367 85.4279 12.7766
-19.4476 122.787 -4.2105
13.9828 124.373 -6.23286
-17.2076 124.986 -5.3144
-16.874 98.3281 7.27862
22.4759 126.631 -7.59194
19.272 87.2161 11.192
1.71087 134.716 -10.532
14.8907 121.85 -4.94043
16.0855 79.5063 15.0391
20.8786 94.5335 7.75547
-8.34669 130.097 -7.92233
21.6606 127.534 -7.81452
13.8966 126.264 -6.9106
13.4212 137.269 -12.0877
-18.5375 120.46 -2.90894
14.5669 123.633 -5.6728
-5.4633 87.1849 12.3229
-13.5454 95.7202 8.60113
21.2422 98.6315 5.89569
13.7544 125.818 -6.63117
16.4015 130.008 -8.69501
-13.2261 95.4716 8.76341
-10.9698 126.894 -6.17075
-12.6729 95.0497 8.97847
17.3266 110.295 0.673751
15.4001 121.788 -4.66554
21.3319 97.2737 6.73181
-17.5338 124.864 -4.82084
13.5623 126.71 -6.87364
-18.3509 118.823 -1.91818
16.5825 121.251 -4.39839
-13.5846 126.502 -5.69904
-0.701623 81.1009 15.32
14.0921 118.034 -2.68407
-8.91947 90.1796 11.3617
23.2452 127.025 -7.26761
13.7521 130.658 -8.62061
14.2951 136.043 -11.1837
20.7727 94.922 8.01075
-19.5451 112.132 1.42195
-19.4172 121.759 -3.12112
-21.0055 116.778 -0.686554
15.4141 78.2079 16.1632
20.4197 93.4396 8.78063
-6.70935 131.987 -8.39753
-18.6988 101.091 6.67349
-19.9789 122.302 -3.27553
-18.2308 102.572 5.98536
4.43499 136.272 -10.8028
-16.6628 125.65 -4.91007
-18.629 101.247 6.71217
17.6575 121.306 -4.14076
-11.6057 126.967 -5.69562
15.5858 78.9849 15.9442
-9.67386 128.917 -6.66198
14.5063 133.521 -9.74556
-4.36534 87.039 12.9565
15.3783 127.56 -6.93071
16.5152 121.676 -4.18835
-4.89036 132.34 -8.40467
17.9842 130.236 -8.25877
19.5869 90.2906 10.594
15.5858 79.2279 15.9821
27.6138 124.904 -6.06308
11.6249 137.38 -11.345
17.8498 108.519 2.06133
18.5985 107.607 2.48009
8.06168 136.797 -10.891
16.9128 84.0838 13.6884
21.2119 98.342 6.79565
-7.28999 132.782 -8.38537
13.1988 131.682 -8.64565
14.0782 131.525 -8.5917
-18.5812 100.386 7.38612
-9.85718 133.169 -8.42989
19.4242 104.378 4.07327
13.2432 139.05 -12.072
11.7063 137.602 -11.3204
-18.5681 123.043 -3.27502
-9.77145 92.0542 11.0625
-10.3298 131.846 -7.71288
10.9147 137.645 -11.2586
-12.3028 126.8 -5.2401
16.0558 115.541 -1.00268
17.5422 85.9808 12.9241
16.1782 81.4775 15.1316
-13.6851 96.7489 9.06715
-3.2982 134.024 -8.92524
-9.21551 134.325 -8.83597
12.8003 138.93 -11.8372
17.567 110.735 1.31402
15.0004 121.69 -3.76388
-20.0928 117.766 -0.565223
19.0463 121.07 -3.58959
16.2535 81.989 14.9883
19.4584 130.319 -7.96835
1.87931 136.285 -10.1101
-20.2738 117.561 -0.38985
-14.8837 127.018 -5.06359
13.9162 133.102 -9.00887
-10.8213 133.818 -8.39844
15.1041 124.537 -5.00331
-1.36234 134.898 -9.26678
19.242 106.071 3.58153
26.0289 126.711 -6.42169
24.7207 127.287 -6.61801
-12.4441 131.2 -7.03307
-12.0956 132.729 -7.74767
3.07535 137.459 -10.5516
14.9505 78.2077 17.0173
15.3051 135.802 -10.2118
-20.9361 116.804 0.15964
-3.1195 87.2712 13.4389
18.929 89.2847 11.6612
-6.99953 88.2143 13.1613
17.1898 133.194 -9.00922
-18.1458 103.86 6.20712
25.6214 127.128 -6.46229
-19.7061 113.505 1.71958
19.3053 105.084 4.21453
-18.6419 106.109 5.22811
-15.5578 99.0253 8.45998
15.0505 123.843 -4.42082
-12.2189 128.837 -5.73115
-14.5658 126.311 -4.43961
18.7495 130.752 -7.80704
-15.6989 126.124 -4.29531
19.6163 103.206 5.20166
18.1509 88.0945 12.4406
-16.4235 126.2 -4.24353
-22.2623 118.36 -0.314143
-22.4644 117.418 0.145671
-17.4727 126.538 -4.31691
-1.15772 81.839 16.2161
7.06834 138.516 -10.8818
13.3835 129.849 -7.02613
-19.5575 122.343 -2.19318
-12.0449 128.556 -5.41292
-14.1379 126.504 -4.35881
2.2074 137.03 -9.95745
-9.73508 92.9945 11.3198
-0.280375 135.437 -9.10029
17.8633 114.085 0.299388
15.892 134.296 -9.15704
20.1043 101.736 6.07997
1.43205 136.334 -9.53836
10.7964 138.498 -10.9026
15.9888 82.5957 15.3222
14.2608 125.596 -4.92184
12.1572 139.761 -11.5331
-14.0457 97.9093 9.25309
19.4914 103.998 5.11655
-19.89 115.891 1.06234
15.5337 133.302 -8.51926
-21.9619 118.249 0.053367
-22.5203 118.343 0.0428383
12.9255 130.945 -7.2668
-14.2524 128.639 -5.13001
-7.75163 89.4149 13.1626
15.7003 133.454 -8.54239
15.6522 134.764 -9.15998
-18.1407 104.963 6.21724
20.488 96.7329 8.66452
-13.1028 97.1454 9.75728
-7.58061 89.1847 13.3199
15.6921 82.3793 15.6549
-22.8009 117.738 0.416515
-0.962996 86.8592 14.1847
15.816 134.852 -9.13655
-15.094 126.963 -4.21109
7.61652 139.108 -10.8175
22.8007 128.62 -6.42814
19.3717 105.112 4.83616
18.9467 132.58 -8.11631
24.5549 128.143 -6.22572
14.8061 125.34 -4.52294
-18.8442 121.42 -1.38139
17.7086 134.733 -9.02983
-2.66649 135.289 -8.49573
16.0184 126.638 -5.08987
14.8608 132.154 -7.64962
-14.9427 127.701 -4.37652
15.5219 122.422 -3.02737
-18.9144 122.565 -1.76894
-13.7295 128.579 -4.78574
20.5238 99.9769 7.45597
-14.5328 128.433 -4.63169
15.335 120.101 -1.83044
19.2566 92.1588 11.2481
4.06807 138.997 -10.2989
-16.5858 127.246 -3.94781
-14.2466 128.636 -4.69368
-0.371941 80.1777 17.6812
19.731 131.169 -7.18212
16.2462 85.0011 14.7729
15.4209 123.605 -3.38928
-9.72191 94.1857 11.5001
18.8055 122.802 -3.10028
4.40012 139.294 -10.3169
14.7381 117.414 -0.365976
-15.0203 128.615 -4.51292
19.0719 134.359 -8.51122
17.4362 122.904 -3.02152
17.4774 134.133 -8.32376
14.3472 80.0973 17.3347
18.7711 91.112 11.9685
19.0496 134.507 -8.5512
17.2971 88.2801 13.3641
-15.9237 127.846 -4.05759
15.0859 135.922 -9.03564
-18.1353 105.893 6.43223
-13.4074 98.1387 9.91977
0.214949 136.582 -8.75723
-0.933524 85.728 15.3234
-20.8031 120.161 -0.164288
14.7322 81.5095 16.7443
0.0280015 80.1671 17.9484
-18.7932 125.386 -2.70051
-21.6248 120.883 -0.45345
-18.6029 120.518 -0.380783
-1.29279 84.1841 16.1374
15.2986 83.1933 15.9915
18.2772 122.9 -2.88552
-18.2596 102.127 8.35562
-1.02163 82.0357 17.2128
0.202653 80.14 18.0658
10.7865 140.534 -10.8788
-24.9188 126.208 -2.74168
10.3785 140.228 -10.7069
15.0518 82.768 16.2914
18.6664 135.47 -8.75251
20.1485 132.807 -7.54426
15.6782 116.39 0.410268
15.7259 84.4057 15.5606
15.4378 119.666 -1.09304
20.4745 132.412 -7.29818
-1.42431 82.9318 16.9259
26.678 128.195 -5.52457
-27.3047 125.821 -2.33351
-20.2377 123.367 -1.41886
17.2953 134.846 -8.26576
15.3608 125.453 -3.72328
-22.1039 122.702 -0.987828
19.6083 107.12 4.78214
-20.8275 122.454 -0.914649
-26.6417 125.728 -2.21787
17.5878 133.42 -7.53357
-25.9924 125.751 -2.22318
-0.36993 87.3932 14.93
15.4187 132.486 -6.97135
-23.9205 125.149 -1.96721
-0.262228 137.089 -8.48313
-27.6648 125.509 -1.95296
-1.28253 83.8883 16.7369
15.8295 85.4157 15.3627
-17.7941 128.046 -3.49722
-0.666199 82.2503 17.4958
15.5823 124.09 -2.89627
18.7476 122.919 -2.4571
-21.2889 119.293 0.804597
-16.5142 128.216 -3.59084
-26.7229 125.512 -1.92065
17.508 136.329 -8.72104
15.7036 121.674 -1.7256
-8.25929 137.058 -8.06877
15.759 122.168 -1.94657
-3.13817 88.5672 14.6587
-29.4815 125.529 -1.79847
-1.32517 83.4744 17.0056
-28.7504 125.749 -1.92145
-8.73766 136.927 -7.95577
-13.1857 98.4563 10.4016
15.4938 130.942 -6.01188
13.511 127.755 -4.41146
-19.5813 126.951 -2.75272
12.8174 130.46 -5.64677
-2.65927 136.121 -7.7295
-17.1227 101.697 9.12557
-14.1405 130.251 -4.46005
-27.3778 126.655 -2.24832
16.6732 129.071 -5.07031
19.8234 98.844 9.10132
-28.2639 125.164 -1.49697
15.7598 123.58 -2.43137
-23.97 124.722 -1.43865
-2.6333 136.212 -7.67453
14.2816 132.912 -6.75366
19.7374 99.3287 8.91204
12.9786 132.009 -6.27153
-11.8818 97.6587 10.9411
10.9928 141.675 -10.7331
14.3335 82.5993 17.0634
21.8598 131.639 -6.39576
-9.58241 136.894 -7.66725
-19.4518 120.461 0.520808
-19.597 126.135 -2.14709
-19.8466 127.336 -2.69963
-20.6974 126.837 -2.42339
0.799192 79.6698 19.0468
-0.330486 82.4778 17.7653
-23.9946 124.659 -1.26316
-4.0492 135.707 -7.24367
0.820656 79.5298 19.1256
15.6562 85.8531 15.5733
-0.216595 137.661 -8.30031
-15.5254 100.54 9.86123
-17.154 128.657 -3.359
-10.039 95.676 11.9828
-28.5635 126.594 -1.91049
19.7623 97.0174 10.2232
-18.2938 104.313 8.23787
15.8803 122.006 -1.39172
-21.363 127.496 -2.54946
-13.3075 132.763 -5.34351
16.8615 140.073 -9.94122
20.0511 102.736 7.59278
17.5085 90.6678 13.3992
15.0082 84.5899 16.383
17.2719 123.061 -1.88032
-18.1129 111.752 4.83331
-25.7905 124.908 -1.08382
-19.6675 127.809 -2.6765
8.39287 141.974 -10.4341
14.9713 140.283 -9.88054
-5.57916 89.6246 14.875
-14.2295 130.935 -4.28932
-24.0418 124.605 -0.921194
15.5212 125.908 -3.04696
14.0036 132.94 -6.30738
-18.2746 104.873 8.19852
-18.6431 128.042 -2.71619
-18.2561 114.958 3.46577
15.6893 116.609 1.38804
16.2308 136.117 -7.84157
21.549 133.094 -6.61488
16.2702 125.327 -2.74075
20.1932 136.809 -8.31155
22.0096 132.623 -6.39157
-16.8497 102.112 9.5224
-2.5166 136.695 -7.36982
25.753 129.895 -5.22591
-18.3304 116.196 2.95761
19.5858 99.1002 9.59508
-6.75954 138.085 -7.81706
-4.53294 137.419 -7.57794
-0.134246 83.0234 17.9765
-0.276493 87.373 15.9276
-21.19 125.64 -1.35542
-8.13517 137.865 -7.62383
-29.9447 126.497 -1.4165
-19.3631 124.265 -0.763111
19.4264 123.082 -1.6723
21.587 133.212 -6.52896
-5.10268 137.961 -7.75188
-22.8038 119.773 1.53544
15.908 121.833 -0.918426
-21.8466 123.832 -0.389344
-24.0497 118.463 2.23552
-3.92264 136.993 -7.28697
-19.2867 109.883 6.11656
-31.4119 126.021 -1.02411
-21.1078 128.061 -2.37767
13.1207 142.245 -10.3895
27.5034 125.207 -2.8855
-16.3271 129.74 -3.32277
16.9485 123.323 -1.55438
22.433 122.559 -1.39694
15.201 126.394 -2.92752
17.2056 140.093 -9.46074
-30.9137 127.044 -1.41142
20.0542 103.998 7.53654
-15.9589 131.123 -3.90101
-22.7875 124.601 -0.557065
24.038 130.232 -5.00928
16.5782 131.655 -5.38189
11.6472 78.2071 20.0794
-5.14146 138.478 -7.72905
-32.4403 127.489 -1.47328
18.7103 112.13 3.8354
-26.0509 128.349 -2.11361
-18.0025 130.004 -3.17727
24.131 130.325 -4.92741
-28.3015 124.452 -0.126982
-18.6591 110.762 5.98514
20.1273 103.435 8.00766
-12.9215 99.3223 11.2314
23.6479 130.699 -4.99274
-17.7167 103.638 9.39915
-23.9963 129.145 -2.41338
-21.5093 128.414 -2.15535
16.7205 139.546 -8.8572
15.8094 139.047 -8.5662
15.5756 119.186 0.842498
-20.1543 118.341 2.62052
13.9866 132.113 -5.19116
14.5445 127.198 -2.88629
1.83025 79.858 19.9803
-20.2461 118.207 2.70732
13.7753 132.305 -5.22625
17.1495 134.199 -6.24887
18.222 94.6673 12.3945
-2.2161 137.455 -7.04577
-18.2785 111.455 5.85929
27.7591 127.431 -3.44127
-17.9018 103.965 9.40207
-23.2218 130.094 -2.72271
-19.0391 120.552 1.64023
1.2767 82.4178 18.8964
3.07286 78.737 20.5935
16.5731 137.878 -7.86762
-19.4772 128.71 -2.15118
-25.9941 128.92 -1.96618
19.6723 109.322 5.55079
-19.0819 131.413 -3.40638
15.9433 89.5369 15.0554
14.7854 132.143 -5.036
-19.125 128.535 -2.0306
27.8459 129.018 -4.05403
17.2497 91.9055 13.9022
-32.9178 127.465 -0.979634
-33.1144 127.744 -1.10091
-29.3547 127.618 -1.18321
-17.736 119.837 2.05445
20.3964 123.381 -1.07798
8.56977 143.113 -9.93736
-13.7907 100.17 11.2233
19.8836 108.444 6.03675
15.8725 89.4947 15.1484
-5.05911 90.518 15.4721
-0.321826 138.702 -7.47549
2.16254 80.4384 19.9775
-8.61736 94.6499 13.679
18.7228 138.562 -8.11844
-7.7186 93.2287 14.3271
19.9245 138.708 -8.22114
15.9117 120.825 0.387532
-19.5127 128.931 -2.04944
23.0234 122.889 -0.818856
-18.3423 119.265 2.48224
16.0874 116.671 2.399
-19.32 109.648 7.0807
-29.1943 124.287 0.546844
-18.5635 129.349 -2.24583
-19.6604 129.045 -2.05756
16.7838 139.727 -8.49408
-0.272666 84.5075 18.2736
-23.7785 124.493 0.286573
-18.5949 129.028 -2.03217
27.8177 129.384 -3.97456
-2.32501 89.88 15.8822
20.238 102.268 9.18442
19.7965 106.574 7.19272
22.7094 133.212 -5.49114
-34.2871 127.019 -0.36365
-10.3067 97.7145 12.576
17.4083 124.228 -0.999005
26.6963 130.846 -4.4802
-33.4202 127.981 -0.82079
-23.6622 130.834 -2.52207
-19.1554 128.554 -1.61567
-2.3095 137.814 -6.63034
20.7925 123.614 -0.798026
16.3059 139.349 -8.03649
17.2398 139.668 -8.2156
16.1579 133.418 -5.19984
25.7379 130.952 -4.36209
12.6902 82.892 18.8578
14.1843 134.94 -5.79513
14.9295 127.363 -2.2403
16.0418 133.249 -5.06148
27.8801 129.097 -3.54246
19.7274 105.989 7.70076
-18.3773 111.511 6.58729
-30.6272 127.977 -0.721964
-14.6888 132.34 -3.38965
11.2986 79.4471 20.6208
19.5044 111.203 5.31678
13.1507 131.455 -4.00949
16.3094 134.848 -5.73091
-12.6149 100.044 11.828
11.994 81.1645 19.8228
-30.0295 124.362 1.02146
2.35767 141.18 -8.16478
-18.0252 116.443 4.31675
12.0052 81.2696 19.8008
-22.2471 120.425 2.63366
-33.3477 127.748 -0.402296
-19.8522 131.898 -2.8673
-20.998 131.852 -2.80168
-17.419 115.333 4.88462
-21.2358 131.775 -2.73451
-24.6556 119.018 3.44435
-18.3558 129.338 -1.66238
18.8705 98.0291 11.7688
-17.5227 116.167 4.59889
24.1141 132.206 -4.56684
-26.5054 130.6 -1.85422
-21.5216 131.748 -2.58702
-28.1532 123.65 1.51509
16.373 116.729 3.08586
-19.4102 118.996 3.39084
-29.3306 128.92 -0.914942
0.438523 139.776 -7.18367
-18.745 129.146 -1.42265
28.6453 125.035 -1.28628
17.9735 125.059 -0.843307
-12.8837 100.433 11.9768
-17.7747 130.501 -2.03307
11.3443 80.4368 20.5214
-28.7059 129.621 -1.19213
12.0027 82.5075 19.5255
16.6233 134.056 -5.00617
16.0277 91.9275 14.9782
-11.1516 99.5329 12.4268
27.6859 131.395 -4.09052
-21.4226 131.95 -2.44235
11.9002 82.8427 19.5317
16.0273 132.295 -3.99358
-17.3666 131.469 -2.32118
-7.62904 94.128 14.9586
-8.41284 95.3668 14.413
-5.64107 140.261 -6.89765
28.4547 127.652 -2.24234
3.98447 142.449 -8.29765
-27.2356 130.81 -1.59482
-17.7973 105.664 9.93231
-12.5579 137.625 -5.35649
3.04681 81.9726 20.3623
16.664 134.47 -4.96167
15.1465 90.5348 15.8679
19.6168 110.14 6.43464
8.64188 144.803 -9.50934
9.81377 144.971 -9.6217
16.9026 123.583 0.230754
17.0218 141.501 -8.22705
1.55667 84.7163 19.2036
-14.6728 102.244 11.5523
8.58377 144.861 -9.47525
-25.2899 123.84 1.75661
14.3064 88.0675 17.1545
20.2811 124.015 -0.0519033
-28.4693 119.427 3.98746
-13.9635 136.453 -4.6089
19.7629 139.997 -7.5558
13.7535 129.986 -2.5893
11.5342 82.5272 19.9324
16.5615 126.935 -1.18956
11.1326 81.087 20.6907
24.6105 132.193 -3.95782
29.508 126.204 -1.29795
19.415 105.645 8.80509
21.7832 123.848 0.11619
5.17577 79.4262 21.746
-18.959 110.626 7.95332
-21.8721 132.139 -2.0839
-10.068 98.4683 13.3987
-33.7861 128.125 0.29709
9.157 145.206 -9.41714
0.0886857 89.8546 17.1257
18.5072 99.9538 11.667
-13.6568 137.503 -4.83552
24.229 123.139 0.546913
29.0251 128.093 -1.97435
-25.6667 119.809 4.03977
12.6792 85.6401 18.7352
-29.0899 119.916 4.14629
22.4115 135.137 -5.01017
12.117 84.7401 19.2031
-20.7883 120.958 3.34503
22.8719 134.655 -4.79216
10.3791 145.544 -9.45964
-18.7011 121.453 3.04547
16.5711 126.457 -0.663543
18.3511 98.771 12.3571
19.5294 108.789 7.58931
-7.48658 139.635 -5.94856
-19.3267 117.865 4.79588
-10.4592 99.2536 13.2536
7.25777 144.709 -8.88747
11.2788 83.317 19.9817
26.044 122.475 0.920202
21.8373 123.955 0.408653
15.6157 120.45 2.30656
-10.8372 138.553 -5.23558
17.013 123.489 0.823518
-15.9014 133.183 -2.49611
16.6612 94.2161 14.694
15.9847 127.581 -1.04649
16.019 143.733 -8.68089
10.3628 145.686 -9.37804
19.3217 106.527 8.79505
-12.8347 138.591 -5.12661
-17.1831 133.252 -2.4327
10.2937 80.265 21.5726
19.2216 107.47 8.37585
-18.4246 122.294 2.81818
10.5465 80.9229 21.2859
17.1792 126.356 -0.438864
18.2808 100.727 11.6325
24.086 123.336 0.726349
-26.0507 120.048 4.20502
14.652 91.308 16.2373
-0.494024 87.1309 18.7939
11.6252 84.4893 19.5846
17.5615 96.8117 13.542
16.8296 124.917 0.294603
25.2283 132.41 -3.56041
-17.8785 108.776 9.25905
14.6323 91.5216 16.2245
-17.2777 132.418 -1.86909
-2.71025 141.234 -6.5742
28.4326 131.648 -3.23062
17.5767 97.4549 13.393
-28.5137 119.91 4.57055
12.1221 85.6684 19.204
15.6894 93.1673 15.5449
17.4408 98.5765 12.9577
1.64474 142.136 -7.01782
-18.3119 112.147 7.92802
17.0727 125.134 0.447217
9.56 146.025 -9.12779
-17.8936 113.323 7.40974
26.2774 132.813 -3.47671
10.6791 82.6708 20.8268
-24.875 131.388 -0.828552
-13.3948 138.963 -4.84395
-17.0393 132.096 -1.43333
-0.640221 91.9775 16.9237
1.83448 142.376 -6.98128
-22.971 131.959 -1.07487
24.5993 132.91 -3.32752
-20.3212 132.391 -1.35979
8.50551 78.9649 22.8126
28.9686 130.256 -2.21002
19.4467 105.46 9.88074
-15.4786 133.843 -2.19557
29.5303 129.015 -1.63325
12.3031 87.2764 18.7587
24.9273 132.964 -3.31544
-32.2339 123.103 3.53833
19.2105 107.985 8.72009
17.6058 99.3206 12.8808
-6.85623 95.745 15.5125
-21.1378 121.317 3.97512
30.2995 126.108 -0.23469
29.8607 127.216 -0.724861
2.70671 85.4632 20.0588
-18.5938 118.349 5.33508
10.3598 146.363 -8.98198
19.2743 103.197 11.0902
-21.153 132.61 -1.25469
-17.4234 115.233 6.81766
-17.5487 107.715 10.3897
-9.87801 139.684 -4.99298
-2.23666 141.755 -6.25418
-26.0506 131.181 -0.341271
1.0892 142.28 -6.62337
18.2634 125.759 0.544462
-18.0057 117.271 5.95071
-21.7607 121.694 4.00475
-7.13331 140.545 -5.46249
15.8141 94.1535 15.5941
-24.0394 120.529 4.65353
9.07641 80.6493 22.2623
20.0281 124.517 1.11465
16.3518 95.5131 14.9723
-15.318 104.444 12.0256
-20.696 123.309 3.33039
-10.361 100.267 13.8266
-2.03283 92.6223 17.1225
18.6931 125.203 0.940324
2.59465 86.0315 20.0725
-20.4072 123.522 3.23721
14.9961 130.168 -1.22695
-18.5796 110.619 9.30544
27.8544 132.787 -2.94222
5.72694 144.6 -7.66099
16.5188 118.613 4.23603
-12.9254 102.373 13.0388
17.0813 124.46 1.45955
3.67846 84.4231 20.9016
13.6894 91.1863 17.3234
-15.8406 135.243 -2.3552
26.6197 123.21 1.73066
-3.46286 142.771 -6.36309
-8.94372 98.9306 14.5715
30.5256 125.487 0.524211
-9.851 140.15 -4.84447
15.0799 145.679 -8.38461
18.7124 125.363 1.08458
16.5317 118.677 4.32939
-22.7751 131.878 -0.376957
-18.9891 118.093 6.00011
-5.71089 141.49 -5.54898
-18.6925 118.554 5.79976
16.2706 119.229 4.14721
-32.0503 123.806 3.84696
-1.05 142.004 -5.93721
15.1547 131.375 -1.52336
13.2153 90.3029 17.9793
5.99732 81.9887 22.2004
24.6446 133.747 -2.97164
9.80812 83.413 21.4161
20.2772 124.809 1.45173
-18.7045 117.741 6.28301
23.0394 138.416 -5.0754
6.9025 80.8815 22.7473
-31.3196 130.475 0.808015
2.63519 143.586 -6.68179
15.6909 132.444 -1.91109
-29.6091 123.348 4.15737
7.69036 146.099 -8.01542
-17.4141 107.972 10.9871
-9.02177 99.4476 14.6986
9.73011 83.8642 21.3489
28.6219 123.503 1.9112
16.4091 144.043 -7.32405
22.9266 138.881 -5.12918
-28.5373 121.307 5.1688
-16.1981 105.883 11.9923
-23.9289 122.169 4.59127
-24.0072 122.438 4.50455
17.3454 125.636 1.42093
-20.8079 133.838 -0.993277
19.125 125.46 1.44682
-24.0745 122.69 4.42105
-8.05386 98.2685 15.3547
15.3035 94.9785 16.0249
17.9826 126.605 0.975718
23.5042 136.843 -4.05778
-5.57828 96.3567 16.1941
9.38383 83.2828 21.8242
-17.6402 114.443 8.13867
-24.9436 131.298 0.508224
9.47363 84.2354 21.4609
-20.4637 124.063 3.78475
-7.60837 97.8459 15.6846
17.8983 142.37 -6.31792
21.4038 124.781 1.86401
-8.31623 141.244 -4.77811
28.1002 130.862 -1.25669
-4.946 95.0746 16.9213
23.6557 124.448 1.94911
-18.9023 134.8 -1.31235
-1.01873 143.223 -5.97619
-0.256559 90.5101 18.9137
4.58983 144.908 -6.97488
1.80848 143.577 -6.23335
16.9278 143.123 -6.58638
15.3787 97.7027 14.9395
-26.0333 122.138 4.98542
-31.1392 124.442 4.1383
15.1076 98.3009 14.7248
-26.5208 121.882 5.17859
18.856 112.586 7.86507
-25.9141 122.49 4.90173
0.0650301 89.445 19.5342
-4.43865 94.4501 17.3592
19.0807 114.44 7.02571
0.665122 143.297 -5.8865
8.78586 82.985 22.3472
-17.3891 108.183 11.4669
27.1993 123.904 2.33378
29.3536 128.582 0.0423309
14.6388 94.7741 16.6216
-8.68488 99.8548 15.1173
24.2054 124.46 2.24318
4.94887 84.4918 21.8751
2.26715 88.2412 20.2142
-6.7532 142.102 -4.89059
-8.76047 141.499 -4.52526
27.7725 124.27 2.22888
16.0886 120.174 4.64508
15.6569 146.219 -7.61126
28.5225 132.966 -1.82268
23.8811 137.377 -3.72734
29.6267 124.26 2.27289
-11.5775 141.156 -4.09755
-26.2306 131.999 0.813988
-13.6287 104.375 13.3943
-19.2631 135.026 -0.868266
15.0397 96.695 15.9442
-4.31153 95.511 17.2474
14.5515 97.9892 15.36
17.0339 101.087 13.8328
-21.5952 124.001 4.48689
19.6596 125.817 2.0562
-5.94466 142.66 -4.91532
-7.99814 142.498 -4.73583
3.78932 145.223 -6.47155
-16.066 138.637 -2.58715
-18.6242 124.08 4.40719
6.5716 146.399 -7.10384
18.1588 143.124 -5.94678
-22.0513 132.311 0.702906
-7.28823 98.824 15.965
-28.3628 123.005 5.34692
19.3107 126.184 2.03021
28.9646 128.833 0.408972
14.6495 97.0444 15.9951
-1.80918 95.0922 17.551
-32.7464 128.579 2.95269
18.6238 106.063 11.6313
5.69949 84.3898 22.3733
16.179 100.358 14.4725
16.0974 100.298 14.5171
9.70196 87.1301 20.9866
-17.3836 115.295 8.72285
27.4347 130.342 -0.082198
5.23532 146.26 -6.75219
28.7137 126.783 1.57916
10.225 88.9128 20.2183
17.504 127.594 1.66186
-6.09005 143.272 -4.84206
27.3279 131.116 -0.366171
7.77544 147.204 -7.19011
-29.6494 124.372 5.03648
-24.2472 123.884 5.06989
16.6075 101.258 14.2086
26.4801 124.663 2.77165
27.2373 131.405 -0.427406
-24.7295 131.794 1.40577
-17.6473 114.236 9.44965
-18.2991 112.863 10.131
16.7121 101.578 14.1317
17.9606 144.122 -6.00868
25.9489 125.87 2.35687
27.3666 126.668 1.94121
-32.4361 127.579 3.80774
1.66846 145.107 -5.76935
27.7762 134.496 -1.74183
-22.2378 134.784 0.0412481
-18.3549 112.759 10.3068
17.5237 127.279 2.09476
24.315 137.778 -3.1224
-14.0955 141.172 -3.25455
-3.4477 95.1742 18.1003
1.0704 90.3528 20.2093
18.6696 115.198 7.79603
6.46915 147.218 -6.86742
27.0754 131.47 -0.191149
9.76764 88.4804 20.7953
-29.7358 132.068 1.71455
-31.6726 125.696 4.81017
-13.775 141.615 -3.39312
16.5013 129.79 1.03907
-13.4574 141.985 -3.57042
25.7429 127.403 1.82727
16.4946 146.013 -6.61187
1.4975 145.389 -5.74032
17.3167 117.792 6.69822
17.7763 104.763 12.8463
-9.32299 144.368 -4.81855
10.6995 91.307 19.5145
17.3596 117.696 6.79334
-17.8621 125.633 4.39527
27.9723 125.856 2.55886
-0.726461 94.5849 18.4379
13.3194 148.526 -7.58103
4.10423 146.587 -6.28452
-18.8065 118.838 7.73736
16.6007 119.849 5.91157
23.5502 139.966 -3.85811
17.9264 107.185 11.8656
25.3941 125.456 2.94611
-19.8861 136.282 -0.413703
18.8311 113.217 9.06169
-1.38353 145.772 -5.51427
-20.711 136.28 -0.27742
17.1878 104.032 13.5183
-17.7873 122.522 6.13788
-4.63912 144.694 -4.82615
-22.4679 133.995 0.914151
-31.2078 130.818 2.75284
17.5396 106.174 12.5634
-19.3695 124.599 5.31142
14.4855 99.8763 15.7313
-12.9514 105.875 13.9639
17.3694 106.031 12.7363
25.7512 130.605 0.813228
-2.09165 96.0554 18.22
-24.517 124.396 5.68498
15.8862 123.521 4.56757
-15.8032 108.925 12.6841
-6.38768 144.824 -4.63827
0.527422 91.8662 20.1427
-9.41247 102.038 15.7265
-29.6353 132.273 2.23186
-17.5909 111.144 11.7685
-22.4456 133.562 1.36653
-17.9709 137.395 -0.597809
13.5783 97.1853 17.2013
2.54729 146.615 -5.72463
17.0235 128.817 2.13542
-18.001 123.517 5.98114
-14.8882 142.151 -2.93453
-18.0272 137.486 -0.608485
17.2652 106.767 12.5716
-19.3134 137.47 -0.529977
17.1186 145.226 -5.58528
27.109 135.821 -1.51959
-23.4192 124.587 5.7284
-1.73025 146.168 -5.28835
25.9219 136.234 -1.63896
11.5043 149.594 -7.40153
-6.79948 99.8985 16.7859
16.8771 129.09 2.09348
0.536468 146.603 -5.55559
17.4982 108.247 11.9402
15.908 123.646 4.74788
23.8318 126.245 3.2348
16.5183 129.788 1.84211
15.9505 122.552 5.31124
7.64756 86.687 22.5844
-16.586 138.152 -0.810901
-17.3196 137.729 -0.581498
-18.2071 125.62 5.18068
12.2184 94.7598 18.6139
-17.4491 111.279 11.9445
25.7804 132.19 0.409629
12.6825 98.6927 16.7419
8.11257 87.3759 22.274
-30.8968 131.133 3.0937
15.9809 121.494 5.85797
-14.6324 142.876 -3.0584
-0.134996 93.8773 19.5457
-28.8186 124.279 6.28515
-18.5913 126.046 5.07361
9.97849 92.3672 19.9024
24.2135 139.372 -2.84574
17.4345 126.688 3.41829
6.4776 86.8461 22.69
-10.4163 146.124 -4.66545
24.9344 127.47 2.80173
17.5254 127.935 2.87175
-17.778 116.877 9.44941
15.3654 147.9 -6.46547
-30.2113 131.916 2.86168
24.2985 126.556 3.31955
-28.7508 132.544 2.52729
-21.7705 136.245 0.515193
-16.7982 127.764 4.34689
-15.9903 139.088 -1.02793
12.0323 149.476 -7.00806
-24.0789 132.207 2.53794
-26.7757 132.753 2.38463
-7.97265 146.57 -4.85909
14.3458 100.647 16.0097
22.2245 126.761 3.3701
-17.9689 126.029 5.27729
9.66733 92.5972 20.0476
25.6923 137.284 -1.67924
23.8612 140.415 -3.08463
-18.5726 126.061 5.34453
-17.8842 114.202 10.9343
25.8288 137.181 -1.58086
-27.358 124.952 6.24185
14.1537 148.514 -6.46585
23.4035 126.963 3.37192
-6.01262 146.13 -4.55798
24.9964 131.072 1.39765
12.2598 99.561 16.7857
-5.76029 100.089 17.2491
7.03182 149.363 -6.52127
0.332101 94.5596 19.6385
-23.2471 125.236 6.05373
13.6909 148.761 -6.44053
-11.6253 106.681 14.42
18.7199 115.16 9.26732
16.8189 146.452 -5.43668
16.1341 123.009 5.67081
-15.3682 109.783 13.1459
-3.06834 146.636 -4.73892
-0.73846 96.8558 18.7128
-16.2576 127.561 4.79471
-17.9857 123.337 6.85777
0.929689 93.0393 20.4666
-10.3589 105.678 14.9259
12.3775 97.0512 18.1571
-5.59787 100.261 17.3543
6.36614 149.425 -6.33779
3.25496 91.2047 21.3216
0.147156 96.9885 18.7122
16.0175 106.697 13.5176
24.3206 139.298 -2.10922
-18.6119 122.218 7.60968
-9.89692 147.493 -4.64833
15.5339 104.462 14.7563
1.03683 93.8909 20.3087
18.2964 128.422 3.32888
-28.7404 125.436 6.54011
-3.60396 146.742 -4.48203
2.98402 91.649 21.314
-13.9263 108.418 14.0383
18.1059 112.54 10.8667
18.263 116.355 9.06494
23.6153 141.444 -2.98792
-30.933 130.727 4.1633
-22.5374 136.121 1.32352
18.3906 110.878 11.7065
17.1978 129.358 3.02958
16.8481 120.162 7.40711
11.0772 95.1355 19.4667
0.0261039 148.045 -5.11191
-24.801 125.409 6.53798
-19.1554 138.843 -0.0113455
5.79323 88.8955 22.6517
-6.10099 147.438 -4.55737
18.4473 110.506 11.9624
-23.9808 132.53 3.19182
6.81062 88.7823 22.7075
17.0403 126.549 4.4767
20.6697 128.101 3.6184
-0.638088 97.3843 18.9547
-17.8192 115.614 10.997
-16.8018 111.904 12.748
-9.8131 106.089 15.2402
-28.7559 125.959 6.5811
-24.1978 132.733 3.21827
13.5134 102.053 16.2788
26.3022 135.419 0.0433663
12.539 100.971 16.8512
-26.1006 125.98 6.51077
21.3902 143.961 -3.78974
-5.11761 100.856 17.6867
24.8123 132.799 1.46038
18.8433 115.539 9.85806
-10.2722 106.89 15.0964
-19.0544 124.906 6.92017
-18.8822 124.657 7.03797
20.1292 146.061 -4.55802
20.0447 128.54 3.75009
-16.335 140.586 -0.547446
18.7999 128.879 3.64173
26.7175 135.934 0.00686009
20.6643 145.593 -4.32216
12.0376 100.939 17.1323
-14.9045 110.425 13.7017
-15.449 126.912 5.93386
18.457 146.632 -4.65205
5.6565 89.9853 22.6253
-3.69345 100.665 17.9596
18.258 146.831 -4.6192
10.6598 150.942 -6.25372
-23.4551 126.391 6.68159
-28.3052 126.889 6.70282
-29.8728 129.678 5.45746
-18.3839 118.564 10.3043
8.17547 92.6114 21.5705
13.0724 149.906 -5.68423
16.3719 124.263 6.31313
-22.7551 133.585 3.4306
-29.6677 132.353 4.28095
-16.5827 141.056 -0.331101
16.2209 108.302 13.9199
26.3917 136.861 0.0366764
18.2224 130.254 3.47863
17.0338 120.508 8.15966
22.672 129.591 3.6543
-29.0686 132.783 4.13054
6.22749 90.404 22.8119
-29.1373 132.785 4.14853
-19.2937 121.95 8.92228
-17.8222 126.123 6.89617
0.0274776 98.1985 19.4233
24.4355 139.7 -1.11195
-15.8838 141.885 -0.597139
-4.48555 101.577 18.0387
25.3885 135.965 0.648786
24.0698 131.071 3.01871
-2.26143 100.913 18.2807
-3.83024 147.882 -3.85754
-19.1004 122.831 8.56974
-8.07929 105.199 16.504
26.3039 137.643 -0.143781
17.2325 127.646 4.92912
14.6873 105.06 15.7082
23.2324 143.127 -2.59607
10.5643 97.1095 19.6395
-26.0107 128.164 6.36446
-0.406566 98.3778 19.4985
23.5504 142.709 -2.36664
-26.4973 134.08 3.63387
-18.1642 125.925 7.22421
10.5573 151.304 -5.86832
15.2067 108.028 14.4679
3.05213 93.221 21.9398
10.7969 98.0928 19.3555
19.469 146.99 -4.08026
-16.411 113.692 13.0318
17.0841 127.336 5.33041
23.2832 130.851 3.44476
-24.3795 128.738 6.27911
-17.2853 116.262 11.9062
-18.3531 125.792 7.46437
17.6421 148.097 -4.44621
-17.2334 116.335 11.9044
-27.2809 128.415 6.59769
14.0871 150.001 -5.17306
-13.0754 109.825 14.8874
-15.9531 112.953 13.5201
-14.7893 126.618 7.04389
16.3917 125.256 6.50954
18.1938 130.017 4.23558
-9.66689 108.042 15.6975
16.9715 127.077 5.6884
17.3413 130.5 4.05964
9.98958 97.3043 20.042
-18.5939 140.82 0.577477
-17.8794 129.841 5.7403
-19.0435 128.959 6.2038
-24.8785 129.727 6.08858
-24.2072 129.678 6.1056
11.505 102.169 17.7437
8.90233 151.891 -5.65588
-19.1555 128.699 6.39123
-28.9204 130.025 6.13825
-8.14457 106.88 16.2899
-22.7234 137.099 2.56722
-17.382 141.637 0.219537
-25.4931 130.021 6.02423
-15.9232 114.136 13.1752
-17.5405 130.06 5.74223
-12.2838 109.621 15.2125
-14.4299 127.756 6.73996
2.71519 95.3343 21.421
-16.1591 129.522 6.02381
22.2472 144.779 -2.65528
-29.493 132.479 5.14124
8.0787 151.731 -5.36303
17.0364 110.198 13.9568
16.4788 124.178 7.37205
14.5297 107.856 15.1624
-1.32382 100.478 19.2624
16.9524 127.354 5.86652
-0.359655 99.0881 19.9176
6.98034 151.677 -5.21087
23.7438 143.112 -1.78859
-22.7972 137.162 2.83144
-23.1669 130.276 6.10628
-23.6727 135.574 3.62724
0.672752 150.7 -4.42739
-18.5996 121.806 9.97137
16.9819 110.326 14.0449
-13.8231 111.481 14.6818
-0.108365 99.1715 19.9835
20.5877 131.73 3.83397
16.4977 124.291 7.52782
-15.3618 113.103 14.0576
20.8562 146.318 -3.0131
24.2684 133.903 2.74068
-27.7527 134.285 4.56097
3.52636 151.459 -4.74674
-9.08285 108.38 16.0981
-4.97436 103.532 18.2485
11.7722 151.164 -4.90295
-1.12536 101.294 19.1876
-28.9398 132.123 5.69538
-9.31174 150.007 -3.4688
21.4836 132.546 3.61847
-11.1588 149.391 -3.06654
5.25887 93.311 22.8286
-13.9881 127.585 7.37411
-15.6184 130.176 6.2194
-8.43954 108.055 16.4211
-20.4514 129.132 6.92066
-23.4693 135.172 4.21696
15.2682 149.683 -4.11588
-7.81413 150.603 -3.64275
24.703 134.615 2.68258
5.8087 151.953 -4.78467
18.1297 148.191 -3.46662
-14.8322 145.188 -0.786307
9.36869 100.443 19.4455
-18.3106 119.947 11.2943
6.69546 94.8218 22.2689
23.0107 133.798 3.22451
13.9972 107.767 15.8919
7.15864 96.4226 21.5303
-13.2611 147.148 -1.6429
-8.26516 108.173 16.5962
-28.335 132.568 5.83603
-2.43354 150.464 -3.59704
6.7779 95.9614 21.841
25.338 139.84 0.406338
24.4719 142.579 -0.850193
1.33502 99.3812 20.5022
-0.476471 100.793 19.9052
17.1142 130.804 5.05364
8.6502 102.096 19.0071
16.8801 124.114 8.30236
-22.4058 138.258 3.12257
-2.15532 150.76 -3.55405
18.5055 119.366 10.5009
-24.4003 134.133 5.19386
3.81909 95.0364 22.5983
16.8442 128.418 6.35895
-21.0326 130.601 6.84478
8.87889 99.2219 20.5342
24.9265 138.661 1.28558
16.5569 125.9 7.63827
-14.1595 131.074 6.38498
-5.57925 105.436 18.1819
17.715 114.003 13.244
-21.3306 131.663 6.3983
17.2755 129.285 6.05498
-5.05853 150.86 -3.28065
-18.4139 124.068 9.89788
-18.4353 124.127 9.87505
-27.3439 132.564 6.24541
20.3396 132.589 4.41975
20.9155 132.822 4.29899
-23.9089 136.556 4.25852
24.907 138.861 1.30722
11.2706 104.088 18.2668
0.706149 151.845 -3.88696
10.0645 103.723 18.499
2.72419 98.6224 21.1988
-17.0073 144.042 0.5319
3.47105 96.1627 22.3785
-2.02808 103.735 19.0111
-17.9537 143.697 0.750206
7.35799 97.7649 21.5333
-17.6253 119.753 12.1069
7.80311 98.2738 21.2939
17.3164 148.811 -2.95462
19.7665 147.425 -2.38292
2.42864 152.081 -3.90476
-22.2189 138.975 3.24269
-13.5414 129.277 7.5159
-17.9157 120.726 11.7537
-11.4987 111.595 15.8387
-5.2967 151.335 -3.15432
-20.8151 141.058 2.30156
-0.710127 103.408 19.3501
25.2031 140.829 0.674741
18.1236 130.225 5.96967
-4.2245 151.078 -3.02297
-7.10335 108.062 17.4293
-16.501 125.513 9.56131
-13.7621 131.917 6.44849
7.43252 152.701 -4.17971
11.9082 151.722 -3.88783
23.651 134.925 3.61744
-17.759 121.619 11.4921
17.723 148.668 -2.64137
13.0863 108.621 16.4658
-22.9059 137.787 4.08535
-14.5631 127.476 8.64339
8.79782 103.845 18.9194
-26.9048 133.567 6.24107
6.79196 97.926 21.8052
-6.24738 107.34 17.8586
-23.8622 136.26 4.90388
-15.5498 117.178 13.6227
3.90827 152.564 -3.83555
-20.5791 132.935 6.37903
-16.5145 118.406 13.0959
-15.7613 126.231 9.37702
16.7731 149.174 -2.69841
-25.2513 134.599 5.85699
-0.680857 152.222 -3.39419
-17.767 123.585 10.7987
-12.9818 113.837 15.2604
11.2634 152.057 -3.72001
9.05574 152.788 -3.98002
2.84789 99.1696 21.6018
-18.2654 125.356 10.0473
-13.0278 149.118 -1.38052
-11.1821 150.632 -2.14692
-17.4883 122.374 11.4667
-9.02408 133.686 5.83021
-21.1287 134.088 6.10973
-23.6662 134.677 5.93354
-9.53082 133.515 5.95322
17.1615 115.601 13.4075
-25.3458 135.267 5.74748
25.0824 141.953 0.669826
7.59526 103.353 19.6339
-19.9331 142.572 2.15263
10.0899 105.224 18.6597
21.2094 147.161 -1.5841
-6.78119 152.058 -2.822
-20.1212 133.349 6.53207
23.3477 136.24 3.52692
11.0278 152.217 -3.55228
16.5279 113.782 14.4155
16.961 115.33 13.6765
-9.11946 133.89 5.92481
14.7352 150.78 -2.96367
19.6527 133.273 5.12601
-8.66297 110.287 17.0864
-9.13171 134.433 5.74754
8.00986 153.03 -3.65143
8.98794 105.168 18.9488
-11.1973 150.723 -1.80807
-8.45925 134.314 5.85056
-9.57896 134.184 5.99302
17.4053 131.113 6.41741
25.0954 142.225 0.887442
-21.9741 134.135 6.53847
-10.8614 132.103 7.09707
-7.02419 135.134 5.53513
-13.2298 132.888 6.85014
-14.5817 148.061 -0.25723
-11.6354 113.924 15.7847
-1.09066 104.923 19.6623
24.0973 140.138 2.05797
-7.75299 134.151 6.11111
-13.816 148.943 -0.648042
0.318175 153.065 -3.11606
-13.3384 149.284 -0.793966
-13.9002 115.55 15.1811
-4.8876 152.529 -2.60244
-13.0148 132.939 6.96916
6.56334 100.607 21.5223
-3.4071 105.953 19.3869
-12.8206 130.4 8.20141
-16.0288 133.418 6.91398
-24.9459 134.946 6.5402
-14.9863 120.152 13.1642
-10.2946 112.331 16.6919
18.2551 119.647 12.1433
-11.3954 132.116 7.3856
-7.73791 110.168 17.6193
11.8449 152.127 -2.95956
17.2622 125.392 9.53418
-6.56353 135.968 5.45393
-11.8217 150.397 -1.15219
-10.6314 134.769 6.19415
-2.13104 152.934 -2.7035
-6.17144 152.598 -2.37999
-3.85239 152.897 -2.60286
-13.1502 115.655 15.399
0.294979 153.361 -2.93367
-6.50426 152.534 -2.26744
-9.27591 151.767 -1.79196
-8.77233 135.202 6.03798
-2.63441 106.062 19.6122
0.77332 102.835 21.03
21.0694 134.696 5.22201
-6.50178 109.701 18.1029
-7.07914 152.439 -2.05026
-4.8741 107.91 18.9228
11.7487 109.63 17.4817
1.901 153.44 -2.83882
-5.08173 135.323 5.99799
-4.7491 137.265 5.1084
13.6739 151.539 -2.32939
-10.7895 151.222 -1.2405
14.7928 112.282 16.1891
4.70339 100.296 22.2431
-10.2181 134.048 6.88964
-1.38365 139.097 4.17279
-15.928 126.591 10.6397
18.3806 121.178 11.9075
16.6608 127.247 9.10539
-4.26218 153.284 -2.3831
6.87033 153.151 -2.72033
9.98967 152.965 -2.73826
-10.5584 131.473 8.20698
-10.5464 151.419 -1.21826
-15.9076 122.435 12.7075
-13.3678 129.242 9.40159
6.52778 102.2 21.421
17.1613 117.477 13.7991
2.69608 101.845 21.7636
-24.0873 137.199 6.08288
-11.3674 130.56 8.7424
-12.1799 150.281 -0.542246
0.874743 103.258 21.1994
-10.5111 113.962 16.5931
7.4308 106.465 19.4561
3.24571 100.66 22.38
-1.90149 106.316 19.9095
20.6608 148.013 -0.649035
-4.02763 153.5 -2.29414
19.8212 134.687 5.70008
17.9124 132.026 7.05128
-16.1484 134.03 7.41087
-23.0176 134.983 7.23083
20.8946 147.875 -0.526887
10.1106 107.194 19.1202
-0.623854 139.617 4.2648
23.9669 144.77 0.918118
-12.6269 129.282 9.63776
-10.3674 151.619 -0.998115
-5.21255 137.839 5.33644
14.0143 151.424 -1.81771
-0.821942 153.843 -2.39047
-13.337 149.543 0.129763
-4.28474 135.528 6.42093
-16.3973 134.171 7.53547
-9.1824 112.728 17.4301
-12.27 129.427 9.66782
-4.59452 108.962 19.0476
-13.3129 117.979 15.1253
-8.32033 152.385 -1.32655
2.12824 102.766 21.7374
-14.7225 122.873 12.8957
-4.80163 138.123 5.31978
-2.77293 140.613 4.06559
-2.481 153.876 -2.21018
-10.2502 137.028 6.05087
1.23766 103.579 21.4296
13.9338 112.292 16.8314
-22.0952 140.669 4.86454
-23.1351 139.563 5.44223
-10.2232 151.78 -0.821766
16.7141 127.16 9.80103
-0.138534 139.979 4.42994
-2.61129 141.316 3.92503
-22.2775 140.541 5.07066
16.7225 127.443 9.77612
17.9014 124.616 11.0885
17.0804 126.324 10.3293
-16.1228 126.389 11.5878
16.7262 128.37 9.40163
-22.0343 135.403 7.56377
-13.0701 118.933 15.0174
22.0643 137.055 5.14483
-5.55517 138.645 5.45633
-8.73113 113.086 17.6745
-15.4493 124.165 12.6966
-15.6532 124.249 12.6706
14.9338 114.437 16.1574
-13.5193 149.143 0.87592
0.793647 106.119 20.6717
22.7177 138.289 4.63299
-0.629529 106.747 20.4465
-22.1259 141.007 5.08931
-6.63632 139.641 5.14436
-16.4571 126.098 11.9329
20.4124 148.306 0.032814
-20.5846 136.165 7.37609
-22.1069 135.565 7.72864
13.4631 112.675 17.1879
15.9066 116.756 15.1771
-2.71012 137.86 5.92379
3.45576 102.106 22.6046
-15.1506 127.798 11.1764
-1.29809 142.097 3.89242
-21.0294 142.684 4.36994
-21.1103 136.136 7.47749
-2.37621 107.577 20.2647
-23.9204 138.126 6.66865
-21.6045 141.929 4.79314
-15.3629 127.527 11.364
22.4239 138.043 4.96601
18.0766 130.519 8.69538
1.65729 104.357 21.6956
4.8947 103.412 22.0817
-10.3551 132.177 9.0771
-19.6851 136.236 7.55157
18.4927 134.07 7.12025
-13.557 124.008 13.1097
21.6703 137.304 5.49382
2.21813 103.886 22.0389
-15.0171 148.019 1.85052
-18.6964 136.009 7.68341
-10.4356 131.266 9.63753
-10.9137 137.838 6.55276
2.83602 103.301 22.3595
18.2183 131.76 8.32405
-22.1792 135.813 7.9544
-1.46564 142.816 3.86601
9.23996 108.593 19.6508
22.2629 138.273 5.12707
0.746846 140.656 4.83365
1.89994 141.445 4.42037
-12.3094 150.346 0.808938
14.9838 150.977 -0.525545
22.1669 138.635 5.08232
1.6557 105.958 21.3605
17.4441 149.921 -0.00080452
21.8393 138.038 5.46865
-12.2896 120.588 15.0336
-2.67599 108.841 20.2433
-7.83303 114.814 17.6234
-8.27841 115.968 17.0987
-2.94627 137.178 6.87546
5.7318 108.3 20.2111
-21.7645 141.546 5.55433
-1.56463 108.06 20.6184
16.7517 150.272 -0.000316016
21.661 147.316 1.22228
2.75897 142.466 4.26916
-13.8829 135.863 8.02801
-2.69164 137.689 6.73918
18.1804 131.247 8.99548
-8.17107 132.788 9.27888
16.3791 119.162 14.7894
-10.7659 118.853 15.9825
-21.4914 141.859 5.53843
4.91411 107.968 20.5913
-5.30895 142.697 4.59743
-5.463 143.118 4.40702
10.9424 112.345 18.3275
9.6629 153.63 -1.13424
-12.3536 121.414 14.9376
-9.41403 140.167 5.96286
-6.61199 113.43 18.4961
3.34461 154.868 -1.45442
-12.7832 149.632 1.65495
18.563 148.904 0.80168
-4.96904 141.603 5.1641
-20.292 143.623 4.82839
-7.01075 115.351 17.6922
12.4459 114.696 17.2715
-10.841 119.938 15.7034
6.41395 108.947 20.2475
4.38587 105.768 21.8329
16.3149 119.572 14.8536
-6.40733 140.95 5.62287
-10.3254 118.96 16.1755
14.3335 116.657 16.3336
20.5652 137.539 6.22672
12.4916 114.981 17.2121
-14.3337 127.332 12.405
-2.80091 137.263 7.28572
-12.5699 125.343 13.2938
16.7016 150.045 0.521508
-13.5034 126.286 12.9473
-4.19942 111.364 19.6894
-23.6078 138.166 7.80442
18.0324 133.66 8.34661
-9.03234 132.561 9.91191
11.3087 115.06 17.4065
-23.0217 136.506 8.58965
-10.7303 120.305 15.7782
-21.5003 141.646 6.10586
-12.6208 138.781 7.12638
-13.0988 126.191 13.1127
-14.9729 136.874 8.15008
-15.0909 136.936 8.12955
9.616 113.931 18.0597
-19.575 144.673 4.69537
-5.39202 134.338 9.03805
-5.17501 134.38 9.01583
-16.8891 136.71 8.36447
-0.693144 140.384 6.01008
-5.87356 115.053 18.1833
-13.7946 148.705 2.5949
21.3183 139.947 5.44015
-5.35948 114.809 18.38
22.7529 144.93 3.07621
-2.73252 110.58 20.2972
16.9231 123.542 13.4774
-8.65721 152.715 0.672606
14.9774 118.956 15.7267
-9.13198 118.44 16.9107
-10.1559 120.308 16.081
17.3209 124.287 13.2027
15.3955 150.618 0.835496
7.66378 111.702 19.5329
-14.8279 148.025 3.23886
-0.715593 109.072 21.1405
-5.94303 116.073 18.0431
5.84574 109.615 20.6695
17.0893 127.706 11.7211
17.4556 130.252 10.5072
-10.1355 141.143 6.42223
-8.78974 118.811 16.9514
12.9495 117.847 16.5887
3.5994 143.498 4.82308
6.31551 109.898 20.6096
-10.7245 121.425 15.8328
4.31334 109.304 20.9958
9.34952 115.785 17.7579
-22.8974 138.545 8.24044
7.18114 111.283 19.9759
-5.36392 134.218 9.61647
-10.9551 122.068 15.5734
20.8741 139.761 6.02727
-3.2159 111.743 20.1909
-8.69452 132.12 10.7769
6.7007 110.106 20.5923
16.0547 149.951 1.45052
-21.568 141.223 7.0147
-6.90842 143.42 5.42431
0.600346 110.45 20.7266
17.0228 129.193 11.2424
5.34666 111.615 20.0216
-8.62788 119.141 17.0142
5.67709 110.055 20.7716
-6.92478 144.183 5.15204
-20.8221 137.244 8.97504
14.5919 120.629 15.48
-11.2114 126.084 13.889
-8.79486 141.687 6.43459
17.8844 134.23 8.9394
10.8185 117.581 17.0791
-10.0357 121.211 16.1742
3.21503 142.527 5.59675
-12.9972 128.03 13.1149
18.5791 137.772 7.3062
-20.7284 142.334 6.66111
-21.6234 141.028 7.3399
-20.0401 137.354 9.04377
-4.01609 115.289 18.9067
17.8677 131.561 10.3851
-4.83111 134.206 10.0175
-17.5155 146.228 4.82226
6.95891 114.525 18.8775
17.163 128.053 12.1227
-7.44569 118.777 17.4538
-15.8751 147.324 4.31293
-10.2696 122.642 15.7873
15.6626 122.148 15.0294
-1.486 138.481 7.98874
-9.71971 121.838 16.1814
-11.3869 126.878 13.9033
17.3228 127.756 12.3915
-8.39027 119.973 17.069
11.6411 119.119 16.7198
11.4802 119.071 16.7527
-7.47701 144.724 5.3564
-20.8711 141.972 7.17354
-0.731016 140.494 7.10586
-7.45045 145.81 4.85689
4.99793 143.579 5.46332
20.6286 140.842 6.16168
-11.6956 149.862 3.14599
11.0244 153.063 0.76851
17.4111 133.052 9.99318
0.609185 113.124 20.0575
4.23729 112.908 20.0374
-21.6276 138.863 8.77166
6.12892 113.773 19.5707
-5.28864 133.977 10.4773
-4.45173 116.513 18.7165
-8.01228 143.959 5.94408
-19.2141 144.335 6.21493
-0.867269 139.471 7.82618
11.9182 119.894 16.6027
-8.20756 143.379 6.27384
-2.12341 136.297 9.39547
1.5763 142.548 6.3059
-8.66819 121.43 16.6982
-21.2007 140.082 8.36338
-16.0328 147.003 4.92315
-8.13022 120.692 17.0743
2.44134 113.895 19.8853
-7.92039 120.938 16.9972
4.58705 113.25 20.1544
18.4866 136.713 8.5408
-8.42129 145.076 5.65264
16.4748 125.968 13.7444
18.2868 148.409 3.07421
8.44661 118.198 17.7489
-10.683 150.5 3.23026
-2.46561 116.571 18.9592
12.3573 120.771 16.4174
-8.86644 144.035 6.23644
-12.0194 142.372 7.14372
-19.0903 138.158 9.41045
-5.69644 119.11 17.9243
-6.51374 121.102 17.0621
-6.66681 120.823 17.2093
4.32538 113.704 20.1562
-10.2977 149.87 3.67335
6.78567 116.626 18.7352
14.8693 123.153 15.3502
-7.99485 124.444 15.6147
-4.60341 118.406 18.3486
-4.98977 122.209 16.5739
17.7702 131.776 11.1868
15.9585 125.154 14.4267
-8.94822 148.273 4.45525
-20.3279 140.4 8.61436
-11.188 150.007 3.72493
-11.0615 128.401 13.9353
-6.24235 120.079 17.6982
-14.9003 139.988 8.62214
-8.2439 124.801 15.5535
-20.1293 141.347 8.21379
-19.2 139.03 9.28366
-8.35889 125.057 15.5162
2.16679 143.319 6.48568
-9.12807 145.526 5.88886
-4.99684 120.247 17.719
-19.1329 139.28 9.26663
-17.6523 139.81 8.96117
-6.40264 124.3 15.874
-3.85099 121.571 17.0848
-8.87663 146.895 5.31127
-1.06346 115.894 19.6743
7.58951 118.434 18.1442
-0.0770226 139.877 8.31272
11.715 121.873 16.3845
17.9177 135.892 9.52596
-10.5723 128.503 14.1269
-0.629611 138.542 9.01703
14.5356 123.675 15.4894
-2.81927 123.566 16.2116
-13.5051 142.006 7.90894
20.5034 143.418 5.94566
-10.2141 129.137 13.8835
8.31993 119.872 17.5661
20.9584 145.017 5.21008
-4.56924 119.501 18.2517
-9.92954 148.39 4.80982
-2.0096 123.437 16.3183
17.3233 127.862 13.4979
-2.30102 122.903 16.592
-0.478999 138.31 9.28857
9.52468 121.455 16.9014
16.8504 127.586 13.7287
-4.58254 124.684 15.9258
6.86401 118.179 18.5632
-9.3606 126.995 15.0316
-1.42686 123.58 16.3448
18.1048 148.34 3.9144
2.76653 117.784 18.9588
-8.30912 126.566 15.2468
17.7142 130.715 12.2938
8.29128 154.929 1.23709
1.50456 141.16 8.03473
-2.04452 121.877 17.3009
-12.7817 143.404 7.54013
2.18853 117.079 19.4096
-2.88274 125.37 15.6948
17.4063 139.38 8.31514
19.7125 145.366 5.41586
-0.640495 119.92 18.2215
0.707068 118.206 19.0004
-7.51448 127.975 14.7063
1.33889 116.252 19.9142
-0.554542 136.785 10.2851
0.260912 124.163 16.2282
2.01159 141.561 7.94289
-0.728142 136.307 10.5361
-6.36281 126.157 15.5694
0.940955 124.566 16.044
-0.213935 118.107 19.148
19.5535 144.947 5.71775
-1.59595 135.448 11.0207
-0.13973 120.664 17.9526
18.4432 147.604 4.53402
7.0431 119.371 18.3154
-6.52702 132.496 12.6551
-0.810597 122.321 17.252
14.3949 124.912 15.4833
0.190595 138.362 9.67163
6.33394 118.537 18.8167
-0.350983 121.501 17.6838
-5.72169 126.459 15.5568
2.47266 124.163 16.3353
0.722713 125.647 15.7173
-0.150788 125.772 15.712
5.80418 120.183 18.1356
18.3928 146.65 5.15787
-8.34381 129.581 14.2658
17.6181 131.551 12.3457
2.95468 122.331 17.2854
16.1818 149.058 4.15492
5.97575 120.253 18.1644
2.4489 121.002 17.953
17.3267 134.856 10.8394
-17.9775 141.693 8.97555
1.68909 126.001 15.6398
17.7013 132.788 11.829
16.1477 127.755 14.2857
11.2204 151.423 3.30276
0.729387 126.23 15.6186
-12.2403 145.938 6.80046
6.28207 120.257 18.2701
3.4754 124.722 16.2758
16.9752 139.825 8.63862
-7.85901 130.295 14.121
17.7643 145.282 6.06456
3.86579 123.996 16.6581
4.40374 126.462 15.5127
10.2184 123.894 16.5066
2.40454 126.767 15.4516
17.6503 138.008 9.55873
-1.73656 135.259 11.6313
-5.16154 127.875 15.2718
15.3278 149.046 4.48448
5.15979 126.282 15.6352
5.06094 127.929 14.8609
0.504342 137.278 10.6206
-13.9979 146.706 6.7205
-7.13982 131.363 13.7104
4.22123 127.835 14.966
5.44579 125.724 15.9441
6.09966 148.122 5.33409
17.6526 146.702 5.56964
6.91941 125.149 16.2019
1.1583 127.471 15.3304
-17.1261 143.226 8.6462
6.69661 126.138 15.8133
-12.8704 145.749 7.3277
-1.29662 127.889 15.3288
17.6291 141.334 8.29712
-14.0828 146.319 7.15752
0.241034 128.266 15.149
2.3556 128.714 14.8761
9.71669 153.278 2.99048
16.0868 145.473 6.43889
0.725587 128.618 15.0091
14.1837 127.308 15.1248
5.94257 129.853 14.2409
16.0356 147.81 5.47044
11.516 150.726 4.2662
-4.67487 130.44 14.4771
18.1623 143.951 7.22595
-15.3844 143.182 8.88812
13.8995 149.296 4.92792
4.61526 145.755 6.97111
-1.89193 129.66 14.8436
9.3006 131.116 13.7299
9.38463 131.074 13.7548
-4.91693 132.2 13.7748
-15.9045 143.166 9.06865
-4.66664 131.038 14.3761
8.3222 129.649 14.5388
15.7442 143.943 7.49991
12.657 127.002 15.6384
16.9226 132.756 12.762
11.1399 131.653 13.5533
-2.20135 130.032 14.8385
11.1827 131.591 13.5981
9.33613 127.794 15.4828
11.1907 133.217 12.8524
7.7266 128.632 15.1645
-4.44972 132.676 13.7191
11.8726 133.742 12.5918
10.6274 128.724 15.026
2.86047 140.995 9.54164
9.35216 153.733 3.2935
16.6741 131.436 13.5769
10.7634 133.397 12.9046
-2.84951 130.254 14.9141
10.5586 133.047 13.0837
14.2091 132.721 13.1054
-4.41385 131.694 14.3121
13.9455 134.847 12.1275
13.7423 132.547 13.2738
12.6053 137.379 11.0353
3.02897 132.882 13.5383
10.846 134.923 12.2882
14.9471 130.327 14.3374
12.037 137.982 10.835
15.135 143.28 8.21475
14.9287 130.026 14.4976
10.7877 141.629 9.17313
7.76997 132.04 13.8227
5.8739 147.275 6.70887
-14.1449 145.059 8.52984
12.0378 147.108 6.56652
-1.03431 135.572 12.5231
10.6306 141.169 9.44972
4.69131 145.095 7.83187
10.5043 139.915 10.0649
11.587 139.741 10.1195
16.4256 131.579 13.7967
12.6107 129.018 15.1577
10.8491 141.147 9.50165
15.5115 133.158 13.102
3.55226 141.965 9.40885
12.6573 138.446 10.7271
0.934514 137.062 11.8295
10.0263 138.602 10.7578
10.6834 136.654 11.6757
9.6762 139.843 10.2093
10.6592 136.441 11.7813
10.8143 146.494 7.02527
13.0564 131.022 14.2649
-2.70023 133.932 13.5282
9.91504 146.492 7.11032
12.7832 130.913 14.3639
-2.80391 132.961 14.0093
-2.57688 133.567 13.7182
6.34878 146.763 7.16863
-2.23478 133.14 13.9491
10.312 148.376 6.28926
10.2662 141.783 9.41338
12.8862 139.746 10.3124
9.06475 138.594 11.0249
14.4824 142.736 8.87242
9.76915 146.002 7.51371
9.48165 140.985 9.89683
9.0684 140.533 10.1454
9.50017 147.815 6.69839
9.39256 147.589 6.81288
8.87362 153.151 4.21171
9.40348 137.455 11.6121
12.3383 141.071 9.80281
14.1103 137.613 11.3863
7.30397 149.671 5.98318
5.89484 143.414 9.00916
5.80209 144.705 8.41295
8.60466 140.496 10.3033
7.04281 135.158 12.8936
8.58565 136.212 12.3406
7.33114 148.512 6.61572
8.94364 136.473 12.247
16.0183 140.317 10.219
8.4588 147.26 7.23669
1.79833 137.759 11.983
14.8686 141.422 9.81441
6.79874 144.258 8.78317
8.60117 138.5 11.4432
5.26534 133.991 13.708
1.90363 137.838 12.023
7.86413 147.806 7.10173
6.26574 136.24 12.6346
14.6166 140.669 10.2481
7.26557 143.607 9.1806
4.19104 142.113 10.1047
8.02605 145.307 8.48575
4.74825 134.86 13.5788
7.38263 139.376 11.3674
7.99566 143.826 9.26253
5.73518 137.942 12.1618
5.63902 137.983 12.1583
7.84676 138.667 11.761
4.44703 137.21 12.6039
8.61901 144.15 9.16543
5.21146 134.943 13.6507
7.62318 141.922 10.29
8.7261 142.792 9.86414
3.93558 137.104 12.7448
5.92961 139.637 11.5995
7.53926 137.631 12.5761
2.09191 137.331 12.9287
3.13332 139.274 12.0587
