ply
format ascii 1.0
comment Created by Open3D
element vertex 1955
property double x
property double y
property double z
end_header
-16.8861 102.914 6.33988
-15.271 106.191 9.60849
7.87019 146.01 6.18785
1.44094 135.58 11.2986
-17.8516 100.484 3.22482
12.134 152.205 -0.293199
-19.1511 95.9995 -10.0928
-6.91161 121.361 15.8447
-19.9688 95.1938 -5.37314
3.81416 135.768 -11.2937
-13.9673 108.19 10.95
8.40858 146.365 5.36249
-18.5009 98.6401 0.671651
-7.05996 116.438 -13.0325
6.60183 143.563 7.79665
-13.2069 109.57 11.9672
-16.95 102.016 5.61629
2.18033 136.209 11.1824
-18.1225 97.1455 -11.598
-0.0339132 132.431 12.2016
-14.4011 107.082 10.542
12.4052 152.242 0.508943
-16.5883 99.8756 -10.4545
-18.462 98.342 0.864943
-3.6606 122.309 -10.9333
-20.5324 93.5066 -6.38075
-8.31855 118.478 16.9405
-0.953101 126.594 -12.5259
-2.80861 123.574 -11.1223
-3.09627 126.946 13.5924
-17.4897 100.264 3.73266
12.2592 150.792 -4.7032
12.0405 151.423 2.74429
-13.3269 108.476 11.5397
4.85221 139.987 10.1395
-7.43728 119.589 16.8917
-9.3094 111.683 -12.5464
0.464356 128.611 -13.2164
-17.0953 100.7 4.81237
-0.961304 130.149 12.9916
-6.66749 120.666 16.4446
-5.01721 123.138 14.6543
-20.0925 93.275 -7.85976
-6.27163 121.086 15.9444
-15.5787 100.492 -11.0805
-1.25137 129.27 13.1856
0.626563 128.279 -13.3657
-10.7007 112.894 14.5805
7.71977 141.034 -10.913
-2.2698 123.442 -11.692
-19.9388 93.1668 -7.90784
8.20995 144.519 6.21853
7.55249 143.535 7.30326
12.3735 151.224 2.70903
-17.3909 96.846 -12.2461
-14.0102 102.618 -13.0145
5.34998 139.979 9.85758
-8.11382 112.872 -12.8329
-0.292088 130.497 12.7312
-5.21535 117.901 -12.2867
13.0645 151.763 0.165433
-2.61105 126.472 13.5333
-14.6323 104.714 9.58385
5.73075 140.22 9.57425
3.77908 137.01 10.9087
-10.2777 113.135 15.2696
-17.9586 97.4532 1.15212
-9.97454 109.186 -12.4046
-6.87564 119.233 17.1479
11.5208 147.279 -8.46608
-14.283 105.13 10.0518
13.2574 151.3 -2.11777
-18.1923 96.703 0.166187
13.2748 151.191 -2.51276
-2.79056 125.617 13.5343
-14.7582 104.031 9.22012
4.80124 138.375 10.6122
5.194 135.56 -11.5257
4.65738 138.114 10.692
-18.4189 94.6223 -9.59079
-18.0861 96.7493 0.420691
12.0786 148 -8.1239
-0.32918 129.64 12.9369
-19.1898 94.0177 -3.87251
0.694616 127.179 -13.7642
-18.9823 94.4746 -3.26631
-20.0236 92.1715 -6.27802
8.36852 143.691 6.4208
-9.34542 109.754 -12.622
-11.5429 105.817 -12.5948
-3.83857 123.479 14.2363
-13.6807 101.913 -13.554
7.38931 139.079 -10.9884
2.21694 133.524 11.4313
-6.59806 114.216 -13.2582
12.626 148.968 -5.57411
-17.9614 94.8778 -9.84368
-19.4122 93.1097 -4.77316
-6.12727 114.827 -13.6118
6.71123 137.622 -11.1461
-13.3666 106.04 10.9802
-9.03826 109.857 -12.7314
-1.91267 126.416 13.4595
5.80738 135.899 -11.7983
11.935 149.16 4.50162
-19.3933 92.8839 -5.49193
-4.63973 117.461 -12.7391
-19.7582 91.8485 -7.16017
-15.7182 101.049 6.73093
-15.031 102.452 8.23039
9.53801 142.367 -10.666
13.717 150.723 -3.49102
5.00988 134.233 -11.5709
-12.6363 107.073 11.6877
-0.699778 128.12 13.2009
-17.1032 95.7226 -10.4993
-1.75565 126.28 13.4407
-17.7606 96.3285 0.680624
-3.77676 118.678 -12.0858
-16.9216 97.9061 2.57251
4.12221 132.452 -11.3335
-19.8961 91.2763 -6.39763
-17.4768 94.9619 -9.7864
-7.67802 116.256 16.8832
-11.8583 104.179 -13.0969
4.28532 132.639 -11.221
-4.28974 117.363 -12.9262
6.51321 139.699 9.27167
-13.4444 101.201 -13.9206
14.0715 151.065 -1.28659
-8.6473 114.198 16.6035
-0.441798 127.953 13.1681
-16.8109 97.6799 2.40939
12.0312 146.278 -8.73988
8.91175 143.099 5.87539
-8.98272 113.409 16.4569
-9.53359 107.76 -13.0006
13.3836 148.918 -5.2639
7.8248 138.348 -10.6363
-0.395758 123.514 -13.5176
0.779494 129.574 12.7168
2.71361 128.97 -12.3803
13.9038 150.748 1.92515
7.814 141.011 7.63709
-13.8863 99.7313 -13.3564
-8.2786 109.572 -12.9519
1.02554 125.637 -13.8081
12.631 146.738 -8.46095
-15.3378 100.219 6.25175
-10.0662 106.274 -13.5783
-7.41801 110.948 -13.0269
-11.0748 108.62 12.9067
-5.56241 114.071 -13.5407
-14.2431 98.8153 -13.8671
4.40953 135.319 11.2798
13.3187 148.021 -6.08125
-19.6829 90.3456 -6.26166
-11.3938 107.71 12.5344
0.83152 124.95 -13.525
2.66461 128.198 -13.065
-10.7109 108.985 13.2698
6.7257 138.775 9.40513
-7.39211 110.562 -13.0941
9.07789 142.313 5.96838
8.7679 141.823 6.62243
-11.4376 107.364 12.41
-19.2901 90.8193 -5.60569
4.53655 131.406 -11.2679
-6.72396 116.229 17.3957
12.8785 148.41 4.42446
-4.56564 114.986 -13.7573
-8.79961 112.317 16.4902
3.87805 130.071 -11.332
-17.8443 93.7216 -1.30067
-6.66632 116.16 17.4206
14.7514 150.436 -2.23459
-0.766248 125.761 13.2897
-9.82967 105.598 -14.1921
-11.5121 106.787 12.1864
-12.9839 100.043 -14.3078
-12.9502 103.9 10.3363
5.7511 136.494 10.601
13.6633 147.662 -6.09375
6.31727 137.329 10.0522
14.8227 150.735 1.03859
-14.0294 101.516 8.71377
-1.92326 123.418 13.6425
6.06831 136.836 10.3367
-3.97143 115.501 -13.8086
-11.0676 107.243 12.4623
7.03656 138.356 9.35069
-16.5498 94.1944 -8.68025
2.97468 131.495 12.0037
-13.247 99.0201 -14.1607
-14.723 99.6237 6.23616
-12.824 103.57 10.2641
-18.4611 91.041 -6.48172
-5.83729 116.862 17.9278
5.56664 135.628 10.9599
-9.13839 110.589 15.4244
-11.1712 102.351 -14.3444
-10.6101 103.21 -14.553
-18.0996 91.8084 -3.67266
4.89034 134.293 11.5119
-9.00132 105.949 -14.4549
13.3229 147.817 4.34937
-7.30001 108.892 -13.9453
1.82595 124.781 -14.0372
1.08023 123.423 -14.3689
13.3672 145.57 -8.74447
-12.5971 99.3455 -14.23
-3.13922 120.586 15.8301
-18.1853 91.2098 -3.90567
-19.108 89.2151 -6.33874
-8.37787 106.665 -14.5061
-12.3842 99.6657 -14.3551
11.9132 144.947 3.93526
-16.8855 94.0073 -0.104765
-17.2125 93.2535 -1.22538
-13.9073 97.1209 -13.1559
-15.7486 94.0844 -11.9602
-18.85 89.688 -5.48259
12.7052 144.073 -9.57092
7.83172 138.3 7.88201
4.51 129.456 -11.1663
14.2156 146.961 -7.55289
-15.6772 94.4293 -9.39274
-18.6547 89.6796 -6.46349
7.05274 133.664 -11.9986
-18.2089 90.4204 -6.33686
-13.392 101.141 9.11916
10.7482 142.491 4.24428
-12.502 99.0108 -14.0306
15.637 150.357 0.768622
-18.0316 90.3557 -6.30628
8.72869 136.304 -11.0381
1.42237 122.92 -14.9244
15.8998 150.381 -0.589773
6.75338 135.977 10.1764
7.88165 137.429 8.62616
-6.40469 113.838 17.552
9.0255 139.009 6.37344
14.464 146.16 -8.48132
-13.5042 99.9234 8.23305
-3.22796 119.193 16.8454
14.0275 145.186 -8.94484
-0.71202 122.927 13.7801
-8.7052 109.031 14.4978
11.8975 143.192 3.81985
-0.149641 123.592 13.1199
5.13265 129.016 -10.915
-17.0551 90.9447 -6.48759
-1.03713 122.121 14.391
8.52287 134.725 -11.5442
-2.04635 120.501 15.7954
-16.382 91.7307 -7.80519
-15.0497 93.7183 -9.71831
5.19408 128.867 -10.9519
-6.47095 112.977 17.5298
-12.7461 97.184 -13.0232
8.31421 137.155 7.74191
12.0809 143.082 3.78607
-17.2561 90.6097 -3.82376
-17.2297 90.0986 -7.30812
4.61935 127.448 -12.225
3.24096 124.691 -14.3263
-10.322 105.055 11.9061
14.9762 146.195 -6.33944
-6.29388 107.61 -15.5027
1.22078 125.185 13.0662
11.6458 139.693 -10.3381
-3.97157 116.863 18.1345
7.99597 133.01 -12.0115
8.24602 133.456 -11.9218
-9.11701 107.047 13.0027
7.48524 135.466 9.8589
-13.5165 98.1308 5.99172
-10.0941 100.862 -14.5689
-16.2234 92.2064 -1.34178
15.6535 147.25 -4.70204
7.41335 131.68 -12.1627
-2.81283 118.394 16.9605
-1.64295 115.386 -14.874
-10.9551 99.239 -13.8446
8.51478 133.518 -11.8879
2.64428 127.091 12.8107
-8.55029 103.203 -14.5078
16.6215 149.111 -2.01883
15.6435 148.249 3.87603
6.66816 133.588 10.6147
-3.44082 111.879 -15.1325
-12.9135 98.9978 8.19419
-7.5153 104.734 -15.0878
6.50253 133.221 10.808
-12.4525 99.8763 9.23442
-9.0388 106.377 12.7831
5.90805 132.233 11.3179
-6.65291 111.194 17.466
-2.6931 112.96 -15.0425
2.50585 126.422 12.8707
2.07101 121.302 -14.7992
-0.427805 121.539 14.7759
-16.5382 89.7339 -8.28235
-0.625717 121.14 15.0463
2.02194 125.435 13.0018
5.46416 127.523 -11.4235
-14.3613 92.7071 -12.672
-2.74728 117.663 17.2105
-3.86201 110.396 -15.9205
-4.33889 115.026 18.8598
5.72586 127.899 -10.9855
-3.87535 110.328 -15.9631
-5.40764 107.647 -15.8675
-12.9083 98.1749 7.23194
9.93112 135.135 -11.0643
-10.1642 103.462 11.3738
15.0954 146.437 4.4796
-10.5212 102.704 10.9075
-1.84643 118.676 16.4032
17.14 149.285 0.770185
6.78413 132.646 10.6117
-16.5015 89.6247 -3.93672
-6.71524 110.015 17.3394
-17.3524 87.6983 -6.34729
6.97915 132.788 10.3808
-3.10774 116.36 17.9326
-10.9468 101.47 10.4095
5.59364 126.905 -11.4928
17.4594 149.121 -1.40255
-17.0895 87.9755 -6.51404
-14.2727 92.3622 -9.64362
5.00979 125.602 -12.3058
10.1437 134.76 -11.0441
12.4874 138.898 -10.3933
6.80132 128.818 -11.2893
-4.28834 108.698 -16.0797
-7.43453 103.388 -14.6687
-0.512815 115.222 -16.2205
-4.01722 114.644 19.0341
11.1191 136.497 -9.89052
17.7368 149.379 -0.7845
-8.39999 106.052 14.025
-15.7574 90.4878 -3.14094
17.7876 149.369 -0.745179
12.2591 140.563 5.20701
-15.4815 90.0008 -7.69423
-12.5872 96.991 5.49639
12.9368 141.413 4.65509
-13.2409 93.2359 -10.6854
14.8582 142.318 -9.63149
-0.987209 118.669 16.0729
-7.34303 107.402 15.3942
-14.6887 90.8307 -8.13225
-8.75814 104.34 12.2266
-15.2914 89.7809 -7.62271
-15.5743 89.2101 -8.03849
-4.41853 112.885 18.7569
16.4956 147.115 4.229
3.24079 125.296 12.7137
-16.8841 87.1484 -5.92697
12.7 138.139 -9.93102
-7.83269 101.554 -14.4821
17.5396 147.558 -3.37524
-4.65665 112.215 18.5168
11.2702 135.502 -10.0392
14.182 140.558 -9.6881
15.015 141.978 -9.62463
17.8771 148.121 -2.30339
-5.59591 105.058 -15.3196
-5.99428 104.392 -15.096
1.95652 122.657 13.0657
8.38935 129.894 -12.1679
5.16995 128.051 11.9423
10.591 133.876 -11.0569
-11.6813 98.1151 8.93511
-16.0158 88.0823 -6.73211
3.42869 124.973 12.5883
4.4532 122.578 -13.8296
-8.85986 103.282 11.8335
13.3383 138.523 -10.328
13.2459 138.338 -10.19
-1.2472 117.239 17.0576
-16.4058 86.994 -6.9398
-16.4149 86.9695 -6.9524
-5.9889 103.85 -15.074
1.97049 117.767 -14.7941
-7.93256 105.089 14.6215
-8.29338 99.9318 -14.0894
-9.35939 98.1145 -13.6775
-3.62914 113.286 19.2972
16.0637 143.326 -7.98656
-4.01609 107.012 -15.8644
-11.1534 98.514 9.33536
-11.2916 98.1756 9.18747
-14.4817 89.9516 -7.45397
-12.6233 92.2313 -13.0037
9.11198 130.184 -12.4587
8.43707 129.055 -11.9572
15.7064 141.883 -9.61423
15.8971 142.392 -8.28956
12.1659 138.111 6.13344
15.9401 144.357 4.04636
-0.310084 117.932 16.4388
17.037 146.297 4.24299
9.22378 133.244 7.99141
-7.43225 100.588 -14.5687
8.42585 131.911 8.85986
-9.81732 96.5514 -13.4021
5.73117 127.647 11.7281
-15.1288 88.3247 -6.61415
-1.39196 110.7 -16.6319
-2.62489 114.129 19.0737
7.66172 127.294 -11.4099
-14.597 89.1044 -6.43436
12.7432 138.778 6.1769
18.1313 147.547 2.42665
-9.73545 100.09 10.3217
-3.7397 106.418 -15.9984
-0.690599 116.946 17.2219
9.65945 133.48 7.64313
-14.4236 88.9552 -7.86201
-5.34162 103.479 -15.4526
-9.1277 100.953 10.9507
18.7262 148.019 1.34408
-14.0351 89.3203 -7.898
5.22479 122.034 -13.3216
4.1112 124.06 12.3097
-15.5723 86.7225 -6.44089
11.3551 133.041 -10.8524
18.7942 147.217 -2.98869
15.5066 140.47 -9.34566
-2.98691 112.71 19.56
7.11408 125.429 -11.354
-15.8504 86.0297 -6.6441
16.1649 141.499 -9.13609
12.5449 137.587 6.59991
16.1627 141.749 -7.0434
-2.18935 113.808 19.2062
11.4667 132.643 -10.8504
-5.22902 107.844 17.0056
5.8838 126.369 11.6222
15.4429 141.729 3.28178
8.15964 129.982 9.55629
-4.88394 103.226 -15.7179
-10.606 96.9629 8.69091
10.5591 133.653 7.10364
-14.4732 87.8648 -5.97688
2.45512 120.561 14.181
-7.8523 102.48 13.7467
-8.90178 96.2863 -13.8147
6.24134 126.706 11.5094
7.2743 128.359 10.6591
19.318 147.329 -2.37953
5.28758 125.046 11.7222
-3.13079 105.921 -16.2993
13.7655 138.781 5.48591
-15.3331 86.0911 -6.46505
13.9335 136.588 -9.09706
-14.3766 87.6338 -5.99286
-12.7268 90.1547 -7.38868
-13.2247 89.3159 -7.18448
5.68331 125.257 11.5661
-3.6211 110.055 18.567
15.9239 139.713 -9.51709
-14.3105 87.452 -5.85982
-6.65785 99.4439 -14.553
-14.9465 86.1794 -6.74246
5.81421 121.314 -13.2416
-13.648 88.4155 -6.1903
-10.2117 96.7743 8.90666
11.8946 134.971 6.42879
7.39917 127.792 10.725
-2.45817 106.2 -16.6348
16.2084 140.222 -7.53733
19.6946 147.083 -2.46351
17.4635 144.224 4.1463
16.7765 142.873 3.66929
7.19479 127.223 11.0402
6.06224 125.297 11.4056
15.4061 138.188 -10.0312
-9.97683 96.961 9.69883
9.57919 127.633 -12.1813
19.893 147.653 0.71867
-8.07439 100.463 11.6462
-1.57576 113.058 19.672
-11.1033 91.8053 -9.62629
4.85536 123.084 12.1023
12.6165 135.813 6.96587
-1.99261 112.246 19.8782
13.6132 137.312 6.05085
-9.92192 96.6708 9.14307
20.1278 147.608 -0.289448
-6.86039 102.789 14.5114
13.4823 134.431 -9.97697
9.11384 129.773 8.94049
-2.68811 105.149 -16.5884
-11.679 92.5289 3.64449
-11.2759 90.706 -12.4138
8.49677 125.193 -11.6492
-14.044 86.9968 -4.13506
12.3219 134.673 6.5862
6.16798 120.759 -13.3209
-12.6313 90.3433 2.22365
16.8092 139.909 -9.12533
-14.6449 85.339 -6.90719
-11.61 92.2774 3.6532
6.91912 122.081 -12.379
-15.0853 84.3983 -6.51686
-0.611788 108.048 -16.752
13.9928 137.016 5.69605
-14.2805 85.6479 -7.03275
14.1096 134.846 -9.25515
-12.0091 91.1494 2.92799
-9.32945 96.936 10.4589
-12.4944 90.0593 2.29426
4.79486 117.691 -13.9012
14.1597 137.036 5.41409
-14.1372 85.5307 -7.66447
-7.18056 100.829 12.6157
-11.1081 89.9068 -13.0138
8.87743 124.97 -11.512
15.8682 137.692 -8.1205
20.3389 146.342 -2.71839
7.86544 123.14 -11.6076
-8.14643 98.7693 11.3684
5.34578 122.463 12.4195
-12.6363 88.0513 -6.2941
0.594488 109.582 -16.1015
9.61277 129.233 8.7559
12.0525 133.151 6.85197
-13.8819 85.9731 -5.19513
-5.57065 103.689 15.1887
20.5426 146.378 -2.39944
18.6962 144.097 4.1782
20.2076 146.412 2.15021
-13.9418 85.3238 -7.13461
13.06 131.852 -10.887
-14.3966 84.734 -5.36085
-13.6171 85.7798 -7.24713
-14.0267 85.3561 -5.38873
-8.16871 98.1908 11.293
3.98029 115.443 -13.7819
10.3792 130.075 8.30617
-0.699546 106.777 -16.7463
-5.80459 102.835 14.8904
-9.01827 92.5882 -14.3606
-13.8011 85.6713 -5.16273
6.69054 124.073 11.6764
18.7181 142.156 -6.80421
-3.96917 106.244 16.8687
11.5297 128.707 -12.3531
-8.36581 93.6049 -14.4255
-12.4684 88.7001 0.0216716
15.2813 135.74 -8.65571
-8.39796 97.4438 11.0748
15.4631 136.066 -8.12934
1.08417 109.697 -15.6282
-4.66622 104.598 15.8083
18.9313 143.878 4.20537
16.9613 138.267 -9.39343
-6.73944 100.384 12.8986
-14.0901 84.6938 -5.21217
2.66694 112.451 -14.5254
18.3322 140.852 -7.52543
16.1801 137.042 -7.64972
17.8703 141.815 3.98575
7.53924 124.865 10.916
0.323625 107.938 -16.5589
2.76425 112.492 -14.489
-13.6479 85.1372 -6.09924
9.46854 127.887 9.16625
10.1955 125.731 -12.4329
8.91854 126.981 9.72083
16.1152 136.547 -9.29758
15.749 136.056 -8.25063
15.0642 134.712 -9.17784
8.09754 125.65 10.5959
17.3865 138.768 -8.15705
8.88488 126.625 9.80617
-13.8356 84.3153 -6.7013
-1.32204 104.579 -16.7497
17.9287 139.573 -7.92511
-12.6795 86.3646 -5.90956
13.8351 131.847 -10.7024
3.06462 117.208 15.9811
21.4055 146.569 -0.708145
8.6468 122.498 -12.0848
-4.46101 99.0352 -15.5259
-12.5126 86.4416 -6.01798
-9.34467 93.9296 6.4977
-11.6915 89.1419 2.20349
14.5496 133.041 -9.80997
-2.48368 107.494 17.3902
14.9507 134.014 -7.15224
15.5946 135.108 -6.97481
7.38713 123.726 11.8859
14.3441 132.539 -9.07078
21.2505 145.505 -2.6646
-13.1415 84.9248 -5.77333
-12.0546 86.7378 -6.30224
-12.7562 85.3761 -7.13885
13.7116 133.804 7.33246
16.343 136.015 -7.76822
-7.26389 97.8602 11.7905
17.9103 138.662 -8.19689
20.4916 143.746 -4.27544
9.31055 123.085 -11.3657
2.06163 109.813 -15.098
14.1932 131.695 -10.5897
7.22184 119.022 -13.7427
13.4844 130.275 -11.4826
16.8662 136.531 -8.9968
-8.80191 94.3699 7.97523
8.17866 120.682 -12.9581
-5.34487 101.498 15.3374
3.211 116.582 16.471
9.23642 126.13 10.3378
-8.62591 94.6981 9.15162
-8.72512 94.3386 8.11157
-6.03569 100.024 14.4163
6.33102 121.416 13.1673
2.7498 110.722 -14.938
-13.6667 83.7515 -3.89178
21.6169 145.646 -1.87906
19.7019 143.139 4.23966
-8.66994 93.972 7.39923
17.7569 137.607 -8.52525
14.9141 133.018 -6.08712
15.1343 133.403 -6.04835
6.85005 121.911 12.916
-10.4785 88.3739 -7.80648
15.9858 136.44 4.22522
-6.5641 94.0355 -14.8874
-11.288 88.2742 1.04767
14.0534 130.906 -9.03471
16.9408 137.866 3.23834
21.9335 146.164 0.689636
2.01147 114.141 18.4536
14.8384 132.632 -6.37467
-3.33546 99.3608 -16.0447
22.027 146.18 0.356762
22.0481 146.133 -0.166549
12.2801 127.182 -12.1467
-4.34224 102.453 15.6275
15.0588 132.303 -9.72692
14.7832 131.739 -10.2348
14.1134 130.806 -8.71116
13.4593 129.184 -11.5943
1.58779 107.778 -15.4017
14.7188 131.945 -6.81481
-9.30303 89.0093 -13.1332
-10.6208 89.4002 4.11949
3.77607 116.493 16.5958
-8.04854 90.8189 -14.9406
-4.13486 97.4917 -15.9284
16.7153 135.151 -7.79834
14.1799 130.557 -8.2454
8.02608 118.957 -13.509
-9.75132 88.6469 -8.82607
-12.2964 84.7286 -4.89002
9.12757 121.021 -11.9545
22.0363 144.968 -2.17612
22.3371 145.752 -0.36187
-9.15465 88.9795 -11.4145
-8.99867 89.4089 -10.4017
1.98783 107.834 -15.2
20.017 142.239 3.57422
-12.1654 84.7248 -4.83638
6.12479 119.668 14.4104
0.174874 104.388 -16.6472
-12.2405 84.3915 -5.95269
-11.9841 84.9283 -5.26866
20.7148 142.041 -4.89226
-7.32999 95.5618 11.1118
-0.664762 102.803 -16.7252
20.6922 141.915 -5.04478
14.1321 129.466 -11.3516
-10.9235 87.1782 -1.43368
16.2363 135.666 5.42166
15.0374 131.083 -10.3443
-11.1085 86.5606 -2.89318
0.28738 104.258 -16.6092
-7.94037 90.082 -14.8629
5.19163 113.131 -13.7583
-11.8037 84.9114 -4.31485
17.0579 134.7 -8.08711
-8.44682 92.5104 6.81643
15.4409 131.643 -9.35074
14.7324 130.893 -6.24363
-2.89563 103.721 16.7598
14.467 130.261 -7.10613
-0.0724348 108.86 18.7686
-8.31236 89.2886 -13.7019
4.64728 116.56 16.6424
-11.6175 84.6012 -5.73085
-12.5191 82.7381 -7.48704
-8.71381 88.7795 -11.1085
12.1056 128.358 9.4304
14.6909 130.361 -6.32818
-12.1279 83.6221 -5.45734
10.9106 126.397 10.9049
-10.4669 86.0345 -8.15298
8.30529 117.905 -13.5035
19.0593 139.315 3.40002
6.75165 119.586 14.7129
17.725 135.175 -7.93629
22.1184 144.319 1.68662
-2.46051 103.863 17.5546
7.09668 119.995 14.5063
9.46902 123.708 12.2981
16.876 133.776 -5.46613
-3.83842 95.9448 -15.9604
-11.173 84.586 -6.744
-8.23127 88.6738 -13.402
16.4368 132.238 -9.81252
8.15392 121.457 13.6739
8.90393 122.621 13.0288
20.9135 142.056 3.29995
-3.36902 96.5944 -16.12
-4.46083 94.7648 -15.6114
-2.98886 97.1985 -16.2594
9.82051 120.304 -11.4481
-12.0719 82.6702 -7.67292
16.6186 134.833 5.57543
10.2391 121.011 -11.1874
1.96112 111.549 20.5727
-0.561259 106.707 17.8118
-3.23026 101.987 17.4769
2.0091 111.602 20.514
-7.57779 92.8495 7.82025
-9.25455 89.5866 5.71731
15.8144 133.675 7.83789
-11.171 84.5078 -4.7861
18.8277 138.023 2.68798
-11.3154 84.0347 -5.84757
-10.305 85.4549 -7.9955
-8.3 88.5045 -10.805
14.7661 129.105 -8.69085
3.25893 113.365 19.0823
-6.98194 94.0414 9.94086
-4.96974 98.2612 14.6024
3.52483 113.725 18.8735
8.85829 122.172 13.4355
7.87828 120.592 14.3833
16.2506 134.003 6.72278
18.3388 135.316 -7.99605
-9.2069 89.3633 5.70277
13.5989 126.457 -11.4446
-10.987 84.5826 -4.55879
15.9645 130.803 -9.86584
12.8752 128.421 9.42278
14.7627 128.963 -8.05991
2.09473 111.31 20.7556
-9.652 88.1986 4.27594
23.1965 144.813 -0.0704512
-6.59116 94.4561 10.5835
14.5477 127.966 -10.9633
-4.86831 93.3754 -15.3422
-5.29869 92.5593 -15.4704
14.8908 129.306 -5.73537
17.4791 133.422 -8.04141
-10.2904 85.7661 -2.72622
-2.4343 97.3113 -16.4402
15.3697 130.268 -4.53305
-12.0782 82.4321 -3.56708
-2.04541 103.459 19.0682
17.6638 133.577 -8.0618
-4.01966 99.621 16.7749
-0.902072 105.379 18.8326
-6.94412 93.3612 9.57881
14.655 127.982 -9.89992
15.8826 132.908 7.83989
18.2168 136.03 2.27609
-11.7873 82.4745 -4.97806
15.9465 130.736 -5.42982
-9.74522 86.6096 -0.77166
13.7128 125.858 -11.2437
-4.26835 98.7005 15.9881
-7.5818 91.4895 7.21208
-6.34759 90.0838 -15.3782
21.8947 141.073 -4.52762
-0.488283 105.703 19.1015
14.9711 128.811 -5.50335
-11.7355 82.3925 -3.93355
10.8124 120.669 -10.7662
-8.69399 86.7589 -9.41469
6.13201 111.91 -13.9187
-4.82658 97.0564 13.5025
15.1853 128.495 -8.68443
-8.0181 87.3673 -12.5607
16.9828 133.797 5.891
9.84352 122.539 13.6758
-4.73962 92.4391 -15.5817
-5.53046 90.9888 -15.7231
15.7241 128.891 -10.3924
-6.32755 93.6142 10.1326
-4.59505 97.1772 13.8147
16.2592 129.918 -9.27558
15.0345 128.214 -6.25751
14.4146 129.548 9.22622
17.3663 132.118 -7.12033
0.889945 101.804 -16.3206
15.3189 128.14 -9.03652
-0.954075 98.5234 -16.47
3.02372 105.645 -15.1532
16.8336 133.293 7.40798
15.4143 128.161 -9.40183
-8.95662 87.8764 5.07685
3.66115 112.236 19.914
-4.59566 96.8359 13.6911
1.35153 108.089 19.5217
18.4708 133.635 -8.08651
-9.2543 86.5326 0.243488
16.6175 130.186 -9.41137
19.5124 135.388 -8.41136
17.4845 132.024 -7.08007
20.1925 136.433 -8.50706
22.8185 142.672 2.15938
16.5452 129.797 -9.52708
23.4519 143.458 0.87316
-7.58723 87.2561 -11.8736
0.0362649 99.8226 -16.4884
0.450051 106.095 19.2744
16.5545 130.368 -5.1145
18.668 133.741 -6.8495
-5.24839 95.0197 12.5386
16.8631 130.853 -5.00623
2.5885 110.019 21.009
-0.835775 98.1363 -16.4271
17.8578 132.721 -4.00658
11.2505 123.837 13.1182
-7.05316 87.5212 -14.4975
2.43748 103.923 -15.3337
14.7403 126.181 -10.1619
17.7467 132.363 -4.03238
-3.90584 97.5638 15.2883
10.442 122.348 14.0167
-2.8229 99.7184 17.5146
2.83791 104.469 -15.0508
14.4886 128.641 9.69529
12.868 125.995 11.4159
-7.75252 89.2454 6.71552
13.7661 127.351 10.3492
-2.92134 99.1338 17.0797
9.85176 121.03 14.7362
15.5573 127.252 -8.77855
3.77668 111.302 20.7036
0.0615331 104.604 19.5529
23.798 142.675 -1.81621
-0.790476 103.226 20.3746
-5.51326 93.4184 10.7151
15.7248 127.524 -8.01889
-4.76489 95.0069 12.943
-8.81764 85.8585 0.0358338
7.25063 111.652 -13.9825
-8.46467 86.8974 3.20683
17.8641 131.877 -2.79071
20.4843 137.245 2.40489
1.62 107.02 19.6834
8.48425 113.8 -13.3658
12.7725 125.269 12.1227
17.8916 131.827 -2.56415
9.98802 120.711 14.8807
1.91406 101.768 -15.8701
14.2608 124.098 -10.8508
4.14677 105.728 -15.1914
-7.21262 89.3745 7.15525
13.1095 125.592 11.8623
24.053 142.65 -1.13292
17.3532 130.076 -6.56855
-5.11975 93.6474 11.306
15.9502 127.378 -8.05959
-3.47075 97.1934 15.6364
-8.34387 86.8305 4.16716
20.4845 136.886 2.40181
16.3663 127.632 -10.6226
22.052 138.18 -6.61366
17.5129 130.453 -5.2544
13.1817 121.879 -11.637
21.761 138.952 1.70292
18.472 131.776 -7.23277
-10.5561 81.3589 -5.52601
24.0211 142.702 0.737979
3.36273 104.151 -14.9966
-6.614 86.896 -13.8993
16.9686 129.835 -2.66691
18.6158 132.453 -4.17006
23.1718 140.318 -4.58595
9.57739 119.741 15.5402
22.2392 138.354 -6.41855
12.8229 124.864 12.4951
7.92547 112.179 -13.7457
15.9987 129.919 9.53235
21.2012 136.194 -7.83623
-6.46118 90.3261 7.71384
18.3673 131.841 -3.34262
2.98899 103.099 -15.1629
8.34775 112.74 -13.3458
0.471277 104.153 19.713
9.1666 118.711 16.1545
23.9309 141.458 -2.5857
7.25107 115.54 18.1344
17.6503 131.567 4.69315
23.2723 140.951 2.07397
-8.06264 86.2997 2.72988
14.145 122.846 -11.0384
7.1096 115.173 18.3722
16.8056 130.602 9.10607
17.4444 129.91 -2.28402
17.8393 131.512 3.60328
-8.88063 84.1072 -0.551932
16.3652 129.786 9.64022
16.1732 126.255 -10.6512
-8.16237 85.5175 0.624289
23.8137 140.698 -3.50141
-9.37332 83.0944 -1.26434
18.3163 130.506 -7.17327
24.1093 141.348 -2.38892
24.3788 141.988 -1.18245
1.10595 98.9811 -16.2446
-6.57749 86.2141 -12.0756
13.892 122.062 -11.3546
-4.59295 93.3221 11.5997
23.7229 140.29 -4.00454
-5.95422 86.7732 -14.5511
0.287543 103.096 20.1917
5.32703 106.342 -15.0383
17.5676 129.747 -2.06348
10.2044 115.127 -12.984
18.946 131.365 -6.41327
16.7047 127.989 -2.49566
19.5767 132.448 -5.9332
14.8247 123.983 -6.98988
-7.08308 85.0174 -11.3003
15.3977 124.839 -7.17174
-4.58515 88.6862 -15.1004
1.56725 99.2445 -16.0878
-5.9742 86.3132 -14.4349
13.6374 124.703 12.503
-5.67602 86.718 -14.5753
-5.09505 87.5826 -14.8474
19.2479 131.463 -6.01373
16.4408 125.982 -9.53372
13.5241 124.311 12.7191
7.86851 110.244 -13.9157
17.5178 129.194 -0.49598
11.5935 121.178 14.5075
14.4895 122.379 -9.54852
12.3781 118.489 -10.7011
7.98801 110.321 -13.7746
21.2841 135.99 2.33319
-5.24863 90.7276 9.11358
-5.18538 90.744 9.27302
21.0593 133.762 -7.91463
-4.10916 88.694 -15.061
18.1895 129.611 -1.7929
18.9 131.354 1.5752
10.8371 119.447 15.5131
-8.58147 82.9597 -0.608125
14.7854 122.491 -8.52778
22.3105 137.067 1.27687
14.8378 122.495 -8.07684
18.5725 129.733 -3.36179
-4.27916 87.983 -14.8193
-8.39639 81.9346 -7.35936
24.3033 139.759 -2.65495
-5.82555 85.4357 -13.5368
20.9208 134.592 2.12672
24.354 139.688 -3.41083
5.64804 110.754 20.2875
2.2303 99.1006 -15.8426
-3.10406 94.3934 13.5283
15.8077 127.036 11.2011
22.8873 137.852 1.45967
16.7807 126.369 -3.62157
8.32321 110.045 -13.4318
16.6933 125.023 -10.9171
18.3309 130.164 3.6957
13.8527 119.879 -11.7156
23.0152 137.873 1.20922
14.0876 120.642 -9.11258
16.5417 124.847 -9.32391
16.7766 125.908 -5.03437
0.852978 102.121 20.6988
10.1263 117.617 16.663
-2.72374 94.6902 13.7999
12.0045 116.578 -10.4925
0.264944 100.354 17.3438
23.2132 136.757 -5.89955
18.8362 130.084 0.705179
17.5127 128.623 6.56284
-0.0902537 94.3452 -15.8372
7.54611 107.847 -14.2428
14.0205 120.004 -8.78199
15.1481 122.422 -5.71237
17.5404 126.436 -6.19637
13.2742 118.327 -10.3812
-2.52253 94.4968 13.6252
24.2517 138.927 -0.950313
-6.93986 85.2466 4.11039
-3.00755 89.0489 -15.2505
-0.551567 98.265 16.3632
18.4692 129.172 1.94169
0.193341 99.5757 16.6636
9.11386 115.323 17.8402
7.38756 112.533 19.2988
18.8142 130.131 4.38192
-4.2089 90.7545 9.64053
-4.76887 85.9854 -14.3207
0.583384 100.825 20.6439
12.964 117.534 -10.1195
9.88673 111.823 -12.2615
12 119.776 15.0859
9.50883 115.778 17.5191
17.7504 125.568 -11.6615
-2.51287 94.0891 13.2446
23.3971 137.124 -0.714049
17.7301 127.343 0.201832
21.3768 132.499 -7.41717
5.59743 109.31 20.6295
22.3019 135.354 0.992381
-8.41461 81.0619 -3.20102
18.3099 126.454 -11.1749
18.8816 128.494 -4.54542
14.1318 119.33 -9.86028
0.263861 94.1839 -15.6869
11.0401 117.986 16.0704
17.0707 124.867 -7.1133
13.0321 121.098 14.1658
7.99444 107.843 -14.0012
18.9109 128.888 -1.33936
16.8392 123.963 -9.61126
0.743819 100.26 18.4958
8.74575 109.234 -13.0677
-1.34801 91.1746 -15.4907
18.731 128.227 -2.78977
12.1337 119.538 15.217
18.8374 129.089 1.55048
3.95984 106.212 21.2557
-0.987509 96.6401 15.3298
24.5643 138.312 -3.36288
18.7009 129.026 2.73193
11.3267 113.736 -12.135
19.0142 128.362 -4.37795
-6.39319 82.8654 -11.4599
3.97087 100.42 -14.8682
8.77054 108.981 -13.078
1.55157 95.9681 -15.6095
18.8347 128.971 2.40929
17.2458 124.923 -4.97732
-2.8549 92.3966 11.4019
1.22967 95.2685 -15.5606
21.6708 132.277 -7.09353
24.3709 137.386 -4.39812
12.1876 119.214 15.3132
20.5221 130.416 -5.95856
0.856722 99.8248 18.0037
16.9695 123.562 -9.76916
23.0153 134.664 -6.07011
3.80332 99.7094 -14.9889
14.418 118.91 -10.6982
21.632 132.055 -7.13405
9.55478 110.158 -12.1627
12.6689 115.798 -10.5858
21.1032 132.389 1.45285
19.7187 129.759 0.275185
-0.714851 96.4041 15.0519
22.631 133.795 -6.29174
-0.792233 91.4258 -15.4835
17.523 124.083 -11.138
7.77763 106.567 -14.3009
-6.13376 82.6892 -11.5934
15.0343 120.693 -4.7687
-6.9376 83.2155 1.44124
22.4544 133.268 -6.38976
17.0518 126.467 10.8269
18.7086 126.822 -5.30722
16.8761 126.168 11.03
6.64244 104.182 -14.7755
18.3665 127.632 4.26673
18.8613 127.35 -2.64726
21.9632 133.327 1.00155
16.1354 124.846 11.9648
2.57078 96.7768 -15.7822
-6.46713 83.9263 2.85656
17.352 126.598 10.063
18.9122 127.838 0.679339
9.30544 113.794 18.1372
-7.00611 82.6565 1.25233
-6.94836 81.2352 -8.14887
24.7589 137.841 -0.21618
1.49446 100.518 20.9201
16.3917 122.303 -5.10902
18.0697 125.639 -2.3064
21.9058 131.663 -6.43517
18.3272 126.402 0.0819408
13.1626 119.647 14.6047
19.1023 127.833 0.729261
1.08577 99.0834 18.1336
23.4265 134.577 -4.19183
6.22342 108.445 20.6633
3.31772 97.6743 -15.4616
19.0642 127.683 0.559629
19.4182 128.243 0.441634
23.3182 134.611 -2.31415
24.2661 136.036 -3.76222
-6.93833 80.9407 -7.63161
18.5099 127.323 4.82485
17.2677 122.619 -10.5818
18.4104 126.089 -1.17129
23.4676 134.814 -1.69055
20.7271 128.705 -9.24955
-3.47112 89.1552 8.11233
-3.68944 85.3086 -13.9043
24.5816 136.277 -3.40691
18.5945 126.237 -0.679473
-0.191425 95.8274 14.56
-0.40876 95.376 14.2173
-5.0362 83.0201 -12.9145
14.646 117.783 -10.1434
-0.445542 95.2285 14.0976
19.0696 125.142 -12.1097
21.2645 130.946 0.664561
18.277 124.986 -3.99576
25.1715 137.495 -0.418396
8.16254 110.892 19.2829
5.44646 106.415 20.9835
3.43116 97.1625 -15.4487
18.303 123.622 -12.17
1.94184 100.123 20.9428
3.69466 103.231 21.2547
18.2323 124.366 -5.61566
24.2921 135.373 -2.8801
-0.506023 94.6574 13.639
23.5751 134.084 -1.65541
19.8515 127.763 -0.232373
18.4092 124.467 -5.0092
23.6935 134.287 -1.14127
0.441155 91.3987 -15.3936
12.0461 116.576 15.8759
15.9143 122.77 12.4126
8.13475 104.991 -14.2358
19.9174 127.685 -0.178225
14.8728 120.99 13.3663
-2.44748 86.3263 -14.2758
25.0143 136.361 -0.888732
18.7312 123.512 -12.8273
16.809 121.446 -4.29783
23.9392 134.412 -0.261708
20.3696 128.345 0.900129
23.2751 133.229 -0.242384
17.1753 124.356 11.0884
22.6826 132.171 -0.116831
24.5457 135.016 -2.56922
-4.10803 85.8621 3.85623
2.40682 94.1807 -15.3958
19.5726 124.752 -11.4841
-0.418632 93.5824 12.3099
-5.44786 81.2863 -9.54676
1.58752 98.1138 19.6116
22.3308 130.542 -4.22512
15.6223 118.912 -3.68118
-6.10686 80.3929 -7.22783
18.8238 124.341 -4.47767
-2.63538 88.7087 7.25446
17.9526 125.069 10.1725
4.48939 103.28 21.0913
20.0602 127.297 0.996005
23.2657 131.912 -5.1978
22.0042 129.736 -4.89583
13.4442 117.796 14.35
10.3126 112.803 17.8256
-5.37696 81.1299 -9.32525
4.4639 97.3844 -14.9544
15.089 117.193 -6.35935
18.1115 124.989 9.99688
1.56475 96.7612 14.3336
18.2182 123.091 -2.75339
8.06098 103.501 -14.5465
-2.4022 85.3194 -13.906
11.0752 113.648 17.0223
18.6993 123.091 -7.25967
23.7593 132.644 -2.46474
1.01264 90.9034 -15.3041
-1.5142 86.5614 -14.5533
24.9247 134.416 -3.37593
18.5212 125.148 8.79336
-3.63286 85.6426 3.82315
17.0741 120.631 -3.55481
20.2517 126.896 1.04844
25.6224 135.782 -2.00748
-3.88997 85.132 3.77834
2.66129 98.4511 15.9175
11.7255 110.031 -11.0205
9.40986 105.675 -12.979
22.9497 130.661 -4.20321
19.8867 125.986 0.0985687
22.7047 130.914 0.296949
15.6664 116.998 -9.87596
14.1606 114.241 -10.2738
24.4658 133.213 -3.82725
8.84 104.322 -13.7482
0.565319 89.6235 -15.1358
20.4244 126.816 0.978856
19.4345 124.477 -2.88986
2.57008 97.7287 14.5748
-3.0219 86.2374 3.82878
1.08448 94.9125 13.5227
24.0304 132.546 -1.63498
13.6081 116.82 14.2182
23.9775 132.113 -3.55733
5.08841 102.978 20.9909
19.508 124.667 -1.14478
12.9095 111.623 -10.5912
9.26332 104.826 -13.3048
2.00803 97.1631 18.8482
-1.92307 88.2115 5.85403
20.7976 127.115 0.998647
11.622 109.197 -10.9948
20.7255 127.042 1.58026
13.3367 116.174 14.5667
15.3098 116.664 -4.16698
19.3682 124.399 0.0444077
19.6775 125.305 3.03077
2.10446 97.0467 18.6086
19.7385 124.598 -1.64315
18.2897 123.827 9.57244
15.4445 117.078 -1.6281
-1.1594 89.5771 7.95389
2.54011 97.9538 20.2657
23.4553 130.438 -5.23019
15.9833 116.956 -7.79366
15.7025 117.512 -0.575504
3.67063 99.8763 20.9248
17.5602 122.4 10.091
17.1375 119.649 -2.64541
9.57755 109.766 18.7223
15.4723 116.363 -4.60328
25.9632 135.143 -1.64571
6.73961 99.5403 -14.5785
13.5199 115.928 14.3727
19.2598 124.656 6.45341
2.7703 97.4183 16.6655
2.47531 97.4055 19.9866
19.9281 125.088 2.28218
19.483 125.071 7.12122
-3.82898 83.6668 2.71191
18.8215 122.434 -1.85777
11.0351 107.264 -11.863
18.7581 122.283 -1.95222
-4.24522 82.6776 1.90139
12.6103 114.23 15.4155
20.4047 123.72 -10.6855
12.6874 114.335 15.3239
2.49566 96.8876 17.5646
20.9737 126.427 0.343202
18.6444 120.627 -10.6505
13.6768 115.862 14.1955
19.8237 123.673 -4.09678
23.9076 130.615 -5.21997
-3.76353 83.3801 2.81276
8.55457 107.388 19.0015
19.6445 123.624 -0.76572
17.8133 120.361 -0.664267
26.3083 134.979 -2.00139
17.8172 120.913 2.83478
15.121 117.773 12.8155
20.0622 124.076 -1.93064
13.8361 115.7 14.0533
2.75522 96.7801 16.9348
17.6707 119.963 -1.24305
11.6218 107.754 -11.4858
15.7455 116.19 -3.43348
19.4054 124.25 7.28131
22.6553 127.719 -6.59967
2.9108 96.8426 16.5129
3.803 99.0496 20.7
26.4709 135.031 -1.95301
22.2643 128.115 0.947053
18.6328 122.649 6.55215
18.1053 121.344 4.45769
14.2737 112.344 -10.1248
17.7592 120.672 4.27682
21.037 125.962 1.53312
3.18781 96.9529 15.6744
-1.28631 87.3801 4.65051
20.2748 124.584 1.98103
17.6097 119.643 0.156579
16.9897 118.436 -0.57242
20.2653 123.76 -2.98647
21.6202 126.605 0.333193
19.0965 122.712 4.06324
12.8573 113.543 15.3893
0.86533 87.8734 -14.5771
17.4449 119.493 2.41311
18.3661 120.848 1.1542
3.95828 97.673 14.2293
13.9783 115.128 14.1398
20.551 124.271 -0.596454
12.1232 107.882 -11.1648
21.1216 123.868 -9.19134
1.80642 93.4196 12.037
11.9412 111.815 16.5912
8.0955 100.18 -14.2921
9.85911 103.385 -13.3767
21.4997 124.465 -8.55065
12.2351 107.786 -11.126
20.1756 123.29 -0.692658
-2.4943 84.2489 3.20267
12.3392 107.903 -11.0101
20.0165 122.037 -6.25406
19.4145 123.192 7.91122
0.92332 87.3797 -14.4259
19.8835 121.426 -7.6801
7.11728 103.398 19.449
16.2035 115.63 -3.52406
-0.202388 85.2304 -14.1225
18.6874 121.874 9.28199
0.783259 86.8978 -14.3354
16.186 114.667 -8.6707
24.6745 130.503 -2.06744
16.9387 117.467 1.05383
-3.5993 79.957 -9.42066
16.4936 115.535 -5.8538
16.3163 117.99 11.7489
6.69477 97.0338 -14.468
20.7487 122.834 -6.25605
4.79279 99.1831 20.547
20.7478 123.944 1.09171
2.93882 95.6118 19.0782
0.939447 86.8703 -14.2826
16.3413 115.632 -2.36792
25.7023 131.931 -2.65035
2.98094 95.2919 16.9424
16.3962 115.882 -0.62183
7.50081 103.41 18.8801
23.368 127.509 -3.67392
20.6617 123.017 -2.13419
-3.51851 79.6657 -9.21165
20.4153 123.17 1.73797
23.0434 126.879 -3.85246
3.25758 95.4641 16.2538
20.6322 122.862 -1.71845
21.57 124.414 -2.21085
25.1179 130.182 -4.3386
20.863 122.862 -3.5627
1.0641 86.5445 -14.1577
21.1296 122.992 -5.05311
24.4087 128.644 -5.41342
-1.79778 84.2103 3.02697
18.7069 120.517 6.28744
-2.56127 80.5428 -10.7555
11.6622 109.809 17.5055
24.9937 129.762 -3.3919
17.1102 116.925 2.60448
19.0366 120.999 7.14854
21.763 123.705 -5.77173
2.09216 91.8504 10.1488
-1.59138 84.2983 3.06775
4.45375 96.5355 14.0529
16.7611 115.177 -3.95449
24.3889 128.369 -4.18669
-3.39157 79.1438 -8.58174
21.4738 122.987 -5.22899
21.4148 122.666 -6.16868
7.08176 101.621 19.1787
26.5971 131.984 -4.39636
14.4658 109.976 -9.62819
11.4534 104.274 -12.3134
26.3724 131.568 -3.8147
24.3423 128.186 -2.63827
0.780588 85.2463 -13.8379
13.4911 107.95 -10.2091
3.193 89.2453 -14.7527
-0.356835 85.9662 4.26485
21.8289 123.356 -4.25214
-0.525244 85.4704 3.46387
4.71132 97.217 20.1584
-0.28722 85.9302 3.9837
16.966 115.41 -0.0629766
1.49426 89.4861 6.97711
21.9348 123.918 -0.912569
18.7407 120.017 9.76526
21.2767 122.37 -3.41679
21.2843 122.364 -3.45523
24.3771 127.371 -5.94422
10.3586 101.741 -13.2299
7.63554 101.9 18.4067
21.9787 123.399 -3.48247
16.7971 116.747 11.8309
17.0294 114.466 -5.18972
12.2657 105.129 -11.653
-0.398367 85.3195 3.20853
24.3118 126.938 -6.29695
1.02891 85.0972 -13.7129
13.7579 111.939 15.7924
22.8103 124.963 -1.23237
12.7167 110.1 16.842
3.34642 94.0174 18.8331
22.7024 124.591 -1.23424
5.95832 98.6942 19.9992
2.90011 91.7234 9.75862
15.0001 109.753 -9.44618
3.48778 94.0439 18.9179
19.5622 120.371 7.96037
22.8127 124.548 -1.32141
25.3903 128.497 -3.72637
8.85408 102.868 17.0786
3.74839 94.2579 19.0845
2.39093 90.122 7.89249
4.29114 95.3027 19.8285
18.9583 118.853 6.76606
16.5782 115.555 12.4118
-1.49065 80.1165 -11.7683
24.0226 125.534 -5.70042
14.6795 108.585 -9.66975
8.34039 101.641 17.3903
11.8619 103.108 -12.0561
2.98153 90.7902 8.50039
23.8875 125.802 -0.894106
12.159 103.585 -11.8014
8.35854 96.5183 -14.2449
1.65768 87.8542 5.11053
15.723 110.162 -9.13938
0.278059 82.5437 -13.2069
3.0307 90.7285 8.40971
2.12419 85.5617 -13.6236
18.3731 117.027 6.38907
14.2059 111.21 15.7564
18.0462 117.079 11.1401
7.74811 100.19 18.3136
18.1637 116.37 5.60139
25.5088 127.557 -4.2248
9.34059 102.576 16.4412
17.6842 113.853 -4.34846
26.5496 129.512 -3.05603
6.75388 93.1144 -14.5073
4.49096 94.3767 19.5287
3.54688 90.9873 8.52563
16.2237 110.438 -8.40619
4.49199 92.8788 10.2737
-1.68159 78.8325 -10.3106
16.5066 114.212 13.0135
16.1397 110.17 -8.56726
1.67067 86.7599 3.4016
12.7102 107.994 15.9003
3.11496 86.5116 -13.8513
18.1268 115.815 6.02271
27.7735 131.18 -3.30933
12.6929 103.613 -11.114
0.273259 81.6463 -12.891
6.72921 97.9103 19.303
4.83785 93.1482 10.2608
16.0886 109.801 -8.50189
2.1734 87.5184 4.3658
-1.33417 78.8878 -10.761
17.5634 112.832 -4.37811
5.11794 93.3793 10.2651
26.2011 128.086 -2.4114
27.4067 130.079 -2.94598
8.22035 94.7691 -14.2374
7.21417 92.9848 -14.3765
5.71866 95.7074 19.6336
3.83962 91.4926 13.7879
18.6044 116.217 7.38424
8.05799 99.4081 17.5986
2.35489 84.5446 -13.564
5.96972 94.9636 12.6264
25.7592 127.034 -2.55191
18.3696 115.45 5.91708
3.88791 91.5209 14.6374
18.8655 116.748 8.97787
4.32587 92.61 17.7128
8.67368 100.041 16.7099
10.5054 103.011 15.7282
27.5794 129.832 -3.25568
4.68301 92.842 15.9776
16.4385 110.051 -4.91502
14.918 110.502 15.1692
5.40641 89.2666 -14.2218
8.07231 98.898 17.4278
6.10098 94.5595 11.7913
18.4103 114.901 4.48754
26.5317 127.875 -3.13647
1.0208 81.7434 -12.915
27.6926 129.953 -2.47279
14.4681 109.597 15.0567
16.2541 109.386 -6.03996
8.33518 94.2343 -14.1566
4.96515 93.1825 16.6106
26.6713 128.118 -2.1181
9.11925 95.555 -13.7317
5.37826 94.0984 18.7762
27.8663 129.769 -3.70077
19.3523 117.049 9.9951
5.32348 93.8757 18.528
28.0953 130.088 -3.80773
4.39508 90.9066 10.3871
12.7741 102.269 -10.3135
10.0297 97.0422 -13.0128
26.0948 126.762 -2.36495
18.4177 113.32 -2.34252
27.2847 128.701 -2.43745
6.82757 96.3577 19.0785
18.6027 113.666 -1.4341
11.9979 100.461 -11.8617
12.1918 100.803 -11.5258
18.7059 114.584 3.84985
18.0645 114.766 12.1599
5.29021 91.4797 6.10874
4.475 90.817 10.9636
9.48041 100.279 15.77
13.6812 103.491 -10.1868
18.8106 114.929 5.92377
5.43473 91.505 5.49694
16.0804 107.925 -7.97986
28.2066 129.682 -4.14927
16.2736 111.74 14.4288
27.1379 127.951 -2.9364
4.10415 90.0397 11.887
-0.913864 77.6678 -11.0039
15.7241 107.016 -9.00601
5.31432 91.0549 5.212
18.8586 114.418 3.54601
4.09404 90.2023 14.1246
15.221 109.673 14.7814
27.4394 128.094 -3.63597
6.19138 93.53 12.619
6.48192 93.5047 9.47741
6.76018 95.2503 19.0912
5.71723 91.755 8.51451
15.9677 107.016 -8.17252
-0.344652 77.9995 -11.5716
27.6894 128.217 -3.14194
9.13024 98.7472 15.7337
4.80538 90.0848 9.10199
6.39625 93.1988 12.4298
15.6701 106.098 -8.42683
6.59637 94.4662 18.6923
5.31045 91.0095 11.0195
7.58684 96.0336 17.792
5.08019 89.7205 5.49299
3.2069 86.2323 4.71523
17.7511 110.537 -1.54327
11.0895 97.199 -12.3861
5.04982 89.2137 4.57425
18.8043 114.348 11.8174
15.5417 105.285 -8.57523
19.4257 114.261 5.90261
7.67805 95.4838 17.4567
7.38673 93.6651 9.24884
18.7981 113.73 11.0065
17.8486 110.2 -0.852895
8.35815 91.4913 -13.8735
6.37034 92.8887 17.2517
17.4848 109.415 -0.883746
17.9829 110.275 -0.562315
19.2888 114.276 10.526
5.88616 90.0695 5.91059
6.39042 91.8054 11.7786
6.0083 90.1959 6.08913
4.97082 89.959 16.1342
19.1957 112.727 3.11159
7.87827 95.1622 17.1285
6.29057 91.4316 11.1828
4.83523 84.9905 -13.5967
4.89489 88.9763 11.5352
19.4527 114.131 9.92928
6.39706 90.9214 7.68712
18.1 111.975 12.1886
10.1895 98.587 14.9204
5.12636 88.9349 10.1311
9.19848 96.853 15.3458
17.9107 109.579 0.146439
5.10874 88.6472 9.33335
4.28061 83.5251 -13.4001
1.64484 79.168 -11.6661
6.39051 90.1882 5.81928
18.257 111.529 10.1387
5.40217 88.6265 7.52633
20.0035 113.863 6.33774
5.14126 88.6468 11.2591
5.00599 88.1357 9.83087
5.20819 88.291 8.84018
11.997 101.05 14.6664
6.00368 88.957 4.5931
5.6468 88.5954 6.30406
13.0927 102.731 14.1683
4.90249 86.8215 5.17584
16.0655 104.664 -4.95798
5.04616 88.4129 14.7026
18.569 109.905 1.42714
8.83873 95.1314 15.5627
5.05094 83.9525 -13.4107
2.72643 80.0846 -12.0689
9.80843 96.6365 14.7387
5.08093 87.9779 12.5167
17.7309 110.09 12.7234
7.78145 91.9746 8.25784
17.0025 108.874 13.3445
13.413 98.8891 -9.95983
5.24029 87.3395 7.59434
5.26887 87.2856 7.09227
16.2469 104.657 -4.29342
19.4374 111.477 3.74252
9.61422 96.0106 14.7479
9.25615 90.8603 -13.4838
16.7403 108.106 13.3786
17.1176 108.665 12.8
13.5934 102.684 14.045
4.98472 87.1046 10.6157
16.3826 104.733 -3.77104
19.0556 110.485 3.3215
7.52332 91.0407 7.91952
12.1056 95.9225 -11.6333
17.8253 109.395 10.5618
7.82148 91.1933 5.96797
7.86346 91.1776 5.86883
18.9977 110.068 2.89102
8.05893 91.6628 7.30641
9.19991 90.3257 -13.4597
16.5447 104.656 -3.1376
16.9114 107.705 12.598
7.88614 90.7903 5.63733
6.69323 90.2034 15.5285
8.50149 88.8021 -13.4069
8.26801 91.4283 6.09032
18.8003 110.068 7.7688
17.1785 107.903 12.082
5.00972 86.3575 10.4658
13.5969 98.0941 -9.78697
5.153 86.8473 12.6589
17.4018 105.912 -1.71609
7.15229 88.9955 5.88031
16.433 103.686 -3.70942
10.6778 92.128 -12.8963
7.26736 88.9263 5.06422
18.2317 107.229 0.525826
9.5424 94.1083 14.6288
17.6814 105.774 -1.3242
17.8726 108.021 10.9899
14.344 98.8953 -7.77575
6.9417 85.0983 -13.054
5.27913 85.7206 9.85461
4.1499 80.3306 -11.2232
18.4305 108.445 9.90278
4.94188 84.6229 8.18848
12.0713 93.9052 -11.4093
12.3526 94.42 -11.1815
8.80378 87.8124 -13.1434
5.07363 84.5808 8.6594
7.77777 88.9022 6.4611
12.5796 98.3364 13.7598
8.51641 91.3718 16.2408
9.57664 93.0328 15.7161
18.7726 107.706 8.86235
5.72061 81.5382 -11.5533
7.816 84.949 -12.853
14.6822 97.7768 -7.51267
16.7229 101.576 -5.95624
7.00419 83.4434 -12.9413
6.91044 83.1597 -12.8012
5.80613 84.6893 10.2345
7.41814 88.0711 13.88
15.6876 102.403 13.3432
6.4286 82.2202 -11.9342
17.3942 102.738 -2.01239
17.3548 102.59 -2.33976
5.87719 84.3555 10.1423
18.4331 104.714 0.421501
9.36514 91.2402 15.589
7.50504 87.6691 13.7139
7.70805 87.9309 13.4801
12.0863 95.5115 13.2518
17.472 102.421 -2.19724
11.8089 90.9412 -12.016
7.81155 83.8146 -12.8719
18.8888 106.683 9.9909
18.5736 104.631 0.951871
9.05378 85.8437 -12.635
14.1939 98.9055 13.5242
20.1789 107.965 5.26449
14.2894 98.8769 13.4885
9.86495 86.9681 -12.6817
20.0738 107.631 6.13158
12.2446 95.034 13.0663
20.0908 107.451 5.22192
6.12263 80.7097 -9.56439
5.02675 78.8819 -8.87086
12.5357 95.4124 13.0025
7.94539 87.2456 13.1555
18.1959 104.935 12.3248
10.8569 88.1893 -12.4053
10.433 91.6761 14.601
17.7747 103.997 12.6799
12.0669 90.1489 -11.7404
9.21021 89.0603 13.2609
9.88911 90.5113 15.0799
11.5848 93.1208 13.0611
18.9149 104.278 3.15344
8.08627 86.8518 12.975
17.9825 101.697 -1.78738
15.0745 95.7107 -7.14763
10.5911 91.2348 14.5631
16.4462 98.2597 -5.69907
8.14165 86.6133 12.905
18.0219 101.43 -2.51189
17.6373 103.124 12.6152
9.59772 85.0686 -12.4776
13.4552 95.6011 12.5955
8.98109 87.6659 11.9203
16.8998 101.581 12.9279
18.2025 101.634 -1.04148
16.7947 101.317 12.9435
19.2553 105.158 10.0816
10.3561 85.9125 -12.3793
8.09964 85.8896 12.853
5.77337 78.4884 -8.32464
17.4896 102.155 12.5251
18.0675 103.041 11.9158
17.1122 98.6084 -5.02269
7.50707 81.1865 -9.1298
10.4755 85.7502 -12.3081
18.5979 101.783 0.317171
13.4526 91.1068 -10.4414
7.8351 84.8292 12.1021
10.5444 89.9335 14.5258
9.8005 88.3659 13.0354
18.3677 102.871 11.3921
9.66125 87.4549 11.6711
15.6173 94.9646 -6.58323
15.9622 98.5162 12.1961
19.8272 104.256 6.10054
7.58743 83.5518 10.6747
17.3847 100.796 12.403
17.7857 101.395 11.7823
17.526 100.882 12.1575
11.1239 85.8758 -12.0168
18.2576 101.862 11.1723
19.4289 103.733 10.4495
17.0665 99.8879 12.3967
14.2386 94.838 12.0744
10.205 83.9657 -12.2649
8.254 84.3053 11.7256
18.9658 101.193 0.22276
7.32092 79.4657 -7.61205
11.1641 89.4679 13.4127
16.7907 96.2929 -4.78445
15.8856 97.3275 11.9825
11.3417 85.5642 -11.8854
19.136 100.959 0.223794
17.8287 100.441 11.622
8.52135 83.6627 8.78831
19.6462 103.093 10.1313
14.9461 95.1051 11.9092
17.1973 96.4013 -4.38947
12.7001 91.0346 12.3137
15.2073 91.9252 -8.79634
19.4686 102.315 10.1375
12.2049 89.9696 12.3418
14.9008 91.1982 -9.12356
19.6326 101.095 1.42464
10.4985 82.9124 -11.4
15.5558 92.1103 -8.32049
14.824 90.666 -9.11755
16.0785 93.1727 -6.97655
19.1509 99.3107 -1.77399
9.20475 80.6154 -8.66175
14.4145 92.9065 11.7973
14.9059 90.3763 -9.00142
14.0935 88.7433 -9.8491
12.3308 85.4332 -11.3039
17.2059 94.964 -4.08337
19.5915 99.5786 -0.801642
16.6879 93.6558 -5.51524
13.1822 90.2411 11.9577
10.7049 85.3569 8.99213
20.1145 100.517 2.34214
10.7486 85.4153 10.3745
15.9254 94.6276 11.7426
19.4916 100.584 10.0671
19.8627 99.6001 -0.156251
20.055 100.135 1.28447
10.7261 85.2011 10.3599
11.399 86.2651 10.5523
12.4287 88.0319 12.2574
12.9375 84.8863 -10.7573
11.9422 86.4154 10.7942
17.9521 97.0229 11.5417
12.1983 83.4396 -10.4961
12.0341 85.9815 9.05935
19.9107 98.2575 0.0421127
19.9476 99.6411 8.81827
16.6102 94.2098 11.618
9.86724 79.392 -5.89804
20.463 99.0235 1.31954
17.7055 95.7526 11.439
17.0994 91.976 -4.50031
19.7976 97.2775 -0.154007
18.9079 95.2833 -2.31943
19.5876 96.6798 -0.590927
12.8543 86.9085 12.0495
15.7858 88.8325 -7.16411
12.8224 83.176 -10.2212
11.8236 84.4448 9.33539
15.9294 88.9307 -6.83305
14.8491 86.4514 -8.99064
14.1259 84.8449 -10.0694
19.1749 94.9359 -1.86709
20.9511 99.0719 5.42387
19.7712 97.7015 9.93698
21.1183 99.4639 6.57457
20.7572 98.8533 7.26452
12.7298 85.4988 11.756
12.6567 81.8313 -9.89992
15.785 90.5787 11.1728
12.7753 85.2722 10.9468
19.7321 97.2015 9.9784
12.8876 85.5015 12.0119
18.933 95.4913 10.2216
12.995 81.6707 -9.75312
12.8606 84.337 8.81075
14.1822 86.4077 9.69955
18.2938 93.6717 10.978
21.3739 98.1843 5.50676
13.2501 84.4605 8.463
13.3185 81.6671 -9.64328
13.1701 84.5543 10.5402
20.2427 95.2992 0.380779
11.9192 79.6837 -5.30241
14.0213 85.8926 10.9085
13.5779 85.1189 11.1702
17.6572 92.2369 11.1684
16.964 88.4423 -5.1751
19.839 93.9871 -0.721739
14.7994 86.9975 10.8192
17.2193 90.753 11.0553
19.7324 93.2593 -0.832412
16.803 87.2589 -5.63298
16.6567 86.9153 -5.94317
14.6858 85.798 9.20167
17.0552 90.0783 10.9159
16.589 86.4821 -5.79482
20.554 94.4014 1.3772
20.3673 93.8947 0.651416
18.402 89.744 -2.92888
20.386 94.9095 8.1849
17.6168 88.0621 -3.98359
20.0863 94.3127 8.72932
13.4833 80.2076 -6.82103
16.95 86.4059 -5.04469
15.346 85.4182 6.5821
21.6785 96.1508 4.76964
18.6591 91.8202 10.78
19.9519 92.297 -0.167461
17.3982 87.2649 -3.46364
14.0017 80.5401 -7.62673
15.8139 83.9024 -6.15798
21.6329 95.6496 4.04307
16.4943 85.1995 -4.89897
20.0564 93.3632 8.46071
16.2551 87.0508 10.6548
15.9073 83.823 -5.92634
21.6747 95.4056 4.07866
17.3963 86.9288 -2.30058
15.1948 84.7595 9.1364
20.3524 92.3016 1.80367
19.8283 92.4148 8.44952
16.9256 85.4203 -3.10711
18.2843 89.9374 10.7802
16.0835 83.4081 -5.40583
16.6314 84.4901 -4.12712
14.3996 79.9204 -7.60638
16.0502 85.5651 10.6759
15.9551 82.3293 -5.76357
16.3312 83.1562 -4.53237
16.5677 83.6353 -3.58453
16.0278 82.2383 -4.87701
18.8069 89.4246 10.3131
18.5528 89.0367 10.6874
15.0821 80.2307 -6.63111
19.209 88.1968 0.154361
20.498 90.7988 2.6069
19.9213 89.4762 0.937108
19.4621 89.8317 9.20993
16.2781 82.3258 -1.75809
21.0728 91.3664 3.33481
14.7441 78.7817 -5.3593
16.0542 81.5101 -1.93465
18.5684 87.7699 10.5706
20.9964 90.8101 3.29128
18.9917 86.8924 0.779408
20.4041 89.5333 2.52613
17.7619 84.4024 -0.60475
16.4425 83.2766 8.60171
20.3338 89.8626 7.44429
20.1089 89.3674 7.90388
21.2296 90.9401 5.78377
15.1504 78.8027 -2.89241
17.1158 84.2695 10.4108
20.8106 89.5439 3.22299
21.422 90.8225 5.53127
20.0229 87.6653 2.36035
17.545 83.6719 4.96257
17.021 81.7042 -1.0282
17.2247 83.5459 9.18134
20.915 89.5477 6.52391
17.3489 83.7539 9.80222
15.7677 79.098 -1.29144
18.0922 84.7782 10.2563
17.445 83.332 8.76665
17.5125 81.7101 -0.587844
22.0109 90.0563 4.87406
20.3706 87.4145 7.46278
18.8667 83.5371 0.186721
17.901 81.5408 -0.166805
18.8078 84.0304 6.79269
19.6698 85.6717 9.04814
19.8437 85.646 8.72531
18.4509 83.111 8.78467
18.7746 82.2312 0.458009
20.9585 86.2833 2.6475
19.4257 83.5312 2.83006
18.4793 81.3096 0.439034
19.7198 83.2834 1.03589
18.8311 82.3329 5.11543
16.8556 78.1717 0.933254
19.094 82.8341 5.78401
20.3747 85.0561 7.78772
19.2111 82.5286 5.64641
19.335 81.9655 0.969409
18.2171 79.8747 0.246761
22.1456 87.3319 4.22057
18.7993 80.8866 0.727976
17.7013 78.9504 0.776629
19.3848 81.1751 1.12687
20.3458 83.9497 8.33875
20.5827 83.9955 7.8459
21.9678 85.7628 4.0853
18.4234 79.1085 1.51241
18.3975 79.075 1.65097
20.1321 82.0655 1.59838
19.3632 80.4458 1.19994
21.4735 84.2299 3.36936
21.7382 84.6408 3.99459
20.488 82.3309 3.66547
19.0698 79.4272 1.84617
21.0598 82.8942 2.63452
20.7705 82.9317 7.32134
20.6609 82.1953 4.81937
19.6333 79.8613 1.47163
21.7037 84.0434 6.32443
19.9563 80.0543 2.07763
21.6677 82.1781 3.75941
21.1018 80.974 3.7777
