ply
format ascii 1.0
comment Created by Open3D
element vertex 1976
property double x
property double y
property double z
end_header
20.8072 83.3484 8.43128
-7.82572 89.6805 -13.416
20.6056 100.991 7.01787
20.9218 80.1121 8.92104
-7.36989 101.841 -13.8944
19.7393 140.952 3.24624
1.54919 136.662 -9.95018
-7.14299 104.445 -13.8814
11.9456 151.587 -3.36554
1.49654 136.553 -9.9683
-6.67848 85.2496 -11.9794
4.44535 143.216 -8.25809
2.61354 140.088 -9.37695
20.7792 100.81 7.29933
-1.94593 129.131 -11.881
-8.16237 96.2995 -13.8892
17.8051 119.349 3.67463
20.6015 90.0218 8.10468
19.825 145.586 3.18211
17.8393 135.596 2.49247
-4.87796 118.4 -13.0884
3.28294 141.588 -8.77727
-8.50856 95.3674 -13.8953
-4.63948 81.2398 -9.87805
19.7206 112.333 5.83768
6.97639 149.383 -6.6004
19.8147 102.625 6.68213
19.3466 126.261 4.46752
-4.37733 119.315 -12.6483
-2.4467 127.845 -11.8469
-1.24078 132.816 -11.3325
17.6425 120.222 3.77786
20.3554 142.553 4.08403
20.103 86.5975 8.32949
20.829 97.4904 8.01916
19.4125 145.882 3.13334
20.6306 95.3239 8.09604
18.0091 136.886 2.85592
-0.35982 134.117 -10.6006
19.3158 126.324 4.71729
7.59221 150.72 -5.95665
-2.88691 123.555 -11.5944
20.2887 90.6671 8.32786
18.1189 147.346 2.22597
-6.17801 110.297 -12.9614
-5.86542 111.474 -12.8136
6.02728 147.42 -6.78776
19.9408 85.7105 8.50174
20.1387 83.3546 8.87257
19.513 111.948 6.1407
8.20749 151.741 -5.41515
19.4328 111.715 6.16909
17.8686 116.376 4.63836
-6.61861 116.334 -13.6241
17.6932 115.852 4.57066
20.1364 102.006 7.62468
8.42943 152.334 -5.03524
20.4484 95.0905 8.47455
-1.90492 131.011 -11.027
-8.67183 90.5003 -12.842
18.458 115.141 5.67205
19.456 108.71 6.9361
-2.59582 129.009 -11.0719
-8.23569 87.9451 -12.011
19.0946 123.442 5.60753
-7.42139 81.8681 -10.8534
18.4762 146.293 3.39365
-7.5628 86.7183 -11.3006
20.255 102.444 8.21362
-4.15687 121.873 -11.4847
-9.25095 95.6252 -13.2025
17.8079 137.935 3.72097
-8.01723 82.1062 -11.118
18.9898 123.351 5.76491
-7.2958 114.943 -13.1699
2.10764 140.708 -8.18867
9.92607 152.483 -3.25435
-8.38127 103.431 -13.0182
17.2533 139.189 3.28133
-6.0675 119.137 -12.5107
18.1719 116.55 5.78322
6.7756 151.283 -5.47025
-5.05032 79.9474 -8.63873
-1.12535 134.378 -10.0216
-8.07501 82.0052 -11.0481
-2.71576 129.286 -10.784
17.4802 137.97 3.60273
-9.62508 93.543 -13.096
17.9234 140.057 3.78688
5.41363 149.109 -6.19365
19.9222 89.4595 9.35745
-9.06083 98.4689 -12.9785
-5.25699 120.398 -11.8729
16.6199 135.46 3.28689
15.2956 149.972 1.18155
19.2612 107.494 7.50783
17.5123 147.425 3.07218
2.46511 141.922 -7.69741
18.5693 142.2 4.33283
-7.70009 115.872 -13.1462
19.4594 112.813 7.38312
2.54466 142.191 -7.54896
-5.99603 81.487 -9.10843
20.1661 98.2199 9.09422
18.3845 117.405 6.31127
-9.46181 91.0848 -12.2786
16.7136 137.389 3.63806
17.7277 141.631 4.07963
19.1086 124.164 6.52242
-4.16535 123.531 -10.7743
-4.25079 123.302 -10.8135
19.5797 114.558 7.6678
-2.04037 133.92 -9.98989
20.1036 103.252 8.98723
-7.55279 109.24 -12.1086
-8.44667 87.5135 -11.0324
19.3742 87.51 9.73055
-2.70549 132.22 -10.2761
7.14926 152.478 -4.5133
-8.06864 83.146 -10.3602
18.3341 116.096 6.77491
17.3675 143.668 3.88844
-7.7823 84.348 -10.1689
16.8374 143.06 3.60857
19.1983 119.587 7.24453
17.0642 143.497 3.77562
0.719271 138.37 -8.0013
16.1203 137.749 3.55003
-7.86492 84.2402 -10.0729
19.9218 99.2327 9.5165
19.2391 112.588 8.01361
-6.23518 120.575 -11.6048
-8.2918 107.978 -12.1401
-7.28096 81.178 -9.25034
-9.78711 101.942 -12.7556
15.9017 140.611 3.38338
19.4805 125.197 7.27469
13.4622 151.39 0.729922
-10.0701 100.257 -12.7627
19.355 119.612 7.66416
-7.64437 110.778 -11.6519
16.4699 143.712 3.7471
19.4159 114.873 8.24314
18.8652 121.639 7.29692
-7.67785 111.22 -11.6417
14.9438 149.23 2.22853
-7.68757 86.6995 -9.69213
-10.1268 99.3337 -12.511
19.3768 105.143 9.06775
19.177 112.578 8.35826
-8.33247 81.0575 -9.66754
19.0251 112.168 8.35891
17.9424 131.023 6.08381
16.3413 144.028 3.88365
12.2722 152.316 0.240922
19.8464 101.235 9.94044
-2.50996 134.217 -9.34732
-10.6071 95.1536 -12.2929
-8.3402 83.4856 -9.60522
18.2199 126.974 6.77351
-4.74611 127.586 -10.3969
18.5802 85.9833 10.3069
7.76473 153.121 -3.07698
2.01207 142.997 -6.51006
18.674 86.5933 10.3992
-10.9405 94.3061 -12.2996
19.788 98.3453 10.308
15.3587 143.489 3.44145
19.3958 94.2486 10.3597
1.05309 140.812 -7.01321
-9.56299 88.7776 -10.7624
13.3707 150.966 1.43624
18.6277 108.646 8.72092
-8.7317 107.995 -11.6134
-7.82839 85.7784 -9.171
16.5942 135.691 5.11527
-2.25355 135.041 -8.88322
1.70002 142.567 -6.5189
14.9558 148.617 2.90918
4.29819 150.997 -5.2232
15.0543 138.11 3.82235
19.0194 89.0889 10.6808
16.0962 147.951 3.83924
-11.0384 94.504 -12.1606
-3.54244 132.822 -9.60008
18.4471 78.7865 11.0904
19.8114 122.295 8.6852
3.74712 149.732 -5.44931
0.334347 139.287 -7.13737
19.5018 96.3009 10.5955
19.7599 103.313 10.2447
19.5633 118.958 8.88808
18.7103 87.3974 10.7995
19.5601 96.741 10.6934
19.1775 105.846 9.69937
3.28245 148.399 -5.51792
-9.21426 117.115 -12.3131
-3.74315 132.789 -9.45691
3.66739 150.239 -5.30416
6.52579 152.855 -3.34502
19.3662 105.085 10.024
17.5844 131.276 6.64203
16.1034 145.572 4.44509
18.751 111.895 9.11874
-1.08685 137.422 -7.59733
19.1592 93.233 11.036
19.0054 92.2064 11.0325
-7.32374 121.242 -10.8631
19.3629 105.065 10.3418
14.1428 142.797 3.52517
15.603 147.718 4.23115
19.4266 117.843 9.46813
-11.0007 90.2102 -11.0127
7.95912 153.592 -1.8724
-9.36743 118.826 -12.0327
-11.0539 101.925 -11.9483
-9.34524 113.305 -11.5492
0.20963 140.57 -6.52605
-4.4517 130.5 -9.20396
10.3935 153.401 0.0614615
19.2774 102.934 10.6966
13.9024 142.647 3.55771
-8.25096 85.6622 -8.44625
-10.8538 90.2214 -10.738
-7.16935 121.756 -10.4822
-5.72776 127.954 -9.85098
-8.92411 110.28 -10.8191
19.0944 99.5758 10.938
19.4107 120.149 9.55147
-8.42133 84.8314 -8.39826
16.4078 134.889 6.17277
19.0813 97.0681 11.2591
18.1347 81.3606 11.8008
7.9289 153.847 -1.52345
18.4819 88.4805 11.5782
-11.7547 95.4504 -11.5205
18.0729 81.2492 11.8603
-7.5003 121.75 -10.4209
-9.94481 116.619 -11.7723
-9.28069 111.172 -10.8153
19.0824 103.517 10.9942
18.5381 112.164 9.92566
-6.34076 124.266 -9.58082
19.6347 117.345 10.3593
-9.63551 119.363 -11.6343
18.8827 106.422 10.7084
4.86439 152.894 -3.39828
13.7288 148.989 3.57897
18.8704 106.268 10.8183
9.3872 154.094 -0.0322159
7.09723 153.858 -1.68082
14.5937 137.207 5.24722
-8.62749 84.7446 -7.897
17.5714 80.0637 12.0218
18.5164 91.7306 11.8254
9.51495 154.106 0.183175
17.5214 127.486 8.27551
1.77574 147.92 -5.06143
-9.67716 89.2787 -8.92802
14.2014 146.952 4.3526
17.8688 87.2882 11.8545
-1.01425 139.396 -6.3093
-9.01572 87.4506 -8.1395
16.3157 134.079 7.09347
-5.64147 131.183 -9.01449
-6.7732 125.372 -9.38523
1.13455 145.755 -5.08291
-8.77424 85.4394 -7.69301
-7.15399 127.511 -9.80749
15.5408 135.67 6.5616
-10.3928 118.37 -11.3983
13.9646 147.905 4.44724
-3.49301 135.34 -7.57642
0.393635 143.751 -5.32485
1.0954 146.218 -4.9841
14.3166 139.664 5.40256
12.6866 145.172 3.75688
18.2732 122.162 9.76348
17.4346 84.3944 12.1304
6.73244 154.161 -1.33313
-9.83203 108.167 -10.0467
19.2248 114.472 11.1578
12.6379 149.667 3.47867
18.4337 102.101 11.5909
-1.61377 138.881 -6.26817
0.903395 145.975 -4.95041
18.3052 123.413 9.834
13.4182 147.373 4.2923
8.21817 154.432 -0.141452
18.1725 122.614 9.8103
-1.68289 139.314 -6.24987
8.33564 154.486 0.0440793
13.744 140.328 5.24801
-12.8148 98.6968 -11.2521
13.8586 138.461 5.55417
-9.09841 86.1293 -7.41725
8.81452 154.599 0.540157
-4.87995 133.622 -7.93784
1.27872 150.101 -4.63152
-3.96347 137.778 -7.56064
-4.0804 135.448 -7.4561
-10.4303 90.2284 -8.60594
19.1207 114.566 11.5171
0.108947 144.564 -5.01866
-4.47159 135.076 -7.6661
-2.13125 140.448 -6.3374
18.5888 117.404 10.9773
18.6668 116.972 11.1069
-0.730129 142.365 -5.36869
17.7369 126.189 9.69705
14.6278 136.128 6.59795
14.3431 136.452 6.36411
-0.244596 143.981 -5.11388
17.8725 96.7356 12.1635
17.882 95.1543 12.3088
12.1202 149.747 3.68708
17.9185 92.1309 12.6121
17.1171 82.2075 12.8714
12.6243 147.897 4.32017
11.7156 144.76 3.90614
-10.7533 105.584 -9.74125
-10.0215 81.2556 -7.22291
17.5975 88.8468 12.8134
17.2131 128.34 9.4037
-7.56357 132.179 -9.38276
17.9326 109.67 11.4465
-11.083 119.043 -10.9217
-13.2482 91.9668 -10.3915
-11.3788 104.108 -9.94354
17.8513 125.717 10.1675
-5.56885 135.52 -8.05132
16.9358 83.347 12.9091
-9.37793 85.6472 -6.89762
-10.695 109.274 -9.70184
-0.945128 143.369 -5.09606
14.7657 135.575 7.24799
-13.4775 96.9119 -10.7369
17.6743 98.6476 12.3715
-2.60056 141.933 -6.18317
9.1519 154.812 1.58092
11.1763 143.312 4.0257
-8.24864 124.657 -8.98428
-5.66445 137.373 -8.04231
17.7208 109.092 11.6518
-4.09275 140.781 -6.9466
15.3734 132.987 8.21055
18.0776 103.092 12.6287
17.99 124.858 10.8405
-10.281 89.5952 -7.42694
9.67503 153.679 2.4195
-11.2837 114.8 -10.1363
-11.161 106.308 -9.36694
10.7122 151.301 3.3885
-9.46952 84.334 -6.3604
17.8467 116.621 11.5217
-3.49556 141.894 -6.38362
16.851 86.3305 13.1985
17.1195 96.8229 12.574
-7.91912 129.614 -8.68744
-6.58105 137.755 -8.29891
-10.064 82.3296 -6.48
17.0769 128.577 10.1067
-8.18867 127.673 -8.67018
16.9526 129.886 9.98061
16.7894 130.072 9.85535
17.2313 127.748 10.3808
17.6469 116.403 11.6707
-8.28684 128.078 -8.57659
-13.4337 100.185 -10.1962
17.2262 119.213 11.1875
7.92155 155.048 1.43642
-8.64898 135.091 -9.3301
16.8838 87.4589 13.5525
-12.6974 101.918 -9.62756
16.9356 92.5309 13.2365
-12.5739 102.612 -9.53912
-7.93854 137.177 -8.78956
-10.2331 79.5366 -5.92885
-8.3102 128.794 -8.39214
17.1086 119.259 11.3377
13.8802 132.177 7.926
-8.39518 129.237 -8.39466
-10.8734 90.3 -7.1341
10.1932 143.955 4.35862
10.5848 148.55 4.2949
10.758 149.198 4.39278
-12.5994 102.996 -9.34443
9.39899 153.783 3.05018
-10.6051 80.495 -6.06709
-11.9551 113.73 -9.70154
10.1363 146.065 4.23587
9.70959 152.83 3.38457
13.074 136.841 7.21594
-13.5284 92.6569 -9.04256
-10.0304 83.1389 -5.66174
10.5911 140.415 5.21535
17.3924 115.145 12.3153
-4.79696 141.125 -6.29176
-9.52275 135.302 -9.3436
-9.68028 135.032 -9.41804
-12.8604 102.448 -9.18946
-10.006 83.3117 -5.53516
17.5767 105.184 13.3166
0.546979 153.106 -3.16382
10.1538 141.68 4.91173
-10.1436 82.9486 -5.44346
16.9187 127.56 11.2216
16.933 127.364 11.2552
-12.8409 102.833 -9.01207
14.6086 130.164 9.30822
17.3483 114.415 12.6639
-12.8868 119.75 -10.3136
16.7759 121.955 11.6627
12.7992 136.697 7.53735
16.7832 122.412 11.6415
9.81587 150.39 4.2453
-9.79029 124.954 -8.36424
-10.731 80.4172 -5.53652
-7.27548 138.935 -7.59211
16.2632 86.5503 14.1284
-15.1488 96.1591 -10.0459
-7.05744 139.11 -7.38884
11.9132 135.018 7.1343
-9.58571 125.924 -8.16791
-12.2789 105.094 -8.50469
14.7664 129.639 9.74075
11.5651 135.412 6.91188
-10.33 87.2344 -5.60165
13.0685 131.248 8.40454
15.8079 94.8798 13.4284
10.4707 138.024 6.10308
13.7113 129.546 9.202
-10.4447 124.487 -8.4164
9.17801 145.128 4.5884
-12.4579 105.354 -8.4012
15.9478 90.7174 13.9677
-10.2043 125.1 -8.22456
16.6953 100.758 13.7805
16.1044 98.6567 13.5415
-5.30925 141.38 -5.81002
-10.3849 133.296 -8.95412
8.88032 154.271 3.76127
13.6748 129.339 9.3554
15.9583 97.3518 13.5973
0.00408248 153.599 -2.73475
8.95665 150.208 4.2518
-14.699 99.1299 -9.34067
-11.2835 123.378 -8.69079
-13.4766 113.171 -9.47789
9.27312 143.061 5.17431
-12.8543 109.708 -8.67141
16.9349 108.198 13.6842
12.3705 131.99 8.40114
-9.69515 128.823 -7.8075
-10.8977 87.2678 -5.39837
15.0104 80.7885 14.4452
-10.9232 87.273 -5.39295
16.8282 106.796 13.7933
-12.1105 82.9037 -5.88968
-1.00989 152.815 -3.12533
-14.735 99.2176 -9.00677
8.4571 150.639 4.24698
16.237 120.143 12.4803
16.6932 105.607 14.0337
-10.1847 127.525 -7.74522
-13.6094 111.462 -9.01498
-1.54674 152.543 -3.22984
15.2993 85.4798 14.672
16.1029 119.193 12.6384
-12.6746 83.5871 -5.99645
-13.1882 109.46 -8.40404
-1.42042 152.821 -3.05624
-10.623 83.0177 -4.35139
-14.2985 93.0365 -7.87038
16.3312 124.354 12.5568
-11.3937 131.231 -8.62924
12.5266 129.304 9.39824
-2.95566 147.666 -3.59999
-14.6625 99.6595 -8.51447
-10.7796 126.686 -7.74532
-10.3807 129.174 -7.64116
-2.68509 149.358 -3.4238
8.38243 145.186 5.16548
8.04614 152.993 4.31405
7.87336 149.249 4.52462
12.5143 129.042 9.62283
-4.696 144.676 -4.44973
-13.4762 103.246 -7.70069
-14.4702 115.839 -9.43597
-13.648 109.897 -8.32853
-13.5355 89.2654 -6.60713
-11.8574 89.4175 -5.35828
-14.3008 117.163 -9.37315
7.90541 148.507 4.73278
14.9443 96.6856 14.1487
10.65 134.579 7.95397
9.30214 140.127 6.51295
-11.4508 135.453 -8.56095
-1.80278 153.175 -2.76604
-13.7336 88.8282 -6.56048
-14.6769 113.739 -9.22968
14.3063 81.4245 14.9601
14.9548 86.7054 15.0639
-13.7628 88.7527 -6.48069
13.8577 79.4456 14.8645
-4.02986 146.884 -3.72863
-5.33767 144.204 -4.48242
-14.8258 115.86 -9.28998
15.8379 123.666 12.9793
16.3017 106.971 14.6976
15.3735 101.308 14.4866
15.2128 125.787 12.4369
11.511 129.65 9.37912
-9.37005 138.704 -6.91599
12.3547 128.54 10.1697
-11.2137 130.095 -7.53022
-14.9498 112.854 -8.9443
15.9179 106.169 14.6636
10.0957 135.083 8.04907
-14.6331 93.1443 -7.0757
-12.7345 131.194 -8.66864
14.5977 90.319 14.965
-6.82151 142.746 -5.11945
12.0283 128.67 10.0894
-15.3321 93.8901 -7.54388
-14.198 122.081 -8.92915
-14.5766 110.36 -8.26407
8.44353 142.819 6.3667
15.3886 105.219 14.546
7.353 148.14 5.15309
9.68436 135.789 7.88342
-13.4299 84.6988 -5.29466
15.4609 121.06 13.4163
13.3755 79.3609 15.1713
-7.3514 143.951 -5.40362
14.2976 91.5175 14.925
-3.0259 152.83 -2.84775
15.0504 117.34 13.5196
14.4216 97.0813 14.6718
15.5596 106.391 14.7869
-14.1455 123.281 -8.69632
-14.1606 123.213 -8.6986
-14.6008 117.739 -8.58117
15.3065 122.992 13.3179
7.53528 145.579 5.75945
-14.2312 84.1611 -5.51971
-12.5916 84.319 -4.27889
14.3399 86.8618 15.6235
-12.3462 126.562 -7.41959
-14.6112 101.612 -7.11225
15.8622 110.665 14.9208
-14.5014 108.111 -7.51258
-12.0168 134.474 -7.69459
-15.2108 110.202 -8.12785
-12.6521 86.1566 -4.24446
-14.6524 119.656 -8.38518
-14.8094 108.766 -7.61629
-8.09809 143.973 -5.37586
6.6216 151.001 5.08414
-14.6149 122.146 -8.41781
-12.6512 84.8024 -3.97734
-13.3424 131.444 -8.18529
13.4219 82.8282 15.6548
-14.9275 106.291 -7.32819
-10.3681 138.335 -6.45889
-13.3334 88.4725 -4.72107
-14.8474 82.5613 -5.36164
14.8136 123.218 13.5783
-8.36243 146.635 -5.47684
-13.37 131.743 -8.00876
13.0922 81.1634 15.7708
-15.4835 115.85 -8.27825
14.7039 113.158 14.4677
-5.03395 150.762 -3.16292
-8.83195 144.345 -5.45114
7.74008 142.987 7.02454
13.8549 124.732 13.0691
14.691 107.731 15.041
13.4614 92.29 15.4218
-13.7518 129.944 -7.85239
-13.7078 126.033 -7.46873
-15.1427 85.1296 -5.29175
-16.169 110.535 -8.04904
-13.9901 82.1799 -4.1024
13.8471 103.304 15.0346
13.2352 95.1842 15.2456
13.6133 88.8482 16.04
-6.90735 148.958 -4.02712
-6.8285 149.117 -3.97336
9.61652 131.753 9.73311
-14.6866 125.57 -7.85342
-14.8661 88.8807 -5.0768
11.5084 126.772 11.6379
5.37798 149.976 5.38859
-12.6032 136.944 -6.94761
12.7601 83.0818 16.2775
-13.351 127.639 -6.72908
-16.6836 109.914 -7.79484
-9.52902 142.895 -5.03537
-15.1197 125.077 -7.74006
-9.8929 144.064 -5.34248
-15.0653 124.189 -7.61843
13.579 106.441 15.1924
-10.5616 140.663 -5.5133
10.1256 127.245 10.9941
-14.5657 87.7027 -4.26828
-14.9714 87.3704 -4.5435
13.7061 115.284 14.6571
5.45409 146.231 6.05784
-14.0304 130.289 -7.20963
-13.691 131.887 -7.02392
13.5523 107.068 15.2854
7.98729 137.023 8.77171
14.4026 110.895 15.6565
-16.6935 113.578 -7.75045
13.1831 101.414 15.5089
-13.5776 132.518 -6.90447
-16.2381 106.376 -6.81676
4.77752 148.463 5.54722
-15.7778 86.6621 -4.86557
13.3071 105.993 15.3082
7.3971 138.065 8.3864
-13.0372 136.875 -6.73898
12.4692 83.4009 16.5956
6.82432 140.189 7.94103
-16.3294 115.168 -7.32183
-15.1384 126.537 -7.32132
12.4564 95.0222 15.7677
-15.5149 89.5601 -4.66254
-15.7543 87.9925 -4.71077
-15.6268 86.6937 -4.50953
-10.5489 144.337 -5.28201
9.54807 126.809 11.1093
-16.2098 85.4836 -4.82501
-17.2555 112.31 -7.70357
-17.1107 98.2883 -6.47747
12.9381 100.829 15.7426
13.1692 122.871 14.1781
6.70869 141.161 7.9244
-15.9748 91.4296 -5.05724
-13.7735 131.002 -6.53166
12.6743 90.5765 16.403
-15.1035 81.1862 -3.54517
13.8377 109.201 15.8272
3.28657 146.344 5.05408
-16.1495 101.83 -5.9118
13.0509 105.004 15.6303
-15.9687 86.3499 -4.54023
3.62489 147.418 5.27348
-14.745 127.555 -6.84876
-16.1562 102.622 -5.91494
3.52942 147.827 5.19323
-15.9105 118.673 -6.99742
6.58706 140.099 8.14843
-16.5251 84.1776 -4.63081
11.291 80.0499 16.4964
-15.8168 122.748 -7.10008
11.0739 125.109 12.8468
-13.3746 137.666 -6.38749
-16.4081 101.836 -5.79418
12.4354 99.1929 15.953
5.26536 143.155 7.13199
-14.6111 128.309 -6.48677
12.6618 88.1895 17.0654
-16.1335 122.23 -7.11139
8.99813 126.065 11.3775
-15.4693 81.1096 -3.31355
13.7447 110.838 16.1533
-12.9248 134.502 -5.60826
11.852 123.956 13.726
12.6332 106.172 15.7205
-15.8032 81.2674 -3.50472
11.9814 94.9039 16.1842
-17.2979 105.995 -6.50939
10.2057 125.361 12.4763
-5.95895 153.267 -1.75489
-16.1101 88.8713 -4.21354
11.8944 123.581 13.9543
-11.225 143.178 -4.84257
-16.7676 116.88 -6.86893
12.1435 85.0572 17.2459
-14.3629 130.202 -6.10139
-12.5693 140.292 -5.51748
12.1923 122.858 14.3574
-14.8881 128.728 -6.29761
-17.444 109.038 -6.62121
11.2541 80.9286 17.0359
-16.3985 124.952 -6.96963
3.87558 145.247 6.56654
12.2696 106.216 15.9401
3.79849 145.198 6.57144
7.48428 132.769 10.3241
11.769 122.794 14.3151
-17.2964 83.9019 -4.28346
-16.57 91.8321 -4.31952
11.8717 102.054 16.1137
11.7768 101.424 16.1029
-16.8942 92.9823 -4.59787
-18.5285 97.1326 -6.1366
7.69471 130.86 10.762
-13.2452 134.042 -5.0884
-17.5683 106.014 -6.07819
12.6595 114.473 15.8221
-16.1054 80.6242 -2.95227
-17.3908 120.73 -7.07149
11.5796 94.183 16.6471
12.5938 113.434 15.8853
11.2877 122.893 14.1633
12.6398 114.378 15.85
11.6436 98.9917 16.3474
9.65748 79.0447 16.4812
-13.8567 139.467 -5.83444
11.2522 122.705 14.2454
11.5601 98.7535 16.4034
8.06587 126.13 11.6362
12.5657 114.699 15.9036
-2.33655 143.185 2.53431
-17.6422 120.835 -7.113
7.45312 131.226 10.7871
-16.4637 90.0268 -3.75338
11.947 86.6111 17.7535
-16.6746 125.344 -6.66664
12.8762 109.478 16.6579
11.4245 98.4096 16.5112
-17.8326 107.953 -6.04426
7.7837 127.151 11.5796
-14.9429 128.684 -5.48528
11.4132 101.759 16.3394
-16.724 89.4243 -3.67397
5.2024 140.453 8.64663
-18.1814 119.733 -7.15119
-17.4439 122.024 -6.75576
-17.3249 123.393 -6.76706
0.520894 144.68 4.96284
-17.929 108.367 -5.88749
2.15451 145.061 6.19193
-17.9131 116.313 -6.45948
7.50089 127.976 11.585
-15.3702 128.572 -5.52086
7.16136 130.457 11.1517
-17.3779 123.412 -6.56302
-15.9816 129.446 -5.99186
-8.68837 151.148 -2.26635
10.5698 81.6156 17.6417
12.1912 118.029 15.9715
-16.4342 126.607 -6.03702
11.1002 99.1013 16.6865
-14.4387 139.478 -5.49263
10.7772 83.2631 17.8178
1.59016 144.652 6.14191
6.28278 134.616 10.4414
8.70634 123.919 13.1046
11.4217 105.272 16.6249
2.78804 142.598 7.23334
9.1337 123.316 13.5065
-16.5795 84.476 -2.59765
10.5106 82.2368 17.7972
11.1396 92.903 17.4829
-17.8673 99.8962 -4.6997
-12.6913 145.099 -4.39403
10.845 101.377 16.7424
5.89794 135.053 10.4227
11.1006 85.5366 18.2334
-14.5594 139.158 -5.14302
2.88217 141.901 7.66339
6.09219 134.246 10.6714
-18.6863 98.4833 -4.92072
10.4242 83.1163 18.0191
6.94614 127.726 11.8918
-6.77404 154.145 -0.395523
-17.4799 87.3539 -3.09031
-16.4316 128.922 -5.57602
10.8681 103.474 16.8236
-7.43377 153.632 -0.789813
1.18829 143.385 6.46856
11.7702 116.308 16.513
-18.0576 100.058 -4.41882
-16.1484 128.193 -5.18827
-17.3271 125.277 -5.81168
-19.1442 97.8957 -4.98404
11.056 86.517 18.4513
9.76164 80.9706 17.9485
10.4852 100.465 17.0269
-14.5911 138.448 -4.68709
-18.5781 102.037 -4.77392
-18.9495 110.314 -5.69449
-14.2693 135.022 -4.14724
11.463 118.058 16.4016
11.4136 118.276 16.3945
0.990929 142.224 6.7466
10.8706 86.2202 18.5557
4.63591 137.481 9.91017
-18.7253 119.92 -6.08718
10.993 89.516 18.5057
7.90734 122.467 13.6038
8.21784 122.137 13.8752
1.38792 140.889 7.2949
-17.4612 124.4 -5.45142
-19.9609 95.8321 -5.04201
-17.7102 120.939 -5.34803
6.68625 123.791 12.6319
-17.0594 126.436 -5.28874
-4.0719 142.554 3.12844
8.17711 122.087 13.8895
6.53097 123.953 12.523
-17.2489 79.9481 -1.73156
-6.04598 142.735 1.6715
-0.0531473 143.711 6.08584
-13.016 145.824 -3.73094
11.2073 118.038 16.5585
8.81326 121.342 14.5588
10.1758 98.7488 17.389
10.7244 91.8998 18.3498
-16.784 84.6452 -1.59688
-17.6002 122.5 -5.18953
-18.9092 115.287 -5.59399
8.55765 121.34 14.4796
11.3483 110.548 17.43
5.9958 126.154 12.2034
0.59712 141.275 6.99898
-12.299 148.68 -3.19704
3.5639 138.913 9.45105
-14.6189 137.002 -3.95917
-19.1869 113.473 -5.48215
-12.8534 146.722 -3.35387
-2.03786 143.103 5.0025
-17.6018 121.927 -4.88809
-16.3467 85.4577 -1.04726
-17.2961 121.387 -4.59353
-0.000785522 143.313 6.58693
0.640599 140.078 7.32848
2.1481 139.47 8.50858
-16.7132 125.74 -4.44959
-16.6761 126.194 -4.45725
-18.9062 106.487 -4.55517
0.929987 139.047 7.66483
1.53144 139.185 8.10518
-18.9324 107.355 -4.62987
-19.1668 115.422 -5.43652
3.53516 138.052 9.74026
-14.81 142.976 -4.32526
-17.5475 125.766 -4.99376
11.1768 110.136 17.6827
-9.14967 153.191 -0.842077
-4.24293 142.324 3.68554
9.89879 85.1539 18.8278
-5.17801 142.015 3.12033
-15.2529 142.141 -4.37366
-19.5571 116.098 -5.51264
-16.771 125.291 -4.15721
10.9529 110.49 17.7216
-19.2581 91.4657 -3.27542
-16.5869 125.379 -3.96844
-17.5916 123.949 -4.59896
-18.0197 82.8838 -1.65847
-0.434344 143.061 6.70771
-9.9187 152.651 -1.12651
-6.14398 141.784 2.55895
5.2275 123.713 12.5038
-11.5206 151.26 -2.1524
4.70843 132.878 11.4319
-0.33892 142.003 6.95205
-13.0993 148.362 -2.93461
-13.1296 148.158 -2.93775
-19.5668 102.789 -4.13946
-17.5353 127.653 -4.57944
-18.9758 100.235 -3.46026
9.6985 99.1125 18.0375
-12.9704 149.7 -2.85412
10.0582 87.1632 19.2885
-15.3264 141.435 -3.92885
10.4012 117.055 17.2197
0.753272 137.342 8.42427
5.00892 127.857 12.3831
-19.7742 105.017 -4.27227
1.01741 137.26 8.70467
9.61807 99.0689 18.165
-11.6647 151.374 -1.83951
-15.5895 140.743 -3.90374
10.089 117.751 17.0803
4.79559 127.999 12.3574
-19.1295 130.27 -5.60854
-20.2726 98.1067 -3.88536
-14.9258 144.235 -3.54379
-7.66382 143.127 1.97366
-16.3864 79.2289 0.549359
4.63023 125.161 12.6023
-4.80122 141.889 4.25356
-18.7418 130.626 -5.24176
-3.10949 142.277 5.51932
4.31636 130.048 12.0436
9.13854 118.924 16.6602
9.34384 99.8608 18.3423
-16.5356 83.9665 0.303051
-20.4513 97.0931 -3.64787
-13.6604 148.9 -2.67797
-17.2509 129.051 -3.75592
-15.5659 140.547 -3.4029
-2.33052 142.028 6.38194
-19.6451 100.89 -3.27557
-19.8544 101.424 -3.44513
-3.56638 142.095 5.49256
9.87067 116.784 17.5313
9.94191 114.546 17.8096
9.51721 117.351 17.3397
9.45135 96.2763 18.9864
-0.836046 137.661 8.03464
-17.5786 128.57 -3.73394
9.03775 101.307 18.295
0.180379 136.212 8.9255
-16.1532 133.079 -2.96371
-16.8502 132.487 -3.43111
9.55668 90.0747 19.6399
2.61149 133.159 11.0475
-15.7343 135.269 -2.80129
8.95021 104.337 18.0941
7.8091 119.404 16.051
-16.5769 83.5614 0.698468
-15.7086 134.076 -2.61309
7.09851 80.1955 18.6721
-19.0814 88.2488 -1.47461
-18.6005 123.263 -3.8735
4.01333 123.197 13.0086
9.39459 87.5149 19.8633
-20.3869 130.411 -5.74675
-11.8904 151.718 -1.09243
-12.1889 151.427 -1.26069
-15.3133 138.721 -2.57031
-19.6105 117.756 -4.0823
-17.6333 121.13 -2.86097
-15.1341 143.105 -2.72742
-20.5559 126.948 -5.47408
-20.7089 104.408 -3.79741
-20.2751 117.028 -4.46013
-16.7814 122.767 -2.29895
-17.7151 121.497 -2.89439
-20.1491 101.178 -3.05002
-17.6378 134.739 -3.82933
-18.5256 121.935 -3.45171
-16.6856 131.356 -2.81982
-20.9655 129.62 -5.87431
-11.1724 152.182 -0.32027
-15.8011 140.396 -2.8281
-19.7182 134.95 -5.26407
-20.0797 100.728 -2.82009
-20.7139 125.988 -5.27913
9.29679 91.4644 19.8559
-3.85016 141.545 6.10367
-17.4199 119.372 -2.21967
0.834785 134.284 10.2187
9.49766 111.804 18.4676
-9.10054 152.393 1.39076
-16.3108 133.524 -2.46622
-18.1868 127.653 -3.39561
-19.9482 134.491 -5.24297
-20.9719 95.6831 -2.93203
-18.7161 123.269 -3.416
-18.7172 121.624 -3.27878
9.30738 114.931 18.1661
-16.8728 134.902 -2.93907
4.09037 121.946 13.7554
-17.4218 119.616 -2.10718
-16.8981 129.759 -2.49501
8.33234 118.005 17.2718
-17.6588 119.988 -2.27497
-18.1086 128.18 -3.21607
-16.2166 133.996 -2.25686
-19.6298 117.34 -3.48381
-17.1889 86.249 0.810527
-12.746 151.232 -0.968475
8.93448 116.158 17.9893
4.23483 121.707 14.0802
0.34511 133.666 10.2701
4.66039 120.522 14.5402
-17.1797 131.689 -2.61735
4.44141 121.234 14.344
-16.8793 130.683 -2.28303
-17.9829 120.454 -2.28328
0.92573 130.331 11.0496
-19.4881 132.463 -4.33876
-16.1565 121.837 -1.01011
5.93129 119.127 15.6878
8.38045 104.374 18.6881
0.825211 130.651 10.9727
8.75291 88.6397 20.2648
-17.5314 121.013 -1.89345
-8.95031 151.296 2.11184
-20.4389 125.543 -4.40801
-17.6993 118.95 -1.83362
8.56792 99.5813 19.2989
-20.6332 134.279 -5.22734
-17.5104 128.753 -2.44886
-1.96474 135.009 8.65545
-21.2639 106.611 -3.48487
-18.2913 127.904 -2.93857
0.519917 130.65 10.9047
-16.1972 121.766 -0.853935
-21.019 108.861 -3.41856
8.45114 106.512 18.7574
-19.4763 128.694 -3.83224
8.99339 110.556 18.8475
-18.3151 81.9761 0.746449
-18.0211 122.647 -2.22011
8.88285 110.17 18.8765
-15.0076 147.357 -1.88721
-19.5536 117.033 -2.84656
-20.1794 93.3071 -1.43136
-8.96287 145.739 2.7849
-8.89133 144.465 2.95399
-17.0394 138.953 -2.67164
-17.6786 128.854 -2.34604
-8.97795 145.535 2.82976
-19.0356 119.682 -2.60658
-17.2345 84.9181 1.49167
-19.651 118.598 -2.94061
8.09666 105.486 18.8154
-18.2154 122.811 -2.17695
-15.7563 143.78 -1.99993
-21.0113 107.421 -3.0293
-18.8884 119.345 -2.38287
-20.1592 90.9912 -1.07951
-15.2081 146.029 -1.73891
-18.1507 127.733 -2.48219
-22.1505 128.782 -5.51036
0.46316 128.793 11.3725
-19.0488 116.992 -2.20574
-18.2655 124.987 -2.22966
-20.8985 95.849 -1.88075
-17.1099 136.996 -2.31179
-21.2366 132.969 -5.06998
-9.71675 151.09 2.10302
-15.3818 148.225 -1.88296
-3.52844 134.859 8.03239
-4.71113 140.425 6.73855
-21.3101 98.3275 -2.3015
-6.53935 140.546 5.38368
-16.7261 138.961 -2.08427
-18.3565 127.165 -2.35904
-17.8015 86.6444 1.2686
8.36111 97.1532 19.9841
-22.3749 128.546 -5.41711
-18.368 129.201 -2.45841
-20.8845 95.8777 -1.69007
-18.4502 138.886 -3.27269
-17.303 120.996 -0.975003
0.209715 127.818 11.5905
-0.548623 128.774 10.9847
8.033 100.202 19.6667
-19.7308 89.1227 -0.133593
8.22887 88.6378 20.7666
-17.5261 132.673 -1.90659
-16.8516 132.266 -1.35732
-21.1371 108.264 -2.62119
-19.9245 137.487 -4.01635
-18.7506 87.9171 0.805313
-9.4993 143.217 3.33593
-9.55161 144.816 3.19035
-3.50323 134.279 8.54854
-17.22 120.723 -0.607108
-18.9949 129.293 -2.60525
0.576129 125.898 12.2703
-21.5522 130.911 -4.63396
-17.2251 119.108 -0.46535
-1.30403 133.09 10.3168
-18.4067 129.358 -2.14685
8.17766 95.7257 20.3598
-18.7254 117.74 -1.44765
-15.8359 147.657 -1.63545
-14.5658 149.635 -0.809526
-17.9099 127.48 -1.54783
-17.5261 120.641 -0.709964
-7.76325 141.649 4.91339
-5.95444 136.834 6.67404
-21.4134 110.554 -2.76672
-19.4323 88.7646 0.447139
-17.4129 132.284 -1.4807
-2.00961 133.907 9.90581
8.03836 112.385 19.1135
-16.5287 143.017 -1.63475
-15.9367 145.755 -1.40138
7.8211 87.4312 20.9499
6.86464 84.6174 20.4742
-21.8488 103.624 -2.43676
-19.9227 120.13 -2.28977
-20.8474 115.872 -2.63689
-4.17249 139.488 7.94087
-16.7392 143.239 -1.72789
-12.7452 151.045 0.644662
-21.2558 121.397 -3.29146
8.10256 92.8042 20.8776
-20.617 93.6594 -0.611527
-18.2388 86.5738 1.72733
-21.3059 101.707 -1.75002
7.73033 110.188 19.2478
-1.80415 133.117 10.3316
-21.4786 112.57 -2.69956
-19.7529 121.471 -2.0922
-21.0956 136.922 -4.30363
-22.1242 130.336 -4.53864
7.30114 86.5846 20.8897
3.82023 119.363 15.7031
-2.7147 133.671 9.73943
-19.9022 89.395 0.4265
-18.3083 130.612 -1.62058
7.96537 93.0894 20.9559
-9.12122 141.32 4.38829
-21.626 114.322 -2.76653
-6.22248 139.978 6.71222
-2.07835 132.828 10.3713
-22.2037 134.783 -4.78843
-21.6606 114.744 -2.79092
-23.5764 125.87 -5.08073
7.63626 98.3986 20.3866
-21.2624 109.489 -1.97099
-8.3406 137.376 5.49046
5.82214 82.3719 20.4356
-20.6863 94.2815 -0.272648
-17.1662 145.912 -1.72924
-11.4867 151.022 2.14009
-18.7389 124.877 -1.18293
-18.4294 143.873 -2.4376
-19.8954 116.681 -1.37506
-17.4869 120.379 0.138482
-8.35826 137.571 5.59038
-16.6394 79.9415 3.98427
6.04558 83.9789 20.628
-2.07573 127.356 11.1477
-21.2708 109.853 -1.76566
-11.1409 135.188 3.79731
-10.5357 148.643 3.1956
-22.6616 122.573 -3.78167
7.24034 107.047 19.7716
-21.8908 105.421 -1.82691
-19.366 88.4339 1.41082
-3.12443 133.247 9.99168
-18.7936 118.664 -0.528551
5.96234 116.514 18.1219
-18.5922 124.828 -0.843619
7.06962 87.3093 21.2744
-10.7233 134.59 4.32012
-21.243 110.126 -1.57204
-21.6981 121.128 -2.76555
-9.70265 142.797 4.48241
-21.3283 97.3782 -0.582529
-9.23626 141.962 4.93128
-10.9913 138.184 3.93423
-16.519 79.6548 4.45236
-2.75641 131.597 10.6334
7.39948 95.9608 21.0483
-19.2993 123.328 -1.02771
-17.6714 83.5808 3.41144
-11.0823 149.58 3.14334
-19.0385 122.614 -0.631843
-4.52126 133.247 9.36674
-8.84733 140.529 5.56253
-19.5825 119.27 -0.761534
-10.8116 134.831 4.55517
6.40079 86.3457 21.2438
7.13296 98.3565 20.8772
-17.9998 84.0522 3.26637
-17.8766 80.1629 3.70508
-19.8715 121.369 -1.00198
-24.5734 124.621 -4.75792
-16.8575 120.705 1.34629
5.43767 116.2 18.3499
-19.9738 119.484 -0.856007
-19.3707 87.3415 2.19052
-23.2017 129.865 -4.0241
-17.9306 122.869 0.472153
-19.3028 119.449 -0.260488
6.69295 107.271 20.1389
-8.90085 135.286 6.29023
-11.5569 137.372 4.16304
-23.2501 130.676 -4.01544
-8.82342 140.149 6.00655
5.49368 84.8343 21.0759
-17.7547 121.812 0.807763
-24.7423 125.639 -4.70179
5.53303 85.0509 21.1303
-17.2854 83.1866 4.30694
-7.90513 135.016 7.2115
6.47816 109.342 19.9978
-11.927 134.743 4.2563
-21.1354 119.942 -1.42504
-5.5675 133.054 9.16371
-10.252 142.16 4.98474
2.83691 117.816 16.7401
6.44487 105.77 20.4187
6.47868 100.89 20.849
-3.04983 126.186 11.7468
-5.02222 130.947 9.93027
-8.22477 133.194 7.3799
-8.13327 133.046 7.47829
-18.9826 118.791 0.520076
-19.3996 122.573 -0.0759728
-21.1493 94.6208 0.859229
-21.2732 93.4925 0.856673
6.16717 109.59 20.0623
-11.2107 134.003 5.17058
-4.98779 132.556 9.96796
-0.601828 123.019 13.9989
-20.618 90.0214 1.72152
-12.6756 138.306 3.82659
-16.3173 148.832 0.276594
-20.8193 140.989 -2.44401
-11.585 134.167 4.99091
-12.4433 139.77 3.93123
-18.7894 116.192 1.09883
-19.898 143.395 -1.88011
-5.33721 131.62 9.9239
-11.6063 148.347 3.93443
-21.3328 96.9043 0.75399
-18.2288 84.8929 4.02181
-18.0392 84.543 4.19284
-17.6432 83.8176 4.56111
-16.7155 120.226 2.36945
6.55365 89.718 22.1766
-20.4185 115.229 0.0483096
-20.8695 115.143 -0.27347
-12.545 136.637 4.26996
-21.205 140.551 -2.48237
4.25448 82.1121 21.1531
-12.9082 138.301 3.91535
-18.8154 119.721 0.989733
-22.6282 137.173 -3.21219
-5.70562 131.803 9.85602
-7.84961 132.28 8.24709
-19.9802 114.786 0.589227
-18.6744 79.7911 4.3387
-11.2558 133.424 5.62508
-19.3763 110.308 1.39997
-19.5743 114.767 0.920761
-19.823 118.799 0.418056
5.4353 114.093 19.6368
-23.0633 121.302 -2.1893
-23.4177 121.546 -2.46086
-8.01352 132.107 8.2257
-18.6122 116.942 1.52182
-23.2142 135.214 -3.34207
-11.6748 147.619 4.28769
0.768999 121.554 15.7108
-11.8377 147.77 4.23741
-20.0869 114.18 0.810588
-19.7659 144.615 -1.35937
6.29474 90.5667 22.3987
5.89704 102.668 21.1506
5.75075 108.391 20.5887
-14.7197 149.837 2.07138
-21.3689 107.138 0.494553
-18.4451 147.258 -0.491071
-20.394 119.716 0.261836
5.84974 103.754 21.1128
-21.9662 99.0554 0.742383
-13.52 135.195 4.19428
-19.1642 145.9 -0.862912
-23.2427 135.941 -3.11279
-12.681 133.543 4.99118
3.35588 80.5554 21.1682
-20.6747 112.262 0.773855
3.27223 80.4639 21.1679
-8.69645 131.282 8.23714
-23.2622 136.099 -2.9822
-12.2571 147.282 4.34346
5.28731 111.71 20.2748
-23.7411 133.231 -3.08157
-19.7285 87.2206 3.5595
-22.1687 104.787 0.362453
-25.5031 122.985 -3.5447
-7.55705 130.618 9.27734
-4.79579 126.861 11.6466
-11.8459 145.315 4.93366
-4.61547 126.567 11.8357
-18.0022 120.504 2.37855
-13.2123 143.905 4.13947
-25.975 126.894 -4.02432
-17.9855 84.9782 5.26889
-21.6496 95.3388 1.74059
3.8597 83.5334 21.7136
-14.0716 134.925 4.32816
-18.994 110.964 2.55795
5.77378 90.9928 22.6291
5.51546 96.3904 22.0167
-17.0951 121.734 3.15084
-20.6421 89.0526 3.10121
-2.65354 123.975 13.7798
-18.0208 147.523 0.468173
5.63511 93.5147 22.4127
-21.8733 97.387 1.5958
-19.6142 119.767 1.54778
-19.4305 86.9636 4.29358
5.2964 101.874 21.6002
4.97639 88.0133 22.4728
-20.6311 89.0487 3.32478
-13.5156 143.893 4.30261
-13.2063 131.466 5.53282
-14.0015 137.127 4.53604
-17.5421 147.849 1.05627
5.18098 94.495 22.2822
-25.0761 129.964 -3.0748
4.22171 85.8728 22.2818
-17.3889 121.593 3.34564
-18.0577 121.153 2.90698
-17.968 121.182 2.99917
-18.8604 146.96 0.297831
-11.6288 132.24 6.87708
1.82071 116.491 18.1598
-21.9956 97.3478 1.91446
-22.9125 101.048 0.964412
-22.4012 138.626 -1.62685
-20.6725 89.1702 3.61397
-18.481 120.947 2.73174
-17.5495 115.444 3.87002
-19.5565 112.603 2.64083
4.63054 92.1151 22.3112
-19.0761 111.966 3.07803
4.82876 92.4314 22.462
3.36312 89.9837 21.5671
-21.9202 95.1619 2.32048
-18.6121 147.119 0.707654
-11.1313 132.191 7.48538
4.33881 92.2975 22.259
-17.3667 83.9037 6.73605
-0.198978 120.22 16.6982
-5.39291 126.088 12.3753
-19.4471 113.497 2.90284
-20.0106 108.996 2.84043
-17.3384 121.406 3.86258
2.04765 115.155 18.828
-23.705 135.43 -1.96652
-26.2343 128.566 -3.3034
4.19554 89.2309 22.5184
-26.8879 122.047 -3.26959
-18.7445 79.9198 6.15559
-17.9254 121.185 3.53301
-0.440429 120.248 16.6634
-16.3132 148.667 2.58574
-17.7278 82.8659 6.75387
-15.0193 133.084 4.81609
4.40493 95.9629 22.2793
2.55433 80.7545 22.1071
-18.4777 114.114 3.78642
-18.662 113.974 3.69709
-25.4837 131.06 -2.73889
3.81658 92.6331 22.168
-17.6977 127.022 3.40447
0.245898 119.025 17.4405
3.7953 111.763 20.6855
4.13376 94.3359 22.337
-22.836 100.932 1.71391
-14.8428 140.264 4.57018
4.15694 102.71 21.7269
-15.5109 128.441 5.01868
-25.0054 119.292 -1.31393
4.0687 99.2019 21.9743
-12.2843 131.441 7.22379
-20.698 119.437 1.90938
-21.6072 107.02 2.28144
4.06903 103.379 21.7257
-17.6719 128.061 3.56406
-18.8134 80.3554 6.52596
-14.5449 136.712 5.25637
-22.4691 99.9323 2.28015
-27.158 121.486 -2.92317
-19.51 109.945 3.69862
-18.6104 120.649 3.52263
2.93762 113.446 20.1801
3.46732 93.1552 22.1851
-15.8523 148.729 3.38047
-17.6443 122.71 4.13194
-15.8107 133.264 4.66832
1.55612 86.4979 21.3403
-24.443 133.88 -1.80763
-22.1292 96.1967 2.90471
3.70814 95.9966 22.2224
-15.9539 148.626 3.3961
-11.7804 130.787 8.02912
-14.5551 128.053 6.18856
-17.7718 126.137 3.95851
2.96922 87.2722 22.5134
-22.2436 97.762 2.87541
3.26123 111.658 20.8225
3.00413 93.186 22.0981
2.54536 86.3112 22.3414
-6.74822 127.468 12.1679
3.42343 97.5388 22.1323
3.30721 96.4095 22.1493
-22.1883 96.2985 3.15665
-22.905 101.001 2.25134
3.51969 100.114 22.0469
-19.0635 120.344 3.59767
2.18028 84.4183 22.3021
-3.81133 124.073 14.7203
0.844652 116.039 18.8317
-15.1294 139.334 5.07033
2.24624 113.652 20.0781
-18.374 147.115 2.04835
0.66329 85.2683 21.1612
3.04346 84.2987 23.0246
-16.2953 148.232 3.54324
-18.2899 122.619 4.08795
-22.7395 104.896 2.17359
-5.23577 125.394 13.614
1.25325 88.998 21.366
3.04096 94.3419 22.2777
-3.10819 123.341 15.4058
0.308033 83.8575 21.0865
-15.237 139.648 5.07239
-17.2984 130.044 4.29618
0.420933 87.1221 20.9182
-23.0539 102.864 2.16351
-25.8025 119.682 -1.17572
-27.5264 121.836 -2.63142
-14.7193 143.034 5.27109
-15.0828 138.542 5.36477
-18.5306 123.116 4.04021
-18.0733 119.948 4.63758
3.28022 105.754 21.7116
-10.068 131.477 9.73873
-26.2643 131.335 -2.30667
-18.3934 125.786 4.01014
2.83747 97.7751 22.072
-17.9206 78.8845 8.08257
0.167379 84.6811 21.12
-0.599206 118.293 17.8869
-18.7481 80.0175 7.38236
-22.6618 100.22 2.87546
0.760397 89.5037 21.2285
2.81456 99.3783 21.9918
-16.9729 126.314 5.09897
0.66752 89.6411 21.1659
-12.7403 130.096 8.04793
-2.68873 121.076 16.2633
-20.2543 119.772 3.27032
-17.2922 130.953 4.59523
-21.7402 142.467 0.408682
-22.1006 141.005 0.257136
0.0555287 89.7338 20.8551
-2.54468 120.314 16.5251
2.51699 110.309 21.1024
2.84798 103.371 21.9014
-4.38562 124.321 14.8453
0.154068 90.8881 20.9167
-22.5504 118.471 1.8114
-2.60167 120.256 16.5529
-14.8035 127.695 6.86241
-0.112605 88.4187 20.9373
-17.2766 122.702 5.41764
-22.0841 141.27 0.36882
-2.02358 119.507 17.0639
-19.1952 123.053 3.99697
-2.34143 81.3997 19.8944
-27.9686 121.849 -2.42501
-22.8532 104.129 2.80924
-18.6947 116.657 4.92503
-20.7376 89.4069 5.5783
2.40952 103.187 21.7727
-15.7446 136.212 5.64705
-21.4605 91.9484 4.90805
0.902502 93.3924 21.4913
-1.00423 89.1166 20.4141
-1.19983 81.459 20.915
-12.6514 129.409 8.57394
-21.182 107.615 3.94191
2.1161 108.151 21.2837
-28.7291 121.306 -2.75136
-25.4782 133.193 -1.23365
-21.4692 91.9808 5.05683
-16.9047 147.521 4.07207
-1.48064 90.2089 20.1594
-24.241 136.46 -0.484602
1.48312 98.3849 21.7371
-17.564 115.688 6.15648
1.79659 102.808 21.6223
-0.230876 94.0322 20.8156
-18.6643 116.723 5.30536
1.59109 111.383 20.8686
0.863405 95.8135 21.5719
1.72385 103.866 21.5924
-1.80878 108.652 18.5989
-1.16081 116.274 18.4897
-23.0302 118.654 1.99599
-22.9698 118.691 2.04192
1.79642 82.5439 23.392
-1.91982 108.347 18.5851
1.45739 81.738 23.2178
0.490985 113.743 19.9835
0.438495 110.456 20.2093
1.17231 99.6048 21.6297
1.26748 100.916 21.609
-14.3165 129.69 7.70538
-21.3929 91.5104 5.45257
-10.5556 130.142 10.4916
0.920416 97.5947 21.6343
-0.582911 108.144 19.6811
-0.886016 115.005 18.9147
-0.712831 108.196 19.594
-10.2154 130.531 10.7356
-0.50204 96.0839 20.7255
-0.0715879 82.2176 22.1469
1.56807 82.4812 23.352
0.217632 96.7338 21.2205
-3.57012 80.7235 19.6677
-1.19815 95.8572 20.2656
-23.2932 118.677 1.97781
-18.0524 79.1973 9.01688
-1.98444 107.48 18.7749
-15.7637 141.535 5.80232
-29.0235 121.435 -2.48604
-4.92449 123.403 15.3699
0.996702 106.161 21.1882
-6.73814 105.946 15.4355
-3.5167 107.272 17.7508
0.966733 105.43 21.2445
0.779643 111.541 20.6226
-0.0937852 98.2198 21.0266
-22.569 98.6594 4.23892
-1.57892 115.83 18.5394
-7.49389 105.763 14.9319
-2.9992 106.648 18.2488
-8.3101 104.928 14.4307
-0.641651 98.7813 20.655
0.62409 104.669 21.1857
-18.7614 127.734 4.89866
-0.464646 99.4524 20.8087
-17.0185 96.6939 8.70326
-17.2174 96.8469 8.55755
0.226493 102.163 21.1537
0.380974 105.243 21.0362
-24.5248 135.896 0.0492197
-16.5106 96.5752 9.15321
-5.24462 106.087 16.8166
-0.147493 101.599 20.9765
-3.35504 84.8687 19.9095
-21.2868 121.827 3.60508
-0.244935 101.471 20.9163
-18.4529 113.97 6.34241
-22.6418 104.73 3.95893
-1.54647 106.276 19.584
-9.84182 104.585 13.5377
-2.6936 118.135 17.8167
-17.1885 96.086 8.77162
-13.3265 99.3041 11.4043
-9.42743 103.292 13.9982
-10.3846 104.053 13.2279
-2.84044 91.1709 19.8794
-19.3928 124.201 4.91821
-22.7443 103.704 4.04367
-10.32 129.525 11.2852
-19.2978 87.0893 7.95958
-17.3673 96.1277 8.69241
-2.53482 93.9882 19.9393
-4.44856 83.6257 19.3337
-6.67907 82.8729 17.7395
-18.799 100.115 7.36156
-22.6434 98.6202 4.6252
-3.52517 109.927 17.9967
-9.49034 106.487 13.8246
-21.6456 92.8799 5.83528
-26.7278 132.285 -1.06748
-12.2865 101.692 12.1314
-20.1605 94.3733 6.84399
-2.59431 116.449 18.2018
-16.4175 94.5001 9.62892
-7.43675 80.9076 17.411
-18.1749 97.094 8.11778
-20.2616 88.2715 7.26588
-18.99 123.814 5.39958
-22.4174 119.835 3.16115
-4.28751 109.404 17.5242
-18.9097 112.876 6.34452
-17.0621 137.162 5.80711
-11.1202 128.872 10.9061
-4.55486 83.9399 19.3753
-3.33643 89.5724 19.8574
-7.12445 126.081 14.1399
-3.19253 91.6758 19.7999
-3.60362 119.032 17.3271
-22.6514 140.546 1.41402
-19.0808 100.553 7.24856
-18.7364 125.633 5.52252
-6.60663 108.166 15.9619
-19.2946 123.798 5.26608
-22.6595 103.884 4.33383
-19.0857 130.371 4.91709
-4.66275 121.347 16.4086
-17.2956 136.532 5.78534
-1.76789 99.303 20.3322
-19.1457 123.702 5.44132
-3.11292 117.771 17.877
-10.6525 105.483 13.227
-17.6847 84.3154 9.66249
-22.6724 103.62 4.41712
-21.8058 96.3476 5.64596
-3.25273 80.498 20.7528
-22.0457 121.214 3.52261
-2.66876 104.423 19.3128
-4.94458 121.437 16.2952
-2.23975 98.0796 20.1754
-18.6369 96.6012 8.06982
-9.10492 107.389 14.33
-16.2706 93.8357 10.0753
-28.2145 129.22 -1.62409
-28.7775 125.861 -1.77645
-3.12853 116.813 18.0807
-13.9734 128.46 9.07426
-19.3596 97.6092 7.52438
-5.9779 80.1962 18.8888
-18.0118 83.2911 9.68794
-14.4784 97.3104 11.2149
-3.84097 104.149 18.6191
-17.3175 138.804 5.8264
-26.5663 132.745 -0.588519
-28.6072 127.243 -1.67431
-2.09938 100.497 20.2219
-3.27277 103.951 19.08
-19.0151 131.02 5.2236
-4.41293 85.4795 19.727
-12.6786 128.934 10.1205
-15.0552 94.5679 11.0718
-20.3857 122.995 4.85005
-5.05172 84.8866 19.316
-7.2521 84.0048 17.7495
-22.4307 105.098 4.75753
-19.6927 129.157 4.902
-28.588 126.608 -1.53224
-3.72675 92.5138 19.7171
-20.3628 99.0864 6.78659
-1.82015 113.085 19.5152
-19.1132 130.761 5.23561
-0.808802 80.0085 22.9311
-5.14853 85.0764 19.2946
-3.44023 80.291 20.9487
-10.4818 101.415 14.0243
-18.392 94.0867 8.7209
-18.3215 115.351 7.09369
-20.8939 101.784 6.26124
-11.1382 128.607 11.4199
-2.1838 103.582 20.1029
-9.4742 101.061 14.8745
-4.8499 85.396 19.5772
-8.81706 127.23 13.3185
-15.5207 101.976 10.3191
-28.7682 126.928 -1.49637
-5.01014 85.5811 19.5109
-22.6781 121.09 3.52782
-17.9622 137.679 5.73581
-18.4935 82.1458 9.74147
-18.6901 123.63 6.31338
-6.23101 122.339 15.7241
-22.3185 105.65 5.04823
-5.82633 103.023 17.5731
-30.2902 122.576 -2.2204
-13.9127 102.779 11.5712
-3.2533 102.985 19.5079
-3.37952 103.008 19.4145
-22.8609 140.622 1.91011
-21.1756 91.0675 7.09501
-22.0737 107.02 5.16889
-4.2592 91.3571 19.7005
-23.9576 119.516 2.78351
-23.8527 119.61 2.8846
-14.915 93.9692 11.5952
-19.2336 87.1227 8.92647
-22.1774 106.366 5.21993
-20.2082 123.951 5.30332
-17.6638 144.593 5.59423
-7.00499 123.411 15.2254
-9.17788 127.29 13.3197
-25.5132 134.698 0.561821
-6.49936 120.342 15.8875
-5.64126 79.8429 19.745
-14.2556 95.4926 12.0823
-20.0458 91.5847 8.08914
-18.2004 85.8003 9.92733
-9.88806 80.7567 16.5426
-3.17106 101.364 19.9219
-23.2603 120.479 3.43818
-4.52977 92.5726 19.6241
-9.24863 126.896 13.3866
-6.20384 109.782 17.0204
-25.4771 134.868 0.665937
-17.6234 101.724 9.20046
-4.66671 92.6132 19.6093
-2.48108 80.3582 22.2206
-6.61084 101.537 17.4674
-19.681 111.774 6.91554
-5.83316 79.849 19.7979
-6.40871 86.2361 18.8767
-4.90251 90.7759 19.6607
-22.8804 120.509 3.93173
-5.48259 110.309 17.7313
-5.9556 100.835 18.135
-7.6149 109.441 16.2266
-9.46695 82.6673 16.9715
-19.4905 102.636 7.91267
-11.5708 80.3716 15.5889
-16.6908 92.4449 10.8343
-5.03656 100.653 18.8844
-18.8384 86.7408 9.71144
-11.6788 80.2806 15.575
-6.49892 86.6602 18.9514
-6.40206 118.212 16.5522
-4.7726 98.0164 19.3768
-20.6128 144.235 3.90811
-13.7956 105.081 12.1072
-9.62185 82.8626 16.9969
-18.3764 140.585 5.93679
-5.50598 99.5387 18.7941
-23.0858 140.688 2.41931
-12.3046 97.8702 13.8971
-19.5626 133.613 5.65099
-19.5884 133.481 5.66715
-15.9702 127.196 8.86518
-17.5437 118.414 8.40778
-3.54578 79.8723 21.9048
-10.7499 125.064 12.9535
-21.8908 106.973 6.07684
-23.7774 121.096 3.55476
-14.3697 105.165 11.8354
-5.49394 115.33 17.6568
-5.34547 96.2554 19.288
-18.7802 121.386 7.28097
-21.2033 143.537 3.719
-9.83834 83.2627 16.9826
-20.9792 143.581 3.91158
-9.0156 98.9767 16.3712
-11.1311 98.1577 14.881
-15.6311 127.911 9.17933
-17.6629 118.583 8.42196
-15.5053 104.127 11.1798
-13.721 95.7985 13.1856
-11.7819 127.594 12.1189
-21.7609 106.947 6.3596
-6.48349 98.6081 18.4267
-12.6863 107.822 13.0753
-7.48564 119.404 16.0452
-13.2357 107.598 12.7038
-16.3022 92.2546 11.6514
-18.9245 114.472 7.93956
-13.0315 96.3491 13.7775
-16.3214 103.65 10.7466
-7.26198 87.6226 18.7829
-12.0076 96.5547 14.5374
-12.2211 124.838 12.1444
-19.0371 80.4292 10.6152
-6.45011 90.6253 19.2002
-7.31662 118.484 16.3525
-11.2122 82.0761 16.3375
-12.4806 96.1814 14.2772
-20.3919 143.256 4.65579
-9.20695 109.418 15.7038
-28.5859 120.357 0.391208
-5.10688 112.666 18.521
-10.7988 97.3369 15.5022
-17.6842 118.092 8.72726
-6.40519 94.7005 18.9964
-11.7928 108.243 13.9084
-6.42029 114.819 17.4313
-16.0958 104.943 10.9973
-20.296 89.4452 9.11031
-6.49016 114.726 17.4354
-20.8686 134.145 5.19881
-20.2292 90.0456 9.17874
-17.9638 83.1202 11.4354
-6.83006 96.1353 18.7199
-21.6691 106.135 6.86373
-17.048 104.045 10.4843
-13.5705 127.435 11.2278
-21.5832 123.576 5.56528
-10.8809 108.813 14.7206
-20.0299 130.132 6.21338
-8.18175 119.446 15.9037
-15.3475 127.739 9.90949
-21.262 125.148 5.73618
-21.356 141.902 4.3605
-8.19826 97.2565 17.7253
-12.7285 94.5329 14.5758
-20.1718 131.552 6.09177
-6.98671 115.373 17.2605
-7.32681 94.8615 18.6336
-7.61032 92.9067 18.5986
-25.9138 135.198 1.59512
-21.2814 108.352 7.1791
-19.0579 87.3611 10.5075
-10.5704 96.1027 16.1641
-18.0522 90.8875 11.0029
-8.4053 110.952 16.6108
-12.3245 93.9948 15.039
-13.1621 94.0637 14.4272
-6.80457 112.376 17.7278
-6.67606 113.662 17.7303
-27.154 132.207 0.985342
-19.9551 136.061 6.06677
-19.9783 89.096 9.77477
-8.48886 80.4741 19.0296
-25.3935 132.809 2.28219
-20.1534 139.741 5.67335
-21.168 132.585 5.51435
-11.3387 109.263 14.7044
-27.0579 120.575 2.08523
-22.2831 135.315 4.49175
-13.0911 81.188 15.6409
-21.1675 108.204 7.50501
-25.9947 132.792 1.95794
-9.84667 110.447 15.7755
-20.9708 106.545 7.81539
-19.6506 112.99 8.29295
-19.5244 120.303 7.80794
-7.50687 115.573 17.1497
-26.0915 133.743 1.84597
-9.1602 93.7286 17.6542
-28.9729 122.474 0.599708
-9.29661 95.539 17.4237
-20.758 128.436 6.26999
-15.02 127.612 10.6265
-7.39607 114.084 17.3927
-20.9925 140.707 5.14202
-12.7326 93.3239 15.0628
-29.0309 123.027 0.571448
-22.8786 140.288 3.79396
-9.47131 94.1036 17.4582
-13.696 108.517 13.1693
-25.9639 134.887 1.93471
-29.3924 127.993 -0.0656882
-19.1226 105.366 9.38848
-13.9466 81.678 15.1281
-16.6365 80.2087 13.2398
-15.6523 91.1603 13.1173
-10.8843 94.2113 16.4337
-29.2706 124.058 0.36535
-13.8334 91.0306 14.4999
-14.738 91.0437 13.8251
-18.8855 105.341 9.60106
-14.1066 90.9055 14.3317
-28.3406 120.174 1.39611
-8.01971 116.655 16.8374
-29.6294 121.072 0.379312
-28.402 129.847 0.621395
-14.4922 90.9125 14.0866
-25.3085 128.646 3.04991
-9.72108 93.803 17.439
-9.68172 93.6717 17.4831
-28.6353 122.972 1.02846
-21.0136 130.329 6.13988
-24.2274 137.933 3.16079
-12.232 83.8876 16.3926
-26.6323 131.002 1.92903
-12.3139 83.7563 16.358
-21.3923 131.778 5.78918
-10.5292 121.684 14.7046
-26.0691 119.731 3.26675
-8.84878 112.121 16.7219
-19.0088 87.5074 11.125
-20.9434 138.728 5.63168
-17.7241 90.6293 11.8566
-20.2791 106.875 8.66947
-24.9566 121.448 4.04024
-22.5914 132.629 4.92743
-12.799 92.6894 15.3995
-28.8938 126.116 0.749705
-13.5356 91.336 14.9795
-19.5901 106.494 9.27684
-22.9649 139.673 4.14443
-12.3622 84.3462 16.4396
-9.3828 89.3909 18.2665
-18.8818 81.4997 11.8147
-11.6564 92.6908 16.3288
-17.0228 107.11 11.2173
-20.3984 109.5 8.51303
-11.0288 119.862 14.694
-19.3563 120.921 8.40763
-19.6311 106.835 9.32396
-24.5016 133.208 3.60249
-9.7424 112.746 16.2701
-24.8551 129.429 3.6757
-13.9201 121.641 12.4654
-10.2034 92.6158 17.5413
-14.8675 125.567 11.4698
-9.49293 115.564 16.2805
-24.6392 120.172 4.63923
-21.671 137.693 5.47282
-22.3268 131.311 5.50065
-25.6236 126.71 3.4138
-13.8301 121.391 12.6405
-21.6747 138.039 5.48623
-26.379 125.116 3.00333
-23.0901 138.853 4.37745
-20.1997 108.023 8.98174
-24.7511 135.238 3.43748
-24.459 134.049 3.75371
-20.2978 108.246 8.90227
-26.0841 120.124 3.65302
-18.2117 83.3481 12.4469
-23.7913 136.072 4.14118
-13.9266 83.0605 15.7074
-24.033 132.012 4.3307
-11.5263 119.207 14.6784
-11.641 110.972 15.247
-13.2519 120.912 13.2746
-18.9535 122.62 8.88979
-23.6414 129.673 4.83735
-27.1339 127.021 2.44231
-24.3658 136.754 3.7509
-13.1418 84.8147 16.2548
-13.2414 120.702 13.3573
-22.8221 137.414 4.90168
-11.1238 91.803 17.2488
-19.9603 109.425 9.28083
-18.1183 107.37 10.8349
-18.1508 122.843 9.59067
-18.7999 89.3268 11.8164
-22.7811 127.256 5.86987
-19.4493 108.454 9.89276
-11.2138 90.7138 17.4632
-27.3632 123.347 2.83868
-11.8062 90.7961 17.0471
-28.9038 120.409 1.99536
-12.7425 86.3332 16.7805
-19.4097 109.993 10.0537
-18.6865 121.666 9.67605
-12.5526 86.8699 17.0143
-15.5087 80.9583 15.3048
-17.3701 89.6011 13.2513
-13.4745 111.863 14.3973
-27.4282 119.89 3.35428
-23.3936 125.439 5.95
-11.6953 117.623 15.3062
-25.4224 124.676 4.50806
-18.1286 85.6769 13.0585
-18.7341 113.852 10.4099
-15.3211 82.8821 15.4111
-13.2752 88.8703 16.4654
-17.4967 109.252 11.7121
-27.8865 121.865 2.97775
-17.5521 125.195 10.4404
-19.0971 110.858 10.4273
-17.4734 122.775 10.7199
-17.3826 123.109 10.7948
-12.2442 114.837 15.2993
-15.5984 119.934 12.4139
-26.4322 119.995 4.33709
-14.429 111.46 13.9711
-12.843 117.767 14.6717
-26.5014 119.686 4.37109
-17.1334 89.1461 13.812
-13.871 87.9266 16.3701
-13.0978 117.543 14.6397
-15.4526 88.2596 15.2602
-17.3604 124.933 10.9355
-16.8464 80.2638 14.8586
-13.9647 112.833 14.4314
-14.2911 118.449 13.7534
-17.2428 122.845 11.2377
-15.971 86.0464 15.1064
-15.5316 116.281 13.0467
-26.3118 121.869 4.59178
-12.7597 116.854 15.1016
-15.0883 86.7542 15.7546
-26.1979 119.889 4.84239
-19.323 112.698 10.6174
-17.5191 88.0126 13.9579
-14.8041 116.269 13.7486
-16.9324 81.1561 15.0679
-17.0153 111.796 12.6603
-14.9672 117.854 13.7181
-15.3188 114.017 13.781
-18.4396 87.0673 13.6183
-14.0146 115.723 14.6698
-14.883 117.388 13.9054
-17.1926 82.0564 14.9894
-15.5317 113.685 13.7553
-16.3702 113.383 13.1806
-17.6286 116.074 12.03
-18.0937 86.3824 14.0758
-18.1791 83.3929 14.3145
-18.0523 85.546 14.2548
