ply
format ascii 1.0
comment Created by Open3D
element vertex 1954
property double x
property double y
property double z
end_header
17.9818 98.1936 11.8453
-1.70117 112.078 19.2875
-16.2415 149.201 -1.45597
-4.83036 117.031 17.7071
14.905 122.234 -8.48762
14.122 121.295 -6.75902
-5.5821 118.169 17.353
-13.899 148.396 -3.25566
-18.5489 148.204 1.8677
-12.197 136.561 6.41932
-15.3305 140.948 5.47949
14.8417 122.292 -8.59219
-14.8516 140.269 5.61177
18.1726 108.105 1.65755
15.2405 121.537 -8.33602
18.5744 97.4175 11.6088
-16.5978 141.903 5.78015
14.9439 118.645 -5.27252
-19.4646 147.361 3.47704
-12.206 133.405 9.31633
9.72058 100.604 17.8549
-15.94 149.161 -2.07243
10.9688 100.237 16.855
14.2173 121.426 -7.30635
-13.236 137.861 6.01382
-4.51349 141.209 -6.59861
12.6947 99.256 15.9023
17.1908 97.9538 12.2805
-11.8565 131.256 10.8556
19.6108 103.057 4.67161
14.0203 125.683 -11.4592
6.24571 134.417 -11.7022
11.0635 99.8885 16.8136
-2.71819 113.149 18.6072
-14.7831 148.336 -2.81441
17.8651 108.786 0.840126
-11.9956 147 -4.52933
-2.82689 139.289 -7.0389
-2.62248 112.406 18.9095
15.1538 118.264 -5.81911
-13.148 136.404 6.74905
-2.25994 138.31 -6.75854
-19.3283 147.602 2.40943
17.928 112.662 -3.35938
-14.8471 147.907 -2.75113
1.53289 106.189 20.4136
10.7487 99.5486 17.0256
20.8405 97.4067 8.31965
11.9381 98.9928 16.2572
-7.5141 120.154 16.3981
-16.974 148.844 -1.46949
14.8838 119.729 -7.14579
13.9596 122.097 -8.49395
0.830623 107.562 19.5845
17.842 111.563 -2.52916
14.9924 119.165 -6.9463
-6.06135 117.386 17.2396
17.819 112.212 -3.252
-12.0719 127.577 13.5991
18.056 107.555 0.901726
-2.27975 111.311 18.972
-10.143 124.006 14.9916
-16.3244 139.118 6.81067
19.5114 102.928 3.78061
-5.74783 141.042 -6.4028
-12.8231 132.287 9.6752
-13.3801 135.195 7.40762
-15.3864 147.372 -2.33091
-3.38946 139.374 -7.38926
13.0051 97.5851 15.802
13.2707 97.5197 15.5648
-9.43118 122.448 15.5261
-17.6426 148.505 -1.11098
-15.3494 138.652 6.03805
-7.50368 119.3 16.4923
18.727 95.3857 11.7525
21.0814 98.8576 5.76361
0.919355 106.49 19.8487
18.9749 103.625 3.22489
-8.25885 142.107 -5.18164
-13.6194 133.505 8.93855
16.1951 115.495 -5.38213
12.2371 97.7115 16.1936
20.7608 99.302 5.40679
12.173 97.5718 16.2415
-9.61465 143.856 -5.62684
21.0594 98.776 5.49138
17.595 111.615 -3.36106
9.4922 97.9684 18.6058
-13.2141 146.148 -4.11785
1.76985 136.326 -10.5641
-13.228 128.805 12.8006
0.135264 108.039 18.7608
20.542 95.8364 8.82942
7.03975 98.5057 20.6639
-4.82063 114.736 17.5166
19.1599 94.7418 11.3435
14.2096 123.244 -11.2149
13.3564 124.772 -11.8123
-3.00778 111.446 18.6835
16.2967 115.768 -6.18684
-15.3504 137.039 6.9017
-19.621 142.72 5.88087
17.5422 111.649 -3.56183
-11.1093 124.753 14.2868
15.6901 96.4091 13.2695
16.1971 115.928 -6.31126
19.7357 102.13 3.3546
-1.79095 110.25 18.4265
9.66418 128.62 -11.8705
11.8882 126.296 -11.991
13.0916 124.785 -11.8186
-6.40193 116.354 17.1998
-20.599 145.684 3.64515
20.0639 100.605 4.12418
17.386 111.184 -3.42001
9.36117 128.476 -11.7564
21.0146 95.6706 7.77149
5.88352 98.4669 21.2232
-18.1163 139.514 6.84385
19.602 94.6679 10.2346
-9.94786 121.595 15.5257
-13.949 131.685 9.95939
2.37316 102.355 21.0565
3.09763 101.302 21.2794
-13.2762 129.948 10.7282
17.7624 107.121 -0.309405
16.5515 94.7055 13.0533
17.0688 109.524 -1.95383
-13.7264 130.733 10.2374
-3.80866 138.274 -7.73319
8.41342 96.5111 19.9159
-12.529 126.202 13.3267
19.9764 100.753 3.35253
6.1411 97.5874 21.2012
0.752121 135.27 -9.80643
-7.63279 140.615 -6.05437
7.54739 96.7095 20.5283
18.3682 93.3965 12.1817
17.398 93.6442 12.9199
-20.9617 145.048 3.80648
-3.33158 137.073 -7.2983
3.85934 133.068 -11.0826
0.772111 104.223 20.3488
-20.6562 146.439 2.07097
-11.8057 124.471 14.0306
10.5126 126.82 -12.1487
10.8984 96.5218 16.9511
-4.40415 112.239 17.9757
-11.025 143.256 -5.23593
-4.69948 112.935 17.5278
-18.547 147.817 -1.75903
-18.1735 147.763 -2.10942
-14.0168 129.321 11.3455
9.02116 127.665 -11.6845
16.3771 115.594 -7.80985
-21.1637 144.62 3.98227
16.8619 112.614 -5.50236
-13.899 130.044 10.345
19.8479 93.2257 10.1488
-15.9093 135.182 7.44879
14.3377 94.8173 14.4592
-15.8022 145.373 -2.61449
-21.231 144.762 3.78013
-12.174 124.534 13.8133
12.697 95.3647 15.5886
-18.7997 139.112 6.60004
-2.32072 109.632 17.7203
21.4054 94.9842 6.60608
16.741 112.809 -5.79016
-17.4135 136.854 7.24729
20.0706 100.378 2.71178
-17.819 147.243 -2.47617
15.9488 117.092 -9.19468
15.699 94.0088 13.574
-18.4978 138.276 6.97031
-16.1811 145.164 -2.22499
-6.04743 139.759 -7.7949
0.667741 103.462 20.3665
-16.7741 136.276 7.00811
-14.3656 144.94 -4.03015
-14.8449 128.858 12.1657
-12.1343 123.858 14.103
5.95204 96.7176 21.2293
11.4709 95.4525 16.5585
-3.01393 136.122 -7.62116
-15.1463 132.101 9.24736
14.4901 94.2992 14.3881
13.5478 94.6359 15.0629
16.8737 110.517 -4.0181
-16.2118 144.964 -2.25027
-5.18932 112.794 17.2959
-13.7545 126.475 13.0757
-14.8416 130.327 10.4037
-3.0804 110.072 17.5787
9.78371 94.6302 18.8814
-5.83144 139.339 -8.02806
15.3588 93.698 13.8065
-18.4604 137.471 7.25566
-17.0451 145.947 -2.52735
16.426 112.956 -6.15669
-10.6023 120.587 15.2976
2.45616 133.837 -11.6366
16.6656 109.474 -3.07966
10.3255 94.5788 18.217
-11.6599 122.116 14.8024
-8.33404 116.4 16.7545
3.69181 98.5725 21.2789
-15.0379 132.493 8.21881
-3.32175 135.875 -7.61108
14.1131 93.8329 14.7107
13.7774 93.9384 14.9543
-9.13045 117.975 16.0071
-20.3423 146.755 -0.197434
16.5497 109.218 -3.05542
16.617 109.765 -3.6814
-17.3042 145.879 -2.6313
15.3839 92.9772 13.9739
-10.7714 120.396 15.1971
16.5934 108.745 -2.72579
-8.08567 115.602 16.8644
-11.5435 121.287 14.9172
-18.2861 146.54 -2.50464
10.2203 124.205 -11.2146
-12.8879 143.579 -5.40686
9.80603 93.623 18.9746
-6.81922 139.273 -7.79051
17.7731 105.323 -0.992077
13.6014 120.737 -11.6623
4.59609 96.6831 21.4054
-8.22297 115.375 16.8306
19.2264 101.285 1.21666
9.89015 93.2854 18.9215
3.24205 131.88 -11.6397
18.7152 90.6879 11.9734
19.2956 101.132 1.14604
11.7189 121.737 -10.8885
19.8691 100.278 1.31709
-4.55473 110.384 17.536
-2.77795 108.813 17.0886
4.64457 96.2141 21.4239
8.9716 124.981 -11.2814
-16.4463 143.659 -2.33419
-11.8418 121.051 14.7866
17.9683 90.1753 12.9984
-5.46358 111.508 17.2371
17.5406 105.296 -1.32125
-14.2589 125.408 13.0491
-2.89394 135.134 -8.6141
-1.11853 105.327 18.4551
-13.6263 124.287 13.2912
21.8811 93.7639 5.06259
-1.19572 105.529 18.2485
19.9286 91.4094 9.40344
-12.8595 122.508 14.0978
-14.4328 143.811 -5.02879
-16.0198 128.719 11.3581
19.8586 90.9781 9.74599
15.9544 90.709 14.1562
-3.64011 109.372 16.848
2.85265 97.762 21.2047
16.25 109.811 -4.91894
-10.1915 140.007 -6.11725
7.86159 125.716 -11.5001
16.9147 89.8604 13.7313
-9.18514 115.608 16.5269
-9.2973 115.823 16.4323
21.5525 94.8816 3.8346
-7.13232 138.83 -8.36973
17.3402 89.4976 13.5584
-16.2183 127.56 12.3116
16.2026 109.461 -4.71188
16.0398 90.1327 14.2394
-8.64267 114.655 16.7088
21.9898 93.162 4.90769
-9.20985 115.416 16.5537
-14.4346 143.307 -5.06157
-6.06241 137.566 -8.43434
21.5527 94.5574 3.95054
-13.2053 122.439 13.9123
0.113743 101.554 19.9793
-1.44194 134.209 -10.3092
8.39651 123.954 -10.8364
-22.1915 141.52 4.68263
-19.9432 136.578 7.07144
-16.7143 132.491 7.51662
-10.0641 139.303 -6.24632
-12.1043 120.012 14.7007
5.16555 94.0896 21.4863
-13.5145 141.8 -5.0764
-14.5093 142.778 -4.97307
12.9782 118.613 -10.833
15.4827 114.22 -9.26113
-7.08475 112.172 16.8549
21.601 92.1568 5.69063
21.4955 91.9781 5.95112
12.2819 119.415 -10.9574
-5.60385 136.357 -8.3617
-15.2736 143.326 -4.84826
10.4611 121.372 -10.9906
-2.87957 134.256 -9.35134
-3.86176 108.836 16.4254
11.394 90.6611 17.8273
16.0227 88.8104 14.6769
19.0345 100.516 -0.0917912
-15.2749 143.115 -4.94886
8.64546 123.331 -11.2521
10.9655 90.3263 18.4332
18.5832 101.064 -0.198206
1.1762 132.408 -12.1763
12.5065 118.026 -10.2895
16.6971 105.4 -2.46154
-2.88082 134.069 -9.49722
-9.32037 114.428 16.5204
0.860233 99.0803 20.5932
16.776 105.17 -2.37436
16.3746 106.705 -3.45072
-11.0011 139.67 -6.34426
12.6905 90.0314 16.7073
15.8544 113.2 -9.29115
-20.8626 137.033 6.71425
16.3792 107.841 -4.65189
20.1323 89.0803 9.5664
16.3284 106.381 -3.24836
-9.83645 138.881 -6.98865
4.7869 93.5945 21.5207
20.7835 96.1362 1.93396
15.3819 88.3941 15.2473
-2.00396 105.277 17.3642
10.1768 89.9324 19.2935
0.658734 99.0805 20.5325
16.1133 109.557 -6.28544
12.1734 118.134 -10.4518
16.0612 111.223 -7.89539
21.634 90.3943 6.42538
5.94909 125.477 -11.1369
11.2779 118.95 -10.5149
-9.98422 114.72 16.3355
-14.4903 122.748 13.2452
19.1221 100.096 -0.672947
-21.7026 137.666 6.32197
-15.8244 129.723 7.71023
1.33647 131.063 -11.9528
-21.9797 138.035 6.17369
-13.2118 140.698 -5.81141
-22.8334 143.482 1.69183
3.27672 128.802 -11.9248
-15.3471 129.113 7.64116
-16.4008 127.58 10.2412
11.6075 88.7071 18.177
-7.40865 111.019 16.7109
0.0119068 132.431 -12.1635
-16.0031 124.168 12.9121
16.2591 107.434 -5.35683
-23.188 141.279 3.77871
-2.71869 105.573 16.7046
-2.3496 104.081 17.6871
13.5595 87.5399 16.7769
17.3612 102.342 -1.72656
15.3256 112.885 -9.83666
16.853 103.285 -2.13253
-20.5332 144.492 -2.40432
-4.51776 108.215 15.7992
20.9932 88.4135 7.77619
10.5932 118.899 -10.8397
-20.0465 144.115 -2.7085
18.2389 100.995 -1.63319
-2.48787 132.903 -10.5879
-0.604028 132.301 -12.0377
14.7161 113.522 -10.1105
-12.5268 117.65 14.9851
-5.78553 109.268 15.9321
22.1594 88.8163 5.90346
15.566 86.5175 15.1937
-18.4832 133.169 6.08999
-16.7787 131.312 6.05823
21.7368 91.6125 3.56616
20.6273 94.5489 1.86955
13.8485 114.571 -10.4387
-1.99873 102.223 18.502
16.5066 103.797 -2.84755
12.4207 116.341 -10.7207
5.12152 125.398 -11.7785
4.26437 92.2676 21.4173
-0.10847 131.785 -12.4733
-23.5809 141.469 3.16728
0.649537 96.9696 20.5733
1.10827 96.2852 20.7276
-12.6032 117.028 15.0981
10.1263 87.6945 19.3946
-6.90781 135.273 -8.80966
-2.76581 103.966 17.2776
-1.45181 101.073 18.6809
-7.35585 135.981 -9.07705
-1.84012 101.61 18.5366
-16.3689 126.883 9.41753
21.1252 92.3905 2.93574
15.7018 85.7972 15.1277
-10.0092 112.942 16.1495
-16.9624 131.287 5.68651
-15.5715 128.575 6.80315
-16.2192 139.166 -2.83792
0.797412 130.394 -12.4837
-0.416458 98.8789 19.4646
17.6482 85.8904 12.7639
-5.1139 132.854 -8.72662
-23.2332 142.333 1.3817
-19.6791 143.073 -3.1735
-1.42893 100.527 18.7726
-15.7991 122.239 12.9488
11.5221 86.5852 18.4997
-17.5833 140.815 -3.27467
-15.6766 140.126 -4.65027
-8.28171 110.76 16.038
5.21287 90.3372 21.5229
2.51458 128.392 -12.7065
5.52777 124.052 -11.7321
18.7975 99.3583 -1.84813
-9.88326 112.378 16.1196
-7.8636 136.266 -9.34992
-9.27482 111.631 16.1801
-0.308589 98.2103 19.6625
-22.9802 137.572 5.51519
15.9897 108.129 -7.48496
-11.8757 114.972 15.627
15.948 106.601 -6.00728
-7.24826 135.012 -8.93502
16.3554 84.7406 14.8222
17.2934 101.82 -2.85031
-23.5255 138.585 4.92729
9.33229 119.583 -11.6837
22.2867 88.7709 4.50266
11.2526 116.61 -10.8693
-16.261 122.346 12.9092
9.20868 119.686 -11.7772
-23.2731 142.044 1.13884
-17.43 124.003 12.3691
-13.5413 138.83 -6.27092
15.7494 105.706 -5.4602
-22.2676 142.578 -0.795752
-23.8528 141.782 1.66041
16.02 103.976 -4.12652
10.8757 85.9802 18.9198
-17.4069 130.791 5.46131
-14.0429 117.765 14.5627
0.772855 129.696 -12.9226
22.0199 88.7919 4.24755
-18.1066 131.257 5.71652
0.894527 95.0712 20.6753
-9.84231 111.733 15.9017
18.3961 99.7268 -2.63141
17.0541 84.3708 13.7628
15.9047 107.5 -7.5841
-0.109567 96.7447 20.0028
-13.4411 116.386 15.0377
5.27541 123.498 -11.9167
-10.5959 112.613 15.6479
-6.30078 132.938 -8.78964
20.6568 92.2929 2.02103
11.4652 85.4019 18.5275
-17.659 126.38 9.58253
-17.0753 127.009 8.33349
-16.3002 128.647 5.89887
10.9766 116.207 -11.1512
-12.7593 137.924 -6.96395
15.7915 106.351 -6.70708
-11.9072 114.047 15.3926
-18.1303 125.346 11.0262
-13.8107 116.513 14.9433
-5.21169 131.672 -9.05206
-21.3977 133.961 5.94619
-9.17797 110.791 15.4719
-15.8299 138.288 -4.23292
-18.2974 125.648 10.7305
-16.0616 138.934 -4.62819
20.3352 92.9016 1.34245
11.051 115.886 -11.1623
-8.38478 135.57 -9.61282
0.0844628 129.686 -12.932
22.6987 86.9424 4.49795
-12.4775 137.478 -7.18296
-17.4562 126.787 8.53976
6.97389 121.562 -12.4911
-17.6743 126.585 8.95186
8.65056 86.1639 20.2042
-3.57167 102.926 16.9121
-9.47416 136.44 -9.46306
11.0526 115.696 -11.2273
-21.3532 142.477 -2.75326
-16.8243 127.684 6.77562
-15.5678 138.33 -4.96985
11.0001 84.8903 18.7082
15.578 108.128 -8.85817
-5.06561 131.133 -9.26624
-4.11548 130.353 -9.56277
-9.71901 110.964 15.3168
9.30908 85.4567 19.8229
18.2779 83.7742 11.8294
21.5992 85.1835 6.90085
7.42265 86.6413 20.5961
-18.6014 125.911 10.1182
7.769 86.3798 20.4677
12.2083 84.0857 17.9263
-0.0866821 95.3945 20.0436
21.414 88.8405 3.44203
19.7217 84.8309 9.1597
-14.7414 136.844 -4.72955
13.19 112.165 -10.5766
-7.51533 108.934 14.6893
15.878 103.306 -4.86548
-3.58236 101.8 17.3964
18.1624 83.3294 12.1151
19.3659 84.2724 9.83812
-1.1223 129.815 -12.6696
-16.3702 137.831 -4.20226
15.5603 105.721 -7.08974
15.8078 103.29 -5.0656
20.8973 90.3703 2.08672
20.1962 92.3699 0.872254
-11.9295 113.119 14.9727
3.16854 90.8009 20.5644
-24.6212 139.752 2.51555
10.1362 84.5377 19.1791
-21.2097 131.732 6.6111
-14.0052 136.879 -6.14416
12.4263 83.4154 17.7159
-24.3913 140.607 1.277
20.1347 92.4279 0.64088
-8.40799 109.398 14.6053
-21.2759 131.677 6.6023
-16.2131 135.58 -2.62033
-10.8287 111.337 15.2534
13.5977 110.141 -9.8177
4.56611 123.125 -12.8317
21.1422 88.5911 3.11988
11.3856 83.7235 18.2935
-7.93373 108.863 14.4188
21.6359 83.5462 7.45337
10.6099 115.467 -11.8987
-14.0166 136.442 -6.02644
-22.7856 140.763 -0.88297
21.9927 86.9654 3.67045
-16.2105 135.412 -2.81085
-24.258 137.498 3.7468
-3.3891 99.9985 17.9692
-14.3148 135.26 -4.74469
-4.57143 129.718 -9.80618
-18.502 124.47 10.2077
22.5766 84.7056 5.05259
17.4463 81.6491 13.5155
-15.7224 135.291 -3.33568
9.84355 116.411 -12.2855
4.8027 122.494 -12.8383
21.9054 82.9691 7.36262
-15.8005 117.907 13.5676
-22.3255 140.816 -1.8439
-17.6139 120.781 12.6534
18.2991 81.7643 12.2767
-12.4221 135.71 -7.50013
16.4377 101.908 -5.42803
20.0247 92.0963 0.303393
-8.54389 109.061 14.2652
-23.8544 135.607 4.70966
-9.57496 109.884 14.486
-12.2024 135.06 -7.26426
18.0223 81.3139 12.7466
11.4221 83.0119 18.1295
-20.5262 130.56 5.88283
16.5083 80.8778 14.7175
-10.1949 135.247 -9.78541
22.7491 83.5078 5.3945
-18.6738 126.279 7.94458
-18.4858 123.683 10.2212
-1.66519 96.5536 18.6527
19.5053 82.2711 9.9385
-1.23611 128.535 -13.0185
-23.5918 140.319 -0.632821
6.47859 120.121 -13.1046
-4.51722 102.214 16.0569
-5.30097 104.005 15.11
-12.9757 134.621 -6.54516
21.7423 86.5385 3.16258
5.58179 86.1437 20.8171
-4.18764 128.765 -10.3089
-21.257 140.32 -3.34851
-0.972937 128.128 -13.1529
15.6829 80.4253 15.547
19.071 81.1998 11.1197
-11.5943 135.447 -9.00435
-1.26842 95.4379 18.9645
-6.69203 106.117 14.2592
-20.5425 139.532 -3.53963
-14.2691 113.99 14.6238
-21.2015 129.716 6.67704
-4.68509 128.726 -10.0267
5.68235 85.7933 20.7418
-6.06029 104.945 14.6207
-18.9368 124.154 9.65725
-20.8842 129.536 6.40428
-13.6275 113.267 14.4929
22.2043 81.0348 7.55226
6.19293 85.2197 20.5891
-11.7929 110.961 14.6284
13.4903 81.0536 16.7271
-24.5203 135.887 3.89072
17.3979 79.8785 13.6533
15.2211 104.142 -7.69317
-19.8895 138.722 -3.89664
2.11488 89.7456 20.3249
-10.3007 134.223 -9.78319
8.18251 83.3339 20.0739
12.6659 109.532 -10.2853
-11.7634 135.008 -9.01292
18.6172 80.1388 11.9799
7.39125 118.239 -13.182
-5.99653 104.383 14.6335
-8.06796 132.073 -10.1757
-9.4004 133.029 -9.70299
-5.22608 128.84 -10.124
-8.09661 107.733 13.5289
-14.863 114.457 14.2031
14.9841 79.8875 15.9892
2.05476 124.826 -14.0245
-18.8692 123.347 9.78393
-7.08749 105.997 14.0649
-18.4673 126.421 6.30205
0.186503 91.5311 20.3526
18.0295 79.6545 12.8404
-10.4151 133.775 -9.54479
9.64459 115.339 -13.046
-18.6615 126.636 6.13155
-18.7647 122.637 10.1169
17.7409 79.3583 13.2406
-15.1308 114.731 13.8905
17.5358 96.6776 -3.45758
15.4613 102.298 -6.74758
19.5728 90.7689 0.0478171
-1.77312 127.185 -12.648
14.347 106.52 -9.77381
-18.8917 137.412 -4.35875
20.0523 89.1332 1.02493
19.3473 91.249 -0.285859
-15.8118 116.152 13.0247
16.0593 79.1046 15.0632
11.9539 81.1501 17.4401
-12.7578 111.457 14.3079
-23.7364 132.965 5.03854
18.8671 79.4946 11.6035
18.3065 93.9141 -1.87762
16.5512 79.0193 14.5153
-23.5605 132.568 5.16427
-3.87664 127.864 -11.306
22.1612 80.7055 6.79562
15.4067 102.302 -7.05575
-18.6331 123.861 8.19994
9.50608 114.811 -13.0793
-18.3999 126.208 5.64196
-1.43497 126.061 -12.3808
-21.2541 138.879 -3.70557
13.1898 79.8727 16.9983
16.318 78.6687 14.7334
-4.10081 97.2559 18.4341
21.8272 79.3876 8.02522
-19.77 127.083 5.96662
22.7284 81.4798 4.99269
-20.2361 138.066 -4.39898
-1.00146 92.5348 19.4258
-24.7765 134.46 3.88212
3.34744 121.749 -13.7993
-18.8377 126.368 5.41119
-20.7812 138.306 -4.16288
-4.52278 97.7002 18.0401
-18.2905 126.657 4.4995
9.92587 81.3948 18.4252
-18.6729 126.043 5.44532
7.16685 116.762 -13.1416
-13.2037 111.271 13.9902
-15.893 115.022 13.1808
-18.465 135.761 -4.31042
-6.9483 104.21 14.1224
-4.93116 127.54 -10.789
18.7653 78.43 11.7337
-14.5055 112.623 13.9433
-18.5763 126.375 4.85352
-19.0628 121.004 10.6089
-14.4303 112.482 13.9118
21.8593 80.1054 6.6713
-17.3462 133.907 -3.9254
-13.3924 111.278 13.8775
21.6068 78.6371 8.27787
-25.1809 138.281 0.13326
6.37053 82.7009 20.5431
-10.63 108.894 13.1742
-18.9099 120.326 10.8752
14.8037 103.882 -9.15747
-15.3001 132.947 -5.33059
-19.1854 121.171 10.3055
-22.8799 138.455 -2.63274
13.8082 106.026 -10.268
-8.98358 107.134 13.0087
10.8428 110.456 -11.4406
10.217 80.5012 18.4305
-17.3543 134.385 -4.6653
19.0779 78.3049 11.0594
-0.697808 124.647 -12.9922
6.24078 82.6019 20.5681
16.5585 96.7716 -4.31422
-22.6495 138.433 -3.01643
8.43682 114.988 -13.4004
10.6876 79.8187 18.4814
-17.7831 117.962 11.6968
-10.6978 130.805 -8.41483
14.0134 105.591 -10.2521
16.3241 97.7642 -5.09707
-4.22187 126.739 -11.3937
19.5442 88.4402 0.521594
11.3302 109.165 -10.9332
-25.051 134.395 3.33613
-17.3667 131.461 -2.07413
-18.6548 120.523 9.96609
16.6847 95.9574 -3.87835
-16.3593 114.825 13.0223
-13.0377 133.164 -8.43699
20.6995 85.4684 1.99759
-24.8206 138.14 -0.700274
-18.431 122.66 7.47378
3.39934 84.9264 20.9256
-23.1619 130.069 5.28281
-15.8278 113.323 13.6966
18.2161 91.481 -1.47009
-23.4511 130.45 5.04907
10.3449 78.7673 19.3026
-10.1583 129.357 -8.16044
-16.2062 113.956 13.3248
-23.578 130.596 4.97135
10.1092 110.831 -11.8616
-25.698 137.469 0.422802
-10.1889 129.242 -8.15655
-6.50175 101.959 14.5042
-17.8781 116.987 11.936
-24.7725 132.936 3.71232
-3.31013 94.0141 18.6965
-3.60646 94.486 18.5514
-23.2734 137.935 -2.8034
-17.8684 134.444 -5.18147
-1.78449 91.8778 19.0915
-24.8765 137.389 -0.708082
-1.78578 124.194 -12.6024
-0.854432 123.863 -13.3483
-1.76121 91.4954 19.1262
5.09853 117.187 -13.3334
-20.6114 125.602 5.95195
-13.8338 131.653 -7.21945
0.0393662 123.322 -13.9713
-8.7147 105.002 13.2464
9.586 110.857 -12.0811
-7.68688 127.081 -9.43369
-8.89046 127.447 -8.55145
7.60955 80.3323 19.683
21.1614 78.3186 7.13651
-9.56622 127.87 -8.33089
-18.0965 121.736 6.71619
20.6788 84.4132 1.63156
1.07197 122.643 -14.7567
-11.9346 129.85 -7.87759
-11.625 129.521 -7.91794
-21.6218 137.325 -4.83981
0.190731 123.001 -14.2223
8.15037 79.6282 19.5472
-19.5216 121.444 8.3301
-7.43396 126.331 -9.38866
1.6055 85.873 20.3621
-8.10891 126.533 -8.91421
7.83039 113.589 -13.3494
6.78228 80.2245 20.2597
-20.4596 136.429 -5.454
-7.87365 103.086 13.5917
-6.25953 99.1933 15.6213
-17.3531 114.131 12.9125
8.52473 112.172 -12.8535
13.8417 102.791 -9.39185
5.41135 115.807 -13.1425
-18.7649 134.089 -5.1248
-5.58416 125.323 -10.7322
-9.38927 105.264 12.8717
20.7844 79.4607 5.75846
-5.78123 96.0791 17.9352
-9.47621 105.329 12.8195
-14.4602 110.655 12.9434
-11.448 128.755 -7.93228
-18.4612 118.123 9.88186
-18.7138 117.023 11.1856
-19.2297 123.983 4.87809
-8.27677 103.227 13.3838
-6.05697 97.4746 16.6125
2.8408 118.605 -13.6279
0.980604 121.904 -14.9126
7.79253 112.902 -13.4202
17.3592 90.954 -2.28296
-24.0127 128.452 5.3345
1.2801 85.5839 20.0871
17.375 90.7486 -2.26427
-18.3455 115.906 11.3802
14.2245 99.0634 -7.04277
18.9872 85.7468 0.84268
-13.1258 130.944 -8.90217
-9.7036 105.009 12.7149
18.5925 87.2723 -0.305036
17.8561 89.4723 -1.66608
-4.63778 123.588 -10.8839
-12.9835 128.99 -7.29082
15.9552 94.3016 -4.43016
-18.5024 116.367 10.8779
-5.50675 94.2255 18.5687
-18.3595 129.456 -2.07129
-9.95381 105.204 12.5641
-0.364273 87.3425 19.6907
13.2314 102.544 -9.67977
-10.0225 105.155 12.5294
21.2195 81.8521 1.83704
-19.3268 120.271 7.71485
16.5109 92.1505 -3.19257
-21.3488 124.416 5.77722
-26.3825 135.438 0.40405
-20.5191 135.358 -5.79124
-18.0744 129.162 -2.37722
-17.1998 129.051 -3.20634
18.239 87.7361 -0.832946
-18.0173 116.826 9.52985
-7.25022 124.597 -9.59385
-4.83287 92.6035 18.9977
-23.7689 126.843 5.83532
-13.8501 130.977 -8.85587
18.7692 85.4908 0.6131
-25.3928 131.398 3.02295
-15.9284 130.511 -6.25625
-17.0392 129.753 -4.39146
20.5763 78.5068 5.3581
-24.6987 128.676 4.83766
-17.8846 117.691 8.2579
-7.98475 124.991 -9.45124
-24.1461 127.309 5.53899
2.55267 117.849 -13.8102
-26.563 135.185 0.405936
20.6211 82.5236 1.27917
-0.927795 122.074 -14.2484
4.45533 80.075 20.9445
-6.45443 95.3062 17.7536
-5.57389 93.2122 18.8476
3.49813 81.3474 20.7009
19.9608 83.6043 0.845466
-15.0934 128.858 -5.81401
-17.9671 129.686 -3.55315
-17.2824 129.323 -3.93404
2.5309 117.731 -13.8288
-17.9978 122.309 3.65905
13.3387 100.361 -8.48194
13.6647 99.2084 -7.73935
-18.477 115.171 11.0251
1.89096 82.8573 20.7482
-4.2254 91.0132 19.3037
-22.804 135.938 -4.65867
-4.39156 91.1378 19.2762
-14.2625 129.975 -8.12731
9.05354 108.76 -12.389
-23.613 135.351 -3.43657
-23.8019 134.907 -2.80236
-5.11951 91.9459 19.1105
0.182969 85.7804 19.4118
-1.09338 86.8912 19.6768
-22.2002 135.543 -5.21542
0.681608 120.396 -14.9978
-19.813 122.734 4.61047
-7.00613 96.6398 16.3391
-12.7402 107.822 11.5471
7.78464 110.931 -13.4634
-8.11954 124.427 -9.61848
1.19772 83.586 20.2187
-6.89077 95.4026 17.3053
-18.1073 119.657 5.64452
-11.4644 106.03 11.7931
-18.2139 120.591 4.78029
-17.5476 112.162 12.2858
-18.4733 128.385 -2.61514
-18.1417 128.375 -2.96635
1.27855 82.9156 20.5898
-18.0444 129.272 -3.96996
4.71274 78.6455 21.061
-16.1787 129.695 -6.39064
20.5192 81.7823 1.07567
-26.2524 131.892 2.13603
1.19157 82.8452 20.5293
-25.4821 134.423 -1.25958
-18.0465 128.757 -3.75927
-18.4759 116.077 9.01084
17.5023 87.4142 -1.52116
17.5847 87.0848 -1.32385
-18.3816 120.434 4.5852
-18.7881 128.893 -3.23281
-15.2798 127.666 -5.79253
-18.1283 127.016 -2.11564
3.95885 114.331 -13.4915
-4.11614 89.2489 19.6001
-18.8809 114.573 10.6599
-19.2167 118.881 6.80557
-18.4565 121.401 3.43792
-18.1405 130.482 -5.795
16.9062 88.816 -2.65333
-1.58469 86.2576 19.5969
-16.5269 122.452 0.25113
-24.1753 134.088 -2.9324
15.6115 91.8745 -4.35349
2.43435 80.4726 20.835
-17.9611 122.85 1.29775
3.81595 114.103 -13.5475
-15.842 127.752 -5.93849
3.68215 78.4927 21.1359
-19.0552 113.204 11.5692
3.0589 79.1574 21.0847
-7.81012 96.8887 15.387
-18.811 115.983 8.48496
-16.4388 126.923 -4.74738
7.46167 109.992 -13.8646
-16.3419 126.615 -4.66142
-18.1736 123.831 -0.0331596
16.1762 89.6808 -3.46343
-3.15724 87.3334 19.4124
-18.0214 121.323 2.14731
-16.0166 126.461 -5.05426
-17.0955 119.982 2.41403
-15.5224 126.856 -5.98477
-17.6859 119.866 3.06161
-17.6605 122.686 0.257939
5.1097 111.933 -13.6134
-16.857 120.676 1.34022
-14.5002 127.188 -7.57701
-19.1155 121.089 3.24378
-12.7265 105.874 11.2367
-7.88283 95.2213 16.3864
-17.9972 125.829 -2.65204
-18.7673 121.12 2.76304
-5.67538 121.363 -11.4883
-17.8363 126.122 -3.14656
-27.2029 130.719 2.345
-17.9705 125.152 -2.14099
-18.1824 117.086 5.89397
-18.0301 125.192 -2.18534
-14.3569 126.812 -7.73342
-23.8884 133.08 -3.67424
-17.8412 120.708 1.88243
-18.0341 125.345 -2.43604
-15.146 108.403 10.9845
-25.9914 127.701 3.73244
-17.8126 125.21 -2.58661
-11.3435 103.391 11.7704
-18.5029 127.092 -3.69131
-18.2435 120.668 2.25469
-19.2158 120.972 2.91638
-8.96218 98.7146 13.6501
-6.75091 90.6592 19.1195
-19.8074 131.019 -6.3065
-17.165 120.103 1.50443
11.839 100.977 -11.0019
-17.0784 123.049 -1.61866
-18.2199 125.239 -2.54527
3.89636 112.455 -13.7335
-17.0091 123.654 -2.30082
-19.0856 123.835 -0.269142
12.0609 100.223 -10.6359
13.3124 96.3185 -8.199
-5.72309 88.914 19.3551
19.183 81.4927 -0.14269
-10.8604 102.169 11.7934
-19.687 130.348 -6.31299
-2.92312 119.407 -13.5819
-18.6155 124.207 -1.48611
-16.9924 123.382 -2.45214
-18.437 116.983 5.31732
-18.0182 124.978 -2.9611
-17.7659 123.881 -2.16821
-2.73335 85.4985 19.1879
-18.1386 119.97 2.0321
20.7084 78.5136 0.857495
-19.1541 123.177 -0.0770155
-19.0095 125.66 -2.65605
-14.2522 126.062 -8.15273
-18.1171 110.559 11.0941
-19.2368 118.96 4.09731
-18.7444 119.429 3.09968
0.214688 80.9505 20.2936
-17.1201 126.551 -5.64172
15.152 89.9732 -4.50774
11.6363 100.823 -11.3343
-27.249 128.659 3.09941
-18.2332 124.56 -2.55615
13.6274 95.0734 -7.87715
-9.27505 98.0396 13.6944
-2.75957 85.2362 19.1147
13.4423 95.3371 -8.08264
10.4699 103.333 -12.7118
14.8939 92.1296 -6.52852
6.13659 109.233 -13.8992
1.04058 79.2122 20.7884
-17.7155 123.528 -2.38675
-17.6817 121.775 -0.71566
10.7114 102.875 -12.6602
-17.332 123.706 -2.9979
-11.3437 102.287 11.4714
19.6443 79.9339 0.120533
-16.5716 126.584 -6.68802
7.07309 108.153 -14.011
9.73127 104.02 -12.8499
-17.148 125.208 -4.81979
-16.1795 124.178 -4.8764
-17.6934 119.415 1.38249
-18.8467 125.515 -3.39598
-19.1298 123.889 -1.5474
-19.8698 112.338 10.472
-27.9613 131.868 -0.0480037
-17.9729 123.515 -2.59267
-23.7178 131.315 -4.12543
-12.7089 103.523 11.1888
-17.0829 120.066 -0.276869
-22.1145 130.509 -5.08557
-18.8016 122.567 -0.910781
-19.9356 112.241 10.3689
-20.0799 120.43 2.50092
-0.98369 117.796 -15.3766
17.4089 82.9613 -1.13866
-7.93559 121.143 -11.2821
-22.1072 121.07 3.93034
-19.6305 120.479 1.83772
-8.13508 121.198 -11.1859
-19.7565 114.492 7.78238
-20.9903 130.201 -6.26609
7.53842 106.872 -14.0318
-1.94759 117.889 -14.6328
-18.5606 121.379 -0.292231
-18.7493 122.089 -0.838295
-18.5274 116.959 3.90765
-19.2689 124.128 -2.34062
-18.1734 118.986 1.44363
3.74575 110.944 -14.1631
-19.1782 123.201 -1.63617
-19.2357 118.807 2.71027
16.6102 84.331 -2.0423
-22.682 121.325 3.88668
-17.1249 125.743 -6.38492
-11.4239 122.781 -9.6941
-0.221172 116.752 -15.799
-16.9329 123.4 -4.41636
-18.2706 123.624 -3.2233
-22.4002 121.424 3.33703
-7.99945 89.5526 19.0122
-17.7926 122.271 -2.43685
-20.13 120.025 2.22958
-24.8838 131.005 -3.4385
-18.3459 118.84 1.43156
-18.172 116.368 3.65465
-24.6472 130.874 -3.58713
15.9481 86.3788 -3.61712
-6.25862 119.767 -12.4377
-25.6738 131.186 -2.81548
-6.20444 87.3446 19.0775
-19.2078 123.915 -2.73009
17.2274 82.4176 -1.22946
-19.2814 125.69 -4.42947
-13.8986 104.217 10.7339
-18.5213 109.62 10.4061
-19.6686 125.972 -4.31576
0.0444511 78.9365 20.4475
-15.272 124.641 -7.85566
10.6072 101.066 -12.5885
-16.6299 125.534 -7.34758
-20.2718 113.69 8.0924
-19.3645 110.376 10.3256
19.6233 77.9194 0.2653
-27.7523 126.522 3.47204
-4.86216 118.58 -13.2713
-16.8246 121.874 -3.6924
-18.9016 121.435 -1.07362
-18.9033 121.45 -1.09809
-17.8536 120.753 -1.56178
-18.5304 123.8 -3.81927
-12.4225 102.006 10.8096
11.7024 98.0206 -11.1037
-17.0012 123.087 -4.86413
-19.5284 123.07 -2.20196
-0.499173 79.2114 20.2161
14.4304 90.8342 -7.10053
-2.09148 82.9516 18.2452
-27.2825 131.109 -1.80005
9.75955 102.168 -13.2269
-4.56948 118.247 -13.5973
-17.8986 122.254 -3.25556
-18.6591 114.304 5.2725
19.4816 77.5518 0.321052
-20.0791 127.251 -5.85842
-18.8647 118.627 1.20289
3.28537 110.368 -14.4463
-18.0946 121.485 -2.52711
-19.2704 125.036 -4.75526
-17.592 120.518 -2.14663
-20.2079 119.36 1.77019
-22.1597 129.322 -5.88562
-22.2486 129.289 -5.81243
13.1224 93.0831 -8.3309
-17.0506 121.642 -3.91855
-14.1913 123.933 -9.22547
-23.0178 129.199 -4.96466
-11.9525 122.323 -10.1138
-18.1292 122.397 -3.59717
-17.3058 123.603 -5.68228
5.52137 107.379 -14.3022
-14.2824 103.763 10.4003
-26.7765 130.486 -2.33998
-17.7592 123.002 -4.68948
-19.2279 121.547 -1.7081
-22.2297 120.511 2.50841
-18.6816 115.687 3.41672
-24.0771 121.598 3.40739
-18.6857 120.896 -1.68874
-19.1481 113.463 6.05223
-18.171 121.223 -2.58861
-16.1692 106.364 9.72997
-19.0583 113.451 5.87573
14.6751 87.6265 -5.04243
-9.71267 92.5292 16.2311
-17.3532 120.989 -3.38841
-18.8627 120.928 -1.72956
-4.53879 117.775 -13.9891
-10.737 96.3663 13.5171
8.06064 103.893 -13.9953
-22.7514 120.789 2.45495
11.6617 96.9422 -11.1299
-20.4156 110.879 9.55739
3.97871 108.782 -14.524
-18.3833 108.386 9.67077
-29.2619 128.787 1.39336
-10.395 94.2489 14.8971
-2.66465 82.5558 17.9965
-17.2919 123.537 -6.33789
-9.78871 90.1279 18.1581
-24.4036 128.924 -4.06761
6.23123 106.025 -14.5173
-22.0296 120.009 2.06339
18.6898 77.2827 0.132042
-22.8389 120.636 2.21169
17.1068 80.401 -1.27641
5.47069 106.698 -14.483
-21.0049 112.525 8.13638
15.4017 84.8606 -3.8429
-11.7104 98.0251 12.2629
-17.2085 122.044 -5.31934
-19.3353 122.09 -3.1024
-19.4519 121.03 -1.95317
-19.1945 119.033 -0.295733
-19.0356 113.803 4.62974
-18.3625 120.711 -2.83058
-28.7845 125.975 3.13536
-26.0748 129.41 -3.15302
-11.941 98.2582 12.0663
-18.6996 120.661 -2.60871
-22.2041 119.881 1.88289
-4.29637 117.117 -14.5764
-0.453622 114.19 -15.934
-21.2216 127.061 -6.29621
-20.7395 112.366 7.48163
-18.9425 122.008 -3.93587
1.74222 110.271 -14.6457
-1.23408 115.119 -16.2131
8.84825 101.251 -13.4779
13.4184 90.2392 -7.62977
-27.3857 123.222 3.82017
-12.5888 121.777 -10.5958
-10.8252 93.4544 15.1244
-29.5444 127.849 1.57522
-17.2733 106.551 9.2135
-10.8971 120.651 -11.3583
-3.84371 116.53 -14.9239
13.9843 87.7165 -5.89934
-13.0566 121.82 -10.284
-23.5394 120.803 1.89872
0.579017 111.839 -15.274
-19.3868 112.648 5.28804
-3.13043 80.7647 18.9793
-29.4332 128.174 0.86595
-20.656 112.096 7.1565
-11.1106 93.1526 15.2664
-19.148 118.46 -0.886001
-20.369 122.074 -3.11105
-21.5365 126.714 -6.44137
-5.39292 84.0612 17.8887
-11.1516 120.48 -11.5559
-28.7138 124.353 3.43888
-12.8682 99.3964 10.8108
-29.9054 127.29 1.80267
-19.8894 121.541 -3.30988
-12.7759 98.5654 11.4861
7.49155 102.923 -14.449
-19.7542 112.214 5.60009
5.58775 105.109 -14.5999
9.44584 99.1209 -12.8968
10.4376 97.3111 -12.2785
-19.3871 118.293 -0.854166
-12.8919 121.078 -10.5525
-4.40001 116.216 -14.9025
-19.1257 120.35 -3.22512
-19.4304 113.251 3.95311
3.21181 107.503 -14.6844
11.0766 95.5522 -11.4622
8.8525 99.8638 -13.2924
-12.2281 96.0281 12.9907
13.8989 86.7057 -5.89449
13.0522 89.3269 -7.54865
-6.02736 116.971 -14.1158
-3.82879 81.6207 17.9993
-24.5157 127.501 -4.63002
-11.4915 90.7797 17.2318
-24.5371 120.988 1.71884
-0.284363 112.448 -15.9239
-17.7382 121.582 -6.1865
-29.9177 126.245 2.29122
-20.184 121.529 -3.57056
-1.24001 113.79 -16.368
-16.0125 120.354 -6.99469
-19.4261 112.865 3.91965
-13.0243 97.701 11.8622
-19.8679 116.668 0.64544
9.6636 97.9956 -12.726
-4.49097 82.5403 17.3588
-4.83075 82.8761 17.3827
-11.6855 119.424 -11.0759
-29.4462 124.479 2.98186
-29.6133 127.547 0.167461
-14.4149 120.406 -9.12721
11.4513 93.223 -10.3031
-12.8863 96.4411 12.552
-29.7749 127.288 0.50751
-8.79499 117.982 -12.8856
-4.30417 114.848 -14.6666
6.85705 102.386 -14.5101
-19.8934 107.898 8.59619
-15.2102 102.053 9.28229
-15.4483 102.332 9.19972
-22.3447 125.624 -6.2122
-21.9041 110.891 7.68289
-28.2154 122.302 3.25921
-21.3884 110.985 6.97774
-19.99 115.038 1.52522
-27.2136 127.431 -2.85133
-5.57231 115.146 -14.0576
-10.388 88.0008 17.5461
-12.6112 119.358 -10.6642
-20.2632 117.574 -0.828068
1.40189 108.125 -14.7873
-1.64619 112.868 -16.1748
-27.854 121.837 3.09384
-17.0421 103.837 9.03705
-13.6605 97.978 11.0997
1.23696 108.292 -14.9156
-26.3957 120.839 2.34666
10.7428 94.2041 -11.4349
-19.5305 111.794 3.72792
2.69151 106.411 -14.7974
-12.5845 118.822 -10.5753
13.0122 87.6197 -7.58346
-12.9265 93.9822 13.9366
-21.6216 122.711 -4.78387
-5.36061 82.3531 17.1613
-0.496018 111.329 -16.3022
16.2478 78.6899 -2.4226
-12.8378 91.706 15.9826
-8.66003 116.537 -12.757
-29.0493 126.802 -0.96501
-21.0595 119.628 -2.55523
-13.9658 118.962 -9.55912
-20.2756 111.081 4.84199
13.2712 86.255 -6.90238
-16.4601 119.025 -7.08327
3.13522 105.378 -14.7544
8.30337 98.7731 -13.8405
-15.9871 118.453 -7.05755
3.55387 104.829 -14.7018
-11.276 117.051 -10.8211
14.6839 82.5189 -4.90496
-24.5095 125.707 -5.12089
-23.362 122.582 -3.32918
-23.0234 123.247 -4.34648
-21.185 120.439 -3.57743
0.142956 109.649 -15.8924
-11.5346 116.945 -10.5228
-3.77019 112.61 -14.5983
-5.51522 81.9616 17.118
11.1069 92.2978 -10.8031
9.74085 95.9096 -12.8967
-20.8495 116.625 -0.388627
-11.0744 116.734 -10.9505
1.05366 107.71 -15.1863
-15.401 100.875 9.04919
13.6823 84.4069 -5.99213
-10.8429 116.587 -11.1549
6.85026 100.716 -14.6043
-7.65727 84.518 16.7066
13.1172 86.1712 -7.15643
-5.18521 80.1035 18.2775
-6.75379 113.618 -12.8235
-5.2456 80.0936 18.2574
2.70151 105.174 -14.7245
-23.5934 124.67 -5.69134
-6.13646 113.083 -13.0641
2.82448 104.857 -14.7071
-13.4588 91.5226 15.666
8.59913 97.4395 -13.7453
14.6577 81.225 -4.63944
-6.49009 112.686 -12.7207
-13.2552 89.6568 16.97
-10.237 115.465 -11.44
9.74577 95.0281 -12.8908
6.19028 100.604 -14.5387
-20.8086 113.152 2.06168
16.0996 77.3481 -2.52872
-2.11059 110.995 -15.9079
-19.7137 118.794 -4.70989
-21.3678 107.756 7.79662
-13.2721 89.0797 17.3296
-19.7211 117.762 -3.75356
13.1752 84.8359 -6.82267
-17.5475 118.656 -7.16996
-1.85492 110.294 -15.8703
-13.5791 89.6307 16.7884
-23.0452 120.985 -3.69593
13.1559 84.5036 -6.83256
-22.5358 121.147 -4.41569
-6.80472 111.994 -12.3216
-1.09248 109.522 -16.0243
-5.87131 111.583 -12.9757
5.22624 100.846 -14.422
-21.2866 115.59 -0.450212
15.6102 78.2815 -3.57266
-9.56719 82.8488 18.8291
14.6644 80.3555 -4.67148
-30.5749 124.69 0.456341
-30.7289 122.921 2.29309
-20.5791 116.734 -2.55561
-15.0392 117.074 -8.8179
-13.8947 89.9193 16.4319
-10.322 85.4267 16.9913
-4.00803 111.026 -14.7279
-19.9931 117.351 -3.80793
-10.8374 86.1229 16.8533
-19.1712 119.033 -6.40016
-7.95824 111.982 -11.5629
-18.4578 103.277 8.09977
-11.9115 114.227 -9.65689
-9.94356 113.338 -10.9175
-5.9541 111.098 -13.0155
-15.6794 116.565 -7.95441
-17.0307 116.735 -6.68155
-19.918 119.176 -5.97829
-19.1132 103.921 8.03951
-13.4034 116.279 -10.1197
-17.4723 102.012 8.14464
-20.1764 117.713 -4.33128
-17.5989 102.137 8.09342
-29.2057 124.389 -1.20997
-11.6158 113.877 -9.77974
-8.08528 111.604 -11.3512
-21.8963 109.435 5.5131
8.68607 95.5724 -13.7105
15.0588 79.0916 -4.46564
-11.5462 113.694 -9.80132
-10.8785 85.2989 17.1249
2.68649 103.06 -14.7568
-28.1139 123.604 -1.88286
0.492716 106.633 -15.9263
-20.2698 110.659 2.31066
-21.1633 109.784 4.11045
-16.5026 115.965 -6.92263
13.8369 81.2764 -5.56765
-19.4478 118.244 -6.04331
-14.5442 91.1507 15.0979
-21.2199 116.419 -2.41161
-23.0483 120.072 -4.04407
13.5669 81.7745 -5.88202
10.083 92.1645 -12.3205
-14.6907 91.0356 15.2586
-25.7841 122.809 -3.88301
-18.8438 117.617 -6.26008
-25.0059 121.345 -3.38722
7.10462 97.26 -14.2724
5.36915 99.2494 -14.3621
13.5555 81.5836 -5.89442
-30.5895 124.037 -0.102366
-8.70055 81.7601 17.7159
-14.5452 92.4479 13.541
-12.8662 87.4307 16.5829
9.87397 92.4099 -12.5989
-9.53093 82.6851 17.6356
-9.01285 82.3476 17.3869
-23.3855 119.081 -3.10964
-19.8846 104.103 7.73149
-12.595 113.729 -9.46793
14.6277 79.1632 -4.89499
-22.8582 108.816 6.27005
-11.7375 112.678 -9.41361
-18.7594 117.031 -6.15682
10.8773 89.3051 -10.9049
-23.1138 119.435 -3.96872
-21.4842 116.227 -2.59369
-11.2142 84.4966 17.311
-22.1282 108.993 5.07024
11.9314 86.2092 -9.15565
-29.9137 121.613 1.01294
-2.90992 108.547 -15.1226
5.9498 98.0171 -14.3375
-20.8221 111.763 0.886772
-8.45606 82.1996 16.4873
-11.6207 112.139 -9.38646
-30.608 122.152 1.08248
-30.8715 123.248 0.238776
14.195 79.4891 -5.29721
14.6443 77.17 -3.54188
-18.6116 102.215 7.57613
-18.4198 101.906 7.64515
-5.28329 109.77 -14.0745
14.4702 78.5832 -4.81999
6.22672 97.3855 -14.3482
10.4381 89.973 -11.6344
-19.2028 116.054 -5.37332
-19.0955 116.006 -5.44603
-15.6556 90.9926 15.2572
-28.6805 122.375 -1.42078
-9.87868 110.776 -10.289
13.8326 79.9457 -5.63285
2.76338 101.436 -14.7749
-19.378 115.821 -5.12894
-20.2905 116.689 -5.00774
-10.4176 110.805 -9.8982
-18.2417 115.224 -5.86266
-15.0551 88.6918 16.5638
-15.2409 93.1719 12.3186
-6.45803 109.659 -13.1635
-15.8159 115.204 -8.59149
-15.2395 93.4985 11.9299
-20.6312 116.233 -4.50427
-13.55 113.267 -9.19236
-21.7285 114.603 -1.95317
0.924125 104.058 -15.9426
-19.9951 115.121 -4.39135
-13.1839 112.198 -8.82418
5.11929 97.9536 -14.5198
-4.78741 108.935 -14.668
-12.9045 86.1155 16.2095
12.7758 82.5248 -7.77983
-4.34543 108.281 -14.6057
-25.3444 119.059 -2.69166
-5.36446 108.917 -14.1978
-28.3088 121.188 -1.65039
-13.128 84.4839 17.8913
0.256367 104.753 -16.2538
-26.6907 120.797 -3.08697
2.17563 101.512 -15.1559
-15.7781 93.436 11.8774
-4.58552 108.195 -14.5244
-26.2139 120.382 -3.29509
-17.7223 99.5376 7.86317
-26.8049 120.369 -2.80656
-15.8226 94.8687 10.3075
-5.90283 108.673 -13.7983
-10.5872 82.3812 16.8346
-28.857 120.846 -1.16784
-4.73968 107.993 -14.4337
-28.7259 120.846 -1.32432
-28.886 119.76 -0.11306
-12.6862 83.2647 18.1149
-17.1126 97.8974 8.55239
-6.99802 108.781 -12.8795
-16.2971 92.609 12.7888
-6.8105 108.622 -13.0621
-27.4969 119.699 -1.76023
-17.2692 98.0148 8.43068
2.51497 100.274 -14.9906
-11.7984 82.6685 17.4229
12.3363 82.7869 -8.51895
-13.602 84.1874 17.8122
-18.9988 113.992 -5.55173
11.3812 84.9896 -9.77228
-17.0236 91.4791 14.2237
-20.7113 114.153 -3.9611
-15.4549 112.828 -8.42672
-21.6608 113.002 -2.00215
-5.23452 107.45 -14.177
13.2702 79.1149 -6.33836
-21.6137 112.248 -1.4817
-2.67118 105.795 -15.4895
-17.4191 91.8513 13.5991
-17.8175 113.176 -6.77936
-14.1297 84.0179 17.6667
-19.7786 101.244 6.87986
2.61721 99.2969 -15.1827
7.23705 93.3914 -14.3757
-4.90274 106.335 -14.0526
-14.2175 85.4925 16.1433
-20.1443 101.595 6.73865
-12.4661 108.994 -8.74651
-14.6571 110.079 -7.48227
-3.79922 105.51 -14.6527
-23.1847 107.324 4.26128
-1.6754 104.413 -15.9629
-21.9028 103.466 6.51922
-11.5777 108.545 -9.48672
-17.247 112.881 -7.68446
-17.3233 93.4667 11.1887
-22.9085 104.685 6.18995
-22.6917 104.346 6.28209
-23.5414 106.74 4.83821
9.43422 88.4414 -12.5891
-17.4063 112.672 -7.55608
-17.9163 90.7346 14.3617
-14.1076 82.5823 18.2227
-14.6249 83.3304 17.9902
-2.92239 104.758 -15.4551
-13.5611 108.433 -7.6964
-8.14676 107.112 -12.3005
-15.5845 110.481 -7.64089
-14.2608 108.499 -7.21563
-13.0255 108.052 -8.11912
11.8883 81.0554 -8.4794
9.9088 86.6053 -11.7861
-22.7309 103.935 6.20686
11.4409 82.3828 -9.37098
-20.9506 101.793 6.30833
-23.1452 107.229 3.31448
10.3674 85.1999 -11.0595
-23.0762 104.286 6.08309
-3.28487 104.415 -15.2691
-21.6954 111.645 -2.65937
-19.2084 112.209 -6.03777
-17.9514 93.1454 11.1048
-21.4189 112.085 -3.66823
-21.6865 111.118 -2.46276
6.49375 92.5777 -14.6233
-15.7747 83.2293 18.2135
-3.15947 103.737 -15.3508
-17.95 94.9646 9.01184
3.04775 96.9587 -15.3928
-6.61933 105.456 -13.3485
-15.9226 83.7776 17.6935
10.0724 85.0555 -11.4184
-16.1555 83.7098 17.8959
-17.0543 110.522 -7.29247
-17.0316 110.493 -7.30492
-18.9236 110.531 -5.3651
11.8522 79.5275 -8.08488
-16.4963 84.5432 17.325
-17.2238 109.89 -6.63155
-2.8472 103.184 -15.5004
-13.127 106.54 -7.82361
-20.1363 111.527 -5.24937
-20.6171 99.9394 6.53893
-16.1688 85.9578 15.3567
-21.1032 108.296 -1.15991
-15.7438 107.979 -6.64961
-21.3182 107.808 -0.564776
8.70987 87.5115 -12.9507
-9.86047 106.266 -11.4007
-20.8492 111.074 -4.35134
-19.2866 96.7924 7.88743
-11.5189 105.757 -9.1681
11.4021 80.3713 -9.00995
-18.4905 93.1288 10.4458
11.8772 76.8283 -6.26451
-0.540301 100.63 -16.2153
-7.97314 105.152 -12.7107
-17.1358 86.53 15.1098
-12.8144 105.322 -7.9499
9.40151 85.4092 -12.292
10.8213 81.2865 -9.84561
9.14191 85.7303 -12.4413
-20.6671 110.296 -4.53447
-23.0378 102.663 5.39563
-10.2135 105.45 -11.0626
-1.8603 101.301 -15.9619
9.79771 84.0749 -11.6711
8.06793 87.645 -13.382
-23.6056 103.124 5.28214
-14.3822 105.777 -7.22482
-19.5706 89.606 14.0649
-4.94108 102.643 -14.3032
10.899 80.2227 -9.44712
-17.1205 83.7186 16.9712
10.9152 79.9339 -9.33067
-17.1751 83.8203 16.8455
-18.1791 86.7067 15.0407
-17.7554 86.2234 15.0478
-8.95237 104.394 -12.1497
-17.1547 83.5847 16.895
7.23855 88.5066 -14.002
-3.81084 101.47 -14.9302
-23.5499 105.827 1.85262
-9.65622 104.568 -11.8028
-17.6425 107.141 -5.89285
-8.9698 103.892 -12.0456
-10.3369 104.469 -11.159
-20.1168 95.8396 7.67476
-2.468 100.459 -15.7962
-5.67779 101.943 -13.8462
-19.1623 88.2335 13.8537
2.74203 94.2236 -15.5171
-19.8472 107.054 -3.89771
-7.92734 102.533 -12.246
-3.92959 100.669 -14.7203
-20.1863 107.29 -3.80336
9.52945 82.6998 -11.6036
-22.3126 106.076 -0.42973
10.5054 77.8992 -8.12299
-19.3448 86.901 15.0137
-0.541799 98.1431 -16.1191
-21.3234 97.5119 6.6585
6.00149 89.3806 -14.65
-10.4151 103.652 -11.2132
-18.7375 84.7779 16.0042
6.53389 88.1222 -14.2881
-17.3653 104.907 -5.12167
10.473 78.6567 -9.29327
-15.3499 103.56 -5.97188
9.00892 83.021 -12.0703
-18.8983 84.8013 15.9418
-18.6392 104.858 -4.0782
-16.2877 103.528 -5.38357
-0.446253 97.0095 -15.9993
-23.7206 100.805 5.14301
-23.9542 104.225 2.02483
-14.9954 102.552 -6.11445
-17.6893 104.041 -4.716
-12.1023 102.619 -9.34262
-20.2363 105.712 -3.70893
-18.9639 86.9653 13.1966
-7.4072 100.52 -12.6628
-13.2669 102.134 -8.06606
-18.6695 87.2593 12.202
-18.7921 86.8524 12.6179
-3.95051 98.7284 -14.869
-2.63425 98.1177 -15.7219
-4.15459 98.7102 -14.7328
-21.1659 90.6729 11.0024
0.652962 93.8767 -15.4671
8.66067 80.804 -11.3506
-16.8969 102.37 -5.06358
-23.3972 98.381 5.72492
-14.0276 101.46 -7.39469
-21.2237 90.68 10.8142
2.4491 91.473 -15.4178
-14.7046 101.177 -6.70212
-23.6121 100.16 3.69135
-19.6944 88.2534 11.061
-1.85054 96.263 -15.8365
-17.9448 83.0299 14.2347
7.8775 81.4947 -12.0843
-21.7599 103.984 -2.42958
-23.9723 98.6788 5.04177
-4.99636 97.6258 -14.3235
-17.645 101.078 -4.16826
-23.255 100.851 1.75598
8.8076 77.6379 -9.91022
-10.4907 100.095 -11.1919
-23.2735 102.687 -0.0651192
6.04013 84.8608 -14.0975
5.74614 85.2896 -14.2337
-4.35173 96.878 -14.779
-10.804 100.148 -11.0768
-19.7046 83.915 14.2533
-22.6696 95.0522 6.55831
-2.86027 95.8025 -15.4364
7.21042 82.177 -12.9589
-22.856 100.143 1.62447
-15.2391 100.131 -6.60434
-18.6955 85.3821 11.4614
-18.458 83.0954 13.4071
-19.7711 100.783 -2.47087
7.02462 82.4836 -13.3137
-15.514 100.075 -6.39191
-19.4335 83.5202 13.8655
-14.7371 99.8921 -7.22517
-20.0558 88.3078 9.72921
-18.8171 84.4136 12.1062
-14.1785 99.8567 -7.92116
-18.7682 85.8264 10.6623
0.535064 91.407 -15.4383
-23.4445 95.926 5.72598
-21.4316 100.866 -1.2499
-21.5517 90.1345 9.27983
-23.4912 95.7859 5.79224
-15.0279 99.6337 -7.0525
-6.83583 96.8957 -13.2088
2.75828 88.5591 -15.3655
-23.4172 94.7284 6.46017
-7.57094 96.8105 -12.6482
-9.89797 97.4968 -10.8939
-21.4761 100.31 -1.32258
-22.762 92.4321 7.68478
-10.5423 97.6567 -10.5084
-20.8291 100.084 -1.87702
5.07736 84.7522 -14.6319
-1.44557 92.8867 -15.6557
-22.5824 91.7902 7.96321
-5.8095 95.6101 -13.8129
2.40637 88.1267 -15.3533
4.84055 84.8144 -14.796
-13.8741 99.2941 -8.91574
-23.0097 93.0481 6.75606
-23.7872 95.9723 4.70831
5.54853 83.3001 -14.4595
4.54263 84.9487 -14.9994
-18.8368 82.4275 12.4449
3.2481 86.1158 -14.8237
-21.8022 99.6502 -1.25327
7.53772 76.969 -10.5178
-19.9251 87.9073 8.10828
5.4127 83.326 -14.5229
-19.5722 87.5674 7.82959
-18.4495 81.7494 12.2765
-18.8593 86.8302 7.75525
-23.4997 95.4465 4.02714
-8.36816 95.4342 -12.2781
-23.3703 94.6423 4.50544
-22.2436 95.9492 1.90398
-5.61367 93.7632 -13.8707
-22.2842 90.7707 6.84833
-22.2002 90.6828 6.7578
-11.9504 96.3821 -9.84817
-21.5747 95.7656 1.04157
4.19473 83.8028 -14.941
-12.4585 96.6198 -9.66045
6.6997 78.2023 -12.3236
-15.6767 98.0132 -7.75686
0.885505 87.1587 -15.025
-19.6708 83.4349 10.4877
-16.1068 97.8536 -7.38568
-22.6568 93.3351 4.01181
-18.3507 81.8469 10.5504
-12.3457 96.0463 -9.78607
-17.7023 81.6917 9.9121
-21.328 97.9 -2.03377
-0.322743 88.157 -14.9974
-10.0268 94.783 -11.0847
-3.27919 91.4368 -15.0386
-3.37031 91.4897 -15.0472
-20.3259 97.8385 -3.12878
-19.5609 84.1402 9.40139
-6.65772 93.4082 -13.5376
-10.582 94.69 -10.6632
-22.2463 92.4198 3.96931
-12.0975 95.5343 -9.94164
3.02562 83.9708 -14.8448
1.34706 85.3853 -14.6608
-22.3281 93.6384 2.59597
2.63202 84.0687 -14.8051
6.81299 76.8371 -12.2282
-2.70357 89.7311 -14.6539
-13.5707 96.2535 -9.41126
-21.7203 94.6428 0.871166
-2.84574 89.7641 -14.6219
-3.44993 90.2466 -14.5675
-19.9147 97.1875 -3.73517
-3.62931 90.0739 -14.4787
-20.374 96.7349 -3.08123
1.77298 84.2979 -14.7373
6.17048 78.0945 -13.3939
-14.8864 96.4326 -8.76012
-15.6359 96.7247 -8.2453
-16.6523 92.966 -3.58486
-16.3018 93.8517 -4.82557
-1.9763 88.0676 -14.5182
-16.472 94.1942 -5.02355
-14.1796 92.3075 -5.69394
-21.1555 88.9851 5.001
5.35982 77.0496 -11.8026
-2.63849 88.4336 -14.3892
2.49623 83.1669 -14.7747
-10.4988 93.4992 -10.992
-13.8657 92.1078 -6.03768
-15.7743 94.2893 -6.15766
3.47181 81.6899 -14.4599
6.31114 76.5536 -12.4995
-20.3825 95.9277 -2.88156
-20.9432 95.8653 -2.23019
3.63612 81.3103 -14.3828
-22.1291 90.7297 3.90033
-14.7291 92.7932 -6.04426
-9.9025 93.1112 -11.5213
5.18322 78.1381 -13.0783
-19.7918 86.7684 5.17377
-12.5473 91.1635 -6.87726
-10.6908 93.2042 -10.8956
2.78806 81.9645 -14.4438
2.483 82.3019 -14.4765
-17.5434 92.5043 -3.07538
-13.77 92.4196 -7.10364
-19.4767 93.9672 -2.55739
-20.7442 87.9904 4.57759
-12.1444 90.8844 -7.46673
-18.4261 93.0936 -2.921
-20.2326 87.2533 4.68595
-19.6292 86.198 4.99354
-13.7833 92.4757 -7.45274
2.64713 81.2699 -14.1538
-19.7654 93.7172 -2.34401
-17.6157 91.7777 -2.78204
-1.12218 85.7401 -14.5697
-14.9319 94.5443 -8.41512
-21.7743 91.8699 1.48426
3.788 77.1248 -11.4797
-18.1741 87.3995 1.95551
-20.0475 89.0878 2.25295
-20.5003 93.5934 -1.69623
-17.0716 87.1389 0.886521
-11.2258 92.5004 -10.6235
0.547169 83.5347 -14.4731
-4.40506 88.3345 -13.8745
-21.9441 90.0791 3.1469
2.50961 80.8208 -13.9774
-10.8227 88.0342 -6.76104
-20.4313 92.3497 -0.701733
-17.5647 91.0593 -2.53283
-6.24816 90.4439 -14.1705
-18.3472 91.6287 -2.46897
-18.4605 82.707 6.31474
-20.3822 92.6076 -1.32667
-20.123 92.9412 -1.94659
-19.9735 86.7301 3.91944
-19.551 81.4221 8.5587
-16.7058 90.3786 -3.29075
-19.3336 85.5967 4.14493
-17.2026 86.8061 0.604734
-13.356 92.133 -8.80034
-13.7945 92.4125 -8.62876
-5.21663 88.4022 -13.8959
-16.5406 89.9874 -3.36642
-15.1433 90.149 -5.05126
-13.657 92.7794 -9.21967
0.270672 82.0015 -13.6165
-16.3575 89.8733 -3.54559
-18.1517 90.1437 -1.89879
-15.6051 89.9607 -4.45163
-8.56994 90.7772 -12.8817
-12.2717 91.111 -9.30432
-8.15453 90.4163 -13.2323
-10.3709 89.2835 -9.81697
-17.506 85.4572 1.49808
-18.6829 89.6099 -1.41214
-1.9796 84.1476 -13.9892
1.49016 78.9943 -12.7105
-9.80923 90.4772 -11.8488
-18.6506 82.9322 4.95848
-21.0005 90.2187 0.338556
-3.42106 85.245 -13.6455
-9.15912 87.4512 -9.66106
-11.8458 91.1035 -10.4706
-3.97824 85.8646 -13.7829
-20.3005 90.2117 -0.635235
-0.0253392 80.628 -13.0007
-3.15753 84.6266 -13.5907
2.10464 77.3136 -12.2572
-19.497 82.3508 5.8421
-12.2155 86.0405 -5.59193
-10.6914 85.8743 -7.09611
-5.26534 86.7833 -13.7912
-8.76919 88.7274 -11.9781
-19.9001 89.4114 -0.741951
-19.6779 82.0319 6.15682
-10.6636 89.7737 -11.1086
-1.96456 83.1218 -13.9756
-19.5336 83.7806 4.16749
-0.151911 79.4174 -12.3857
-8.81317 87.1978 -10.8666
-0.418275 79.0107 -11.9875
-9.56882 85.6758 -8.72806
-19.0489 86.0398 0.982035
-9.20914 88.0291 -11.5186
-8.86105 87.2911 -11.1975
-3.77793 84.2513 -13.6988
-7.80873 86.0807 -11.1727
-16.1668 86.6029 -2.90701
-8.21314 87.3444 -12.1505
-13.9354 85.1624 -3.92791
-7.74737 87.1512 -12.7368
-8.58946 85.1562 -9.91077
-0.55087 78.3085 -11.9043
-5.85349 86.1959 -13.9819
-1.93794 81.4706 -13.6203
-19.9695 85.102 1.96993
-12.0728 84.9556 -6.37747
-15.9957 86.4321 -3.64175
-17.0074 85.6604 -1.86351
-20.2693 82.239 4.65022
-18.621 85.7499 -0.637342
-19.1478 85.7097 -0.0400618
-5.26965 84.8998 -14.1247
-7.15786 84.9116 -12.146
-15.8904 85.6459 -3.65917
-12.9021 84.4909 -5.753
-20.266 83.136 3.40051
-13.1523 84.3773 -5.45932
-0.817116 77.3394 -11.8038
-3.21143 80.5292 -12.4125
-20.0597 82.1943 3.94002
-5.35471 84.3726 -14.0105
-18.997 86.1637 -1.34925
-10.5506 84.0784 -8.5392
-6.15137 84.3986 -13.6603
-19.8755 84.4072 0.934391
-19.4532 85.8663 -1.14669
-9.19621 83.9826 -10.4997
-5.25342 82.4004 -13.4125
-6.56249 83.6212 -13.2215
-19.9807 82.9341 1.49867
-15.2514 83.6529 -4.52491
-5.01207 79.4121 -11.484
-19.04 85.3333 -2.36948
-15.948 83.8512 -4.31285
-16.5422 84.1143 -4.10017
-19.9345 83.2283 0.172924
-12.1832 82.6134 -7.81759
-7.02583 81.7739 -12.5909
-5.69648 78.8807 -11.2318
-11.1687 82.5873 -9.01931
-20.2802 82.5884 0.723538
-4.45877 77.3236 -11.3126
-7.92414 82.0173 -12.2264
-14.9178 82.5338 -5.30806
-14.0583 81.8087 -5.88542
-20.2985 84.5104 -1.89635
-9.15507 81.843 -11.2417
-5.24684 77.3934 -11.111
-10.2684 81.8488 -10.4465
-11.4542 81.7899 -9.33628
-12.4865 81.7565 -8.20978
-12.3613 81.7552 -8.3671
-12.0626 81.7235 -8.7648
-9.50493 80.7739 -10.9283
-21.1297 83.1087 -0.82843
-16.4213 82.3697 -5.1997
-9.94234 80.7697 -10.5933
-9.11523 80.1855 -10.9332
-14.6241 81.2013 -6.16416
-10.3296 79.9665 -10.1898
-10.0365 79.2493 -10.0598
-9.98589 78.5421 -9.98298
-14.7184 79.782 -6.71922
-17.1722 80.7611 -5.06155
-21.067 81.5771 -1.84722
-13.5694 78.8779 -8.27484
