ply
format ascii 1.0
comment Created by Open3D
element vertex 2012
property double x
property double y
property double z
end_header
-9.79292 96.816 9.12051
16.7115 107.234 5.59793
13.8881 102.335 0.0895775
19.0102 110.341 8.61184
6.86458 105.976 10.6351
8.27967 98.5417 -1.93007
23.2301 110.866 5.94012
-15.7434 89.4452 1.64186
17.7441 114.79 15.9276
16.5187 104.213 0.478614
-0.552597 104.383 13.3417
-9.90953 97.2447 9.19243
-8.57961 88.8257 -4.83557
3.8381 97.5742 -0.516135
6.7584 106.275 10.6996
15.9491 104.122 0.555411
9.24455 107.234 10.2353
6.15348 98.4277 -1.14619
-1.1713 104.368 13.4276
19.1395 111.535 9.35217
-13.1778 93.4968 5.34801
9.33113 107.498 10.2934
0.0708004 104.808 12.9797
1.78641 104.878 11.7913
24.0648 115.995 12.3436
-12.7323 94.2711 5.90429
-11.6923 89.2005 -2.75276
-13.8717 89.3507 -1.06346
6.83679 106.911 10.7229
-1.83068 93.9188 -2.95878
12.9074 108.054 7.92577
18.2721 113.476 11.937
9.29733 100.455 -1.55691
-1.63693 94.3218 -2.98669
21.5982 110.377 4.57626
4.44861 106.44 11.1545
17.001 114.331 13.9428
11.1747 108.919 9.82011
-11.5261 89.5241 -3.36815
10.9065 101.285 -1.85155
3.32871 106.127 11.2279
17.1016 115.415 15.3449
-7.9227 90.0659 -5.36495
14.6558 107.729 5.22302
19.3724 107.057 0.683582
22.0461 111.208 5.11203
15.536 108.213 5.27191
-4.62219 103.437 12.7835
-14.7572 91.8013 2.26295
7.63264 99.6381 -2.2133
-14.5457 92.1154 2.56693
5.31891 99.3159 -1.11529
6.39476 107.711 11.0558
12.8712 103.807 0.176561
-4.65264 92.985 -3.69177
11.6211 109.353 9.49593
-15.7546 91.0362 1.44314
10.4465 109.324 10.2392
-13.7838 93.6316 3.84383
-0.824875 105.939 13.2298
15.4795 105.788 0.901012
5.21918 99.5989 -1.12548
-11.0711 97.9709 8.33455
-1.37545 95.4125 -2.79632
-13.0579 95.1263 5.39379
-6.81643 102.105 11.4552
4.09042 107.2 11.2364
24.501 115.462 8.86468
9.4603 109.374 10.5823
-6.81567 91.5732 -4.89282
18.5635 107.51 0.954762
4.40949 107.421 11.2321
22.3565 111.933 4.88265
17.1168 114.668 12.8908
13.9307 105.504 1.0044
-10.1918 99.148 9.0261
-5.37077 93.162 -3.79793
-1.1383 96.1223 -2.41127
24.3588 115.728 8.9783
23.6897 114.02 6.78613
-9.74189 99.7209 9.36651
19.9947 117.702 15.1098
7.57418 109.048 10.8845
-4.5671 104.609 12.9861
-15.2043 90.3337 -1.28969
23.6857 114.406 7.08597
17.7363 110.518 5.45794
-7.96477 101.702 10.8018
17.5797 114.743 12.0074
-13.4285 95.2904 4.702
-9.93389 100.024 9.33136
18.9663 108.317 0.759643
-14.3615 90.5223 -2.1077
-14.9874 93.2108 2.49324
19.4359 118.038 15.149
19.9202 108.804 0.442204
-13.6779 95.2828 4.39707
7.57458 109.637 10.8263
-13.4171 90.7936 -2.79913
18.699 117.846 15.2295
-14.5348 94.0738 3.05393
19.3218 108.764 0.521562
-7.86641 102.577 10.9212
19.0507 108.853 0.668386
17.6188 108.695 1.38367
16.9457 111.006 5.22796
11.1985 104.432 -0.703579
23.0211 114.397 5.85896
12.8562 106.406 1.03088
7.6131 101.626 -2.50577
-5.60264 104.918 12.3538
-10.9191 91.458 -4.51955
6.5288 109.732 10.7667
11.8758 111.152 8.94262
17.4868 108.967 1.40025
-12.7221 91.5779 -3.163
23.1167 115.32 7.01018
18.0975 115.359 10.7298
-14.4347 95.0827 3.44874
-0.653649 107.832 12.9249
18.039 109.216 1.21191
0.395149 98.0511 -3.05621
15.7486 108.465 1.66007
-0.830226 107.898 13.0481
-8.36436 92.5514 -5.196
18.5127 112.986 6.49772
23.3946 117.756 10.0513
-14.1742 95.9693 4.16647
17.039 117.578 14.4631
-6.13156 104.857 11.9239
-3.1095 107.515 13.7115
17.2114 111.793 5.24062
-0.519258 108.205 12.8083
-15.4766 92.0698 -1.08757
-15.972 93.227 1.05808
16.7819 116.709 13.0186
18.8552 115.122 8.98775
15.3845 108.805 1.77211
-13.4788 97.5733 5.71382
15.0457 108.735 1.83337
22.6797 114.859 5.64044
-15.7198 92.4074 -0.651601
22.8364 114.472 4.87531
-15.4336 94.6615 2.49652
-15.2253 92.0524 -1.69104
19.9472 110.517 0.774407
-14.7109 92.0305 -2.16247
7.00444 110.748 10.6891
18.854 115.398 9.05945
7.47478 102.61 -2.301
-4.34416 107.04 13.2196
17.643 116.217 11.1316
22.8115 114.426 4.46463
-15.6055 94.6635 2.34801
-1.75435 97.2806 -3.88145
14.3764 110.778 5.03658
-8.83845 93.0526 -5.22496
-15.7409 94.4911 2.01862
8.00003 103.079 -2.32169
-15.7581 94.4592 1.89441
-15.6912 92.7271 -0.840928
16.428 112.1 5.14928
-6.01344 105.917 12.1856
4.39651 110.102 10.9017
23.1379 119.181 10.9492
-10.5675 92.7275 -5.01638
-3.78054 107.963 13.5025
-4.05821 107.817 13.3883
2.77774 100.568 -2.87506
1.67843 99.673 -3.52227
4.09186 101.604 -2.38426
15.4147 111.895 5.0531
1.58239 99.6954 -3.62223
3.62593 110.188 11.0392
17.6371 110.222 0.698919
9.36682 103.8 -3.13064
-8.97418 103.577 10.0857
3.33232 101.294 -2.66733
18.6658 119.774 14.5376
-9.35975 103.392 9.89922
4.15158 110.512 10.8988
6.81876 111.656 10.6329
18.1513 113.844 5.55711
-14.4853 97.4938 4.42421
19.2351 120.081 14.3632
4.40542 102.115 -2.45857
12.884 108.883 1.65395
17.0487 118.947 14.1235
18.818 116.298 8.70718
-11.3987 101.377 7.98423
20.7701 116.537 7.57836
6.12471 111.519 10.6311
-12.773 93.4983 -3.27759
20.2319 112.761 1.99192
21.4808 117.033 7.64463
23.2902 119.323 9.83925
7.96132 103.958 -2.64845
17.9424 113.792 5.15816
20.9369 116.471 7.07929
-1.76028 109.584 13.1913
-10.888 93.5739 -4.88379
8.24276 104.099 -2.8045
-6.23332 106.89 12.2063
-14.9887 93.4463 -2.1568
13.4315 109.689 1.84238
-15.2897 93.6384 -1.73119
17.342 119.682 14.3226
-5.62683 96.4161 -4.70444
1.5105 110.209 11.3161
18.4553 110.868 -0.207571
21.3131 115.531 4.87157
12.366 112.492 6.78957
16.6135 113.452 5.06645
16.0852 110.588 1.03087
10.2971 113.869 10.3442
-16.0047 94.42 -0.288039
17.6437 117.581 10.5702
1.79718 100.577 -4.02077
17.9685 117.521 10.1963
8.8099 104.589 -3.22625
22.5056 118.661 8.27182
18.2302 117.597 9.78617
6.50002 112.539 10.6105
-13.562 99.9183 5.93815
-0.165253 99.3869 -4.80945
4.7811 103.111 -2.73325
-8.82396 95.0187 -5.24548
-0.16825 99.4459 -4.8176
-0.505766 110.556 12.574
4.77291 111.87 10.6956
15.2771 110.798 1.25609
12.1645 109.654 1.61573
18.0544 120.708 14.237
16.1289 110.951 0.567611
17.7988 117.998 10.2017
21.4654 121.189 12.3358
-6.31864 108.024 12.4429
13.0494 112.688 5.29221
-6.34836 96.7348 -5.02952
-10.9149 103.467 8.74708
20.277 117.084 6.69046
11.6915 109.503 1.29285
13.2461 110.76 1.95779
3.9097 112.04 10.7973
-0.923031 99.5146 -5.02952
-6.63435 96.7133 -5.15089
8.13088 105.067 -3.25071
17.9671 115.298 5.16555
12.0503 113.633 6.89166
10.7611 108.929 0.57429
2.00906 101.525 -4.40192
-7.68585 107.006 11.2364
18.0235 115.407 5.1909
-10.5132 104.388 9.25071
20.5742 117.375 6.20088
17.7373 121.165 14.1464
20.8789 117.47 6.09729
-0.484892 111.352 12.4505
-13.1202 95.1162 -3.3249
12.8358 113.292 5.52144
20.4085 114.79 2.22364
19.4908 115.55 4.0053
13.5896 113.224 4.77411
8.81678 106.082 -2.75604
20.0139 114.89 2.50178
16.5311 120.195 13.1091
-9.39799 105.964 10.2481
6.28237 104.933 -2.99701
14.0199 113.669 4.77161
13.9275 113.66 4.76135
-6.28787 109.243 12.8366
7.79648 114.656 10.7564
18.8714 121.923 13.7758
18.2552 118.687 9.20269
-4.16959 98.8388 -4.89903
-15.1413 98.5463 2.64751
-5.12401 98.2506 -5.27969
-9.84457 105.887 9.95539
14.9606 111.948 0.922342
-15.1188 95.5458 -2.24194
12.3249 114.302 6.35032
21.4282 122.077 11.5073
2.83429 102.919 -4.35494
-10.4627 96.0087 -5.23682
1.27457 102.049 -4.7393
20.1421 117.562 5.26731
-12.0346 96.2857 -3.88658
18.5481 118.63 7.97474
1.62507 112.626 11.1649
15.7859 115.072 4.43686
-11.3165 104.634 8.22887
-15.7301 97.9668 1.18909
6.20577 114.729 10.8461
-15.534 96.1959 -1.89807
-12.7879 102.926 6.46153
-0.731363 101.206 -5.12689
-4.58253 111.451 13.5172
9.36116 109.354 -0.0728242
21.085 121.438 9.91115
-2.36479 100.525 -5.10969
2.8175 103.309 -4.66243
-15.799 98.088 1.0209
-13.9554 101.343 4.63292
19.294 117.49 4.94442
12.6853 112.483 2.06071
11.1533 116.089 8.68332
-9.15073 97.1257 -5.6189
-13.9906 101.377 4.4904
15.3105 112.544 0.0384078
19.1136 114.195 -0.278524
18.4252 115.307 1.92943
-15.1219 100.027 3.02482
8.99703 109.477 -0.228304
17.5012 120.146 9.8955
-15.0189 100.246 3.16328
11.3901 116.296 8.31424
2.63652 103.686 -4.792
19.0847 115.249 0.871569
17.3621 120.364 10.0239
-14.6146 100.808 3.45124
8.17588 107.517 -3.06604
4.69605 114.987 10.9785
3.0592 114.157 10.8806
-7.16287 98.741 -5.47008
2.25718 103.665 -4.88805
20.5749 120.875 8.12238
8.18997 107.909 -2.7889
-14.2239 101.419 3.73717
-11.9358 104.895 7.41653
5.48587 115.686 11.1047
2.63279 114.216 10.9314
-3.69571 112.578 13.0512
18.5403 119.556 7.29435
16.8353 122.571 13.198
17.6317 123.081 13.3927
-10.4292 97.5165 -5.40055
15.4931 116.096 4.10296
-8.26236 98.5521 -5.64487
17.8932 114.099 -0.990447
18.6404 117.286 3.3741
18.8904 115.468 0.327122
20.5647 121.529 8.35597
17.3364 123.231 13.2524
12.7083 113.636 1.83114
14.3458 113.657 0.639751
8.05657 109.754 -0.754568
19.909 123.836 12.2082
-15.4314 97.593 -2.24632
18.0279 118.49 5.20491
17.3913 114.13 -1.07125
20.5188 121.919 8.60028
6.56939 116.988 11.1822
-7.02517 100.104 -4.99188
-0.10798 114.194 11.6622
3.09262 105.253 -4.53817
22.4328 121.417 6.05183
20.2116 122.646 9.54855
-9.48984 108.118 9.04425
19.5863 118.174 3.06622
10.2327 112.721 1.44762
-10.9773 98.3845 -5.06256
18.2448 120.828 7.9453
1.06557 104.245 -4.98845
-11.0312 106.79 7.8243
13.0552 114.2 1.44543
9.31916 112.073 0.882851
9.59839 112.381 1.14438
-9.4036 108.46 9.07282
14.244 116.46 3.93113
8.07806 117.873 10.6194
4.65648 116.757 11.4031
-4.49906 113.685 13.4152
1.89506 105.091 -4.6625
11.5062 117.999 8.15819
11.1148 118.215 8.72243
18.2168 121.144 7.92479
6.07962 107.524 -4.20441
11.2297 118.253 8.56271
9.63312 118.535 10.1684
-5.69836 101.45 -4.90175
14.1035 116.819 3.9958
15.0192 114.17 -0.887259
8.55156 111.993 0.491705
22.9158 121.426 4.41966
16.1301 122.329 10.7439
5.93264 107.852 -4.09819
0.0348177 104.423 -5.07528
7.32675 109.594 -2.48724
17.4325 116.562 0.755063
21.3033 120.025 3.23004
14.3455 117.086 3.82749
10.4585 118.852 9.40594
16.9651 114.819 -1.65734
21.1855 122.598 7.21892
3.82022 117.229 11.5509
18.9057 118.641 2.55822
18.2828 120.426 5.76618
21.0822 120.001 3.02178
9.25838 113.347 1.3794
-12.8136 98.9302 -4.58478
-13.108 98.9372 -4.37382
4.28538 117.626 11.588
-13.9298 104.285 4.44176
-5.8716 113.772 13.1238
-6.3795 113.404 12.8189
-14.6964 99.086 -3.22652
1.24224 116.09 11.2051
19.2105 125.216 11.9838
17.896 117.73 1.37806
17.2697 115.267 -1.99058
-6.45274 102.042 -4.93055
-2.64657 103.783 -5.0962
-15.575 99.3219 -2.43055
15.6807 115.033 -1.29952
21.3862 123.435 7.41863
17.3248 122.511 8.98514
2.82273 107.107 -4.1146
21.1714 124.062 8.50678
-2.71019 115.047 12.2097
-3.65278 103.509 -4.93589
-8.69256 110.758 9.99224
-9.45695 100.485 -5.3591
3.44545 107.661 -3.92037
21.418 120.683 2.87518
6.19063 109.091 -3.81707
-7.68522 112.087 11.062
12.5001 117.957 5.1945
10.5064 119.57 9.15081
5.9986 109.059 -3.79893
-16.3469 100.655 -0.277904
-3.72338 115.392 13.1322
6.84612 110.643 -2.04005
12.2372 118.532 6.05136
17.6307 120.243 4.68769
-1.38019 104.704 -5.2796
-14.5835 103.476 2.48871
6.61402 109.819 -3.41291
15.2506 118.504 3.61304
-9.14478 101.153 -5.15713
-10.5097 100.625 -5.08362
17.7346 118.269 1.239
3.15656 118.113 11.7107
16.2704 115.652 -1.83263
18.7598 119.427 2.12422
15.5959 123.59 10.893
4.56085 108.93 -3.66224
11.8627 119.516 7.26686
23.9893 122.934 3.57566
-8.64984 111.575 10.1569
10.3262 115.448 2.08261
16.5583 117.078 -0.128635
-9.66065 101.415 -4.96322
17.6055 120.685 4.61042
-2.71986 104.941 -4.69217
4.06541 108.968 -3.65436
5.08222 109.498 -3.5962
1.36863 107.16 -4.53266
21.4415 121.635 2.97872
-16.0351 102.556 1.20373
20.265 125.48 9.72288
24.9942 123.126 2.56399
22.199 124.546 6.73601
-12.7253 106.502 4.68872
5.38864 118.95 10.5067
7.50358 119.539 9.82404
16.1615 125.162 12.0574
10.1003 115.809 2.06134
4.06854 109.25 -3.61991
25.0794 124.876 4.96821
24.9027 124.149 3.92062
22.2816 124.619 6.55045
23.1498 122.645 2.85302
-8.65888 102.472 -4.8106
-4.64175 116.205 13.3755
-16.1962 102.537 0.798524
23.132 123.216 3.64059
-4.74917 116.198 13.354
23.1785 123.437 3.76211
-6.24155 115.385 12.9952
16.2561 116.455 -2.01309
5.87524 119.397 10.1638
17.2514 126.123 12.0928
-12.4708 100.844 -5.02797
23.0545 124.302 4.88322
23.5371 124.568 4.93141
17.2412 118.735 0.564921
23.4726 122.293 1.45336
7.22878 119.859 9.62205
-16.2599 102.847 0.702225
22.8414 122.844 2.67193
16.954 120.846 3.81657
17.9605 122.509 5.54582
-11.5896 108.743 6.12185
24.3496 123.109 1.69736
17.6833 121.787 4.57783
16.7653 124.305 9.09455
9.13132 115.995 1.83048
-6.84095 115.091 12.25
0.292021 118.098 11.5614
16.8174 126.358 12.0764
12.9008 116.136 -0.826361
17.3815 124.183 8.19037
7.75606 115.121 1.28119
-15.67 102.431 -1.06392
1.26557 108.295 -4.54769
0.815704 108.185 -4.50947
15.2579 116.467 -2.44717
-15.6179 104.333 1.57119
9.64661 116.748 2.0484
-7.14933 114.877 11.4267
22.7421 122.894 1.62132
-8.33695 113.484 10.0706
11.173 116.677 0.510382
17.3118 126.519 11.1688
-1.13094 107.988 -3.8901
-9.37668 112.143 8.62851
0.0295657 118.493 11.4342
16.1466 125.099 9.51059
17.921 123.455 5.64051
17.3106 126.591 10.9375
17.2913 124.745 8.09443
22.8373 122.77 0.915179
22.7368 122.865 1.12474
-11.7706 110.093 6.89974
-3.47507 107.287 -3.62978
20.6251 126.482 8.1416
11.6179 121.788 7.53822
-15.3194 103.339 -1.09323
20.5799 126.552 8.15834
-4.12331 118.12 13.3731
18.9143 126.705 9.5856
-11.2459 102.654 -5.29416
-1.72697 108.37 -3.51339
-15.5034 103.705 -0.582053
24.0815 124.223 1.82386
22.0734 125.131 4.60202
-7.68443 104.439 -5.38353
4.56319 120.506 10.3805
8.51953 121.82 9.34383
26.0456 125.449 1.938
17.9785 124.093 5.78952
5.16448 112.093 -3.30022
-15.2071 106.44 3.01578
-2.5803 108.419 -3.28289
22.1005 125.63 5.03512
-5.66255 117.665 13.1792
-7.33268 115.473 11.021
5.56015 113.837 -1.10432
23.9806 123.678 0.420686
-11.5913 111.14 7.24377
0.807352 109.684 -4.20313
2.81941 111.201 -3.39932
26.0953 125.439 1.33957
-8.20156 114.779 10.1803
2.32912 120.437 11.1086
6.33658 121.231 9.35849
22.0484 121.326 -2.20375
-13.4052 109.752 6.09838
0.582501 119.689 11.0979
5.83475 114.772 -0.420135
15.3373 126.1 9.96748
5.20779 113.651 -1.92004
-9.53368 113.162 8.22143
12.6217 117.977 -0.767337
5.19152 113.98 -1.53531
-14.9331 103.416 -3.00142
21.2338 123.879 1.82702
23.6582 127.318 5.29335
18.2272 127.099 8.96388
-14.657 108.621 4.72734
5.14043 113.886 -1.78541
22.9879 123.787 0.27105
25.3179 126.061 2.04897
-10.3995 104.031 -5.5957
-7.9595 115.971 11.0397
-11.4798 111.924 7.29986
2.47997 121.013 10.9955
-1.51549 109.928 -3.20045
-1.15423 119.481 11.2938
-9.66745 113.399 8.17571
-7.27307 117.19 12.1076
-0.606984 110.28 -3.52854
19.99 124.779 3.6297
20.3651 127.265 7.18079
22.3587 122.535 -1.67818
-12.3976 111.549 7.02061
15.4732 118.766 -2.52152
-15.2688 108.172 3.84489
21.7977 126.061 3.99608
-7.77405 105.773 -5.48594
11.3251 123.543 7.75786
12.5524 122.012 4.45476
0.265946 120.388 11.0348
17.1311 126.38 7.80745
17.7189 122.043 0.665968
-14.9429 109.018 4.67093
6.83211 117.132 0.965718
13.9858 122.122 3.33038
-6.13329 118.563 12.7031
-7.01592 106.927 -4.64268
-16.0217 106.295 1.01066
-16.0047 107.054 2.14032
8.11003 118.545 1.95625
-13.6183 111.113 6.54005
21.0124 120.894 -3.98683
15.3181 127.694 10.7229
20.9156 125.231 2.74812
20.5378 121.927 -2.17475
12.7374 122.358 4.24954
1.12437 121.091 10.8476
26.1377 128.188 3.29821
26.4294 127.502 1.94753
4.95712 122.444 9.93704
1.18563 111.883 -3.64641
25.4341 125.874 0.000823318
-9.42614 105.371 -5.90834
15.2786 128.046 10.828
16.6209 121.92 0.338753
2.65236 112.814 -3.43671
16.4461 123.771 3.27019
19.3699 125.54 3.82
-16.1101 106.917 1.22815
19.7537 126.22 4.45227
-3.6678 120.619 13.1085
15.3194 127.631 9.85326
-15.8018 105.857 -0.790777
20.3245 126.502 4.24012
-8.44911 106.676 -5.17059
15.1422 128.187 10.6177
17.9017 127.953 8.19106
24.2848 124.339 -2.14658
-15.9381 106.109 -0.65831
22.916 127.374 3.44684
26.4909 127.223 0.513762
19.8597 121.461 -3.4944
18.9563 125.346 3.12001
23.3728 128.208 4.2619
-16.1526 107.797 1.96144
16.3007 121.397 -1.04139
20.2731 126.535 3.95878
-0.398847 121.192 10.9867
19.8542 124.397 0.942364
8.40432 119.451 1.70697
20.2504 125.875 2.83349
-15.3434 109.824 4.35956
17.6935 126.884 6.20965
19.5227 126.915 4.8954
22.4031 127.241 3.21627
20.9778 126.648 3.3485
20.0133 122.417 -2.4882
17.268 127.38 7.18613
26.6649 128.334 1.69428
-1.20332 121.197 11.2342
24.4423 125.249 -1.48521
-10.007 116.332 10.1303
26.8868 124.067 -5.22515
13.4827 119.574 -2.25416
7.45243 123.721 8.54759
17.7891 126.65 5.21151
24.7533 126.514 -0.180003
-8.92867 118.149 11.778
19.7068 127.34 4.78642
-16.301 107.466 0.639678
-3.11518 111.993 -2.18666
11.7798 120.277 -0.413047
16.3715 121.501 -2.01043
26.4244 126.487 -1.7519
20.4959 125.861 1.64929
-9.31213 107.045 -5.41987
16.3718 122.72 -0.206157
15.1034 123.838 2.44684
10.4485 125.264 8.01131
13.401 119.891 -2.48155
-4.80654 110.829 -3.06386
9.44625 120.195 0.847188
9.49776 120.181 0.786114
-0.736719 113.044 -2.68265
-13.6335 113.011 6.80526
24.6951 126.223 -1.16008
22.1325 127.589 2.84195
26.3406 125.547 -3.43288
13.8403 123.878 3.21323
6.13295 118.413 0.467858
15.3223 128.804 9.71609
25.6542 126.289 -1.87262
25.9998 129.483 2.7742
12.159 120.281 -1.31867
0.838596 113.438 -3.51981
8.33358 120.641 1.89996
21.7211 127.884 3.15904
-6.72024 109.657 -4.07506
-8.31451 108.329 -4.97126
-5.33491 110.897 -3.23739
5.09747 117.913 -0.129084
-16.4094 108.658 1.47785
-1.85831 113.391 -2.03747
-13.4933 106.114 -4.69156
20.0861 126.701 2.26636
-3.00553 112.859 -2.04041
18.7682 121.892 -4.24488
18.6222 129.251 7.21407
16.3014 128.796 8.20704
-3.90112 122.074 12.7056
17.5374 126.826 4.15979
6.85887 124.349 8.22421
-5.49225 121.279 12.5735
-14.0587 106.11 -4.60827
22.9977 129.32 3.82862
9.2603 121.108 1.25837
-3.4865 112.824 -2.12474
20.1736 126.716 1.80817
21.9495 128.646 3.42862
10.8421 121.142 0.0359989
3.77602 116.581 -1.82357
17.6332 127.668 5.01884
19.9935 125.7 0.213439
11.9183 125.3 5.44593
-12.0046 116.041 8.81094
21.9182 128.916 3.57027
25.3364 130.374 3.28046
16.8891 128.827 7.13592
18.3699 129.78 7.43491
8.49931 121.413 1.78803
19.1642 125.463 -0.0394023
18.6311 125.322 0.129973
28.2201 125.838 -6.26001
17.7747 122.043 -4.49434
21.6393 129.187 3.60547
-11.1931 107.667 -5.36388
13.5358 124.956 3.05187
16.3708 123.911 -0.669636
17.7113 125.856 1.34046
11.9137 121.015 -1.92241
11.3632 126.355 6.71578
17.7033 126.939 2.89785
18.1191 122.698 -3.97672
-12.4632 107.427 -4.98056
-10.0038 108.219 -5.57902
-10.0671 118.882 10.9447
19.6184 121.945 -6.31304
13.871 125.112 2.80925
-16.17 108.399 -0.793356
16.1823 126.056 2.53182
-14.2907 114.428 7.10712
-10.8255 107.922 -5.53415
15.1287 122.151 -2.76148
-2.80807 123.178 12.0974
-16.425 110.128 2.00088
-0.0180723 114.927 -2.75415
-9.73351 108.573 -5.51546
24.576 130.932 3.64334
-7.43145 120.939 11.8637
10.9377 126.927 7.48518
0.378884 115.072 -3.02532
15.1134 122.343 -2.70003
14.8198 122.15 -2.78667
-3.80521 123.137 12.4291
-0.418258 115.188 -2.40721
-14.0861 117.085 10.6227
-3.40944 123.338 12.3788
-8.06648 120.641 11.5681
5.62846 120.066 0.537724
19.093 128.66 3.85633
-14.0718 116.942 10.2524
18.0846 125.434 -0.449724
28.1897 127.143 -5.46843
14.7939 129.919 8.68668
-4.87611 112.802 -3.22262
28.1227 127.524 -4.9516
26.6763 129.151 -1.36956
19.4319 129.021 3.75699
2.33735 125.264 10.5935
9.20456 122.57 1.30373
15.7093 123.057 -2.77286
-14.5547 117.736 11.3961
-12.1752 108.136 -5.20633
18.0389 125.557 -0.666486
15.2275 130.501 8.99725
-13.6714 118.201 11.344
-16.6391 110.531 1.62211
3.69529 125.467 9.65449
-5.14203 112.794 -3.41675
-6.59327 111.635 -4.17159
21.2405 130.001 3.58299
19.2045 126.851 0.176721
15.7631 124.483 -0.963536
27.1305 124.852 -8.80826
9.01615 122.843 1.47573
14.7523 130.273 8.60941
17.4204 128.076 3.2275
-6.89382 122.257 12.2252
14.1927 126.101 2.54046
-1.35802 124.394 11.4032
-16.2037 109.326 -0.932333
27.5253 125.818 -7.81718
-7.56344 111.151 -4.56058
-15.8149 112.991 4.35554
16.9422 129.987 6.31819
14.317 126.275 2.46004
-4.85909 113.398 -3.30314
15.0789 126.514 2.14585
-7.61057 121.934 11.8463
-13.1697 108.517 -4.8058
5.37495 125.603 7.87466
-15.6022 113.36 4.47026
19.6662 129.689 3.54938
-16.3101 109.82 -0.555602
-17.5917 117.307 11.9625
-10.7544 109.23 -5.58323
19.0586 131.162 6.1833
-11.0904 109.174 -5.55357
16.5658 122.317 -5.74516
-1.37644 116.583 -1.33583
4.70219 120.058 -0.466547
5.91035 121.739 1.21262
15.7184 131.309 8.73043
18.5742 126.822 -0.335168
23.4793 124.506 -7.57456
18.7486 129.326 3.34957
11.8826 127.458 5.53571
-15.3857 117.718 10.6447
19.523 129.793 3.46474
-14.1868 118.802 11.3513
18.5947 125.055 -3.28951
25.7562 124.904 -8.82474
11.9717 122.149 -2.91931
18.0677 129.051 3.20307
23.3508 131.838 3.54682
5.1546 121.19 0.552025
-17.9426 117.595 12.0633
27.3739 127.029 -6.89223
-9.76928 120.458 10.4366
-3.89237 124.139 11.6856
10.0891 123.355 0.119165
1.09381 117.254 -2.65926
27.0077 129.486 -2.94508
-11.5195 109.427 -5.44997
9.34313 128.321 8.25465
-7.71825 122.454 11.8115
1.75896 125.893 10.0743
27.0814 129.139 -3.64943
18.5798 128.073 0.969314
25.8614 125.755 -8.03313
3.25238 126.315 9.55048
-14.7252 115.25 5.7397
8.62201 123.741 1.56344
19.0209 131.497 5.83118
-4.02783 115.366 -2.11606
25.0723 125.451 -8.13455
2.97163 126.404 9.65397
3.49591 119.352 -1.63737
23.4545 125.286 -7.24046
25.7592 126.216 -7.59761
-7.10435 112.419 -4.60491
-13.059 118.185 8.70808
-12.2916 119.759 10.5598
-12.8365 118.612 9.1598
17.2679 130.542 5.28583
23.6237 125.414 -7.36744
-16.6722 112.112 1.8599
17.3551 123.097 -6.34914
-4.82739 114.573 -3.16196
18.0113 127.597 0.0404327
4.43737 126.514 8.34447
-16.5724 111.274 0.329584
12.1051 128.437 5.55388
22.5612 124.81 -7.95339
9.48966 128.93 8.0541
11.0275 129.066 7.03157
24.6412 132.263 1.88521
16.2849 126.199 -1.372
-15.2898 119.038 10.855
-14.427 119.168 10.4141
-8.05603 112.251 -5.01398
17.1322 122.531 -7.81745
18.0636 132.005 6.11776
26.8622 130.083 -3.39397
16.3958 127.103 -0.265207
-14.9364 119.673 11.3787
16.1926 127.677 0.682151
17.1614 130.843 4.83571
-18.2191 117.985 11.0593
16.2796 128.755 2.17286
-13.3887 118.216 7.81876
-14.2138 118.525 8.89143
5.57784 123.101 1.25815
-15.046 114.574 3.33997
24.8977 132.267 1.10828
14.6297 125.36 -1.9941
-13.9393 120.83 12.14
-13.9582 120.844 12.1434
14.4276 124.344 -3.60351
-0.983646 118.63 -1.09783
-2.09596 118.196 -0.949988
-0.029022 118.865 -1.45874
-16.3983 111.443 -0.861762
26.424 128.193 -6.69376
17.5668 123.167 -7.99587
-18.7956 118.554 11.7662
17.1902 130.664 3.84734
25.3712 132.126 0.0419367
26.9484 128.506 -6.73598
9.15198 129.534 7.99129
-17.5045 116.596 7.65735
23.9013 126.796 -7.28888
17.1596 128.822 0.795886
-6.63413 114.186 -4.28801
16.9388 128.08 -0.276165
17.2831 132.605 6.44427
17.6066 132.588 6.17344
10.2736 129.906 7.43027
12.5546 129.635 5.28903
-16.5664 113.064 1.21054
16.6418 129.708 2.34581
5.63459 123.853 1.42551
-11.6076 111.275 -5.3015
8.12231 129.495 8.21493
-14.4431 121.318 12.2387
-17.7173 117.766 9.1313
3.94725 127.368 7.89153
-18.8927 118.383 10.8985
15.9476 127.707 -0.515941
10.3218 124.063 -2.00624
-5.7599 123.82 9.37573
8.12312 125.446 1.5503
25.9881 131.456 -2.43419
-18.1301 117.7 8.95273
19.2163 129.666 -0.212918
-13.3902 119.964 8.89232
16.9015 128.073 -0.99399
-14.8129 120.298 10.4541
-12.1545 120.762 9.18385
-13.9366 119.454 8.45663
5.11174 127.843 7.3008
25.1624 128.037 -7.23733
-11.1781 111.908 -5.33256
15.4895 126.883 -1.94139
-18.3919 119.781 12.1413
-12.862 122.246 11.7968
15.5356 133.266 7.80996
-3.53244 125.677 10.1835
-16.5036 112.402 -0.738815
25.5553 131.993 -1.6633
-16.5791 113.475 0.855538
1.8789 120.792 -1.52359
15.8785 127.58 -1.42379
3.7935 122.51 -0.326022
25.0801 132.838 -0.159492
-17.5994 120.505 12.359
7.14362 129.446 7.82745
-8.37207 123.563 10.205
16.2107 129.263 0.744751
-17.7134 120.56 12.3636
26.628 130.861 -4.53298
1.79146 127.755 9.03075
-10.5936 122.733 10.3929
-13.1055 120.831 9.2815
26.4366 129.218 -7.04041
-11.3385 122.092 9.89319
18.9782 124.727 -8.48277
18.5567 130.87 1.31788
17.6856 129.002 -0.926125
15.4412 127.037 -2.31454
1.19196 120.589 -1.74758
-13.3895 122.566 12.073
-15.8544 112.027 -2.4064
14.8484 126.284 -3.1234
-16.4475 112.668 -1.01058
-8.16637 123.735 9.95547
-9.04698 113.548 -5.15635
23.0574 133.588 2.03846
5.31939 124.653 1.35182
5.01312 128.432 7.35654
-12.9594 121.04 9.23128
21.8333 133.955 3.41064
-19.2291 119.288 11.1072
16.5597 132.458 4.81189
-6.67502 124.121 9.11282
27.0059 129.863 -6.96435
20.2208 125.246 -9.08759
14.767 132.925 6.75989
-16.1826 121.782 12.4257
13.5919 125.46 -3.93845
25.6611 131.969 -2.84418
-14.2629 121.336 10.2255
9.30546 125.32 -1.05787
18.4105 124.865 -8.50501
-13.3252 121.42 9.52967
15.5442 129.591 0.789203
13.485 129.969 2.84749
10.552 131.049 6.66744
19.4463 134.338 5.08247
-14.7112 121.068 9.8128
15.0096 126.706 -3.48702
-14.8957 119.563 7.59473
17.1736 133.908 6.0093
15.794 130.131 1.15187
-19.1685 118.365 8.83803
-18.2177 117.858 7.32871
6.20989 129.779 7.65441
18.0273 130.5 -0.0205587
-6.5066 116.113 -4.15655
-14.8966 120.937 9.50131
22.3936 127.267 -8.33797
14.5905 133.576 7.15459
12.5329 131.194 4.99625
-5.54968 116.891 -3.76419
15.4594 128.508 -1.3846
-1.8795 120.891 -0.357193
-11.0828 123 9.70074
-12.7955 123.18 11.2383
15.094 126.916 -3.63255
15.7701 127.946 -2.6009
1.36134 122.189 -0.858215
-13.5866 121.79 9.56602
-4.57953 125.875 9.1913
19.8664 134.39 4.24994
2.68208 128.216 7.42339
-14.7855 120.251 8.03785
-11.5711 122.679 9.40812
15.9008 123.75 -9.29625
-14.5472 121.068 9.07255
-14.5581 120.705 8.49987
-14.3744 120.932 8.70059
25.474 132.192 -3.38968
-16.0299 119.925 8.36302
19.6232 134.7 4.80354
-5.14341 117.699 -3.15056
-9.64401 123.612 9.30672
-10.67 124.158 10.8775
-11.2343 122.969 9.43755
-13.9101 120.133 7.03295
-14.8651 121.013 9.09586
15.7467 127.992 -2.79851
-14.3837 112.873 -3.91161
11.0496 125.391 -3.40386
15.7205 124.349 -8.48108
-3.93088 126.8 9.84853
-11.9781 122.537 9.13671
11.2754 125.531 -3.45681
-14.2052 120.28 7.23653
4.76921 125.323 0.97414
17.3956 129.867 -1.35194
-14.6036 118.597 4.8994
-13.7457 121.398 8.58129
-15.2895 123.151 12.4283
5.85899 126.322 1.64898
-13.1058 123.588 11.4067
-13.5541 122.907 10.6744
-1.62202 127.396 8.72414
-12.3392 123.073 9.92327
-12.5563 122.885 9.70552
-15.2499 123.438 12.4318
-12.6581 123.55 10.6669
-0.765418 127.751 8.34648
15.6571 127.564 -4.14047
8.8531 126.484 -0.803221
-13.5201 122.115 8.99994
-14.6172 120.152 6.74796
-12.5165 124.195 11.4371
7.11307 127.318 1.71969
15.7137 134.756 6.84272
-16.1149 113.644 -2.27394
-15.9723 123.259 12.4499
21.3879 127.352 -8.88299
-11.6762 124.804 11.6307
-14.5929 120.359 6.91309
17.8632 125.482 -9.2429
-11.0102 114.458 -4.95427
16.7325 132.543 2.45077
18.7093 131.112 -1.22992
-7.88617 116.192 -4.62555
22.1246 127.934 -8.74393
-14.701 113.692 -3.55045
15.7185 128.966 -2.51874
-14.0991 122.525 9.50234
15.4112 128.299 -3.44241
15.1336 128.997 -2.16805
-13.2043 123.291 9.94638
16.3275 131.32 0.485169
8.09527 127.469 0.622102
1.25174 129.017 8.00292
15.7196 135.132 6.70069
18.1232 125.931 -9.33296
11.7421 126.413 -3.90978
15.593 129.091 -2.65449
-7.9718 116.547 -4.61358
-10.7904 124.668 9.99049
22.1048 134.594 0.886049
-10.3965 124.797 9.77824
14.5165 135.061 7.19129
-13.1995 123.597 9.97582
16.7993 131.99 0.687866
18.3212 136.115 5.93322
-7.05884 117.33 -4.34064
-4.79983 126.634 8.29579
-13.294 120.919 5.66621
-9.92883 124.683 8.96463
-14.3071 121.14 6.70228
-6.48691 125.756 7.99772
2.10736 129.231 6.98568
-17.8598 123.073 12.2433
-15.0182 121.208 7.20233
15.5518 135.709 6.95644
-10.5749 124.96 9.65483
8.28506 127.792 0.0669143
-14.4401 121.221 6.70845
-13.8011 122.813 8.69221
23.8141 134.756 -0.715702
-14.9128 120.813 6.34795
15.9202 135.998 6.97166
-12.3441 124.238 9.65102
11.3381 133.033 5.70541
-12.0672 124.504 9.80834
-11.4055 124.752 9.69412
-14.5251 120.762 5.80619
-14.2062 121.043 5.97428
-7.94189 125.38 8.02288
23.1199 134.881 -0.340658
-16.4511 120.797 7.13516
-14.8677 121.108 6.44208
-14.6791 121.387 6.72036
-19.518 119.965 8.09676
-10.5533 116.053 -4.63477
23.7724 130.498 -7.72869
-9.63833 126.301 10.4852
-14.8076 119.182 3.29717
14.9048 130.294 -1.53323
-12.9267 123.873 9.08839
-16.4541 115.307 -1.54384
15.121 129.095 -3.64829
14.9496 127.13 -6.55857
-11.3465 124.801 9.28161
10.9553 133.443 6.01991
-12.2804 124.34 9.08404
17.8485 136.762 5.9837
15.0427 129.235 -3.57626
12.3263 133.589 5.15503
-11.2992 126.665 11.9236
-13.3697 120.432 3.81891
18.5503 127.641 -8.66027
16.4761 134.305 3.15128
5.88725 131.761 7.0407
14.62 128.207 -4.96484
4.10721 130.935 7.00802
9.41094 127.314 -2.54768
17.0257 132.606 -0.0279167
-8.18754 126.708 9.46667
-19.5717 120.222 7.8563
-13.29 121.918 5.81658
5.24436 131.552 6.96648
-14.3176 125.08 11.4388
-19.7409 122.022 10.7017
18.6975 136.414 4.48537
7.2454 128.836 1.21843
-13.3247 125.255 10.8881
-18.6845 119.742 6.32749
25.5098 132.337 -6.93057
-9.55845 116.924 -4.81947
1.87 125.674 0.199721
12.8835 127.719 -4.80646
-14.4698 120.086 3.63315
-15.9096 119.998 4.52314
-19.9161 120.802 8.71625
-15.1041 120.47 4.59272
-9.68574 126.706 10.0132
-13.5426 121.215 4.36766
-13.9959 121.54 5.1849
16.0885 127.473 -7.93942
-15.473 117.497 -0.0292517
-16.8796 121.447 7.11418
-15.8181 117.103 -0.43
15.0346 130.421 -2.68263
2.62506 126.349 0.208087
15.2898 135.262 4.60884
-15.2779 120.038 3.6907
-13.8406 121.118 4.27995
-11.0815 116.833 -4.45953
25.5338 133.413 -5.97414
6.43584 129.11 1.50253
23.4473 135.442 -1.36098
-10.0338 127.7 11.3893
2.06924 130.374 6.56471
16.4058 132.756 -0.375934
-7.45903 127.662 9.39029
-17.1176 121.044 6.29638
-15.2158 120.617 4.22061
10.2247 128.012 -3.18764
-11.4868 116.901 -4.32562
19.0748 129.39 -7.66487
21.6425 136.335 1.15538
7.83977 129.032 0.0630466
-3.49597 128.826 8.1332
-15.7343 125.514 12.07
-8.25448 118.742 -3.95234
-14.1742 121.399 4.50726
15.3188 127.689 -7.64863
-14.1061 116.365 -3.37895
-13.3732 121.212 3.54114
11.5196 134.593 5.77836
-12.7394 126.161 10.5974
4.51845 128.265 1.02633
-7.89 126.748 7.83415
-16.4028 122.125 6.96141
17.9148 137.472 5.272
19.6057 136.825 3.01239
0.0062512 130.403 7.56104
17.6876 128.872 -7.89261
-8.90769 126.548 8.18727
-6.11836 127.823 8.08929
-13.6825 121.504 3.86379
-13.1966 122.589 5.06392
-5.98568 121.019 -2.74669
24.9329 133.192 -6.82888
-12.9604 121.778 3.51906
14.5256 129.071 -5.57357
-8.88395 126.514 7.77392
9.00384 128.486 -2.42138
-14.7949 119.798 1.76176
15.9264 133.122 -0.464578
-15.2672 120.37 2.90841
14.4923 131.295 -2.2448
17.6397 133.22 -1.63221
-12.8346 117.331 -3.68562
-14.7451 116.805 -3.09245
14.4804 133.61 1.21226
-13.6707 121.76 3.68518
22.8198 136.02 -1.3274
2.5349 127.588 0.612411
-14.175 120.629 2.21836
-6.69945 128.384 8.64311
-14.8418 126.052 11.0611
-9.72266 127.927 10.1591
-2.85437 124.313 -0.516905
-12.7777 126.922 10.8414
-2.21533 129.806 7.47816
10.8498 135.034 5.80469
-6.92842 127.837 7.82502
-13.4801 126.319 10.2815
-17.101 121.958 6.18268
2.08583 131.184 6.19287
14.7419 131.36 -2.99671
-16.0455 116.942 -2.53363
3.52576 132.022 6.25932
-12.9051 127.095 10.784
6.08401 133.477 6.58773
14.4701 129.552 -5.72275
-2.46603 129.961 7.43942
-20.5338 122.148 8.72661
16.2474 138.591 6.88908
-15.6132 117.797 -1.70718
-15.9134 121.61 4.39577
-6.19699 128.673 8.08174
-16.1084 119.635 1.4213
15.8445 129.201 -7.46361
-14.736 121.388 3.04446
22.7328 136.921 -0.676312
-15.154 121.413 3.28559
15.2551 137.385 5.40174
-14.8122 119.005 -0.765913
-6.24096 121.979 -2.52496
22.6913 137.134 -0.526121
24.9348 135.13 -5.30014
-14.8656 118.964 -0.87813
-3.66906 129.688 7.40264
-14.5176 121.775 3.17393
-14.4357 122.042 3.48376
-7.14024 121.51 -2.74579
22.9946 133.314 -6.80907
6.76098 130.534 0.885055
24.8884 134.896 -5.85891
-2.42879 130.271 7.16254
-14.7877 117.827 -2.93949
-19.3155 124.736 11.0769
-10.0566 119.194 -4.3898
20.8983 137.707 1.25247
17.3011 133.5 -2.60336
7.87718 134.797 6.33281
14.4276 132.981 -1.34749
-15.6191 120.604 1.72849
15.6559 135.523 1.57863
16.4039 137.073 3.41989
15.4726 138.029 5.55755
15.1902 129.861 -6.8933
-0.525836 131.204 6.78799
-8.28355 121.161 -2.99721
-13.3332 122.682 3.04805
-17.0722 122.222 5.07622
-15.5484 122.628 4.57568
11.968 135.992 4.8634
16.0255 137.432 4.05663
-20.5951 122.892 8.65367
12.2313 134.889 2.8467
-15.3072 122.737 4.3828
21.0061 133.2 -6.51754
15.0729 133.847 -1.13823
-15.7293 127.005 11.0768
-18.8685 125.93 11.6675
-13.2629 123.196 3.25862
-4.7753 123.509 -2.57918
21.8756 133.983 -6.12889
-4.81817 130.505 8.17001
15.5534 138.185 4.93974
-7.48258 129.876 9.12621
-14.2584 122.789 3.17535
-4.40932 124.235 -1.8912
15.6088 138.644 5.52371
-14.6413 123.173 3.98335
-15.8008 118.48 -2.42903
23.0539 138.072 -1.00336
24.1261 135.544 -5.74351
13.9416 131.367 -4.71738
17.4668 134.404 -2.66335
-10.2929 129.603 10.3409
-14.4811 122.063 1.75796
-14.1697 123.34 3.46958
24.1154 136 -5.31504
14.2532 131.052 -5.68233
-14.9419 120.597 -0.290171
-17.5757 122.823 5.0942
21.0369 138.527 0.759606
17.329 134.639 -2.62312
15.6132 131.065 -6.87817
-14.5339 123.639 3.94896
17.5009 140.749 6.54833
-13.4114 119.637 -3.23196
14.4344 132.602 -3.80283
20.5212 133.695 -6.64322
15.689 134.726 -1.55569
2.03256 133.112 6.05265
-9.34782 129.833 9.3497
15.7015 139.244 5.34371
-1.94718 127.521 0.282927
16.2952 138.752 4.11793
-15.1494 127.75 10.3727
12.3989 130.931 -5.11238
10.3122 130.769 -3.82226
8.65977 130.831 -2.55174
-15.2154 122.455 2.15227
-14.8997 122.569 2.07724
14.5525 136.25 1.37095
-18.8517 126.203 10.4457
20.3433 138.933 1.10435
16.1751 139.016 4.30337
12.6669 135.625 1.64119
11.9956 136.949 4.09506
19.117 133.519 -6.49595
-12.038 120.313 -3.85399
-19.1888 125.257 9.05505
-11.2107 130.004 10.4335
14.9951 134.66 -1.77913
-1.85949 131.72 6.13933
0.338282 132.751 6.08779
-18.8332 125.907 9.67917
-9.97688 130.185 9.69112
-10.5629 130.124 10.0212
17.8595 141.155 6.01636
24.6425 138.247 -3.63003
10.0228 131.384 -3.45222
-2.68268 127.549 0.00291128
21.5336 139.151 0.0150305
13.9702 136.3 1.13213
15.9431 139.527 4.66036
-14.5609 123.982 3.17259
-20.49 123.087 6.16724
-14.4181 128.484 9.99239
-20.8048 123.318 6.71248
23.8921 138.448 -2.98696
11.8429 131.686 -4.53258
13.6391 132.301 -4.93257
-15.9678 128.251 10.6701
1.57708 133.686 6.00568
15.6088 137.115 0.765442
17.9078 141.271 5.44854
-12.3729 129.871 10.1727
-14.2932 121.653 -1.33295
7.42671 131.926 -1.61586
23.4871 138.972 -2.68792
2.19687 134.261 5.76915
10.6275 132.322 -3.57263
22.2134 136.079 -6.38442
15.2927 135.303 -2.48439
-5.30452 126.063 -1.72764
-15.2158 121.957 -0.73972
-19.0076 126.22 8.64683
-11.1376 130.742 9.79842
-18.554 126.77 9.13991
15.5805 134.984 -3.45722
23.04 139.857 -1.44588
7.47899 132.303 -1.63302
16.1473 139.299 2.7391
-1.99994 132.593 5.80028
2.68391 131.945 1.25809
12.441 137.947 3.30935
-8.21091 132.595 10.3194
-15.2198 129.187 10.1657
-6.09795 125.102 -2.93763
-12.0912 130.616 9.98544
-13.8148 124.377 1.57223
-15.3816 122.874 0.405497
-19.9445 125.571 7.83719
14.3576 135.665 -1.96596
17.1472 142.304 6.09251
-14.9032 122.419 -0.946716
7.02656 136.95 5.20867
-1.35692 133.171 5.4381
14.5045 133.773 -5.37928
-15.0204 121.562 -2.46833
-3.63413 132.879 6.55922
6.93176 132.688 -1.57845
-20.5453 125.06 6.94962
-14.2605 124.822 1.91369
16.9153 141.641 4.81141
-18.8368 127.568 9.46847
-9.66142 132.576 10.4166
14.303 133.577 -5.81084
3.50814 135.548 5.20973
-14.8198 129.939 10.1021
12.4514 133.382 -4.8184
-17.8876 124.755 4.23697
-5.85956 132.991 7.95299
-9.91168 132.56 10.2524
5.38211 133.66 0.598666
-6.36797 125.818 -2.86312
-18.687 128.848 10.912
-15.2017 124.627 1.58646
-14.4669 124.872 1.40014
-12.297 122.355 -4.24421
-9.38627 124.089 -3.767
-14.7636 130.723 10.4624
11.0743 138.179 2.85649
18.4941 141.659 2.69364
16.6195 136.917 -3.42014
-13.4539 126.054 1.98115
-1.64383 130.542 0.17146
-14.0583 125.645 1.78074
20.8348 141.999 1.19587
-14.7997 123.212 -1.48089
17.3771 142.35 4.16895
23.0048 141.378 -1.63133
13.3137 134.177 -5.60963
-5.88102 133.945 8.22398
15.6291 140.927 3.06465
16.9756 142.917 5.1094
18.1565 142.02 2.81638
15.2488 140.619 2.79208
-14.4707 125.876 1.99482
-18.5011 125.258 3.97785
-14.5467 131.605 10.8363
23.3997 141.181 -2.45706
-2.90238 133.8 5.57632
-0.780792 134.729 5.40576
21.8714 138.59 -5.39818
20.1459 136.814 -6.90416
13.1893 138.173 0.318166
7.51445 137.98 4.21524
-18.1032 130.42 11.4551
-19.1347 128.712 9.56008
21.6722 138.441 -5.67531
-11.8383 132.724 10.2372
-4.01231 129.141 -1.14386
-8.58228 134.201 10.0407
-3.59313 133.826 5.62145
14.0098 135.134 -5.42751
18.4164 142.16 2.15012
2.18311 136.188 4.87218
-18.9674 125.247 3.60635
-0.310219 131.978 0.165973
9.85249 134.226 -3.88792
20.0524 142.728 1.64331
22.9097 140.318 -4.20448
12.2554 138.363 0.588899
15.406 141.939 3.66411
3.45128 134.599 1.10178
-18.5512 127.16 5.86583
21.7222 142.813 0.251803
-2.32279 131.029 -0.180072
-18.9335 128.351 7.91545
-14.0497 124.388 -1.83536
-2.5163 130.917 -0.284121
-16.2683 125.714 1.78683
14.939 135.156 -6.71709
-13.4823 123.409 -3.85467
-13.6796 127.278 2.24599
17.7006 143.046 3.21207
11.7507 138.847 1.11044
0.968948 133.532 0.819644
-4.60365 134.747 6.78123
14.9139 136.309 -5.29841
14.3513 141.49 3.01967
-13.9454 127.311 2.01111
14.6365 141.892 3.38826
9.78501 138.725 2.07777
21.7503 139.534 -5.52633
14.8411 138.024 -2.76505
-14.353 126.683 1.26988
-18.3982 130.538 10.2182
17.7685 143.265 3.05363
-7.59027 135.301 9.49017
16.8278 143.439 3.98975
-16.7871 125.82 1.62673
-6.39604 135.649 9.06554
14.8469 136.693 -5.05082
12.068 135.207 -5.31196
5.0777 135.433 0.160315
-1.89379 135.59 5.523
-18.3756 130.646 10.0392
14.8031 137.234 -4.33459
15.0891 138.135 -3.17214
-8.8197 126.233 -3.92945
-3.947 134.703 5.48667
15.6052 138.327 -3.50095
-13.992 125.642 -1.22865
-2.87799 135.334 5.51548
-18.6577 130.011 8.95088
-6.03991 135.705 8.40053
20.3505 143.891 1.51855
-19.273 126.203 3.41268
-9.0856 126.207 -4.18377
13.6263 140.259 0.704851
14.6943 137.398 -4.6611
1.81294 135.014 1.145
19.8885 144.158 1.87492
13.9294 141.701 2.36338
-19.7004 125.909 2.82024
-15.2363 127.041 1.24842
-12.8859 124.866 -3.87315
9.63927 139.215 1.61433
-13.3602 124.652 -3.91717
7.66605 139.098 2.79124
0.937339 137.039 4.54569
13.6041 140.849 1.02668
13.9982 136.962 -5.2742
20.5966 144.266 1.03845
-17.3228 132.66 11.1609
11.0048 135.838 -4.96796
-9.07149 136.132 10.2293
15.7521 144.715 5.09351
5.81861 139.088 3.74171
-18.5724 130.171 7.99952
-17.8074 131.922 10.1042
14.9628 137.244 -5.9802
-8.94749 126.995 -4.17295
14.5413 137.561 -5.24499
7.5419 139.322 2.60655
-4.76116 135.556 5.87909
-8.46462 127.532 -3.78319
-3.10756 132.209 -0.751137
-9.03907 136.515 10.2011
-16.2427 127.132 1.00026
-12.2839 126.026 -3.64799
12.3102 136.321 -5.96145
19.1389 139.391 -6.31017
-10.4358 136.51 11.0433
16.324 138.578 -5.58981
-11.4566 126.321 -4.02917
-18.5198 128.567 4.63552
6.89726 139.546 2.74809
-6.7644 129.05 -3.36695
3.16828 136.618 0.963135
-5.95526 129.665 -3.07313
13.7181 143.146 3.13622
7.61281 135.993 -3.41385
-13.3215 125.854 -3.64752
-12.9369 126.653 -2.70389
-15.2167 127.471 0.247148
-4.45356 136.125 5.61792
-18.9349 126.667 1.70786
-14.5831 129.194 2.35552
18.9827 140.025 -5.86332
-13.1899 128.484 0.0983689
-5.28591 136.349 6.32578
-17.9061 126.96 1.15052
13.1176 137.57 -5.51952
18.4045 140.085 -5.54881
9.77351 136.628 -4.53632
-13.1336 127.688 -1.41407
14.3202 138.321 -5.31136
3.31678 137.008 0.785622
21.9247 142.494 -4.51016
6.0315 136.845 -1.49497
0.186921 135.437 0.653117
-12.5568 126.488 -3.78473
-13.305 128.977 0.612152
11.4889 136.738 -5.75348
-18.4282 130.543 6.75424
22.2294 142.993 -4.116
-6.28946 136.701 7.25188
-7.77547 137.405 9.42982
9.96358 141.431 2.49823
17.1936 145.551 3.48129
-3.72511 132.513 -1.19241
-11.9189 126.662 -4.17172
16.7358 145.597 3.8661
-13.5423 129.355 1.16269
6.22184 136.912 -1.92712
7.99246 140.048 1.60037
-18.101 131.531 7.74004
-13.1654 128.565 -0.509243
-13.5763 130.229 2.32392
14.1159 140.399 -2.49352
-6.40517 136.943 7.34885
-6.03861 130.309 -3.20974
13.8473 139.102 -4.35459
-6.98102 137.6 8.70211
-15.9072 135.015 11.2884
21.8946 144.421 -2.16303
-14.982 135.582 11.4446
21.4746 144.824 -1.35561
20.0902 141.408 -5.65995
-18.1726 131.287 6.96456
6.2631 140.146 2.52996
-13.1109 126.751 -3.83539
18.2333 141.001 -5.06734
-13.1436 126.784 -3.83147
16.6989 146.162 3.97477
-15.1874 128.487 0.252007
-15.4705 128.239 0.0748401
-13.1366 128.488 -1.28304
-17.5247 133.47 9.59133
10.1485 141.751 1.7888
-8.3621 138 9.67823
21.4709 144.958 -1.75242
14.814 139.713 -4.94571
13.7735 140.578 -2.86479
-5.95221 137.312 6.63908
-11.6265 127.827 -3.84432
9.93336 142.036 2.14429
13.2118 143.324 1.64858
-14.6546 129.718 1.11268
-1.0384 138.339 4.23347
13.7306 145.264 3.99451
-3.46498 133.75 -1.18716
-14.3335 130.656 1.99432
-14.1242 136.862 11.3529
15.1635 141.041 -3.9423
-13.1003 129.574 -0.758115
16.1838 140.733 -5.20025
-13.6559 131.03 1.82978
18.7489 142.331 -4.6908
18.21 146.836 2.61324
0.396553 136.91 0.453295
-12.9832 129.04 -1.81465
18.3502 142.258 -4.62657
15.1484 142.74 -1.53523
-6.13798 131.375 -3.41453
21.2869 143.947 -4.30306
9.836 142.151 1.31196
4.16282 138.56 -0.0634242
14.7933 142.712 -1.55358
21.8478 144.812 -3.53468
-12.3917 129.515 -1.85839
7.65052 140.935 0.908844
7.10694 140.949 1.20319
15.398 142.224 -2.96696
4.99091 140.847 2.5809
-8.36274 139.047 9.6623
12.5313 139.444 -5.21653
-12.264 129.909 -1.66069
15.4419 141.996 -3.52332
9.12935 141.589 0.472367
21.614 145.006 -3.59775
9.10646 142.064 1.06228
-18.1845 128.957 0.996335
-12.2774 130.281 -1.32804
9.09181 142.309 1.44027
-16.8914 130.105 1.7533
13.1406 145.889 3.74058
-7.18774 130.888 -4.40844
-8.06407 139.419 9.41592
11.9805 139.242 -5.69345
9.20894 142.563 1.48251
19.9321 143.616 -4.82727
-11.268 130.367 -2.23936
15.4419 143.747 -1.33469
15.6603 142.992 -2.67248
11.8721 143.366 0.680054
18.6113 143.171 -4.62472
6.43998 138.512 -2.82814
-13.8301 131.711 1.65481
9.86764 138.532 -5.38214
13.5764 142.617 -1.88109
15.6651 143.479 -2.14827
5.63356 139.042 -1.58405
13.4901 141.172 -4.14018
15.7677 142.777 -3.42572
13.0382 146.146 3.7457
9.91484 142.538 0.444834
-11.3397 128.748 -5.15893
-12.0783 131.502 -0.394303
-11.2404 128.858 -5.13606
-5.2197 133.35 -2.74568
1.05109 140.364 3.4491
-18.1444 133.736 7.35672
0.483623 138.134 0.363628
15.7199 143.893 -2.03732
13.5159 141.203 -4.57224
-5.20736 138.801 5.56129
17.4542 143.205 -4.42681
-9.51817 129.463 -5.76781
-6.96835 131.625 -4.47408
5.1893 139.668 -1.0975
-16.2929 136.744 10.2334
-2.83437 135.989 -1.04237
4.53512 141.576 2.10636
-17.9102 134.085 6.9989
20.8931 146.096 -3.20972
7.39561 138.917 -4.33926
15.998 144.114 -2.69951
4.93813 140.065 -0.90568
15.4014 145.012 -1.00821
-17.1781 135.974 9.11179
12.5858 140.709 -5.60159
-18.5527 132.899 5.36566
-12.7516 132.513 0.446706
-10.8099 130.222 -4.54726
12.0659 140.386 -5.81073
-6.80575 139.512 6.79599
11.7481 140.124 -6.00135
19.2169 144.775 -4.47041
-10.7546 131.023 -3.61879
12.3065 140.679 -5.76901
2.60942 141.68 2.95236
-16.9451 135.752 8.2317
13.1851 142.329 -4.0098
-3.53138 135.82 -1.74265
17.7024 148.589 2.27815
18.5237 147.979 0.720053
16.3652 144.473 -3.15653
-16.8547 134.915 6.58495
-18.4737 131.555 2.58941
-18.6226 131.967 3.16038
12.8401 143.467 -2.37492
-4.75241 134.744 -2.84446
10.1639 144.514 1.20941
-14.5473 138.731 10.5491
-3.17247 136.33 -1.5879
-16.8288 134.661 5.85934
16.2427 145.766 -1.46806
-6.7422 140.007 6.63404
-17.8866 133.328 4.551
-7.76363 140.4 7.97497
-17.2376 131.855 1.68515
13.2101 142.322 -4.68133
-1.76396 137.884 -0.466989
19.5608 147.717 -1.07543
10.9513 144.55 0.368231
15.5816 145.998 -0.852888
12.705 147.413 3.43535
18.0894 145.921 -2.86202
16.7057 145.908 -1.86665
9.54588 140.144 -5.49216
-9.71795 131.526 -4.66923
-18.1915 133.036 3.91681
0.261865 141.473 3.28718
8.61717 144.807 2.2217
-3.33338 136.486 -1.84447
-7.73844 140.628 7.72151
-8.59644 141.096 8.97787
11.7124 141.601 -5.31564
-3.04856 140.45 3.8151
-16.6967 134.471 4.67033
12.217 142.327 -4.70684
15.0089 146.179 -0.88288
-13.2598 134.081 1.18366
3.9305 142.547 1.48249
3.14631 141.013 -0.350592
-8.83031 131.737 -5.95247
1.90261 140.708 -0.0571804
14.042 145.817 -1.15399
-5.34278 134.884 -3.72258
-12.7675 134.108 0.529221
14.7545 148.843 2.9027
18.9618 148.278 -1.1051
8.32817 141.019 -4.51095
-0.688828 141.834 3.41178
-10.6838 133.326 -2.38237
-6.67503 133.747 -4.72126
-15.1617 138.971 9.55287
15.1299 146.88 -0.683434
-16.6334 135.557 5.29374
-12.6313 134.307 0.351348
-16.5742 136.099 6.01923
-17.0769 132.918 1.43768
-14.7102 139.449 9.70914
-16.0838 135.473 4.57786
-16.5594 136.189 6.02521
11.0197 141.986 -5.43036
-3.33344 137.289 -2.15173
-0.054519 142.325 2.97791
-16.1649 137.366 7.03289
-13.182 135.162 1.39559
-3.4458 137.481 -2.22698
-6.43115 141.322 5.81596
-14.2017 140.236 9.85714
12.3838 143.771 -4.51458
-7.68967 142.094 7.73547
10.9674 142.581 -5.3422
10.2882 141.822 -6.05011
16.1873 149.641 1.61131
13.7994 146.71 -1.15617
11.2291 142.871 -5.2015
-17.6503 133.525 1.709
12.9296 144.603 -3.85056
-4.62302 136.794 -2.96543
8.55111 141.989 -4.73181
17.5371 147.754 -2.48429
-13.462 134.455 -0.112245
8.9732 141.969 -5.14143
-1.65408 139.744 -0.717337
14.919 147.746 -0.707121
10.5293 146.46 0.528806
-12.0878 134.687 -0.940941
-14.9003 139.881 9.02239
-14.3865 140.437 9.43817
3.9865 143.329 0.264525
-8.57188 133.46 -5.7714
10.2377 142.484 -5.79072
-10.608 134.151 -3.24794
4.12536 143.362 0.0356238
-13.8798 140.934 9.59041
8.81227 142.371 -5.02647
-3.63627 138.318 -2.30833
0.807669 141.871 -0.246628
-2.565 142.657 3.42652
-12.0709 142.285 9.82294
17.3821 148.831 -1.9582
1.13939 143.577 1.91567
-15.8566 139.381 7.95643
-11.0275 134.875 -2.61426
14.7358 148.515 -0.6178
-9.44377 134.347 -4.63288
2.10564 143.792 1.31781
-4.97519 137.466 -3.24363
0.0693166 141.779 -0.313776
5.82516 142.773 -3.06776
9.38881 142.836 -5.65066
16.4336 150.421 0.788335
-2.72905 142.918 3.33507
-2.2225 140.27 -1.23822
11.235 148.777 1.93373
-7.65658 143.356 7.49259
-3.03069 142.895 3.29753
15.2282 148.978 -0.872314
-10.8956 143.133 9.42111
3.31649 143.339 -0.827776
1.33731 142.767 -0.277673
-15.884 139.371 7.0574
15.694 150.635 0.981032
12.417 150.106 2.55521
-11.1123 135.485 -2.64627
-6.36478 136.212 -5.14702
15.6099 149.158 -1.40904
-5.94558 137.034 -4.57031
9.19632 143.642 -5.58846
-15.1285 137.528 2.87441
-9.14828 144.087 8.47046
6.67337 144.114 -3.27584
16.129 150.43 -0.576212
-5.15774 138.246 -3.66395
-8.46597 136.116 -4.5397
-7.38387 136.306 -5.08015
11.0681 145.265 -5.226
11.1832 145.361 -5.17965
0.775343 143.454 -0.455463
-15.687 139.652 5.76407
-9.17195 136.507 -3.9943
10.0356 148.878 0.900349
-10.0072 136.309 -3.7138
11.3325 146.85 -3.21379
15.1465 150.252 -0.894593
11.7519 150.834 2.25951
-3.95807 140.283 -2.71573
13.4245 149.767 -1.02806
-6.33269 137.733 -5.05841
-12.2767 143.857 8.63706
-2.86408 141.759 -1.63721
-9.00592 144.923 7.78053
-6.62419 144.231 4.9081
-7.04932 137.524 -5.15555
-14.7911 141.62 6.9037
-9.96523 144.788 8.17808
14.6067 151.067 -0.3126
-8.34982 137.407 -4.51813
-14.9204 140.203 4.49827
-7.20834 144.573 5.53459
2.97175 145.21 -1.04541
-5.04257 139.635 -3.80554
3.3539 145.229 -1.41543
-12.2616 138.695 -0.112168
-12.1592 144.262 8.40565
4.95085 145.296 -2.70046
12.5744 149.822 -1.569
10.8774 147.881 -3.44051
-11.6221 137.617 -2.66215
-7.07337 138.405 -4.88539
-0.0533233 144.532 -0.708204
8.29407 145.86 -4.88877
1.20255 145.142 -0.777478
12.223 151.937 1.56816
4.38481 145.641 -2.47809
6.74754 146.33 -3.20223
8.40242 145.954 -5.03004
-11.9696 141.056 2.35453
7.77673 146.268 -4.29658
5.58432 146.222 -2.85506
10.7666 151.796 1.89637
-0.210539 144.843 -0.768467
-11.7033 145.045 8.0353
-14.1697 141.361 4.15362
-2.5965 145.721 2.25033
-10.888 138.531 -2.73881
-11.9279 140.936 1.54067
-12.7728 138.837 -1.19981
-14.2221 142.4 5.3729
10.5476 147.583 -5.03294
12.2162 151.122 -0.838136
11.7844 150.518 -1.66888
2.86065 146.458 -1.35237
12.5923 152.443 0.594441
8.00396 146.89 -4.60152
11.4922 150.962 -1.08337
9.75622 152.114 1.90524
-11.1121 139.834 -2.14818
-12.5229 143.229 4.08465
-7.10303 146.232 4.62477
-6.35507 140.894 -4.31176
-12.3575 145.432 6.99839
-10.4968 140.244 -2.53737
-11.7742 144.59 4.7497
-10.3233 140.637 -2.68218
-6.11889 141.683 -4.18321
-12.5485 141.687 0.532554
-3.96465 146.895 2.17366
11.7669 152.879 -0.26496
-12.2691 142.263 0.951259
-11.7928 145.19 4.58049
-7.02489 141.655 -4.50175
10.3885 150.669 -3.61202
5.97887 149.027 -2.94916
-0.0880793 147.455 -1.1252
-9.7363 147.523 6.08717
10.9278 153.625 0.166403
7.88512 153.103 1.36203
-1.9861 146.628 -1.34316
-5.51082 143.525 -3.83654
9.55743 151.801 -2.29021
-11.7014 143.011 -0.241845
-9.35184 141.986 -3.60803
-11.4933 142.903 -0.704658
-10.4988 142.052 -2.86844
-11.2289 142.078 -2.29573
-11.795 143.379 -0.0646869
-5.80045 148.171 2.71396
6.80388 150.264 -3.43127
-11.8403 144.362 0.773737
-4.52578 145.735 -3.11686
-11.5245 147.351 4.55738
-9.53081 148.4 4.5987
-1.38145 148.554 -1.19593
-11.8959 144.998 0.93656
-11.8277 144.683 0.312151
-0.212535 149.338 -1.40148
-2.12692 148.477 -1.50791
-4.17063 146.798 -2.74922
-0.956753 149.452 -1.33072
7.68422 151.924 -3.92527
7.45837 154.859 0.726051
7.67801 154.538 -0.10637
4.5883 151.425 -2.80302
-10.5574 148.64 4.08106
7.30749 152.377 -3.66773
-10.9018 148.299 3.4663
1.85813 150.676 -2.30203
-6.24765 149.839 2.17863
3.62831 151.714 -2.7367
-11.485 147.275 1.45117
-11.3735 146.781 0.304248
3.50542 151.928 -2.75348
6.47947 155.13 -0.0883354
6.17932 153.288 -2.75721
6.01916 153.804 -1.88806
5.90651 153.659 -2.12003
-10.3865 145.746 -2.38028
5.39309 152.935 -3.10768
5.90195 154.447 -1.42366
-9.52036 145.988 -3.59209
-3.34102 150.077 -1.98192
-7.25071 147.262 -3.68438
-9.88288 150.066 2.07986
-0.391945 152.298 -2.07528
4.28991 155.141 -1.37525
-10.4388 149.686 0.242513
-1.87863 152.636 -1.59335
-10.6193 148.977 -0.831358
-7.98385 149.11 -3.04628
-10.0494 149.607 -1.01952
-7.85309 149.598 -2.79699
-8.66062 151.735 0.987453
-9.43502 151.249 0.135938
-9.19787 151.542 0.204432
-9.04083 151.9 0.463389
-7.7656 151.115 -1.72363
-8.04982 151.323 -1.19562
-7.21805 151.079 -2.28145
-8.9646 152.186 0.592011
-5.58388 152.561 -1.86363
-7.5802 152.688 -0.284546
-4.3333 153.778 -1.94283
-6.46531 154.007 -0.387639
-4.7728 154.476 -1.24924
-5.30682 154.632 -0.798205
