ply
format ascii 1.0
comment Created by Open3D
element vertex 2000
property double x
property double y
property double z
end_header
18.4497 124.343 -2.46113
16.3209 121.91 -4.1149
16.2715 121.915 -4.16977
12.8133 118.52 -10.031
13.7088 118.938 -5.67309
-15.965 80.8742 -9.10569
-2.83844 98.9105 -14.0987
23.4852 131.738 -5.40413
17.1308 122.702 -0.788652
-18.0033 77.6449 -4.90435
-17.4616 78.6655 -6.62099
9.57258 110.879 10.6828
13.714 119.512 -7.48747
-18.9536 75.6212 0.0555967
-16.3434 80.592 -8.82096
13.8384 119.674 -7.1862
-2.95654 93.1116 19.5822
19.8491 128.096 -10.001
-3.31812 92.7343 19.4321
24.7138 133.342 -3.63783
10.1767 111.954 10.2419
13.7591 119.9 -7.9242
8.51886 113.638 -11.1254
16.5943 123.576 -7.71295
14.0457 120.162 -6.99258
8.17665 109.283 11.4797
-14.2442 79.6789 13.8979
16.5679 120.3 11.6111
-16.2808 78.0181 8.6586
10.003 112.076 10.2305
14.0038 120.403 -7.34643
17.6564 124.518 -3.57333
-6.4819 94.8484 -13.7002
-11.0753 88.8544 -13.6593
8.82213 114.367 -10.9426
25.906 135.133 -2.07178
0.115716 103.561 -13.7215
17.8589 124.183 0.768227
-1.41756 101.784 -14.4649
-16.0288 82.0431 -10.4752
-17.0671 77.5946 7.35556
-19.9598 75.6738 -3.11689
10.521 116.3 -8.15318
-6.15333 89.8929 18.4443
7.01747 112.31 -11.1264
-14.5485 79.924 13.5808
-18.1482 78.5866 -4.94571
19.3096 126.35 1.31856
-19.5924 76.4613 -3.23002
19.9471 126.953 2.84665
-7.37622 94.234 -13.6686
5.38816 110.342 -10.6157
17.0377 123.757 -0.347928
24.3426 133.937 -3.97388
2.34885 101.535 17.3156
-2.11695 95.3169 19.6745
-17.6163 79.889 -7.43244
17.5598 124.213 1.43925
18.9689 128.08 -9.95288
25.0375 134.807 -2.65492
18.5731 125.503 2.37295
-10.7944 84.8813 15.855
-15.41 79.8055 10.5859
5.52769 110.842 -10.6352
16.229 123.264 -1.90972
13.6807 120.845 -6.95501
-16.9516 81.2252 -8.24546
24.8382 134.248 0.403176
-8.06384 93.7862 -13.4095
0.788532 105.341 -13.4299
21.0253 128.823 3.10242
-7.82793 94.1383 -13.4801
-16.953 78.5106 7.91379
2.68723 107.819 -13.0889
10.1042 113.52 9.77289
12.1556 119.787 -10.6149
21.1648 129.158 3.09464
3.36704 108.702 -12.4702
-18.6763 77.3035 2.68665
-9.03949 92.6637 -13.1437
-9.97811 86.261 16.3658
21.5384 129.706 2.95644
-15.7196 83.5274 -10.6484
-19.0612 77.0775 1.34214
24.2721 133.55 1.47978
-15.5798 80.0719 10.5551
5.5497 107.188 13.4528
16.9907 125.884 -8.02491
4.34113 105.393 15.0863
9.69133 116.565 -8.66732
-17.9956 77.901 5.95912
15.7714 123.916 -5.36511
1.93015 101.877 17.4401
15.905 123.575 -1.97486
-10.5986 91.0032 -13.1885
13.4235 121.675 -9.40415
-8.4759 93.7951 -13.2286
3.33565 104.036 16.2292
-18.366 79.4686 -4.88757
21.8994 132.344 -7.01506
23.1061 132.309 2.32767
-11.6765 84.7117 15.214
15.6429 121.019 11.3667
21.1619 129.707 3.13541
15.3645 123.719 -5.44063
-15.8332 83.9661 -10.6063
-19.4233 77.4487 0.361594
-7.82591 95.0023 -13.3922
-18.5903 78.1062 3.23049
9.46064 113.582 9.85396
-8.11418 89.3014 17.8025
-8.8128 93.8203 -13.0583
-15.1759 81.1099 12.6617
-15.1491 85.3827 -11.1208
-5.87066 92.3021 18.7027
17.5937 127.928 -9.60767
14.9017 120.943 10.4056
-18.2855 78.5956 5.18329
17.177 125.77 -0.0107317
-5.559 92.852 18.7365
-8.27853 94.9314 -13.1593
-18.558 78.5981 3.58615
-9.49373 93.3214 -12.8309
-1.48518 103.993 -14.0829
10.2051 118.194 -8.09735
0.758452 101.335 18.0629
22.4236 132.271 2.76147
-2.20206 103.181 -14.3393
7.15744 110.893 11.3243
-13.1937 88.5971 -12.7184
0.317429 100.884 18.1322
17.4166 125.007 7.91982
16.6597 126.068 -3.52875
-9.63201 88.2943 16.5605
-18.42 78.9537 4.8935
10.3448 118.821 -8.04313
-19.5651 78.1698 1.39687
-9.80328 88.2743 16.3714
-4.7692 94.4189 18.7579
-1.73076 104.162 -14.1164
-5.35419 93.6814 18.6798
-13.3897 88.7593 -12.6833
0.961717 107.625 -13.3021
15.6413 125.731 -7.20978
-19.8386 78.0864 0.786633
24.1234 136.24 -3.9167
-7.69742 90.9169 17.9893
4.69397 107.866 13.671
-12.6454 89.9682 -13.1318
-17.9018 79.6388 6.68429
-7.68471 96.5066 -13.2066
-4.88313 94.5835 18.6942
4.31498 111.591 -9.78469
5.95737 113.744 -9.84772
15.8165 126.16 -7.33885
17.008 124.879 8.98396
-1.14665 99.5691 18.3936
9.95955 115.698 9.10589
20.4498 130.367 3.46308
-20.4065 78.1696 -2.58048
1.54906 108.614 -12.9218
17.834 127.247 1.92659
19.7636 131.667 -8.72032
18.0139 127.562 1.75997
17.0095 126.462 0.636309
18.8423 128.633 2.26918
14.6075 121.878 9.61899
-17.7717 82.6305 -7.1095
17.752 129.382 -9.54262
16.6131 127.108 -4.89341
9.38745 118.321 -8.21009
-8.69482 90.2873 17.2247
1.79713 109.277 -12.6813
24.854 136.912 1.13892
-20.3886 78.6235 -2.56246
-20.5069 78.2491 -1.26047
-11.9848 91.4332 -12.9711
15.5724 123.2 10.856
-15.8863 82.2081 10.8932
-4.3645 95.8744 18.9461
12.9064 123.055 -7.19661
16.1631 124.194 10.7178
20.4055 130.991 3.56276
16.7152 125.228 9.09388
17.5145 127.594 1.89026
13.909 121.739 8.56624
16.3505 127.848 -8.0692
-10.9447 88.3583 14.3416
16.3209 126.369 0.461938
-20.1521 79.4881 -3.23623
24.8738 137.449 1.18011
-19.9836 79.029 0.864381
-20.2551 79.3223 -2.69916
15.2069 125.27 -1.04845
-1.02735 100.739 18.2563
-19.1993 81.1613 -5.0881
13.426 124.101 -7.36848
-15.1293 87.5442 -11.0694
-9.94499 89.6247 15.7638
17.329 127.097 4.87724
25.3546 138.249 1.12347
17.3374 127.138 4.92552
-12.9063 90.824 -12.8189
-17.6967 81.0116 7.58522
7.11991 112.832 10.7727
-17.8754 80.9162 7.06241
8.7582 118.347 -8.29306
18.4132 128.615 4.97885
23.3639 135.491 2.66236
-17.1038 81.6251 8.99135
15.771 126.511 -2.48112
-9.20434 90.698 16.1193
13.3404 121.57 8.11957
-15.147 83.7936 11.9281
17.2132 127.853 1.31586
15.8075 127.288 -5.82567
-7.49708 92.7262 18.0124
-10.417 89.4024 15.2946
11.5624 122.463 -9.57064
15.9797 126.43 1.08839
-11.0003 88.9659 14.1464
15.54 126.054 0.0605304
0.726504 103.641 17.779
-20.3143 79.7195 -2.13395
-18.7384 82.5295 -6.27782
12.9715 124.238 -8.21116
5.99499 115.377 -9.36323
14.7984 125.462 -1.25555
16.139 127.515 -2.97617
-10.0379 90.1865 15.3334
24.4795 138.184 -1.52836
21.4335 133.409 3.26506
9.23126 116.567 9.02273
19.6677 131.141 3.52016
14.5589 126.423 -7.49383
16.438 126.164 8.25009
15.9796 127.829 -4.52515
16.6335 128.776 -4.9554
12.7117 124.111 -7.41496
12.9482 124.698 -8.93542
15.8998 128.412 -8.16191
12.6368 123.994 -7.13294
17.7413 131.06 -9.26697
-17.7895 84.5683 -8.30513
16.8052 128.991 -4.38883
17.7645 131.128 -9.25923
-18.5505 81.2065 5.60867
17.9124 129.301 2.46341
-14.5854 89.4318 -11.6154
-2.50583 105.596 -13.826
17.9477 128.837 5.84108
15.8715 128.597 -8.13349
17.6551 128.93 3.41622
16.5824 127.016 6.40734
-14.5232 85.4802 12.1006
11.3622 119.966 7.90245
15.0568 126.473 -1.61896
-11.2192 89.5948 13.6549
-10.9552 89.8598 14.1329
5.29345 115.141 -9.13821
21.9715 136.43 -6.31711
10.0667 121.515 -9.67246
-9.65896 91.4306 15.2573
6.45723 113.246 10.9212
16.9775 129.999 -6.12445
1.00752 105.019 17.571
-8.67502 97.7361 -12.6327
23.0593 136.396 2.90125
-19.3655 81.0608 3.28496
-16.0558 84.2287 9.9662
-17.1463 86.1228 -8.88767
-11.4442 89.705 13.2097
-6.7348 95.0382 18.1392
-11.6797 89.5854 12.856
21.9904 136.857 -6.33228
15.2041 128.318 -8.04772
-0.378218 103.436 17.9934
9.8393 121.329 -7.99737
-19.019 83.4467 -6.41961
-3.17736 105.433 -14.0045
-3.52045 105.007 -14.087
9.06037 120.326 -7.88142
-10.257 91.2199 14.5533
12.5247 125.35 -10.6464
15.0389 128.067 -7.3565
17.0773 130.677 -6.33303
12.5298 125.068 -8.11116
16.2197 129.803 -7.50926
13.9307 126.946 -8.15011
-14.8294 90.0465 -11.433
3.80646 110.026 13.3617
15.9052 129.489 -7.28431
1.57275 106.611 16.7801
-17.0304 86.8544 -8.78777
-10.6493 95.8327 -12.0657
17.0371 130.986 -6.61405
15.4741 128.698 -5.18496
-9.05933 98.0068 -12.5076
-10.9684 90.9333 13.6746
6.08404 113.701 10.9032
17.0263 129.467 2.37418
-17.2355 86.6961 -8.40555
18.6755 131.439 3.51679
-5.53099 102.954 -13.8899
13.9675 126.521 -3.30297
15.5222 129.147 -6.67795
13.7324 126.535 -4.87481
24.6922 139.959 0.274894
0.76648 110.916 -11.8944
16.811 128.495 7.16657
17.0163 131.112 -6.19123
1.74721 112.114 -11.2764
12.3381 122.673 7.27947
-19.6927 83.0707 -4.66403
17.9226 130.372 5.29085
-7.40626 100.686 -13.1001
-0.420578 109.655 -12.1594
14.4406 128.091 -6.79455
-18.0383 83.3378 6.93205
3.5377 114.221 -8.72818
23.6477 138.516 2.26611
-9.12845 98.4113 -12.535
-15.8739 89.1866 -9.66404
19.8086 135.496 -8.44101
17.4182 129.779 6.46763
17.0152 131.658 -7.14543
15.1056 127.85 0.398303
-7.34338 95.5032 17.9365
14.0865 127.68 -6.05929
19.1862 132.612 4.01278
-19.0399 84.5768 -6.23667
15.6456 130.098 -7.91959
3.01694 113.832 -8.99829
13.8301 128.12 -9.86306
16.8761 131.056 -3.93411
5.93613 114.218 10.7871
-15.0539 90.7656 -11.4879
8.48314 120.839 -7.75528
-6.28436 97.013 18.4283
19.4302 133.089 3.90755
16.6363 131.432 -7.33129
-10.2792 92.5161 14.5135
15.5898 127.112 9.58225
22.9169 139.183 -4.63758
-3.46844 100.65 18.9082
15.9262 130.615 -7.6105
-20.3012 81.9365 0.816971
14.8608 128.719 -4.45899
24.0614 140.329 -2.10248
-13.5316 89.0561 10.798
-9.40929 98.5345 -12.5055
5.82494 114.332 10.7881
-4.32295 99.6612 19.046
15.3866 129.34 -3.50497
15.457 127.089 10.0013
18.0241 131.618 3.57374
15.5586 130.49 -8.25225
9.22714 122.377 -8.98222
14.7229 129.306 -7.46877
-19.2944 84.7017 -5.86569
14.7874 129.193 -6.12307
15.29 126.898 10.7264
-8.98813 94.1765 16.8323
14.5338 129.056 -7.15242
18.5155 134.364 -7.77952
16.3764 131.569 -7.47292
-2.94551 107.394 -13.1266
4.28213 112.455 12.0631
6.64547 115.909 9.97076
15.1301 129.055 -1.8404
14.0768 127.694 -1.69733
17.4449 133.201 -7.73898
12.8237 124.608 6.96132
15.236 129.426 -2.47271
1.7044 108.654 15.4016
17.2906 130.624 6.04159
14.6881 128.827 -2.96461
1.79062 113.3 -10.1705
-15.7085 90.5832 -10.6006
15.98 131.376 -7.5706
4.39801 116.514 -8.88824
-1.36323 104.244 18.2519
11.9627 123.635 6.79016
-13.3353 89.9449 10.8815
22.3912 137.913 3.09645
-19.4824 83.4505 2.40814
7.25208 120.031 -7.41351
19.2066 135.665 -7.5473
-14.0687 93.1002 -12.2039
9.03092 122.516 -7.79936
-3.68259 101.286 18.733
21.9852 137.491 3.14465
-7.98356 101.228 -12.8264
14.3712 128.418 -1.60963
-0.769093 105.232 18.0524
-0.554492 105.566 17.8984
-11.9801 91.6816 12.1724
13.4861 127.863 -4.70456
22.5348 138.354 3.10079
14.4242 126.885 8.36395
-5.27496 105.122 -13.8606
-1.77198 104.037 18.3577
-19.8727 84.4894 -4.5967
13.2575 125.662 7.00878
17.7102 131.825 5.11497
6.99011 119.999 -7.07662
-16.6555 86.3604 8.95093
15.6332 131.441 -7.90877
-2.02483 109.265 -12.6311
16.8144 132.587 -5.52531
-13.511 94.1814 -11.8964
-20.1493 84.0609 -3.30458
14.7582 130.342 -7.42459
14.4993 129.973 -7.04986
-1.89375 104.152 18.3935
-18.7018 84.7119 4.51684
1.61827 113.765 -9.89286
16.2289 132.558 -8.43006
2.85402 111.295 13.3946
9.60311 124.173 -9.744
2.13712 110.313 14.2704
-19.6669 84.1419 1.57263
-7.2728 97.4649 17.7294
18.1316 134.936 -6.86566
-10.8882 98.0523 -12.1005
-14.5756 89.4541 9.58215
2.19105 114.602 -8.81436
-3.75193 107.639 -13.2291
-2.65969 103.479 18.5849
-18.7773 85.0435 4.17617
-1.88765 109.989 -12.3396
14.3903 127.435 9.19959
-11.3045 93.3157 12.755
13.5357 128.889 -5.35518
-12.0368 96.7134 -11.7039
-12.3161 92.2626 11.717
5.47539 118.857 -7.43827
15.5433 132.091 -8.0356
1.92287 114.547 -8.90306
17.3191 132.078 5.64055
-16.5925 87.3235 8.79715
13.3236 128.777 -4.94276
14.3272 127.589 9.28148
2.24568 114.992 -8.56958
13.5013 128.989 -4.63601
15.9834 129.917 8.54127
15.4605 132.282 -8.22412
16.5145 133.326 -6.33659
3.87843 113.679 11.7655
-8.83403 101.349 -12.3828
-0.406622 107.133 17.2788
14.122 127.587 8.69241
20.3577 138.438 -6.75067
-18.623 85.4956 5.3353
8.38505 120.183 8.3553
17.8396 135.209 -6.44588
23.4566 141.107 2.3926
24.3657 142.636 0.602535
14.0202 127.796 8.75707
-11.5256 93.8489 12.4658
-17.4388 86.9947 7.82701
-20.6397 84.3513 -0.761631
13.0055 126.969 6.4793
18.6176 136.694 -7.01534
2.48071 112.082 13.4089
16.2484 133.864 -7.96215
-20.2222 84.9407 -0.0917927
21.557 138.815 3.32821
13.2996 127.47 6.62861
13.1548 130.207 -9.98562
1.87476 115.295 -8.54721
-17.821 89.3881 -7.13259
-2.9645 104.266 18.4837
23.1457 141.987 -2.38674
-11.8604 93.8715 12.0236
14.5312 128.765 9.38522
11.5615 125.436 6.33679
17.1085 134.841 -6.02684
-18.0707 86.7072 7.04287
12.8195 127.144 6.25122
8.13128 120.676 8.30471
-2.72128 104.812 18.3375
10.3495 123.91 6.7553
15.7487 133.591 -8.18341
5.08641 119.433 -6.62302
15.1109 132.424 -5.76002
18.9816 135.732 4.19357
-5.43186 107.031 -13.5514
14.7432 132.159 -6.75141
-16.7506 91.6061 -9.5786
20.4471 139.6 -6.30456
-20.7473 85.0771 -1.51534
13.3251 130.919 -9.50201
-6.51938 105.803 -13.5976
13.4359 128.254 6.73534
13.6525 128.506 6.96133
-17.7979 87.5463 7.21203
-9.24255 97.1102 16.3355
-8.0783 98.4868 17.2379
10.7716 127.95 -10.3749
-15.5211 93.8247 -11.2018
-11.9783 98.6514 -12.0192
18.2515 135.235 4.22958
-6.58243 100.454 18.0313
13.2167 131.199 -9.65222
14.806 132.737 -6.53489
-18.1941 87.4308 6.56306
18.397 135.555 4.31294
10.2568 127.49 -9.89498
-17.5105 90.9284 -7.81912
-7.23588 105.343 -13.4245
-9.45146 97.2458 16.2407
-15.281 90.9762 8.7372
19.7936 137.487 4.30151
0.858064 110.946 15.0368
16.7355 135.415 -6.34069
-19.787 87.419 -4.16216
7.15343 120.307 8.68837
17.4662 134.292 5.79195
-5.15431 108.128 -13.1201
15.8924 134.723 -8.2673
19.1183 138.749 -6.59546
15.1997 130.95 8.84404
-16.5312 92.9542 -10.1866
-18.4232 89.8132 -6.06899
12.4314 130.815 -10.2242
-7.30445 100.207 17.7793
23.3851 143.478 -0.717939
-5.59867 107.858 -13.015
-13.4168 93.5681 10.3464
-18.5904 88.0062 3.64267
-10.4405 96.6459 15.0851
3.84133 115.983 11.0436
20.4106 140.545 -5.76866
15.9132 132.515 6.67936
0.175035 114.95 -10.033
0.441757 110.823 15.6702
-4.18018 104.476 17.6431
-1.91458 112.579 -11.4107
10.5728 125.774 6.18222
-9.42487 102.984 -12.314
-2.73151 106.466 17.7511
13.1048 129.161 6.21946
3.69918 116.028 11.1905
-3.88109 105.001 17.7635
-5.78246 102.649 17.6841
-18.0321 88.8109 5.97849
16.3276 135.873 -6.54614
-6.2173 107.646 -12.7433
14.1268 133.519 -9.03314
-4.98118 109.235 -12.5948
8.88723 126.533 -7.99467
-19.994 88.283 -4.17033
16.2447 135.999 -6.41373
23.4958 144.229 0.626959
-16.5523 90.7429 8.00629
5.20287 121.486 -5.51785
20.3285 139.559 3.9528
11.4236 130.427 -10.1303
-18.9577 88.7795 1.95511
-7.90991 105.848 -13.1966
-9.50936 103.634 -12.3001
-10.8011 97.2967 14.5734
-9.19339 99.0363 16.7043
12.9979 129.927 5.9626
21.5529 142.663 -2.97377
9.39933 127.756 -8.29921
11.8258 128.516 5.63486
-20.2364 88.3996 -3.94661
-17.8611 89.7338 6.16457
12.8661 132.62 -9.62292
6.91522 124.109 -5.10385
16.8188 135.149 5.86636
19.3135 138.648 4.65587
14.458 134.748 -9.15826
6.12276 120.738 8.76598
-4.76256 105.033 17.4766
-6.82862 107.589 -12.4024
-15.5132 92.5118 9.03541
6.87051 121.869 8.16615
4.91653 121.713 -5.43636
21.8931 142.314 3.53133
10.2811 129.424 -9.2566
-1.10473 114.981 -11.1644
-19.8475 89.4263 -4.78662
-5.56498 104.277 16.9274
14.1908 134.64 -9.26668
-7.66798 101.497 17.2144
5.49197 120.094 9.14149
-13.2232 95.3492 11.1622
2.72227 119.312 -6.8358
22.0063 142.712 3.23655
-18.5161 89.8518 3.44329
0.307323 116.692 -9.44994
1.7628 118.247 -7.40333
-1.19216 110.1 17.1658
-10.1277 98.7286 15.6308
8.5944 124.717 6.73394
1.35557 117.898 -7.81724
17.4481 138.492 -5.57548
16.2782 137.129 -5.99095
-16.0739 95.8353 -10.9946
12.1528 129.749 5.45387
-12.6737 96.1444 12.5556
-17.5164 90.9423 6.31425
10.595 127.765 5.6736
-10.164 98.9651 15.5678
21.7857 142.754 3.46568
-4.46368 111.335 -11.8578
9.44241 126.359 6.11334
-10.2269 99.0804 15.4764
16.8121 136.141 5.26146
-10.0095 99.3423 15.8499
6.27502 121.898 8.31933
16.1066 134.948 7.02081
-15.4424 97.0296 -11.2635
-0.00553305 116.908 -9.80146
16.3268 135.351 6.47735
20.5122 142.696 -3.96992
0.230385 117.197 -9.32509
-11.7708 97.5558 13.5313
1.65205 118.806 -7.53175
7.02995 125.437 -5.3195
-18.9263 91.8936 -6.4616
2.15215 119.541 -7.2789
-7.84248 102.48 16.837
-12.0451 97.622 13.452
20.4345 143.17 -3.74271
13.6747 135.415 -9.51543
11.5979 132.798 -9.94369
-6.95728 103.992 16.4773
-20.8174 89.463 -3.6078
-16.0126 97.0185 -10.9346
15.959 137.984 -6.84684
-10.5253 104.308 -11.6673
20.4049 141.877 4.15922
-20.2765 90.3612 -4.51106
4.05762 119.569 10.0449
20.6754 142.305 4.12293
-19.5055 90.5516 0.553067
-20.778 89.6393 -3.68624
18.8839 139.835 5.04478
-2.38453 109.965 17.3993
3.62726 119.044 10.4031
5.39008 121.625 8.81953
-5.41311 111.1 -11.2426
11.1885 132.472 -9.59471
-0.39373 112.878 16.0052
7.88874 125.345 6.66404
-11.3832 103.402 -11.37
2.63584 117.645 12.1039
13.3499 132.522 7.1116
16.0015 136.164 6.07573
10.2074 131.303 -9.1963
22.2864 145.533 -0.308936
15.4788 135.296 7.46999
4.42339 123.086 -5.02905
-14.3888 99.8008 -11.5225
-0.912176 117.222 -10.1319
-20.5949 90.5077 -4.05667
19.7964 143.286 -4.71605
3.36894 119.298 10.5014
-19.2085 92.8978 -6.68269
-11.9016 103.243 -11.2593
19.8262 143.456 -4.53669
9.11242 127.68 5.82816
4.21963 120.627 9.67244
17.0308 139.873 -4.7828
-11.3256 104.076 -11.375
-16.8806 96.6071 -9.76986
-18.5044 92.1557 3.65393
5.45853 122.576 8.62836
13.2641 132.815 8.44276
5.04222 124.394 -4.56709
1.80401 120.659 -7.12195
-11.036 100.016 15.1836
-19.5997 91.3711 0.863429
10.8095 130.32 5.00705
-5.53547 106.84 17.4198
-0.748078 113.314 16.0967
13.2738 133.07 7.73366
19.0367 142.815 -4.79717
-5.88438 111.372 -10.7193
10.0911 131.846 -8.63881
16.6087 139.654 -4.63436
8.11475 126.665 6.3053
-9.4133 102.082 16.203
-8.33875 108.33 -11.1938
5.46849 125.162 -4.51023
-19.4448 91.6931 1.48941
0.753097 115.77 14.3534
4.55732 124.094 -4.6841
15.2007 135.836 7.48389
15.3805 138.667 -7.15094
0.693034 115.742 14.4028
9.78302 131.619 -8.39126
-9.79692 106.79 -12.1805
12.8529 135.917 -9.86048
-8.03745 104.183 15.7715
-12.9538 98.2148 13.3947
18.8805 142.908 -4.68843
16.176 139.563 -5.72018
5.44234 123.107 8.47496
17.7957 141.518 -4.5909
13.1792 133.4 7.60026
11.4359 134.115 -9.34988
-1.21313 117.799 -10.057
-18.832 92.536 3.10055
16.9702 140.734 -4.59015
-19.2241 93.9677 -6.93915
18.4084 142.637 -4.51195
10.9872 131.352 4.71485
9.90594 129.884 5.09386
-20.4695 91.9668 -4.44394
12.2386 133.018 4.84688
-4.42272 114.004 -10.1662
-13.2104 102.788 -11.1919
-6.34367 111.583 -10.2499
20.5785 144.28 3.64932
-16.1888 98.8192 -10.2302
-4.45938 114.118 -10.054
-5.38846 108.149 17.4207
-13.3232 98.5667 13.2234
-8.61078 104.379 15.3589
21.6228 146.424 0.903489
-16.8247 98.1201 -9.38393
2.79648 123.051 -5.37414
-13.5376 98.5369 13.0285
-18.8404 95.3018 -7.66828
3.00954 123.395 -5.17622
3.97352 124.574 -4.63038
-18.3772 93.9924 3.89837
-13.06 99.2103 13.6977
-17.6715 97.137 -8.6405
-3.71885 110.821 17.4091
5.65222 124.79 7.75275
-20.3631 93.1009 -4.67791
-20.2988 92.9005 -2.52779
-19.4815 93.6173 -0.297615
5.09133 126.343 -4.19752
-20.6499 92.7746 -4.14987
3.27733 124.091 -4.82062
20.1159 144.526 3.86965
20.7277 146.264 -1.47823
-19.5238 93.47 0.40851
-6.78707 107.321 16.4639
-2.91574 117.041 -9.93928
17.634 141.113 5.56344
-14.779 97.9836 10.9449
-14.3972 98.3618 11.7583
21.1571 146.753 0.187613
-17.7332 95.0811 5.7398
10.5044 134.459 -8.57778
9.11703 132.498 -7.44062
-2.65058 112.883 16.8997
7.88483 130.659 -5.94253
-1.31248 114.909 15.5014
-19.8941 94.4828 -6.03581
18.5666 142.691 5.0289
13.8119 136.021 7.85849
7.75708 130.55 -5.87552
-14.9886 98.0636 10.7502
12.8111 135.338 5.10363
-18.2027 94.962 4.80979
11.8409 136.746 -9.95642
4.92948 124.538 8.38219
-13.4763 99.6434 13.5436
-18.5591 94.7296 3.94613
-20.877 93.0885 -3.77288
8.88473 132.459 -6.99913
3.61682 122.69 9.62134
21.0441 146.989 0.85388
-5.57838 109.396 17.4186
-17.5888 98.3539 -8.6706
-9.91908 108.786 -11.1152
17.0519 142.792 -4.4334
7.18956 130.172 -5.54004
-7.82982 106.854 15.785
9.72482 133.838 -7.49509
-2.20772 118.62 -9.10865
16.6808 142.505 -4.70399
14.7428 137.92 7.09094
15.0416 140.689 -6.23974
20.1476 146.594 -1.62264
-16.8351 99.8135 -9.52128
16.6492 140.777 5.83498
-1.47564 115.537 15.2787
1.59014 119.976 12.7619
9.28669 131.459 4.68749
-19.0346 96.7219 -7.56572
-19.2863 96.3767 -7.18672
-16.9856 99.7979 -9.37851
-13.9535 99.8735 13.2407
20.7561 147.265 1.09212
-16.8212 97.0565 8.26977
8.92453 133.321 -6.80031
-11.5025 107.512 -11.479
19.3505 146.199 -2.6716
-19.5873 96.1743 -6.65054
20.447 147.254 -0.150745
2.42245 124.63 -4.96023
-15.1163 98.9226 11.3248
5.49744 128.641 -4.21169
-10.5432 108.929 -11.0361
20.5344 147.31 1.23407
-1.94317 119.837 -8.83754
-6.30293 114.3 -9.33787
1.21941 120.191 13.051
-18.7023 95.7782 4.32732
-3.102 118.442 -8.63224
-13.0971 105.903 -11.1839
-6.59433 109.474 16.8901
-19.0688 95.6307 3.21816
-4.23627 112.601 17.0816
18.4856 144.446 4.44949
-7.27577 108.878 16.3462
8.82839 131.937 4.75227
19.0167 145.403 3.82638
-10.8267 104.58 14.9255
3.77483 126.988 -4.10695
-5.16376 116.124 -8.5787
6.8616 129.201 6.26981
11.0236 137.41 -9.50544
13.507 138.006 5.54549
-19.849 96.5659 -6.11341
12.0226 136.409 3.88435
19.4245 146.267 2.95352
-4.14767 117.538 -8.38546
-13.0881 106.439 -11.3772
-20.8338 94.8807 -2.89455
14.3244 139.015 7.08265
5.39383 127.266 7.97171
-1.60897 116.862 15.4393
-11.1354 109.084 -10.9101
-0.908402 117.945 14.6212
2.16713 122.621 11.0781
10.298 134.504 3.92391
-8.12816 112.857 -9.58097
-19.3845 96.189 1.83527
18.2295 146.164 -3.38451
-19.515 96.471 -0.547155
-16.5862 98.6097 9.33749
-13.8591 105.744 -10.9544
15.1808 142.759 -5.95703
17.1366 144.925 -3.65971
-15.6674 103.339 -10.2309
11.523 138.568 -8.88735
13.4136 138.565 5.28147
19.1501 146.498 2.89223
-3.24753 119.244 -8.11252
-20.2817 96.5846 -5.24081
-20.5803 96.0666 -4.47957
-5.45402 111.992 17.1501
-19.1653 96.6206 3.00994
-20.8786 95.4838 -3.09148
-12.3164 103.594 14.4641
13.6198 141.273 -7.38927
-17.539 97.9542 8.11413
0.991841 121.321 12.7289
14.2635 142.146 -6.75723
-6.69572 115.301 -8.73937
-15.4226 100.445 11.7101
4.1305 128.696 -3.8604
-14.6448 101.273 12.9756
-19.308 97.4095 0.493274
3.49545 125.526 9.85956
-18.8736 97.3302 4.58314
19.0412 147.754 -1.06853
15.2977 141.624 6.11121
-7.16912 115.026 -8.8003
5.06516 127.948 8.59966
-11.3414 105.473 14.9575
-16.2462 99.8827 10.4487
-19.4255 98.7588 -6.5798
5.8285 131.419 -4.67719
-20.3617 97.3373 -4.96163
-14.0464 106.716 -11.2091
-19.0879 99.4274 -7.0145
13.7443 140.019 5.68019
14.527 140.901 6.56387
1.63901 123.259 11.4966
-16.7785 99.5585 9.76482
6.77028 130.955 6.07418
-18.3193 98.1649 6.63115
-0.675071 119.78 14.641
-20.4918 97.3489 -4.68403
7.65192 134.249 -5.50672
-1.79338 118.27 15.4344
-1.0976 123.138 -6.91523
11.1847 137.402 3.61752
-18.2909 101.085 -8.16294
-5.11055 118.35 -7.76524
12.9174 139.838 4.35762
12.3958 139.347 3.84266
-8.00315 114.948 -8.66166
-16.7889 100.23 9.94117
-18.3867 98.7726 6.42179
13.7694 140.864 5.69568
9.46656 137.683 -7.78074
-7.42095 115.825 -8.48709
-13.0083 109.044 -10.7987
4.11392 127.842 9.28411
8.23284 135.912 -6.04655
0.552403 125.752 -5.1438
-18.4369 99.0018 6.26026
1.56355 126.956 -4.33959
-2.45453 122.371 -7.96703
-9.67826 108.854 15.8282
1.25823 126.757 -4.49949
-3.96558 116.426 15.7587
-18.1311 102.234 -8.28769
-18.4464 99.4435 5.48384
-18.6235 99.6287 3.31809
6.28253 133.628 -5.03013
-15.0585 102.681 12.824
5.55966 130.453 8.18382
10.0588 137.186 3.48803
-3.11925 121.972 -7.66741
9.97897 139.277 -8.73231
-20.4438 98.8997 -4.4778
-17.3316 100.534 9.42535
5.60431 130.719 8.2275
1.19035 124.357 11.8283
-18.6474 101.942 -7.60778
-18.3162 100.136 5.31841
-9.30711 114.486 -9.30185
-3.07111 118.318 15.2623
-15.0682 103.125 12.9126
3.73633 128.258 9.46878
-3.82494 117.39 15.2884
-13.3282 105.202 14.3761
-6.91074 117.513 -7.9493
10.3564 138.097 3.37873
11.3568 139.454 3.21885
-12.0391 111.37 -10.508
-17.9176 100.698 6.81651
-4.26186 117.028 15.3422
9.91523 137.629 3.41458
-7.10015 113.174 16.3802
-1.76631 124.19 -6.58059
-9.15831 114.984 -8.94757
-17.9356 103.553 -8.94324
-20.893 98.5193 -2.16526
7.97907 134.873 5.28796
6.22251 132.201 7.5857
-20.8902 98.5825 -2.13716
6.271 132.448 7.19368
5.91578 134.105 -4.61396
-18.1599 100.975 5.63466
13.3866 142.208 5.11171
-9.14642 111.032 15.9714
-4.50243 121.163 -6.93448
1.78912 126.191 11.1863
8.96319 138.85 -7.44589
-1.2154 125.31 -5.78623
-3.44522 118.873 15.1425
-5.65269 115.96 15.4164
-20.8747 99.4241 -3.32928
-0.155649 123.515 13.7246
14.2694 143.921 4.68321
-17.4377 101.8 9.2306
-8.22137 116.888 -8.25051
14.262 143.938 4.67294
-18.2015 101.584 4.89702
1.70599 126.438 11.2494
6.7335 133.969 5.9653
7.086 134.486 5.81386
3.91086 132.065 -3.90722
-20.7623 99.4868 -1.45282
6.8394 136.162 -5.275
7.8911 135.905 4.35799
-6.04927 119.797 -7.38161
-5.0707 121.02 -7.02628
7.06301 136.621 -5.68676
-13.1959 106.76 14.3825
-20.7138 99.9123 -1.81547
-19.7718 100.515 2.36213
-10.0425 115.285 -9.48803
1.52728 126.735 11.3865
-20.3741 101.109 -5.1715
-17.6199 102.334 8.38564
-5.88438 120.456 -7.24474
-16.7428 103.174 10.9226
-20.2693 100.359 1.08539
-19.3145 102.91 -6.04512
12.3509 144.368 -6.91702
-2.09335 121.856 14.2007
-12.6371 108.025 14.7722
-18.6718 101.978 4.45227
-3.34787 120.104 15.018
-4.91829 118.022 15.237
-7.41937 114.742 15.7069
-3.96533 119.363 15.0855
-7.38094 118.9 -7.54866
16.7659 148.535 3.00908
4.20014 131.103 9.09969
0.329391 125.442 12.6356
8.80588 138.204 3.75601
-15.4846 108.965 -10.0124
2.36585 128.628 10.638
-0.160803 124.868 13.4033
10.2252 142.19 -8.04095
-20.7631 101.198 -4.36727
-13.8971 107.025 13.9628
-0.321215 128.048 -4.77778
0.794854 129.43 -4.13354
-17.2475 103.474 9.87194
-10.3965 115.815 -9.45539
16.9408 149.907 -0.624419
-20.7329 101.39 -3.61857
-14.7791 106.173 13.549
-7.52942 115.293 15.5064
9.16204 141.184 -7.74002
-3.94535 123.893 -6.55819
-11.2006 115.119 -10.1149
14.9618 146.74 4.12795
13.9871 147.081 -4.39634
-19.1025 104.378 -6.86237
2.60131 129.655 10.5339
4.58224 132.529 8.98083
8.86117 139.073 3.76978
-0.0455031 125.949 12.962
-20.2205 101.569 2.1242
2.62281 132.436 -3.67116
8.20254 138.444 3.9426
8.29183 138.58 3.91949
-20.632 101.581 -0.0731495
-12.1634 114.422 -10.0425
-19.843 103.587 -5.07124
3.32434 133.588 -3.81623
-20.9109 101.944 -3.47826
-7.79837 119.72 -7.34254
6.76773 138.449 -5.84363
-17.9278 104.027 6.89978
-18.122 103.885 6.27484
-17.7367 104.176 7.65396
-20.8672 101.838 -2.21638
16.1457 149.272 2.51446
13.2509 146.982 -5.65976
-19.5299 102.631 3.68063
6.47125 138.113 -5.24512
4.95905 135.992 -4.05728
-15.0593 111.06 -10.4899
-20.627 102.016 0.189247
-20.1407 103.541 -4.74503
-18.9589 105.58 -7.19254
-18.9588 105.388 -5.95989
-4.1992 121.035 14.5398
-21.0101 102.236 -3.18743
-20.9337 102.137 -2.04764
-9.72667 117.853 -8.22055
-17.5524 104.747 8.91231
10.7469 142.727 2.77179
-13.5043 113.4 -10.2102
5.85228 137.572 -4.09509
8.72565 141.846 -7.06896
-20.9113 102.614 -3.49737
-9.23702 114.52 15.6739
-10.2687 113.152 16.0813
11.034 144.964 -6.8089
-11.0938 116.642 -9.52443
16.0251 150.422 -0.236076
5.30538 137.121 -4.06229
12.1614 146.596 -6.56128
15.3747 149.265 2.45286
5.16274 137.099 -4.05037
-20.4998 102.637 1.89357
-12.7728 110.399 15.0745
-4.52459 121.279 14.3872
-20.5695 103.016 -0.687875
-11.2797 112.22 15.8854
5.54626 137.706 -4.06067
-13.8865 113.538 -10.3002
9.93353 144.069 -7.13594
1.38589 129.617 11.7598
-13.3513 109.912 14.6695
11.7109 146.358 -6.7819
-0.413342 127.184 13.1831
-17.0806 106.03 9.96148
1.19239 129.512 11.9185
-9.92524 114.351 15.7119
-14.0668 113.595 -10.3426
11.2343 144.406 2.49053
1.11999 132.23 -3.16345
5.0345 135.387 8.3232
-18.8199 106.943 -6.7664
-8.24155 120.883 -7.03961
-10.4885 118.22 -8.54691
6.22378 139.379 -4.70257
3.81049 136.13 -3.89632
5.08716 135.665 8.28873
-9.19029 115.833 15.3521
14.4846 149.732 -1.80866
-19.5048 105.247 -0.687046
-20.6722 103.966 -1.49268
-1.88491 125.873 13.3826
-11.1727 113.368 15.8845
4.72184 135.313 8.95764
-17.5605 106.345 8.49378
-19.6466 104.973 0.828961
-14.5214 109.386 13.8922
-3.0734 127.812 -6.00398
4.77509 135.447 8.86012
10.4404 145.585 -6.76267
9.07229 142.149 3.16607
-0.935414 127.404 13.2133
-5.29472 121.572 14.2113
5.29317 136.467 8.07083
-19.5658 105.75 -1.36453
-5.48309 121.433 14.2822
-19.5967 104.79 4.39831
-9.83834 119.776 -7.82962
-2.98157 128.349 -5.70404
-6.13346 124.227 -5.54714
-19.5415 105.076 4.54123
14.4632 150.422 -0.813426
7.43524 140.445 4.03858
-19.3506 107.144 -4.94152
3.36455 134.176 9.81672
-19.9724 105.125 2.02005
-19.9871 106.197 -3.82578
-7.22559 123.308 -6.45031
13.6505 149.968 -2.97621
-19.4085 107.253 -4.88434
-20.1492 105.834 -2.21374
7.83638 141.403 3.64569
2.27991 132.938 10.6387
10.3521 144.898 2.57265
-19.7963 105.679 2.49337
-17.8514 110.258 -8.52029
-17.4598 108.858 2.51176
6.70452 140.064 4.21358
1.13245 134.106 -2.81714
-19.9851 106.772 -3.927
4.14511 136.208 7.8194
-19.381 106.089 4.79711
3.95482 135.961 7.95073
7.46077 142.876 -5.24905
11.2165 147.85 -5.65672
-17.3927 109.091 2.66096
2.62553 133.937 9.83281
-19.2806 107.314 -0.697319
-18.4509 109.514 -7.03037
-1.83556 130.855 -5.05742
-8.23298 119.03 15.046
4.05931 136.375 7.61902
7.10158 141.05 3.87707
1.62377 135.152 -2.84555
1.39366 132.395 11.1996
10.6001 145.975 2.32714
-18.1136 108.725 1.40504
-13.245 117.136 -10.3003
-19.0886 107.333 2.42731
-19.9867 107.302 -4.05374
5.68616 140.773 -3.881
-0.577162 129.724 12.5593
-19.915 107.489 -4.20439
-16.814 109.752 5.98697
-1.81393 128.143 12.9979
-16.4379 109.261 12.5694
-18.7735 107.106 7.58699
-19.0589 109.095 -5.64696
4.37656 137.435 7.08359
13.6138 150.377 2.07542
-4.31109 128.216 -4.69641
-18.5442 108.287 3.16556
1.99145 136.167 -2.87715
-7.09062 125.063 -7.00078
-18.4765 110.299 -7.37687
-17.4313 109.811 3.18072
4.67746 137.999 6.90868
-17.6825 109.602 2.62748
-15.4349 114.718 -9.70131
-1.94886 131.492 -4.72975
1.3351 135.453 -2.76782
-6.58012 122.164 14.3868
-14.6873 115.955 -9.96779
-14.4886 112.097 13.8436
13.9002 151.326 1.26566
2.34702 135.096 7.92336
-10.3781 121.35 -8.10695
-18.049 109.573 2.05583
-12.1277 119.395 -9.48039
-18.8429 107.802 6.75107
-18.4981 109.232 1.19417
12.2387 149.172 2.05937
-19.6784 108.203 -0.843558
3.84013 137.51 6.88635
-10.003 122.105 -8.05554
-10.0494 122.143 -8.10031
-4.75128 128.582 -5.34093
13.8841 151.833 0.61834
5.80286 140.58 4.72717
-18.6281 108.422 6.76404
-17.9395 111.918 -7.36816
-17.467 112.59 -7.54837
5.77642 140.778 4.65433
-15.6929 112.41 6.81919
3.09742 138.748 -3.59301
-16.6048 113.912 -8.37491
-2.72242 131.425 -4.93206
-8.23797 124.739 -7.64665
-15.4431 115.599 -8.92501
-17.9943 111.955 -7.00522
6.72376 142.327 3.65048
-16.5147 111.881 4.61186
-14.399 117.104 -9.15628
-11.5166 116.611 15.0961
1.08207 133.996 9.728
10.7602 149.171 -4.80533
-2.06218 129.374 12.8219
-19.5541 109.827 -5.1728
-2.15572 129.367 12.8087
3.74915 138.168 6.53632
-14.3981 117.234 -8.97854
-10.7679 117.756 15.0972
-20.1452 108.543 -1.5723
-5.15224 128.865 -5.91293
-15.3608 112.162 13.5773
10.1111 147.441 2.1257
-17.7853 110.9 3.2067
-19.062 109.701 0.752063
6.82837 143.01 3.52003
12.4209 151.291 -1.81252
-6.43719 123.964 14.0663
1.36274 135.26 7.78733
9.22655 147.954 -6.04936
-17.2761 110.355 11.3969
-20.2096 109.216 -3.72029
-17.2413 110.943 8.59147
-16.0984 115.229 -7.28638
-4.61176 129.756 -4.65098
-14.0245 114.387 13.1567
-16.4492 113.056 2.76162
-15.9342 112.014 13.0365
-15.5322 114.08 4.44903
-8.99162 120.832 14.6657
12.6742 151.892 -0.877942
-17.4617 110.721 10.3093
-11.271 118.029 14.6969
-14.1481 114.61 12.9978
-17.4534 110.841 9.97203
-4.82651 129.9 -4.67155
4.1109 141.378 -3.65086
5.18563 141.167 5.86543
-2.44275 132.935 -3.79475
1.27168 135.857 7.47251
11.2657 149.893 1.8132
-4.30872 127.681 13.0466
-15.6857 114.707 2.52232
-0.591114 135.333 -2.86381
10.3511 148.803 1.8738
-15.7657 113.408 9.80606
-16.9453 114.755 -6.50776
7.56166 146.461 -5.07415
3.67592 139.487 5.89677
-19.6486 110.127 0.0696931
-15.8331 112.815 13.1527
-15.632 114.402 5.62787
-13.0461 120.465 -9.54437
-17.154 114.568 -6.40645
-14.1934 118.977 -9.13284
-1.508 131.923 11.5308
-0.454327 133.481 10.6127
-20.3385 109.887 -2.6498
-16.2989 114.46 1.35975
-16.6731 112.132 12.068
-15.8095 113.398 11.3857
-20.3527 109.935 -2.33354
-5.24592 126.958 13.2761
10.8477 150.78 -2.78501
4.4213 141.006 5.41468
-15.5904 114.33 8.81659
-5.15447 130.354 -4.7602
-15.4222 114.518 9.22093
-20.1551 110.256 -1.30205
-13.5527 120.285 -9.33937
8.3555 146.792 2.37903
-4.58569 131.198 -4.88603
0.942092 136.388 7.1919
-2.50294 131.089 11.8014
-12.8491 117.216 14
-7.5053 127.805 -6.58412
4.83043 143.397 -3.64468
4.46221 141.351 5.3382
1.19946 136.89 6.92873
-0.0394585 135.402 7.14897
8.77385 147.783 2.08295
-5.14578 130.871 -4.88717
-15.96 115.284 3.61235
-14.4252 118.099 -0.986064
-13.3231 121.024 -9.31131
10.8439 151.311 -2.17091
8.57471 147.691 2.11135
7.63529 147.715 -4.95083
-9.47211 122.106 14.0933
1.14143 137.276 6.70686
0.457276 138.059 -2.71919
-16.0353 113.895 12.7774
3.45112 142.265 -3.55447
-15.3601 115.781 7.69289
-16.0488 116.162 0.502416
7.15865 146.006 2.87162
-16.6762 115.556 -0.158912
-20.0374 111.474 -0.945533
-4.28301 129.63 12.6512
-16.1792 116.227 1.048
-19.9126 112.117 -3.12191
2.03376 139.268 5.59937
-1.22071 134.423 9.31671
-7.14655 126.033 13.7833
-9.15352 127.135 -7.23779
-15.7417 116.284 6.06268
-11.6906 124.079 -8.14264
-17.8109 114.299 2.33145
-1.12185 134.908 9.11601
-14.9917 118.595 -0.771726
-15.9314 117.393 -0.524563
9.90009 150.697 1.68727
-19.4777 112.676 0.0975949
-1.801 134.156 9.10481
-15.3176 117.207 5.39547
-15.8082 116.167 8.09765
7.70811 149.038 -4.45266
8.49828 148.962 1.94257
2.10215 140.082 5.15911
-14.662 118.923 1.37423
-15.055 118.893 -1.24704
-15.7865 117.652 0.436521
-4.2955 130.747 11.4831
-15.9389 117.417 1.42503
0.950154 138.707 5.81289
-18.7631 114.08 -0.0964974
-16.0707 118.777 -6.79985
-15.4636 116.735 9.42761
-1.5608 137.085 -2.78836
-15.9737 117.051 4.38239
-4.33746 131.071 11.0877
-6.97308 130.776 -6.63597
-16.3707 116.992 2.38151
-13.9976 118.217 13.1024
7.65675 148.377 2.13973
-15.3221 118.799 0.0866785
-14.6938 121.108 -8.25253
-15.036 119.353 -0.386655
-7.54062 130.356 -7.15629
-15.4635 117.135 9.35685
-15.9377 117.981 1.12563
1.6495 141.665 -2.91361
-7.82796 130.1 -7.03139
-16.5131 116.282 7.27502
0.617526 140.454 -2.80734
-3.6867 134.97 -3.34565
-1.64934 135.681 8.02003
-6.27409 128.86 12.5752
-15.5744 117.377 9.27618
-18.461 116.314 -6.06449
4.47153 144.443 4.1951
-14.3256 120.799 -0.631775
-15.9624 116.851 10.0359
1.24345 140.208 5.00868
-8.32425 129.851 -6.89037
8.10353 149.703 2.16094
-7.16705 131.353 -6.69468
-5.26118 130.85 10.3301
-14.0254 120.474 4.43022
-5.26084 130.91 10.258
2.49901 142.079 4.26918
-15.0722 119.787 0.866792
-16.1126 117.33 7.1353
0.443256 140.711 -2.77924
-14.0423 120.586 4.31028
-15.2693 119.684 0.395281
-9.08477 128.955 -6.47384
-7.06147 131.613 -6.40522
-14.7041 119.953 3.42157
-10.868 123.275 13.2896
-3.49848 135.802 -3.19491
-17.1863 117.069 2.40976
-5.56637 133.444 -4.4985
-14.4088 120.165 5.47515
-14.5155 120.44 3.16512
1.45698 141.02 4.58687
-0.787952 138.039 4.9397
-3.58503 135.861 -3.27437
-18.8799 114.926 2.54378
-19.615 114.897 -2.58498
9.88242 152.697 1.19403
-18.1992 115.651 3.99176
7.9175 150.01 2.25322
-15.4357 119.253 4.02177
9.459 152.182 1.36927
-17.0925 118.168 -2.04682
-7.45202 128.108 12.9974
-3.70326 135.871 -3.3646
-15.6342 120.205 -2.66595
-9.81636 125.017 13.2935
-16.9609 118.415 -2.07023
6.82831 148.685 2.33783
-15.9296 119.777 -1.43576
-16.2951 117.186 10.6668
-7.07862 132.173 -6.18207
-13.4049 124.222 -7.87049
-17.8648 118.232 -6.84847
6.54146 148.406 2.54831
1.15017 142.3 -2.69306
-12.7223 121.511 12.7849
7.2632 150.527 -3.97712
-19.2564 115.876 -3.49391
-15.0115 122.113 -7.33682
0.115216 139.639 5.18224
-11.8539 126.104 -6.57512
-16.8902 118.849 -2.5663
-14.4052 120.903 4.21541
-16.6573 119.209 -2.85224
-4.33425 133.235 8.82258
-12.2527 122.226 12.9995
-2.90062 135.295 8.23732
-16.2734 118.602 4.22762
-6.40606 130.348 10.6265
-16.0477 119.939 -1.44616
-18.6917 115.624 3.64434
-13.1744 121.29 12.6564
-15.507 121.701 -6.96766
-16.9443 119.016 -2.26974
-2.62828 135.967 7.63293
7.08853 150.669 -3.90784
3.49238 145.888 -3.27166
-18.7846 116.931 -3.72902
-16.0139 119.071 4.77662
8.19301 151.095 2.18929
-15.6627 120.819 -2.27399
-16.0639 118.158 9.9035
-14.7859 122.929 -7.70939
-16.5566 119.584 -1.75171
-6.47634 130.695 10.1646
5.31277 147.178 3.91799
-18.5475 117.864 -6.17774
3.13349 145.614 -3.18583
-14.8641 121.868 -1.46825
-4.2857 133.925 8.73527
-15.6706 120.868 -1.2266
-16.1832 120.118 -0.487268
1.35697 142.246 3.85692
-13.5159 121.315 12.6454
-16.1274 119.803 2.01975
-16.3381 118.311 8.95435
-16.7128 120.669 -7.01829
-16.3184 119.973 -0.0304628
-17.6325 118.77 -2.70357
7.89117 151.143 2.44958
-7.40098 132.837 -6.41225
-16.2899 120.421 -1.33262
-14.7089 121.265 5.68274
9.37081 153.722 -0.290918
6.96312 151.252 -3.84151
-7.01494 130.5 10.8661
6.23844 150.347 -3.60069
-17.0088 119.799 -2.09759
-17.881 119.486 -6.78475
-15.8972 120.844 0.384048
-16.4858 120.276 -0.503054
-18.917 118.067 -5.80518
-14.5591 121.955 4.44817
-11.0068 128.638 -7.20904
-17.3481 118.208 5.14875
-16.1031 121.461 -4.05208
-3.33031 136.228 6.83319
-6.77624 131.338 9.36322
-18.4098 118.661 -4.70812
3.04113 145.25 3.25608
-16.4864 120.812 -2.51187
-15.2298 122.337 -1.84807
-15.5707 119.481 11.8962
-7.34668 133.414 -6.346
-19.3044 117.535 -4.67194
-15.9821 121.142 -0.484949
-2.73539 138.874 -3.09452
-14.5124 122.315 3.92515
-18.5285 118.167 -2.22644
-15.3105 119.903 11.9248
-15.0396 121.531 4.76662
-16.4969 118.682 10.2401
-15.1421 122.529 -1.59689
-16.432 120.798 -1.18132
-13.9813 121.607 12.5662
8.94943 153.43 1.79946
-1.08952 139.966 4.09049
-16.054 121.907 -4.07229
-15.3106 122.162 0.113131
0.623912 142.648 1.87524
-15.7178 121.93 -1.27996
-15.4902 122.097 -0.240357
3.36123 147.198 -3.14779
-16.7305 119.592 4.89786
-7.0692 131.385 9.49374
-4.6754 136.934 -4.32448
-14.3444 121.366 12.587
-7.11461 131.331 9.62079
7.97118 153.084 -2.08265
-5.60352 135.827 -4.57258
-15.4428 122.481 -1.60127
-17.8899 119.445 -2.31108
-0.00201069 141.976 2.40047
-19.3095 118.22 -5.35589
-15.3401 122.417 0.218981
-15.613 122.54 -2.50539
-17.263 121.131 -6.68446
-7.00334 134.462 -6.1513
-15.2578 120.674 11.2697
-16.5656 121.162 -0.929457
-2.54725 139.834 -3.11352
0.173413 142.313 2.99768
-4.56163 137.495 -4.41991
-14.9284 121.153 11.8423
-9.66041 131.427 -7.53205
-3.41124 138.869 -3.4368
-1.67147 141.038 -2.80052
-16.872 119.119 9.17004
-16.4577 119.496 10.2232
3.95695 148.477 -3.18114
-16.1652 122.217 -2.79551
-8.14869 130.214 11.2724
-15.3096 122.921 -0.159945
-15.3989 123.053 -1.45621
-4.65422 135.34 8.49896
-17.2506 120.882 -2.67618
-16.78 121.419 -1.67506
-15.6115 122.997 -1.8184
-17.6697 120.368 -1.98501
3.79357 148.573 -3.1571
-6.55541 135.582 -5.62812
-8.30952 130.563 10.1515
-17.4702 121.414 -5.5247
-14.9757 122.882 4.79173
0.418232 144.266 -2.61308
-1.35621 141.113 2.3105
-14.2813 125.889 -6.88464
-16.4631 122.185 -1.94971
-9.45378 132.394 -7.8976
-16.3184 122.64 -3.26418
-17.6217 121.004 -3.20433
-1.79589 140.561 3.13287
-10.2132 128.349 10.2518
6.07993 151.984 -3.2946
-1.65629 141.087 1.32739
-11.8736 126.71 7.94103
-7.04285 135.606 -6.45997
-10.9175 130.916 -8.16026
-15.8179 121.973 6.49039
-13.574 124.524 8.63993
-7.25728 135.516 -6.87501
-17.6816 121.212 -2.54732
-6.74864 136.031 -5.73784
-17.4827 121.634 -3.40604
4.88639 150.773 -3.11816
-7.93227 131.924 9.19354
-16.4079 120.855 9.41941
-15.6258 122.577 5.6008
-16.3189 123.359 -3.59691
-0.774656 143.463 -2.63089
-16.9872 122.621 -3.33733
-16.073 124.457 -6.9395
-1.9467 142.171 -2.85264
-15.7675 124.343 -3.89971
-4.7106 137.073 5.73068
-20.2896 117.12 4.31901
-17.9349 120.071 5.13246
-1.79662 142.616 -2.78614
-17.0723 121.352 5.1265
-8.62684 134.61 -7.65551
-9.25229 133.879 -8.01802
-16.9147 123.115 -3.0497
-19.8123 117.968 5.06908
-15.7101 124.56 -1.8903
-21.3694 117.297 -2.15612
-13.1384 126.633 5.83611
-4.92867 137.331 5.87563
-12.6992 126.226 11.4721
-5.68735 138.227 -4.67706
-12.0485 127.441 9.73164
-14.1601 125.302 6.37536
-15.9015 123.282 5.06723
-15.8793 123.222 6.16434
-15.0042 126.42 -5.45216
-15.8752 122.597 9.9157
0.988299 146.806 -2.70915
1.73673 147.865 -2.82331
-15.1226 123.535 10.6604
-16.2873 125.024 -6.38882
-11.9162 131.031 -8.00161
-15.9036 123.602 5.00791
-13.0359 126.399 10.616
-16.8447 124.129 -4.49536
-13.0705 126.438 10.4946
-3.53757 140.158 3.27372
-17.6326 123.072 -3.65688
-20.3954 118.15 4.99766
-17.5361 121.688 6.10917
-5.41462 137.495 6.16365
-13.1824 127.433 5.97127
-2.83761 142.552 -3.13907
-17.2389 124.102 -4.81001
-3.14873 142.224 -3.25702
-17.1557 124.298 -5.06207
-5.60981 139.317 -4.3811
0.39407 146.851 -2.61669
-8.81133 135.721 -7.55662
-5.61598 137.477 6.28934
-4.51675 139.196 4.95542
-16.3464 125.389 -3.87327
-15.5297 126.035 -1.3734
-15.954 125.789 -2.88189
-22.0284 116.868 2.8798
-4.19113 141.384 -3.71957
-13.3978 127.804 5.68171
-3.81188 141.155 0.873675
-16.2827 125.894 -4.77557
-6.32598 136.697 7.63252
-13.213 128.057 6.05075
-13.1386 128.162 6.18857
-5.16332 140.377 -4.16026
-7.76061 135.047 7.01546
-16.06 125.8 -1.86468
-13.7124 129.741 -6.79003
0.97236 148.223 -2.6816
-0.986679 145.676 -2.52692
-3.8701 141.339 1.04083
3.30144 151.56 -2.91269
-8.67813 136.771 -7.52919
4.56645 153.203 -2.66481
-4.28836 140.48 4.15609
-22.868 116.719 2.08694
-11.9216 132.715 -7.68138
-18.7108 123.238 -3.64358
-16.132 126.483 -2.57526
-12.854 131.626 -7.48118
-11.7275 130.547 7.16715
-21.3068 119.963 -2.78417
-15.3917 126.411 4.49321
-4.10153 141.3 3.53886
-11.6417 130.865 7.19371
-12.6494 132.279 -7.44581
-12.7011 129.785 6.86276
-1.26665 146.438 -2.4633
5.65835 155.268 -1.18592
-13.3869 131.441 -6.73211
-15.2121 128.642 -3.36258
-16.4303 125.416 6.11576
-15.6914 126.431 5.98629
-23.1286 117.29 3.06923
-9.40856 137.074 -7.3494
-5.41276 140.055 5.44213
-9.04345 137.583 -7.16868
-16.9087 126.921 -4.49881
-14.7893 129.484 -3.19061
-4.88551 142.62 -3.92538
-23.725 117.093 2.53817
-16.1617 127.763 -1.89891
-0.929312 147.81 -2.46415
-15.0294 129.438 -2.26781
-1.34669 147.316 -2.45648
-17.3427 126.806 -4.15485
-16.1399 128.392 -4.05493
-15.7626 128.615 -1.85277
-17.091 127.194 -3.39404
-15.7774 128.638 -1.28538
-8.16623 137.274 6.19688
-8.64023 138.989 -6.57179
-16.4668 126.5 6.55352
-24.2105 117.16 2.70056
-16.0217 128.645 -1.83532
-17.116 127.631 -3.51723
-10.3655 134.635 6.93972
-16.4185 128.301 -1.76841
-9.87991 137.708 -6.77521
-8.50975 139.46 -6.3008
-18.4679 124.111 7.22072
-19.659 122.711 6.92247
-8.54139 137.425 5.68589
-5.43004 141.684 4.89362
-24.9976 116.673 2.2178
-18.3921 124.433 7.31447
2.95288 153.919 -2.10851
-15.1761 128.935 5.75913
-11.0475 136.575 -7.08141
-5.34901 143.591 -4.06832
-25.0692 117.616 -1.96194
-20.5084 123.943 -3.66543
-16.2806 129.172 -1.80051
-21.3775 121.139 6.11863
-18.6792 126.577 -4.57585
-23.3029 120.235 -2.72715
-15.5081 128.962 5.77206
-19.6946 125.161 -3.65982
-12.8593 132.302 6.85427
1.60598 153.001 -2.67301
-12.001 136.058 -7.10144
-25.5612 116.962 2.46295
-13.3338 132.202 6.8366
-19.4856 126.109 -4.03851
-8.01245 141.495 -6.15426
-16.1616 130.258 -2.64786
-20.0644 123.523 6.92822
-12.2141 133.818 6.75256
-16.8195 127.939 6.10224
-17.8325 128.519 -4.09718
-24.8111 119.143 -2.38601
-15.0386 132.012 -1.94522
-20.8557 124.745 -3.64602
-12.9731 133.274 6.78016
-4.38928 146.257 -3.41964
-23.3188 120.412 4.92308
-15.9324 131.735 -4.70075
-1.22142 150.525 -2.25849
-16.7918 130.579 -4.25938
-22.7396 121.14 5.46348
-7.11211 141.543 5.83156
-25.5325 118.883 -1.69217
-6.32268 144.515 -4.88164
-8.24384 140.2 5.5555
-20.0078 124.63 6.88304
-19.7221 125.015 6.88764
-20.8864 125.46 -3.69949
-15.742 132.099 -3.10407
-15.3727 132.436 -2.24912
-15.4167 132.5 -2.51239
-18.2518 127.081 7.36987
-15.6461 132.104 -1.6274
-11.5262 135.948 7.22828
-6.96452 142.374 4.91887
-19.8338 127.271 -4.46409
-14.0346 135.06 -5.40478
-7.50253 141.667 5.82667
-17.0285 129.113 6.80453
-13.9456 135.374 -5.63236
-25.7312 119.404 -0.824068
-21.7239 125.154 -3.72337
-10.358 138.256 6.14014
-22.3183 122.716 5.96963
-13.2904 136.562 -5.82256
-10.7111 140.077 -6.51775
-15.5505 132.969 -1.71473
-25.656 119.684 -0.938705
-15.8388 132.883 -2.91669
-24.372 121.714 -2.51662
-10.3555 140.706 -6.58204
-15.2425 133.734 -2.59978
-15.7964 133.395 -4.43706
-11.1903 139.866 -6.5493
-25.8679 119.67 -0.388959
-24.5328 121.829 -2.48685
-9.33202 140.214 5.77194
-19.247 127.098 6.90603
-4.93843 147.685 -3.83455
-16.5967 130.622 6.84699
-24.3592 120.927 4.58868
-23.2998 123.716 -3.09387
-22.3525 123.41 5.98542
-10.3763 141.227 -6.19781
-14.5142 135.627 -4.94656
-21.5098 126.37 -3.84607
-7.59912 144.918 -6.02369
-15.8189 131.919 7.10952
-15.5706 133.773 -1.56209
-1.00565 152.987 -2.16546
-25.7463 119.685 3.87538
-8.34654 144.157 -5.93595
-15.0455 134.847 -2.49116
-1.10406 152.964 -2.13873
-18.0638 129.221 7.83011
-19.7776 127.188 6.71553
-17.9727 131.367 -3.50357
-22.6562 125.276 -3.55253
-20.5411 126.394 6.56561
-25.5615 120.369 4.0542
-22.0144 126.446 -3.86761
-12.3781 137.174 6.90037
-15.5733 134.92 -3.71446
-14.1297 136.928 -4.40845
-13.3971 138.148 -5.64756
-23.92 122.629 4.99266
-10.068 140.55 5.97056
-27.716 118.506 0.623597
-27.5536 118.726 0.709941
-28.0337 118.149 1.686
-22.2556 126.708 -3.93897
-27.3485 119.19 1.47156
-17.6364 130.81 7.62506
-20.1353 129.734 -4.00353
-10.4592 142.689 -5.33587
-11.7856 138.996 6.33633
-18.75 131.713 -3.46426
-15.714 135.544 -2.09301
-25.3233 122.02 4.34271
-6.99417 147.59 -5.08898
-28.2862 118.625 1.90329
-19.2693 131.532 -3.76126
-25.09 123.664 -1.25577
-3.37318 152.194 -2.21322
-16.4628 135.154 -1.86183
-10.3874 141.737 6.2846
-16.0884 134.02 8.13699
-15.6862 136.661 -3.23036
-27.6732 120.38 0.569805
-15.3127 137.302 -3.614
-8.05574 145.697 3.61121
-17.848 134.172 -3.44076
-26.4164 122.417 0.129749
-25.6813 122.706 4.35615
-12.742 141.264 -4.97754
-15.7333 136.833 -1.91092
-5.3542 150.612 -3.30994
-6.46511 149.352 -4.29288
-17.2976 133.166 7.63815
-28.2787 119.809 2.21728
-24.8321 123.866 4.9169
-12.3556 141.916 -5.10414
-5.60083 150.465 -3.54888
-8.39812 147.209 -5.37613
-3.5548 152.95 -2.09592
-8.03902 146.162 3.47239
-24.4531 124.633 5.13401
-26.0019 123.644 0.0396088
-8.30819 146.077 3.70573
-19.6881 132.6 -3.08415
-12.7601 142.033 -5.07782
-22.0033 129.691 -2.60297
-6.64219 149.981 -4.06941
-9.40271 146.69 -5.59482
-14.7178 139.713 -5.02899
-28.4417 121.004 0.272474
-5.98296 150.954 -3.51674
-8.71699 146.138 4.00866
-11.779 141.757 6.78092
-21.505 129.256 6.20359
-7.22623 149.716 -4.26733
-20.3378 132.465 -2.69668
-11.8881 141.932 6.87118
-25.2732 125.906 -0.785364
-16.268 138.061 -1.80049
-12.7159 143.288 -5.18011
-18.4427 133.601 7.55195
-5.97768 151.804 -3.15836
-12.4276 141.79 7.02338
-25.3568 125.349 4.76468
-28.6686 121.611 1.67086
-15.267 140.03 -3.6714
-4.87366 153.349 -2.13897
-26.6733 123.883 4.12627
-24.5121 127.629 -1.105
-15.1619 140.28 -3.7035
-16.8898 137.682 -1.70272
-19.3587 132.847 7.60384
-28.7892 121.549 2.2784
-11.3711 143.625 6.39698
-28.1384 122.882 0.650211
-23.854 127.738 4.91875
-23.5266 128.276 4.86323
-11.5921 145.592 -4.86187
-25.2043 127.192 -1.05673
-12.3816 142.711 6.88635
-9.63238 148.395 -4.77798
-10.6886 145.264 5.46001
-26.6609 125.285 0.864336
-10.5811 147.337 -4.83109
-12.4696 142.871 6.88901
-23.0974 130.418 -0.695267
-20.7445 132.205 6.84787
-14.1329 142.865 -4.66975
-21.263 133.16 -2.28896
-27.6135 123.937 3.69569
-8.35154 150.347 -3.64268
-25.0268 127.125 4.86011
-23.1643 130.503 -0.348921
-24.7151 127.567 4.86021
-21.8043 131.276 5.9193
-15.7653 140.514 -1.69504
-21.9161 132.462 -1.3902
-23.082 130.806 -0.52768
-14.8504 142.231 -4.24895
-23.4081 130.392 0.622374
-13.3662 144.339 -3.23082
-16.1495 140.654 -1.61688
-19.9066 134.247 7.10824
-19.7951 134.413 7.20862
-27.1116 125.666 3.20958
-26.3799 127.26 0.563431
-10.8835 148.288 -4.10417
-15.9802 141.426 -1.76536
-18.4791 138.08 -1.13853
-8.84894 150.95 -2.73823
-26.6662 126.707 3.55599
-7.83885 151.822 1.35629
-14.4924 144.054 -3.46207
-25.7957 128.616 1.07171
-11.7692 146.229 4.97386
-11.8663 146.166 5.03253
-27.2624 126.735 1.96865
-12.6041 146.747 -3.0541
-26.8032 127.449 1.79491
-15.6551 142.877 -2.65142
-12.4236 145.753 5.38632
-19.5388 136.121 7.67153
-13.6296 145.521 -1.93537
-11.0333 147.989 3.7181
-23.4478 132.294 1.08639
-6.78361 154.267 -0.195888
-20.4675 136.663 -1.48718
-7.24755 153.576 0.777311
-13.8755 145.402 -1.80878
-25.6266 129.531 1.46363
-13.4833 144.435 7.01955
-12.8468 146.987 -2.23951
-11.2297 149.459 -3.23125
-18.6106 138.025 7.5086
-25.5397 130.064 1.6692
-15.5967 143.868 -2.29243
-23.4283 133.06 1.34633
-23.7383 132.177 4.43492
-25.2474 130.393 3.70706
-25.615 130.145 2.77853
-9.97491 150.651 2.13529
-22.2137 134.042 6.03728
-9.7237 151.13 1.72333
-17.2959 140.379 7.23731
-21.5598 135.012 6.28808
-25.2034 130.672 4.03922
-18.5331 138.885 7.34525
-8.33172 153.524 -0.216559
-20.9765 137.232 -1.16766
-22.2655 135.739 -1.18926
-16.7946 143 -1.78235
-15.6069 144.472 -1.32085
-11.7554 148.714 3.46186
-21.7434 135.283 6.22567
-20.2145 137.131 7.24394
-22.5073 135.585 -0.782774
-22.7782 135.229 -0.461715
-24.1725 132.779 3.21303
-22.175 136.154 -1.08027
-19.5439 138.254 7.14549
-22.498 135.948 -0.537758
-10.7859 151.496 -1.02052
-23.4421 134.574 2.56583
-13.3715 148.217 0.186147
-14.3765 146.146 5.27079
-23.6342 134.461 3.15028
-14.3859 147.233 -0.174852
-22.8962 136.039 0.446445
-15.1061 145.152 6.43122
-17.8093 142.941 -1.01331
-19.6083 139.267 6.84775
-14.699 145.91 5.50452
-11.8545 150.444 1.20262
-15.2911 145.053 6.5146
-22.9659 135.26 5.44411
-13.0274 149.187 0.249981
-17.0271 144.22 -1.09327
-21.3031 138.535 -0.444655
-17.3293 143.925 -1.28175
-17.9297 143.189 -0.985531
-16.9805 143.22 6.74253
-13.3941 148.945 0.942739
-23.2667 135.333 5.16639
-12.6805 150.035 0.190851
-21.9327 137.946 1.25892
-20.3424 140.369 -0.0999463
-19.0025 141.035 6.63247
-14.1451 148.38 0.958375
-21.0149 139.649 -0.18689
-20.7192 138.903 6.30055
-15.2696 146.271 4.84306
-23.7214 135.351 4.73457
-17.6752 142.919 6.54466
-18.6201 141.759 6.64978
-20.7305 139.127 6.18977
-18.8106 141.754 6.49437
-14.0206 148.605 3.28273
-17.9612 144.232 -0.703993
-23.097 136.707 4.42721
-13.653 149.554 1.86731
-14.2442 148.945 1.60697
-22.6312 137.543 4.82113
-21.6593 138.747 5.29911
-15.0141 147.803 3.67785
-23.0558 137.438 3.07632
-14.792 148.459 2.10599
-21.5411 140.118 0.116014
-17.3178 145.846 0.559524
-21.5413 140.438 0.307978
-15.7022 147.791 2.26855
-20.5277 141.869 0.444526
-16.9008 146.031 4.44478
-16.3935 147.072 2.75536
-20.542 141.248 5.13939
-20.9153 141.295 3.95839
-21.239 141.499 2.25109
-19.7455 143.368 3.94191
-19.2349 144.543 1.17939
