ply
format ascii 1.0
comment Created by Open3D
element vertex 1983
property double x
property double y
property double z
end_header
-6.93794 89.7873 4.42573
-18.6833 83.736 8.99547
-19.5147 84.3423 8.84964
10.716 125.266 -14.7908
-10.1221 88.9607 5.34059
15.7676 101.432 -4.23395
-24.3857 120.813 -7.55906
14.64 106.693 -6.48383
-25.0743 119.303 -6.67823
15.2308 110.208 -8.20502
11.9525 92.6245 0.58215
-10.2454 90.3923 4.84657
14.6753 107.019 -6.58054
-8.64489 92.4339 3.67902
6.34975 91.0548 2.17858
-25.2625 110.457 -2.37996
-16.5753 84.7608 8.49179
-21.4636 124.121 -9.35306
-25.131 119.361 -6.57713
5.93403 91.1995 2.23295
-19.117 85.8133 8.39544
-25.9524 98.7215 3.30275
14.7017 123.264 -14.1105
-26.1524 113.644 -3.63104
15.3064 98.0024 -2.24088
-26.0803 99.5646 3.01285
12.9255 122.42 -13.3995
14.9164 107.995 -6.87887
-22.5741 122.023 -8.06719
12.2629 121.076 -12.6344
-6.78591 122.793 -10.684
11.1495 119.565 -11.7336
14.7891 106.599 -6.12772
-6.67275 122.914 -10.7021
-25.7868 109.552 -1.63288
-11.2194 122.913 -10.0355
-18.3357 126.135 -10.4934
-10.9666 92.0564 4.51359
13.7085 123.126 -13.6893
-26.1253 108.323 -0.928658
-6.83595 93.2682 3.38686
-6.90532 92.4272 3.80326
5.24084 126.763 -14.1296
-18.7741 85.9554 8.59926
4.12332 124.516 -12.8818
12.8186 93.7249 0.381094
-24.1908 89.1345 7.91408
0.934986 90.9642 3.42712
10.7595 92.896 1.10247
15.1987 98.9812 -2.39165
-23.0111 94.541 5.227
3.16153 91.6983 2.78542
16.0557 103.684 -4.70226
15.1331 118.914 -11.7339
12.6174 121.857 -12.753
1.9792 91.5894 3.11417
-24.3913 121.526 -7.17797
13.1731 122.385 -13.0072
-6.08 93.4383 3.43056
-12.7861 89.2734 6.37767
3.56417 91.8213 2.82805
15.2359 99.3284 -2.36206
-23.6968 95.8359 4.93866
-25.7933 106.618 0.18112
15.1893 99.0654 -2.15407
-8.24921 91.1447 4.99254
-26.7439 116.241 -4.14417
-4.48653 92.4858 3.84399
-15.5689 86.8847 8.0956
-23.9569 88.9949 8.32973
-25.749 100.086 3.4417
-4.54303 90.3006 4.99618
-10.288 93.7726 4.2106
0.987476 126.555 -12.8678
-13.024 90.115 6.34282
-22.0682 92.0376 6.7503
-22.0598 91.9642 6.79036
-12.535 124.255 -9.77141
-4.07255 93.7068 3.40977
10.9898 119.813 -11.07
-19.8695 126.567 -9.76494
12.3585 124.124 -13.2715
15.0409 105.946 -5.07419
-6.79643 91.6351 4.85967
10.9941 127.429 -14.5407
-7.9966 123.595 -9.94725
15.6325 118.619 -11.0134
-18.4531 87.3215 8.67724
14.0983 121.743 -12.2481
17.2204 122.123 -12.8705
-1.71728 127.347 -12.5854
-18.2894 127.683 -10.336
9.38351 128.849 -14.881
10.5794 122.41 -12.0175
7.44056 93.4318 2.10654
-32.5803 123.53 -6.28935
-11.0503 93.8897 4.59861
2.82109 125.759 -12.4229
14.847 98.3787 -1.24453
-4.37392 95.8371 2.77273
-22.0337 94.0037 6.19449
-3.85628 95.4675 2.89849
-21.8407 123.746 -7.81322
2.88794 125.84 -12.3678
10.496 122.84 -12.0534
-17.9538 127.819 -10.2617
15.5972 110.725 -7.05036
-23.0604 88.1222 9.21542
5.12351 92.4515 3.13526
10.4766 123.165 -12.1146
-4.54627 96.7084 2.55609
-25.3451 110.802 -1.06804
-26.589 118.698 -4.59354
-2.96686 91.2589 4.9345
-12.9867 92.4094 5.85247
10.4857 94.4592 1.50048
-22.4669 87.5369 9.52899
10.71 124.313 -12.5632
2.37389 126.252 -12.2516
-15.0597 126.095 -9.64072
-25.8422 109.655 -0.328583
6.22302 93.3426 2.73285
12.0993 124.632 -12.8656
7.57794 94.3528 2.08694
-1.99028 90.9258 5.08927
-13.7851 89.7678 7.37215
-2.8358 94.1396 3.73144
-14.9467 126.879 -9.95046
-13.5113 90.3192 7.12871
-7.08975 96.7631 3.16891
-27.0322 121.064 -5.39788
-29.1112 122.486 -5.75315
-21.5874 124.239 -7.65436
15.6703 109.637 -6.13818
10.3332 123.208 -11.7622
-25.3121 106.859 1.09983
-25.0449 111.299 -0.977441
-25.9608 101.122 3.95756
-22.8187 95.5935 6.12082
-5.64687 97.4547 2.76442
15.6501 108.935 -5.684
3.40191 92.8565 3.66895
-13.8911 127.778 -10.2861
15.6297 108.643 -5.53056
-26.0319 108.406 0.607383
1.39148 92.2773 4.24646
-24.117 121.395 -5.77125
4.57534 128.41 -13.1811
-21.9996 123.739 -7.11584
10.6222 126.409 -13.0822
-24.3778 99.0466 4.89484
-25.7277 107.603 1.06565
4.72142 93.2044 3.50844
-22.1382 95.038 6.54059
12.2881 96.4717 0.91615
4.51143 128.675 -13.1074
12.1335 123.822 -11.9205
-31.6917 124.815 -6.04744
15.2268 125.269 -13.0111
-21.3005 125.745 -7.95329
2.72927 93.0644 3.9914
12.1584 124.534 -12.2029
-23.7359 122.451 -6.01284
11.1019 127.15 -13.2516
0.917696 92.4054 4.60053
-30.1821 124.27 -5.91562
7.49297 95.044 2.43008
-7.4711 97.8693 3.26967
-2.63712 98.0988 2.46945
-13.6856 128.381 -10.1928
-18.541 128.563 -9.57265
-21.132 93.8908 7.14918
12.6528 117.815 -9.0093
-21.3313 126.219 -8.05626
-1.80527 96.1103 3.31648
7.4219 95.0801 2.49142
11.471 127.613 -13.422
-2.65888 98.5981 2.32251
17.9249 122.557 -11.9459
-27.2125 122.306 -5.21393
-25.1022 113.9 -1.54804
-20.9157 126.588 -8.12372
15.921 110.196 -5.70709
15.8838 110.429 -5.77096
-25.8143 104.129 3.22822
4.71954 94.5843 3.32141
-24.7898 111.737 -0.495624
12.7045 119.393 -9.52014
-14.7316 131.074 -11.0518
-21.4807 125.559 -7.47456
-20.6368 127.005 -8.2713
-5.63832 99.157 2.69304
-24.316 99.4476 5.26569
18.2595 122.109 -11.5693
-10.2227 96.5344 4.61371
11.7753 125.975 -12.4398
-1.4468 97.5988 2.87335
-14.9187 131.352 -11.0757
-28.0583 124.407 -5.89758
-4.18726 99.7786 2.2734
-1.29692 97.0677 3.13543
4.25133 129.104 -12.7491
13.974 126.198 -12.7792
-29.4311 125.515 -6.15158
-23.9259 121.754 -5.17281
-16.0821 130.043 -10.1988
17.9845 122.987 -11.7923
4.43291 94.7631 3.47493
-24.7567 122.007 -5.14512
-26.0733 120.102 -4.02659
15.8345 110.536 -5.5586
-16.6383 130.904 -10.4526
-4.88711 99.9122 2.46631
-19.2954 127.788 -8.59142
-17.2199 129.35 -9.62198
9.69773 95.906 2.25349
9.81838 131.09 -14.3501
14.3984 126.106 -12.6595
-20.9683 88.776 10.054
-25.0469 106.713 2.20103
15.9162 105.126 -2.95497
-26.165 122.245 -4.94019
-17.6088 128.647 -9.18355
-24.7419 124.775 -6.31622
-25.6248 101.47 4.80073
-24.8584 124.779 -6.26611
-0.941722 95.5645 4.05341
-28.7142 126.064 -6.30967
-25.3111 124.014 -5.82846
-16.9587 130.343 -10.0187
12.7075 122.862 -10.7782
-22.729 124.022 -6.1892
12.5976 97.8038 1.09103
1.72669 128.21 -11.667
-20.0803 127.484 -8.15918
10.8611 124.899 -11.409
-34.2774 125.952 -5.35627
17.1668 117.971 -9.02308
15.5344 119.034 -9.28778
-16.6223 130.33 -9.94322
-21.3522 88.9746 10.2377
-23.8799 124.88 -6.31471
0.540076 93.6965 4.85921
-25.686 123.984 -5.62049
13.4757 113.876 -6.51097
12.888 122.87 -10.6576
9.01809 131.553 -14.1744
-0.733452 129.391 -11.7418
12.7767 124.186 -11.2311
12.3088 124.228 -11.1828
-11.1108 128.185 -9.65788
-0.468236 94.6622 4.62742
4.89747 95.2732 3.56376
-23.7914 123.4 -5.54125
12.4181 115.678 -7.12486
20.1378 121.738 -11.0955
2.23396 128.153 -11.5274
-0.669527 95.8315 4.13295
-0.481659 94.1042 4.94244
12.9608 120.188 -9.28636
-9.61802 127.043 -9.22583
15.6023 107.678 -3.70444
-10.2566 97.47 4.8488
-0.533375 96.4443 3.92937
-19.4256 89.3858 9.98851
-24.5967 100.364 5.57713
13.885 113.357 -6.10191
-23.919 122.59 -4.98146
3.22045 94.9169 4.14194
-20.5915 94.1179 7.99064
-35.2943 124.574 -4.24077
-11.7682 129.008 -9.7079
-35.1863 124.726 -4.2906
11.4394 128.982 -13.0318
15.6555 111.157 -5.23313
-23.9793 113.065 -0.396305
0.767158 94.2081 4.93379
11.6077 123.297 -10.3398
-32.5031 126.891 -5.63343
15.8091 103.179 -1.43788
-19.7973 128.565 -8.25432
-25.6592 116.595 -1.76356
13.2596 116.248 -7.20435
-17.018 130.19 -9.37916
-9.69651 98.2211 4.63898
-12.4263 94.6939 6.69733
-24.1905 122.276 -4.59893
14.8254 120.003 -9.15943
16.4119 125.58 -11.9718
-14.1515 132.723 -10.9167
-17.2592 130.183 -9.26459
-22.2089 96.3906 7.38293
12.5332 125.449 -11.3319
-35.4398 124.495 -3.93601
-17.4561 130.085 -9.16926
-24.3217 100.185 5.92203
14.0626 113.211 -5.76404
15.9063 119.492 -8.98013
-9.13686 127.173 -8.96726
-9.9813 127.804 -9.14042
-24.7588 111.885 0.505639
-16.301 90.279 9.50592
13.4496 122.491 -9.96723
-20.0148 126.92 -7.2102
-24.879 123.543 -4.90123
-24.6102 123.941 -5.12317
-11.6877 129.37 -9.54692
17.4554 118.21 -8.43817
10.0035 97.041 2.61978
15.4285 102.582 -0.765738
-13.5334 133.263 -11.0379
-15.9636 90.424 9.51864
11.4058 125.107 -10.738
1.02186 129.477 -11.2766
12.7496 127.109 -11.8511
-24.5434 124.177 -5.06967
-22.0593 125.629 -6.11339
7.3104 96.2989 3.47207
10.3705 97.4067 2.50786
0.799449 99.7965 2.78214
-25.8616 118.011 -1.94788
-5.67049 126.988 -9.09544
-24.9104 123.512 -4.67133
0.732186 98.7482 3.29787
-26.2119 120.866 -3.20823
14.012 118.653 -7.97742
-2.30441 103.57 1.49944
-2.84669 103.186 1.7607
3.38177 129.319 -11.4503
13.1125 127.124 -11.8033
-24.6265 114.608 -0.441366
-23.158 125.213 -5.64772
-14.2136 133.282 -10.7044
11.7888 124.593 -10.3612
-18.2623 130.48 -8.77428
0.327912 130.066 -11.2654
-5.86661 127.127 -8.97459
-3.40013 102.923 2.08287
15.6148 103.708 -1.03225
-18.8881 89.639 10.6034
-3.26795 128.701 -10.065
11.2698 131.251 -13.3632
-24.8021 124.156 -4.76682
11.508 124.937 -10.3786
14.3995 112.97 -5.11917
11.2339 127.886 -11.6885
18.0401 124.109 -10.8798
-21.8679 126.896 -6.41793
14.6056 112.81 -5.04926
-23.9922 124.151 -4.79284
14.5615 126.915 -11.6607
3.46267 129.756 -11.3912
-17.5908 130.841 -8.85439
0.293655 130.257 -11.1642
-4.16109 102.672 2.48614
-12.0675 130.472 -9.47177
-24.6589 114.905 -0.294374
-12.6527 132.701 -10.4022
-19.5871 129.516 -7.88376
-17.5434 90.7678 10.0896
22.9074 122.078 -10.5083
16.325 126.291 -11.5205
-25.8286 105.205 4.52844
15.3994 104.041 -0.882441
-21.0866 95.3399 8.50296
-26.2728 118.965 -1.87757
-7.98494 127.592 -8.5887
-25.8365 129.527 -6.91906
-5.84381 101.751 3.29964
-16.674 91.0071 9.93712
-34.8234 125.333 -3.59872
-28.9341 123.552 -3.56605
-24.5726 112.188 1.16705
-6.07662 101.993 3.33537
-24.1745 123.65 -4.25743
-25.5221 118.094 -1.44229
6.40067 96.9612 3.91356
-25.5675 103.611 5.40757
-15.1266 133.431 -10.1566
-23.7758 124.809 -4.84002
-3.48121 104.243 1.92642
11.7648 129.97 -12.3816
6.17217 96.9956 3.97651
-21.1736 125.97 -5.7257
12.2726 124.119 -9.68536
-6.94774 101.45 3.78988
-24.6921 115.806 -0.40289
-29.1217 128.451 -5.70091
-19.5605 129.761 -7.67264
6.55045 132.551 -12.7431
-14.0992 94.7056 8.08492
-24.4816 101.233 6.51019
14.7459 119.802 -7.90443
-28.9739 128.592 -5.71655
-23.5342 124.036 -4.35454
-25.7612 124.008 -4.01639
-0.67093 104.232 1.69831
-19.5974 93.2419 9.62989
-5.23395 103.485 2.73198
-22.4642 124.951 -4.89032
-25.6778 110.529 2.37745
13.322 121.053 -8.22007
1.96517 100.093 3.31063
-25.7514 110.178 2.56382
2.29707 101.06 2.82764
-21.2675 125.93 -5.45978
-22.7914 125.673 -5.11544
-24.9191 111.731 1.76715
-22.7772 125.677 -5.11228
7.04176 97.8422 3.70119
-0.112354 131.036 -10.9046
4.28913 96.9692 4.51942
-26.4357 122.398 -2.99596
-5.44711 128.218 -8.77186
-25.6153 104.283 5.46628
-26.1352 125.661 -4.53342
12.3884 123.334 -8.99817
-25.589 110.802 2.4161
-30.2897 124.485 -3.31614
11.7683 126.218 -10.2123
3.58247 97.0602 4.728
13.6451 102.008 1.00242
-26.9505 130.19 -6.41006
11.1517 133.431 -13.4432
-22.1025 125.323 -4.80282
-23.2768 99.6043 7.51503
-27.9805 129.805 -6.03633
-0.172953 131.289 -10.7492
-23.3185 124.139 -4.02654
-27.5608 130.125 -6.19687
-11.3807 97.8772 6.67034
-8.22775 101.612 4.46006
-15.8303 92.1887 10.0146
-31.9358 129.683 -5.30886
-3.59333 129.505 -9.31868
6.24787 98.4887 3.91263
-26.3345 126.115 -4.39843
17.4213 118.815 -7.26865
3.765 131.847 -11.4348
14.4231 115.425 -5.23407
-17.4425 91.7481 10.541
-17.5576 91.6012 10.6403
13.6265 102.418 1.04551
-3.94438 129.347 -9.10458
-2.14396 106.464 1.43313
-5.66489 104.481 2.88492
-2.61026 130.561 -9.84559
-26.5567 120.309 -1.53927
14.7981 117.639 -6.25176
1.37184 130.715 -10.4533
-21.5816 126.959 -5.35551
-10.4279 131.786 -9.24184
-12.3823 135.052 -10.4662
-24.267 116.522 5.75558e-05
-24.239 130.368 -6.52658
11.6669 100.037 2.59507
2.97667 100.177 3.79942
-23.4306 124.091 -3.65007
-19.9059 94.3513 9.87411
21.7459 123.702 -9.98023
21.5206 123.808 -9.99677
-25.6221 124.798 -3.64245
-33.3667 127.768 -3.9165
9.38601 99.3729 3.2913
11.0051 125.992 -9.48413
-1.97255 131.08 -9.9828
-18.0008 91.2339 11.1214
10.7873 125.663 -9.26264
9.90082 99.4833 3.2267
-23.2738 99.9503 7.80767
9.48557 99.4726 3.29676
-4.20674 105.93 2.3022
-23.0664 125.659 -4.25963
-23.6093 123.823 -3.31492
16.153 107.528 -1.37272
15.9144 119.211 -6.84019
-21.4948 128.064 -5.59913
-22.8065 128.458 -5.57877
-11.6819 134.41 -9.9855
-23.7057 123.862 -3.2591
14.8973 116.819 -5.51514
-24.1278 113.341 1.77972
-4.25754 106.081 2.33231
-24.8637 124.1 -3.15317
-24.5627 112.455 2.29611
16.445 110.57 -2.74147
-21.5976 127.669 -5.29569
-29.2492 124.868 -2.84796
-5.27148 105.486 2.82439
11.2316 127.069 -9.73326
13.48 121.875 -7.59988
-21.3902 127.965 -5.42738
14.477 127.863 -10.5618
-1.51072 107.627 1.29197
-10.6099 99.4498 6.4657
1.75516 131.339 -10.3513
-24.3408 125.019 -3.58997
-18.4633 91.6046 11.3209
-23.1042 125.457 -3.95875
-6.48146 129.03 -8.02975
-11.5197 98.5218 7.09369
-25.0828 109.658 3.80657
19.9021 124.375 -9.62575
-10.467 133.076 -9.33342
-25.3152 124.483 -3.13532
-9.21007 100.678 5.78103
20.7788 124.355 -9.6813
-16.2244 92.9894 10.4556
0.160998 107.13 1.42319
-28.3946 124.088 -2.4429
14.0491 114.155 -3.884
3.88971 101.439 3.58047
-36.3565 124.932 -1.6712
3.83979 100.236 4.16203
-16.1349 93.1459 10.397
-12.0845 97.6916 7.67071
-12.4803 136.319 -10.4585
-14.27 95.9126 8.85309
-23.0753 129.528 -5.71617
-32.3106 124.966 -2.21847
5.68911 133.766 -11.8272
-21.2469 127.704 -5.07077
-25.3603 110.339 3.72425
-8.57443 101.769 5.34179
-21.7289 130.747 -6.4145
-16.2843 93.2097 10.5029
-25.0985 104.73 6.35411
-21.9718 98.9735 8.62672
11.3622 129.565 -10.5883
-2.86827 131.185 -9.2919
-30.2006 131.26 -5.36548
19.2043 120.056 -7.21409
15.6966 106.926 -0.512886
-30.6126 125.902 -2.74128
-26.1672 125.386 -3.12816
-30.606 125.923 -2.73222
-18.9363 131.507 -7.04492
11.1814 128.055 -9.75986
-25.3337 125.472 -3.2394
-25.6155 119.159 -0.220061
4.26411 100.431 4.29424
-9.49144 132.495 -8.82441
20.8196 124.67 -9.51511
-21.3531 98.4589 8.96469
11.6915 128.961 -10.1861
16.395 127.489 -10.1716
16.2488 110.121 -1.9595
-23.9014 117.137 0.539598
-16.5016 94.3737 10.2406
-10.6009 99.9358 6.76635
-6.23058 129.623 -7.84199
-32.2681 130.495 -4.47595
16.3513 111.291 -2.39499
-23.1871 125.978 -3.59203
11.3181 127.814 -9.43599
-21.5623 128.29 -4.89993
-22.9948 100.905 8.24018
-24.4626 103.586 7.19595
16.0085 111.741 -2.47947
11.78 134.401 -12.5491
16.4753 127.552 -9.99485
-2.21453 131.94 -9.35325
14.3618 114.344 -3.45468
4.76124 104.353 2.67517
15.6964 108.09 -0.661618
-24.8917 133.531 -6.78479
-25.7463 122.524 -1.46695
12.7614 102.725 2.29992
4.63109 102.778 3.45649
14.9378 120.444 -6.32782
16.3439 127.709 -9.9512
11.5271 123.785 -7.40472
-26.4603 125.345 -2.60887
-13.042 136.177 -9.63092
-25.7013 122.545 -1.34317
11.7042 102.057 2.91937
11.8066 127.401 -9.03827
-9.43729 133.239 -8.7146
0.15292 109.239 1.22729
14.6884 106.696 0.352676
-19.3143 131.709 -6.51995
-18.0203 92.5173 11.7724
-29.0526 125.133 -2.00816
6.25984 101.243 4.15931
-14.8505 134.998 -8.68591
-29.9509 131.698 -4.93642
-25.4785 125.444 -2.6274
-20.1709 96.2601 10.3876
13.6373 123.834 -7.48143
10.0215 127.664 -8.76284
-10.2476 134.732 -9.15644
1.59013 132.924 -10.0092
1.88311 132.901 -10.03
-28.0036 132.321 -5.43476
12.8192 103.507 2.25142
-0.386295 109.931 1.14235
-20.8648 98.2021 9.63875
-10.8863 136.249 -9.73068
-3.83337 131.245 -8.37399
-20.28 132.003 -6.33392
10.5066 124.875 -7.4094
23.6042 124.162 -8.964
22.0492 123.002 -8.19183
-20.4267 96.9431 10.2404
11.5294 132.153 -10.9773
-20.5071 129.343 -4.98562
13.7804 121.898 -6.41946
5.12262 102.388 4.03152
-36.1347 126.325 -1.2762
-20.0035 131.519 -6.03261
12.5076 122.566 -6.5016
-27.3471 125.625 -2.17572
14.2939 130.266 -10.3784
-23.3788 133.715 -6.5573
3.90805 107.72 1.76771
-21.0786 99.0637 9.48212
-26.0724 123.292 -1.1951
-24.5964 125.593 -2.48738
4.12882 107.669 1.81564
-22.4175 130.26 -4.96447
-24.9848 133.82 -6.2636
15.9602 128.34 -9.59683
-26.783 133.042 -5.6248
14.8047 107.506 0.41007
-19.4785 95.8584 10.8636
-26.8379 133.024 -5.59069
-21.6244 129.507 -4.68062
-7.80036 103.494 5.60581
-3.49192 131.907 -8.39914
-11.0575 100.265 7.61238
14.6635 129.771 -10.0145
11.5976 123.489 -6.58905
15.9474 109.977 -0.831432
5.86231 103.718 3.58826
-12.3968 98.6524 8.6213
-36.945 124.873 -0.17888
19.759 125.521 -8.65195
-33.898 125.504 -0.885432
13.9683 123.055 -6.63763
13.9559 123.996 -7.06671
-1.83529 110.676 1.50605
15.5799 120.099 -5.44754
-24.783 107.585 6.30344
-8.45228 133.365 -8.20368
-25.9312 125.123 -1.78083
14.8483 129.94 -9.90683
22.9417 123.815 -8.16993
-9.49062 136.022 -9.23317
14.0305 123.788 -6.86246
-2.60824 110.496 1.81377
-21.2415 130.518 -4.92536
-18.1743 94.5625 11.6042
5.85865 102.394 4.4556
23.1441 123.95 -8.2031
-27.739 124.91 -1.29694
-5.07489 108.099 3.38961
13.5813 106.56 1.418
-17.582 95.067 11.3467
-24.847 134.281 -6.07327
14.0719 125.255 -7.43904
-10.996 138.209 -9.89709
4.31004 108.855 1.73807
-17.4122 95.5342 11.1658
-36.5265 124.909 0.0899627
14.1364 123.879 -6.741
-9.22457 136.168 -9.14223
-26.2606 133.505 -5.42139
-11.494 138.203 -9.74245
12.4772 128.047 -8.40895
-7.89197 103.6 6.07657
-27.3137 126.111 -1.71424
6.75412 102.547 4.47414
14.3216 120.408 -5.03332
10.2572 102.908 3.84015
16.3378 128.418 -9.05286
15.5176 113.212 -1.76502
13.4948 121.287 -5.27719
-19.5193 96.8841 11.0194
9.68646 128.628 -8.16271
-6.17743 105.879 4.87258
-20.7732 99.3835 10.0529
-27.4716 125.996 -1.51392
-24.2802 118.365 1.62212
13.9165 107.579 1.18625
-10.2063 138.016 -9.67447
-21.108 130.78 -4.6852
2.95513 134.549 -9.93574
7.26414 104.531 3.60117
-24.4871 109.811 5.70854
12.6257 132.68 -10.4263
7.39002 104.189 3.77321
-7.88973 133.766 -7.94124
-12.7698 98.7551 9.29713
-16.4217 134.596 -7.05383
12.6952 131.417 -9.7634
7.49818 104.497 3.68064
-16.0728 96.2791 10.9637
-7.7712 133.758 -7.90189
5.94654 135.964 -10.9252
9.55703 128.181 -7.77521
14.7863 131.549 -10.1078
-4.25715 109.555 3.0155
-20.588 99.1648 10.291
21.5851 126.117 -8.50703
11.0613 129.686 -8.66437
-10.5761 101.476 7.76981
14.5631 117.986 -3.64674
-14.1233 97.6563 10.089
-23.8723 104.884 8.09312
-1.533 133.302 -8.53101
-26.6453 133.488 -4.98357
21.3358 120.513 -5.79318
-6.5611 132.868 -7.57199
-8.02705 134.222 -7.96028
-16.2412 96.3381 11.0937
12.8831 121.859 -5.14483
12.1918 127.286 -7.58152
-21.3108 130.673 -4.32934
15.6604 113.418 -1.53991
1.96714 112.182 1.02358
-25.3141 127.016 -2.0157
-3.40276 110.679 2.52196
-24.245 106.123 7.69087
-26.7675 125.231 -0.947924
-25.2159 127.894 -2.40871
13.2657 132.649 -10.1696
-18.5118 96.9865 11.2388
-25.9592 121.518 0.751008
12.791 132.333 -9.93637
5.02944 109.786 1.83007
-8.27877 135.145 -8.1994
4.72431 110.24 1.68032
22.7214 123.797 -7.30416
11.4711 129.882 -8.52297
-25.7892 125.438 -1.03816
13.7022 124.647 -6.37222
12.9169 129.431 -8.4982
5.8318 107.156 3.03002
5.65098 108.574 2.40843
23.624 123.516 -7.22861
13.645 131.208 -9.39417
12.3651 105.792 2.7737
3.20323 135.604 -9.94657
-25.9381 124.861 -0.66393
-25.6494 125.151 -0.84242
-24.1228 114.791 3.83461
-33.3139 126.274 -0.248939
12.6613 122.013 -4.87833
-24.7801 112.73 4.95181
-28.607 125.616 -0.569009
10.0609 129.087 -7.76645
-20.7994 135.564 -6.34454
2.58668 135.087 -9.48151
-24.4912 110.298 6.12189
7.53244 136.806 -10.991
6.00323 136.7 -10.7173
-24.377 109.147 6.66825
-20.7385 100.206 10.3619
13.097 107.377 2.11157
14.1179 117.246 -2.68098
-25.8826 122.407 0.693309
13.685 121.236 -4.46899
-27.3824 126.266 -0.886987
6.03015 107.815 2.98481
22.9034 126.086 -8.03885
13.8003 131.696 -9.36562
7.24368 136.967 -10.8909
15.8471 120.342 -4.29598
-24.3744 108.882 6.92531
-24.3629 109.831 6.51295
-7.19923 134.862 -7.75836
9.28049 137.658 -11.4576
-26.111 124.953 -0.347371
-29.205 127.472 -1.08469
-4.08176 132.877 -7.26406
-3.35289 111.535 2.70813
-12.5606 99.792 9.58542
-15.4589 136.865 -7.46269
13.2433 135.29 -10.8619
17.2713 128.9 -8.402
-25.8988 125.813 -0.679828
-24.3551 107.421 7.77531
3.17612 113.32 1.02503
10.0737 104.44 4.23729
17.9529 128.143 -8.07442
8.04053 105.242 4.16498
-5.6207 107.73 4.98091
9.92524 126.245 -5.99374
-24.6119 111.035 6.18121
-13.613 138.533 -8.344
23.2974 126.222 -7.86924
5.80153 110.326 2.15887
15.5388 111.238 0.322746
-0.400121 114.237 1.23478
-1.89173 113.507 1.8058
-24.3634 108.657 7.36007
13.8499 130.551 -8.48525
-21.701 136.708 -6.24068
14.7632 120.675 -3.94832
-6.33652 106.545 5.77209
-22.822 104.305 9.21412
-7.11801 135.813 -7.88707
-25.0398 135.436 -5.11674
15.9917 131.003 -8.93826
13.5592 123.051 -4.83476
-27.9277 134.106 -4.03352
-22.4307 137.157 -6.23306
24.1427 126.069 -7.73318
-24.3553 136.186 -5.48634
2.85736 114.294 0.926406
-14.0725 99.7208 10.2553
-19.9005 101.202 10.4004
-3.91421 133.339 -7.06012
-0.15465 134.523 -8.15613
-21.2513 102.299 10.1152
-7.33274 136.84 -8.16317
-3.23032 112.323 2.80359
2.97422 114.435 0.915752
15.6525 120.758 -3.89621
2.25327 115.032 0.780601
-15.2403 99.441 10.6679
-16.9272 100.044 10.6901
12.8006 123.009 -4.42106
-20.6279 102.205 10.2301
15.1869 111.192 0.82144
-12.5451 139.28 -8.39828
14.4726 116.837 -1.71956
9.6464 127.288 -5.93544
-26.0833 125.348 0.184384
23.9251 123.568 -6.19905
20.6137 121.125 -4.55884
-3.42892 133.872 -7.09148
-14.6012 138.918 -7.84441
-8.55923 104.293 7.61485
23.2197 126.89 -7.62869
-30.1353 127.564 -0.219358
-19.494 134.26 -4.91335
9.50963 127.75 -6.0369
-32.3359 132.247 -2.09996
-6.18884 107.193 5.93955
-34.2722 130.993 -1.21714
12.0197 107.728 3.06051
21.8679 121.9 -5.04042
-35.24 129.227 -0.223229
2.96184 137.451 -9.62073
0.706525 115.707 0.974099
9.84491 130.324 -7.22944
5.6875 138.93 -10.6709
-11.0868 102.303 9.05704
-20.4447 136.42 -5.67191
-28.5808 134.144 -3.4188
10.0583 127.331 -5.78659
17.9551 120.801 -3.83144
-13.725 100.828 10.2027
-27.5997 125.684 0.515327
-23.7624 116.047 4.512
-20.9867 103.524 10.0311
-34.6326 130.674 -0.771855
-5.58188 108.477 5.49652
3.78257 115.354 0.911566
24.7746 123.736 -6.04197
-15.4107 101.041 10.4741
20.2792 121.259 -4.20813
-24.506 121.033 2.3769
-8.91534 139.984 -8.811
9.78211 130.412 -6.99371
-34.2347 131.316 -1.03299
21.0318 120.986 -4.14966
-33.3525 127.043 0.869812
12.4686 126.097 -5.28437
-18.2699 135.735 -5.37935
-14.3366 101.13 10.367
2.23648 136.741 -8.81315
11.1058 106.346 4.24875
-18.1229 104.983 9.14083
23.5099 127.308 -7.39974
-17.7408 104.812 9.17999
-35.4512 126.879 1.39899
-3.03115 134.406 -6.8343
20.9594 121.096 -4.01812
10.1695 126.099 -4.78186
-15.6065 102.202 10.2219
-7.28358 138.369 -8.01972
-17.7988 136.707 -5.69493
23.6464 125.578 -6.42292
14.7336 123.121 -3.97227
13.9247 134.971 -9.44136
-17.2769 105.125 9.14709
7.58303 139.195 -10.5048
-13.1904 103.768 9.20534
12.9005 123.112 -3.65762
-34.8624 130.399 -0.18438
-0.775794 116.284 1.54383
3.37687 138.403 -9.48363
13.171 133.074 -8.37437
22.1878 122.239 -4.56989
-5.83101 136.314 -7.15225
14.6005 121.854 -3.26583
-36.4981 127.843 1.29993
13.7842 135.68 -9.66428
-14.545 102.96 9.86335
12.3166 129.597 -6.57074
-8.46419 105.861 7.63815
12.1749 123.955 -3.86851
-15.0808 103.555 9.69182
20.9037 121.552 -3.99442
-4.8606 110.616 4.90022
10.9911 131.777 -7.35871
-24.1712 110.117 7.93634
-19.1004 135.794 -4.89052
-35.4266 129.174 0.606447
-18.8366 135.767 -4.90034
11.5812 128.83 -6.00984
9.33067 139.905 -10.9057
15.4041 123.385 -3.98822
-20.6966 105.126 9.85377
18.8711 121.309 -3.49575
12.4318 131.879 -7.51986
14.9405 122.183 -3.2944
-20.3699 105.141 9.84734
5.46631 115.488 1.26701
-25.7668 125.808 0.925643
14.8412 112.368 1.3908
-2.16073 115.501 2.39113
-2.2065 115.422 2.43863
-24.3884 113.831 6.41286
18.8366 121.37 -3.38956
-24.3998 112.146 7.21656
12.7287 131.796 -7.39941
-16.0885 105.163 9.32472
-13.7114 104.911 9.10198
-12.564 141.019 -8.07594
-33.0788 127.454 1.31364
1.49371 136.537 -7.95969
-2.34846 115.366 2.5838
-24.7955 123.697 1.90987
-10.712 104.203 9.06458
-17.732 106.973 8.77738
12.142 128.529 -5.70355
13.7287 118.165 -1.04344
-11.3401 141.582 -8.45195
11.6071 130.649 -6.61272
10.0863 127.331 -4.82116
-2.17351 115.78 2.40086
6.19696 114.301 1.89358
19.4171 129.529 -7.18713
-24.1291 114.41 6.24329
4.68846 116.857 0.937353
-23.7435 110.042 8.27674
-31.7006 133.216 -1.46593
17.8881 121.324 -3.0253
15.7121 122.48 -3.23784
-9.89399 141.665 -8.55733
-19.4362 106.834 9.24394
14.1604 119.274 -1.47237
-29.9117 127.663 0.970386
14.2465 117.106 -0.426768
-18.689 137.345 -5.19456
-28.0189 135.758 -3.07043
-17.6112 138.549 -5.8885
11.8958 131.064 -6.62125
10.837 140.04 -10.6843
-18.6553 136.492 -4.70531
-16.5545 139.253 -6.30964
-5.14716 136.641 -6.71724
-3.53538 135.727 -6.51735
-15.8963 139.259 -6.3858
-19.5197 107.544 9.09117
-3.77291 135.838 -6.51349
-19.9338 107.304 9.27897
13.9294 124.215 -3.58403
-9.48637 106.814 8.02913
7.66419 140.499 -10.328
8.8283 108.214 4.72952
11.5532 133.085 -7.3862
-31.9688 133.317 -1.19904
14.3711 123.268 -3.15697
11.5543 128.368 -5.13834
13.4477 123.97 -3.32955
-21.9993 108.033 9.32216
10.8296 128.042 -4.85149
7.89694 110.477 3.85308
-35.3729 127.681 2.02625
22.3014 120.089 -2.72803
-24.981 122.893 2.78908
7.77511 140.645 -10.3056
-18.5933 138.201 -5.33202
-31.4607 127.69 1.52815
20.5926 121.068 -2.87372
11.2598 139.588 -10.2499
9.67596 108.026 4.86695
11.3151 124.676 -3.18429
-0.810632 117.841 1.80619
5.35547 140.627 -9.81746
-23.5208 115.644 6.144
6.63395 114.113 2.51089
-35.4656 129.378 1.41405
-13.2938 141.64 -7.57004
22.4847 122.495 -3.70809
10.9618 140.264 -10.3918
-24.4899 125.686 1.61981
20.5507 121.445 -2.8819
-31.5207 133.811 -1.17779
1.55392 119.341 0.869314
-35.1114 128.148 2.03406
14.9142 115.941 0.571229
14.3065 135.063 -8.35279
-18.8119 137.248 -4.57058
-10.9706 106.887 8.62848
20.4176 129.562 -6.55248
4.01352 139.851 -9.02534
20.9443 120.564 -2.36871
16.2506 122.464 -2.57997
12.2494 126.568 -3.91033
10.5811 126.641 -3.69421
23.2864 128.537 -6.42468
-24.4484 125.774 1.78692
14.5817 125.85 -3.88298
10.6071 126.565 -3.63167
-12.0671 106.815 8.97426
-30.65 135.039 -1.61495
1.39314 119.79 0.956169
13.9854 126.33 -3.93476
11.9337 128.767 -4.78568
20.5695 121.873 -2.78029
22.6886 122.74 -3.49184
-14.1797 141.533 -6.99911
14.1328 126.17 -3.83277
12.5873 134.349 -7.46228
-4.47495 112.588 5.27202
-34.4375 128.392 2.15722
22.6285 120.445 -2.34531
14.7214 125.558 -3.59968
15.1721 123.553 -2.71322
-26.5392 137.984 -3.48416
-18.0592 109.131 8.89317
21.7284 123.644 -3.69303
-23.9545 138.859 -4.24697
-28.033 128.835 1.07073
13.4752 134.999 -7.83461
13.6885 135.183 -7.95195
13.065 112.578 2.79656
6.93551 141.609 -9.98992
12.4072 111.698 3.32063
13.1865 134.486 -7.51667
12.0873 138.363 -9.16893
12.4808 111.957 3.22463
-23.4277 116.354 6.3703
13.6681 135.05 -7.77545
-15.8399 141.452 -6.52547
23.2693 128.854 -6.2041
-22.7612 118.872 5.1612
15.0664 134.722 -7.77042
11.1565 126.43 -3.27883
-24.4044 123.444 3.27293
-14.5014 108.256 9.01872
13.1496 135.117 -7.63438
13.3577 134.017 -7.13827
22.334 120.99 -2.29137
23.9569 124.196 -4.02959
8.89884 141.665 -10.0706
-7.12258 141.298 -7.5394
-24.654 128.367 1.10201
8.40059 111.487 4.28651
19.7657 122.508 -2.53222
1.03693 120.507 1.12215
8.46546 141.848 -9.99039
-23.4224 116.898 6.40077
-34.0917 128.969 2.25396
4.43069 140.756 -8.86828
-31.3222 135.295 -1.1024
-22.0184 110.316 9.35135
12.1298 129.305 -4.53515
10.4041 141.575 -10.0388
11.174 128.371 -3.91812
12.5584 134.878 -7.17877
11.412 110.779 4.35789
0.43391 137.862 -6.80816
10.7353 127.802 -3.54437
18.1693 133.305 -7.19537
-8.90421 108.651 8.34381
6.74551 142.163 -9.70561
22.7284 123.987 -3.43954
13.5644 113.758 2.7151
16.5261 122.919 -2.00852
13.2453 134.975 -7.21642
6.58983 117.411 2.05176
2.81201 139.928 -8.01241
21.1258 121.405 -1.92751
-9.3693 143.477 -7.88417
14.9692 135.13 -7.45785
12.8689 113.347 3.11607
20.1101 130.742 -6.12418
-17.2019 140.352 -5.25117
6.8221 116.791 2.38649
-3.38854 137.879 -6.0667
-32.3907 128.698 2.4674
-27.2594 129.635 1.29231
-3.37054 115.661 4.46021
4.89359 121.437 0.543425
-24.8943 128.507 1.51961
16.8232 135.699 -7.8795
13.6197 118.997 0.494147
10.5563 141.885 -9.84708
-13.9553 108.973 9.2127
-2.15483 138.084 -6.20773
-18.4291 138.645 -4.11046
15.5304 126.827 -3.43752
19.6555 122.899 -2.16827
-19.0113 111.287 8.92194
-3.67387 138.5 -6.11242
7.32401 115.322 3.23587
4.52502 121.978 0.506399
6.61135 118.014 2.07904
-17.0711 111.257 8.69311
-2.72528 138.194 -6.07673
19.1168 132.509 -6.53806
-23.7681 139.395 -3.58118
-8.03181 109.837 8.08469
-3.86846 114.836 5.12786
-13.2755 108.527 9.46361
15.5247 126.872 -3.33452
21.0594 122.285 -1.96494
20.4913 122.909 -2.14521
15.3799 122.167 -1.0417
-24.4337 127.583 2.18417
16.931 123.047 -1.65262
-8.93021 109.629 8.42301
-22.258 111.826 9.32513
5.67624 121.787 0.620067
-23.6881 125.021 3.35585
-33.3028 129.726 2.53376
-13.8592 109.548 9.2359
21.8756 121.431 -1.51445
20.322 130.648 -5.62581
-24.7384 127.842 2.21556
-6.05872 141.865 -7.05584
-5.73065 111.885 7.05186
24.114 129.225 -5.41828
13.7033 134.658 -6.43496
21.1441 125.461 -3.12983
11.1523 112.259 4.54826
-33.1759 130.279 2.50024
-10.743 109.49 9.07914
18.915 123.281 -1.70805
18.5924 134.426 -6.88558
11.6667 141.392 -9.16418
-19.1229 112.08 9.10924
-4.78777 113.307 6.46153
9.31904 112.451 4.82703
22.6456 125.923 -3.39591
9.05045 112.795 4.75917
-33.3667 131.203 2.22209
14.4402 121.039 0.105045
-20.2777 112.283 9.2636
-1.54853 119.507 3.17534
-23.3753 115.682 8.16273
12.2969 139.874 -8.39169
18.1617 135.6 -7.22458
-27.4871 129.373 2.33601
-24.5858 129.086 2.05685
-23.3801 117.932 7.14492
-20.8845 112.605 9.29998
13.4094 118.608 1.51925
-25.4369 139.72 -2.81408
23.2902 126.736 -3.71654
21.3258 126.252 -3.15918
-26.7773 139.789 -2.58549
14.268 135.495 -6.48734
-20.0752 140.693 -3.96902
21.1741 126.304 -3.13568
24.7324 126.782 -3.82676
-0.823764 120.993 2.59965
-10.3896 110.179 9.08106
20.8883 130.305 -4.91455
-17.3714 140.08 -3.97894
-30.1236 129.415 2.89328
-22.3164 114.042 9.02639
-24.1968 140.038 -2.94125
-24.6731 129.083 2.29982
-13.4104 110.738 9.36151
5.41659 142.799 -8.46388
13.0282 138.823 -7.66836
13.6626 138.013 -7.34498
-24.2526 128.394 2.67325
-21.5097 140.458 -3.39299
-22.2435 140.292 -3.20558
-26.9258 128.65 2.9714
-9.39273 145.594 -7.54429
-3.46427 116.469 5.33185
-10.3086 110.574 9.10327
-17.6374 113.189 8.94172
17.7716 136.207 -7.018
-4.28972 141.657 -6.38
13.743 135.406 -6.03454
12.5742 140.167 -8.09391
-21.308 114.059 9.12117
-14.3486 111.89 9.15613
8.54272 114.569 4.59661
11.9601 141.769 -8.71807
15.33 136.785 -6.80829
0.696594 140.458 -6.36991
-22.2293 115.437 8.741
-8.6174 145.711 -7.48535
-3.44122 141.035 -6.02788
6.23175 123.978 0.621377
8.27219 143.913 -9.06668
-3.08678 117.388 5.08922
-4.73614 114.482 6.6998
-26.8469 129.921 2.64471
-21.299 114.91 8.93799
-13.7193 111.759 9.32857
-3.7388 116.264 5.79793
1.48785 140.959 -6.54811
-20.1545 114.144 9.2325
12.4995 141.209 -8.23864
2.27606 125.008 0.883921
3.92891 125.549 0.398512
22.7067 127.764 -3.35653
14.1755 135.992 -5.99586
21.6689 123.213 -1.04609
-29.8242 130.03 3.19723
14.9215 123.194 -0.0472295
-31.555 135.841 0.747853
14.2732 122.11 0.59996
-26.3223 130.271 2.64337
4.75347 125.621 0.346121
-15.6697 113.659 8.98014
7.02468 122.669 1.47119
-22.5329 140.644 -2.71852
-2.26373 140.646 -5.64405
-22.3882 128.475 3.03523
-28.8331 131.803 2.40605
6.74443 124.058 0.923919
-30.4486 137.775 -0.165015
15.3779 137.15 -6.49218
-4.86421 143.314 -6.46649
-19.5959 141.477 -3.46685
7.18129 144.36 -8.69386
-13.8584 112.979 9.14645
24.3237 129.718 -4.23644
-16.6683 114.337 8.94307
-12.4307 112.088 9.43285
6.53517 125.193 0.5702
-3.00395 141.698 -5.82118
-3.78802 116.614 6.13156
-4.60129 115.442 6.82307
23.0121 128.376 -3.26041
8.86664 144.594 -8.83101
-17.8844 141.177 -3.34421
3.35771 126.425 0.548514
-1.4611 141.118 -5.67131
-30.8324 134.014 1.92947
-12.151 145.974 -6.40573
7.31184 123.447 1.42024
-7.66222 113.071 8.48554
-26.9053 140.653 -1.72863
-22.3797 116.659 8.93683
-3.69533 142.694 -6.03745
-6.91627 113.605 8.17063
8.00853 117.712 4.08724
22.7483 128.339 -3.04766
10.3811 115.028 5.0192
-22.5006 129.388 3.02507
17.674 124.135 -0.291539
-22.3636 116.785 8.96604
-16.9927 141.985 -3.69039
6.23278 125.943 0.51502
-11.8015 112.918 9.28974
-0.181716 141.511 -5.84733
7.57101 122.781 1.87184
-22.8605 120.661 7.29015
3.5076 126.984 0.509328
13.4707 117.573 3.51878
-6.19 145.253 -6.66202
-22.6577 141.555 -2.47668
20.6279 127.415 -2.05425
-11.0705 113.139 9.29566
17.1455 137.967 -6.48323
-25.0053 129.06 3.8178
13.5046 138.269 -6.08728
4.425 127.287 0.430391
-10.0855 147.429 -6.948
-30.7607 137.716 0.658654
1.27612 125.527 1.77358
15.213 137.521 -5.86534
-12.4606 114.305 9.09987
-3.88154 117.159 6.52415
20.5532 132.696 -4.32896
-8.81085 113.311 9.05756
5.91521 144.745 -7.8883
14.0371 128.798 -1.53728
-15.9457 143.485 -4.11968
5.06739 144.189 -7.48666
20.8377 132.028 -4.02739
-7.27024 146.676 -6.8424
-22.1073 127.621 4.31822
-26.3117 141.069 -1.40731
22.684 131.587 -4.01843
-1.78405 120.671 4.69494
3.03325 127.584 0.740277
12.6103 142.347 -7.59621
-22.4845 123.527 6.353
-22.9041 121.442 7.42014
-20.2378 129.317 3.33144
-27.3508 131.962 3.13538
10.1454 144.468 -8.17266
14.3395 129.139 -1.53911
22.7331 129.17 -2.72852
-24.2362 129.431 3.95044
-21.7411 131 2.85783
-2.36879 119.899 5.30549
-22.8728 126.223 5.29954
-27.2889 141.152 -1.09116
-11.9052 147.127 -6.12863
3.84668 143.671 -6.75527
-14.7219 145.305 -4.83585
14.5465 126.853 -0.329848
-0.048844 124.025 3.11537
-10.4612 114.09 9.35173
-15.2003 116.285 9.017
-27.2769 135.291 1.83444
-24.8896 141.791 -1.57251
13.3515 138.743 -5.65351
17.3279 125.024 0.255164
-10.4734 148.299 -6.695
-13.4418 146.291 -5.31584
-20.5925 128.138 4.29632
20.5454 134.722 -4.7409
-16.0307 144.619 -4.10153
4.64715 144.499 -6.99282
0.732905 143.378 -5.86681
-20.3439 130.958 3.04117
10.9902 117.475 4.87414
-5.00745 117.032 7.40269
13.662 128.549 -0.722937
12.6589 124.481 1.34036
-19.433 129.058 3.82952
-6.77728 147.263 -6.56125
4.05143 129.219 0.423508
14.4669 137.756 -5.09928
20.2404 125.804 -0.295303
-4.10469 117.916 6.95387
-14.0435 145.946 -4.81668
-27.18 131.116 4.07894
-23.3865 143.101 -2.07643
-24.1282 129.944 4.23379
8.84975 145.934 -8.05899
1.63709 126.938 1.93983
-22.5397 126.067 5.84724
3.93804 144.256 -6.53233
6.73727 145.885 -7.70388
-26.8983 133.986 2.77615
24.3102 130.918 -3.15121
23.3497 130.424 -2.73519
20.1724 125.899 -0.139196
12.0849 118.575 4.49253
-13.2978 116.364 9.21736
-26.4574 141.877 -0.873129
-13.0018 147.028 -5.23967
23.2313 132.023 -3.34229
12.6595 142.533 -6.76141
-26.0144 130.957 4.28999
-21.2228 119.065 9.21113
-16.3534 117.404 9.31247
-4.94971 146.553 -6.03559
-0.353486 144.041 -5.51509
-10.8492 115.672 9.38726
-22.755 130.329 4.22755
-12.5255 116.429 9.30502
23.4004 130.913 -2.68173
12.7576 140.614 -5.71343
14.0075 138.159 -4.72202
8.3205 122.808 3.36236
9.64711 118.974 4.99737
-10.0599 115.651 9.42443
-2.05283 144.152 -5.16715
18.0328 138.364 -5.32543
-26.6175 132.993 3.66692
-20.6525 119.68 9.08801
3.6744 144.561 -6.15434
-23.4096 143.805 -1.85218
-19.4477 128.078 4.99009
3.12705 129.444 1.08431
-8.07549 148.847 -6.43334
-1.58128 122.505 5.10029
-9.78192 149.199 -6.28938
12.0253 119.771 4.44905
-16.3236 144.835 -3.26785
-18.1023 143.651 -2.41669
-15.754 118.193 9.27649
11.8759 125.515 1.83893
-5.98187 117.581 8.16166
20.6361 135.948 -4.3219
-27.6204 137.436 1.99786
-26.6302 136.745 2.19919
-20.6797 144.112 -2.13278
8.36282 122.548 3.83827
-0.676443 144.655 -5.2421
-23.0105 132.759 3.61037
-24.2488 131.527 4.37188
-16.2643 118.454 9.39267
20.0892 126.681 0.260895
-19.6931 131.384 3.79575
-18.9001 130.093 4.29536
16.3378 139.524 -5.24254
13.4589 138.697 -4.41884
-18.0362 119.655 9.12258
6.22284 130.879 0.340115
16.7393 139.828 -5.37874
-9.33023 116.546 9.36885
-2.37518 121.901 5.85129
18.1359 125.979 1.00624
-5.52185 147.962 -5.92936
-15.6244 118.788 9.31514
6.19385 131.203 0.311867
-21.3208 144.48 -1.95993
13.675 138.828 -4.3307
10.1896 146.358 -7.37187
-25.6122 132.312 4.43682
-25.7901 143.226 -0.67485
-22.5803 133.165 3.62806
-19.0195 120.901 8.89546
-6.24834 148.754 -6.05811
3.42938 145.111 -5.71434
11.0906 124.065 3.11775
11.7026 121.2 4.39307
14.9335 139.079 -4.49879
8.19421 128.41 1.52233
-25.6386 133.818 3.87804
18.0683 138.944 -4.84856
18.3296 138.711 -4.77431
-5.69832 148.525 -5.90133
-23.4707 144.554 -1.44049
12.5108 126.661 1.83615
-21.017 122.104 8.86962
-20.9414 122.865 8.50597
-18.6058 129.246 5.17694
4.59386 146.076 -6.07824
-19.0272 145.084 -2.19463
23.8019 132.767 -2.57259
-21.5061 145.086 -1.8191
22.1503 131.229 -1.54863
-19.5695 121.75 8.98633
-25.2802 134.752 3.69144
-4.15609 120.523 7.34712
7.59733 130.806 0.801643
19.6949 126.049 1.32032
8.82581 124.001 3.89661
-1.12459 124.382 5.15553
-28.4838 141.117 1.25132
-19.315 145.477 -2.11023
-15.3629 119.65 9.4963
-19.1057 122.1 8.89696
-24.9216 135.27 3.54696
-25.187 137.671 2.47283
-8.75686 118.691 9.0842
-25.8961 143.781 -0.25271
-18.9456 145.643 -2.13411
-2.25226 123.314 5.9908
-10.007 150.193 -5.53723
-7.92742 118.595 9.06063
-22.2341 134.84 3.48817
16.3556 128.801 0.761957
-27.4802 138.888 2.41209
-20.6513 132.773 4.32131
-24.2554 133.725 4.42761
-14.5397 119.804 9.60388
-24.0788 133.973 4.31779
-14.6808 119.898 9.61956
12.0844 126.964 2.42535
8.05319 147.398 -6.61026
8.81039 123.249 4.67083
12.029 145.932 -6.46854
-6.16424 149.653 -5.5869
-15.8852 120.882 9.3969
-11.0795 119.75 9.24186
-28.1148 139.884 2.2209
-10.2007 120.304 8.86327
19.3659 128.006 0.96428
-17.0492 122.275 8.93355
-20.5755 123.971 8.64881
-19.5505 126.761 7.18574
-9.7722 120.584 8.69318
-1.02987 146.441 -4.73663
15.9903 129.452 0.814215
-11.3432 150.325 -5.06566
2.72109 131.589 1.73578
18.8631 128.687 0.782044
11.7755 146.395 -6.528
17.6478 128.806 0.916087
5.85219 147.622 -6.24043
-10.4652 120.762 8.82964
12.4977 129.412 1.44339
-8.81113 150.527 -5.42693
-11.1562 120.555 9.05451
-0.675339 125.668 5.13893
-16.4977 122.427 8.96229
-28.2202 140.439 2.19425
-10.3565 121.124 8.72276
2.16667 146.288 -4.89872
-9.38033 121.867 8.33397
8.69336 125.825 3.85583
11.8648 128.022 2.37559
-18.3543 131.878 4.93478
12.8637 144.288 -5.41857
-6.94034 121.099 8.38977
16.5676 129.088 1.22795
-14.8909 121.882 9.20326
18.6984 129.573 0.721842
11.8489 128.785 2.08735
-18.9756 128.874 6.50805
23.4943 132.86 -1.4455
-15.0665 122.453 9.03885
21.2367 135.184 -2.20711
23.5026 132.84 -1.4272
5.46213 147.715 -5.83079
11.6729 128.685 2.25335
8.68636 128.843 2.61749
-23.3433 145.748 -0.708873
-8.0647 122.505 8.04627
-14.2207 121.5 9.41056
-22.0396 135.827 3.78856
21.0123 136.739 -2.83773
-3.40689 123.097 7.14446
18.6762 129.816 0.80028
-16.9179 123.728 8.83296
5.04879 147.639 -5.60225
-6.1721 121.317 8.48057
21.0294 137.372 -3.01665
20.7882 137.867 -3.19071
-18.7799 133.855 4.43704
-19.6199 125.015 8.74052
-27.4875 142.238 1.77885
-6.02064 121.522 8.45052
8.90615 148.432 -6.34465
-8.04615 123.697 7.7721
-13.2164 149.954 -3.84724
16.9246 141.317 -4.11572
-0.789086 126.596 5.43789
-17.6599 133.372 4.69326
-11.3656 122.581 8.87653
-6.6668 122.434 8.26857
-10.1282 123.068 8.47873
-14.2184 149.469 -3.36647
6.01394 135.409 0.33897
-5.31093 150.166 -4.97068
17.4583 140.948 -3.88464
-7.06071 122.975 8.13905
19.8719 139.496 -3.53716
-15.1162 124.423 8.6325
21.8721 132.192 -0.324441
-17.3721 132.166 5.3652
-18.915 125.125 8.92469
8.37245 148.754 -6.13103
-9.38293 123.91 8.15647
9.44206 124.787 5.02976
-16.1676 124.841 8.71744
-4.791 123.357 7.79422
13.1082 142.806 -3.95146
7.99475 135.631 0.173331
-23.4227 146.196 -0.234355
5.6796 148.619 -5.56579
21.5114 131.982 0.00416395
-1.53185 126.474 5.96153
-0.255266 148.064 -4.38056
-16.8818 129.024 7.00661
-18.3003 125.612 8.85464
-19.5047 147.351 -1.20789
-2.01507 149.449 -4.72331
22.0727 135.284 -1.51666
22.8769 134.755 -1.37281
4.68857 134.231 1.50744
1.18106 147.744 -4.33984
-13.0223 150.603 -3.56084
-16.6235 125.642 8.73014
-15.7627 125.39 8.73031
9.8112 126.616 4.46441
-17.2452 131.823 5.9225
15.4255 132.384 0.97763
11.1263 148.096 -5.79857
15.3281 132.499 0.963059
-23.2156 138.55 3.69381
-3.73273 124.904 7.31949
-10.0588 124.614 8.39102
22.2411 135.305 -1.28914
-17.6485 130.493 6.74863
-17.6228 130.993 6.51886
-16.9314 126.167 8.71044
20.9744 138.498 -2.56196
8.52613 128.513 3.95008
-16.3758 130.559 6.59977
20.5895 139.305 -2.84014
2.34214 133.312 2.62517
-18.0225 134.876 4.83943
-18.2689 127.814 8.22773
-8.41701 127.41 7.01256
-24.8692 145.233 1.02685
-12.3084 124.062 9.19443
16.3739 132.848 0.933685
8.74129 131.736 2.57195
4.62301 148.735 -4.83138
7.55538 136.946 0.306098
-23.1035 146.802 0.102036
0.482925 129.409 4.92695
3.08952 133.949 2.41604
-21.4173 147.659 -0.467487
6.22116 137.31 0.41945
-24.4994 140.074 3.56508
3.10002 148.375 -4.30461
21.5977 132.838 0.378037
-5.39308 125.272 7.86675
-11.7572 151.792 -3.70123
8.62722 129.34 3.97024
1.3692 148.747 -4.12868
21.7644 135.873 -0.995898
9.21 129.11 4.0081
4.27576 136.102 1.4303
-0.322505 149.549 -4.22186
-3.22487 126.335 7.15319
5.08543 137.043 0.916194
18.6996 131.759 1.45369
3.31516 148.602 -4.24552
8.59113 135.941 0.964827
2.50258 148.73 -4.17556
-19.1115 136.505 4.726
10.8483 130.222 3.36696
-7.75531 128.124 7.04807
-0.300298 129.167 5.52339
0.450631 129.827 5.11273
20.4405 131.324 1.5174
12.6021 145.731 -4.13668
4.69038 136.878 1.18395
8.51887 150.021 -5.53004
-5.93423 126.01 7.87996
13.3665 132.822 1.88949
11.0865 131.501 2.85698
-15.383 133.912 5.55389
9.82402 129.426 4.02459
-3.57577 126.74 7.23928
-13.8958 135.823 4.46485
-15.482 126.983 8.91006
-8.78343 129.572 6.74751
12.5383 146.027 -4.09062
-11.676 125.638 9.03944
-23.4585 139.975 3.9906
2.74296 134.508 2.78788
-7.46742 128.668 7.0192
-19.9096 136.942 4.92732
-8.6169 151.876 -3.74569
-16.278 149.356 -1.44809
-17.3513 148.144 -0.719657
7.73961 137.986 0.454559
-20.6207 148.418 -0.360351
-12.481 151.649 -3.05873
-14.4025 136.496 4.37073
2.06933 134.262 3.07559
-14.502 127.424 8.72108
2.43736 149.242 -4.01224
-9.81582 130.275 6.71502
-2.93223 127.48 7.05272
-14.008 135.904 4.68326
3.38005 135.786 2.26759
17.7921 133.099 1.45698
-14.3346 136.563 4.48273
-12.7444 136.78 4.15092
-14.1 137.395 4.06702
-9.85982 128.373 7.71364
-13.8227 126.849 9.02433
-19.4051 148.579 -0.390429
-9.50551 151.996 -3.43063
-10.2764 130.738 6.72683
-14.3863 136.988 4.4119
-11.334 133.549 5.63265
8.76134 135.145 2.00706
-1.9768 151.162 -3.98461
-2.04012 151.175 -3.97462
-15.5696 136.386 4.96429
16.1522 143.212 -2.82858
8.76741 131.114 3.95071
-6.06854 128.232 7.45889
-1.32659 129.474 6.18902
8.93618 136.272 1.52067
-14.4871 150.823 -1.94589
12.7355 134.196 1.96168
4.29814 137.428 1.65884
-13.5591 140.275 2.90338
-13.6147 132.527 6.70368
-13.9273 133.506 6.29907
-19.1006 137.915 4.98803
-13.7703 151.304 -2.05587
-22.5368 147.868 0.835623
8.99326 131.301 4.10832
18.7449 142.541 -2.57405
-14.5706 138.411 4.19546
20.0883 132.943 1.80121
-10.2711 137.615 4.00409
-5.08103 128.239 7.71022
-12.0592 130.288 7.77566
-11.3472 152.272 -2.64333
8.96117 134.854 2.64979
14.7365 143.213 -2.12043
-15.3416 138.115 4.65866
-5.15368 152.208 -3.45286
-15.4593 138.633 4.49247
-23.7206 141.893 4.16258
12.2487 148.267 -3.99526
-13.8493 141.831 2.82657
-8.89534 131.945 6.77371
-13.8979 151.44 -1.69306
-4.3493 152.109 -3.38324
5.52318 150.579 -4.02792
-9.76574 136.608 4.80475
-15.3053 140.45 3.79731
-8.27453 131.769 6.89507
-12.5828 131.477 7.66346
17.3226 143.302 -2.22463
-7.66018 138.632 3.61219
-0.281523 132.247 5.55699
-9.16689 135.4 5.3729
-7.26503 131.428 6.98294
-8.49576 135.211 5.39167
2.2711 150.98 -3.59372
-22.3798 141.344 4.51823
-10.6811 139.417 3.77121
-5.24761 130.148 7.37849
3.47481 138.027 2.40485
2.04261 151.241 -3.59912
9.31372 139.14 1.05552
13.7545 144.761 -2.22393
-14.4995 141.881 3.27254
18.4043 134.694 1.92145
-11.0543 141.753 2.90683
9.23868 133.383 3.9268
-6.76112 140.694 2.8072
-0.614947 152.122 -3.45837
3.41763 138.209 2.51826
-6.26713 138.083 3.98033
21.4452 139.965 -0.908987
11.9122 134.636 3.00664
-4.42921 152.554 -3.07728
-8.62951 140.494 3.23589
-5.89968 139.656 3.28137
-4.26236 130.956 7.14853
18.1795 135.198 1.9133
1.27493 134.778 4.58097
-7.91176 152.755 -2.55903
-1.9512 132.104 6.31665
21.1906 140.636 -1.03926
9.39887 133.914 3.84546
-11.362 142.762 2.68271
-11.0102 142.297 2.85375
-21.3833 142.187 4.40619
-5.61116 133.818 6.07427
-18.797 149.691 0.500322
5.66839 139.931 1.58231
7.81005 151.711 -4.27663
-20.1696 149.623 0.76786
-11.8522 143.247 2.58805
-15.082 142.156 3.58839
-14.7642 142.985 3.15833
-5.19787 133.092 6.49388
-8.26399 141.414 3.01455
-4.87319 138.147 4.07429
-7.13807 152.977 -2.50391
-17.7601 141.686 4.3795
-4.5934 140.707 2.93986
-18.9025 149.909 0.674217
-4.77091 132.654 6.7664
21.4669 140.344 -0.634975
9.68426 136.06 3.09584
-4.11196 134.451 5.86562
-17.7134 142.324 4.12558
-3.40531 137.529 4.32121
13.1169 147.814 -2.90629
-5.27799 142.426 2.30129
-2.49567 137.596 4.21457
-7.44624 142.202 2.77268
-4.09587 132.289 6.96174
21.8747 137.413 0.80762
21.2705 136.688 1.2426
22.143 137.673 0.666497
-3.78918 141.165 2.77221
-12.3074 145.346 2.03872
-12.3065 145.503 1.96852
-19.6319 141.816 4.79594
-8.75823 141.89 3.20035
-2.52562 139.65 3.36302
11.5243 135.854 3.16839
-3.18316 134.365 6.01724
17.9088 143.927 -1.53586
21.5099 140.534 -0.430277
-1.39514 137.625 4.28974
-12.0345 146.179 1.81479
-22.1634 148.168 2.3443
17.9509 136.618 1.99316
2.33093 136.443 4.33755
14.7472 144.377 -1.18791
-2.42552 141.202 2.79206
-8.70555 146.648 1.14478
-2.79067 142.134 2.42737
-12.4787 146.834 1.62107
-2.64627 142.178 2.41461
-14.4139 145.256 2.6876
-9.52231 146.054 1.61031
-2.37992 133.437 6.53513
1.20854 152.822 -3.10875
10.0438 135.974 3.55794
5.28973 152.115 -3.35207
5.33534 141.07 1.87421
5.58582 152.178 -3.35339
-6.2115 143.814 2.32839
10.038 140.017 1.77836
-1.29457 134.241 6.14415
1.78447 152.898 -3.08042
11.9819 136.673 3.10294
-16.7175 151.323 0.382237
11.2914 136.184 3.48422
10.1971 138.117 2.75097
-9.01216 144.658 2.54783
-10.7623 147.933 1.2845
10.3997 135.359 4.15538
-17.9184 144.439 3.98714
6.18012 142.59 1.37735
-18.5818 142.751 4.8832
19.7884 136.552 2.29626
-1.38559 140.747 3.39961
9.49461 142.935 0.798221
-0.972858 139.901 3.77156
6.21662 142.856 1.36187
-14.7517 146.454 2.71172
-0.71696 139.218 4.12373
-6.19675 144.997 2.22704
18.2485 137.542 2.21952
-11.1205 152.959 -0.796428
-2.15079 144.252 2.02045
4.51758 141.715 2.25501
19.6908 143.731 -0.856215
21.6988 140.227 0.540374
17.6589 144.807 -1.00808
-1.17519 141.257 3.40534
9.30163 143.944 0.634022
-11.5331 152.905 -0.546719
-12.8896 148.187 1.87382
0.650918 153.532 -2.55655
-0.43388 143.832 2.17482
12.5308 149.028 -2.10847
6.90108 143.978 1.09729
2.71687 138.215 4.42079
20.9037 138.941 1.51095
20.962 139.576 1.24299
-20.5102 149.288 2.6614
6.19712 143.752 1.41479
6.85428 144.161 1.13063
13.6388 147.226 -1.28547
20.8347 139.408 1.3774
-16.4796 147.116 3.13891
-15.2587 147.765 2.68594
-5.9213 146.205 2.07147
3.13295 139.797 3.84863
10.6718 138.771 3.24934
-19.8377 144.446 5.0153
15.8933 145.855 -0.79937
-4.04718 154.369 -1.91414
0.932413 144.95 1.81026
20.5241 137.968 2.27371
-0.194485 145.232 1.93243
15.9481 146.049 -0.76458
19.1092 144.914 -0.680559
16.1768 138.215 2.90253
2.06605 138.483 4.82012
11.9108 137.781 3.73214
-21.0278 148.127 3.67154
20.2754 143.585 -0.147413
1.08259 140.073 4.32024
-21.0334 146.679 4.40511
11.4909 137.809 3.90413
-4.20538 154.513 -1.69361
-19.7237 145.881 4.63322
3.90534 142.047 3.03464
-16.8154 147.402 3.52138
8.99492 145.3 0.834685
0.562052 144.148 2.61401
-13.089 149.37 2.19958
8.4299 152.863 -2.52679
3.16727 140.658 3.99966
16.0393 146.63 -0.671555
16.2097 146.768 -0.626549
16.5761 138.943 3.07174
-10.8227 149.788 1.92561
-8.708 153.902 -0.223491
-16.4108 148.976 3.25237
1.18373 142.693 3.6965
8.12422 146.385 0.987057
4.31778 143.111 3.11095
11.2766 139.308 3.90827
3.44464 154.257 -2.00523
-11.7154 153.142 0.754681
9.2041 146.646 0.935509
12.0381 139.668 3.8828
11.8439 149.867 -0.859665
-11.4689 153.227 1.00591
-12.4392 150.027 2.69139
-17.6293 149.423 3.7385
13.676 147.986 -0.083423
4.23215 143.612 3.38926
5.82471 146.401 1.8624
-18.5561 147.855 4.72762
8.63663 147.402 1.04356
8.79613 147.431 1.03154
8.82156 147.436 1.02973
19.0864 139.865 3.15633
7.19414 147.608 1.24642
-18.1236 148.215 4.64196
10.9747 145.931 1.56063
18.964 140.13 3.21298
15.1273 140.593 3.58799
19.0089 140.501 3.07018
-12.4185 152.903 1.81183
19.062 145.176 0.935789
-11.8951 153.237 1.61529
15.681 148.204 0.0426962
8.60237 153.471 -1.40061
18.6365 140.731 3.25458
8.20296 148.426 1.1993
2.56374 144.546 3.84423
18.8663 141.63 2.87662
12.4887 143.106 3.15111
16.0289 140.749 3.76155
8.92474 148.606 1.10931
11.9127 143.899 2.92479
9.48307 152.962 -0.993335
-13.4279 150.802 3.44961
-12.0587 151.633 2.92935
18.4818 142.28 3.01338
9.86658 152.844 -0.695229
8.20401 149.488 1.13109
5.51126 146.25 3.05295
16.3444 141.368 3.79658
4.54286 145.368 3.62488
18.4616 144.652 1.95626
11.3131 151.866 -0.372558
-11.4438 151.663 3.02718
7.87274 154.075 -0.85007
16.5289 141.581 3.81199
4.29898 145.348 3.80725
5.71086 155.289 -1.06012
17.8957 142.5 3.23758
12.0036 145.872 2.51263
17.013 141.709 3.77232
10.3808 152.572 -0.383378
4.76442 146.67 3.21545
5.53202 146.745 3.08601
13.3982 143.622 3.52028
5.80612 148.005 2.63678
15.4828 143.487 3.48975
12.9343 145.1 3.15115
16.9321 144.055 3.09279
16.3952 143.164 3.60021
12.4384 146.863 2.48864
11.769 148.783 1.73272
16.3104 146.305 2.40218
11.3311 149.683 1.5715
16.0471 144.922 3.13728
8.26531 150.943 1.46177
15.2971 144.472 3.53531
9.61685 153.759 -0.00617283
13.6779 145.352 3.37604
13.8405 150.241 1.22741
10.7576 150.554 1.54065
13.7577 150.163 1.32413
8.77836 152.145 1.13201
15.5064 147.068 2.64278
12.876 148.965 2.12963
11.8462 152.433 0.696063
14.7296 148.956 2.03457
15.0077 145.93 3.50438
15.0486 147.538 2.74662
14.8962 148.579 2.30231
14.8325 146.675 3.30233
9.61975 153.122 1.07799
10.6582 153.533 0.746234
8.95816 154.778 1.42967
