ply
format ascii 1.0
comment Created by Open3D
element vertex 1996
property double x
property double y
property double z
end_header
2.61331 91.2912 -1.50527
-14.1273 111.88 -2.84947
-23.0463 124.17 6.60902
7.17752 87.6491 13.3488
7.05643 87.0965 7.86682
-21.8974 122.087 0.962555
-22.9902 123.992 4.89916
-23.509 123.915 -0.72558
-10.52 109.989 15.6379
-10.0655 109.409 15.5034
5.78233 88.4589 4.71418
-22.6164 123.944 7.03027
-24.5396 126.924 11.3398
-22.7613 123.549 2.40692
-21.9644 122.854 4.32968
-11.615 109.188 -2.19784
7.33634 87.2531 8.79191
-1.49708 99.6399 19.6863
-2.21615 100.235 17.4247
-23.1704 123.893 -0.107768
4.87536 89.4338 1.74449
7.42781 88.8115 21.0155
2.3781 95.7984 26.4597
-22.1573 122.679 -0.254702
3.27984 94.8555 27.545
-18.1395 119.441 12.8056
-23.149 123.97 -0.779123
-21.7702 122.349 -0.207887
-0.838787 97.9184 11.0612
-25.0804 128.044 11.7109
-13.8791 112.28 -2.73579
-0.893007 99.1744 19.8546
7.75715 87.21 10.1937
-0.674942 98.9471 19.8946
6.73395 89.0184 14.0214
0.121971 98.0557 20.2237
-21.9488 122.896 1.09556
-22.1633 123.45 3.06764
-21.4849 122.357 1.00613
-12.8377 113.649 16.1134
-23.1588 124.852 3.71262
-2.5846 100.397 11.1637
1.30645 97.2466 23.7768
5.82897 91.9122 25.7267
-22.1367 123.932 5.83242
-16.4024 115.621 -3.78222
-0.168219 98.7805 20.9088
6.82571 90.678 24.8225
-3.96112 102.651 14.2078
-22.4697 123.837 1.02874
7.42213 89.2197 19.1915
-24.3637 126.361 2.21285
-21.6313 123.026 2.43187
6.29233 91.5367 25.4793
7.23983 88.1197 8.35332
0.429613 98.3133 21.4757
-17.9634 120.046 13.4383
-22.538 123.985 0.289299
-0.249288 98.3921 15.448
-1.36893 100.381 19.9246
-21.7271 123.624 4.86791
-22.151 123.482 -0.409655
-22.539 124.614 4.5323
0.0900452 95.7757 -1.79573
-21.146 122.769 3.31095
-22.7249 125.509 9.08523
-1.77751 99.7804 10.6448
-13.8458 115.421 15.8686
1.80307 93.7333 -1.91074
-21.3537 123.119 3.43231
-2.18905 98.8165 -0.91599
0.62753 98.3377 21.9251
-22.0345 124.597 7.97437
0.590904 97.311 13.4978
0.5731 98.4545 21.9869
3.73979 91.537 -0.84646
-15.0661 117.01 15.4628
-22.0969 123.624 -0.644338
-22.4713 125.311 8.55123
-21.6078 123.48 2.68739
-18.3368 120.878 13.6127
-4.16651 103.56 15.3138
-20.8968 122.141 -1.11144
1.65125 97.69 25.1219
7.41886 90.3543 23.5624
-22.116 124.911 8.1453
-12.9457 114.625 16.1961
-20.4469 123.113 10.0245
2.52433 96.787 25.8618
-22.607 124.605 0.539865
-25.3504 129.404 11.15
-4.82307 104.599 15.644
-3.27272 100.38 -1.90849
-27.7348 131.79 6.45586
-20.8838 122.682 1.24887
-21.8268 123.787 0.569887
-21.0496 122.66 -0.707264
-28.1977 132.776 8.67848
-2.98556 100.188 -1.7522
7.11993 89.6722 13.4287
-14.2663 116.48 15.4675
-20.0066 121.119 -3.45805
-4.09346 103.924 15.485
-18.0637 118.8 -3.28197
-19.3985 122.501 12.0756
-26.1324 129.339 0.464344
-0.294866 100.14 21.4545
0.417746 96.1908 -1.90272
-8.68124 107.388 -2.45878
-20.9116 123.003 0.899195
1.9178 97.9719 25.3164
-0.462986 99.7317 15.9052
7.73759 90.3526 21.4706
-21.7361 124.478 3.33911
-22.1465 124.703 0.970403
-21.7073 124.717 5.19723
7.69323 89.2985 12.7068
-17.0603 120.279 15.0012
-14.9218 115.265 -2.99076
-20.9733 123.514 2.61593
-13.8367 116.414 15.6042
-3.63235 103.708 14.8414
6.78053 89.6927 6.15717
-25.8283 130.645 10.4756
-8.90008 108.056 -2.03351
4.89653 91.3554 0.885792
-19.5141 121.03 -3.34257
-2.47965 102.066 12.6532
-14.9467 115.447 -3.00891
-22.7096 126.663 9.14926
8.30909 88.5425 11.2721
-11.0417 113.082 15.5764
1.46611 95.2801 -2.12578
-26.8188 131.123 3.97978
4.44951 91.892 0.0953967
-21.2659 123.897 1.29758
-22.3411 126.233 8.6187
-21.9538 125.861 9.39607
-0.528608 99.5448 10.9465
0.697732 98.2048 12.2629
-26.4836 130.656 2.91478
-22.3029 126.197 8.31063
1.03196 97.9455 13.0677
-8.85236 108.208 -1.97851
-26.9083 131.498 4.74027
-2.9185 102.975 13.7216
-21.2147 124.199 2.74336
-27.4698 132.424 6.13714
-23.3168 126.545 0.326484
-21.4333 125.325 8.30032
-24.5802 128.252 0.693097
-9.33006 111.374 15.5341
7.91724 89.6264 12.4254
7.73846 90.5275 17.3804
-14.1666 117.377 15.2528
-21.3784 124.404 0.782452
-25.1538 130.438 10.3785
-24.3083 129.481 10.9072
-18.8742 122.967 12.2936
-20.6645 123.76 1.11961
-1.86387 100.141 -1.47988
1.73221 95.6227 -2.15316
-21.3699 124.672 0.784825
-14.1622 117.797 15.1345
4.61811 92.5464 -0.0376629
4.35901 96.5038 27.2295
-19.5798 123.968 10.5232
0.909895 99.1578 14.7045
-20.3122 124.807 9.90425
-0.662399 100.653 11.2387
-22.7543 128.096 11.7609
-0.308474 101.343 19.4702
-22.733 127.918 10.2186
-12.8379 116.432 15.872
6.36524 93.9242 25.53
-4.027 103.031 -3.11163
-16.0961 117.939 -3.47893
-20.6589 124.01 -0.281543
7.27571 90.3311 6.60317
-16.4374 118.374 -3.52568
2.51011 98.7337 25.4148
-23.9606 128.087 -0.774598
-1.30277 101.625 11.2035
-5.66323 105.201 -3.39808
-2.54786 101.534 -2.15171
-27.6844 133.935 6.66611
-22.6839 128.261 10.1923
-20.5911 124.238 -0.757746
-21.9088 127.262 9.63074
-1.75086 102.511 11.1391
4.65743 96.691 27.0868
-22.7879 128.705 11.6288
4.26562 93.5613 -0.860095
5.24888 92.5643 0.756353
2.64441 99.0111 25.1794
7.16989 93.3158 24.2753
-0.114923 101.784 19.9236
-21.9225 127.491 9.78043
3.49599 94.5008 -1.90953
3.9607 94.0351 -1.41609
-20.5486 124.922 2.59619
3.31072 98.5551 26.7392
8.06073 91.8389 20.1959
-27.4103 133.958 6.26147
-3.94157 103.639 -3.36782
-20.3263 124.732 2.26117
-18.7863 124.038 11.4743
-23.4768 128.205 -1.01548
-20.7597 126.228 9.50358
1.30376 99.5916 14.3961
-10.8304 112.538 -1.4125
-10.2586 111.872 -1.25185
-20.402 124.747 0.744758
-19.7523 125.288 10.7289
-14.9567 117.533 -3.3666
-22.5339 128.929 11.8303
-20.8696 126.481 8.78834
-1.90472 103.456 12.1763
-15.5496 120.819 15.5503
-21.0012 126.786 9.50689
-19.6636 125.307 10.8257
-2.45737 102.296 -2.38632
-1.07267 100.694 -1.5468
-20.003 124.589 1.56363
-23.6431 128.749 -1.22484
-18.0628 121.585 -3.19123
5.39745 96.4476 26.5385
-25.7579 131.913 2.85426
-3.02128 105.364 14.773
-25.1224 130.857 0.415696
-20.0946 124.316 -2.10877
-19.0757 124.84 11.3139
-8.91723 110.61 -1.30009
6.24174 95.411 25.7786
-7.89776 111.648 15.842
7.18212 91.5702 5.16878
-12.2742 114.785 -1.81821
-21.2605 126.242 0.291631
2.33431 100.14 23.6783
-22.1946 128.913 11.3313
5.30943 96.874 26.5455
0.344814 101.692 16.3787
-20.5569 125.594 1.11549
-21.3806 127.77 9.808
-17.4645 121.192 -3.40391
8.44678 90.592 7.86474
-20.6265 125.572 -0.231687
-19.3556 123.589 -3.35798
-21.7891 128.505 10.4778
-12.5491 117.754 15.5894
7.63483 93.801 23.3642
-3.38137 106.316 14.6668
7.69189 93.7534 23.2829
7.27452 94.3882 23.7994
-21.3096 127.861 9.07752
-9.36348 113.94 15.5229
-9.23778 113.944 15.5187
8.76549 91.0337 10.6125
-21.2425 126.849 0.323883
3.10859 99.9028 24.6139
-14.8075 118.437 -3.34186
-21.8484 127.542 -0.517821
3.92176 99.2374 26.7269
-4.58853 108.266 15.1505
5.83986 93.5327 1.09201
-19.249 125.982 11.3707
-0.214418 103.171 17.0596
-5.89713 110.055 15.7689
-6.43599 110.829 15.8552
-23.5672 129.826 -1.32616
-7.10694 109.365 -2.42489
-1.33624 104.269 13.088
7.33015 92.4198 4.54532
-3.8597 105.256 -3.35266
-25.8268 133.373 3.57813
8.60559 92.515 16.9287
0.485977 100.112 -1.86068
-18.6372 123.617 -3.5456
-3.25981 106.993 14.6369
-11.11 114.678 -1.10884
-20.9695 128.245 9.17483
-23.4412 131.397 9.84167
-19.6901 125.142 -2.4433
-20.0716 126.113 1.3327
-25.0308 132.396 2.09732
8.99294 91.2456 9.49776
1.6679 98.8901 -2.21414
0.10219 103.359 16.9626
1.71875 100.686 11.8445
2.34127 100.064 12.9549
-17.2465 122.169 -3.40655
8.42326 93.7625 22.1327
-0.919971 103.891 11.1522
-21.5418 129.579 12.0377
8.96114 91.4877 9.62398
-23.5195 131.739 9.57717
-13.9873 118.293 -2.94256
-9.77529 115.534 15.3601
-26.4266 135.008 5.88175
-20.2311 126.579 -0.264897
8.33039 94.2201 22.3936
3.84171 100.233 25.7804
-18.5348 126.094 11.6923
-10.8037 117.065 15.5231
-5.69079 110.803 15.7578
2.39849 100.567 13.3907
-21.1826 129.655 11.973
2.23659 100.993 14.2715
-7.0611 110.348 -2.20389
6.94791 96.56 24.8271
8.58068 93.2791 15.2144
0.509072 103.988 20.4491
-18.7717 124.732 -3.53144
-9.32672 113.462 -0.549952
-7.09853 110.527 -2.12457
1.84877 102.745 22.8707
-23.6789 131.233 -1.10005
-8.70492 114.905 15.3988
-25.8974 134.839 4.96868
-8.48675 114.741 15.4099
-8.19882 114.408 15.4371
-10.6785 117.513 15.479
8.74273 92.9232 10.6778
2.07156 102.835 23.1567
-20.0634 128.71 11.3264
0.47189 104.421 19.8986
8.57018 94.6553 21.6363
-26.1524 135.623 6.06509
-18.9497 125.747 -1.5641
-19.0828 125.816 -2.33832
-19.9645 128.475 9.42999
1.36158 102.975 16.2848
-18.7316 127.16 10.3824
-7.25829 113.639 15.5225
1.08097 102.843 11.6861
-6.16672 112.358 15.7704
-17.7275 126.195 12.0139
4.51136 100.577 26.3348
-19.8256 128.494 9.31554
1.85159 101.991 11.7888
3.34102 98.3217 -2.43098
3.09921 98.646 -2.61212
0.0656092 102.461 -2.33116
-1.18746 106.124 13.7096
2.98878 102.316 23.7917
4.15762 97.5894 -2.07804
2.55622 101.805 14.4159
8.73516 93.1167 6.21925
-19.265 128.306 10.1033
5.78171 95.9818 0.134512
-21.9228 130.164 -1.56501
8.41804 95.7679 22.4808
7.18 94.7261 2.47743
6.84051 98.1684 25.2607
-14.8553 123.731 15.0625
3.37211 102.506 24.5387
4.6409 97.4827 -1.71221
-11.8517 120.166 15.2371
8.78592 94.1498 11.7213
1.8456 100.902 -2.39893
1.82001 100.951 -2.40193
-11.4749 119.81 15.4449
-11.709 117.886 -1.51077
-19.3222 127.492 -0.415094
-12.3167 120.842 14.9372
8.32598 93.955 4.86206
-19.0371 128.515 9.48806
-12.2964 120.911 14.93
3.8318 102.313 25.3169
-0.939615 104.522 -3.05673
-23.0304 133.467 8.9337
9.07946 95.0124 18.7524
5.95099 96.4691 0.278316
-8.63986 114.472 -0.510418
-8.0072 113.693 -0.740715
-7.38269 115.054 15.4363
-19.4248 128.001 0.217335
8.60161 94.0769 5.38805
9.30361 94.7634 17.1508
-13.0785 122.142 14.5575
-16.5129 123.975 -3.90636
-17.3097 127.024 11.0447
1.66621 101.738 -2.52288
-6.43683 111.806 -2.33992
-2.75056 107.161 -3.12324
2.38189 104.328 23.5254
0.349481 105.121 10.2863
-25.8509 137.279 8.00994
-25.8381 137.27 7.97496
9.03386 95.7353 20.1479
7.94211 97.5258 23.4703
-5.04914 112.592 15.7033
-4.64083 109.635 -3.13581
-21.8946 131.261 -1.39267
-23.5098 133.517 0.499146
-18.9842 127.765 -0.750424
2.82889 102.781 14.6402
2.13523 104.692 22.4434
-8.40876 116.874 15.468
-1.46676 108.197 14.2164
-20.3353 129.606 -0.862319
-15.5475 125.547 13.3041
-15.6634 125.667 13.0277
4.61415 98.5831 -1.99795
9.10223 95.9812 20.3902
-24.6808 135.68 4.03286
0.0381642 106.049 11.4766
-0.758569 105.115 -3.26725
-0.471182 106.854 12.5198
-23.7515 134.216 1.04438
-15.4942 123.439 -3.23607
5.81405 100.859 25.6558
-20.1231 129.54 -0.725547
3.99586 99.4581 -2.49304
1.61422 102.417 -2.72061
-10.5442 117.76 -0.606699
8.9195 94.581 5.97258
-16.2071 126.452 11.7033
-17.6378 126.215 -3.9354
-20.1725 129.767 -0.851862
3.22101 100.549 -2.74359
9.11608 94.5023 6.71045
-21.6707 131.7 -1.0004
-6.02634 112.116 -2.60468
-1.44783 106.309 -3.66732
2.3418 104.266 16.4424
-8.55814 117.706 15.5283
-22.1577 133.73 9.0721
-23.019 133.627 -0.344918
-21.8522 133.499 9.42837
1.66005 105.853 20.4973
-1.24218 108.585 13.9032
-1.53786 109.038 14.3877
-9.18003 118.64 15.4117
-16.3234 126.9 10.8533
-22.8783 133.574 -0.3197
-7.95752 117.222 15.5173
-11.6383 119.622 -1.1549
8.34588 98.1305 23.0061
-17.539 126.857 -2.92378
-19.7635 129.926 -0.662731
-0.293048 107.513 12.1831
-16.4874 125.48 -3.75541
-19.133 129.284 0.23749
-24.1994 136.72 8.78513
-20.3463 130.627 -1.32103
7.27369 96.8525 1.80916
-16.9292 126.053 -4.1161
6.66043 97.5172 0.654333
1.2001 106.66 18.3286
3.02048 101.611 -2.90264
1.87737 104.781 10.3776
-1.44187 107.064 -3.50878
-24.1318 136.833 8.82396
-1.64765 107.411 -3.39824
4.72511 99.7105 -2.10829
-15.7892 126.819 10.786
-18.224 129.631 9.12002
-25.2222 138.162 7.77698
-18.1493 129.631 9.33316
4.50804 103.564 24.4527
-14.2014 123.234 -2.22994
-23.622 135.409 0.800022
3.59491 101.339 -2.91066
3.34652 101.657 -3.03129
-23.8734 136.974 8.93925
-24.7438 137.743 6.26346
2.08805 103.318 -3.23916
-15.4043 126.966 11.2502
9.39671 97.5175 20.775
-19.2935 130.58 1.76221
7.64873 97.3238 2.00779
-9.65701 120.532 15.4267
2.44008 105.855 17.2684
-23.2697 136.636 9.14845
0.75099 107.03 9.7661
-0.745171 109.35 13.2729
-11.4937 122.863 14.2732
0.506605 107.468 10.0162
-18.5535 129.74 -0.103557
-10.9646 120.27 -0.703435
3.14668 102.487 -3.13609
7.93041 97.3179 2.59466
-16.2812 128.199 9.0454
-9.50481 118.64 0.123507
-6.3929 116.851 15.5232
-19.1725 130.887 1.72513
-17.5464 128.333 -2.80453
8.67162 96.8236 4.35757
-17.694 128.606 -2.33569
-8.50845 117.571 0.0220439
-19.9668 131.735 -0.36142
3.31247 105.03 15.6503
-12.956 122.882 -1.87257
-7.50315 116.364 -0.215718
3.76408 104.189 13.15
9.81664 97.1918 16.9375
-2.88556 110.316 -2.91964
1.72327 104.66 -3.54537
-23.3363 136.366 0.916795
-15.1392 127.537 10.9195
-16.5784 127.425 -3.50953
-6.52943 115.339 -1.10229
-19.7799 131.87 -0.182405
-23.8514 138.137 9.0315
-4.61809 112.757 -2.8841
-13.8977 126.496 14.0233
9.91196 97.4785 16.6689
-9.32536 121.18 15.1402
-23.0452 136.249 0.455603
-19.9631 132.35 -0.194791
-15.3581 128.029 9.53798
7.52221 101.537 23.4796
-11.8581 124.286 13.9575
-8.12961 119.896 15.6032
7.79316 98.3927 1.59455
3.59543 104.871 11.1579
-19.2303 133.048 10.1474
10.0189 97.7184 16.5469
-7.34949 119.139 15.5856
-19.1614 131.912 1.28217
-22.8018 136.294 0.318451
-19.0133 131.713 1.00792
3.46996 105.191 10.9477
-18.7202 131.476 1.68567
-19.5667 132.278 -0.324254
-16.6452 128.27 -3.38533
-8.71237 118.959 0.327892
-18.1536 131.902 9.75808
-7.40636 117.328 -0.0499992
-22.8306 137.685 9.27573
-5.96232 117.629 15.5489
3.06335 104.092 -2.92361
5.61782 104.475 23.9981
6.76112 103.191 24.6668
4.05873 105.026 13.1168
3.34982 106.411 16.6104
-0.515688 108.575 -3.67688
0.225516 109.641 10.8636
-6.42756 116.397 -0.892901
-20.6442 134.059 -0.587775
10.5213 96.9945 10.7656
-5.71826 117.759 15.5564
-18.2462 131.211 -0.155138
-18.9553 132.314 0.965771
4.2816 103.129 -2.68932
-8.54627 119.427 0.432159
-0.290172 110.811 12.5713
4.14454 103.378 -2.74627
-5.38317 115.291 -2.25648
-21.624 135.642 -0.566818
-12.8532 124.568 -2.45739
-22.5353 138.122 9.22559
-17.3578 130.265 -2.03109
-14.2982 128.345 12.1373
4.06328 105.501 11.2763
-4.87515 114.765 -2.57779
8.92192 100.986 22.2763
-13.7986 127.908 12.7964
9.86548 99.6101 20.1201
-21.9126 136.253 -0.541244
6.4898 101.109 -0.620781
-23.005 138.981 9.31565
0.093459 108.737 -3.54596
-10.8153 122.527 -1.4623
-14.2377 128.482 11.2895
-24.0278 140.066 7.17837
5.32751 105.916 23.8457
10.6205 97.8322 12.0917
9.11997 98.7646 4.92439
-12.686 126.945 13.7426
10.5821 98.0245 12.5572
-3.65217 113.61 -3.12395
1.82886 106.84 -3.07876
9.05239 101.209 21.9913
-3.61284 116.099 15.4223
-17.4596 130.999 -1.65722
10.7222 97.7917 10.4477
-17.6587 131.411 -1.15607
-21.6769 136.525 -0.301811
4.20008 106.067 11.4971
-15.0182 129.618 9.38434
-21.7056 136.671 -0.0209702
10.5196 98.7037 14.3076
-15.5359 128.584 -3.94958
3.40598 108.639 22.6776
-14.0185 126.716 -3.945
10.6191 98.4932 13.1212
-21.0156 137.153 8.83088
-12.2861 126.982 13.6606
4.35259 106.536 14.7855
-2.56514 115.203 15.1019
-20.7711 136.962 8.86437
4.43903 106.306 13.0333
-18.1044 132.701 1.46914
-0.547184 112.545 13.5122
4.37665 106.623 14.7924
-16.0043 131.203 9.54218
-2.19775 114.952 15.029
-17.1601 131.206 -2.44897
5.72898 103.004 -1.71843
-21.4591 136.934 0.165069
-7.86429 120.147 0.490016
5.62549 103.157 -1.83937
6.50968 105.449 23.7878
-23.7189 140.599 6.24893
-3.05886 113.815 -3.20286
-2.92923 113.659 -3.23105
8.17993 100.556 1.2831
-23.5739 140.761 7.58141
-14.0453 129.288 9.70914
-22.7181 139.385 4.48622
0.00862931 112.328 12.7262
-12.067 127.396 13.5543
0.628599 109.591 -2.70317
10.7679 99.237 13.9698
-17.3136 132.045 -1.26056
8.4736 100.62 2.16775
10.3812 100.439 18.6828
-0.87161 113.764 13.9463
2.92525 109.804 19.4418
-19.0302 134.416 -0.496814
-9.35091 122.49 -0.665686
9.04652 102.683 21.5628
2.49893 107.731 -1.83903
4.68441 105.015 -2.08872
2.47833 107.803 -1.81814
0.10492 112.663 12.6912
3.57319 109.61 21.9265
-17.281 133.812 9.46691
-10.0021 123.396 -1.34944
-18.0847 133.734 0.984673
10.9531 99.3507 12.119
-13.9462 127.976 -4.86047
9.85972 99.8859 5.52836
-15.8514 132.337 9.83723
3.17513 110.119 19.777
-8.15583 123.472 14.3371
10.6538 100.62 17.6386
8.25814 104.27 22.8198
-18.1806 134.182 1.15234
-1.83408 115.769 14.8256
8.81433 101.047 2.73804
-18.7225 134.812 0.0297787
-20.4139 136.906 0.000782846
8.42134 101.4 1.30487
10.9368 99.6295 10.9923
-21.6118 138.86 2.64215
8.15657 104.7 23.1541
10.7818 100.653 16.8085
0.43037 112.862 11.8128
-5.48013 118.529 -0.922201
8.16543 104.823 23.2298
-13.4993 127.983 -4.73377
-11.5328 125.859 -2.66278
-14.1982 128.869 -5.31951
4.58436 109.278 22.5243
-5.46381 118.685 -0.890592
1.93022 110.869 9.27631
-1.02706 112.931 -3.05386
2.82501 111.413 21.1431
-5.08449 118.292 -1.28412
-13.2842 129.956 10.1673
0.0604489 113.777 12.796
0.658786 112.83 11.081
3.95983 107.137 -1.73312
-15.3583 130.971 -2.70378
3.20339 111.161 21.2378
0.651111 113.015 11.2443
10.1859 102.298 19.4344
8.55443 104.76 22.4085
-20.7769 139.475 9.94836
3.79567 110.185 18.4604
-21.7923 139.936 3.4912
-15.6316 131.553 -2.45949
-17.7665 135.844 10.0409
-10.222 127.008 13.7285
3.73651 110.412 18.4208
-12.2779 129.298 11.0205
8.41973 105.248 22.8974
10.1763 102.638 19.4669
-6.29461 122.388 14.137
2.51438 112.279 19.8934
6.74826 104.523 0.629412
-20.1054 137.723 0.0655081
0.767217 113.31 10.9618
5.94379 108.504 23.116
-22.0031 141.228 8.73456
-15.2208 131.369 -2.56219
-3.69883 119.401 14.7537
9.42327 103.928 20.3247
10.9342 100.444 7.93336
8.96936 102.097 1.86294
-22.6702 141.964 7.05638
10.6225 101.514 12.8191
10.9433 100.624 9.00063
-7.14006 123.72 14.3106
1.36483 112.549 9.42871
10.5144 101.979 14.3115
10.9255 100.924 10.08
3.65623 111.007 18.0419
2.03856 110.491 -1.11292
9.2083 104.467 20.5723
10.0051 103.384 19.5792
9.40076 104.291 20.2886
0.0533 114.91 13.017
9.21874 104.569 20.6559
9.91095 103.59 19.6624
10.1873 103.24 19.3406
-6.00243 122.644 13.9123
10.5093 102.022 12.5384
-14.5904 130.801 -4.99628
7.57556 104.191 1.14864
-14.9166 133.188 9.81886
-20.18 138.616 1.52936
0.381948 114.649 12.5592
9.99517 103.665 19.5162
3.53295 108.891 -1.65883
-18.6264 136.808 0.651434
10.9745 100.945 6.31657
9.32062 102.482 2.29417
-8.2356 123.974 0.261645
-17.1943 135.05 -0.0777301
9.32501 104.937 20.6128
-20.9797 140.987 9.33752
-14.7547 131.636 -3.52827
-21.4354 140.867 3.63398
5.11515 109.28 13.3922
10.43 102.524 12.004
-13.7922 132.138 8.83942
-12.3931 128.736 -3.99404
-7.11097 122.847 0.858469
-20.7686 140.014 2.73343
1.99496 112.666 9.09253
-9.71295 127.739 12.7259
4.9982 109.889 15.4961
-11.9162 128.398 -3.23305
-22.1528 142.499 7.39787
-21.5625 141.962 8.71093
1.59659 113.367 9.2921
2.76316 113.189 18.9064
-10.1493 126.572 -1.58215
-1.40588 115.639 -2.74404
5.09675 109.878 14.6129
-18.7159 137.503 0.399726
-17.7086 137.555 10.0797
7.06853 105.669 0.948368
4.02839 109.08 -1.79545
-12.9749 131.624 8.86269
5.39409 107.592 -1.09238
10.3229 104.118 18.7989
-9.58415 127.962 12.4179
7.81009 104.974 1.19815
8.67391 106.758 21.8296
-17.0964 137.103 9.88918
10.8238 103.404 16.4724
-15.8446 134.146 -1.12134
-7.4259 124 0.616389
-17.2033 136.115 0.311451
8.49448 104.503 1.64276
-14.9157 133.023 -2.10082
-12.3245 129.491 -4.62249
9.53412 105.782 20.6919
2.22567 112.052 -0.876386
8.91225 104.161 1.96365
-8.98396 126.061 -0.362442
-3.26484 118.757 -2.36876
5.39913 108.234 -0.823173
9.95013 105.246 19.2788
1.78185 112.73 -0.90491
3.77992 111.601 8.93276
-18.793 138.436 0.170166
-12.4636 131.751 8.81024
1.57506 114.43 9.28573
10.6363 103.135 8.56329
-4.98636 121.405 -0.39349
-19.9388 141.213 9.22236
-20.0978 140.533 2.36085
-16.3747 136.936 9.93005
-20.6161 141.27 2.90222
10.4757 103.763 10.1101
8.06116 108.37 21.5911
-7.78163 125.22 0.516913
-19.9856 141.459 9.06813
-10.246 128.013 -1.7471
-16.7309 136.333 0.258213
3.5922 113.509 17.3541
11.0987 102.761 6.10681
-14.6738 135.164 9.76035
3.17227 114.208 18.3284
4.135 111.803 9.0158
-12.607 130.616 -5.5781
-9.6258 127.499 -1.21254
-16.9547 138.035 9.73641
8.33048 108.347 21.4534
7.44475 109.502 21.8659
-21.3805 143.016 5.09442
3.26203 114.196 17.8811
-10.5655 130.317 10.0712
-15.8654 135.498 -1.09146
-1.41673 119.668 14.5236
-20.6992 142.815 8.5344
-0.454209 116.408 -1.65445
-15.638 135.253 -1.37246
4.09772 110.848 -1.8994
3.31923 114.404 17.6788
0.138185 115.912 -1.02996
4.82342 112.38 16.1517
10.0309 106.313 18.9735
-12.6393 133.177 9.22067
0.170464 117.887 13.2418
3.65298 111.665 -1.62635
-2.22233 118.843 -2.46947
5.35553 111.711 14.5432
-7.28572 127.24 13.4811
-1.2576 119.931 14.4465
1.65257 115.665 9.28062
-18.9734 141.247 9.20854
9.15434 108.013 21.2434
-20.0988 141.826 2.71053
0.790421 117.276 12.5079
5.831 109.363 -0.30175
-3.7927 121.16 -1.36359
-0.702525 117.306 -1.94212
1.61569 115.953 9.40133
-13.4822 134.653 9.14793
5.08094 111.836 9.37014
-0.165702 118.918 13.606
-1.92805 121.208 14.0042
-13.9129 135.424 9.11569
6.65509 108.792 0.197762
-6.18298 126.43 13.2093
-17.5401 138.861 0.344146
-10.7581 129.985 -3.34459
9.20107 108.506 20.996
5.43455 112.409 14.8082
1.58484 116.532 9.68254
1.84024 116.15 9.17767
-16.9036 138.307 0.760347
4.8367 113.413 16.1477
-20.8577 143.825 5.15482
-19.7972 143.074 8.54177
-20.7608 144.065 6.85651
5.67551 111.966 11.6132
-3.89092 122.276 -0.648658
7.37001 111.272 21.436
-15.3921 136.454 -1.46312
-20.7145 144.103 6.29869
-12.6385 134.515 8.99632
4.52369 114.755 20.2566
-2.07011 120.023 -2.12121
1.67651 117.027 9.63665
3.61059 114.47 8.23231
-14.3714 136.971 9.83566
-13.1213 133.722 -3.50515
-0.0212068 119.882 13.4679
2.91409 114.373 -1.04086
9.69521 108.846 20.5358
-18.0184 140.637 1.15191
11.2917 105.192 7.48585
-11.8778 132.144 -5.8111
-13.736 136.424 9.18655
-4.0431 123.257 -0.101565
-20.3437 144.502 7.82003
6.53273 110.23 -0.265653
5.58504 112.779 9.86716
0.680335 119.251 12.88
5.75271 112.704 10.4871
-15.0854 136.941 -1.72406
6.18408 113.531 20.4892
-18.4614 141.589 1.6621
6.45796 113.243 20.6529
7.4875 112.046 21.1968
-7.71052 128.124 0.00888444
-14.3734 136.053 -2.62763
10.8045 107.643 17.9513
-7.41826 127.905 0.42575
3.30841 117.018 18.1326
7.44575 112.363 21.0823
-7.45669 129.559 11.5098
-7.72098 128.394 -0.104129
10.6984 106.972 10.3983
-9.23038 131.624 10.0894
11.1025 107.201 15.652
11.5169 105.266 4.80443
-8.97782 129.771 -1.88111
10.8021 106.872 10.0889
5.66497 113.944 14.7846
6.55639 110.826 -0.658892
-16.6455 139.744 0.650686
-9.9313 132.547 8.94289
6.38704 113.862 20.1729
5.89942 113.6 13.4299
9.5163 107.782 2.69617
-15.3787 138.322 0.0637009
11.1533 107.72 16.9693
-15.826 138.668 -1.75921
8.65426 111.377 20.6381
-8.86609 130.128 -1.90686
10.9247 107.18 9.7725
-5.05604 125.779 0.551962
-11.8586 133.465 -5.12124
5.72643 113.612 9.4667
11.1075 108.033 17.4813
-9.18923 132.195 10.0214
-3.78547 124.232 -0.180066
-6.67637 129.295 11.0613
-9.11784 132.237 10.0596
-4.93634 127.34 11.9486
6.19338 111.819 -1.5071
-12.7686 134.954 -4.21164
3.40972 117.728 17.0747
-10.0361 133.248 7.99598
5.19645 113.195 -1.77702
-9.65754 131.42 -3.21809
3.25991 116.901 7.96861
-15.6444 139.116 -1.21923
5.22691 115.48 15.5284
9.61965 108.368 2.80687
-6.39202 127.983 0.881007
10.6918 108.82 15.8913
10.856 108.368 13.8348
-6.48667 129.486 10.5029
10.7693 108.399 12.4117
-15.6868 140.767 9.36578
10.6976 108.307 10.9396
3.65821 117.788 16.5554
-5.01046 126.462 0.760499
11.0187 108.831 17.2597
-10.7005 134.55 7.99476
-14.5782 139.582 9.64834
-10.7646 132.937 -4.9637
5.41749 113.372 -1.79394
-4.24374 125.584 0.0685247
-15.3724 139.108 -1.91247
10.9382 108.055 9.44067
-6.00875 127.94 0.932914
-19.0689 145.111 8.28521
4.86672 116.479 15.6227
-19.3061 145.378 7.71248
4.18143 117.762 18.6786
-16.6882 141.455 1.56446
-4.47196 127.633 11.3503
-14.5676 139.923 9.6515
-10.6048 134.765 7.61764
3.86155 115.687 -1.48106
11.3498 107.628 7.47191
-7.45876 129.878 -0.470345
11.7824 106.94 5.76279
-10.8689 135.284 7.7395
-18.0239 143.457 2.2671
-13.786 139.197 9.67981
8.45298 110.459 0.291957
9.78516 109.204 2.64709
-7.097 131.113 9.53385
-1.42874 124.635 13.2262
-2.03192 125.394 12.7137
10.3995 110.938 19.6919
-10.3538 135.039 7.43189
-9.02661 133.468 7.81134
10.9701 109.051 10.1937
-10.2605 135.04 7.37346
6.2679 114.952 9.89393
11.0505 109.768 14.2922
11.108 109.301 10.4649
-17.6014 144.681 9.00443
9.02263 110.676 0.621307
-12.3578 138.108 7.86876
-0.147999 121.774 -1.38236
4.67488 117.054 7.6803
-12.7216 138.662 8.05267
10.9267 110.825 18.6559
2.94965 119.381 8.2115
4.35327 117.619 7.63189
-2.68705 126.908 11.9408
-6.5554 131.396 9.4463
-8.80937 132.615 -2.54186
-15.029 140.525 -1.25851
6.34502 115.517 9.41816
11.2496 109.982 13.1989
-0.958716 123.201 -1.30124
3.02476 119.511 8.14303
-0.770923 123.012 -1.27681
-5.30084 130.176 10.5013
6.13227 116.542 14.0318
-14.6324 140.128 -2.20409
4.0304 119.536 16.842
8.87724 111.368 0.107542
0.9181 122.941 12.6233
11.979 108.297 5.10131
-6.55771 131.817 9.20523
-9.89936 134.155 -4.66743
1.54289 122.208 12.1878
-14.8586 142.203 9.6278
10.0575 112.715 19.5568
-17.9349 145.905 8.30795
1.44087 120.881 -0.131575
4.71576 117.886 7.52205
-1.02578 125.787 12.9634
-18.4642 146.275 4.38591
8.29146 112.641 0.39414
-5.23617 130.764 10.5329
11.1869 111.273 16.72
11.5335 110.496 13.7143
-5.20754 130.817 10.5379
-12.7708 139.867 7.91599
-4.72063 130.25 10.5598
5.04953 117.782 7.57874
4.04741 120.11 15.7565
-8.28449 134.356 7.46388
-4.9836 129.46 0.991157
-3.4449 127.545 0.397744
-18.1009 146.7 7.23243
-9.63912 136.268 7.40324
4.11651 119.252 7.32058
-1.85164 127.319 12.2711
5.34473 117.846 7.61317
5.3591 117.935 7.60624
-0.18639 125.574 12.7091
1.88198 122.905 11.731
6.54301 117.304 13.0248
11.8502 109.84 5.90067
11.7596 111.158 14.9986
3.14072 121.036 8.48859
3.08226 120.261 1.37291
3.10619 121.263 8.82889
1.65433 122.07 0.965527
6.05891 117.631 8.26856
-6.25627 131.899 0.184794
-10.7295 136.83 -4.70274
8.77984 113.412 0.834057
4.15728 121.103 15.666
-10.4975 136.575 -4.92365
-16.2611 144.658 2.24088
9.79045 114.674 19.1783
10.1867 111.83 1.16045
7.87488 114.894 1.73913
3.63594 120.125 1.60278
-8.29878 134.266 -3.29496
-3.93272 129.41 0.836597
-10.8515 137.288 -4.4127
10.2761 114.231 19.0859
9.51906 112.742 0.5258
-0.570022 125.151 -0.386184
6.97985 117.228 10.3263
-0.154924 126.401 12.4712
3.19935 121.814 9.00152
-4.67164 130.529 1.00266
0.755075 123.878 0.665476
5.23731 120.015 13.432
-3.04935 128.572 0.403739
-10.465 137.146 -4.62893
-16.5103 145.645 2.99717
-12.4938 141.296 7.72377
9.25785 115.814 18.6178
-1.20325 126.333 -0.242059
9.50892 113.193 0.616435
-15.3179 145.148 9.38105
-12.2006 141.069 7.64502
3.70701 120.603 1.72993
-15.337 144.227 2.01638
5.7847 118.817 7.57635
4.97573 118.774 -0.433052
1.67908 124.723 12.023
-7.42124 135.317 6.81296
5.17846 118.771 -0.501156
8.19646 115.308 1.31627
11.8657 111.295 5.24058
-12.2333 140.03 -3.67416
2.1836 124.193 11.3296
4.90372 121.114 13.416
-12.9341 142.481 7.78572
3.44708 122.326 8.72108
8.04465 117.895 18.1349
5.78858 120.675 17.5635
10.9606 114.42 18.4392
6.77487 118.954 12.585
-11.6957 139.631 -4.3724
12.5715 111.513 9.68902
-7.56255 134.823 -2.69617
-13.7516 143.964 8.21283
3.42424 122.907 9.28589
7.01105 118.828 12.0206
12.4695 111.574 8.22006
12.1596 111.311 3.29694
0.502259 126.989 12.2095
6.62471 118.915 8.19909
4.65435 122.382 15.8963
-16.2846 146.738 3.77121
0.0868647 126.158 0.492304
-6.21344 133.903 -0.488864
-16.1499 147.39 7.9955
1.6441 125.879 11.9806
-15.505 145.952 3.10682
-15.0437 146.199 8.87873
12.5265 111.919 7.71628
4.44012 122.701 13.4953
8.73452 115.72 0.700578
4.55297 122.563 13.3317
4.65876 122.439 13.2564
7.91691 116.853 1.46046
10.8349 113.338 2.1911
8.53644 116.03 0.885449
3.40811 122.516 1.6858
5.13736 120.319 1.02385
-10.7686 139.301 -4.47278
11.1238 113.119 2.55613
6.2047 119.897 7.42655
-1.26659 129.74 11.7241
-0.253969 128.564 12.2812
4.28806 121.506 0.950671
9.80735 116.179 11.8642
2.84083 123.601 1.85005
8.1792 119.131 17.8336
-15.3186 146.345 3.3762
10.2325 115.775 11.1744
9.80107 116.341 11.3882
9.34561 116.369 7.13985
7.35871 119.118 9.32021
6.22297 120.304 7.35599
4.69098 122.15 6.71151
-10.2111 140.66 6.6998
7.19301 119.799 11.8318
10.1509 115.936 10.2053
10.0306 116.086 10.0215
9.8952 116.205 9.40839
10.2472 116.235 12.693
2.11783 124.972 1.8841
10.489 114.96 4.18816
1.41673 125.886 1.67119
11.2349 115.512 15.0775
5.203 123.115 16.0229
-7.27537 136.101 -2.83794
-6.60416 135.414 -1.74758
-1.28543 129.162 0.689052
11.6179 114.472 10.404
10.9146 116.339 17.8346
-16.1445 148.437 6.42007
4.59215 123.651 13.012
10.0689 115.615 3.32576
9.85223 116.262 5.7725
-2.46665 130.962 0.796981
12.8853 113.49 12.2476
9.02329 117.293 4.30234
12.9722 113.365 11.6039
-1.24284 129.57 0.901983
-0.549253 128.798 0.901346
12.4762 113.818 9.55149
10.1251 116.785 9.7479
12.9416 113.143 8.45646
10.932 114.737 1.61118
8.95112 117.614 4.5979
11.6776 114.741 8.18799
11.7267 114.689 8.20416
-9.27729 140.436 6.1099
11.1829 114.904 4.58599
3.11777 124.575 1.87713
-3.47841 132.773 1.24733
5.83617 123.241 16.4371
1.66648 126.495 1.81593
7.6101 119.067 1.2678
-3.11071 132.326 1.09936
5.24859 121.869 -0.274772
5.0419 122.14 -0.527642
4.11501 123.641 1.20943
10.3748 116.003 2.06967
-11.7838 142.84 -2.57541
-12.5517 145.106 7.39683
-13.7456 145.909 1.9393
-13.184 145.06 0.740142
7.37147 119.629 0.413844
7.60832 120.73 10.8768
1.10127 128.957 11.7775
-15.2543 148.593 6.69438
-6.89271 137.015 -2.782
9.46627 117.161 -0.0950231
-5.21259 135.398 0.342982
7.40258 119.696 -0.41695
4.58218 124.219 7.38659
6.88484 120.532 0.310822
-0.318176 130.95 11.5073
9.70589 119.386 17.3861
6.40639 121.284 0.758874
6.39305 121.303 0.739643
11.7532 116.699 16.0572
9.60191 117.401 1.00504
4.87259 123.114 -0.505364
11.8284 115.13 4.257
6.60258 120.987 -0.648682
5.34107 122.51 -0.948878
0.507773 128.917 1.81581
3.7968 124.835 1.6455
4.97555 125.16 14.5035
4.88259 125.031 12.29
2.79707 126.283 2.15342
-13.6183 146.551 1.5215
-0.974595 132.191 11.0878
-2.32203 133.608 9.11836
6.00423 121.999 -1.43034
-7.99467 140.26 5.46003
9.64435 118.111 2.78836
7.46955 121.875 10.9095
3.22985 125.973 2.04394
9.11482 119.085 4.73298
10.822 118.584 16.5039
3.7893 125.309 1.40305
-12.6144 145.572 0.282293
-14.7175 149.005 6.32956
7.80696 121.621 9.6079
7.74527 121.713 9.28885
9.76754 117.945 -0.374975
-8.0686 140.84 5.5557
-12.7595 145.998 0.365737
-6.2915 138.79 6.19911
-10.0538 143.524 6.26102
2.05832 129.183 11.2339
-2.24345 134.181 8.65098
-7.56438 139.017 -4.7064
11.4389 117.878 12.3511
-2.26154 133.458 1.80377
9.82319 118.632 2.80264
11.7663 117.124 9.556
11.319 118.16 12.8257
11.3917 117.962 12.0015
-4.33488 136.674 6.07705
-1.643 133.781 9.17229
10.6049 118.242 6.27977
-4.02847 135.672 0.971032
9.74105 118.452 -0.34952
10.2841 118.623 5.83683
6.25558 122.709 -1.62965
-1.00122 133.283 9.94144
-3.26895 135.738 7.15789
9.87285 118.859 2.38539
-8.71084 140.955 -4.97384
10.162 120.392 16.2297
-0.88585 133.282 9.98941
-4.26799 136.269 0.691739
7.76102 122.383 8.17946
-5.08362 137.13 -0.7625
-10.2965 144.591 6.46397
1.76074 129.084 2.00639
-9.61595 143.698 5.93816
11.8337 117.618 8.95496
4.37327 125.674 -0.174953
7.07752 123.291 6.7654
8.76527 122.509 16.512
0.954578 131.616 11.1979
3.86265 127.914 9.9637
-13.8714 148.829 1.98625
12.0652 117.716 9.56339
9.45854 120.324 4.15148
11.5252 118.217 7.51488
10.4863 120.522 15.0781
-0.467515 133.455 9.9793
-7.86489 140.71 -4.64132
-13.3546 148.4 0.614193
7.28457 124.861 15.6149
6.27116 123.864 -1.66105
12.0151 118.13 8.67678
7.1439 124.539 11.1566
-13.3054 149.271 6.45191
7.87629 123.602 10.1376
10.4009 120.889 12.6858
10.4106 119.014 -1.48763
-4.48762 138.463 4.96195
-8.13185 141.712 -4.66442
10.0441 119.976 1.09141
5.36812 125.522 -1.18442
6.16275 124.506 -1.53862
10.3344 119.469 -0.846014
0.411013 132.09 1.6666
8.17094 124.367 15.9842
5.12653 127.794 12.612
1.58881 131.951 10.8591
7.40507 125.354 15.2317
10.3907 119.49 -1.2905
5.45207 127.31 11.5964
8.7553 123.598 14.3999
5.15208 127.233 8.07847
6.06789 126.833 13.1803
-9.56389 143.979 -3.65223
-8.18095 143.491 5.61079
8.19258 123.582 8.39878
-12.3042 147.76 -0.980811
6.085 125.877 5.69973
11.0734 119.006 0.195272
8.34848 123.605 9.32048
2.02866 130.532 1.90725
-6.17604 141.242 5.77333
-11.4569 147.961 6.71595
-12.0754 148.798 6.93556
7.88629 122.907 -1.98717
-7.92985 142.173 -4.68566
10.5911 120.153 2.27362
10.8181 120.243 5.05752
9.29521 123.324 14.1259
6.02186 125.325 -1.61468
6.5768 125.665 5.89603
11.3697 119.853 6.0476
11.7303 119.06 3.00958
10.1808 120.62 0.149825
-10.6152 145.989 -2.90415
4.87122 128.397 8.92706
-10.7097 146.203 -2.87884
2.17226 132.029 10.416
0.320625 133.196 1.73486
10.8636 120.657 5.59668
11.1464 119.339 -2.24065
-9.52324 144.722 -3.9006
12.0573 118.787 2.06259
-1.80477 135.943 1.61165
-11.6222 147.674 -1.92389
5.4147 126.657 -1.38348
10.8221 120.616 3.04437
6.67975 126.83 11.2772
11.4985 119.869 3.57162
-13.045 150.234 3.21499
9.52516 122.195 2.43645
3.25718 130.962 9.99113
10.2229 121.268 1.55086
9.94974 121.864 2.38657
-12.2195 149.751 5.61187
9.89854 121.822 1.42049
10.241 121.308 0.709427
-9.1127 144.646 -4.20319
-11.6317 148.081 -1.84866
12.747 118.459 2.21309
10.6729 120.902 1.21947
-9.72364 145.489 -3.96529
-10.1697 146.12 -3.64384
-2.25158 136.964 1.24325
-0.640645 135.889 8.19238
10.3946 121.026 -1.19298
9.49884 122.163 -1.00003
3.12189 130.343 0.643497
9.90163 121.826 -0.56843
-2.50232 138.005 5.59316
-12.0027 148.882 -1.19521
-10.3411 146.528 -3.54943
-2.82203 137.832 0.901603
9.44279 122.69 1.06573
13.0419 118.659 4.20194
-12.2254 150.054 4.7634
3.63316 129.792 -0.00474301
11.6638 121.454 12.185
-0.55964 135.272 2.0185
3.45805 131.355 9.76373
9.36254 122.858 0.139878
6.26985 127.533 6.42075
4.08859 130.661 9.65424
9.82298 122.654 2.67354
12.7245 120.261 11.6053
12.8667 119.643 7.54964
12.0334 120.726 7.08826
0.665241 134.122 1.71684
11.3171 121.193 3.57605
6.01311 128.185 6.66063
-1.11448 136.378 1.6416
11.3594 121.78 7.99731
-4.67705 141.279 5.13587
5.85701 127.425 -1.25434
8.21901 125.567 6.84701
9.32662 125.194 14.1415
9.56087 123.322 2.02998
8.57616 125.433 8.27794
11.5244 122.029 9.54652
-12.1125 150.425 2.87809
-3.84567 140.433 4.6824
11.3513 122.044 7.81946
13.1719 119.95 8.95857
11.3605 121.971 6.83583
8.77438 124.723 3.3681
10.874 122.727 7.70249
11.562 121.582 5.23256
2.93098 132.901 9.98294
-3.61789 139.703 -0.0993798
10.0608 122.703 -0.602599
8.13497 125.83 4.89241
10.9272 122.569 6.38136
10.3001 123.587 8.20013
-8.84834 145.615 -4.6334
8.18041 125.841 5.12965
-0.844122 136.574 1.64626
6.83569 128.311 10.9266
-11.8934 150.438 2.79101
11.237 121.91 3.49138
9.8995 124.144 7.84645
10.5058 123.149 5.88847
10.153 123.499 5.02734
9.86092 124.161 7.20279
11.9835 120.263 -2.55053
-11.6063 150.287 3.50494
9.192 124.991 6.79224
-2.68432 139.351 4.08029
13.3153 119.716 5.06108
9.35415 123.961 0.0141908
8.17167 126.051 4.57495
-5.60066 143.227 5.17871
-1.85118 138.058 1.16111
5.45506 129.869 7.6823
0.294037 136.29 7.81639
5.2934 130.167 8.24327
10.0662 123.047 -1.34306
5.6258 129.695 7.13767
6.08601 129.533 10.0907
6.1255 128.114 -1.10544
9.80912 123.714 -0.542825
8.66332 125.324 0.878175
13.7488 119.794 6.65973
-11.2527 149.675 -2.0887
7.95024 126.973 6.02308
-8.16899 145.522 -4.76821
-10.7027 148.938 -2.81414
13.7572 119.808 5.72989
10.2648 123.27 -0.979796
12.1348 120.749 -2.60607
7.95412 126.897 4.69499
9.39173 124.612 0.663447
9.9805 125.577 13.5045
12.2989 122.317 10.0697
-8.08756 146.927 5.16439
-6.38616 144.918 5.31538
7.33825 128.777 11.0572
14.4039 119.903 9.88946
9.87026 124.209 -0.135602
11.3818 124.101 13.2
3.60838 131.934 -0.500949
2.34449 133.86 1.20438
-10.3262 150.033 4.61631
6.58496 128.313 -1.37186
13.1271 120.005 -2.97623
-3.35346 140.778 -0.356531
4.62743 130.878 -0.542241
13.1659 121.744 10.1514
9.03162 125.883 2.66149
9.87753 124.675 1.3143
10.0985 124.515 2.15711
10.8831 124.639 10.0485
11.2304 124.677 13.1239
13.4222 121.703 11.072
1.68519 135.919 8.42161
2.70366 133.707 1.01087
12.8893 122.344 10.3975
-6.76989 145.991 5.06151
5.62561 129.936 -0.798203
7.99796 127.817 5.10266
13.267 122.01 10.4941
-5.42197 143.385 -3.0494
-0.263512 137.61 1.50697
5.10281 130.804 -0.661541
-1.10797 139.205 4.5598
12.0349 123.763 9.88139
-0.112447 137.725 1.50812
15.1613 119.693 8.06798
8.64963 127.014 1.38964
10.549 124.846 2.70197
-6.63172 145.201 -4.32545
10.5712 125.83 10.1903
15.5865 119.719 10.2295
-4.77003 143.355 -2.27462
11.7853 122.963 -1.51286
8.10254 128.093 2.73408
6.2754 129.831 -1.40554
9.97721 125.516 0.516448
-1.80655 140.158 0.629053
10.2928 125.048 -0.46595
-6.02931 146.035 5.01552
8.22635 127.452 -2.31836
-10.3962 150.652 -1.94374
-9.64051 150.39 3.06285
8.84132 128.059 6.89622
10.5012 126.761 12.313
-4.13684 143.897 4.67275
5.98561 131.662 6.85163
16.5005 119.101 10.2445
-9.57109 150.471 3.05427
-9.86581 150.728 1.88405
8.29556 129.272 9.69029
10.2627 126.842 9.21955
15.5635 120.508 10.8628
8.24215 128.868 5.40901
13.0382 123.723 10.3494
-10.1009 151.049 0.145726
-9.70748 150.792 1.7598
8.32627 129.522 9.62593
9.04752 128.363 7.37402
10.4574 125.538 -1.18515
9.20343 128.276 7.69469
13.674 123.303 11.9431
12.8472 124.143 10.5114
11.8741 123.873 -1.05621
10.1654 126.353 1.18626
12.7408 124.427 10.7053
-7.73576 147.861 -4.15137
-3.63422 143.286 -1.23599
11.2931 126.392 9.65643
10.3815 126.533 1.72919
-9.69637 151.015 -1.2327
-0.762386 140.267 0.834982
10.1126 127.886 8.89238
11.4583 126.589 11.6894
0.976758 138.685 4.82164
12.5738 123.548 -1.20193
-8.3725 150.386 5.3856
-7.06345 148.755 4.94541
12.4518 123.821 -1.09912
5.59817 132.396 -0.954253
12.0276 125.277 5.22188
8.47916 130.258 9.31955
-3.8253 144.073 -1.56594
8.64952 129.599 5.80496
7.38687 131.876 10.8349
2.80585 136.216 0.500846
2.51888 137.443 7.10719
16.9479 120.053 10.534
-9.06936 151.07 1.34523
11.7814 125.961 6.56364
11.2078 127.118 9.18204
1.39766 138.253 1.06991
11.5617 126.419 6.74362
8.85906 129.046 1.13212
10.7162 127.632 7.77747
-3.56227 144.117 -1.36538
17.5891 119.686 10.5585
-8.82101 151.357 1.98058
13.5036 124.779 9.73039
14.3232 122.34 -1.21296
11.236 127.12 5.53724
-8.97729 151.076 -2.63831
9.73109 128.649 2.36751
5.50057 134.444 6.58924
8.10397 131.792 10.7184
10.816 127.001 -0.393374
17.195 120.573 10.4096
3.15134 137.593 7.34928
4.9217 134.22 -1.66037
-8.23518 150.333 -3.27424
11.8277 126.037 0.551568
13.5377 125.194 9.91972
10.6473 127.502 0.217516
5.11193 134.125 -1.72619
10.215 129.153 8.43522
-8.6461 151.567 1.23525
14.2481 124.532 11.1645
10.8686 127.573 2.39601
5.84958 133.29 -1.48282
9.32713 128.846 -2.93561
9.05559 130.375 6.07135
14.3424 122.974 -0.976495
7.97391 132.417 10.5877
9.32732 130.839 10.7421
9.32204 129.595 0.643925
3.18799 137.189 -0.00676695
-3.82632 145.631 -1.88695
-8.53601 151.81 0.108379
-2.58619 144.348 -0.724535
12.2263 126.198 0.637291
3.48309 137.915 7.37527
0.856422 140.331 0.831583
10.5359 129.083 6.21422
9.76291 128.877 -2.72114
7.62137 133.216 9.94746
-8.30327 151.959 2.51428
16.3839 121.312 0.757573
-0.479196 142.252 0.655024
-4.46556 146.777 -2.60946
-0.67639 142.522 0.551363
-1.60793 144.171 4.28767
-5.81129 148.391 -3.7983
8.12547 132.238 4.42742
-8.20082 152.086 1.54996
9.37683 131.483 10.2773
13.0546 125.665 0.0596801
2.62129 138.651 0.448946
9.0742 131.705 8.31933
11.7509 128.792 11.3429
5.99896 135.213 5.97776
2.88706 139.195 6.7944
17.2482 120.557 0.104825
12.2797 128.151 11.0128
2.50425 139.626 6.19859
14.1994 125.657 10.103
-0.559626 143.179 3.89039
13.6418 125.109 0.0243015
9.04446 131.182 2.63474
5.60318 135.978 6.30995
9.83632 129.939 0.0470536
3.88859 137.218 -0.808972
7.63393 133.332 4.90484
15.2832 123.437 1.27746
3.46538 137.881 -0.303165
-7.63413 151.29 -3.10551
-4.40707 147.412 -2.62814
10.954 129.375 4.24895
15.1832 125.082 11.3428
1.71661 140.904 4.6418
13.8513 126.792 10.9942
11.9312 129.146 10.7443
10.2813 129.801 0.046235
10.7571 130.659 10.9663
9.19129 131.517 2.59594
-0.616732 143.424 0.386454
7.33705 133.318 -1.91785
5.73874 136.381 6.25208
11.9777 129.236 10.5279
4.57237 138.182 7.67898
12.1385 129.122 9.9206
12.2305 128.977 9.63423
15.4108 124.031 1.75111
2.9321 139.308 -0.0419134
11.2295 129.687 4.40834
10.588 129.761 -1.55942
0.673394 142.327 0.591156
18.5292 120.219 0.411077
7.30768 134.852 5.66684
18.6418 121.363 9.56728
11.3615 129.97 5.08446
0.908553 142.327 0.555228
9.79767 131.622 2.74874
11.9957 128.812 1.97345
-1.8463 145.637 -0.656663
7.82449 133.458 -2.37945
-6.56558 151.275 -3.41386
10.5226 131.06 3.55227
9.45641 132.686 5.8258
10.748 130.327 -0.465635
-7.51071 153.248 1.83625
-5.63936 150.288 -3.3486
17.8537 123.051 10.3727
18.2547 122.622 9.99398
13.9657 127.995 10.2006
7.48254 134.379 -2.39656
9.65108 132.88 6.41858
13.2776 127.9 1.98959
18.0505 121.83 0.484653
11.1887 130.837 4.12276
12.1075 129.917 5.08966
16.7804 125.096 11.3522
17.4146 122.979 0.929079
4.31316 138.853 -1.88719
5.05953 137.845 -2.65406
2.30559 142.106 3.71398
12.4558 130.338 9.59036
19.7775 120.143 0.999012
16.7511 125.295 11.4714
2.78505 141.599 3.76168
5.73581 138.247 5.8972
5.3324 138.988 7.72294
2.26552 141.83 0.338077
0.349282 144.24 0.360302
17.8198 122.662 0.730876
12.817 129.201 2.98222
19.7339 120.563 1.05742
15.2998 127.532 11.5897
12.9072 129.234 1.98563
17.13 124.08 1.61711
9.90624 132.441 -3.36017
4.01192 140.004 -1.44716
-1.39671 146.822 -0.717838
8.27483 135.938 7.47585
0.615181 144.611 0.307055
2.91499 142.403 5.12983
7.56353 135.679 -2.87058
14.8376 128.519 9.48884
19.3564 121.845 1.0495
13.28 130.413 8.95542
8.26897 135.019 -3.2463
20.3129 120.785 1.62869
17.2075 126.012 11.7502
16.3354 125.876 2.4411
19.9574 121.228 1.19681
20.2828 121.07 3.00684
19.2938 123.368 10.9993
10.777 132.594 0.698921
8.03693 135.486 -3.19312
8.64988 136.238 7.01931
-1.30231 147.527 -0.864264
-2.64987 149.056 -2.02648
2.57257 142.862 -0.0934135
9.10205 136.053 9.24425
0.182035 145.957 -0.068216
20.4619 121.118 1.47342
21.7639 120.695 10.2695
15.3922 127.54 2.13258
20.0898 121.661 1.27901
10.872 133.127 0.672079
10.0115 134.952 6.37625
8.50809 137.076 8.33271
20.0714 121.949 1.298
18.7495 123.56 1.06531
-5.73051 153.595 -1.47873
11.7933 131.912 -1.60874
17.3671 125.546 2.46503
3.62711 142.972 5.31005
13.6202 131.174 9.64676
4.49358 142.038 6.22633
-3.53976 150.878 -2.41829
17.6549 125.351 2.26157
3.54639 143.258 5.18301
11.774 132.533 0.786163
11.8989 132.411 0.817786
7.69835 137.078 -3.39373
6.42408 139.785 5.05685
-1.42896 148.756 -1.27133
0.542173 146.527 -0.0546482
8.05467 136.827 -3.60004
-3.41995 151.207 -2.40557
3.29091 143.397 -0.821211
15.3408 129.946 10.0026
9.11797 137.27 6.80728
13.7591 130.654 0.201278
5.80319 141.161 5.06124
-1.61911 149.518 -1.5792
-1.08503 148.921 -1.09905
6.27696 139.618 -2.97327
15.4704 128.844 1.37307
11.6899 134.662 9.93891
22.9427 120.841 10.1869
12.3701 132.382 -1.69765
15.9531 129.605 10.76
9.85139 136.602 5.82732
4.87766 142.874 6.41396
4.08289 143.735 5.02801
15.1667 130.791 10.2901
5.15944 142.764 6.67824
20.3978 124.553 11.1375
22.9404 121.265 9.5423
12.7367 132.52 -0.992293
16.1439 130.035 11.209
4.97444 142.189 -2.01023
15.7032 130.593 10.7018
12.0623 133.794 0.178278
-2.86497 151.972 -2.30395
10.0133 135.861 -3.96131
9.81512 136.108 -4.00935
18.6079 126.048 2.26475
-0.809292 149.664 -1.09623
8.59568 137.73 -4.02395
12.5552 133.516 0.42754
10.5049 135.551 -3.69969
9.77901 137.579 3.99227
21.735 123.481 9.28082
12.4034 133.98 0.148136
15.601 130.177 1.21924
9.75368 138.434 8.70384
6.38936 142.222 4.44642
21.6089 124.033 9.14452
-1.07542 150.783 -1.4623
17.5523 128.215 2.19019
12.2457 134.549 0.253443
5.0252 144.074 4.49666
-4.07266 154.56 -1.7001
2.63666 146.449 -0.581362
17.2756 129.883 10.9494
10.6128 137.397 5.14161
12.6297 134.27 0.0728549
22.5849 123.126 8.19388
3.71974 145.265 -1.16912
21.3366 124.834 9.15915
2.51233 146.874 -0.527306
13.1023 133.928 -0.0423191
13.3049 133.662 -0.198188
13.0911 134.116 0.807792
24.3286 121.025 6.80947
8.21859 140.775 4.33717
5.24705 143.608 -2.16636
12.1593 135.532 0.54824
12.1358 135.26 -1.75775
12.5538 135.199 1.36103
24.1757 121.63 7.23346
17.6007 130.269 10.5077
14.1354 134.466 9.56075
21.7228 124.351 2.68827
20.1469 126.561 2.20837
10.2551 139.369 6.2001
24.0154 122.156 4.79457
5.53826 145.136 5.32191
4.46547 145.552 -1.68431
18.2978 128.961 2.35574
18.6895 128.532 2.57526
9.99517 139.428 3.41507
20.1737 127.671 9.13204
-2.00987 153.684 -2.03517
-1.97737 153.684 -2.03846
20.1551 127.038 2.5762
-1.49051 153.241 -2.13716
10.546 139.188 4.0286
19.6467 128.738 10.247
21.5826 126.051 7.57999
10.9708 139.323 8.43167
24.1489 122.77 6.22918
14.4944 133.871 -1.00572
8.14372 142.395 3.75055
22.0988 125.128 3.53798
5.21302 145.462 -2.18258
17.5001 131.847 9.81019
23.7227 123.794 7.0576
23.6218 123.621 4.61446
21.8505 125.697 2.597
10.4863 140.424 7.14106
6.14981 145.497 4.62004
10.5041 140.469 7.16128
12.4458 138.371 8.81269
17.8624 131.815 9.74522
13.3413 136.213 0.557201
22.2628 125.588 3.71224
11.0948 138.599 -3.00076
19.0833 130.419 9.65384
10.6673 140.54 6.75494
10.283 140.683 3.3486
10.8648 140.171 4.41217
11.9821 138.428 1.53332
22.7473 125.835 6.51597
5.79849 146.649 4.88463
3.56806 148.857 -1.14182
12.436 138.55 1.59585
10.7422 141.071 4.27358
10.6793 141.094 3.83045
4.99333 147.384 -2.10797
12.36 138.559 -0.703804
14.5945 137.044 8.73954
10.5206 141.431 3.13895
4.1518 148.769 -1.49554
11.0539 140.061 -2.9378
18.8353 132.088 9.36353
6.60174 145.631 -3.16428
9.86865 142.484 3.19615
22.6888 126.643 3.24321
21.3783 128.761 6.86785
4.79365 148.192 -1.94038
19.1632 131.108 3.05583
13.6006 138.864 8.79754
11.8943 139.958 -0.525926
2.07551 152.15 -0.873655
10.3309 142.537 3.08534
12.0174 141.123 7.95129
21.2813 129.677 6.57895
10.7611 142.344 3.64306
13.3188 139.988 8.55421
6.47909 147.893 3.86085
21.1152 129.736 3.03122
17.3207 134.09 0.0910668
22.9396 127.563 3.02317
7.07574 147.217 3.07666
16.41 136.385 8.40011
23.3109 127.439 3.2856
23.4771 127.285 3.65438
21.9617 129.081 2.79799
4.9693 149.548 -1.89366
12.4259 140.727 1.15979
20.9061 130.97 6.72099
8.42938 146.046 2.78774
11.3706 142.925 6.70998
18.5514 134.413 8.89754
9.98587 143.465 -3.24836
8.31177 146.347 2.79008
7.93852 145.968 -3.62393
11.0445 142.254 -2.74151
22.6747 129.048 3.32704
12.0773 141.581 -1.40584
3.31996 152.6 -0.846324
22.1242 130.107 5.14128
1.80974 154.416 -1.62052
6.79609 148.103 -2.8666
6.93398 148.893 3.8963
17.0425 137.006 8.08741
21.1665 131.341 3.64588
7.68257 147.924 2.53366
18.8257 135.07 8.60103
20.0456 133.037 3.04033
13.0742 142.486 7.33575
20.5999 133.218 7.02985
8.20031 147.287 -3.56183
14.7465 139.789 0.927087
20.7235 132.756 3.5633
12.4414 142.483 -0.77979
3.72966 153.259 -0.927749
5.66412 150.728 -2.07825
7.58784 148.36 -3.15788
12.6859 143.459 6.60958
17.3063 137.895 7.78646
16.6666 137.771 0.327493
11.1316 144.301 -2.9727
12.2062 144.262 6.15774
17.1564 138.429 7.70146
17.7183 136.912 0.5536
7.69723 148.856 -3.1608
4.89454 152.569 -1.4329
10.978 144.954 -2.42035
4.31354 153.593 -0.97667
7.43095 150.378 3.53152
14.5885 142.115 7.85937
20.397 134.308 3.18904
14.1857 142.578 7.57344
8.20316 148.573 -3.38322
19.612 135.981 7.8491
11.1506 145.257 -1.75886
4.10004 154.104 -1.07504
9.74772 146.898 -2.96481
22.0333 132.652 4.04071
7.27885 150.058 -2.89209
20.2587 134.815 2.87912
21.9476 133.462 6.23823
18.7429 136.819 0.898545
17.7168 138.972 7.52347
22.6069 132.683 4.24219
19.5469 136.984 7.66306
14.7303 142.952 7.48102
20.1346 135.793 2.87594
8.36373 150.262 2.02612
7.86174 151.085 3.17654
21.9039 134.117 6.20005
11.4713 146.274 -1.26325
22.2372 133.861 5.66701
22.0308 133.991 4.44351
20.0118 136.294 2.44451
15.6217 142.493 7.75611
13.6272 144.206 1.99166
8.90502 149.51 -2.58691
21.4842 135.001 4.31648
9.64142 148.884 -2.36214
20.8975 135.873 4.47427
8.47228 150.438 -2.22173
18.8979 138.821 7.37442
19.8651 136.995 2.01652
15.8808 141.881 0.621917
11.9214 147.347 4.83195
8.00075 151.296 -2.36288
16.3255 141.435 0.581877
20.1895 137.08 2.48088
12.8841 145.915 0.085901
12.8806 146.671 5.78384
13.3007 145.522 0.900422
5.23127 155.259 -1.17223
21.7561 135.638 5.08262
20.6514 136.977 4.37706
14.7988 144.001 2.01988
15.7871 142.702 1.03804
10.7265 149.181 1.96547
8.39894 151.777 -1.72466
10.3866 149.488 -1.06514
16.5471 143.333 7.30315
10.7322 149.651 -0.276982
20.1299 138.952 6.63011
19.8652 138.706 2.19599
12.9537 147.166 0.355987
11.8865 148.44 -0.377767
6.41994 155.275 0.0852581
21.4062 137.521 5.76242
9.2487 152.209 1.33201
20.542 138.581 3.01037
11.2973 149.958 0.706704
21.1693 138.43 4.98902
21.0697 138.54 4.55379
7.8482 154.581 1.99747
17.1369 143.047 1.42476
8.29788 153.758 -0.624941
11.334 150.492 2.44494
18.1462 142.721 6.67993
21.0366 139.038 5.59664
13.0022 148.677 1.45871
20.3875 139.744 2.8594
12.624 149.285 1.57722
9.34572 153.315 1.26078
10.9282 151.342 0.272679
14.4552 147.932 5.42411
12.7163 149.941 3.64531
10.8367 152.235 1.86227
14.2507 148.403 4.84421
10.0646 153.109 1.11322
16.5821 145.666 5.58192
13.4628 149.474 3.85534
10.8357 152.467 1.68652
17.7824 144.454 5.97258
18.8316 143.176 5.40205
19.0444 142.475 1.87246
12.9824 150.174 1.49751
11.9592 151.476 1.66379
13.0046 150.873 3.07485
12.214 151.65 1.19463
11.1238 152.995 0.774652
19.2975 143.094 2.32023
19.3148 143.376 4.50216
12.0486 152.132 1.03573
13.8392 150.082 1.84768
18.56 144.286 1.69202
20.8599 141.763 4.11554
16.4457 147.627 2.90723
16.8462 147.102 2.37527
14.9898 149.514 3.07057
16.7607 147.317 2.84984
16.8164 147.4 3.32408
19.6865 143.788 2.83814
17.4034 146.559 2.2717
14.4383 150.411 1.88012
