ply
format ascii 1.0
comment Created by Open3D
element vertex 1948
property double x
property double y
property double z
end_header
-5.12683 121.185 -12.3866
10.9671 107.326 -4.03
-14.1094 140.962 4.60344
12.3645 110.37 4.55464
-3.91127 131.088 8.06303
-14.0345 140.861 4.7123
10.0524 106.482 -6.8674
-13.8447 140.63 4.9198
-4.87661 120.231 -12.9252
-1.29512 115.625 -13.6881
-11.3825 130.993 -7.01751
12.7982 108.711 2.98243
-20.8663 144.479 -2.42752
-5.68613 121.684 -11.7624
-10.2235 129.849 -6.55347
2.20498 110.662 -15.128
11.6501 111.521 5.78262
-8.81735 128.24 -6.39836
-0.402563 114.264 -13.942
4.09495 109.191 -13.7106
-13.7984 140.264 4.89051
-7.51723 126.243 -7.01897
-16.8931 138.032 -5.21736
10.0965 106.465 -5.99721
-8.77042 127.967 -6.41003
6.59576 118.765 8.73153
12.394 108.29 2.03258
5.29461 119.45 7.42142
11.2237 111.863 6.15937
-18.2153 139.865 -4.37883
12.015 107.336 -0.241617
10.0335 104.721 -8.85402
-22.656 146.314 -1.91716
-18.1963 139.561 -4.70793
-22.2738 145.721 -2.10521
-13.2686 139.012 4.55539
-13.2678 131.937 -7.9536
-13.6995 132.178 -8.37844
4.43339 119.175 5.6575
-11.5784 130.49 -6.98499
4.14026 119.094 5.04193
-13.5176 131.998 -8.13955
9.96985 104.495 -8.8117
2.18967 120.423 3.56741
-1.01522 124.678 4.64793
2.56328 119.98 3.66197
5.38256 119.041 7.77673
-0.891346 124.19 4.08063
5.12897 119.022 7.23767
4.94537 107.713 -13.1342
-15.9012 135.573 -6.33426
-14.3546 132.29 -8.96513
-2.39329 127.683 7.41067
-3.09563 128.638 7.77361
9.90441 104.256 -8.86716
-1.42626 125.613 5.9396
5.37433 107.062 -13.0408
-22.7515 148.771 3.46884
3.04961 109.023 -14.2575
6.46702 118.019 8.80973
4.08455 108.152 -13.5803
-21.4206 147.765 4.65386
-13.996 131.759 -8.40568
-6.68835 122.057 -10.6162
-21.3817 143.392 -2.75572
-11.1974 129.296 -6.79506
-17.0571 136.905 -5.24699
-9.18412 134.807 7.21115
-0.93983 123.494 4.03886
9.0542 103.346 -10.9735
11.5459 109.78 5.62567
9.29502 103.377 -10.2756
0.576736 121.07 3.38572
4.05591 118.069 5.21917
-18.4295 139.14 -3.39104
-0.130116 111.585 -14.8499
-15.3389 132.083 -9.38828
-18.735 139.138 -3.77281
10.8276 106.072 -1.95504
11.3728 106.167 -0.588188
9.92996 104.253 -6.86161
-24.3122 148.888 2.30162
-12.8652 137.551 5.62566
-4.24592 129.125 8.33834
6.58816 104.573 -12.9431
-24.5626 148.626 1.59583
10.6654 110.674 6.34793
7.04535 116.366 9.17258
-2.18006 113.773 -14.2823
11.9415 106.773 2.19917
-12.9364 137.396 5.71038
3.40396 117.844 4.49262
12.0454 106.78 2.6
3.42386 107.333 -14.0252
-0.357777 121.66 3.67934
1.46476 119.471 3.56501
-16.0451 140.233 4.59352
-19.0115 138.919 -3.76032
-15.9584 140.214 4.84653
-19.7342 140.315 -2.70298
-2.00763 113.249 -14.4152
-15.1972 139.127 4.59819
-22.9206 147.614 3.90732
-8.61396 124.77 -7.29523
-3.13927 126.979 7.86347
5.07591 105.395 -13.6276
6.20627 116.754 8.86208
-24.607 146.689 -0.992412
-15.0991 131.193 -9.01299
2.63618 107.441 -14.8649
-21.2986 145.948 4.53743
9.01603 112.905 7.94279
9.27713 112.299 7.64707
-17.9175 141.656 4.21419
-14.7597 138.14 4.51029
-20.8716 145.283 4.74771
-7.69173 122.22 -9.19137
-4.43339 115.486 -14.3915
-3.4059 126.875 8.02678
-8.42905 123.901 -7.5047
-2.79542 113.356 -14.6111
-8.13029 123 -8.25193
9.94898 103.782 -5.26595
-14.3152 130.234 -7.97212
0.450013 119.672 3.52446
-19.1799 143.117 4.96692
-1.68321 111.656 -14.9364
2.21901 106.882 -15.3476
8.93535 101.792 -10.634
9.64678 103.22 -6.63055
-19.2691 138.13 -3.82663
11.6763 105.512 1.7078
-2.6067 125.021 7.25989
5.09867 104.378 -13.6156
-21.4252 140.55 -3.58697
-18.5831 136.924 -4.15731
-24.8962 145.965 -0.989732
11.9747 105.791 3.20415
9.67202 102.928 -6.31801
-25.4454 147.132 0.377783
-16.9263 133.253 -6.75073
-2.58356 124.499 7.14136
-24.8032 145.373 -1.2326
-22.5217 141.96 -2.60099
-19.0608 137.243 -3.84871
-12.7852 135.676 6.31617
-7.89464 131.229 8.44224
11.8203 104.559 1.47817
10.8803 102.939 -3.1953
-15.5939 138.044 4.96095
9.62272 102.437 -6.51754
-16.4411 138.793 4.72973
4.26284 104.35 -13.9271
-11.7057 126.117 -7.83151
-2.99396 124.675 7.47208
-6.63874 117.082 -13.4453
-17.0759 131.47 -9.21873
-25.7858 147.688 1.75863
-12.1997 126.602 -7.84347
4.92218 115.666 7.95651
3.6282 104.54 -14.4234
-16.4565 130.743 -8.98047
-9.36417 132.155 8.04884
-2.44584 122.91 5.84752
-2.25286 122.238 5.04878
11.4129 106.549 5.2542
-2.3221 122.338 5.20522
-16.556 138.707 5.15491
-22.5664 144.97 4.06323
-7.31752 117.828 -12.8393
-14.918 129.212 -8.16678
-13.4354 135.585 6.19982
-5.20756 114.348 -14.6502
-10.7263 133.307 7.78153
-18.2224 134.22 -5.91865
-15.676 137.565 5.29142
-8.64296 121.433 -8.86183
5.20775 115.18 8.49317
3.8325 115.35 5.99818
-17.3945 131.64 -8.50815
-5.57743 114.613 -14.4965
0.994048 117.323 3.78491
-2.28751 121.782 5.00432
-26.1353 147.288 1.63262
-23.2062 141.514 -2.60929
-17.3903 139.116 5.26618
-19.5231 136.471 -3.7229
9.24268 101.004 -7.80619
-26.226 146.708 0.743785
-20.8555 137.93 -3.83457
2.32592 104.569 -15.5542
10.8864 101.568 -3.29787
11.9609 102.433 0.460727
5.40027 114.736 8.87841
-13.5864 135.284 6.51895
4.52221 102.705 -14.191
5.95499 101.643 -13.0097
1.7313 116.22 4.26567
-8.27459 119.393 -10.5826
1.54053 116.369 4.17318
-10.2668 132.08 7.90206
-18.6228 133.599 -6.49801
-19.0178 134.684 -5.36819
10.8321 106.47 5.69274
9.05213 99.7833 -9.82335
-8.24104 119.071 -10.9474
11.1279 101.278 -2.74979
-1.46959 108.141 -16.3265
-2.96105 122.874 6.88628
11.4532 101.296 -1.88352
11.8575 102.314 0.823559
-20.9603 142.438 4.90145
-13.0935 126.31 -7.58641
10.3623 101.156 -4.22105
-17.4745 138.606 5.28977
-10.6171 132.131 7.83866
-6.1939 127.715 9.06637
-4.94103 126.187 8.95519
-21.4143 137.642 -4.2541
-2.62722 121.269 5.14921
11.9014 103.997 4.30234
-17.8541 131.984 -6.90552
-17.101 130.363 -8.22022
-15.9411 136.723 5.514
9.63305 100.513 -6.41578
1.89815 115.536 4.50343
-1.04938 118.408 3.7195
8.69744 109.459 7.80752
-12.9073 125.694 -7.54215
-13.7634 126.676 -7.53925
1.01887 116.152 4.05965
9.48641 99.3948 -8.32658
-23.8875 140.905 -2.90045
10.9975 100.615 -2.83929
-14.8158 135.881 6.95544
4.63453 113.87 7.83063
9.73823 99.3465 -7.50861
-19.6394 140.345 5.16787
11.3025 104.547 4.96282
11.5589 104.04 4.6173
-2.91192 121.229 5.67148
-17.5121 130.347 -7.95264
-22.5444 137.972 -4.70663
-1.83953 107.429 -16.5468
9.93759 99.6805 -6.1602
-21.0117 136.248 -4.57529
-8.56118 118.019 -11.4525
-16.5226 129.17 -7.94489
7.60453 111.024 9.32002
-24.5913 141.462 -2.48411
5.9375 100.571 -12.5847
0.652199 115.984 4.00582
10.1075 100.238 -4.58572
-2.85802 120.809 5.42046
11.4181 103.905 4.72127
-10.2296 121.779 -7.79508
-2.64977 119.933 4.71125
-9.97329 121.105 -8.125
-27.0004 144.711 -0.87296
2.46895 102.324 -15.7127
10.8251 99.7432 -2.94203
-22.9293 137.484 -4.96622
-18.5544 130.838 -7.78413
11.1944 99.7153 -2.13224
-8.16994 115.693 -13.4019
-23.3889 137.976 -4.94976
4.14516 113.024 7.18036
-22.412 136.81 -4.93675
9.57007 97.7949 -8.73539
-1.18069 117.247 3.82612
-3.18233 120.815 6.08001
-27.4359 145.381 0.0851832
10.2783 99.1264 -4.78297
10.2844 98.971 -5.00796
-26.5989 145.735 2.62903
-24.2845 139.087 -4.4264
-8.63249 116.4 -12.6621
-20.3992 134.763 -4.12805
-5.70729 125.345 9.29949
11.9801 99.7536 0.106762
11.3882 101.484 2.13845
-19.9899 134.65 -3.19458
-22.9492 137.036 -4.77829
10.894 103.601 5.20527
-16.8432 128.282 -7.65119
11.3741 102.002 3.61396
-4.8813 123.68 8.85744
-3.34105 107.652 -16.4412
-25.2526 140.54 -2.85883
11.7149 100.151 1.11182
-8.85976 116.104 -12.5253
-19.9849 134.316 -2.94424
-9.67646 128.852 8.62525
-20.4895 133.979 -4.15086
1.88753 113.289 5.04838
1.84283 113.256 5.03404
-27.8131 144.306 -0.534479
8.13056 107.944 8.5185
-27.1037 145.09 2.39267
-15.4291 134.344 7.36601
-14.4565 124.873 -7.39735
-13.7765 124.028 -7.48883
10.1041 96.7611 -6.99093
-11.5256 130.488 8.6581
-8.53572 114.501 -13.5756
-1.89315 116.696 3.93903
9.84977 96.5552 -7.7379
2.02749 112.853 5.21422
-4.26764 121.741 8.14561
2.87123 112.334 6.07671
10.4593 96.671 -6.10809
8.57725 96.5712 -10.0286
-25.2529 143.442 4.01256
-20.6138 138.666 5.10637
-26.808 144.676 3.11259
-18.1898 128.464 -7.86975
-3.92847 107.297 -16.2272
-9.45923 116.372 -11.3116
-26.8476 141.459 -2.17132
-0.380255 102.586 -17.0036
10.8426 96.4363 -4.9453
-13.9381 123.518 -7.54739
-21.6572 134.086 -4.5233
-20.4561 133.672 -2.79642
-21.4127 133.648 -4.78812
-17.6026 127.699 -7.54236
-4.26447 107.459 -16.1461
-1.26678 103.466 -16.9939
11.6763 99.108 1.7681
-11.387 129.681 8.86046
-22.4961 140.208 4.9168
6.10538 97.6106 -12.1423
-5.54758 108.974 -15.8029
-21.939 134.137 -4.61132
-9.75874 116.654 -10.6894
7.39591 108.223 9.48641
-21.0289 133.968 -2.97761
-5.8275 123.423 9.43349
-21.3679 133.129 -5.03304
5.26385 110.576 9.57882
-18.7508 128.979 -6.8913
-3.22387 117.564 4.64009
-13.2035 122.016 -7.85191
-18.7206 128.207 -8.09814
-22.032 133.69 -5.04056
-14.2453 123.247 -7.64254
10.9947 101.359 5.21652
-19.0164 136.12 5.5187
-22.758 134.769 -4.44818
-11.0111 128.65 8.87257
-3.87 118.745 5.96364
11.9429 97.3523 0.389885
10.2326 95.4379 -6.47511
-19.6583 129.326 -7.4517
-11.402 119.148 -8.61305
10.9955 100.424 4.13093
-15.8468 124.797 -7.49274
-28.2813 142.702 -1.11396
-27.0841 140.441 -2.6553
-13.6614 122.011 -7.89792
-9.95616 115.866 -11.043
-17.0145 125.944 -7.57098
-16.3797 133.511 7.20039
-28.6372 143.265 -0.572993
-21.2514 133.238 -3.22089
-22.9968 134.159 -5.07202
-28.1738 144.183 2.14927
-4.0315 106.068 -16.0991
-17.248 126.047 -7.68119
-20.2267 130.042 -6.66477
-13.9177 131.674 9.19554
1.34914 111.833 5.23564
-28.4905 142.798 -0.784638
-13.1887 120.648 -8.58958
-25.1232 141.167 3.4256
-26.2747 142.405 3.30129
-25.9412 137.97 -3.78939
-16.3921 124.701 -7.68823
3.20469 98.1072 -14.7738
10.8319 99.5681 3.43873
4.4869 97.2541 -13.6326
-1.21503 113.733 4.13898
-3.63885 116.845 4.74967
-26.4933 142.207 3.05022
3.82141 110.134 8.17084
2.8225 98.2165 -15.0308
5.70566 108.932 9.98331
-19.7074 127.895 -8.21689
6.85409 95.3951 -11.5375
11.4543 97.9372 2.42841
-26.4596 141.875 2.87391
-9.35124 112.588 -14.0562
-4.25242 118.096 6.18439
5.04117 109.303 9.59994
11.7221 95.3213 -1.46323
-15.7444 123.327 -7.85532
11.1587 94.7205 -3.37652
-25.7355 140.788 3.02669
-11.3963 127.833 9.40146
-24.5516 139.534 3.31925
-4.7059 119.128 7.73466
11.8713 95.9335 0.488712
-23.0911 138.563 4.61724
-14.5069 131.34 9.37724
-13.8636 130.747 9.65712
-28.6879 143.511 2.0495
8.67032 93.9653 -9.41899
-29.0218 143.59 1.72306
11.6853 94.8388 -1.49338
-3.44436 115.544 4.3511
-0.844771 112.54 4.47218
-15.2552 121.942 -8.22909
3.28865 109.547 7.7828
-11.3024 116.375 -9.96578
-25.0519 134.997 -5.00962
0.777279 111 5.26165
-2.02902 113.449 4.06923
-7.14706 108.284 -15.5683
-0.130607 111.671 4.83626
-24.0968 138.528 3.64915
-15.5591 131.481 8.61526
5.30609 95.2907 -12.9201
-23.6621 132.795 -5.5262
-21.7024 131.282 -4.14944
-26.9417 138.196 -2.56445
2.39032 97.2988 -15.0951
-24.9567 134.269 -5.40525
-3.17495 102.977 -16.3262
-4.7751 118.114 7.36956
-20.8019 128.647 -6.73625
8.64489 93.4132 -8.99306
-18.8823 125.395 -8.51892
-0.250608 111.446 4.87347
-5.42163 105.708 -15.8768
-12.0061 116.801 -9.65492
0.188962 111.017 5.07277
-20.9562 128.809 -6.62415
-19.6518 134.226 5.71547
5.36975 107.696 9.84598
-0.916287 111.959 4.60844
5.01952 108.042 9.86238
0.208484 98.5398 -16.8433
-22.9007 137.074 4.29406
-21.7464 130.939 -4.1908
-18.9603 133.752 6.66632
-25.6961 135.384 -4.16772
7.13107 93.7084 -10.9118
-28.8401 142.552 2.39332
-4.78546 117.132 6.50812
-19.635 125.864 -8.35507
-27.1436 137.906 -2.33725
-16.3383 121.809 -8.7782
-8.34229 123.389 10.4614
-5.03129 118.017 7.71785
-23.7888 132.509 -4.90303
5.6525 106.95 10.074
-22.1272 131.859 -2.55182
-15.2246 120.099 -9.27486
4.45105 94.9911 -13.5717
-13.383 128.857 10.0773
-20.7906 134.345 4.78488
1.10132 97.3215 -16.1161
11.7586 94.5465 0.844349
-29.2384 141.149 -0.256274
9.62523 100.103 6.64627
3.77031 108.171 9.01692
-13.189 117.204 -9.63063
-30.1516 142.651 0.886513
-15.938 120.439 -9.34745
-4.96173 116.706 6.50621
-2.5551 112.589 4.17182
-21.1644 134.171 4.45667
8.29317 102.38 8.32647
-0.62601 110.716 4.98715
-29.2394 140.471 -0.652687
7.85023 92.2536 -10.197
-22.0444 129.369 -5.38211
-26.3328 135.206 -3.73606
-10.0168 110.076 -14.9211
9.69254 92.4303 -5.90128
-29.8979 142.348 1.71693
-1.17223 110.945 4.82004
10.0518 92.3191 -5.26291
-11.5213 113.794 -11.2768
-20.4504 125.82 -8.18029
1.81153 108.424 6.5535
-8.79551 122.86 10.5152
-22.1529 129.409 -5.20321
-4.42887 114.637 4.89805
11.74 93.3223 0.171029
-16.8051 131.089 8.84831
-2.35183 99.6237 -17.359
-22.7399 131.207 -2.86416
9.85153 98.9042 6.5713
4.98653 106.493 10.154
-25.2886 137.739 3.67177
-1.17174 98.0491 -17.389
-25.6908 138.054 3.46364
-7.66157 121.164 10.3953
-7.81316 106.49 -15.9477
-12.2903 126.218 9.97087
-22.2811 128.922 -5.65759
-28.9906 139.077 -1.32776
10.5677 96.9474 4.90824
-29.4393 139.728 -0.973562
-25.8726 132.958 -5.69304
-5.82 104.197 -15.707
-24.1436 131.824 -4.14387
-2.92547 99.9936 -17.128
8.67353 100.774 8.02144
-23.1931 131.176 -3.10809
-21.8586 127.782 -6.36784
-22.2544 134.322 4.48328
-15.7345 118.884 -9.5518
10.0075 91.6621 -5.12767
-7.909 106.228 -15.9111
-21.8646 127.034 -7.5243
-24.4391 136.532 4.22257
-20.3951 124.837 -8.17436
11.6769 92.4167 0.0159046
-3.26018 111.926 4.18025
10.1991 91.3456 -4.74818
3.48811 106.623 8.69078
6.17153 91.9789 -11.8173
8.46473 91.1994 -8.49743
-14.1926 116.318 -10.2632
10.4715 96.423 4.92797
-25.4076 131.827 -5.65299
-8.17374 106.135 -15.8975
-26.9012 133.812 -5.08506
-2.34068 98.5453 -17.4163
-19.2361 132.156 7.7163
9.74615 98.1777 6.75558
-0.115901 96.238 -16.7641
7.96972 90.9432 -9.59961
-16.4989 119.093 -9.65964
-28.3916 136.792 -2.57914
1.54832 94.9625 -15.4938
-5.94767 103.529 -15.6276
-1.50308 97.3517 -17.4825
11.2967 94.0422 2.8906
11.5501 92.8721 1.34735
8.74888 91.2432 -7.23522
-5.77528 103.265 -15.6082
-27.3724 138.278 2.38532
0.906041 95.2828 -16.0146
4.92477 105.405 10.206
5.57482 104.524 9.98314
10.5501 90.8776 -4.00028
6.56109 91.248 -11.4731
5.81264 104.054 9.76497
-22.3077 126.828 -7.12376
-27.3252 134.122 -4.35493
10.2859 95.974 4.98972
-19.9223 132.227 7.59808
-22.5319 128.973 -3.49297
6.70894 102.494 9.36035
-5.01981 101.78 -15.8293
10.4168 90.5162 -4.17347
-4.8755 101.493 -15.9738
9.1339 98.2955 7.11102
4.8546 91.9444 -12.7874
-10.2364 107.948 -15.257
8.43587 90.3588 -8.16863
0.909129 94.6577 -15.8696
-0.912283 96.0285 -17.1497
-27.2616 132.907 -5.50158
-18.9412 130.993 8.20995
-6.79922 103.552 -15.6442
-12.9242 113.12 -11.1719
-14.6428 127.301 10.5047
4.37259 92.0459 -13.1125
11.4646 91.9781 1.34098
-8.68078 120.536 10.8544
4.44492 104.857 9.91116
-13.0851 125.316 10.4029
-23.5701 134.218 4.78945
-31.5967 141.017 0.587126
-18.051 119.418 -9.99632
-27.3607 137.53 3.11706
11.3088 90.5444 -1.07391
-29.0678 138.656 1.75752
-14.8585 115.061 -10.9563
-10.9739 108.186 -15.1969
-2.83537 109.948 4.7141
-7.81899 118.912 10.4306
-12.0887 123.783 10.3761
10.3077 94.7078 4.7701
-1.42599 95.7265 -17.3966
-22.8545 127.694 -4.38401
-21.4483 123.786 -8.42182
11.2907 92.0908 2.52373
-27.1959 137.092 3.66906
-24.3654 134.29 4.51142
-9.69472 121.094 11.133
-22.7754 127.746 -3.75654
2.45966 105.433 8.28862
-27.6403 137.205 3.14839
-24.6188 134.411 4.39865
-19.2216 130.68 8.85951
-9.6368 120.888 11.206
-16.31 116.311 -10.5778
-8.5516 104.448 -15.7348
-1.90231 95.7001 -17.5083
-26.0605 130.388 -5.34812
8.24414 89.1318 -8.24153
-27.749 137.061 3.17543
-11.9923 108.944 -14.4891
-28.4526 133.965 -3.74769
-15.6725 115.049 -11.1542
-14.9412 126.51 10.7001
-25.3361 134.989 4.48055
-22.3264 125.591 -5.96753
-16.213 127.683 10.3501
1.86683 105.441 7.88375
-20.7708 130.856 6.73934
11.1764 88.7369 -2.62065
-4.53223 98.7212 -16.9914
10.9506 92.3298 3.38042
4.65986 103.513 10.4327
-5.50785 112.258 5.17256
-17.6256 129.031 10.181
11.1649 90.5736 0.841003
-15.8067 114.84 -11.251
8.50732 89.175 -6.95741
-24.7371 128.687 -4.84862
-19.5129 130.52 9.19345
-16.5618 115.826 -10.7413
3.52547 91.0406 -13.6171
-15.4173 114.136 -11.3823
8.76597 89.1188 -6.29004
-23.2471 127.23 -3.98326
-22.9515 124.967 -7.37435
3.46679 90.9236 -13.6484
-22.9441 125.937 -5.4617
-24.1242 132.624 4.02549
-22.7249 127.068 -2.97306
-13.8046 124.498 10.8215
-17.1529 128.034 10.2895
10.0062 93.7833 5.16805
-19.9788 130.512 9.03215
-23.6663 127.03 -4.57399
6.44804 100.049 9.1933
9.06262 95.2365 6.05109
-12.7594 109.405 -13.4517
8.8229 88.652 -6.10481
7.93107 97.279 7.46766
9.95439 93.6832 5.22999
-28.1709 131.97 -4.83249
-23.0313 126.789 -3.4939
-5.1469 110.714 4.80667
-14.9051 125.371 10.9624
-0.0302035 92.8278 -16.2565
-5.95684 99.8038 -15.954
-6.19037 112.551 6.26611
-14.5484 111.977 -11.8613
7.59072 87.9964 -9.11459
8.92676 95.0621 6.26264
8.43513 96.2071 7.30911
-0.733381 93.2233 -16.7241
-18.7489 117.358 -10.7347
-23.29 124.947 -6.5137
-8.3225 117.312 10.6363
6.16837 99.839 9.34525
11.0364 88.705 -0.450742
-13.0182 108.861 -13.8391
10.4084 91.9608 4.13068
6.37288 99.3072 9.01985
-21.8681 121.808 -8.78212
-17.1341 115.033 -11.0379
-3.93547 95.96 -17.8731
-20.2996 130.079 9.26485
-5.71308 110.791 4.99535
-21.5291 129.726 6.26198
-30.5276 137.385 1.46935
-11.0124 120.476 11.4086
-5.71566 98.5399 -16.5258
2.22408 104.063 9.69875
-31.2715 137.941 1.31848
-14.7412 124.431 11.1894
-23.737 130.842 4.1842
11.1536 88.1031 -0.233596
1.25816 90.9569 -15.3971
-14.7083 111.289 -11.9821
-31.3121 136.346 -1.45923
-29.6241 132.616 -4.40517
-23.6672 126.629 -2.79844
-2.80206 94.1641 -17.7076
-24.8549 132.049 4.42453
-4.74184 96.4813 -17.5525
3.03339 89.5606 -13.8296
-13.2661 107.863 -14.674
-24.6661 131.389 3.78117
-22.8652 130.121 5.28701
5.14134 87.7909 -12.4857
-8.38344 101.801 -15.2464
1.7786 90.2803 -14.839
-6.67344 112.057 6.61851
-3.73757 94.7965 -17.9353
0.246977 104.431 7.33109
-18.6768 115.919 -10.9175
-4.56146 95.7407 -17.7569
10.6115 86.5535 -2.98661
11.2142 86.9049 -1.12548
10.3142 90.6809 3.75232
-23.995 130.533 4.32754
-23.4076 124.611 -4.96352
-21.6633 120.017 -9.47177
-14.9102 110.658 -12.2074
-5.32142 109.121 4.80077
-20.7091 118.338 -10.2819
-4.81501 108.432 4.67748
-23.7259 124.526 -5.45609
3.14049 102.198 9.90675
-13.6868 107.793 -14.5534
-30.1759 132.532 -4.27577
-5.15533 108.743 4.76458
-24.1084 126.224 -2.97602
-23.1119 129.873 5.54922
1.9567 103.322 9.77964
-10.4434 103.556 -15.1903
-23.9343 130.258 4.61445
-19.0579 115.814 -11.0239
-32.1576 137.89 1.47623
-30.4948 133.082 -3.64272
-20.984 118.359 -10.2722
-5.09591 95.8995 -17.5582
11.0613 86.3154 -1.44542
11.2283 86.5204 -0.72213
-23.6289 124.922 -3.85568
1.12505 103.723 9.25172
-24.6536 125.82 -4.28632
3.66363 101.012 9.70531
-7.02094 111.67 6.9027
-4.11725 107.261 5.02698
-8.98143 116.082 10.9084
-0.487893 104.153 7.12777
-25.0906 130.472 3.55285
-24.4681 125.951 -3.18524
-18.6486 126.874 10.4201
-27.7511 129.026 -4.22811
-24.5953 125.818 -3.41664
-15.0062 109.745 -12.2768
-27.7278 134.16 5.10198
4.29601 87.0942 -12.8868
7.54592 86.2397 -7.73517
-9.86911 117.059 11.3901
-22.7548 120.158 -9.48502
-24.1903 122.176 -8.8229
-24.9944 125.387 -4.74261
-5.83325 108.722 4.96152
-24.6959 125.607 -3.66166
-22.0244 118.933 -9.96853
2.44984 88.3854 -14.0689
-1.15928 104.272 6.7806
-27.2939 133.339 4.93334
-25.1957 125.734 -4.27066
-21.1608 117.524 -10.5227
9.87831 89.8721 3.99606
-13.3036 106.275 -14.3317
-5.08289 107.557 4.78688
3.0248 87.8031 -13.5967
1.40692 88.9009 -14.9209
-24.7121 125.892 -2.7122
-25.523 126.085 -4.0256
-7.0566 98.0787 -15.9421
-25.3129 125.644 -4.35819
-3.99592 93.3455 -18.0199
-4.94802 94.5333 -17.8413
9.28401 85.4227 -4.81216
-0.597457 90.2557 -16.444
-7.85333 113.482 9.96759
-24.2867 125.281 -2.71012
-4.17312 93.3786 -18.0695
-29.3982 130.377 -3.95821
-15.9111 123.509 11.4757
-28.1783 133.971 5.00701
-2.1942 104.669 6.18016
-15.048 108.233 -13.7983
-24.36 125.136 -2.8401
-4.82711 106.943 4.86713
-25.6364 125.396 -4.94998
-27.9046 128.305 -4.20916
-9.35474 101.005 -14.6968
-7.767 98.6932 -15.3723
-24.0218 129.358 5.91368
-20.2595 115.399 -11.1525
-21.5485 128.544 9.65251
-21.4288 116.983 -10.617
6.24659 85.2905 -10.1924
-6.24168 95.7765 -17.1239
-23.3491 128.967 6.80526
-12.1373 118.882 11.8643
1.64504 88.0193 -14.6344
-19.7405 126.829 10.5057
-24.9849 125.524 -2.44917
-28.2339 133.509 5.22766
11.2153 84.667 -0.670669
11.1753 85.2477 0.295915
10.6916 86.6164 1.93159
10.3204 84.4694 -2.63404
7.26016 84.6035 -8.60981
-25.6567 125.685 -2.96445
-28.4643 133.402 5.04622
-26.756 130.659 3.74228
-23.3349 119.14 -9.62475
-24.9406 122.713 -6.55687
-10.3257 101.333 -14.5816
-3.29897 91.3601 -17.8921
-7.90511 97.9926 -15.5349
-27.5319 127.102 -4.02655
-0.618201 102.819 7.96954
5.32527 84.9493 -11.5712
5.99692 95.4604 8.53112
-25.1562 125.463 -1.97187
-18.2898 112.239 -11.3811
-2.45914 103.956 6.34578
-24.9403 123.039 -5.77666
-26.1634 125.958 -3.09177
-2.45833 90.5029 -17.4923
-17.3754 111.059 -11.5163
7.83922 84.2964 -7.30413
-27.0599 129.801 2.07286
-1.47834 103.149 7.21643
4.9991 96.6007 8.90915
10.6686 84.0358 -1.66298
-27.0935 129.574 1.96431
7.60573 92.441 7.07862
9.35795 88.8446 4.28704
-30.99 134.471 2.71688
-25.5938 125.241 -2.60737
-6.20281 107.175 5.10689
-25.9003 124.849 -3.78524
-12.2149 103.093 -14.3684
-26.6856 125.508 -4.17561
-29.6743 129.149 -3.78394
-20.512 114.353 -11.1893
-1.0869 102.601 7.74465
-25.4259 122.913 -6.01758
-10.9045 116.148 11.7317
-25.3858 123.026 -5.69569
11.1284 83.8376 -0.465563
-5.52067 93.0186 -18.1131
4.07667 84.7825 -13.0726
-0.552604 88.3596 -16.1816
-17.8762 110.86 -11.5677
1.07883 87.087 -14.9587
-25.4324 123.685 -4.13606
-6.45471 107.045 5.17961
-6.67653 107.336 5.28209
-29.6992 132.936 3.63273
-12.6363 103.197 -14.1633
-19.0251 112.219 -11.1013
-9.30816 98.9941 -14.6599
2.58605 99.0659 9.82411
-0.264992 87.8419 -15.9135
-20.4623 113.803 -11.1488
-8.66288 97.8811 -15.2236
-12.8214 117.945 11.8929
-8.86488 112.531 10.5228
9.46334 83.4233 -3.63765
10.0987 86.441 3.09966
-7.39657 95.4976 -16.595
5.98795 83.6886 -10.087
-27.2265 126.697 -1.66247
-6.8249 94.506 -17.0482
-29.8271 132.676 3.63978
-24.891 128.604 6.55118
3.95839 96.7523 9.14175
6.46517 93.1717 7.94057
-7.92795 108.994 6.60442
4.71365 83.8465 -12.136
-21.1308 126.415 10.5464
-28.2558 130.957 4.11314
-25.9243 122.478 -6.154
-2.49136 102.772 6.83229
11.1012 83.5954 0.628687
-16.1021 121.207 11.7486
6.97107 92.0981 7.3021
-27.492 128.737 1.8619
-26.5292 128.304 3.13208
-29.6305 130.997 1.62469
8.48422 83.0597 -5.45974
-26.785 126.219 -0.969925
-3.9221 103.783 6.11706
-17.3332 108.38 -13.0119
-6.23296 105.792 5.20938
-16.8852 107.625 -13.3218
-26.6411 127.687 2.60929
-24.5129 127.866 7.39435
-26.0025 127.918 4.50584
-27.8126 128.935 2.61868
-6.7107 93.2469 -17.5458
-1.26158 101.758 8.78442
1.41306 99.359 10.0049
-27.0543 125.21 -2.28035
-4.14644 89.8405 -18.179
-12.4033 101.591 -14.2098
-27.4872 127.138 0.27738
-18.7133 110.074 -11.9863
-27.419 127.999 2.08654
10.3826 82.2252 -1.76966
-30.078 130.283 0.740032
0.241183 100.727 10.348
-28.0019 128.569 2.01888
-3.58816 89.1465 -17.9533
6.65397 82.5652 -8.6443
-34.2079 133.222 -2.30534
-21.6107 113.906 -10.8061
-29.9939 130.478 1.45623
10.5237 83.9884 1.94118
-14.0181 103.606 -13.4553
9.16115 81.908 -4.51788
-27.4479 125.634 -1.81401
10.244 81.8743 -2.23442
8.47343 81.7881 -5.98296
-27.8218 125.917 -1.8817
-27.3377 127.102 1.21713
11.0138 82.6707 0.854719
-18.499 109.156 -12.4943
-27.3798 127.478 1.88594
10.5335 81.7654 -1.65498
-16.7679 106.745 -13.1831
-28.2057 127.283 -0.0796736
8.71524 81.6332 -5.54274
4.20804 94.6765 8.422
7.13224 81.9839 -8.05972
-30.1203 130.31 1.51034
-8.34233 109.088 8.53958
-27.5817 125.386 -1.90031
-28.0519 126.996 -0.00073641
-4.16945 89.2092 -18.1625
-27.4652 125.84 -0.72436
-27.4722 125.938 -0.527356
-34.6816 133.829 -1.26682
-30.2865 131.712 3.99399
-21.2173 112.985 -10.6897
10.9327 81.3516 -0.975898
-30.2752 130.056 1.14265
10.9415 81.3449 -0.959864
-13.1398 116.351 11.9031
9.74402 85.0343 3.28441
5.79311 82.2102 -9.69423
-7.70754 106.458 5.85168
0.0269949 85.5217 -15.433
-30.2422 130.203 2.06561
10.6997 82.7599 1.69801
-6.06968 90.8213 -18.3165
-20.5072 111.83 -10.5403
-20.1743 111.068 -11.2113
-8.44452 107.545 6.56034
-28.0264 126.629 0.468685
8.52556 80.6942 -6.24608
-29.8238 126.491 -3.37876
-6.74288 104.916 5.58584
-8.18393 94.0219 -16.6063
-28.0273 126.714 0.824182
0.359515 99.2909 10.298
2.79586 95.5937 8.75321
-25.4351 118.36 -8.607
-14.2561 102.724 -13.4097
-35.4923 134.945 0.339858
-28.1601 127.249 1.69445
-33.356 134.052 3.20561
-35.0902 133.391 -1.4839
-9.12776 95.4184 -15.7057
-18.4294 121.514 11.6273
-6.98558 91.4713 -18.1374
-31.3907 131.765 3.49439
-28.1022 126.703 1.26436
3.10168 94.8521 8.61982
-32.1946 128.863 -3.21401
-26.664 121.299 -5.23674
8.69183 86.3509 5.12132
-20.7183 111.367 -10.5973
-2.38869 86.6773 -16.9017
-26.9448 122.898 -2.8599
-23.4353 125.44 9.27779
-5.37622 102.636 5.83537
0.798191 98.0397 10.3225
9.36174 79.5363 -4.98773
-32.8763 129.259 -3.16438
-7.59837 105.2 5.87513
7.33445 88.3474 6.54568
-34.2224 131.141 -2.53469
-16.4644 104.949 -12.6536
-24.6664 125.916 7.86368
-31.3788 130.814 2.83972
10.9841 80.0315 -0.404664
-28.2607 125.31 -0.209941
-14.7126 116.38 11.6999
-34.2394 131.112 -2.10198
3.21735 81.6992 -13.1415
-8.85191 107.657 8.34482
-12.1108 98.9664 -13.7244
-25.237 116.717 -9.02417
-26.8302 125.624 3.63472
-30.0364 128.487 2.17614
-12.5635 99.5029 -13.4818
-31.5462 130.196 2.24421
-8.53963 105.841 6.14461
-3.75774 100.903 7.23213
-30.2598 127.362 0.102707
-10.3182 110.544 11.1404
-16.8695 104.777 -12.4469
-17.4378 105.429 -12.3981
-25.6682 125.72 6.78147
10.7171 78.7828 -1.95983
-33.714 129.827 -2.15791
-9.01606 107.42 8.62906
1.20379 82.3442 -14.9683
9.68762 82.8506 3.30116
5.9485 80.1047 -9.20438
-7.58177 90.6216 -18.1762
-5.35542 87.892 -18.4119
-2.92323 100.364 8.74451
-13.4354 99.981 -13.4511
-18.475 106.559 -12.0809
-10.2473 110.091 11.0965
-8.48151 105.238 6.1802
-32.1429 130.2 2.12497
-31.4461 127.596 -1.0677
-3.97779 100.629 7.34273
-27.9421 124.789 1.2417
9.10938 78.5315 -4.9944
-31.3891 127.285 -1.27341
7.07828 79.2925 -7.69391
-3.26805 100.261 8.38205
-1.95122 99.6736 10.1055
4.59269 80.5371 -10.459
3.30258 92.6509 8.44927
-33.9181 130.194 -0.996693
-27.7039 123.644 0.113658
5.25004 80.0113 -9.72253
-31.6478 128.73 1.25218
-3.08648 85.3623 -17.2316
7.64923 85.675 5.43079
-13.2192 113.521 12.1893
-9.31502 107.282 9.11698
-26.5196 117.731 -7.53815
-28.0291 122.534 -2.08442
-9.64915 108.336 10.3402
-21.1879 121.923 10.9515
-15.1163 115.432 11.8613
-14.6949 114.976 12.0008
7.45667 85.8155 5.62755
2.67964 93.0615 8.73759
-18.6184 105.974 -11.8933
-12.3086 112.101 11.9231
-29.8793 124.967 -1.18666
10.813 77.7039 -1.74601
-9.42408 107.257 9.30926
-32.0558 126.783 -2.25481
-35.0733 133.133 2.86387
10.3088 77.4259 -3.09926
-23.3197 112.095 -10.3703
-13.4666 99.0521 -13.2753
-24.3574 124.305 9.34666
2.23953 93.3838 8.98854
-20.0054 120.488 11.5932
-33.0916 130.338 2.37967
-7.46146 89.0174 -18.442
-15.1228 100.835 -13.1078
-15.325 115.145 11.927
9.56965 81.4483 3.12275
4.80074 79.6106 -9.89317
7.70649 84.3994 4.67608
-7.92192 103.327 6.31915
-28.7764 123.285 -0.934388
-11.5286 110.402 11.5204
3.87478 79.8196 -11.2296
-33.3082 130.363 2.41827
-36.5758 133.343 1.08209
-33.5423 130.022 1.45119
-13.1109 112.496 12.163
-33.1494 127.878 -1.53723
-32.5666 126.799 -2.23957
-19.7536 119.882 11.7821
-28.4115 122.459 -1.35827
-27.43 124.051 3.48512
-5.61467 86.5843 -18.252
-32.3202 126.107 -2.65973
-27.8944 123.48 1.77986
-28.1878 123.006 0.343246
-19.5987 119.543 11.8075
-29.4505 123.104 -2.03285
8.94901 81.828 3.3891
-25.9159 115.245 -8.64942
8.53161 82.4225 3.68076
-6.46765 87.2049 -18.4233
-11.9357 110.395 11.5888
-29.924 123.286 -2.33805
-3.65777 84.3914 -17.6114
-2.29309 82.9572 -17.2141
-9.94377 107.266 10.3095
-5.78786 100.333 6.53208
-34.0779 129.397 0.30115
-6.7844 87.3633 -18.4336
4.84065 88.5197 7.5406
-31.9943 125.248 -2.63711
-36.6928 132.112 0.0157325
6.55657 85.6256 6.02901
-26.3401 123.732 6.39181
4.06818 89.5119 7.89002
1.94385 92.4782 8.95496
-22.8296 110.29 -10.0688
-21.3524 107.773 -11.4885
3.29862 90.4253 8.19477
-3.91343 84.035 -17.8293
5.25716 78.3844 -8.99747
-10.1328 107.048 10.4106
-35.4753 132.028 2.88893
-13.114 111.34 12.0144
-33.3652 126.758 -2.05012
-10.6021 107.766 10.8385
-35.6843 132.149 2.79583
-36.7932 131.976 0.221037
-4.39214 84.2916 -18.0997
-28.2727 122.54 0.925504
-12.6088 95.7938 -14.4977
-1.05553 81.2854 -16.5976
-25.035 123.46 9.23357
-28.7127 122.595 0.169818
9.03519 76.1919 -4.92813
-30.4814 123.178 -2.36815
8.43956 81.5282 3.4074
-27.8408 122.767 2.43829
-18.0693 103.008 -12.5876
9.22757 80.1634 2.82959
-35.9262 132.147 2.70018
-16.0926 114.519 12.0448
-21.4037 120.22 11.4114
-14.4904 112.739 12.3172
8.61494 76.0301 -5.39494
-5.65468 85.2313 -18.2393
9.92413 77.7222 0.34703
6.28535 84.997 5.84255
-23.44 122.147 10.9546
2.19682 78.9805 -13.118
-34.4432 127.81 -1.41016
-34.0053 127.932 -0.260871
-34.892 130.169 1.97367
-9.7504 89.9283 -17.8546
-24.5453 122.632 10.0062
-34.5488 128.256 -0.266163
-16.5208 114.395 12.0329
0.154316 93.8601 9.71738
-1.59932 80.8897 -16.8818
-34.779 128.572 -0.137054
-26.316 122.047 5.66894
9.43232 78.6992 1.94248
-9.60665 89.3978 -18.0322
0.359339 79.6514 -14.9232
5.91888 77.2312 -7.75948
-20.9239 106.025 -11.5561
-26.6249 121.768 4.74754
6.29865 83.9938 5.24454
-1.49699 95.8266 10.2976
-25.1298 112.368 -8.68666
-32.5219 124.459 -2.32217
-3.11937 81.9197 -17.4845
-27.9321 121.517 2.04748
-34.9066 128.065 -0.568163
-20.774 118.715 11.8454
-5.60715 98.8367 7.63053
-27.8032 121.18 1.90799
-9.53244 102.962 7.14099
-0.768066 79.7723 -16.0646
-25.1284 121.067 7.48114
-18.6848 115.947 11.5897
-25.4898 119.818 4.55597
-1.21947 79.9024 -16.5529
-3.69778 97.9715 10.5598
9.45169 77.1158 0.465849
-26.7031 120.635 3.76588
-35.2687 128.044 -0.551064
6.25421 83.2054 4.87498
7.47325 75.0937 -6.98316
-27.0153 114.447 -7.53455
-26.551 119.469 2.38849
-11.0462 106.341 10.963
-25.6057 118.887 3.44121
-11.9112 107.515 11.4744
0.350797 91.783 8.64706
-20.9181 104.633 -12.0675
7.98114 79.8672 3.14695
1.13718 78.219 -13.7713
0.173164 91.8763 8.64783
-2.87149 96.5531 10.7472
-1.76749 79.6737 -16.952
-26.4417 118.878 2.15144
-35.7222 128.49 0.221688
-37.3595 130.69 0.810919
-12.886 108.565 11.6327
1.82561 77.7317 -12.8839
-13.0364 93.7046 -14.8713
-19.671 116.255 11.6426
6.586 74.9097 -7.96841
8.57185 73.9445 -5.60145
-33.0901 123.944 -2.06401
-26.8847 118.706 1.55192
7.61363 79.888 3.26374
-2.03657 79.538 -17.1022
-2.95326 80.4436 -17.349
-14.8013 95.9668 -13.9305
-13.7888 109.313 11.8442
-37.2633 130.034 0.599878
-25.4205 119.854 6.79324
-8.19438 99.6861 6.25901
-12.569 107.785 11.7342
-7.90333 85.3846 -18.4079
-17.0649 112.969 11.8398
-17.3511 99.5801 -12.5158
-14.2046 109.689 11.9055
-35.6758 126.903 -1.44395
-22.1734 105.731 -11.318
-10.5978 88.623 -17.9647
9.67065 73.8866 -2.56377
2.40107 87.8108 7.29457
8.93669 75.6126 -0.97375
0.43375 90.4338 8.01906
-9.58639 87.0467 -18.4949
-11.423 105.7 10.8901
-26.7985 112.989 -7.6379
-25.1207 120.781 9.6481
-17.389 99.1668 -12.4641
-22.8949 118.838 11.2214
-25.6005 120.698 9.05084
-3.74164 96.3992 10.7526
-0.306898 90.8873 8.07244
-27.7454 118.245 0.528764
-28.7425 118.359 -1.30723
-38.1254 130.65 1.35578
-25.3884 120.48 9.43047
-22.5439 118.144 11.3253
-38.2696 131.15 2.23866
-18.0324 99.572 -12.3752
6.99974 79.3595 2.99616
7.0376 78.5592 1.7716
-7.43156 83.6259 -18.85
-37.5063 130.085 2.10239
-11.97 106.134 11.8616
0.142033 77.4263 -14.3134
-36.6717 127.743 -0.292914
1.32141 76.7603 -12.9893
-5.42926 97.1926 9.56595
-12.0669 106.121 11.9526
-26.2332 117.237 2.72645
-4.85524 96.8783 10.5151
-29.0266 117.466 -2.39421
-19.8009 101.029 -12.6094
-16.5564 111.239 12.2126
-14.8669 109.264 12.1977
5.1165 74.474 -8.64642
7.37037 77.3629 1.24843
-38.6292 130.926 2.20114
-28.6483 117.613 -0.848191
-28.07 113.947 -6.15659
-37.6421 129.114 1.21332
-26.8542 117.087 2.00259
-16.4661 96.5314 -13.2021
0.181773 76.7431 -14.2347
-28.4922 117.447 -0.527837
-1.54842 91.2564 8.19399
-38.6715 130.172 1.30917
-28.6072 115.432 -4.11053
-9.1974 84.7761 -18.7328
-1.73938 91.3092 8.20958
-6.98813 82.2021 -18.6809
-21.7437 116.494 12.0133
-28.7583 117.058 -1.32878
-16.6523 96.382 -13.192
-14.497 92.8133 -15.0715
-15.0621 93.7169 -14.4987
-3.03705 93.2171 9.24292
7.94744 75.071 -0.468153
-25.9237 118.36 7.08439
-7.84498 97.5277 7.18241
-37.6911 127.774 -0.174409
-28.6599 115.32 -3.666
-6.61545 81.5062 -18.5601
3.64588 83.7137 6.39673
-13.9744 91.3023 -16.0898
-20.1939 114.057 11.6921
-22.3697 103.489 -11.501
-0.315449 88.6456 7.29532
-15.3564 93.7372 -14.4237
-12.0929 103.285 9.3016
2.24046 85.26 6.71358
-2.16629 77.1485 -16.5744
0.708502 75.5108 -13.5952
-9.19812 98.111 6.57791
-27.7194 112.019 -6.63151
6.16309 76.966 0.533256
-24.1688 105.5 -10.8652
5.87237 78.2244 2.25827
5.91434 77.6471 1.38585
-26.235 115.993 3.69241
-5.74518 96.1902 10.5123
1.37203 74.8373 -12.8091
5.56233 79.0551 3.26054
-19.0417 98.7742 -12.0714
-12.2552 102.917 9.19074
-8.08629 97.0435 7.35667
-28.5659 115.636 -1.44186
-27.4483 111.289 -6.84243
-20.3675 113.616 11.7979
-6.23695 96.2394 9.92339
0.655692 75.0146 -13.6274
3.59667 82.594 5.90365
-13.9559 90.2959 -16.344
0.416599 86.7712 6.84974
-19.9697 113.031 11.7888
-28.069 112.428 -5.78828
-7.70164 81.5441 -18.9176
-25.7482 117.983 8.89648
-22.7764 116.172 11.8223
6.41408 76.1472 0.619753
-27.0868 114.688 0.515964
-28.3924 115.219 -1.19251
6.33876 76.1793 0.668521
-13.6205 89.4015 -16.6484
-12.7787 87.9593 -17.3879
-6.83935 96.113 9.44056
-10.257 98.3799 6.57137
-22.8664 102.896 -11.0631
4.39585 80.0174 4.23184
0.868439 85.333 6.53346
-25.6612 118.018 10.3102
-18.1608 96.4823 -12.5606
-12.2037 100.736 7.21097
-28.5922 112.934 -4.65912
-25.8027 117.78 9.66345
-26.1312 117.323 8.19276
-27.6821 113.657 -1.47021
-13.2674 104.078 11.0434
-23.3215 115.983 11.7626
-4.20806 77.1196 -18.1019
-23.9728 116.461 11.4426
-0.610506 86.9231 6.82963
-26.6669 109.09 -7.15393
5.12519 77.3724 1.64642
-4.23824 92.4884 9.36875
-26.8208 113.762 0.911011
-17.4946 109.256 12.0369
-8.38348 96.3048 7.73662
-25.9842 117.423 9.31053
2.52615 82.7088 6.27177
-27.0206 113.247 0.0288844
-12.9188 101.61 8.27024
-17.5025 109.021 12.0516
-27.326 112.698 -1.53046
4.76923 77.9912 2.63756
-13.4862 103.814 11.1681
3.54622 80.8685 5.29841
-12.4136 100.31 7.21054
-28.0276 112.891 -2.36448
-11.1087 98.4712 6.78652
-6.25352 78.3323 -19.0059
-26.6395 114.504 3.62706
-13.3483 102.951 10.3486
-16.5675 107.625 12.4678
-14.2892 105.313 13.0275
-27.2471 112.763 -0.265678
-17.3686 108.368 12.1673
-13.7516 103.841 11.8836
-18.9202 96.0565 -12.4958
-12.6649 99.9306 7.27548
-12.341 99.3846 7.0656
-2.83533 88.6194 7.42578
-13.1993 100.899 8.08705
-26.0317 116.876 10.1963
1.81439 82.4523 6.21853
-0.797076 85.6416 6.54372
4.39491 76.6887 1.32669
-13.5401 86.9399 -17.1808
-28.3917 111.195 -4.45249
-22.0355 113.209 12.145
-12.9805 100.233 7.66344
-15.3027 89.439 -16.1581
-27.9892 109.657 -6.21096
-5.3449 76.5963 -18.4689
-25.277 116.15 11.0333
-10.9202 97.1667 6.78532
-19.8699 96.891 -12.0197
-22.441 99.7751 -11.7862
-19.0755 95.0934 -12.9699
0.946331 82.6675 6.06686
-13.6884 100.977 8.64383
-9.04878 95.3157 8.09096
-7.58628 94.6185 10.1868
-21.4707 98.2495 -11.7411
-14.733 87.7156 -16.5882
-19.3579 95.1314 -12.8637
-26.8419 115.57 8.29352
-17.9912 92.5683 -14.3707
-27.0994 114.999 6.91719
-12.7163 84.3063 -18.0975
-3.71494 88.168 7.33485
-0.58939 83.8513 6.20949
-18.5628 93.1998 -13.9666
-0.743541 84.0396 6.27197
-3.32172 87.4712 7.1246
-12.0896 97.4629 7.00563
-14.4115 86.6948 -16.7785
2.82868 78.0475 3.54939
-27.9029 109.867 -2.8475
-18.5287 107.684 12.4861
-18.0638 91.8368 -14.6361
-25.195 114.524 11.3458
-20.0001 94.9287 -12.8017
-17.84 106.726 12.6661
-19.5042 108.308 12.0892
-14.3161 85.875 -16.9748
-4.57061 88.2554 7.21385
-24.4529 113.686 11.9798
-19.9644 108.535 12.0637
-21.8851 97.2941 -11.7664
-26.725 114.746 9.43649
-17.0088 105.439 13.2618
-19.3256 107.599 12.479
-25.6217 102.437 -9.56924
-7.08615 92.1932 10.2183
-13.099 97.2759 7.18516
-26.9798 114.097 8.64652
-20.6261 94.5773 -12.829
-18.5194 91.0439 -14.7476
-28.7303 108.281 -4.9396
-10.9093 79.7321 -19.05
1.92505 77.6919 3.6501
-17.0542 105.101 13.4746
-3.53702 85.6135 6.60102
-15.4453 86.3091 -16.4185
-26.3329 102.915 -9.14736
-23.9404 98.9999 -11.177
-10.7716 79.1626 -18.9801
-28.8063 107.906 -4.80959
1.95084 76.4405 2.54866
-21.698 109.213 12.3303
-28.8474 107.788 -4.78619
1.39068 77.6827 3.85555
-2.61793 83.5828 6.14719
1.56378 77.0468 3.2617
-28.5648 108.042 -3.22727
-28.4526 108.958 -1.35603
-24.288 98.6747 -11.0863
-18.5974 105.778 13.369
-23.1416 110.405 12.3049
-17.1436 104.342 13.824
-24.9529 99.8152 -10.1241
-9.1067 76.8488 -18.3344
-13.3532 96.0461 7.28364
-13.387 95.9544 7.29815
0.716317 77.935 4.32466
-27.2646 111.711 7.04688
-15.4089 100.73 11.8547
-13.7416 82.0428 -17.8927
-21.2679 93.2995 -13.2965
-16.6406 86.5287 -15.8136
-16.316 102.837 13.8656
-29.1078 106.452 -5.50672
-26.7125 112.174 9.57369
0.0891129 78.7349 5.13475
-28.2575 104.191 -7.59943
-12.9923 95.0016 7.3448
-20.6831 91.808 -14.047
-26.8857 111.188 7.82679
-22.2227 94.2602 -12.5845
-6.43995 86.7766 6.50023
-20.4238 91.259 -14.1596
-28.9241 108.852 -0.296753
-21.604 92.9861 -13.3564
-21.0228 106.925 12.6726
-0.185972 78.4749 5.01476
-27.7466 110.203 4.93373
-3.30092 82.2529 5.50428
-0.698146 79.2057 5.60703
-26.6982 111.84 10.3348
-25.8653 99.5041 -9.84949
-28.9445 106.699 -3.29228
-18.57 104.378 13.8967
-4.38387 83.4614 6.12263
-28.7009 104.106 -6.98387
-22.0074 92.8492 -13.2321
-27.7257 109.584 4.78471
-15.939 100.752 13.2566
-28.3 103.185 -7.66767
-15.2521 96.9669 8.11698
-10.8383 92.9048 9.95212
-15.4819 98.4705 10.4077
-14.9945 96.4912 7.92454
-11.5436 93.6071 9.88505
-25.9906 111.044 11.3617
-28.427 103.246 -7.41589
-27.9291 108.946 3.82146
-24.453 109.644 12.399
-1.35768 79.2776 5.78606
-22.9844 93.6577 -12.5866
-3.1642 80.8556 5.32555
-13.3187 94.2208 8.35911
-26.3946 110.787 11.0214
-3.08194 80.7007 5.36127
-11.2471 92.5134 9.71272
-15.6397 97.1172 8.90274
-28.2889 108.246 2.83899
-28.9468 104.228 -5.4045
-6.13426 84.4274 6.21895
-26.6933 110.623 10.7251
-12.302 92.9504 8.81421
-4.90856 82.7537 5.87058
-23.0807 93.3998 -12.4064
-19.2009 87.4238 -14.9658
-14.2693 94.0361 7.6797
-22.5326 92.1049 -12.6437
-29.1376 106.996 0.356769
-6.06141 83.5404 5.97623
-6.19217 83.669 5.99605
-9.99238 89.7268 9.01815
-14.9715 80.4852 -17.3042
-29.1228 105.676 -1.49768
-24.0971 94.0462 -11.8401
-13.1112 93.1946 9.17823
-28.4203 101.45 -7.44434
-12.8802 77.2513 -18.5243
-13.2529 93.3508 9.44102
-9.73154 88.1667 7.86487
-27.2333 109.419 9.80035
-10.0115 88.4846 7.90673
-7.42238 84.3151 5.80715
-29.1733 104.932 -2.07695
-28.8723 106.364 1.08856
-4.72698 80.6403 5.06477
-26.5834 97.5784 -9.55589
-16.5276 97.8482 11.6803
-7.90942 84.5014 5.67174
-16.324 81.4458 -16.8749
-17.431 100.183 14.1933
-5.50308 81.2919 5.15746
-27.9646 99.7181 -8.08699
-14.6746 93.5077 8.1773
-14.8835 79.4256 -17.2375
-28.0219 107.43 5.70356
-28.0144 107.206 5.38549
-9.62425 86.9732 7.18364
-18.4817 84.5484 -15.1184
-12.8345 90.767 7.50127
-22.8509 91.1658 -12.2429
-27.8283 108.28 7.99737
-28.4968 100.444 -7.26335
-11.6859 89.8245 8.33194
-16.5934 96.1652 9.62555
-24.1331 106.747 13.0443
-25.2956 94.7709 -10.5797
-8.76013 84.7243 5.48044
-13.7654 76.9003 -18.4709
-22.7609 90.5756 -12.5462
-19.1061 101.576 14.5436
-11.0397 87.7988 6.69585
-11.9777 89.5838 7.9725
-19.7232 85.745 -14.6762
-21.6929 89.0473 -12.8123
-24.1493 92.917 -10.8893
-28.294 104.839 1.79791
-20.9109 87.5424 -13.799
-8.15991 83.7123 5.52318
-8.91142 84.5039 5.44006
-8.17742 83.6938 5.51664
-14.6304 92.128 7.51816
-28.5042 99.7684 -7.27933
-11.8695 88.1311 6.18352
-19.1052 101.148 14.5655
-28.6393 104.495 0.996274
-27.9967 104.373 2.15626
-27.9835 98.5238 -8.13898
-25.541 94.6055 -10.0261
-12.1178 88.3232 6.34002
-22.6195 104.519 13.7805
-26.4384 95.7737 -9.43694
-18.6413 83.5502 -15.1072
-19.3074 100.894 14.5602
-14.8174 77.4874 -17.8072
-29.523 102.219 -3.99952
-29.279 103.285 -1.4453
-27.775 97.6549 -8.29024
-17.8441 97.6708 12.1148
-17.2692 96.4454 11.1993
-18.0759 99.2621 14.5565
-18.1327 98.8168 13.7819
-25.2422 106.294 12.5027
-14.6296 76.7922 -18.0864
-24.0095 105.319 13.4559
-15.9049 78.9621 -16.7365
-28.4449 98.6296 -7.42377
-15.916 93.1011 8.45337
-12.3424 86.8388 4.97773
-28.3233 106.081 6.66206
-15.0915 90.1661 5.63633
-29.1595 99.8093 -5.95547
-14.1222 89.107 5.90733
-14.2394 89.1006 5.70724
-18.6506 99.3702 14.9364
-23.447 89.691 -11.9602
-7.61098 80.6138 4.37608
-28.4018 105.999 6.92717
-21.9076 87.3642 -12.7557
-17.7273 96.0483 11.2494
-23.8552 104.484 13.7848
-26.5459 94.8755 -8.59957
-18.7662 98.1543 13.1548
-11.2401 85.0714 5.37832
-28.4666 101.319 -0.923258
-23.2849 89.0833 -12.0286
-28.5634 102.603 1.21247
-20.4859 100.739 14.4865
-28.9873 100.728 -2.83731
-16.2588 91.3023 6.52096
-17.0194 93.3015 8.68221
-16.7069 78.8984 -16.2316
-19.276 99.3754 14.9132
-16.9661 93.2046 8.69075
-11.5913 84.7369 4.81631
-27.9375 105.627 8.57952
-22.7432 87.9644 -12.1477
-15.9928 89.5493 4.4866
-28.8451 100.172 -2.74263
-28.8405 100.083 -2.73474
-20.6148 84.0177 -14.3359
-26.9485 105.178 10.2807
-6.67321 78.6313 4.73678
-19.6284 82.5408 -14.7477
-28.1128 105.25 8.2436
-15.7143 91.3689 8.99412
-28.7 104.961 6.55557
-18.5553 96.3031 11.9673
-15.9049 88.831 4.16711
-13.6694 85.997 3.75402
-19.2024 81.5714 -15.3235
-16.7753 91.2229 6.83509
-24.8542 103.65 12.4154
-17.157 78.7328 -15.9964
-13.9994 86.1258 3.60079
-17.4598 79.1343 -15.898
-24.0679 103.221 13.3558
-21.0355 100.419 14.6295
-23.9659 103.16 13.5037
-16.4118 89.3453 4.44205
-26.6923 104.608 10.6556
-9.72174 81.1975 3.94884
-23.3497 102.666 14.2707
-11.3013 82.9829 4.11314
-19.2055 97.4162 13.6007
-15.8147 87.946 3.74951
-24.6232 103.021 12.4845
-17.0441 90.8236 6.40909
-12.8035 84.3375 3.67423
-28.0017 104.458 8.4114
-25.6019 103.491 11.7338
-8.13987 79.3357 4.62637
-29.0974 103.975 5.48795
-16.0845 91.046 9.25233
-18.8485 96.4436 13.2101
-12.5323 83.7283 3.63709
-25.6808 91.6498 -9.10313
-17.3429 93.3762 11.0556
-18.9771 95.8248 12.1672
-11.6446 82.4375 3.48803
-13.7106 84.6798 3.24255
-16.1238 87.5328 3.43535
-22.5696 86.0953 -12.29
-21.4705 100.078 14.8953
-26.7656 103.604 10.3861
-11.1662 81.8072 3.79339
-16.7164 89.3126 5.7607
-28.9741 104.076 6.90669
-20.8291 82.7886 -14.2139
-16.8364 88.4212 4.02555
-24.5794 102.055 12.3985
-19.0066 79.7165 -15.315
-28.4815 95.5048 -6.60314
-9.99068 80.3132 4.29171
-17.0387 89.3558 5.96458
-9.62353 79.9315 4.41471
-26.2063 91.7732 -8.50084
-21.9819 84.1163 -13.4224
-20.686 98.9855 15.6543
-16.6208 88.428 5.26089
-17.0817 88.2348 4.03026
-29.3277 102.921 5.09505
-18.0517 93.837 12.0817
-17.3012 92.011 10.4518
-25.176 89.3638 -10.2498
-23.4518 100.924 13.814
-18.2909 93.7618 11.7186
-28.1144 102.28 6.81465
-23.0198 100.6 14.6079
-20.6874 98.3812 15.5345
-29.3719 96.9856 -4.38641
-26.166 100.846 9.28816
-24.4588 100.538 12.2472
-20.8302 81.4439 -14.2169
-22.6905 84.1956 -12.9593
-20.5726 97.6847 15.4584
-17.8057 90.8125 9.03232
-24.298 100.196 12.4592
-21.2744 81.789 -13.9333
-14.4216 83.7513 3.60891
-26.1436 100.261 9.08168
-28.9895 101.704 5.85299
-29.7106 99.4823 0.460353
-17.6022 87.6048 4.1827
-24.0936 99.8373 12.7229
-19.135 92.8295 10.593
-18.5385 90.4872 7.77217
-29.8371 99.8824 1.37389
-20.0976 96.4019 15.1589
-19.7894 79.0061 -14.7781
-22.3112 98.5956 14.8936
-18.7758 91.1399 8.92777
-29.4381 101.38 5.43303
-29.7619 95.6676 -5.19568
-18.7483 92.2859 11.4373
-24.6606 98.8599 11.0596
-27.4097 91.7867 -6.86786
-24.4604 98.8317 11.694
-27.9055 100.079 6.87917
-29.4737 96.8333 -1.91988
-29.5711 95.4099 -4.51628
-29.3913 99.8238 3.73402
-22.8485 96.9565 12.2499
-17.1912 87.5324 7.16239
-23.2781 97.7497 12.9509
-26.9219 98.7376 7.50255
-29.9862 98.1675 0.273041
-29.6535 96.5104 -1.85294
-25.8745 97.6214 8.04384
-18.2845 90.0178 10.1719
-18.4346 89.5783 9.33772
-17.6382 87.2985 6.92826
-25.1858 97.1244 8.92844
-23.9194 96.2533 10.1173
-21.1209 79.4475 -13.94
-18.0646 89.5549 10.3011
-17.9577 89.5821 10.6327
-18.2952 88.6398 8.28697
-28.5107 99.4908 6.65066
-16.9258 84.3417 3.64526
-18.1 89.859 11.1413
-16.9936 84.3048 3.58083
-29.4086 98.7796 3.94755
-17.995 89.2448 10.5932
-29.1248 98.5035 4.44611
-28.4649 91.8465 -5.88359
-29.3186 98.4009 4.15402
-30.0871 96.1809 -1.2263
-26.5883 87.7433 -9.00534
-21.2365 78.6765 -13.8212
-18.4136 85.8021 4.646
-20.3219 92.8685 13.4086
-25.6357 86.2071 -9.20134
-29.041 97.9097 4.67846
-29.1052 97.8624 4.58384
-28.4241 98.2177 6.62621
-20.9283 94.7265 15.7868
-24.2306 82.9054 -11.7348
-23.6748 81.8714 -12.2788
-29.7681 93.9337 -3.20491
-30.0669 94.8659 -1.99182
-18.8039 86.65 6.55693
-21.398 78.3065 -13.5474
-30.3025 97.5561 2.41887
-18.6281 89.538 12.4592
-29.9598 94.8291 -1.18846
-23.9932 81.8421 -11.951
-25.562 85.1463 -9.18792
-29.9621 93.7564 -2.77222
-19.0378 89.7611 12.6001
-18.6527 84.8027 4.60584
-28.643 90.4014 -5.7051
-18.3689 87.5879 10.4875
-20.933 77.1663 -13.2098
-30.3008 96.6635 2.29812
-30.3018 97.1443 3.24479
-18.2717 86.9624 9.82726
-26.6745 86.3788 -8.34086
-30.1138 92.6968 -3.99509
-20.8034 91.7581 13.5825
-21.2749 92.5042 14.2302
-30.1923 93.6897 -1.89098
-20.979 92.2911 14.7177
-29.9435 96.6568 4.17217
-21.7866 77.5083 -12.9364
-24.2768 80.8885 -11.9955
-30.1433 95.1639 1.42385
-24.1149 80.4128 -12.3427
-22.9576 78.6567 -12.7997
-30.2906 93.1265 -2.11878
-29.516 96.3442 5.30585
-19.7873 85.9818 7.03259
-30.331 95.4146 2.20228
-28.1143 95.5289 7.00837
-22.4548 77.8317 -12.7508
-19.7511 88.8189 12.3352
-30.3067 95.7511 3.18264
-26.2744 84.1604 -9.10593
-30.3417 95.3462 2.44396
-19.0092 86.2887 9.79872
-29.1332 89.2838 -5.54756
-21.2243 90.0749 12.0834
-19.5603 87.6662 11.2505
-26.7462 84.9876 -8.16507
-24.6721 93.3031 10.8694
-19.6656 84.5006 5.49446
-22.3187 77.2834 -12.5427
-30.3752 95.0797 2.7418
-29.1789 88.8942 -5.64471
-30.2964 92.6181 -1.15056
-22.3933 91.797 13.6024
-30.1126 95.6809 4.77722
-29.7344 89.9345 -4.5618
-19.5132 86.6767 10.619
-20.0976 87.6672 11.1972
-25.3999 93.1744 10.1212
-20.093 85.7296 7.77413
-23.2225 92.277 13.1547
-20.0158 85.7457 8.13162
-20.0462 85.7308 8.08604
-19.8916 85.7627 8.80365
-19.944 86.8672 10.7184
-24.5738 92.6124 11.884
-22.6922 91.5424 13.8413
-24.5796 79.1076 -12.0665
-30.3343 91.3159 -2.1302
-21.5049 89.4667 12.6689
-25.2445 79.6961 -11.667
-23.473 91.8153 13.4807
-30.2383 94.9256 5.15983
-20.0518 83.2409 5.26913
-30.3315 90.8385 -2.13454
-25.2793 79.5892 -11.6382
-27.3994 83.6984 -8.58762
-27.4561 84.6178 -6.98599
-27.5909 84.8463 -6.81136
-20.1533 85.525 9.63002
-30.501 93.9767 3.54811
-20.1491 85.5439 9.91787
-25.101 78.9457 -11.7567
-27.0293 92.6336 8.89785
-29.4036 87.6377 -4.67845
-24.5328 91.8849 12.9243
-23.7941 91.1738 13.7075
-30.1574 94.0901 5.92784
-30.3755 94.1048 5.57406
-21.1301 86.4125 11.0655
-30.2915 88.8937 -3.12139
-25.9676 79.3102 -11.1125
-23.7457 90.5339 13.4845
-28.9449 85.5089 -6.02574
-25.2125 91.5108 12.808
-30.4122 89.2559 -1.67867
-25.3833 91.4943 12.5954
-29.7642 87.3235 -3.6728
-21.5704 86.2864 11.3138
-26.8416 80.0705 -10.3829
-28.8808 84.8995 -5.84499
-27.8806 91.9241 8.80803
-30.5582 89.7479 0.13258
-23.9723 89.1468 12.7586
-27.7641 91.3675 9.2721
-22.8451 86.3974 10.5532
-25.8739 90.8987 12.3933
-30.2496 87.5784 -2.19655
-28.0991 82.4631 -6.69306
-24.5525 88.9464 12.4778
-22.9473 86.0317 10.833
-27.3161 90.672 10.7472
-21.2921 83.6637 10.7255
-22.9952 85.4387 10.658
-22.1208 85.6191 12.9032
-20.7596 83.0074 11.17
-27.3519 79.2118 -9.04553
-27.1695 90.2976 11.293
-27.4589 79.1681 -8.86963
-23.5287 85.5911 10.6081
-29.4197 90.9756 8.21217
-27.8898 80.0354 -8.04027
-30.905 90.8892 5.25099
-22.6268 85.712 13.0651
-29.518 83.3007 -4.76597
-30.7576 90.8184 6.12876
-29.841 83.8814 -4.2787
-22.4749 85.313 13.5699
-27.0064 89.4349 11.8568
-30.9463 89.7746 4.4664
-22.1819 84.6234 13.6014
-31.0339 88.2262 1.94536
-26.2288 88.7141 12.6779
-28.2641 89.1398 9.67938
-27.789 88.9104 10.3014
-31.1205 88.3763 2.55149
-22.4146 84.4158 13.8578
-23.3991 83.9091 11.0988
-30.4078 89.4821 6.92868
-22.4987 83.5567 12.9054
-28.1917 88.0878 9.4767
-31.2105 87.6208 2.49117
-30.3789 88.971 6.6459
-31.2357 88.4693 4.00811
-30.3412 84.0634 -1.96763
-22.4691 83.288 12.7958
-30.1391 88.4189 6.85023
-27.1227 79.3411 -2.86655
-31.2563 87.2931 2.86134
-29.0336 87.9145 8.60287
-31.2548 87.2406 2.98491
-23.8871 83.2823 11.1519
-31.1997 86.534 2.78237
-28.0033 79.8798 -1.97553
-26.4872 85.5921 11.8842
-25.7157 84.4842 11.8558
-24.4443 82.9865 11.9028
-28.0683 86.4543 10.8423
-28.0444 79.6945 -1.05735
-29.7115 86.7893 8.15898
-28.5154 80.0986 -1.06527
-27.8443 85.1819 9.44389
-27.6312 79.1742 -0.361083
-27.3745 85.9532 12.384
-28.0916 79.5616 0.0829632
-28.1602 79.614 0.0831754
-30.933 83.4956 1.3184
-31.0742 85.1865 4.25187
-25.3987 83.0407 12.4229
-31.0823 84.9775 4.29675
-30.2012 81.8982 0.65729
-27.9425 83.8307 9.67575
-30.5138 82.7225 2.47039
-30.6346 82.8521 2.67416
-26.5694 82.4118 10.3616
-26.5593 83.3386 12.0691
-29.4705 82.3227 4.3247
-30.3736 84.0329 5.62037
-26.8567 81.5732 8.58885
-29.038 81.7128 5.51735
-30.551 82.6905 4.3585
-28.5822 82.7367 8.91111
-30.5738 82.7507 5.03243
-28.9724 82.6523 8.82052
-30.2272 82.5945 6.15074
