ply
format ascii 1.0
comment Created by Open3D
element vertex 1997
property double x
property double y
property double z
end_header
16.2279 90.8651 16
-1.03258 76.4341 16.1947
22.6068 114.91 4.25563
-11.091 112.131 -11.2315
25.9196 131.71 -4.52259
15.4601 126.527 -6.61026
-14.6247 78.3818 8.09699
15.4306 126.499 -6.58472
-2.21778 77.1299 15.2619
17.1118 131.364 -8.7213
1.52478 78.7644 16.1637
23.0771 122.086 0.124252
21.5429 120.754 0.184376
-17.7245 102.736 -8.59657
28.1254 129.858 -2.08647
0.774723 119.753 -9.75596
-20.5535 89.9 -2.00584
19.029 125.215 -3.82523
6.05617 119.997 -7.17356
-11.3424 112.14 -11.1459
-11.3121 112.233 -11.1419
-2.50173 118.275 -10.4
-20.5695 89.6219 -1.7403
27.2167 128.394 -1.50507
27.9342 129.865 -2.05369
17.2366 123.491 -3.51831
-20.8633 92.9535 -3.89159
20.0949 121.006 -0.463699
15.1223 125.481 -5.78766
22.7002 103.876 11.5813
18.5136 125.671 -4.14662
26.2331 127.717 -1.44504
15.8635 91.0195 16.1769
15.5338 90.542 16.3135
-11.6488 112.136 -11.0437
7.86366 121.558 -6.94755
22.971 132.629 -6.13093
-14.0904 78.4195 8.79382
-2.59228 118.384 -10.2762
27.1037 128.8 -1.57179
21.4767 102.403 12.0543
21.2051 117.599 2.44641
20.415 121.932 -0.638485
-13.0305 77.5159 10.0051
22.7977 113.806 5.67662
-20.4917 88.3654 -0.535698
7.58364 121.487 -6.8329
-20.2866 88.0473 -0.183602
24.5593 132.018 -4.70791
17.1071 129.155 -6.68648
2.50044 79.9703 16.5772
23.9966 132.122 -4.99745
19.0259 122.509 -1.53043
8.04708 123.791 -7.94142
2.38491 119.862 -8.38078
14.8074 90.2349 16.4759
25.5703 126.521 -0.666842
12.105 131.214 -10.4729
6.88789 120.844 -6.65776
14.2361 131.128 -9.26172
22.47 112.344 6.72627
27.4351 130.082 -1.79426
20.9953 134.601 -7.88725
16.7986 94 15.3268
26.6753 132.625 -3.72029
-0.247518 78.9107 16.0676
-2.3156 78.232 15.4358
1.03641 79.4543 16.3879
19.6948 121.881 -0.52521
17.8092 126.44 -4.31006
-8.13076 114.266 -9.94438
19.7271 99.9309 13.2571
22.4019 108.809 9.09082
-18.1401 81.826 5.22715
22.6557 114.168 5.88743
20.1909 123.505 -1.19577
-2.72659 118.771 -9.93725
16.8604 131.562 -7.90799
26.0223 132.352 -3.69769
21.1719 118.021 2.78621
17.4518 129.121 -6.04481
19.9565 135.074 -8.45141
7.65846 123.387 -7.43605
12.8253 88.2796 17.1325
-16.1404 106.988 -9.33784
18.632 124.795 -2.67819
29.0181 132.184 -1.94709
15.6201 128.61 -6.55344
-19.6826 87.7718 0.914581
16.4878 131.783 -8.08031
22.3132 112.782 6.76834
8.59125 125.26 -8.02859
14.0744 90.3358 16.615
22.2241 110.634 8.13081
-13.0357 77.5859 10.7533
17.613 132.019 -7.55993
20.0779 101.887 12.5367
15.7527 92.7926 16.0172
7.25727 84.5329 16.8348
17.6558 126.601 -4.12333
-20.4267 90.8155 -1.23808
22.5968 114.531 5.95294
-4.33364 117.354 -9.57414
15.6161 131.843 -8.38903
4.16901 82.2714 16.7377
21.5572 134.992 -7.29153
15.0617 131.714 -8.55097
10.3186 86.325 17.3741
3.89286 82.057 16.7728
20.552 135.925 -8.35306
-4.10165 78.2673 15.0573
17.83 130.722 -6.48889
3.47527 81.7654 16.7907
-12.9897 77.5614 11.0022
24.1604 132.931 -4.58
18.9429 134.271 -8.02359
-6.31353 76.7297 15.0767
22.1502 109.29 9.30323
1.26152 80.4132 16.6769
-19.6824 88.9442 0.646406
-6.73214 76.7532 14.895
-14.7406 110.968 -10.5612
-19.0323 86.0862 2.80112
17.694 131.356 -6.68517
21.3315 122.131 0.939061
-19.2727 87.8251 1.60892
16.7505 95.4156 15.2877
22.2043 116.24 5.09796
-16.0863 107.854 -9.22996
-16.3021 107.479 -9.07731
17.4359 133.431 -8.02775
17.63 132.03 -7.04843
27.7066 133.949 -3.05534
9.31753 86.5313 17.2087
24.1838 133.373 -4.43012
23.7954 133.688 -4.76917
14.5375 133.453 -9.35231
8.04649 124.768 -7.24339
-15.723 80.4835 8.28568
21.9626 105.905 11.6902
-11.8594 113.95 -10.6077
25.8182 132.965 -3.21222
8.82144 86.516 17.1098
-16.6792 107.248 -8.86503
14.4674 128.083 -5.88865
-19.3975 101.065 -6.32065
-6.60868 76.8926 15.3499
14.6425 133.953 -9.42233
19.2851 123.47 -0.491304
-19.8194 98.8729 -5.10958
20.9857 104.125 12.48
16.4239 133.668 -8.26638
17.0812 130.549 -5.96756
2.009 81.8656 16.7422
23.4979 123.698 1.61209
10.1896 129.659 -8.90415
14.1462 134.156 -9.68843
15.3454 130.144 -6.56458
-6.72562 116.538 -9.34526
15.3785 125.224 -3.46835
14.8252 125.942 -4.1879
20.6247 123.279 0.471265
-9.63718 76.7188 14.085
19.5977 123.765 -0.335875
12.6238 134.483 -10.5591
-17.7035 82.6382 6.31912
8.7659 126.668 -7.63632
-3.08276 119.704 -9.30391
17.7458 131.177 -5.81812
21.486 105.541 12.1051
-17.5083 82.4147 6.62468
12.4769 134.337 -10.4717
-17.1944 107.087 -8.59488
24.0001 124.073 1.87279
-19.7061 90.5936 0.525165
24.4774 133.874 -3.90836
-5.6164 76.6922 16.425
-13.7314 113.297 -10.5743
17.7968 99.3605 14.2496
-0.00186541 122.202 -9.102
-19.2719 101.804 -6.20717
-6.7046 116.942 -9.23377
22.2721 136.079 -6.36027
20.9283 118.781 3.77457
16.7328 125.998 -2.87325
-4.22578 118.922 -9.13953
-15.9451 110.425 -9.78343
17.6499 134.293 -7.51632
7.90309 125.267 -6.85496
19.3876 124.189 -0.307986
21.6519 112.759 8.01038
21.4899 123.052 1.51978
1.7587 82.6472 16.6702
16.4323 124.858 -2.18258
-19.4679 90.4561 0.966207
20.5041 123.11 1.00606
19.7843 125.033 -0.55506
11.2009 132.53 -9.62005
17.861 100.608 13.7234
12.7492 91.4795 16.8575
24.5135 124.959 1.96978
23.3838 135.122 -4.95044
-9.85862 77.7719 13.8754
4.20579 122.084 -6.60424
18.8407 124.429 -0.572891
19.7967 124.144 0.110104
-10.3063 77.782 13.7134
12.074 90.6935 17.1005
7.86328 87.6146 16.8934
9.76405 129.39 -8.21864
15.4276 96.0733 15.5039
25.5226 133.501 -2.68894
-16.4943 81.6211 8.25231
21.2064 106.17 12.2009
-7.45298 77.1397 15.6862
-17.5729 83.5406 6.51858
15.0331 129.026 -5.17049
7.33215 124.431 -6.23177
28.5439 134.159 -1.44099
17.3459 133.954 -6.98521
19.8905 125.593 -0.455042
16.9578 125.111 -1.62524
16.0681 129.493 -4.7975
21.7686 109.56 10.566
18.6713 125.1 -0.721666
21.4163 110.844 9.61527
-15.6965 81.202 9.15835
28.1371 134.736 -1.84078
9.69832 129.75 -8.1366
-1.97564 122.33 -9.44814
-17.2018 108.873 -8.8195
-1.60937 81.2158 16.4696
17.6667 131.861 -5.30618
9.50911 88.8451 17.3951
-19.7449 91.2522 0.938205
-17.9444 106.729 -7.80161
-4.50893 119.467 -8.85828
15.5235 133.141 -7.15333
12.8274 93.3469 16.3316
16.666 99.2644 14.6096
-17.7743 84.3879 6.30105
20.4854 123.251 1.60648
19.8448 137.388 -7.53507
11.6881 133.994 -9.55381
-15.2766 81.4686 9.4957
19.5324 124.938 0.143198
-20.2341 99.4389 -4.2398
7.24518 125.018 -6.16277
22.2217 124.165 2.02818
16.9944 100.324 14.3064
-18.7865 89.6791 2.68102
-9.48697 78.0852 14.6965
14.4671 96.4329 15.5018
15.9732 136.641 -8.82727
17.4436 135.202 -7.16824
15.3132 98.0073 14.9804
-2.86259 121.546 -9.01023
-17.8389 84.7764 6.30162
-14.8592 80.9304 10.2416
-14.8288 80.9005 10.2835
12.654 136.361 -10.2973
16.6402 125.023 -1.15172
13.4918 95.8549 15.4799
-8.07843 77.6136 15.848
3.98487 85.3766 17.1763
14.8972 97.368 15.2751
-15.7239 112.631 -9.899
-7.78566 77.515 16.1016
5.95351 86.8896 17.2883
10.6881 94.4876 14.9672
15.5504 98.6514 14.8573
-5.03698 119.575 -8.72617
-19.6101 91.4536 1.40061
20.1013 122.379 2.38915
-4.71211 119.809 -8.68934
13.3654 99.4235 13.293
14.696 97.3073 15.3029
13.3834 100.993 12.3425
14.3043 96.8696 15.3975
10.9293 96.4986 13.9147
20.249 138.163 -7.33243
-7.24152 118.129 -8.86715
-16.5526 83.7497 7.85964
-8.58963 80.3402 14.0631
-0.0796366 83.0718 16.7139
-19.4733 95.2066 -0.774748
16.1014 133.368 -6.41424
12.3685 99.1816 13.0503
-17.8203 85.1202 6.4104
-16.6784 83.9524 7.72572
-18.2865 88.0164 4.38181
20.5362 125.126 1.05482
16.6316 136.935 -8.30554
10.8803 97.3861 13.4595
12.6714 97.398 14.3772
19.153 125.267 0.292709
10.9044 97.6616 13.3329
19.3454 125.42 0.317236
15.8418 104.423 11.6428
14.3267 99.8282 13.7452
14.9834 105.726 10.4325
15.7206 133.021 -6.22895
11.9942 100.411 12.2384
14.7469 99.6885 14.107
16.5541 101.423 13.9532
16.4273 132.182 -5.31546
25.9651 134.597 -1.94804
14.9962 126.619 -2.56029
10.3443 91.3427 17.1041
-18.2041 87.6641 4.81486
24.7093 129.135 0.8598
14.3538 128.473 -4.01043
20.6401 119.481 4.83175
12.2032 136.82 -10.2994
17.2493 135.862 -7.11815
18.1112 135.985 -6.72691
1.06442 123.721 -7.77453
13.0207 103.123 11.2482
9.90688 91.7305 16.8098
10.7983 99.5239 12.4142
-20.7142 98.4234 -2.96665
13.5096 104.174 10.9411
21.2433 115.026 8.11913
21.2453 113.605 9.02361
20.5864 125.349 1.36906
-4.76691 120.546 -8.54268
-19.3381 95.5043 -0.346313
16.5731 107.044 10.8399
12.1417 102.654 11.3194
22.6654 125.404 2.49498
10.3018 132.915 -8.49178
13.0487 104.348 10.7577
14.7036 128.368 -3.38233
-13.1997 80.7017 12.1271
16.2822 128.202 -2.46493
9.03059 90.6511 17.294
16.4968 128.975 -2.80674
20.323 126.309 0.817185
12.3169 103.476 11.0432
-14.1556 116.357 -10.5178
10.1637 100.477 11.8358
17.4246 126.092 -0.450265
24.0552 137.508 -4.1865
6.63894 125.44 -5.5485
1.15079 124.139 -7.53184
-7.36495 81.6166 14.6897
8.64185 91.9295 16.4414
24.502 136.788 -3.45771
-0.642007 83.8233 16.8068
16.6184 129.97 -3.18001
-16.063 84.6197 8.46755
22.7547 125.779 2.64451
7.83454 94.7298 14.4246
16.1961 135.952 -7.04232
7.58057 93.3255 15.2151
15.8704 127.48 -1.87054
21.5085 116.899 7.62126
-4.38038 121.277 -8.33044
9.72472 132.611 -8.14864
15.2171 128.888 -2.98753
16.9522 136.473 -6.81376
20.4696 109.22 12.0105
18.1707 126.531 0.0289275
19.3904 138.685 -6.93771
-15.8186 84.7465 8.75754
7.10082 92.7619 15.4897
17.8523 126.468 -0.0640428
-19.0907 104.107 -4.97962
6.21936 88.746 17.5578
17.8365 126.471 -0.0630406
27.0849 135.87 -1.17308
1.42071 85.7289 17.0508
10.6733 103.035 11.0034
21.2527 116.488 8.01885
13.9412 137.683 -8.95242
21.043 113.871 9.58261
12.1829 105.295 10.4252
-17.9848 88.9876 5.19056
20.0666 121.297 4.483
15.8719 108.538 10.3125
-18.3972 106.261 -5.77954
19.3094 125.751 1.34099
17.0861 108.135 11.2154
20.4707 122.915 3.72833
20.8372 110.264 11.8191
20.8117 114.976 8.86767
20.6681 124.117 3.09321
24.5615 129.613 1.65213
7.92357 90.9102 17.3227
21.0452 113.743 9.78683
20.4127 109.775 11.9579
14.3376 108.652 9.58842
12.6793 137.991 -9.57859
-13.2246 82.556 11.8257
-8.9241 118.939 -8.69528
20.9615 111.702 11.1039
-12.429 81.9336 12.6358
4.41936 124.898 -5.57418
5.00274 88.044 17.7418
21.5741 125.968 2.5376
-19.3522 104.059 -4.69241
7.44099 90.9697 17.2146
16.7876 136.5 -6.42089
18.857 138.667 -6.68679
1.07524 124.915 -7.18283
-20.6901 97.7125 -1.30215
-11.2792 118.647 -9.56151
-15.4848 85.5708 8.97084
-18.189 108.048 -6.41297
-4.24302 83.2485 16.2351
9.70997 103.838 10.561
-15.7405 114.715 -9.23613
6.26745 89.723 17.6315
16.705 108.801 11.0706
18.6463 138.661 -6.58668
-18.9471 105.072 -4.80498
-19.6299 94.5373 1.44224
5.99639 90.4895 17.1002
-16.4392 86.7649 7.95986
8.85388 131.316 -6.93321
-17.7591 88.6187 6.13878
15.9523 126.771 -0.442136
19.9251 127.186 1.33565
18.5037 108.928 12.0131
-3.06733 83.9453 16.5966
-13.7433 118.015 -10.1369
18.4325 138.595 -6.51852
-7.82869 83.0394 14.7738
4.87263 125.576 -5.27149
16.5172 137.457 -6.71164
21.2767 139.894 -5.78372
20.6868 126.013 2.61102
-19.3074 97.1527 0.213013
22.1101 139.447 -4.99597
-17.7091 88.8364 6.2652
23.5042 127.908 2.94796
9.49627 133.484 -7.6851
4.85512 90.4021 16.8728
-14.444 87.0463 9.11746
-11.1671 83.3434 13.1073
25.0854 137.2 -1.97708
-12.4131 119.508 -10.08
5.27916 93.8561 14.994
-16.6056 88.5584 7.1184
23.6499 128.196 2.95779
-18.419 92.491 3.76277
15.756 138.979 -7.79321
-15.8622 88.3947 7.65612
4.64109 90.8809 16.6019
15.4683 127.608 -0.793556
11.9192 108.325 9.43832
-2.74995 84.7128 16.6964
10.9216 137.84 -9.49164
17.9707 127.424 0.62065
-9.42518 83.3817 14.1299
-15.3149 88.2984 8.04923
-13.5989 86.8352 9.86533
-0.604884 125.108 -7.37544
18.6273 139.147 -6.31042
3.01867 125.556 -5.77329
8.41347 102.359 11.4907
-13.4793 86.561 10.1675
20.9393 117.334 8.5563
19.3835 128.883 0.5535
-2.42314 85.1182 16.7638
19.3715 128.143 1.03554
8.16196 101.545 11.9201
-13.409 87.3766 9.75986
6.29883 127.711 -5.3459
-2.1455 125.159 -8.06689
-2.47686 85.1695 16.7563
4.98838 126.306 -5.11076
1.53234 125.603 -6.43786
-12.038 84.1483 12.5187
19.9741 126.656 2.33581
13.8493 111.467 8.70733
-12.5089 84.7615 11.917
18.4301 139.16 -6.20698
-12.4797 84.8675 11.9093
-12.7282 120.128 -10.2296
20.1964 111.917 11.7391
5.43417 95.3325 14.6355
8.1867 102.477 11.5893
21.6488 140.118 -5.02705
20.0007 111.758 11.8566
17.231 110.492 11.2564
5.28001 126.734 -4.9949
-4.27355 84.554 16.4713
20.1121 121.01 6.17689
-8.52231 83.9465 14.6977
-12.8095 87.9823 10.0067
-1.15728 86.7778 16.7217
20.3842 115.193 10.0014
5.14056 95.1287 14.7438
13.5779 138.781 -8.20289
20.4142 125.505 3.59367
15.9542 128.151 -0.338723
-12.6269 86.9878 10.8176
26.6554 136.956 -0.301773
-20.3578 99.9743 -1.23298
20.0263 112.242 11.7512
18.9445 128.377 1.14528
7.7971 131.2 -6.30948
-8.72455 84.3082 14.5323
26.5007 137.338 -0.578684
-11.4434 120.438 -9.41528
3.85633 90.5465 17.0901
-4.64449 123.042 -7.54589
-17.4338 91.3801 5.69405
8.32857 104.765 10.5092
9.6894 134.685 -7.46354
6.46629 128.698 -5.36595
8.77262 132.868 -6.77799
-14.1113 89.5347 8.59865
16.9889 127.621 0.739778
20.2628 123.789 4.81106
-10.8915 85.015 13.1209
23.6373 129.281 3.12979
26.2028 135.314 0.684482
25.5194 134.966 0.583548
16.6219 111.527 10.7079
-9.33612 120.78 -8.33129
19.8503 112.812 11.5905
-3.50767 124.919 -7.90721
19.4199 140.424 -5.8704
-11.6605 87.1872 11.5027
11.8162 111.153 8.54479
4.31761 94.448 15.1463
1.93522 88.3756 17.7829
13.3498 113.176 8.1481
20.0268 122.262 5.93119
19.626 129.208 1.44904
-11.432 88.3125 11.1524
-15.5452 115.465 -7.86363
20.2283 116.589 9.7377
20.4092 141.444 -5.68498
-16.8496 90.3028 7.25053
10.4305 110.273 8.72369
21.8153 140.607 -4.3956
-14.2708 118.541 -9.03791
-10.7447 87.8934 11.9105
7.34567 103.025 11.7082
1.68641 126.522 -5.85713
9.80778 136.539 -7.94241
18.5615 111.952 11.8957
20.0555 124.907 4.5705
-9.83407 86.6511 13.187
-10.1863 87.6529 12.4037
10.2572 138.385 -8.82301
24.5736 132.458 2.20817
-18.5156 109.734 -5.60167
-2.97183 126.363 -7.976
-20.3473 101.72 -1.45815
6.50419 100.238 13.1944
-18.2057 111.439 -6.4297
6.64871 130.412 -5.56998
-8.77221 122.439 -8.44934
7.25652 104.079 11.2333
15.0279 114.438 8.77093
26.1735 137.784 -0.109178
20.7757 120.721 7.81541
19.6983 129.002 2.13462
11.7939 113.321 7.92803
2.71128 90.0342 17.8314
-9.827 122.672 -8.92585
5.30145 128.676 -4.92917
19.6007 127.772 2.96117
18.6875 129.331 1.52432
15.993 113.362 10.1767
-7.0261 86.411 15.2427
4.67292 128.102 -4.79468
7.87559 107.23 9.90838
-0.644696 126.765 -6.64058
-4.54175 86.7738 16.3597
19.2002 127.09 3.34026
12.5861 115.071 7.47638
13.689 115.423 7.83547
-16.4533 91.4772 7.38612
13.2162 115.42 7.60544
19.9513 124.543 5.36798
-20.1121 99.2829 0.710606
24.8531 135.448 1.11162
-9.59887 88.1168 13.0657
13.8798 140.916 -7.87427
9.81242 111.751 8.26211
-4.31331 125.099 -7.29408
21.3916 128.822 3.53207
9.98342 139.01 -8.64438
19.7675 125.71 4.6689
8.1296 133.507 -6.13131
8.41325 133.953 -6.2346
2.62336 127.548 -5.18794
9.79908 112.1 8.16288
11.2684 114.041 7.70853
17.9489 113.547 11.4562
17.4655 139.979 -5.27451
-19.2812 108.109 -4.1447
13.2997 141.118 -8.05905
10.8726 113.837 7.74502
18.052 140.672 -5.33392
23.2556 131.058 3.33992
8.67412 110.474 8.75905
19.809 115.826 11.1461
-9.92414 124.186 -9.2728
2.65909 93.6716 16.219
3.58172 95.4314 15.5921
6.03562 101.776 12.9204
8.37254 110.061 8.95928
20.0556 142.418 -5.2477
4.5158 97.8634 14.6857
7.30594 107.818 9.9041
20.5785 142.427 -4.91554
7.56215 108.534 9.62646
19.6356 116.003 11.1478
14.0561 117.03 7.67353
13.8496 117.12 7.55407
26.4611 137.696 1.16186
15.215 115.927 9.02002
5.38453 99.7765 14.0957
1.45256 91.3357 17.3661
-6.43631 124.196 -7.18966
4.0493 97.264 14.9999
-2.16133 127.952 -7.31012
-0.164291 89.4992 17.7484
10.9973 115.569 7.21748
-16.9217 114.142 -6.15725
-8.71009 125.171 -8.80174
13.4041 117.578 7.25248
19.9584 142.761 -5.12238
6.76695 133.036 -5.7532
6.2026 105.114 11.4263
-6.10162 87.385 16.2292
-6.05878 87.4159 16.2326
-20.0443 104.242 -1.39769
19.8706 118.505 10.1034
21.5841 141.974 -3.63962
5.86205 104.377 11.8456
3.38025 96.3306 15.6177
6.06519 105.163 11.4837
0.975082 91.5578 17.4123
16.6558 140.606 -5.19392
3.91649 97.6291 15.1381
-5.33051 88.4409 16.1618
2.77998 95.1399 16.1578
-4.18993 88.8245 16.5625
-16.8594 94.1804 6.77747
16.5263 115.503 10.5444
0.902643 91.8369 17.3843
15.6566 116.33 9.6334
22.1723 131.221 3.68159
-11.3479 124.031 -8.96178
-10.8495 92.1478 11.2127
4.20532 129.967 -4.71028
-12.759 123.117 -9.10207
15.7805 116.163 9.84507
4.57069 99.1627 14.7459
5.90708 105.707 11.3663
18.5658 127.29 4.37246
8.28932 112.629 8.29532
-5.92505 126.106 -7.38717
-8.50238 90.1207 13.7718
12.9354 118.709 6.88456
-7.84563 88.4634 15.1522
16.8363 115.669 10.7781
-16.5986 93.9108 7.28237
14.9409 117.915 8.42365
14.7231 118.234 8.12514
-7.97727 89.2161 14.6767
-7.62662 88.381 15.3911
-7.69954 88.5304 15.2633
6.71524 133.999 -5.76419
3.58393 97.5496 15.4017
12.4141 118.7 6.7092
17.3741 115.594 11.1934
-16.7389 116.086 -6.53563
22.6856 132.23 3.56269
11.9372 118.67 6.58722
14.367 118.908 7.69227
2.77769 95.8966 16.1416
-16.9021 94.518 6.9618
7.23476 110.986 9.02054
-8.44098 126.248 -8.51701
-13.1424 93.8254 9.36397
15.5697 142.509 -6.34231
16.775 141.595 -5.15027
18.2339 130.951 2.25949
16.1622 116.406 10.2844
-18.6202 97.0459 4.66412
17.0261 116.152 10.9698
-14.1169 122.239 -8.74669
-3.02225 90.0158 17.0983
22.4337 142.546 -2.66843
19.4113 119.35 10.2859
-18.7063 106.179 -0.961334
-18.8393 104.981 -0.230028
5.22838 104.309 12.5015
2.99288 97.0113 15.9181
-18.9465 106.473 -1.20586
4.53364 101.807 13.7487
-18.2276 99.5226 3.57685
0.512254 92.8165 17.3688
-9.25277 92.0033 12.9198
-6.17995 127.752 -7.83246
-12.6837 123.724 -8.62975
-0.81162 91.3009 17.6916
-18.2647 98.3301 4.38132
-12.7603 123.694 -8.62981
9.64872 117.274 6.91171
-19.4993 108.806 -2.67698
7.49767 136.452 -6.14057
18.1625 127.331 5.02248
1.9606 95.7928 16.4696
8.68044 115.807 7.42641
-17.7248 95.9363 6.35175
-2.70168 129.163 -6.7142
-7.27335 90.2053 15.2919
-2.15735 130.032 -6.92682
-9.8563 93.1857 12.1566
10.6275 119.047 6.48
7.1274 135.427 -5.50455
-18.4804 97.4387 5.17446
12.0441 120.676 6.28219
2.85232 97.9117 15.8221
-9.46337 92.9225 12.6554
-7.07008 127.619 -7.78018
22.6638 143.004 -2.15705
-18.7412 112.304 -4.09625
2.77139 98.0543 15.8156
-5.18405 127.815 -6.83681
9.26873 117.817 6.82613
10.5083 142.683 -8.06543
4.80774 104.336 13.0008
12.9292 143.573 -7.30865
13.5228 121.778 6.68365
-18.7904 112.296 -3.90875
24.7216 141.496 0.110058
9.01231 117.808 6.88158
-20.0011 102.428 1.66396
3.02508 131.482 -4.70542
17.4958 118.169 11.0227
17.7734 118.429 11.0086
9.07577 118.033 6.81874
23.4883 135.464 3.31854
-18.1587 98.5997 5.05632
-19.9426 102.248 1.92895
-14.6138 122.142 -7.75461
4.7159 133.068 -4.69404
24.0909 137.688 2.38257
5.13038 107.441 11.5818
-18.0452 99.0009 5.02486
18.7594 130.114 4.4084
-9.83507 94.1145 12.2967
-7.66297 91.6187 14.9744
-14.5085 122.912 -8.02523
13.049 144.205 -7.20356
-18.9175 112.229 -3.52094
19.0686 123.274 9.01729
0.21685 94.5089 17.3696
13.6546 122.242 6.93052
5.04945 107.762 11.578
1.30072 97.3259 16.1809
8.56321 118.19 6.89062
-2.98369 92.509 17.0401
0.0882409 94.4289 17.4211
19.0179 122.536 9.56694
-19.5017 111.265 -3.07948
6.26486 112.707 9.19832
18.7576 121.649 10.0027
10.0278 120.851 6.10457
17.9493 132.208 3.06332
23.5483 136.344 3.35987
0.184274 94.9039 17.3008
-12.8567 124.686 -7.92894
-18.8281 105.977 0.733868
-4.33101 92.1988 16.7909
22.6804 135.882 3.34809
-1.37986 93.6898 17.4038
-16.7214 96.4552 7.89144
19.911 144.919 -3.64146
1.28532 98.2123 16.0194
10.9167 122.846 5.55767
-19.6171 103.397 2.11541
5.68844 135.066 -4.72008
23.4705 143.506 -0.897222
6.87802 138.298 -6.12192
-18.8553 106.047 0.878103
18.359 121.361 10.3588
18.6387 122.26 9.95336
19.319 145.394 -4.06529
-5.42631 92.2866 16.4572
16.2299 144.078 -4.80996
1.28231 131.544 -4.60901
-5.14784 92.4694 16.5127
-4.79759 129.551 -6.3796
-15.7105 121.589 -6.95104
14.4256 122.343 8.07034
-3.46116 93.781 16.7721
7.231 117.61 7.37588
-18.7423 113.073 -3.06401
12.3707 145.07 -7.09884
-18.3159 117.365 -5.47399
-17.805 98.0146 6.92293
8.65213 142 -7.02224
-5.23708 129.868 -6.4921
7.32733 140.138 -6.47445
15.7872 144.545 -4.88353
-17.1732 120.608 -6.77261
-19.7668 110.845 -1.9962
-9.70144 95.357 12.8324
-17.9373 98.7839 6.48289
-19.7566 110.792 -1.90204
-14.845 124.246 -7.75735
-2.01433 94.851 17.167
13.1474 146.038 -7.02629
17.9386 144.99 -3.91158
-3.8892 94.0845 16.7431
5.53416 136.149 -4.71011
-8.25764 129.44 -7.56002
19.1513 133.76 3.76283
-10.87 95.7931 12.1288
4.53478 109.258 11.6002
15.6685 121.294 9.78668
14.793 122.434 8.63146
3.86962 105.678 13.5281
17.5055 128.171 6.47562
24.4983 141.403 1.79332
-2.09967 95.0134 17.1732
-19.5548 111.788 -2.20412
17.0938 121.512 10.4617
13.9149 125.689 6.24125
2.23971 101.015 15.6896
18.0838 132.302 4.26887
-18.3764 118.307 -5.59722
-14.8933 97.1404 9.42228
-5.21786 93.832 16.4424
-15.4417 122.794 -6.86536
-18.4693 117.901 -5.34295
-17.7127 108.202 1.11025
14.4442 124.021 7.7145
5.3225 113.489 9.64362
-10.8447 96.0973 12.2425
-2.15102 95.2736 17.2025
8.82931 143.064 -7.0259
11.5911 145.363 -7.04232
6.47162 138.576 -5.41877
7.80914 120.609 6.49797
-7.64849 93.9366 15.2755
-3.98025 94.5139 16.7947
-8.88608 129.172 -7.33382
14.5377 123.735 8.03618
8.95215 143.511 -7.16585
-4.65056 130.406 -5.92927
17.7172 145.396 -3.83992
8.9054 143.463 -7.11464
16.7411 144.849 -3.9681
1.78671 101.044 15.7566
-9.05629 128.994 -7.23467
-17.4769 97.989 7.83775
13.1455 146.459 -6.7624
10.2511 125.536 4.85702
2.24336 101.821 15.5912
22.074 137.922 3.18307
6.82839 118.865 7.35139
18.6279 146.165 -3.60498
5.75432 115.857 8.7826
9.0416 144.273 -7.2751
-18.1403 107.334 1.94013
-10.3971 128.608 -7.38174
-16.2125 122.423 -6.4884
13.6318 146.319 -6.15584
20.9787 137.019 3.42511
5.18268 114.204 9.59965
8.45301 123.262 5.6841
11.5661 127.684 4.51873
14.6131 126.363 6.9125
8.30474 142.757 -6.45524
17.5572 129.779 6.38146
-17.3787 99.5529 7.46072
23.7856 140.6 2.90429
-6.76454 131.535 -7.01655
-15.9862 120.044 -4.54908
-16.9468 108.352 2.27423
6.43027 139.568 -5.26575
-10.0538 130.084 -7.737
-18.8969 117.215 -4.21648
-12.5242 126.619 -6.78868
6.707 119.981 7.18928
6.84633 120.368 7.02765
-8.6023 95.5985 14.6078
-18.7087 115.744 -3.11705
21.4236 145.917 -1.37293
4.98009 114.616 9.82986
0.743248 133.299 -3.98652
-16.6474 98.4667 8.88271
-4.65753 131.767 -5.7785
2.8427 135.576 -4.31604
12.9568 147.053 -6.30927
23.5505 141.845 2.3649
11.2919 128.803 4.25803
23.5744 141.27 2.79021
-16.8831 108.789 2.42216
18.789 135.844 3.76487
5.68643 138.453 -4.55068
15.1005 124.667 8.8854
-11.9217 130.447 -8.5285
-12.8368 128.28 -7.63271
10.4933 128.427 4.28756
-9.36385 132.639 -8.46316
15.3786 123.837 9.71084
-16.637 119.101 -3.69266
15.9242 146.508 -4.15608
19.4546 146.627 -2.39758
-17.6262 107.911 2.84158
-17.4934 116.279 -2.28334
6.44124 120.632 7.23392
16.8374 131.188 5.96447
-14.0661 98.03 10.8892
-18.3518 114.76 -1.72942
-11.6203 131.354 -8.63951
10.6945 129.236 4.09421
-6.69082 132.135 -6.60291
-14.2332 126.344 -6.82946
-16.974 115.424 -1.41022
-3.05028 97.0574 17.1867
23.3969 144.901 0.825957
4.9977 115.676 9.69411
2.10622 103.975 15.5527
16.9791 132.266 5.50053
-0.315681 100.51 16.5143
-15.5839 125.27 -6.73934
16.6687 126.145 9.22601
8.67656 145.401 -6.87384
-17.4023 116.409 -2.08696
-17.1089 101.63 7.31152
-13.6146 129.383 -8.23147
6.28402 120.788 7.34862
23.1438 144.469 1.21405
2.9867 109.233 12.9171
-15.0975 117.678 -1.59252
-15.6944 117.108 -1.51898
2.77355 106.629 14.4668
6.88816 122.379 6.74161
-15.6424 119.415 -2.89082
15.8939 124.771 9.9002
9.19752 127.994 4.4904
23.0052 144.182 1.45189
5.25384 139.191 -4.48544
7.95255 143.885 -5.99268
-17.1347 116.651 -1.78813
-3.85339 132.937 -5.16658
3.09538 110.377 12.4816
-16.9892 99.488 9.01607
11.5359 147.554 -6.409
-17.4296 117.852 -2.65172
9.46853 146.508 -6.74381
22.7963 143.516 1.9623
16.4295 130.656 6.74665
-13.5132 129.939 -8.07361
-16.4097 121.974 -4.54374
-6.22212 97.4709 16.0017
-17.3628 118.581 -2.8699
-11.4705 132.762 -8.69656
10.2631 130.774 3.69727
-16.771 121.231 -4.13576
10.7451 147.804 -6.63662
16.5573 125.875 10.0363
16.7458 129.828 7.67884
-16.8605 100.488 8.83421
16.7402 147.274 -3.20265
15.8207 147.183 -3.60776
16.7621 129.394 7.98562
-15.3543 126.251 -6.46231
5.28893 119.152 8.52543
-18.5877 106.271 4.37102
5.87839 121.042 7.65407
-15.2424 115.779 0.161919
-13.9148 128.184 -6.89437
-16.9633 115.115 -0.284946
-16.8233 123.647 -5.45651
-6.01892 97.8718 16.1829
15.6773 126.425 9.44224
4.57528 116.098 10.2202
3.54734 138.767 -4.46201
4.92751 117.895 9.30754
22.5292 143.418 2.38143
14.1722 130.463 6.20569
-7.35362 97.8944 15.5769
-16.8103 123.826 -5.43774
18.7189 137.029 4.48763
20.4087 139.421 3.86368
-7.4044 97.9285 15.5614
-15.8309 119.385 -2.13309
14.4395 147.562 -4.24988
-13.9183 119.031 -0.904504
13.5693 131.692 5.26231
-7.14614 134.282 -6.91445
-4.8674 98.3447 16.6959
-15.5684 99.779 10.3334
1.25507 105.494 15.3839
-14.9752 117.566 -0.443308
-17.5966 110.476 2.6538
-3.48548 99.1082 16.969
-15.3394 115.181 0.885053
-16.8404 122.408 -4.37328
-0.250246 135.154 -3.83471
-16.2516 120.922 -3.11887
9.60155 147.476 -6.44153
-15.1475 116.895 0.00726216
10.0599 132.085 3.43416
-16.1403 123.277 -4.45687
15.3164 147.461 -3.43349
-10.2309 98.8546 13.9098
-17.5843 112.555 1.61967
13.3205 148.441 -4.99452
21.1899 140.889 3.75415
-16.3816 113.286 1.79863
12.0985 133.363 3.8614
15.2272 127.422 9.17839
-17.1494 111.584 2.5708
-16.7639 123.169 -4.45419
17.0255 147.654 -2.47083
-0.931487 102.253 16.7085
5.37585 121.208 8.0961
16.3272 130.048 8.21357
8.91592 130.558 4.13464
-2.97132 100.542 16.8136
-10.1048 135.208 -8.45131
-16.9528 103.595 7.80023
-15.9178 124.532 -4.74504
-16.5935 121.705 -3.31784
-5.57907 99.096 16.4454
15.3063 127.544 9.37135
-14.1229 120.62 -1.33762
4.57417 118.22 9.72818
7.33773 127.063 5.61937
-16.6417 100.893 9.70945
16.3171 133.565 6.15446
-14.5757 119.551 -0.845469
-16.0567 124.361 -4.60165
-14.6829 120.251 -1.31021
-15.4925 117.876 -0.203155
0.552101 106.279 15.2531
-1.9233 102.04 16.6528
-15.9885 115.246 1.21708
13.0401 134.335 4.13426
2.58656 112.159 12.6525
-2.42043 101.805 16.562
-14.4095 119.979 -0.917487
-5.72436 99.6357 16.2431
-15.1249 117.555 0.282831
22.0813 142.925 3.47041
-4.85075 134.376 -4.95165
-16.1803 112.463 2.94289
15.4856 129.448 8.53394
-14.1346 120.148 -0.798741
15.5343 129.547 8.52378
-14.5469 119.768 -0.731594
12.913 134.741 3.96756
-15.4949 126.432 -5.35445
-18.0477 107.425 5.22817
-15.2134 117.21 0.593786
-3.10077 134.948 -4.28503
-6.34467 99.9401 15.9449
-6.72149 99.5229 16.0137
-15.5559 118.051 -0.0690666
18.5051 138.033 4.87266
-13.8899 120.564 -0.748348
-17.2831 108.333 5.17819
3.89308 116.189 11.1309
19.3856 139.4 4.56566
-4.23312 134.738 -4.573
6.6774 143.942 -4.7212
-15.0718 128.143 -5.95088
-14.2971 100.363 11.8055
-2.07431 103.567 16.058
14.8656 129.673 8.44155
-14.6496 121.49 -1.5125
-11.6365 99.616 13.7021
-7.39361 99.9768 15.7089
-14.0272 122.015 -1.44445
14.613 148.778 -3.50708
-3.83158 135.03 -4.34632
15.54 130.731 8.24533
-13.9443 120.41 -0.339192
-14.6842 123.067 -2.36932
-14.4839 122.753 -2.06919
-15.316 127.961 -5.7467
5.95676 124.616 7.22492
-15.4547 120.287 -1.01286
-17.0275 114.331 1.90603
20.8352 141.872 4.06604
-4.32454 103.702 15.0495
-15.5718 121.681 -1.91132
-15.7546 125.294 -4.25174
13.9945 130.991 7.40028
15.0942 148.585 -3.01905
13.3939 133.614 5.48749
-15.4775 123.751 -3.10203
15.7357 131.642 7.94039
16.7809 148.281 -1.88372
-15.5057 119.998 -0.71291
-15.3779 127.545 -5.34426
-7.21499 101.439 15.1625
-10.6795 99.9624 14.3289
-7.52662 101.531 15.0278
-7.91119 100.832 15.2786
-13.8602 122.723 -1.43464
9.79857 134.768 3.13715
1.84357 111.347 13.7244
-16.347 125.685 -4.50931
-3.93399 135.677 -4.39878
-13.4701 120.608 0.149642
-15.9862 126.318 -4.65019
-1.18118 105.364 16.0187
16.0619 136.648 5.31808
-14.618 121.993 -1.21165
-16.0674 122.68 -2.38008
11.2989 149.11 -4.88485
-17.4377 114.254 2.197
-14.2445 113.166 4.56581
-14.7084 121.335 -0.772253
-15.3673 122.585 -1.88425
-4.38773 104.332 15.1293
14.0024 130.667 8.09341
-9.16574 101.677 14.3822
12.774 135.939 4.22021
-2.75257 104.455 15.9471
-14.46 123.339 -1.82592
-10.3208 101.559 13.9098
-15.7292 101.957 10.9073
10.1137 136.111 2.79025
-15.7378 122.731 -2.06599
-14.7246 123.662 -2.12753
-9.43715 102.051 14.0754
-15.3339 120.486 -0.39892
-7.36772 137.114 -6.71021
12.2255 149.391 -4.36099
4.99815 123.209 8.30024
3.87506 118.389 10.7637
-18.1479 106.175 7.13447
15.9155 148.625 -1.95649
4.01193 120.319 9.64383
-5.36142 136.742 -5.40112
8.08965 147.936 -5.5045
4.76953 122.835 8.49114
-14.0334 120.423 0.414123
12.7884 136.997 3.78156
-7.64042 103.752 14.1026
5.5058 124.62 7.79027
-17.0505 122.57 -2.44968
-2.90059 104.736 15.984
-15.5645 121.605 -1.02081
-15.2968 120.834 -0.367364
-6.47355 104.422 14.4074
-14.3795 122.973 -1.21979
13.2721 149.837 -3.85386
13.0031 135.28 5.10363
-16.467 124.626 -3.30562
-6.52587 136.729 -5.74819
-14.3201 120.012 0.713711
-1.76526 106.419 15.6445
-14.7892 123.84 -1.87058
7.81892 131.826 4.70833
-14.4233 123.891 -1.69631
1.69271 112.113 13.9213
-14.2688 122.958 -0.999581
1.1601 110.455 14.697
-14.3752 123.426 -1.34582
-7.22249 137.352 -6.38649
-12.8685 101.123 13.366
-14.2374 101.763 12.2676
6.1836 145.244 -4.43032
-14.9088 110.825 6.29441
-10.6977 136.581 -7.63491
9.61627 136.513 2.81326
11.4587 149.508 -4.32391
-13.7932 117.316 2.89133
-15.2307 123.981 -1.99478
4.3653 122.524 8.94504
-16.3231 125.148 -3.25344
15.8627 136.338 6.21584
-14.2977 119.264 1.47506
9.15277 135.307 3.48002
6.97821 146.451 -4.53277
15.8855 149.101 -1.63045
7.98736 148.368 -5.18681
-7.94035 138.751 -7.31948
2.27578 114.672 13.0005
0.942568 110.213 15.1303
-13.9687 131.009 -5.44256
-6.81952 137.688 -5.893
13.7656 132.447 7.93772
20.2522 143.17 4.5612
16.105 138.255 5.52111
-0.257259 108.583 15.734
-11.0582 136.726 -7.36411
7.74227 148.347 -4.96744
12.7786 150.148 -3.48513
9.36038 150.379 -5.35965
-15.472 116.12 3.34824
3.47466 120.63 10.2398
4.26232 123.305 9.00528
12.3724 139.714 2.90397
-15.363 128.555 -4.29903
-15.1834 125.626 -2.36681
0.85374 111.065 14.956
-15.2364 116.785 3.16711
8.26714 149.22 -5.06597
13.1696 136.726 5.26514
-12.5994 134.222 -6.33662
-8.12661 139.14 -7.11533
-18.7046 122.381 -2.05523
-15.4918 130.496 -5.44719
1.93383 115.001 13.1407
-7.21551 139.006 -6.51804
20.0574 146.572 2.70274
2.76946 143.08 -3.95393
-17.1659 125.221 -2.92467
8.11223 133.655 4.73306
-14.9555 125.658 -2.06443
17.1988 139.981 5.4376
-12.8995 133.768 -6.06423
-3.03053 106.814 15.8341
13.4692 134.902 6.80965
17.654 140.682 5.39844
-15.1111 125.809 -2.03847
-15.7033 126.344 -2.67136
-19.0951 122.831 -2.17805
-0.163014 140.677 -3.63184
-15.1283 119.758 1.80164
-15.5628 125.774 -2.15575
7.17275 131.061 6.18294
19.2921 142.911 4.99685
17.1885 140.426 5.47517
2.89162 118.673 11.8377
-18.9481 120.713 -0.59998
-2.1126 108.181 15.8336
13.3962 137.095 5.74073
17.0108 150.093 -0.522309
-16.9923 117.02 2.76244
-0.705564 140.576 -3.60996
-14.2998 117.497 3.86414
5.91644 146.74 -4.06021
-15.1834 119.145 2.40416
5.68864 146.504 -4.01143
-14.6629 120.082 2.10983
-9.62977 104.689 14.3127
14.1973 150.305 -1.9809
-15.268 131.335 -5.18929
-14.7961 125.856 -1.51168
-14.4495 125.992 -1.41529
6.60163 130.063 6.80981
-18.4635 125.372 -3.06088
-18.6322 125.772 -3.38878
16.1977 150.142 -0.781393
19.5103 144.759 4.28043
-8.14107 105.815 14.483
-2.15112 140.039 -3.80856
19.0778 147.441 2.43003
-10.7669 104.22 14.1907
-19.5553 123.31 -2.22028
-6.638 106.649 14.7959
-15.1751 119.241 2.57233
17.9148 149.152 0.820849
3.38551 122.686 10.0067
6.92938 133.023 5.37028
5.41026 146.69 -3.9335
-18.4699 127.243 -3.96256
-6.29166 139.472 -5.37417
-13.2165 135.001 -6.10691
4.00928 124.438 9.33238
-15.6224 130.763 -4.64907
-12.3905 136.794 -6.76123
-14.5673 127.524 -2.05737
-11.156 137.739 -6.68195
-19.1889 125.404 -3.04906
-6.82083 140.292 -6.01922
7.77544 136.872 3.6529
-16.92 107.397 9.44976
-2.18806 108.945 16.0368
18.9701 145.143 4.27858
16.4509 150.403 -0.294575
13.8157 138.159 6.02798
-14.8809 104.445 12.4211
-13.4075 135.48 -6.17819
-16.6876 117.677 3.26703
-17.1907 127.604 -3.16
-19.3472 119.208 0.994299
-18.7101 127.649 -3.93566
-21.4089 116.223 1.85066
4.77592 126.849 8.61201
-15.0167 127.03 -1.60265
-0.135752 142.214 -3.47894
1.29978 117.17 12.8985
13.6469 140.516 4.62991
-3.22514 140.79 -4.15383
-16.1736 110.122 8.38586
-15.7029 131.421 -4.66899
-16.8396 129.476 -4.03476
15.7878 140.083 6.07496
-15.779 118.567 3.40973
6.8627 132.277 6.43648
7.24672 149.649 -4.2032
0.227782 114.842 13.971
-12.2401 137.618 -6.62571
6.79998 134.689 4.94467
-13.9152 114.382 7.0407
3.39316 145.791 -3.72515
-13.8322 134.043 -5.18038
-1.72076 141.459 -3.62044
-19.8946 115.295 3.43346
0.166528 114.777 14.0226
0.32491 142.896 -3.43479
-9.87112 139.642 -6.60117
-7.9152 106.94 14.8342
-14.3113 129.337 -2.39581
-17.2166 128.692 -3.42496
-1.68903 141.684 -3.59519
15.3755 139.854 6.31382
17.0608 143.233 5.07757
4.19774 146.763 -3.68532
-12.6566 137.634 -6.59292
14.3259 138.457 6.69714
10.5345 142.074 2.50994
-16.2563 130.457 -3.88992
-10.0673 139.9 -6.61447
1.3151 144.302 -3.53032
-3.49828 108.883 16.1362
-20.1407 126.052 -3.01543
2.98079 123.644 10.3119
13.0114 142.361 3.75211
14.2529 150.872 -0.917707
7.66935 138.382 3.55098
0.547986 116.452 13.6441
0.624682 116.705 13.5407
12.8323 142.917 3.44755
-11.769 105.775 14.075
13.6782 141.404 4.84501
6.81048 150.006 -4.0282
-15.2198 115.211 6.4476
-15.3052 119.052 4.01726
-15.357 130.873 -3.38341
-20.6896 125.279 -2.59781
-14.4852 128.858 -1.61255
1.9832 119.673 12.5466
-12.2523 105.903 13.8813
-5.5967 141.328 -4.83937
14.51 139.15 6.84255
-15.9012 130.815 -3.47134
-12.0468 106.103 13.9461
-15.6261 131.943 -4.00482
8.63769 140.022 3.38675
-21.5184 122.149 -0.845827
4.80047 148.317 -3.71196
4.35063 127.888 8.89088
-8.78308 107.44 14.9599
-14.3788 105.977 13.022
14.1284 151.246 -0.622806
-11.3778 140.014 -6.62845
-15.6906 128.772 -1.78804
-16.6266 118.004 4.46381
-3.07091 110.461 16.1227
2.39175 146.495 -3.58805
14.9027 142.352 5.41146
4.31957 128.158 8.88261
-8.83103 142.319 -6.66647
-5.11779 142.068 -4.59655
-15.5302 131.79 -3.49964
-2.13852 142.966 -3.61975
-14.378 116.86 6.42918
-11.841 139.749 -6.56184
-14.4577 117.764 5.83852
-10.5269 106.835 14.6768
-3.39491 142.588 -3.98375
-15.9198 111.084 9.41415
-14.222 120.754 4.24871
-0.568693 144.079 -3.33331
-14.5344 116.72 6.61683
-1.37006 113.51 15.3704
-13.6421 120.941 4.4679
12.8616 144.473 3.41077
12.1904 151.724 -1.45312
-14.9807 129.625 -1.52345
-14.0451 120.676 4.56146
2.75051 124.884 10.5313
2.02363 122.238 11.8189
4.882 149.23 -3.57569
-16.3804 118.354 4.92716
-6.75642 142.648 -5.3249
-14.6304 120.018 4.78832
-6.20027 142.489 -4.90074
0.862713 118.795 13.512
-14.2579 136.045 -4.97302
-7.83491 143.118 -6.10211
6.98647 139.864 3.56886
-6.65356 142.898 -5.26531
6.71166 136.55 5.54427
-22.2865 124.549 -1.77868
-1.37181 144.243 -3.3703
13.554 144.283 4.24251
-13.5023 137.433 -5.29931
-15.3921 112.296 9.44941
-14.2342 114.478 8.67866
-4.81535 143.127 -4.38347
2.56889 147.691 -3.44357
-0.0379734 117.327 14.193
-0.16288 116.966 14.3652
-17.9518 117.501 4.9415
-11.8224 140.366 -6.1957
-20.2736 117.02 4.10159
-15.4612 132.318 -2.97011
10.7866 151.965 -1.81624
12.0672 146.873 2.02681
-3.9526 112.155 15.5383
4.30936 149.323 -3.44981
-8.00468 143.853 -6.30676
-10.756 141.367 -6.14918
-18.9324 130.315 -3.42098
-5.73957 110.366 15.784
-10.9994 107.947 14.6523
-3.6965 112.926 15.279
-14.3896 121.492 4.50341
13.4207 152.085 -0.373551
6.48938 138.175 4.77281
10.9959 146.289 2.02174
-4.16942 143.706 -4.10931
-23.2347 121.844 -0.157724
15.5179 149.449 2.42121
-3.21365 144.025 -3.74811
-16.3594 109.654 11.0105
12.2118 152.136 -0.888257
-15.5969 132.986 -3.14234
16.1104 147.558 3.96669
-1.28796 116.552 14.4436
-14.6595 113.013 9.83514
-19.671 129.639 -3.09776
-22.6243 118.437 2.38976
7.22904 141.885 3.00859
-14.3356 118.773 6.43673
-23.4198 118.518 2.00069
-6.38304 143.873 -5.09403
-15.6348 133.533 -3.36276
-17.5534 118.184 5.26124
-13.5828 121.051 5.50528
0.96863 120.35 13.4309
1.4396 122.068 12.6592
8.78058 152.622 -2.6562
5.85557 151.553 -3.45596
-14.0685 114.594 9.45015
-5.31173 111.305 15.985
-21.5808 117.907 3.60473
-16.3576 132.141 -2.61086
-14.532 131.723 -1.41394
-17.9203 118.218 5.31989
-15.6898 134.037 -3.41598
-15.2909 132.623 -2.32161
-24.2341 120.685 0.578072
-6.09993 144.292 -4.88362
-10.0817 109.055 15.0904
-8.34323 110.089 15.3676
-15.5982 109.102 12.2787
-5.6381 111.37 15.9795
0.546731 147.156 -3.20825
-15.039 131.429 -1.30848
-11.2611 141.475 -5.63186
-8.46655 110.106 15.3921
-13.4251 108.72 13.7479
-4.11922 144.77 -3.96536
-2.26887 145.451 -3.39099
-0.0844371 119.741 13.7927
-24.3086 120.984 0.641407
-15.3196 111.651 11.14
-24.3331 119.155 1.93169
-14.8188 109.17 13.0408
2.80119 149.69 -3.24579
-0.747992 118.906 14.1929
-15.2304 121.345 5.27512
-18.1711 118.714 5.42162
-9.30855 109.908 15.4608
-10.9849 109.416 14.9595
-10.8341 142.243 -5.41997
-14.2666 119.283 7.17942
-20.0603 129.909 -2.37146
-14.3416 114.222 10.3597
6.00331 139.175 5.17762
-15.2739 132.84 -1.73263
-25.5266 119.849 1.14913
3.90708 130.624 9.48162
-13.9845 139.541 -5.21886
-15.5441 109.935 12.4789
-26.8256 119.613 0.691029
-4.36228 115.81 14.6058
-20.956 118.362 4.53735
-13.221 140.232 -5.15892
-14.0642 139.6 -5.12943
0.0741577 121.699 13.2852
-0.793541 147.209 -3.07618
-14.7946 122.236 5.36911
13.3069 151.375 1.53704
-15.0134 137.898 -4.50172
13.5069 151.102 1.84465
5.91091 137.378 6.56765
1.86637 149.628 -3.13816
-24.0981 124.289 -0.578582
-15.3138 121.951 5.40678
-22.4668 127.028 -1.39926
-17.8994 132.059 -2.19677
-22.8638 126.44 -1.22421
1.29649 124.401 12.4146
-22.923 119.63 3.12281
-25.7587 120.74 1.01173
3.73804 131.014 9.70069
-26.8732 121.033 0.30972
-25.4977 119.831 1.77623
-15.0183 138.81 -4.70803
-25.8573 120.167 1.44139
-19.9955 118.678 5.37237
1.19998 124.712 12.4745
4.17908 135.507 7.31534
-23.1122 126.433 -0.893723
-22.6096 119.848 3.4934
-14.2852 123.075 5.75129
-25.8789 119.635 1.99713
-20.4114 118.803 5.33952
-23.6891 119.789 3.07443
8.12927 147.125 2.27039
-14.8316 135.505 -2.1977
4.5305 152.789 -3.0836
-5.68495 146.917 -4.62629
-14.0151 110.858 13.6891
-17.9962 133.951 -2.76512
4.49355 152.887 -3.06872
-15.5441 134.735 -1.95977
9.27993 148.903 1.88329
2.13943 150.945 -3.03874
-21.3673 119.561 4.56002
-15.3315 137.196 -3.35486
-8.52142 146.571 -5.70266
-27.1451 121.158 0.665154
-11.8368 111.198 14.7363
-18.8838 119.867 5.74962
-4.70288 117.153 14.7165
-3.44485 118.354 14.6335
-14.9818 136.129 -2.36017
9.37646 149.424 1.80741
-15.0771 135.999 -2.3019
3.2138 136.566 6.70892
-15.36 122.156 6.24737
-24.9375 122.026 1.48704
-11.0345 111.569 15.1338
0.948947 125.317 12.6779
-11.4669 112.184 14.5642
-14.8656 137.002 -2.67139
-14.1807 111.496 13.6116
-14.9425 122.835 6.1485
-22.8791 127.09 -0.539107
-23.9351 120.055 3.32563
-13.9535 140.895 -4.58671
-9.91256 145.778 -5.46159
-11.1835 112.477 14.7791
-25.7874 121.041 1.96685
11.2177 152.414 1.31924
-13.8487 141.317 -4.56253
-15.1704 122.139 6.74301
-9.66939 146.388 -5.57651
3.25144 133.448 9.116
-2.73871 148.134 -3.09452
0.567835 150.618 -2.90453
-14.8285 123.035 6.45514
-5.16968 147.994 -4.16501
-26.8628 119.919 2.29623
-5.03673 148.021 -4.06071
10.6338 152.061 1.45574
7.36564 147.46 2.70038
-5.97723 117.254 14.7506
-15.4946 122.467 6.63023
-12.9378 114.242 13.0915
-8.59584 114.236 15.3236
8.13226 153.891 -0.884507
-14.6516 116.997 10.5306
-17.7778 134.628 -2.04844
-10.2726 112.675 15.5388
-24.7198 120.413 3.321
-14.9239 114.003 12.3534
-13.9277 141.848 -4.52842
-15.0093 123.794 6.1984
2.81104 139.382 5.58376
2.19369 136.458 7.10901
-1.37424 137.093 4.92297
-0.212573 125.43 12.8058
-14.8574 116.577 10.8765
1.63013 135.24 7.65481
2.66494 152.98 -2.88296
4.7858 143.674 4.01798
-14.0414 113.582 13.1957
-14.2516 113.185 13.3487
-12.2986 114.138 13.7703
-26.4859 120.308 2.74302
10.3743 154 0.592216
9.70252 152.305 1.3095
-15.2188 124.786 5.76297
-14.6363 121.192 8.31667
-22.3758 129.317 -0.710164
-1.75124 138.944 3.82496
-15.4307 124.211 6.06657
-4.41677 120.094 14.2834
-14.6766 121.211 8.37692
-0.960225 140.951 3.06094
-22.7863 121.114 4.29651
-25.6022 122.614 1.94507
-27.2239 120.65 2.38048
3.9282 143.722 3.94008
1.73041 129.985 11.4296
-15.1462 139.24 -2.95107
-23.3503 121.171 4.15965
8.22913 149.972 2.34433
-1.1353 141.082 3.1101
-15.188 120.385 8.86453
-9.36493 147.811 -5.26473
-6.33788 118.041 14.9001
-6.94937 148.916 -4.68472
-23.335 121.274 4.20523
2.30482 140.875 5.07979
-3.34416 122.58 13.6355
-6.38136 118.073 14.9072
-10.2514 114.085 15.429
3.13346 153.72 -2.36299
-4.40389 121.131 14.1492
-21.4021 131.104 -0.751246
-1.0642 126.173 12.7669
-14.8141 125.326 6.29579
-12.105 145.065 -4.63916
2.37301 132.404 10.6925
-0.477813 135.233 7.47478
2.55081 142.837 4.2864
0.335921 127.924 12.4725
-27.5826 120.658 2.74514
-10.0875 114.86 15.3181
-9.74175 114.985 15.425
-13.6844 126.969 5.9259
2.46585 142.791 4.30896
-0.203148 138.014 5.96435
-14.9206 141.764 -3.87538
1.33281 133.876 9.36222
1.26825 138.553 6.42757
-5.81671 119.318 14.8263
-25.901 124.53 1.305
1.11775 129.932 11.7774
-3.05714 123.939 13.3979
0.400377 137.671 6.59949
-12.7822 125.592 7.40926
4.13533 145.097 3.87687
-4.45892 149.549 -3.29344
-15.2584 140.019 -2.85204
-7.18513 118.126 14.9547
-14.6458 124.358 7.27414
9.21934 153.096 1.54209
2.04061 153.529 -2.39561
-0.680678 151.57 -2.54688
-15.6546 137.7 -1.51727
-22.2747 130.528 -0.406045
1.00998 138.579 6.49504
-15.3478 124.252 7.08297
-12.5419 125.484 7.7652
0.308482 128.672 12.3441
-0.538956 139.038 5.43715
-14.7627 141.609 -3.43547
-1.73678 140.771 3.78048
1.38643 140.784 5.37894
-2.72049 124.997 13.1749
0.838454 138.525 6.57386
6.42135 148.214 3.41238
-1.44146 140.243 4.43705
-14.8895 142.532 -3.83975
-15.2435 125.815 6.4718
8.3538 154.682 0.559863
-9.57696 116.835 15.0339
-4.23993 150.148 -3.0135
-0.419359 139.377 5.67646
-11.6682 116.935 13.996
-1.37391 135.982 7.37357
7.09704 154.664 0.0358588
-15.553 120.881 9.57722
-16.4149 137.786 -1.41477
0.618477 134.128 9.58942
0.791838 141.061 5.35385
-24.8843 122.194 4.01763
1.04458 142.487 4.59852
0.645666 140.457 5.69333
-1.82894 151.334 -2.36459
-12.6443 145.225 -4.02114
-10.8709 147.547 -4.56091
0.270544 134.336 9.40638
-9.24405 117.473 15.0746
8.80929 153.195 2.00046
-21.2539 134.026 -1.3937
7.83412 154.747 0.548333
-3.1349 136.683 6.23261
-23.6595 128.627 0.794075
-13.178 124.66 8.67566
8.19004 154.79 0.802754
-1.88996 151.557 -2.31715
-6.98995 150.258 -4.09112
-16.6321 138.078 -1.4023
-3.41964 138.07 5.43509
5.30679 146.338 4.75053
-11.2272 126.599 8.63743
-4.47771 123.608 13.9694
-16.4228 124.616 7.23571
-13.7794 117.168 13.2499
-22.076 122.107 5.96149
-0.593012 153.1 -2.39091
-5.10917 122.744 14.2644
-0.0312399 131.479 11.4165
-9.36472 149.164 -4.39905
-24.2587 122.65 4.55531
-5.17001 122.69 14.2912
-23.2981 122.767 5.03517
-15.3679 126.182 6.99415
-5.23779 150.858 -3.23905
-8.31434 119.256 14.9333
-15.1429 123.44 8.83529
-0.301449 131.256 11.5563
-0.928957 133.652 9.74194
-14.9432 143.3 -3.42536
-9.11122 118.85 14.8676
8.61706 153.7 2.18568
-25.1429 122.723 4.29846
-10.0959 148.86 -4.30626
-0.470138 153.603 -2.32968
-11.8762 125.616 9.34496
-2.33445 136.09 7.69515
-13.9705 144.088 -3.20996
-25.6752 122.821 4.13895
-14.2279 120.538 11.4317
-16.4544 139.496 -1.42878
-2.33551 135.887 8.0446
-3.66715 139.897 4.86643
-16.2489 125.553 7.45611
-4.3638 125.568 13.546
-1.48265 153.091 -2.16048
-17.2884 124.522 7.61809
-21.8024 133.772 -0.464147
-16.0735 125.826 7.43876
-14.2699 121.049 11.3509
-13.8843 128.582 6.86324
-5.32367 123.877 14.1918
-22.8314 130.34 1.21712
-2.69461 128.156 12.8863
-1.93884 129.827 12.242
-13.1427 118.654 13.4981
-22.9063 130.112 1.37196
-27.6395 124.764 2.35903
-26.3185 127.524 1.32604
-3.46982 132.067 10.186
-18.3755 123.739 7.78504
-12.8811 119.1 13.4957
-3.27924 152.369 -2.3336
-13.6873 119.326 13.002
-13.6176 119.429 13.022
-14.1453 121.285 11.6197
-12.1395 128.152 8.36415
-11.3389 148.23 -3.72904
-15.031 144.114 -3.04301
-16.4301 140.199 -1.30152
-14.4364 128.586 7.00754
-11.2896 126.943 9.69952
-3.93644 126.953 13.5267
-9.58221 121.237 14.216
-13.4266 119.396 13.4079
-13.5912 120.301 12.7672
-21.8644 134.908 -0.568709
-24.856 123.571 4.99635
-4.74123 132.154 9.97025
-4.70076 132.232 9.95501
-12.9037 146 -2.81059
-21.7619 135.276 -0.631239
-20.0747 123.775 7.41542
-3.30208 135.54 8.65119
-12.4843 120.65 13.3656
-3.60155 134.267 9.44262
-8.28908 123.488 13.8421
-4.79182 129.021 12.1779
-11.7864 126.421 10.2645
-19.1067 124.579 7.67614
-5.02336 129.454 11.9256
-16.1585 141.785 -1.46221
-27.1971 126.83 2.26008
-6.43019 132.55 9.37478
-5.62077 125.97 13.9414
-13.2215 120.676 13.3713
-6.16909 131.756 10.0699
-13.9823 123.056 11.5299
-17.7176 125.417 8.23019
-25.3776 129.279 1.94648
-11.2232 127.8 10.1298
-2.58171 154.181 -1.91989
-23.0984 124.286 6.28758
-5.59202 130.152 11.5816
-13.6201 121.814 12.7044
-2.83573 154.087 -1.90443
-12.9498 129.678 8.19149
-6.0882 152.535 -2.55823
-7.26899 125.021 14.0424
-8.15176 124.461 13.9456
-7.82006 133.205 8.65769
-5.20614 133.379 9.91657
-5.04595 127.588 13.6162
-8.04652 134.683 7.68048
-9.46045 131.575 8.97556
-10.5743 123.332 13.5593
-25.5985 124.897 4.91555
-8.46859 134.334 7.83024
-6.47342 134.522 8.74001
-6.21119 134.361 8.97752
-11.2524 130.598 8.7747
-8.23721 133.134 8.77665
-11.9516 130.38 8.61958
-9.00276 134.262 7.71324
-21.2361 125.371 7.05179
-18.0472 139.941 -0.3982
-5.01131 134.878 9.47651
-9.20069 132.903 8.6042
-5.79233 139.63 6.20635
-11.2952 128.107 10.6275
-6.05256 139.233 6.3778
-5.74351 139.963 6.09587
-9.03097 134.986 7.52872
-22.2566 125.786 6.52647
-8.68009 135.091 7.66956
-18.5659 139.54 -0.139656
-7.24599 127.727 13.0395
-4.03313 154.266 -1.88226
-9.287 125.176 13.7337
-7.68112 138.154 6.47158
-9.77616 134.071 7.95732
-6.55791 128.487 13.1267
-10.3821 126.269 12.6476
-7.8242 129.469 11.9608
-12.5551 124.099 12.8974
-5.70009 138.149 7.63544
-26.3669 126.705 4.24613
-9.20412 135.445 7.58387
-12.4443 124.236 12.929
-23.8314 126.364 5.79678
-6.4172 138.081 7.38669
-12.1932 131.572 8.52934
-7.97822 138.735 6.26375
-5.95388 143.49 4.34282
-25.6303 129.88 2.78488
-21.9078 136.562 0.516401
-17.6876 127.17 8.61058
-14.5427 145.207 -1.03027
-12.7177 147.765 -1.68767
-16.2208 129.672 7.86894
-9.34478 126.842 13.1695
-12.97 147.344 -1.46386
-6.19285 144.857 3.92323
-12.4521 133.337 8.00297
-14.272 131.529 8.43056
-6.4658 144.71 4.25146
-22.5996 136.041 1.4885
-24.9207 128.004 5.39119
-6.75633 143.343 5.19989
-20.4477 128.763 7.3114
-6.70695 142.594 5.82133
-9.44136 138.359 7.13901
-20.9712 129.043 7.11231
-8.59097 139.591 6.85382
-16.4078 144.826 -0.325537
-23.0342 134.538 2.72278
-10.7567 137.277 7.3106
-10.9467 135.456 8.37709
-23.0487 134.437 2.90627
-6.81802 142.258 6.32396
-25.2065 130.142 4.50204
-9.12317 139.661 6.79104
-23.9404 129.866 5.33433
-18.9114 129.404 8.28819
-20.0103 129.576 7.62599
-7.03872 142.567 6.22419
-20.3727 140.455 0.746953
-11.4292 137.374 7.27576
-20.4336 140.47 0.774817
-7.32712 142.232 6.56129
-19.8987 130.034 7.7837
-16.8027 131.005 8.88013
-22.78 131.279 5.67968
-7.45696 142.98 6.2277
-19.6977 141.622 0.842611
-23.4046 133.224 4.23376
-21.4935 138.305 2.10387
-16.2755 131.75 8.8817
-19.3031 142.55 0.682941
-23.4333 133.514 4.29917
-19.9769 141.722 0.980651
-13.0069 135.16 8.67028
-11.3602 139.047 7.13094
-18.8711 131.274 8.27222
-8.02919 148.142 3.30577
-13.5142 134.702 8.8997
-7.85691 148.763 3.01015
-9.20647 152.559 0.0997129
-24.1155 133.117 4.63712
-7.75827 150.044 2.46735
-21.4261 131.596 7.00641
-7.78358 149.988 2.49389
-19.7643 142.515 1.09112
-7.98473 149.825 2.59136
-22.1521 138.079 2.70939
-7.66542 152.625 1.12473
-8.6892 147.245 4.03941
-12.1542 139.304 7.2871
-20.5461 142.039 1.2941
-13.5734 148.379 0.909912
-8.68086 146.432 4.6711
-14.3988 134.899 8.95279
-8.07241 151.26 1.97526
-8.38248 150.42 2.36755
-8.94134 151.775 1.24204
-23.9617 133.639 4.92666
-20.7561 141.793 1.49441
-8.65447 149.095 3.12494
-21.2959 132.299 7.18492
-14.8811 147.476 1.00628
-11.8582 150.619 0.618697
-14.44 135.274 8.90358
-21.6216 132.443 7.00888
-14.1914 135.474 8.93677
-12.5537 138.823 7.69264
-12.5977 136.776 8.97133
-23.0519 133.139 5.94827
-21.7248 132.679 6.96259
-16.8547 133.719 8.85538
-12.8721 137.759 8.63369
-9.58575 147.774 4.07663
-11.3995 141.575 7.03743
-10.8526 150.854 1.5284
-20.0075 133.862 7.46683
-15.4513 135.548 8.766
-9.84767 145.181 5.66393
-12.9826 137.373 8.96962
-9.70414 147.402 4.38454
-10.1862 151.04 1.96114
-12.6746 139.874 7.66472
-14.8942 136.734 8.66351
-15.3294 136.578 8.58342
-21.6162 133.94 7.11736
-16.562 146.437 1.90577
-10.8216 144.741 5.93017
-10.9236 144.658 5.9759
-15.9997 136.405 8.67246
-12.2019 150.137 2.04409
-22.8362 134.551 6.39665
-10.827 149.325 3.38915
-23.3616 134.859 6.06482
-13.8829 138.52 8.78829
-15.9032 147.151 2.39957
-23.2174 136.014 5.65274
-22.9666 136.501 5.57083
-19.5888 143.681 2.82103
-17.1548 135.775 9.04287
-11.9561 147.907 4.55503
-22.0621 136.582 6.54867
-22.1125 137.585 6.0098
-15.3668 147.712 3.16646
-21.4113 136.622 7.12009
-18.1496 137.013 8.59814
-20.7406 136.318 7.70987
-20.6163 136.835 7.65689
-15.0895 139.956 8.54415
-18.6685 137.337 8.39556
-19.7655 136.864 8.19067
-18.1419 138.18 8.30878
-14.9204 147.846 4.05311
-16.9993 139.346 8.32209
-17.6073 139.029 8.22515
-14.1796 148.151 4.32208
-20.167 141.526 5.63154
-18.6342 139.618 7.72966
-20.1988 141.313 5.87733
-17.8597 145.163 4.71376
-14.6833 142.772 7.929
-16.7816 145.753 5.08349
-18.8201 140.678 7.2571
-18.5024 143.83 5.51201
-19.4885 141.966 6.23073
-13.9833 145.566 6.86814
-17.2082 141.306 7.9102
-13.946 144.216 7.77502
-17.5873 144.612 5.72132
-18.6031 141.556 7.11145
-15.8125 142.208 8.173
-15.6211 143.333 7.78082
-15.7209 143.39 7.70452
-16.4497 144.902 6.52114
-16.0802 145.199 6.52646
