ply
format ascii 1.0
comment Created by Open3D
element vertex 1988
property double x
property double y
property double z
end_header
-17.9936 99.7773 -7.54576
-9.06942 143.082 4.72164
-7.03468 140.961 -4.93289
-22.8605 105.593 16.4962
-27.5724 86.1761 13.6806
-8.50953 144.745 4.52458
-13.0945 119.293 -4.97067
-27.3726 85.916 12.946
-19.624 92.8028 -8.32142
-19.6722 92.5577 -8.36171
-4.09913 152.672 -2.99529
-8.5553 144.04 4.51459
-22.7686 81.8366 -7.83862
-11.6675 135.626 7.42502
-9.23381 141.209 4.31224
-14.2913 130.119 11.5955
-14.7525 110.339 -7.26416
-6.37146 142.068 -4.80603
-20.6514 87.416 -9.00635
-10.9082 126.535 -4.07944
-18.8606 115.682 13.8688
-9.681 130.807 -4.13289
-24.0709 99.2623 16.0071
-18.3976 117.144 13.7817
-15.263 126.746 12.4236
-15.6251 105.27 -8.57246
-24.0854 96.8342 13.7761
-14.4782 128.956 11.9942
-8.0397 135.58 -4.41242
-12.6445 118.862 -4.81761
-23.7591 97.6667 14.1148
-22.8539 79.9926 -7.51453
-19.8905 88.6436 -9.31551
-4.10675 149.333 -4.05601
-18.2324 95.7611 -7.6021
-10.7505 125.307 -4.21631
-25.901 91.2297 16.1506
-19.2597 90.6164 -8.87087
-3.3728 152.082 -3.33952
-3.0833 154.057 -2.12841
-26.8251 84.9387 13.3149
-19.1806 90.6225 -8.87186
-11.9214 120.621 -4.32293
-23.5519 98.3756 15.3929
-8.32062 133.63 -3.83051
-10.7221 124.733 -4.20926
-23.6551 99.0207 16.6445
-20.953 107.286 15.4915
-9.75452 138.034 6.378
-25.3557 92.2823 16.1904
-16.0859 102.163 -7.6009
-23.2727 76.837 -7.47791
-22.6866 78.1717 -8.08919
-23.4181 97.2494 14.4665
-10.8729 123.445 -4.33068
-26.1155 89.0019 15.9437
-19.9925 109.229 14.5682
-10.3227 125.627 -3.90714
-13.9584 108.35 -8.46488
-17.9495 94.4615 -8.20554
-9.67405 128.069 -3.65217
-16.2199 121.486 13.679
-17.4854 96.6478 -7.49064
-23.8238 95.9254 15.0793
-13.9501 106.89 -9.7854
-18.8023 90.5083 -8.87594
-12.7156 114.912 -5.82448
-11.611 133.015 9.05935
-23.9071 95.2131 15.136
-15.457 102.823 -7.95674
-26.1106 87.8669 15.7032
-13.8638 127.707 12.3039
-12.3745 131.309 10.6132
-6.0224 139.299 -4.23831
-3.0604 150.181 -3.73575
-26.542 84.0212 13.8201
-23.8194 95.4346 15.8408
-23.0344 97.2159 15.0872
-8.09258 132.155 -3.47886
-16.197 99.4954 -7.57524
-19.356 109.407 14.5141
-20.7082 82.1494 -8.62892
-12.7905 111.914 -6.75835
-9.9622 124.576 -3.84258
-22.9554 97.9341 16.2201
-2.3591 151.965 -3.26478
-12.253 130.684 10.9753
-16.9829 95.562 -8.10238
-18.376 89.6155 -9.08609
-16.3046 98.268 -7.6584
-15.9168 99.579 -7.71024
-18.6988 110.734 14.1545
-12.9589 128.756 11.8404
-12.8552 110.676 -7.32099
-7.72712 140.346 4.72519
-4.3625 144.012 -3.82657
-10.0826 123.236 -4.12189
-16.962 94.8035 -8.3842
-5.84286 145.422 3.48445
-12.9942 107.795 -9.33837
-24.8487 89.2374 15.1315
-24.3045 92.5608 16.6337
-11.8781 114.549 -6.02189
-12.4372 111.162 -7.34531
-11.0601 118.195 -5.07457
-22.6982 97.31 16.0391
-17.2162 92.8353 -8.69256
-9.76464 135.412 8.24542
-15.289 100.134 -8.00486
-12.6554 128.372 11.8389
-13.3626 126.251 12.3058
-19.7918 106.857 15.8173
-17.4042 113.589 14.1459
-10.3514 120.955 -4.10945
-14.3267 123.376 13.2697
-20.0032 81.6722 -9.19427
-5.1811 139.504 -3.52151
-21.5861 101.678 17.4549
-17.3986 90.7039 -9.22636
-12.3655 108.196 -9.50373
-4.68482 140.936 -3.5904
-6.72582 134.131 -3.16118
-13.0946 126.319 12.1855
-24.0878 91.4901 16.4652
-24.2984 88.983 14.883
-16.9724 92.0178 -8.88612
-22.4906 97.8653 17.4788
-6.45779 141.63 4.30561
-19.8034 105.919 16.3238
-19.2798 83.1763 -9.12182
-15.789 117.516 13.807
-11.6339 129.498 11.0383
-9.61913 134.5 8.89929
-8.89545 124.846 -3.75525
-5.07689 145.143 3.32921
-2.55351 147.505 -3.46882
-9.96234 133.572 9.27752
-17.8783 87.0296 -9.89673
-2.65684 146.958 -3.47114
-1.88373 149.682 -3.46602
-4.60299 140.179 -3.33085
-19.4844 81.3578 -9.60607
-10.9214 114.535 -6.53662
-5.15243 144.229 3.2113
-14.5853 99.8399 -8.21003
-15.1812 97.6557 -7.97069
-12.1428 106.218 -10.231
-8.0363 137.245 6.96643
-19.1016 81.9704 -9.62777
-20.728 102.089 17.3012
-11.4102 129.004 11.0529
-14.1647 121.922 13.8357
-11.1804 111.206 -8.20858
-11.3844 110.065 -8.58178
-23.6641 88.9602 14.6292
-0.619044 154.331 -2.02027
-10.7922 112.827 -7.75626
-5.66951 142.106 4.03607
-6.79693 131.489 -2.77057
-19.7265 79.2152 -9.5474
-25.5387 82.8623 15.6218
-11.1802 110.172 -8.66892
-15.0745 96.4123 -8.37449
-22.6814 94.6476 17.8263
-17.8246 108.734 14.639
-12.0925 105.248 -9.85566
-10.8338 110.644 -8.84635
-18.5437 106.923 15.7654
-2.69128 144.587 -3.26108
-3.24091 142.73 -3.15576
-2.02931 146.904 -3.2533
-18.4668 107 15.6835
-22.7359 92.9397 16.7616
-16.0936 91.3033 -9.3304
-4.82457 137.493 -2.6488
-21.801 96.8783 17.5303
-10.9026 108.993 -9.89732
-8.47266 122.792 -4.32862
-9.44297 117.583 -6.13768
-3.26999 142.246 -3.0662
-16.2371 89.8528 -9.7898
-9.33726 117.543 -6.32751
-6.87636 129.203 -3.21946
-22.4713 94.3786 17.896
-18.9189 80.014 -10.0543
-8.20566 123.53 -4.15109
-19.5024 104.053 17.1214
-10.1236 112.163 -8.91434
-6.5783 130.436 -2.92876
-22.9162 89.2 14.3615
-12.0914 125.197 12.1191
-9.91885 112.367 -9.05419
-8.55409 120.881 -5.19611
-21.5849 97.2417 18.1442
-8.21126 122.609 -4.6011
-9.60899 113.613 -8.77205
-21.334 98.5749 18.7002
-3.93166 139.461 -2.72372
-10.9655 107.226 -10.2874
-17.0197 109.894 14.7941
-0.956775 149.389 -3.16205
-12.2332 103.436 -9.45337
-13.3327 121.788 13.7006
-22.16 94.1856 17.4562
-13.9644 119.712 13.9091
-19.5215 77.2971 -9.70463
-5.42832 141.044 4.8742
-14.4511 96.2754 -8.49788
-8.80761 117.098 -7.48433
-9.21038 132.127 9.65462
-19.3605 103.527 17.2307
-15.3207 115.129 14.5135
-8.32172 134.587 9.07054
-4.7265 142.302 3.89111
-9.07092 114.804 -8.72062
-8.21791 134.798 8.94112
-21.7426 93.4208 15.7494
-8.26241 134.621 9.05685
-7.96106 120.725 -5.95734
-7.01448 136.869 7.36709
-5.82494 131.019 -3.07724
-17.2199 107.944 14.8618
-5.26352 133.406 -2.49078
-7.50016 135.771 8.24633
-21.8634 92.2112 15.777
-18.8996 78.0035 -9.81188
-20.3583 99.3044 17.7764
-7.89615 119.971 -6.49976
-16.6996 109.211 14.9895
-9.4753 111.011 -9.65676
-9.99203 128.378 10.5357
-14.9124 114.784 14.6285
-7.80897 134.567 9.17625
-14.4169 93.4831 -9.12513
-11.1886 125.193 12.0131
-9.34095 110.647 -9.81578
-19.7011 98.0984 15.2257
-3.75278 137.413 -2.50987
-23.7168 83.7882 15.163
-19.5824 99.3339 16.1638
-7.28938 120.726 -6.76172
-19.5285 98.538 15.1682
-13.6036 96.7376 -8.4021
-18.2646 104.418 16.8855
-22.2529 87.8644 14.357
-9.4342 109.607 -10.148
-5.98223 127.835 -3.87643
-19.5161 98.6274 15.5241
-13.8129 117.362 14.0441
-23.1305 85.0029 14.6853
-21.0637 94.3972 17.1127
-13.8895 94.3858 -9.18469
-21.0114 94.0278 16.8135
-14.1377 93.254 -9.19702
-16.7294 82.8397 -10.4021
-19.7101 98.2151 16.5495
-7.4988 117.038 -8.6483
-19.3708 97.3485 14.5351
-11.7387 122.739 12.9664
0.830338 152.11 -2.68936
-18.1983 103.82 17.0744
-8.48903 112.63 -9.25509
-4.57323 131.782 -3.71533
-2.25942 146.444 3.11306
-4.46023 131.963 -3.69253
-10.6528 103.793 -10.2085
-6.36896 121.599 -7.2144
-4.197 133.596 -2.71974
-7.4156 116.223 -8.9382
-16.6208 81.8184 -10.8553
-22.8718 84.6249 15.0609
-18.9855 96.5796 13.2852
-0.0677266 147.993 -2.68743
-16.0066 84.261 -10.3495
-8.24784 112.695 -9.26084
-1.6164 142.476 -2.61488
-11.4817 101.055 -9.35216
-2.90774 143.607 3.38331
-9.45689 107.418 -10.1212
-6.94847 117.59 -8.75539
-18.6076 96.0833 11.7692
-18.7997 95.3704 11.7566
-4.60109 130.265 -4.12468
-22.4675 85.4396 14.9483
-19.4679 97.6891 16.6836
-20.1201 95.5089 16.8291
-18.5884 96.5448 12.2784
-18.9844 95.2565 12.3991
-21.1989 90.6304 15.931
-23.285 84.0503 16.8307
-21.1229 90.5116 15.6601
-11.0324 123.248 12.7094
-3.48011 135.283 -2.53204
-3.98815 132.347 -3.64834
-6.72391 117.375 -8.8998
-21.3696 89.1857 15.6206
-17.9202 76.052 -10.6477
-5.56794 124.468 -5.68584
-14.0912 89.9163 -10.2655
-8.75418 108.762 -10.1283
-12.5835 96.7444 -8.4985
-2.88712 136.763 -2.50596
-13.1134 93.9331 -9.44422
-13.9385 90.2588 -10.2225
-16.1007 106.946 15.0996
-1.68875 146.262 3.00923
-18.9408 96.0842 14.3261
-4.26681 139.594 5.71287
-1.61962 146.334 3.00916
-18.7831 95.6324 13.4319
-14.4925 87.6791 -10.4349
-16.3969 80.3315 -11.0531
-7.59076 112.906 -9.44632
-19.1357 92.2797 11.5664
-14.7692 86.4571 -10.4929
-4.98744 137.951 7.21519
-21.0436 89.958 16.3314
-3.01026 135.486 -2.59676
-21.2813 88.6221 15.8412
-19.2854 96.3825 16.622
-14.3413 111.755 14.5119
-7.34877 113.254 -9.52744
-20.5256 91.0611 15.861
-4.85244 125.697 -5.66307
-22.6447 84.3217 16.7578
-22.2134 84.6122 15.5442
-19.2625 91.4766 11.8382
-7.67615 131.059 10.4122
-5.8965 118.722 -8.83384
-5.15198 123.153 -6.95858
-18.4455 91.6837 9.20146
-13.1689 91.9301 -9.87284
-20.2661 86.3707 10.525
-14.8756 84.9102 -10.8005
-12.4438 94.6083 -9.61412
-3.09019 141.4 4.66511
-13.9342 88.4204 -10.5318
-18.703 95.8362 14.7421
-18.6896 95.2566 14.0932
-9.31811 104.333 -10.6865
-17.0436 76.8231 -10.893
1.53776 150.26 -2.7036
-14.908 84.2147 -10.9246
-2.4287 136.093 -2.60819
-9.77272 124.373 12.25
-6.66016 114.154 -9.77572
1.23074 148.868 -2.59142
-2.38037 136.074 -2.62037
-6.96692 113.09 -9.64924
-14.5873 109.366 14.6369
-20.8942 88.0237 15.6452
-18.595 93.516 12.9386
-8.98285 126.274 11.6931
-13.9562 111.065 14.2123
-16.447 98.7458 10.5612
-3.04569 131.866 -4.25558
-9.82271 102.182 -10.1214
-20.3556 84.9808 10.798
-19.3251 88.3291 10.5235
-9.22724 125.321 12.0925
-12.242 93.291 -10.0312
-2.51396 141.861 4.74013
-16.881 96.767 10.6607
-16.3349 77.7622 -11.0536
-16.2542 77.9669 -11.053
-6.92934 131.62 10.4933
-11.9599 94.2133 -9.88035
-10.3228 100.449 -9.34034
-14.897 107.692 15.0203
-2.71347 132.669 -3.76485
-21.7776 84.6319 16.3619
-12.5298 91.5783 -10.3567
-10.5618 99.8069 -9.01971
-13.0279 113.547 14.4205
-13.5722 87.0657 -11.1135
0.609202 145.326 -2.57506
-16.3381 100.029 12.8066
-3.49937 127.286 -6.01684
-16.4107 99.8774 12.9406
-13.4871 86.9334 -11.1905
-16.604 96.8161 10.5576
-8.3625 105.31 -10.8489
0.52752 144.695 -2.51034
-13.551 86.4112 -11.3022
-3.53467 138.781 6.33666
-0.423395 141.167 -2.50241
-0.360083 141.376 -2.49602
-4.97752 135.73 8.61251
-16.0503 77.3802 -11.2665
-6.46456 112.528 -9.81498
-17.7475 90.8116 9.08612
1.06713 146.159 -2.49732
-9.20736 102.342 -10.2908
-15.5006 102.641 13.2867
-1.59084 143.444 4.64354
-16.2369 102.181 15.5884
-17.4722 89.9616 7.4384
-18.4723 88.7569 9.88988
-12.3912 114.407 14.2504
-19.1391 91.6556 15.513
-17.4748 89.9289 7.61786
-5.41515 134.383 9.61214
-14.1015 83.2534 -11.6178
-17.8226 94.2001 13.5219
-18.4561 91.7112 13.2841
-14.9754 102.173 11.3968
-15.7097 103.799 15.8544
-16.9597 94.0107 10.2812
-16.3948 96.2554 10.54
-2.95334 127.5 -6.34304
-6.51789 111.343 -9.89736
-18.2758 86.44 7.45181
-17.4409 90.7202 8.86313
-7.78512 127.516 11.7222
-15.9569 97.0541 10.3043
1.54947 146.515 -2.47693
-15.1351 79.058 -11.2768
-18.3506 92.2517 14.2779
-10.1672 98.6702 -9.06707
-17.0182 91.3122 8.54296
-15.4389 103.19 15.1084
-5.07629 116.104 -9.50743
-15.0829 104.749 15.5969
-14.5299 102.544 11.3354
-12.6165 111.987 14.1346
-0.907289 144.041 4.48507
-18.8729 91.332 15.7203
-12.986 85.7671 -11.6351
-3.30992 123.541 -7.83522
-10.7374 118.085 13.7991
-14.4482 106.495 15.4108
-10.2559 119.602 13.6759
-19.2828 87.5026 13.4827
-15.1023 103.614 15.0548
-18.5236 91.3867 15.0267
0.153506 140.119 -2.8983
1.7851 145.942 -2.68617
-20.5874 85.9929 17.2282
-15.4847 97.1951 10.1228
-14.6172 105.551 15.6469
-6.39801 130.104 10.973
-13.3458 108.571 14.283
-0.847832 143.564 4.81138
-1.78771 130.33 -5.43043
-14.7083 99.2958 9.91708
-16.1352 94.8062 10.5207
0.852443 141.823 -3.01465
-18.9378 87.613 13.3907
-16.4738 94.79 11.8058
-15.4407 96.8297 10.144
-16.3017 91.813 8.12392
-8.96729 122.408 13.0528
-18.0251 89.4958 12.1268
-5.27911 112.999 -10.2683
-8.67708 101.092 -10.0392
-11.7609 113.293 13.9935
-11.3837 90.5624 -11.017
-20.2701 85.1433 16.0654
-17.939 90.3607 12.9652
-20.2861 85.516 16.5863
-14.5299 78.9474 -11.389
-8.86602 122.425 13.0457
-0.117739 144.755 4.19997
-8.34801 101.758 -10.2371
-13.5303 102.598 9.80976
-3.39481 136.775 8.14168
-18.591 88.2249 13.5748
-13.745 105.146 13.3753
-13.946 105.82 14.8414
-1.2745 141.628 5.55738
0.918933 140.972 -3.13293
-2.78184 137.806 7.23379
-4.6732 114.788 -9.7398
0.0266607 144.776 4.38227
1.35227 142.248 -3.0996
-0.297334 143.961 4.83499
-16.2422 95.132 12.7248
-1.9976 126.748 -6.70878
-8.47141 122.737 12.9222
-1.93097 127.077 -6.55062
-20.1495 85.4444 17.2505
1.85137 143.55 -2.99664
-14.0546 99.3766 9.67354
-5.2684 131.205 10.5188
-3.46574 118.738 -8.9754
1.87498 143.267 -3.05826
0.555542 145.044 3.75263
2.8685 146.861 -2.85452
4.6407 153.984 -1.84239
0.867448 138.686 -3.63899
-5.44015 109.644 -10.6101
-0.09532 135.629 -3.18089
4.55381 152.587 -2.62881
-17.6149 88.4909 12.2564
-0.0885084 135.555 -3.21539
-9.26267 96.9303 -9.58272
-8.79682 98.7529 -9.38712
-10.452 114.928 13.5556
-11.9393 85.0547 -12.0031
3.14384 147.136 -2.88295
-12.3973 105.203 10.7921
-12.0119 108.984 13.3277
-2.26511 122.581 -8.30909
-1.4046 139.664 6.33452
2.57639 144.518 -3.21853
-3.95105 133.672 9.51992
0.179412 135.807 -3.31695
-16.4585 87.334 7.45506
-12.6776 102.604 9.45216
-9.75931 94.1519 -10.0455
-9.09091 96.87 -9.66643
-10.4249 90.7103 -11.1527
-10.5034 90.1318 -11.3737
-1.39551 127.141 -6.35615
-11.0412 87.7229 -11.8655
-10.6247 89.4265 -11.5862
-13.8513 78.108 -11.4694
-11.8903 105.884 10.2064
-8.43754 99.138 -9.48614
-4.27306 113.287 -10.024
-10.8821 88.0913 -11.8694
-15.4556 93.6181 10.7582
0.647173 144.723 4.90194
-11.952 105.823 10.7653
-3.61821 115.626 -9.52846
1.23867 137.782 -4.34194
-6.52858 104.19 -10.5419
0.988846 145.13 4.45837
-11.905 83.4821 -12.2081
3.66276 147.177 -3.1429
-12.3315 102.743 9.47678
-10.1206 114.038 13.2057
4.72504 151.208 -2.67567
0.422681 135.005 -3.68992
0.407821 134.767 -3.78346
-14.8862 95.897 12.0463
-17.4208 84.4115 9.42166
-5.01638 108.487 -11.0211
-11.3122 106.085 9.81012
-9.58716 115.15 13.0262
4.69119 150.447 -2.69076
-7.26406 122.387 12.1657
-11.2377 109.322 13.196
-12.8301 79.3155 -12.0607
1.36084 145.317 4.49144
-11.7147 82.8463 -12.3128
-9.36388 92.7492 -10.6458
-6.24305 124.909 11.4759
1.62846 145.355 3.81427
0.742654 143.534 5.21295
-11.0913 105.596 9.27618
5.471 152.788 -2.48246
3.45317 144.309 -3.79638
-11.7567 106.163 12.4914
3.00338 142.336 -4.13361
-2.4261 135.627 8.89806
2.19431 138.777 -4.70062
-11.3121 108.132 13.1896
-2.87101 133.695 8.77109
-1.49378 137.322 7.52759
-9.78114 113.063 12.8322
-10.7599 85.5151 -12.2077
0.267675 131.425 -4.9826
-0.452188 128.189 -5.62863
-8.19737 96.3409 -10.1747
-8.51231 116.9 12.473
-11.4221 106.559 12.4266
-10.3946 110.855 13.1208
-13.4585 75.6879 -12.1034
2.15397 137.627 -5.05888
-8.98056 114.726 12.4481
-14.4592 94.4691 11.5441
-9.75643 88.4375 -12.0054
-1.26391 122.2 -8.07128
-4.4042 128.588 10.2802
-16.9003 84.0466 9.94787
-0.374004 127.11 -5.99581
-10.464 109.601 12.9403
-0.0615889 129.049 -5.0477
-0.710811 124.902 -6.97277
-12.221 99.9058 9.39551
-10.2651 106.214 8.85763
-1.29269 136.912 7.89466
1.60613 134.848 -4.81483
-10.1826 85.9162 -12.2094
-14.3629 93.9691 11.5422
-12.5779 77.7689 -11.8513
-10.7058 108.128 12.8518
-11.5986 101.408 9.15065
-11.0741 82.5098 -12.4066
-5.40406 104.215 -10.6136
-9.83922 110.291 12.1179
0.208244 129.273 -5.07177
-8.59025 111.324 8.61264
-9.98205 109.86 12.2108
-0.47027 125.296 -6.66188
-9.62528 107.964 8.97817
-10.0205 107.025 9.46204
-8.70081 110.985 8.78811
-10.7703 104.42 9.57025
5.04106 147.391 -3.83218
-9.29019 108.855 8.78676
-11.0093 103.554 9.67022
-8.21027 112.45 8.7454
-8.7135 91.05 -11.5527
-10.0813 109.003 12.2045
-9.34781 111.035 11.6731
4.06602 142.479 -4.83147
-9.56268 108.418 9.87433
-7.35715 114.78 8.49624
-8.96062 112.076 11.6428
-7.43085 114.692 8.77584
0.645473 129.948 -5.04197
-0.165688 138.611 6.97628
-5.791 102.135 -10.2476
-9.05333 111.41 11.436
-8.62551 111.402 9.85573
3.0034 137.422 -5.73629
-0.176087 125.556 -6.36542
4.4289 143.307 -4.83153
3.31159 138.512 -5.59761
-0.602247 122.777 -7.57379
-8.59038 112.779 11.4344
1.23026 131.71 -4.93866
-9.61393 86.3534 -12.205
-4.94276 124.697 10.5015
-6.30639 100.015 -10.0897
-8.5563 111.704 10.3612
-12.6693 75.5357 -12.1109
-2.96188 130.461 9.42921
-2.91881 112.186 -9.69756
-6.13272 120.96 11.2571
-7.08439 117.607 11.2751
-1.02248 136.27 8.45861
4.55107 142.981 -4.97433
-6.62133 117.743 9.86469
-13.2476 96.4148 12.0921
-0.845811 120.458 -8.45309
-2.46417 113.842 -9.29845
-6.31256 119.594 10.8507
-6.39179 119.294 10.854
-14.5854 90.676 11.2735
-2.14298 132.11 8.64386
-7.76028 114.425 10.9446
-6.06605 119.01 9.50492
-12.4449 75.664 -12.0675
-11.1732 79.7261 -12.5125
-5.72769 118.522 8.00368
-3.15256 109.591 -10.6757
-3.43443 127.909 9.53171
-5.31151 119.857 8.13598
6.04091 148.305 -3.96258
-6.47398 115.229 7.69587
-15.9018 83.9128 9.89733
-10.6382 101.647 9.03982
-5.12865 121.974 9.96455
-1.49107 132.834 8.19256
-5.09045 121.352 9.54218
-14.0283 93.2279 13.2432
-4.64718 103.309 -10.618
3.02702 134.395 -6.45964
-0.324355 135.633 7.18685
-5.22688 117.897 6.83167
-8.45599 88.2289 -12.1083
1.53515 141.346 6.44616
-10.0636 82.1796 -12.3647
2.18123 143.143 6.0539
0.263424 124.268 -6.50133
6.48826 148.632 -3.99146
-3.23032 126.885 9.18694
-14.1113 90.99 11.9232
-0.351024 120.339 -8.04908
-4.13671 121.472 7.06956
-6.59088 94.936 -11.3007
3.0546 133.509 -6.62053
-0.524007 134.808 7.96152
0.27603 136.285 6.68065
-1.62405 114.558 -8.90022
-10.7264 99.9871 9.4233
3.1783 144.86 5.02443
-3.39524 125.249 8.80723
-11.6534 97.5328 10.4107
-1.85634 130.272 8.47058
-4.17816 120.303 6.70584
-11.584 97.6275 10.359
-3.6915 123.048 7.78378
-3.36782 125.096 8.72847
-12.6497 96.2887 12.9989
-8.63073 86.3658 -12.0532
-7.73089 89.4957 -12.0604
7.24791 150.739 -3.38817
2.98309 143.771 5.11329
-6.6378 111.594 7.0724
-1.67048 130.334 8.30266
-5.67113 114.88 6.9462
3.4989 134.423 -6.42732
-6.72008 93.4614 -11.414
6.18408 144.801 -5.19597
5.99244 143.717 -5.52055
-14.4982 85.4596 9.2345
-1.95043 128.994 8.38678
-3.53085 104.518 -11.157
-4.13163 102.817 -10.679
-10.5945 99.4249 9.63235
-2.96602 123.613 6.82209
-1.80322 129.074 8.2499
1.9667 139.726 5.49992
7.51465 154.924 0.931827
-1.90767 128.04 7.70155
-10.88 98.4045 9.92953
1.14997 136.716 5.62694
-13.8453 88.2149 10.3522
-3.76595 119.828 6.18876
3.61291 133.396 -6.67895
5.2467 139.001 -6.75613
-8.88889 104.159 9.0398
-4.42913 117.299 6.38212
6.58254 145.194 -5.02765
1.49871 126.965 -5.2588
-0.982937 130.76 7.84544
0.200753 118.937 -8.73026
-6.27652 93.2284 -11.5957
-0.748719 131.324 7.83501
0.282746 133.929 6.79911
-1.15255 128.673 6.65986
4.55256 146.611 4.38085
-5.88585 94.2437 -11.6368
-4.73419 98.754 -11.0431
7.61528 154.806 1.91815
3.37809 131.356 -6.85405
2.02657 127.397 -5.95016
2.71999 139.585 4.36042
-5.18789 96.4195 -11.4044
-1.29628 126.701 5.8491
-8.2915 104.771 8.83679
8.14882 150.892 -3.62259
-6.72824 90.1355 -12.0542
-5.10308 113.69 6.68477
0.207305 131.534 5.76094
-2.05785 107.342 -11.0138
6.79161 143.734 -5.69781
-0.2488 115.419 -9.14904
-9.87695 99.5549 9.79889
-6.52152 108.967 7.34315
-1.31313 125.338 5.26542
-10.8054 97.491 11.2503
3.62305 130.922 -7.00342
-5.95961 110.55 7.10872
-12.516 94.4803 14.608
0.948013 121.343 -6.92231
-5.20505 94.9487 -11.7349
7.62722 147.226 -4.54218
1.18457 133.592 4.98084
-10.3188 76.0024 -12.6143
8.11802 149.285 -4.1191
-2.16615 122.107 5.48986
2.25528 136.795 4.58618
-5.50338 93.5333 -11.8454
-8.90902 101.632 9.11922
-3.83271 100.402 -10.7733
-12.9735 91.403 13.6661
-14.7876 82.5829 11.1728
-9.46792 78.7183 -12.3917
2.67774 137.37 4.10097
-1.86936 106.561 -11.1573
-6.48297 108.095 7.48555
2.54093 136.878 4.31993
3.328 139.11 3.94772
-10.3669 97.6528 11.4596
-13.734 84.5731 10.2688
6.70231 140.825 -6.34455
-2.82093 118.844 5.83089
6.99943 150.241 2.48369
0.894096 117.555 -8.99667
-8.54228 101.622 9.1399
3.8141 140.411 4.09319
-12.7262 91.3699 13.9767
-10.1493 97.8464 11.3863
8.39666 147.953 -4.54449
1.24717 120.52 -6.77035
7.84545 145.262 -5.20498
2.66894 136.302 4.50847
7.76639 144.395 -5.7135
8.76768 151.408 -2.063
-5.38444 91.7679 -12.0525
8.33629 154.035 2.34442
-9.11171 99.5908 10.1786
-4.30614 95.1968 -11.8764
2.44338 135.18 4.96249
7.4914 150.28 2.13801
-0.310848 125.263 4.83478
2.92902 125.311 -6.8632
1.68346 121.113 -6.48786
5.22375 142.917 3.21567
-0.479233 124.433 5.02635
2.28347 123.683 -5.85123
8.28279 151.958 1.72462
-10.4044 97.0669 13.4642
0.522368 114.065 -8.99873
-10.9767 96.3797 15.0563
2.03328 121.916 -6.19656
9.11078 150.696 -2.20163
2.93359 135.434 4.72539
-6.96745 103.926 8.41789
1.98472 121.37 -6.27659
-1.47838 104.239 -11.3156
-1.0282 106.177 -10.9531
7.17271 147.756 2.15582
-12.5472 87.1562 11.8289
5.08459 141.518 3.5695
0.549573 126.424 4.58529
-0.891453 106.539 -10.7549
-7.7321 81.309 -11.7462
-3.31161 114.379 6.41399
1.41899 116.043 -9.19851
-8.41032 78.5017 -12.0895
-10.1212 97.7165 14.2707
2.94232 123.372 -6.92847
3.10768 135.046 4.60538
-4.49427 110.53 7.14765
-8.33829 78.4333 -12.0429
-2.82887 98.1559 -11.5759
8.07448 141.576 -6.3986
-5.92811 86.7663 -11.8455
2.15757 130.342 3.77282
-0.499559 107.409 -10.3023
-3.31596 113.584 6.51795
-1.24692 119.946 5.54505
7.45106 138.896 -6.71982
2.25093 119.313 -7.96128
5.11312 140.261 3.50694
8.59095 143.444 -5.93183
-8.07002 100.427 10.6126
0.663617 125.49 4.74461
9.57929 152.047 -0.32961
3.45851 123.347 -7.62876
7.57967 138.794 -6.70663
-10.4103 96.4203 15.561
-12.7015 83.5563 10.6498
1.44161 114.462 -9.10019
-0.0326211 108.104 -10.2725
6.43972 143.403 2.67633
-3.38413 112.592 6.87337
7.19407 136.964 -6.63317
-7.86827 78.509 -11.6701
-5.91141 104.99 8.67352
-9.10745 98.388 13.5681
-6.88863 102.323 9.66582
7.64914 146.399 2.23604
9.90173 153.408 1.2509
-0.661014 103.973 -11.1244
-1.96496 115.917 6.27813
-0.528963 104.312 -11.0629
-2.13139 115.374 6.3412
-4.9158 88.1513 -11.7136
9.88525 150.392 -1.26804
8.94747 150.004 1.81766
-5.05307 106.845 8.45266
8.45769 148.283 2.0406
3.96418 133.405 3.23364
-8.33671 75.3919 -11.858
-13.1137 81.6789 12.3202
-11.5478 86.7625 11.9091
-5.32053 85.9948 -11.5675
-6.90069 80.5841 -11.2925
7.8624 136.998 -6.89527
3.16466 119.278 -8.03506
-8.77605 98.6716 14.5088
-3.026 93.9755 -11.5014
4.31077 123.156 -8.1167
3.72682 132.278 3.52069
-11.6025 86.1611 11.9405
6.99948 142.754 2.67156
-11.5207 86.176 11.9685
10.1689 149.877 -1.50996
-11.8542 85.0542 12.0748
10.2344 148.708 -2.90182
-2.67009 94.8692 -11.4467
-5.71036 104.109 9.38521
1.96887 126.466 4.55257
-5.43529 104.777 9.2483
-11.8021 85.0111 12.1035
7.07556 142.556 2.6585
-8.93756 98.0185 15.2231
-9.49368 96.4115 15.738
4.9008 135.23 3.19508
-9.18751 97.0862 15.3168
5.63858 126.698 -8.29982
-2.20389 95.8754 -11.4706
-9.09665 97.1318 15.3627
-3.5015 90.9939 -11.3894
-7.15044 100.562 12.0535
-9.97767 93.1592 14.7619
-7.16818 100.524 12.1036
5.35314 125.115 -8.25129
8.1105 135.976 -7.04148
-3.8709 108.412 8.36817
-4.56578 87.0411 -11.2691
-2.40526 94.5675 -11.3563
-5.47351 83.6979 -11.36
6.70839 140.339 2.85096
-0.655852 100.797 -11.1932
6.82813 140.742 2.84105
-2.95773 110.892 7.77825
-7.16763 100.464 12.5359
-4.52331 106.309 9.14483
-5.39873 103.814 9.83682
9.00892 147.154 2.11423
-1.93637 95.5645 -11.2789
8.28083 135.618 -7.12561
-1.56237 114.424 7.02951
-6.80488 100.859 12.2459
2.50546 112.549 -9.67481
4.74158 133.222 3.63829
-9.59999 93.1257 14.7124
-9.9365 90.5975 13.3416
6.70224 128.649 -8.24116
-4.98814 104.585 9.76279
-6.57176 101.181 12.0566
9.12266 137.929 -7.33008
0.522722 120.225 5.9611
7.10572 140.283 2.67041
-5.22286 103.688 10.1041
1.85674 124.088 5.30261
6.53361 138.438 3.03578
-9.21976 94.3531 15.2797
3.69014 129.329 4.33031
1.93617 124.033 5.3454
-0.933574 97.8111 -11.0785
-1.92354 94.275 -11.052
3.35887 127.967 4.60143
8.10713 142.628 2.46584
-5.16921 82.8941 -10.8434
3.90136 129.531 4.34402
6.05274 136.068 3.31504
8.8753 145.048 2.30279
8.8016 144.734 2.31791
7.77449 141.012 2.51064
-0.939843 114.749 7.27092
-6.4102 101.053 13.2555
3.45819 114.589 -8.92134
-6.10373 78.8641 -10.7509
11.0249 145.197 -4.57399
-3.42204 107.351 9.19704
10.7103 143.883 -4.7033
3.69145 115.684 -8.22232
2.80897 125.273 5.23166
1.04046 104.125 -10.223
9.05063 144.586 2.41365
11.487 151.37 0.536265
-9.15854 90.6155 13.2979
-2.88592 89.6185 -10.5827
-5.42789 102.194 11.9191
-8.87076 91.9743 14.0195
1.81385 107.004 -9.46304
-3.58862 87.034 -10.3326
9.54477 136.08 -7.50621
-8.53448 93.654 14.8743
9.63533 145.862 2.52524
-2.67547 89.754 -10.4197
7.18443 137.773 3.32288
-9.81186 86.9309 12.9326
7.8165 139.721 3.0771
0.278226 99.6633 -10.6368
8.49452 131.649 -7.35793
8.59255 142.087 3.15623
-6.35343 100.948 15.3349
11.39 149.42 0.529186
-7.59386 97.3069 16.1269
2.70537 109.724 -8.66506
6.07991 133.962 4.1465
3.88516 127.18 5.18063
9.16443 143.852 3.20612
-8.23583 93.3355 14.6453
7.78157 138.919 3.19775
-2.59798 107.992 9.35122
10.6128 139.606 -6.21461
-5.00171 102.596 12.8541
3.78321 126.336 5.39717
-5.22871 102.354 13.5945
-3.89801 104.363 10.8379
-0.686057 113.164 8.18984
10.6272 139.379 -6.11273
-5.76283 77.3127 -10.335
-8.2131 91.9068 13.8508
1.99929 105.886 -9.11596
0.397556 98.9241 -10.363
1.73665 119.935 6.62804
-7.83575 94.167 15.0203
8.46245 129.175 -8.44062
-9.96747 84.7071 13.0838
11.6073 145.174 -3.0908
4.78786 117.349 -6.91981
-9.29864 86.9507 13.3269
-7.27586 96.6777 16.0334
0.818633 116.994 7.41923
-8.35246 90.3852 13.4984
5.61867 131.467 4.88764
11.3037 142.658 -4.35772
6.80703 135.666 4.90691
-3.85192 83.9063 -9.68663
4.11402 112.809 -8.83606
-4.94443 102.668 14.077
-4.03706 103.591 11.7302
12.0018 148.361 -0.528338
7.02742 123.127 -8.46683
-1.76064 90.7156 -9.8393
8.67056 128.932 -8.43071
4.59883 116.011 -6.88694
9.15188 142.471 4.02704
7.04026 136.121 5.19747
3.71152 110.868 -8.79033
-0.848727 93.4723 -9.8852
1.4649 118.118 7.39955
10.7158 138.233 -5.59124
5.13829 117.305 -6.67294
11.4598 141.868 -4.32551
-0.814239 93.2149 -9.75761
7.61782 124.28 -8.3959
-0.736066 111.482 9.01724
-9.04947 86.4576 13.6256
7.98674 138.135 4.75187
12.1262 150.444 2.43362
10.7322 137.781 -5.56057
12.1453 146.32 -1.76291
-3.62407 103.806 12.0846
-0.860106 110.815 9.26478
-2.53948 86.9191 -9.40571
2.94416 121.72 6.66467
11.581 148.838 3.13673
8.47062 126.577 -8.38586
12.0327 144.445 -2.85316
1.3045 99.9017 -9.73435
11.9872 149.823 2.9315
-3.69343 103.676 12.6855
6.31077 131.945 5.52048
4.5613 112.156 -8.55138
6.82094 135.088 7.16987
-3.13395 104.475 11.9303
-5.5836 99.4195 15.8155
6.16765 133.589 8.16562
6.05548 130.905 5.93742
-1.93644 106.989 10.473
6.22925 133.28 7.80991
0.686525 114.442 8.65155
10.9568 135.414 -7.24303
6.4344 134.089 8.10821
5.7347 131.844 8.46569
3.72778 108.73 -8.09951
-2.98847 104.353 12.3179
-10.2132 80.1329 13.724
-8.36788 86.5719 13.9295
0.237168 94.7108 -9.21203
7.77843 129.348 -0.901205
4.69783 125.87 6.8559
1.68461 99.6159 -9.28002
11.9222 140.366 -4.5283
8.79283 139.131 5.69861
8.95533 139.468 5.47305
8.92575 126.05 -8.31206
7.17014 127.378 -0.472679
5.86087 131.441 8.59199
6.32886 131.472 6.91152
1.54304 98.9418 -9.31233
11.7672 147.695 3.85615
5.29843 115.034 -6.2747
-3.23246 103.905 13.5148
5.89031 130.388 7.59399
8.611 138.614 6.29107
-3.26596 103.796 13.956
-4.99443 76.0193 -8.51438
-5.23452 98.7501 16.0102
-8.17489 86.374 14.0123
-3.61833 80.1973 -9.13558
2.93231 120.46 8.66996
11.8785 141.118 -2.70245
8.42226 128.982 -2.59441
13.135 149.683 1.68531
3.19465 105.409 -7.81346
8.78374 130.761 -1.98954
7.29031 126.531 -0.856409
12.839 147.647 0.766739
4.31504 109.11 -7.95544
8.41404 128.189 -3.15494
11.8536 141.117 -2.34608
8.66896 129.377 -2.80852
7.35775 135.031 7.95036
8.30471 127.396 -3.43749
3.20606 104.952 -7.88222
12.2492 142.328 -2.2403
9.06487 131.004 -2.2996
7.60537 135.563 7.8503
1.1666 114.176 9.29011
9.34517 140.276 6.39728
2.64862 118.819 8.7209
3.97412 123.043 8.26692
8.8836 138.849 6.72151
8.80024 128.196 -3.96135
-1.36944 106.716 11.113
2.16912 116.935 8.75273
11.5245 135.275 -6.53376
7.33481 127.028 0.329739
8.76892 127.736 -4.19291
4.57519 124.636 8.06595
-0.388942 90.8966 -8.76315
9.4736 130.667 -3.65142
9.59538 131.42 -3.19432
9.24931 139.633 6.63341
7.76831 127.547 -0.438941
4.25743 108.149 -7.66843
7.42028 134.36 8.08069
11.5998 136.942 -4.3814
5.37055 126.53 7.73459
5.00332 127.582 10.2128
11.8669 139.577 -2.46762
9.02697 128.141 -3.91835
3.15004 120.742 10.0161
1.79154 97.86 -8.77395
12.9842 147.244 1.48542
7.36358 126.066 0.124781
11.957 139.216 -3.01906
11.7062 134.964 -6.49013
-2.84379 81.2504 -8.78904
0.807775 94.4272 -8.413
5.55338 111.35 -8.19652
-1.51967 105.989 12.2515
6.04584 114.937 -6.25171
7.79147 127.229 0.140333
4.29054 124.74 10.4855
9.57964 126.042 -7.43773
-2.74541 104.038 14.9988
-0.225545 108.953 10.8796
13.7129 150.018 2.35652
5.01313 125.757 9.32278
13.0296 145.551 0.470021
8.9072 123.086 -7.65172
-0.765109 107.117 11.3244
-0.0573744 109.228 10.9699
11.2624 132.501 -6.40182
1.5059 113.819 10.2083
8.74477 124.882 -4.77174
0.570697 110.933 10.7698
9.38917 127.643 -4.25168
9.84722 126.995 -6.60814
9.48558 127.765 -4.46868
10.367 131.329 -3.93707
-0.386411 107.988 11.3996
9.2299 129.316 -1.64447
7.18662 116.87 -7.00321
-5.80326 91.6344 14.5211
11.8372 138.932 -1.13324
11.0275 142.461 5.52476
10.1896 128.461 -5.882
1.51993 113.494 10.5682
2.87436 118.467 10.9298
9.73654 130.567 -1.66757
8.40754 123.609 -3.99308
9.21405 125.262 -5.2144
-3.49699 78.0243 -7.59883
0.596829 92.0614 -8.03205
8.38839 125.255 -2.11901
1.79746 114.03 10.507
0.6751 92.2125 -7.96958
4.60851 124.299 11.0295
9.55338 127.04 -4.15836
0.772719 110.864 11.3407
13.6118 148.815 3.65674
8.08554 133.393 7.9635
-4.72265 95.728 15.8837
-4.84428 94.9549 15.536
11.8573 133.154 -6.13085
-7.48372 84.2546 14.1304
2.74313 117.688 11.3074
12.3648 137.48 -3.23073
5.1695 108.285 -7.1402
0.918781 111.08 11.4774
-5.24881 92.3578 14.6857
9.9531 125.906 -6.29399
-2.7923 102.075 15.7968
4.94416 124.936 11.2261
-0.850392 86.2775 -7.67233
9.05708 125.631 -3.12618
12.2431 136.035 -4.0152
13.2196 147.483 4.35127
14.3637 149.665 2.48318
-2.15858 103.741 15.5011
-2.60148 79.6597 -7.78353
7.71444 125.077 1.58346
0.899289 110.8 11.8425
7.98342 120.789 -3.80651
12.978 142.456 0.377195
5.33066 125.907 11.3611
-8.64355 79.5763 14.5515
1.90348 113.587 11.1525
-4.51258 95.4285 15.8597
9.20072 123.501 -5.25394
-7.95521 81.1834 13.8881
9.98153 126.393 -5.02416
0.408843 109.477 12.6013
11.7678 142.924 5.65554
9.77552 125.671 -4.94749
-2.7754 79.0197 -7.29068
9.781 129.468 -0.970263
12.3801 135.634 -4.02935
11.287 133.228 -2.4748
7.91092 116.482 -7.44804
-2.17095 80.4696 -7.81363
14.5779 149.157 2.05884
2.74007 116.997 12.1522
11.8473 136.103 -1.40793
8.38038 123.601 -1.6039
10.8357 131.553 -2.3592
13.1634 142.842 0.889568
9.58036 126.209 -3.23116
5.46711 108.148 -6.81786
7.67559 119.516 -3.08967
9.5025 126.548 -2.4731
9.53874 127.714 -1.36786
11.681 133.903 -2.77258
-5.65281 89.52 14.7933
-7.83621 81.0064 14.0239
9.02648 127.724 0.67258
12.4857 138.649 -0.598524
9.67501 126.246 -3.08855
13.2051 146.603 5.10708
6.73953 128.348 9.89894
11.9726 136.681 -0.601839
-2.44727 79.4288 -7.05644
9.1266 122.25 -5.05117
2.913 117.249 12.6055
1.15681 110.999 12.6052
10.1445 127.787 -2.94987
3.82693 100.891 -7.69568
11.4771 132.889 -2.37752
12.2941 135.764 -2.34926
11.2941 130.759 -3.86537
9.31355 127.902 0.478006
-1.56183 103.81 15.4353
11.6018 133.093 -2.44313
0.882201 90.5872 -7.2067
-7.15508 82.5407 14.0058
7.44269 114.863 -6.03008
-0.41923 86.064 -7.05823
2.3845 114.533 12.269
6.11197 125.857 10.4096
8.29123 126.545 3.20422
12.7589 144.736 5.71424
-1.23278 82.5922 -7.47116
12.098 134.017 -2.98793
4.10136 101.467 -7.43108
8.50263 117.722 -6.65563
10.2162 129.118 -1.03219
-3.73378 96.697 16.5483
10.7532 127.373 -4.68315
8.18383 116.238 -6.81047
14.9815 148.111 1.37728
12.8165 134.967 -4.33184
9.67567 126.07 -1.97644
8.06353 123.606 1.41339
8.98373 132.986 7.7896
9.12197 122.839 -3.26611
-2.91966 77.9107 -5.72187
12.6769 135.611 -2.79609
10.5873 137.451 6.81674
6.64334 126.277 9.7833
10.534 137.142 6.78703
-7.46778 80.7989 14.4028
-0.663283 84.2076 -6.90062
-0.485281 84.9597 -6.76589
12.6849 133.527 -4.47242
9.25557 120.812 -5.07787
14.5298 148.14 4.00385
8.16169 115.824 -6.09266
8.57747 118.048 -5.2752
10.632 136.925 6.80172
9.74291 126.474 -0.7047
11.2169 139.013 6.93368
0.738887 88.7193 -6.8194
11.8363 132.555 -2.02595
9.87942 124.718 -2.86828
9.02953 119.886 -4.71732
9.65573 128.64 2.0932
9.98789 125.41 -2.37427
7.21716 111.274 -6.84733
-0.549739 83.8521 -6.78859
8.97961 122.623 -1.48524
9.19593 127.22 2.53
-6.62385 82.5963 14.2917
10.3215 123.587 -5.34874
9.25689 120.97 -4.06824
7.94512 117.201 -3.07034
14.0917 146.75 5.15046
10.0926 125.173 -2.54546
2.68921 114.251 13.467
14.4719 144.298 1.44257
13.0164 134.357 -3.44538
4.01491 99.4692 -6.60574
9.68847 121.987 -4.00256
14.6893 147.566 4.23701
15.0708 147.852 3.13182
9.77755 123.593 -2.56405
8.94768 126.319 3.36562
0.32257 86.447 -6.33106
-6.85753 81.216 14.6708
-4.05097 91.4076 14.969
12.2041 130.927 -3.63296
14.1121 146.282 5.38385
10.4486 128.88 0.764188
10.3031 123.53 -4.25966
10.1557 125.491 -1.50404
9.51866 126.762 2.19598
-0.146294 84.2608 -6.44274
9.10463 126.066 3.04099
3.16118 115.276 13.7861
9.87752 127.106 1.40345
-2.07734 98.886 16.0807
13.2905 136.759 -1.02221
11.5081 130.204 -1.26642
1.15487 108.296 14.1573
-1.37316 80.1689 -5.77927
8.58201 128.964 8.42722
-2.42149 97.3554 16.0612
9.68429 121.276 -3.42473
12.7654 132.026 -3.54082
10.9765 129.239 0.142593
4.463 118.847 13.3017
11.1467 129.669 -0.0108729
3.9515 98.1792 -6.09683
10.195 125.989 -0.107687
1.03871 107.32 14.1845
1.13478 107.581 14.1188
3.78815 97.456 -6.03987
9.63001 130.972 7.35757
0.291816 105.927 15.6504
3.8481 116.51 13.6546
8.43972 113.734 -6.06036
9.51027 121.837 -1.32318
5.9913 122.604 12.4294
0.921734 106.88 14.7155
13.3729 142.521 6.08185
12.0595 138.643 6.87787
14.8987 146.532 4.69695
9.23795 119.961 -2.10025
-1.05052 101.084 16.1471
11.9389 128.71 -2.84277
9.25921 120.052 -1.96636
11.1938 129.144 0.416964
8.78767 115.051 -5.3796
9.81332 121.596 -2.30977
-0.287319 82.1527 -6.05359
-1.76182 78.1876 -4.74107
8.33816 117.52 -0.902491
10.3762 123.878 -1.75725
1.24049 107.245 14.5579
15.0622 141.709 -0.361118
8.19911 125.814 8.34535
-7.02542 78.9255 15.6633
9.78066 130.244 7.35584
-2.00396 77.393 -4.25868
1.59505 88.6004 -5.76509
9.37967 120.234 -1.47039
12.1022 127.389 -4.01591
13.6322 142.499 6.12029
14.1711 137.343 -1.20696
9.67444 129.784 7.46266
14.482 138.904 -0.67551
8.94646 128.229 8.59259
-0.810852 80.3801 -5.26728
-2.96715 92.8196 15.6879
7.34127 124.107 10.3591
12.2499 137.976 6.85983
1.28476 87.275 -5.50937
2.98678 93.0245 -5.77968
9.79814 125.83 3.49015
16.1115 146.187 1.50938
4.63096 117.348 13.7272
-2.18578 76.5497 -3.62906
8.98537 127.453 8.29536
3.91178 115.103 14.1552
6.18906 121.531 12.5961
9.16929 122.702 2.8835
5.62852 119.961 13.0496
6.52484 104.92 -5.88322
7.98696 109.896 -6.03117
9.6503 121.493 -0.0676031
9.34614 118.449 -2.07247
-1.00026 99.713 16.4755
-1.06085 99.2071 16.2743
12.3572 127.326 -3.74941
11.9293 125.277 -4.30392
7.71047 114.277 -0.224671
2.62336 111.081 15.158
11.2974 121.24 -6.13854
-2.29499 94.8728 16.5688
9.43862 124.001 3.78158
0.483314 83.136 -5.69934
-6.25263 79.8173 15.8348
8.48653 114.428 -2.24775
1.66231 107.376 15.5321
-1.09415 97.8195 15.8125
9.68524 124.439 3.87271
9.58754 123.708 3.70378
14.1507 132.131 -4.27642
12.0274 123.805 -5.11501
15.6895 140.9 -0.780655
14.2168 132.98 -3.5599
11.9087 134.308 6.56361
14.724 135.087 -2.9547
15.921 142.467 0.39343
2.3926 89.2752 -5.10289
14.6152 133.878 -3.63168
13.6519 140.422 6.77932
8.38179 113.864 -1.44218
6.95305 121.962 12.2936
9.77965 119.037 -1.02609
8.57016 113.62 -2.18727
8.58064 113.499 -2.20794
-1.9696 94.3175 16.6273
-1.73593 95.1068 16.5953
4.0098 94.4733 -5.14525
10.2629 120.691 -0.757973
10.4478 125.338 3.41946
1.22498 84.4532 -5.11048
-4.04647 85.5911 15.4504
2.97215 90.808 -4.88692
10.9234 123.158 -0.418427
14.8146 133.929 -3.49553
5.0981 116.412 14.0246
9.87249 123.387 3.74687
-0.495677 98.3407 16.0161
2.5579 89.0707 -4.84419
16.123 141.236 -0.46224
11.0382 124.362 0.703147
15.2254 135.747 -2.74802
11.8023 132.569 6.83382
9.95572 126.88 7.72012
10.95 128.734 6.00756
11.1026 129.769 6.54077
9.61009 121.252 3.18198
7.99876 114.513 2.17591
4.36429 94.877 -4.83832
10.4514 119.26 -1.85061
11.1759 129.889 6.56434
11.183 129.909 6.57553
11.2206 129.879 6.4995
10.8729 128.05 5.98345
8.582 113.3 -0.88918
13.9958 139.855 6.87755
8.20305 114.153 1.45486
11.8912 120.112 -5.88861
10.81 125.197 3.50833
-1.39275 76.2395 -2.38249
2.13434 106.495 16.117
-3.85954 84.6592 15.4954
8.39777 108.347 -4.91866
2.94475 89.4281 -4.54516
12.4332 121.87 -5.65229
15.0165 132.792 -3.73015
11.3926 123.605 0.0452993
10.4249 127.486 7.67399
10.9053 127.635 6.20791
13.6011 128.177 -3.04578
15.6301 135.616 -2.64409
8.31478 114.803 2.63869
-3.18593 86.5179 15.5437
1.13432 102.192 15.9802
1.60508 83.9704 -4.58279
9.44875 113.373 -2.8068
2.19322 86.1671 -4.39584
15.4557 143.105 6.13306
8.23817 114.309 2.78168
-2.53266 88.6568 15.7596
8.16069 122.26 11.4927
-0.597052 77.7416 -2.58885
6.9276 102.065 -4.93474
9.6897 116.866 0.362615
13.2436 135.29 6.47389
2.87626 107.573 15.8472
4.61249 94.3765 -4.235
14.3644 139.252 6.73741
14.2667 138.804 6.73595
13.5826 127.286 -2.63265
10.3893 120.222 1.84573
5.43685 97.1054 -3.90432
0.477856 99.0924 16.4089
9.96648 113.193 -3.68629
10.4853 120.161 1.70587
14.6519 130.24 -2.95362
15.7284 133.68 -3.20846
12.86 121.207 -5.51195
10.5228 119.4 1.21674
13.4607 124.751 -4.0122
10.2201 117.544 0.677197
1.13919 81.2703 -3.62882
10.4336 117.949 0.391772
3.37845 107.728 15.696
13.4394 123.568 -4.57695
8.92395 121.878 10.2698
10.5348 118.005 0.42085
17.6871 145.241 2.45998
1.90416 83.4348 -3.74704
10.608 121.414 3.84022
16.4263 136.481 -1.87467
11.758 126.957 5.41181
15.9954 133.802 -2.98854
1.39421 100.774 16.3915
6.09173 114.481 13.418
16.7811 144.192 5.08003
11.0458 118.127 -0.85554
11.4161 124.074 4.02831
16.308 135.079 -2.49978
9.93668 112.342 -2.71832
5.00709 94.1061 -3.5198
8.75345 106.65 -4.17982
3.11515 105.874 15.7575
0.161782 95.8055 16.1521
3.87076 108.24 15.6073
15.4506 131.407 -2.82474
8.50399 120.582 11.4952
5.54231 95.5543 -3.63097
4.42308 91.5977 -3.59379
2.98261 86.424 -3.66778
11.2405 123.159 4.20812
13.1591 132.262 6.63227
16.0193 133.149 -2.95224
6.73668 99.3836 -3.90621
14.03 125.886 -3.07788
10.9783 121.246 3.39786
6.7307 115.388 12.9292
12.7373 119.368 -4.9134
9.04391 108.292 -2.72857
-0.839021 75.38 -0.575181
10.8858 118.947 1.68196
11.2424 122.917 4.50217
12.432 126.802 4.18511
9.62138 112.165 -0.686376
3.36626 87.2289 -3.6058
9.20095 119.944 8.98022
-4.54654 78.7747 16.707
8.58995 105.709 -3.4562
3.94802 89.1272 -3.55774
0.26446 77.9532 -1.47396
10.8234 124.045 7.70559
10.7296 120.106 3.97148
4.02792 89.1877 -3.49597
2.91464 85.4276 -3.28492
9.95802 111.94 -1.58945
15.6292 131.064 -2.54679
10.9247 118.892 2.11
8.98285 107.2 -2.89145
7.02093 115.266 12.7743
10.8948 124.016 7.66128
8.60745 119.563 11.4665
9.39916 117.954 6.88517
11.039 118.366 1.3596
8.957 108.298 -1.43895
-3.73425 80.7626 16.6642
9.60044 118.692 7.13828
8.62237 107.167 -1.19501
17.5776 140.254 0.304219
5.18559 93.3921 -2.80714
8.21136 118.535 12.2516
15.4431 138.244 6.31555
9.83223 119.42 7.38194
-0.28767 92.5656 16.6613
5.92434 95.4566 -3.12945
8.49002 106.522 -0.956151
3.71349 87.2943 -3.29259
18.3589 143.527 1.49745
12.6037 125.596 4.09818
12.7735 126.563 4.50298
5.741 110.507 13.7125
17.3457 137.596 -0.722206
11.2977 123.927 7.31776
17.2775 137.098 -0.96331
9.59158 109.622 -1.25995
10.9757 118.647 3.05007
12.7298 125.427 3.66488
7.21374 100.335 -2.10729
6.08945 95.5306 -2.90875
5.44541 109.722 14.2228
18.2159 141.807 0.689414
10.9964 119.206 3.72798
11.7474 123.139 5.06203
11.4145 120.374 3.41918
11.5914 122.567 5.127
8.65682 105.104 -2.23535
3.03208 84.8484 -2.61561
9.15431 118.367 9.77785
3.69667 86.8106 -2.92242
10.3461 120.545 7.74949
16.6637 141.494 6.3118
7.35425 100.667 -1.88262
9.84668 116.537 5.46313
11.0839 118.147 2.59612
7.93244 102.47 -2.12159
3.06289 84.8342 -2.54197
11.3525 118.49 2.09576
7.7793 102.155 -1.74432
7.66373 101.645 -1.83283
-2.8035 82.4705 16.704
12.3558 124.302 4.52074
12.2542 124.344 4.97627
10.5583 116.18 2.7646
8.22161 103.45 -1.87502
9.30106 114.086 5.37478
7.00108 112.978 12.7319
0.0847383 75.9124 -0.380336
8.48134 104.782 -1.13826
10.7039 120.395 6.95016
5.53799 93.1928 -2.28477
11.6016 121.597 4.98605
17.1911 134.514 -2.0725
-1.52484 86.0818 16.3797
11.5021 120.808 4.72075
-0.0443769 75.3967 0.0241663
8.68757 117.439 11.6627
5.0387 107.475 14.7226
12.908 124.79 3.80308
2.48895 100.176 16.5121
9.70207 109.142 -0.589573
10.4814 117.772 5.55714
-0.214404 74.9413 0.337945
16.6814 132.267 -2.10008
12.4046 124.239 5.32501
2.86479 101.124 16.3676
6.05911 109.787 13.6622
13.0358 125.026 3.97012
17.382 134.514 -1.98933
18.7115 144.087 3.0845
4.16814 104.634 15.6225
14.4901 121.806 -4.34987
9.52627 117.703 9.69875
11.83 119.41 3.05154
3.9269 103.78 15.9633
8.55481 106.395 1.7045
5.11698 90.6964 -1.92605
16.3309 138.041 6.10529
12.7981 123.839 4.36594
12.5847 124.555 5.91603
5.86058 93.259 -1.8986
9.15157 107.382 0.689999
10.3012 115.112 4.5503
12.6515 124.319 5.67997
4.97786 89.5147 -2.27667
5.44233 91.4421 -1.91127
12.3613 122.36 4.81788
8.43589 106.123 2.3866
11.3101 117.265 3.53841
0.188378 90.5658 16.6709
0.267488 90.7699 16.6533
9.39275 117.507 10.9288
11.9772 122.701 6.85392
13.8021 127.748 5.43563
11.5354 117.87 3.52572
9.53992 107.926 0.720545
3.33815 100.648 15.9787
0.920158 92.9895 16.9075
-2.25685 81.6341 16.8026
10.2683 115.126 5.67534
10.3908 111.324 1.29109
12.2161 121.236 5.14128
12.0888 119.447 3.75198
16.7226 130.428 -1.69002
9.85039 114.512 7.16244
5.38302 105.903 14.7117
19.1128 142.243 2.03806
0.488739 75.4606 1.06415
9.89637 114.607 7.23545
6.3593 93.7441 -1.42
2.65646 81.659 -0.36893
12.2236 119.83 4.17054
18.5956 142.387 4.20888
12.6029 122.387 5.45036
5.29164 90.3155 -0.970538
7.59348 100.908 1.64397
12.5206 121.77 5.23638
17.5075 132.726 -1.69844
12.0601 119.523 4.60748
19.1893 142.241 2.13918
6.61376 94.3958 -1.35043
5.30402 90.1803 -0.90177
12.728 122.433 5.42592
19.2554 143.468 3.36971
10.1461 116.714 9.06924
9.7507 108.113 1.6201
-1.37247 83.2982 16.7287
-2.30809 79.8958 16.6664
7.87981 111.661 12.2813
7.55101 97.7711 -0.943576
14.0406 127.14 5.9736
10.267 116.511 8.80874
15.1205 121.952 -3.32654
15.4684 124.588 -1.75966
4.69207 87.1773 -1.03818
14.3663 118.885 -3.62578
17.4759 139.396 6.29414
8.91026 106.583 3.73453
1.28038 92.2359 16.8641
8.08133 102.481 2.5529
10.4296 115.673 7.67645
18.6964 137.031 -0.33643
8.51519 104.183 3.1938
-2.50047 77.2195 15.6549
1.74841 77.9463 0.917086
6.83008 107.828 13.3835
19.5655 143.056 3.31597
4.65247 86.8808 -0.21882
17.3077 130.491 -1.38661
17.3616 130.657 -1.34308
0.586284 74.7113 2.16889
9.62348 114.887 10.8355
7.07783 94.9358 -0.54141
7.76199 100.191 2.52436
14.0619 126.254 6.48778
13.8531 125.567 6.64175
13.4308 123.268 5.89706
2.50222 94.7678 16.4486
13.0536 118.041 1.93709
2.18263 93.7287 16.6745
4.43631 85.7671 0.297255
10.0286 114.766 10.0807
13.3109 117.084 0.489848
8.76993 105.673 5.52996
3.26555 96.6117 16.3521
9.88255 114.322 10.5203
17.9643 138.672 6.22062
15.167 119.511 -3.36588
4.44176 99.3923 15.1431
-1.65225 78.8359 16.2026
6.3648 104.799 13.969
10.5601 109.558 3.72622
8.54283 102.325 3.66148
9.05911 106.252 5.89615
-0.893298 81.3052 16.593
10.6881 110.818 4.8973
17.6621 136.611 6.11283
1.80689 90.7374 16.7012
5.59178 102.537 15.0783
7.15303 94.1874 0.723749
0.83491 87.0663 16.5655
7.51144 95.1923 0.556325
10.4925 109.315 4.34088
-0.78356 81.186 16.5673
14.9066 127.443 7.06894
10.3959 111.602 7.19076
19.9389 140.833 2.59378
13.4064 117.366 2.25128
15.866 129.745 6.24808
13.6907 120.971 5.12149
7.72389 95.902 1.04947
3.55599 81.2475 1.25428
3.66863 81.6404 1.2625
7.92149 96.7119 1.34735
15.9605 121.413 -2.46288
13.4983 117.647 2.69208
3.89821 82.2652 1.22245
13.581 117.232 2.0431
3.79546 96.0871 16.0665
18.4937 138.33 6.08417
10.5891 113.032 8.858
-0.837509 79.8021 16.3482
6.39222 91.3603 1.82682
10.172 108.308 5.58174
10.6469 113.253 9.01202
8.1165 99.6018 4.16871
3.687 81.2893 1.41965
8.98521 103.401 4.98309
9.08468 104.096 5.34441
13.6925 119.042 4.04802
13.6649 118.714 3.84616
19.1842 134.673 0.21553
9.01717 103.37 5.10355
7.5618 105.196 12.4443
-0.473574 80.4502 16.2615
18.8833 133.078 -0.102726
2.29292 77.1441 2.88659
7.98773 96.238 1.83271
1.12824 85.9625 16.416
10.2632 112.173 10.1438
3.39952 79.6133 1.75405
18.72 131.818 -0.131496
6.47748 90.8642 2.46264
2.68336 90.7943 16.3691
7.73137 94.8506 2.1851
18.4922 130.331 -0.360472
17.7538 134.084 6.33534
4.91992 84.9877 2.48985
9.17598 104.96 7.7643
1.83865 87.0766 16.3548
1.41709 84.8495 15.6914
4.80051 96.4042 15.4909
4.73799 83.7358 2.60267
8.39099 97.0535 3.05268
3.38685 91.8242 16.0117
16.6754 129.163 6.1727
1.10265 83.3464 15.8137
5.44569 97.7114 14.8094
14.4818 119.271 4.02447
14.4161 117.213 2.25463
3.52039 91.8035 15.9155
19.6965 135.895 2.41
4.36945 81.5994 2.32358
9.41984 105.836 8.98908
2.96566 77.6166 3.44735
17.3447 122.42 -2.34566
4.49081 81.6183 2.64414
19.7695 135.928 2.9978
1.39668 83.1344 15.6397
5.204 95.7052 15.0427
7.4475 101.596 12.9261
8.5201 96.6888 4.03027
8.63953 102.05 9.28537
20.1528 138.4 4.77483
9.29712 102.704 7.61572
8.51865 97.009 4.62672
1.05445 80.9512 15.3902
9.50532 106.634 11.0436
9.46526 102.547 6.96543
19.2667 135.756 5.58557
8.01324 100.731 10.599
8.0729 101.406 11.2972
5.39283 84.7308 3.83271
7.85318 93.6639 4.07946
8.22844 102.209 11.589
3.40626 77.7894 4.01051
0.0938747 76.8504 15.3098
7.81788 100.672 11.7206
4.15513 79.6537 3.34559
18.8545 128.435 0.0981889
4.78187 81.8258 3.44842
8.44762 100.8 9.85216
5.61825 85.1467 4.00451
20.5663 138.412 4.51271
9.32902 104.775 11.0792
7.11911 98.7713 13.0049
17.3262 120.049 -2.26841
7.02336 89.7822 4.24866
20.256 135.952 3.73424
7.54868 98.6998 11.7727
17.8015 121.094 -2.45568
7.46194 98.4482 12.0927
9.04759 99.3257 7.25461
15.4789 117.44 2.66883
19.6573 134.828 5.43677
2.53155 83.3312 14.8433
18.8525 126.649 0.00869172
8.44675 94.9136 5.34915
2.59659 83.2106 14.7678
16.1111 120.078 3.43856
7.22632 89.8217 4.63635
8.43141 94.7753 5.37547
16.4528 124.335 6.78115
19.9858 132.045 1.83043
5.69577 84.4045 4.96228
8.88102 97.6644 7.04841
18.076 120.872 -2.60057
5.47795 83.5577 5.06989
6.54469 95.0816 13.4096
17.3136 126.886 6.91783
20.4103 133.165 2.06691
19.8577 130.709 1.54467
19.3318 127.353 0.0484427
8.76856 98.5175 8.91547
20.4591 135.892 4.8442
6.18653 93.7834 13.6989
18.0938 128.283 5.84604
19.0453 131.775 6.10675
5.68508 91.8157 13.777
5.10615 80.7149 4.40117
5.85939 84.392 5.46442
5.79652 84.1984 5.52039
8.20469 92.8498 5.75763
5.56216 91.0723 13.6529
18.7568 128.44 4.21642
18.3733 127.073 4.33823
18.0561 126.03 4.46927
5.76721 90.7792 13.1662
5.52319 82.4109 5.45386
19.6659 126.073 -1.09961
19.7542 132.202 5.04329
3.36647 82.8226 14.0316
6.55074 85.8662 5.60414
5.60694 82.5422 5.62474
6.41714 92.1086 12.757
5.65299 82.5327 5.79819
20.8088 132.438 2.11273
8.44524 95.6019 9.30369
21.0393 134.027 2.96784
8.37851 95.6263 9.59861
17.9974 125.642 5.49304
7.1174 93.6841 12.3133
18.6343 127.403 5.07637
18.3816 126.898 5.4849
20.5919 130.265 0.907543
17.9129 122.271 2.63899
5.33867 88.2819 13.5414
20.1692 127.827 0.260472
18.8705 119.854 -3.0406
8.29155 92.9885 7.9956
2.53484 78.4096 14.0454
8.145 94.2064 9.93591
18.9348 128.123 5.56475
20.0396 129.589 3.0377
20.3296 131.984 4.47764
5.63149 81.3912 5.93138
17.615 124.05 6.49911
21.4509 135.303 4.39887
7.27914 89.6051 9.01049
5.48129 79.7678 5.42023
18.2016 121.763 2.60779
17.7918 122.674 5.07407
17.7463 121.644 4.18184
18.7136 124.951 4.09077
7.32775 89.2522 8.87761
4.05241 75.9665 7.13151
5.64458 87.064 12.8876
4.98787 85.344 13.5804
17.9274 123.628 5.85961
19.172 124.417 2.14684
19.8362 127.174 2.60343
19.8484 127.208 2.6191
5.33642 85.9987 13.2958
18.9136 123.113 2.13913
7.19538 86.4459 7.18008
3.69322 75.7337 8.98161
6.75411 84.8197 7.21832
6.04523 82.0842 7.16651
18.6534 122.893 3.308
7.53776 87.8855 8.05649
21.5151 130.215 0.75617
6.04345 86.1306 11.8884
21.5715 129.946 0.560713
5.24114 77.7911 6.36259
19.3934 123.935 2.58716
5.93203 80.4662 6.90704
18.3427 121.281 3.85293
5.93776 80.3828 6.92491
4.18305 75.8381 8.71902
6.90811 84.747 8.01026
7.13259 85.4359 7.90667
18.7401 121.419 2.67829
19.3273 123.056 2.30443
6.42783 82.9542 8.16124
21.2617 125.687 -1.91423
19.4244 123.996 3.13541
19.1085 124.073 4.61448
6.98964 84.7828 8.3045
21.0245 123.169 -3.07706
19.1266 123.939 4.79748
19.4862 123.787 3.7044
6.00372 79.5867 7.44362
18.6183 121.19 4.57809
22.2255 131.124 1.72266
22.199 130.909 1.65027
19.3419 123.045 4.01262
5.23469 81.3668 12.695
21.0566 121.442 -3.78159
21.7927 126.578 -0.987078
6.20937 83.6708 11.7702
5.26593 76.2278 7.64844
18.7836 120.564 4.11794
6.30667 80.4127 8.31532
5.36058 76.1818 7.79382
22.128 129.888 2.03876
21.4877 122.745 -2.91091
19.2742 121.824 4.53835
6.28278 79.8076 8.806
21.9957 128.703 1.96073
6.75487 83.0968 10.5777
5.94915 80.9669 11.3955
7.05511 82.9452 9.76993
20.935 124.917 2.62985
4.90075 77.7758 12.7249
20.6443 123.997 2.9643
20.2874 122.848 3.11501
22.4598 128.67 1.25495
5.89863 77.6841 9.32593
5.90558 76.7658 8.3596
5.58981 77.2994 10.2987
5.63602 76.7308 9.61564
5.3243 76.9133 11.1708
21.7526 122.044 -2.02205
21.8297 124.528 0.430289
5.27139 76.6274 11.4843
22.7633 127.973 1.14561
21.7153 122.178 1.43
22.3023 123.06 0.240597
