ply
format ascii 1.0
comment Created by Open3D
element vertex 1946
property double x
property double y
property double z
end_header
27.0958 104.984 -13.9149
-16.298 103.757 -14.4975
3.80967 103.108 -19.1031
11.9716 102.674 -21.6763
14.5607 102.698 -21.8469
6.83681 103.102 -19.5518
-9.87208 109.059 4.8552
9.51743 102.944 -20.5652
25.73 104.486 -16.27
-17.5345 106.726 -3.55151
-1.95287 109.129 3.66662
-13.7868 103.702 -16.2506
-13.9345 103.721 -16.2059
-2.50932 103.653 -17.6586
-12.7852 103.762 -16.2461
-11.6166 109.322 4.86214
-3.75512 109.251 3.74578
23.03 108.709 -1.32396
25.8793 107.818 -5.0374
-6.80744 104.057 -16.5747
-10.6234 104.126 -16.1618
19.2588 108.93 -0.682487
-11.3593 104.125 -16.2245
8.80077 103.579 -20.2821
2.35792 103.711 -19.2541
17.171 103.588 -21.2634
17.1183 103.594 -21.2838
-13.1595 104.186 -16.2437
0.956301 103.806 -19.1178
11.9461 108.25 -3.55555
-1.92925 104.142 -18.0191
-14.7634 109.528 3.5026
24.1201 104.728 -18.9729
17.2541 103.974 -21.2313
1.71542 104.088 -19.2895
-8.69697 104.663 -16.0913
4.98211 109.021 -0.729402
-19.1047 106.159 -9.69177
-16.8515 107.898 -3.25257
-3.29753 110.086 3.81606
12.0463 103.81 -21.8787
16.7314 104.049 -21.4333
8.53702 108.469 -3.68032
-1.88623 110.184 3.82209
-13.4272 104.68 -16.2475
-17.7281 107.242 -6.02392
27.2592 107.227 -10.594
23.0795 109.499 -1.57769
21.7117 109.875 -0.28444
-6.24869 104.773 -17.1634
-14.6171 105.042 -15.3966
12.8006 108.849 -3.44991
-17.6824 107.402 -6.18483
-16.5882 108.296 -2.93491
6.18031 109.038 -2.34418
-18.7612 106.905 -8.47393
-14.7822 110.096 3.20712
23.8894 105.74 -17.3152
23.039 104.998 -20.1012
10.4855 108.958 -3.77334
-12.6003 105.261 -16.2723
24.5188 109.646 -3.14371
18.8201 110.15 -0.698933
18.6729 110.138 -0.815497
2.65316 110.644 2.4538
-7.5201 105.364 -16.9046
25.3336 109.478 -4.33549
17.3405 109.908 -1.96658
25.8022 109.388 -4.8534
11.4188 104.622 -21.7917
-7.97017 105.509 -16.7316
-13.8649 105.751 -15.3126
25.1988 109.659 -4.23828
8.66364 105.015 -20.6311
18.9178 110.502 -0.618028
24.2605 110.047 -2.92029
15.73 104.952 -21.7739
13.7374 104.893 -21.8389
10.5718 104.954 -21.5079
-3.25029 111.313 4.17917
5.98962 105.432 -19.5574
-3.96854 105.578 -18.0392
-19.7047 107.549 -9.13834
9.82211 105.15 -21.2563
11.9576 109.891 -3.4991
-17.9494 108.709 -5.34148
24.0783 110.51 -2.75821
-14.8342 106.399 -14.799
-3.16603 111.73 4.32158
26.807 109.854 -5.9369
16.6678 105.579 -21.4559
4.83758 105.819 -19.5128
18.05 105.777 -21.0093
11.3617 105.428 -21.9426
-15.4519 110.965 1.90569
-15.9966 110.771 1.02541
-19.6791 108.362 -7.9421
23.1473 107.154 -16.8439
26.4056 108.92 -10.4081
-5.61797 111.987 4.3176
0.032903 112.088 4.1497
3.6417 111.661 1.70526
-15.9954 106.923 -14.6243
-9.1016 106.633 -16.4187
-17.1042 109.893 -3.19938
25.3767 110.699 -4.23942
-8.67441 106.627 -16.6193
26.1 108.728 -12.1662
25.8079 108.609 -12.7118
-7.07931 112.317 4.6749
7.52651 110.676 -3.05539
4.61045 106.329 -19.5669
2.93282 106.283 -19.6632
22.3591 107.217 -18.133
-7.2793 112.462 4.74973
17.4458 106.353 -21.2538
18.3279 111.655 -1.05612
2.55419 106.408 -19.729
-15.8973 107.301 -14.5343
-5.76809 106.78 -17.8766
9.26237 110.917 -3.59536
2.61843 112.476 2.85584
-6.4302 106.98 -17.689
6.696 106.705 -20.0594
11.2432 111.132 -3.58417
0.326045 106.679 -19.6186
-4.43955 106.914 -18.2746
26.5358 111.047 -5.44093
-6.21566 112.866 4.58426
2.017 112.773 3.39846
-14.515 107.587 -14.9783
-13.4429 112.946 5.3768
25.153 109.159 -12.9846
-14.8945 112.539 3.70109
25.0872 109.709 -11.078
0.954131 107.074 -19.4437
12.9738 106.779 -21.824
12.3533 106.773 -21.8358
-4.02558 113.39 4.93556
24.9021 109.79 -11.8564
6.11096 112.026 -1.81016
13.3958 111.86 -3.33311
25.3782 110.297 -10.5608
25.7805 110.587 -9.49965
-2.71514 113.617 4.86246
-15.1459 112.591 2.04616
-3.6263 107.567 -18.4002
-19.0021 110.844 -4.40489
-9.21661 113.604 5.22648
-7.72109 113.616 5.09884
8.88959 107.15 -21.3502
2.98334 113.405 2.7747
-14.8296 112.997 2.77083
-10.1 108.271 -16.1141
18.8224 107.622 -21.4262
26.8943 111.608 -7.0024
26.5005 111.903 -5.84432
-14.7835 113.251 3.318
-13.5059 108.596 -14.797
-9.98198 113.972 5.33767
-15.3986 112.78 1.2838
14.1983 107.652 -21.3262
-20.0508 110.259 -8.12074
-5.91222 114.035 4.86939
-5.05025 108.465 -16.6354
25.0314 112.649 -3.53476
-1.97205 107.975 -18.9653
-16.9787 109.12 -13.1705
4.85164 113.226 0.287038
9.53896 112.357 -3.53571
-14.6002 113.948 4.87031
22.653 109.425 -16.2477
12.1761 107.776 -21.6128
0.484963 114.282 4.43712
-1.17446 108.144 -19.092
-4.00698 108.763 -16.8633
26.3823 112.495 -5.58833
-14.8957 113.661 2.29561
-14.2998 114.498 5.27258
23.5245 110.799 -12.865
-18.962 112.062 -3.93119
-12.7336 114.837 6.10431
-15.3359 113.572 1.39054
20.1677 114.243 0.513755
26.7161 112.45 -7.19707
-15.5088 113.757 1.55379
-12.8489 115.01 6.07406
-8.00842 109.544 -15.4987
16.487 113.697 -2.11028
21.2363 109.232 -19.7288
-10.4849 115.015 5.46046
-14.2917 114.907 5.38862
-8.77535 109.729 -15.2901
2.71358 108.892 -19.6459
12.804 108.869 -20.756
16.725 108.964 -21.0371
8.61677 108.899 -20.653
-16.0545 113.816 0.539443
24.48 111.7 -11.7415
-11.1835 115.398 5.84723
16.4684 109.117 -20.9399
22.1165 110.191 -17.4806
-14.5795 115.066 4.60402
21.8711 110.088 -18.2235
-1.9148 109.575 -17.942
21.9585 114.8 -0.390025
-8.65885 110.158 -15.3103
4.20557 109.248 -20.139
-7.59545 115.726 5.54272
20.5834 115.213 0.721942
24.0258 111.875 -12.4415
-1.3756 109.703 -18.399
13.4757 109.62 -20.1686
-3.73283 115.868 5.31532
-12.7318 110.503 -14.7716
3.16568 115.518 2.69991
14.857 114.408 -2.75313
17.4434 109.855 -20.5841
11.4959 114.18 -3.44064
9.51842 114.162 -3.35991
19.4808 109.929 -20.6503
-18.8803 113.47 -3.40349
-10.8254 110.694 -14.9965
16.2487 109.962 -20.5404
1.85901 116.035 4.11609
14.9097 110.043 -20.244
6.88732 109.78 -20.5454
-16.3944 115.202 2.49041
19.8331 110.103 -20.6236
12.7567 110.073 -20.2239
22.3263 115.402 -0.706588
-17.116 114.861 0.881055
21.8059 115.623 -0.196351
-19.4798 113.649 -3.80511
21.8931 111.599 -15.8024
-19.0404 113.913 -2.9955
11.2326 114.574 -3.4648
-20.224 113.289 -5.36372
-20.3845 112.585 -8.08004
21.6212 111.007 -18.3523
-3.49931 111.187 -15.2821
-19.1588 114.101 -2.87741
-1.29379 110.81 -17.3478
7.84016 114.832 -2.87597
6.85972 115.003 -2.14272
10.5997 110.291 -20.6136
-20.5634 113.005 -7.18522
0.903093 110.622 -18.5396
21.8233 111.907 -15.7031
24.914 113.163 -11.291
4.65621 115.812 0.724811
-1.04196 116.666 4.23821
-4.67243 116.963 5.60507
7.81364 115.081 -2.83213
-15.73 116.329 4.08784
6.41053 110.592 -20.2525
-3.13767 111.671 -15.2875
25.8341 114.061 -9.05128
-15.3599 111.628 -14.4745
25.3589 113.717 -10.419
20.4074 116.639 0.977391
14.1118 111.149 -19.6278
-2.85836 117.103 4.85764
5.04122 110.807 -20.1192
9.20233 111.124 -19.4796
17.4365 111.242 -19.8675
23.1003 112.924 -14.0883
18.3046 111.266 -20.0103
9.65296 111.142 -19.7479
-5.88049 117.373 5.4863
9.37883 111.234 -19.5649
26.0328 114.969 -6.85806
23.7261 116.198 -1.91987
-1.31366 117.185 4.26998
-16.2116 116.741 3.96314
24.3033 113.542 -12.3073
20.1434 111.395 -20.1526
16.4143 116.245 -1.28332
-6.56337 112.045 -15.2645
-10.8339 111.963 -15.2296
-20.3151 113.584 -8.12968
-4.00325 112.32 -14.5721
-19.4042 112.964 -10.8199
6.87405 111.256 -19.9431
8.01892 111.432 -19.4065
-12.8646 117.5 5.86763
-20.2798 114.457 -5.22019
19.7116 111.656 -20.1307
12.8177 115.943 -3.12574
-4.00986 112.568 -14.4516
25.6255 115.712 -5.33463
2.39852 117.573 3.97586
-10.3165 117.757 5.90572
-19.678 113.325 -10.3863
1.81517 117.737 4.11626
2.67324 111.926 -18.3278
21.9638 113.078 -15.7823
-16.3085 117.272 3.88471
-17.7457 116.375 0.533238
2.48478 112.08 -18.1814
24.604 114.393 -11.5682
9.82418 116.233 -3.21849
-19.0273 113.427 -11.2859
-7.6587 112.795 -15.0133
21.978 113.362 -15.7331
7.27232 116.505 -2.28286
21.1427 113.046 -16.9179
-19.1167 113.553 -11.142
-6.83743 112.973 -14.8233
-0.0784442 118.047 3.91449
18.2601 117.756 0.903183
24.6294 115.851 -7.10788
-0.197083 112.562 -17.5183
-18.2951 116.902 0.757266
24.6334 114.868 -11.3977
21.0603 113.246 -17.3679
9.33225 112.479 -19.2373
-3.3478 113.534 -13.9655
-9.23595 113.228 -14.6127
23.3578 117.509 -1.37396
-19.615 114.349 -9.34706
13.9516 116.94 -2.68018
25.0466 116.744 -4.6091
6.73149 112.539 -19.0122
-19.2303 116.737 -0.615999
-8.93142 118.67 5.73442
-19.3002 114.666 -8.84739
8.08168 117.006 -2.67046
-13.3784 118.593 5.49142
14.5838 112.824 -19.4122
3.91538 118.103 1.77245
-0.686492 113.133 -17.1118
23.4849 114.633 -13.7419
0.7899 118.699 3.95376
11.9084 117.153 -3.16567
17.9714 118.443 0.941961
-13.8811 118.774 5.23796
-1.65796 113.824 -15.3298
-0.500563 113.453 -17.0311
-2.05304 119.069 4.45757
-19.1716 115.72 -6.79036
1.46044 119.13 4.17418
5.74422 113.279 -18.7776
-18.9588 114.666 -11.1281
-19.0318 115.947 -6.36999
20.7091 113.892 -18.1338
-26.2913 117.205 -0.884741
-18.8572 117.727 0.384697
-9.83044 119.474 6.16632
-5.64762 114.415 -13.784
19.9206 113.596 -19.457
1.41695 113.694 -17.2972
-26.6789 117.314 -0.761942
-19.3447 117.57 -0.567876
-5.32538 114.579 -13.5962
20.0002 113.709 -19.4275
20.774 114.363 -17.0236
-4.54863 114.684 -13.4205
7.91047 117.872 -2.47702
22.3458 116.527 -9.06011
-5.71291 114.643 -13.6813
-17.083 114.562 -12.9118
24.8395 117.637 -5.26381
14.2001 118.129 -2.55534
22.8413 118.793 -0.869548
-11.5568 114.394 -14.5192
2.90524 119.434 3.26486
-19.002 116.364 -6.44281
23.8906 115.78 -12.9015
22.1838 116.624 -9.77414
22.1888 119.216 -0.0379982
-19.4527 118.182 -0.206214
2.90123 114.131 -17.9222
11.3659 114.003 -19.2492
17.9249 114.256 -19.1067
-13.0388 120.057 6.13888
-2.5107 115.193 -13.682
-10.8778 114.873 -14.348
-18.0055 115.317 -12.005
13.0183 118.523 -2.71755
16.9485 119.497 0.521247
-17.4773 118.931 1.67634
20.2358 119.754 1.15774
-17.1019 115.209 -12.6897
21.6581 119.601 0.368136
-9.73492 120.346 6.19374
9.21088 114.367 -18.7396
-18.748 115.647 -11.1386
-0.717578 114.762 -16.2978
-10.7001 120.462 6.42781
6.18223 119.007 -0.854305
2.56549 114.542 -17.6577
-24.5701 117.346 -4.27027
-11.611 115.122 -14.1933
2.99474 114.541 -17.8855
8.9493 118.623 -2.83702
22.8937 116.383 -12.8738
22.026 116.796 -11.2151
21.7817 116.926 -10.711
17.6621 119.924 1.12869
11.0726 118.688 -3.02432
5.69174 114.727 -17.7392
-12.712 115.23 -14.0484
-16.1459 115.404 -13.0658
3.58679 119.961 2.46774
-16.3915 119.643 3.04389
6.40857 114.889 -17.4198
21.4719 117.128 -10.4259
18.0819 114.775 -19.1621
21.5213 115.796 -15.7237
22.3414 116.706 -12.4314
-19.1329 116.131 -10.6204
-24.4472 117.638 -4.35651
-25.2176 117.744 -3.90508
21.1109 117.368 -10.2576
-19.3833 117.005 -7.773
23.9678 119.069 -4.06586
20.4439 115.616 -17.0153
-11.9889 120.84 6.14956
-18.6158 117.551 -5.83988
20.6696 115.771 -16.5442
-6.90965 120.861 5.65278
-23.1568 118.533 -1.89983
21.65 117.117 -11.8642
21.6269 117.134 -11.8811
-18.6763 117.675 -5.94597
-20.9415 117.692 -5.66709
20.6751 117.652 -9.87277
-4.53695 121.029 5.52985
22.2247 117.915 -9.09761
19.7142 115.241 -19.1598
-28.5446 119.309 0.975585
13.2219 115.086 -19.2955
5.60916 119.964 0.0707418
12.5804 119.435 -2.74824
-15.1485 120.705 4.81186
-8.0919 121.196 5.95904
-19.1254 117.802 -6.02299
-18.0227 117.814 -6.12436
12.3384 119.475 -2.76886
2.2696 121.123 4.19608
22.5459 120.27 -1.1256
-18.435 118.114 -5.47859
-27.212 118.453 -3.34451
-28.8128 119.803 1.91409
-25.5305 118.41 -3.75046
21.0796 116.476 -15.6988
-26.8752 119.639 0.980006
-4.73715 121.403 5.57078
9.38305 115.481 -18.5483
23.2925 119.526 -4.5967
-21.6442 118.194 -5.58456
-21.6013 118.255 -5.60477
-23.8053 118.453 -4.7661
-25.3785 119.486 -0.675911
-27.3925 118.751 -3.42039
-6.81311 121.712 5.94352
-18.2341 118.333 -5.95201
20.3858 116.446 -16.9512
8.92199 115.939 -17.8427
-26.5357 119.923 0.85173
-25.0899 119.516 -0.869522
-13.5674 121.309 4.883
20.0403 121.248 1.36293
-0.913199 121.332 3.67376
17.3643 115.85 -19.344
-28.7303 120.335 2.31973
-26.4749 120.115 0.968074
-1.9733 117.136 -12.9053
-17.4758 116.97 -12.1118
20.3524 117.847 -12.4201
-21.309 120.018 -0.236875
21.0835 117.146 -15.4477
-19.5299 120.16 0.0503748
-20.3137 120.171 0.140543
-17.3981 117.054 -12.1568
-23.3953 119.559 -2.00305
20.6829 117.679 -13.6587
-20.5177 119.684 -2.05479
-19.7916 119.961 -1.07408
22.5753 119.877 -5.78103
-14.1231 117.14 -12.7779
2.29617 116.409 -17.2093
-22.8275 120.525 0.92099
-23.2227 118.988 -5.02516
19.8832 121.775 1.47499
19.7657 117.971 -13.133
-19.4314 120.26 -0.639938
-24.3482 120.111 -0.73775
-12.373 121.935 4.94056
-24.8363 119.245 -4.20003
-21.5616 120.434 -0.00913806
-20.2184 120.322 -0.690071
-18.4345 119.026 -5.98895
21.4285 121.668 0.27458
-13.9868 121.883 4.37599
11.179 120.638 -2.84685
-19.9377 119.852 -2.92381
-19.0321 119.799 -3.21762
-22.6791 120.544 -0.0648652
-20.6613 120.295 -1.24372
-6.04165 122.566 6.01545
-20.1668 119.942 -2.76702
7.87384 117.038 -16.6998
-0.773497 117.405 -14.5171
-12.0903 117.6 -12.7043
-16.4225 121.719 3.50183
-29.3764 120.941 1.70446
-22.0495 120.252 -1.67252
17.8417 122.109 1.52715
-22.7163 120.942 0.973089
-20.03 120.926 0.619685
-18.4108 117.983 -10.8839
-7.4411 122.688 6.08986
-26.8677 121.423 3.09758
-19.7879 120.583 -0.880547
18.6321 116.919 -18.7005
-19.6755 120.958 0.500689
-19.4035 121 0.558412
-17.9113 119.054 -7.08322
-22.4071 121.292 1.93331
-16.746 117.671 -12.5202
-21.1229 119.596 -4.82319
21.4571 121.974 0.168565
9.02995 117.144 -17.3793
-22.4075 121.415 2.0481
17.725 117.022 -18.7721
-7.95722 122.876 6.10002
-19.6651 119.799 -4.59033
-18.6021 119.361 -6.38241
-16.4154 117.878 -12.4299
-21.2488 119.497 -5.82296
-20.3894 121.237 0.476697
-24.1381 119.817 -4.61609
-7.05806 118.304 -12.1451
18.7583 117.353 -18.3013
12.6773 116.986 -19.2885
-19.6597 119.909 -4.98239
1.2921 122.89 4.40379
-27.8128 120.65 -1.37788
-19.1435 121.254 0.0411507
-12.3912 122.619 4.61941
-20.6734 120.011 -4.61701
14.578 117.148 -19.0749
5.16119 117.55 -16.6558
-19.3596 120.032 -4.79109
-19.1564 121.718 1.64211
-21.6226 121.778 2.10728
-19.4332 120.012 -4.92832
-23.6135 119.96 -4.84977
-28.1133 120.133 -3.81431
-6.44079 123.166 5.70262
-13.8182 122.503 3.79235
8.37051 121.459 -2.36631
19.059 119.155 -12.304
-26.0126 122.055 3.17489
-17.1573 118.342 -11.9969
20.2909 122.666 0.909122
-19.0191 121.971 1.77562
-16.9195 122.296 2.80366
-0.183609 118.054 -15.1235
-19.6096 119.967 -5.9374
-22.8175 121.554 0.442281
-22.8035 121.449 0.0347338
13.8184 117.701 -18.0001
-18.6192 120.494 -4.13769
-22.4929 121.693 0.78529
-18.5463 120.239 -5.1931
-27.4865 121.273 -0.404548
22.0267 121.814 -3.25611
-22.0758 121.082 -1.79955
-17.5141 122.312 2.45239
-17.1553 119.66 -7.77781
-19.2652 121.186 -1.73325
-24.1395 122.345 3.13488
16.1402 117.674 -18.806
-19.2276 121.217 -1.78434
-25.0705 122.391 3.26946
-19.9539 122.099 1.58372
-14.0296 122.763 3.52921
-18.0734 120.615 -4.3934
21.2035 122.798 0.146136
18.4867 117.987 -18.0701
-29.0064 121.529 0.117955
-17.7947 118.867 -11.2718
-20.6903 122.418 2.59566
-17.8579 122.392 2.13947
-18.6463 121.134 -2.66654
-20.8213 122.202 1.63955
-19.717 120.379 -5.48385
15.0032 117.875 -18.4829
-18.8611 120.743 -4.25854
-18.0554 120.151 -6.63849
21.6055 122.468 -1.61585
-18.6357 121.191 -2.66819
5.10964 118.355 -15.9768
15.8683 117.921 -18.7123
-20.6976 120.557 -5.1587
22.2939 121.219 -6.7957
14.1229 118.254 -17.4033
-17.9187 120.802 -4.5989
-21.1687 122.646 2.76898
-18.8364 120.713 -4.91193
16.1323 122.981 0.329744
13.6381 118.298 -17.5923
-22.0459 122.663 2.54534
-2.38134 119.504 -11.5116
-16.6864 120.152 -7.64086
-21.2494 121.597 -1.65555
22.5174 121.027 -8.26838
-29.0106 121.96 0.27872
-20.8826 121.064 -3.9625
7.48428 122.469 -1.33654
18.3524 123.628 2.04024
-19.7982 120.886 -4.85747
16.2576 123.239 0.648587
-20.9447 121.105 -4.02512
18.4039 119.033 -15.9751
-0.338027 123.708 3.75844
-23.4213 120.826 -5.09374
19.2146 123.49 0.94518
-21.775 122.427 0.751793
0.171427 123.84 3.99713
22.6485 121.414 -7.57188
-28.7789 122.823 2.80154
-17.7749 121.015 -5.25708
-21.009 121.209 -4.2024
-21.5448 121.464 -3.1982
-22.9045 123.221 3.58583
-19.7349 122.713 1.2982
-23.9402 123.218 3.56825
-6.3742 119.857 -11.1115
3.52003 118.752 -16.4436
-18.4702 121.173 -5.12058
-21.3639 121.326 -4.35228
-21.665 122.831 1.35707
-13.2413 119.553 -12.0715
-18.2841 121.435 -4.44636
-16.8061 120.584 -7.93554
-2.37772 120.112 -11.144
-10.2929 119.695 -11.9954
-20.2522 121.37 -4.62995
15.7157 118.821 -17.9996
-23.2664 123.518 3.75062
-18.2491 121.159 -5.97666
15.4595 123.359 -0.955152
10.6627 118.732 -18.3006
-8.86832 124.316 4.97608
-18.5471 120.657 -8.20671
-18.7426 123.768 3.73458
-11.0044 119.876 -12.0172
-24.0641 121.438 -4.83332
-12.4044 123.884 3.40416
3.25851 119.166 -16.2403
-4.06128 120.547 -10.503
7.99846 123.146 -1.74881
-18.4306 123.786 3.23899
17.6679 120.027 -14.7702
1.68503 124.666 4.45523
-27.3592 122.114 -2.64417
-18.4261 121.123 -7.45893
22.3332 123.029 -4.10143
-9.43331 120.37 -11.3158
3.24614 124.606 3.63688
-17.9421 123.998 3.17752
-10.2714 120.326 -11.6661
14.5398 119.634 -16.7316
-18.5546 124.276 4.2833
17.387 120.581 -13.4684
9.14618 119.448 -17.1298
-26.3354 123.964 3.63916
10.2357 119.311 -17.8467
-18.6073 123.543 1.15896
19.6632 124.213 -0.0320676
0.388115 120.044 -14.2191
1.24452 124.926 4.40223
-17.5687 121.64 -6.41267
4.51631 119.886 -15.3857
-6.30693 120.929 -10.4175
-0.405596 120.429 -12.9278
-18.4836 123.755 1.46373
-20.6973 123.999 2.44469
0.0536632 124.92 3.94708
2.2064 125.059 4.26348
-4.20113 125.162 5.10904
-17.1387 121.778 -6.63915
-16.5101 121.361 -8.33434
-0.101736 120.482 -13.3134
6.18318 124.467 1.35624
-13.594 124.254 2.42296
-11.1308 120.674 -11.7487
16.5075 124.765 1.23786
-27.0659 122.211 -4.3432
-17.3833 122.059 -5.93537
7.24744 120.02 -16.2036
-16.6309 122.181 -5.62565
-17.605 121.824 -6.96541
-17.7419 122.02 -6.21816
8.10998 120.009 -16.5579
16.8652 119.975 -17.6533
-17.2922 122.531 -4.59737
-2.84841 121.473 -10.2557
22.8664 121.363 -13.3691
-13.9385 121.017 -11.1373
-17.4604 122.037 -6.89767
22.3292 122.607 -8.72768
1.88251 125.56 4.54497
23.9495 121.68 -12.5258
21.666 122.585 -8.85566
21.6403 122.725 -8.35001
21.7781 122.936 -7.59603
-3.97781 125.469 4.54314
-16.9457 121.807 -8.32537
7.47452 124.344 -1.05331
-16.7872 125.072 4.08596
16.7259 120.583 -16.4736
-7.48587 125.509 4.72005
21.5391 122.246 -10.6846
-17.3522 122.562 -5.7126
17.4482 121.745 -12.3404
12.8287 124.189 -2.57223
22.996 122.971 -8.24179
23.9266 122.982 -8.3339
11.2932 120.468 -16.7895
-14.4572 124.772 2.16403
-17.5835 122.33 -7.00815
-16.4318 122.003 -8.45929
-20.4672 122.422 -6.50632
-15.914 121.949 -8.84365
23.9239 122.377 -11.0834
5.16096 120.977 -14.6421
-9.57496 125.631 4.59845
-12.7187 125.086 2.74103
-10.5459 125.696 4.8604
24.1721 123.227 -8.19883
0.031575 125.821 3.93216
-12.6796 125.245 2.82481
-18.2096 125.731 4.89995
-15.5088 122.303 -8.72057
23.5299 122.627 -11.2821
-18.9407 122.602 -7.30726
-14.8613 121.809 -10.8899
23.1198 122.536 -11.8259
16.634 125.988 1.98544
14.7997 120.799 -17.8356
-22.835 125.438 3.52051
1.83201 121.275 -14.8501
3.33503 121.166 -15.4217
-16.6312 123.096 -6.14863
24.3151 123.709 -7.81825
20.074 122.006 -14.0101
6.73062 125.572 0.941839
23.2688 122.735 -11.5532
22.0322 124.915 -3.09658
24.6274 123.596 -8.57522
6.99035 121.459 -15.1121
23.0533 124.252 -6.01407
-20.2263 126.002 4.84683
10.8011 121.214 -16.557
17.1483 126.271 2.18171
22.1102 123.339 -9.62265
26.6403 123.485 -9.56118
-18.1285 126.052 4.6269
-22.294 125.65 3.46858
-27.7625 123.879 -2.87672
-26.1933 123.51 -4.47779
16.9244 122.218 -13.6232
-13.1711 122.152 -10.9872
-28.0278 125.38 2.59216
-25.3783 125.756 3.73715
-22.2527 123.283 -6.12617
10.9012 125.057 -2.56467
-27.6712 125.558 3.04699
3.07444 121.653 -15.146
7.45904 125.554 -0.630285
13.5429 125.287 -2.29359
13.5274 121.734 -15.9411
1.12074 121.95 -13.9206
2.37384 121.744 -14.831
-16.9288 123.351 -6.79973
23.0323 124.708 -5.62874
15.5397 121.378 -17.7544
12.0513 121.756 -16.0471
-1.14921 126.581 3.71916
21.8108 123.821 -9.15766
-28.9423 125 0.266605
-23.1489 125.956 3.37294
18.9053 126.021 -0.509748
-6.61472 126.8 4.92005
22.0324 124.02 -8.5558
20.5245 123.83 -9.13833
21.7162 125.651 -2.51876
6.9401 122.232 -14.268
-3.43595 126.64 3.57711
20.6422 123.828 -9.58256
-5.55622 123.042 -10.0666
27.1819 124.221 -8.7748
6.86671 126.299 1.1536
-28.5262 124.656 -1.74701
-9.77076 126.789 4.61179
-27.1914 124.031 -4.30008
11.6932 125.489 -2.5887
-22.1737 123.727 -6.06558
22.6924 125.317 -4.43626
-22.1212 126.223 3.36419
21.7989 124.832 -6.23333
-8.47264 126.838 4.36133
20.743 123.522 -11.2181
21.6077 124.869 -6.23577
19.9503 123.614 -10.9006
19.3508 124.446 -7.66653
4.98199 126.733 2.50134
5.81289 126.586 1.85173
-20.8323 123.841 -6.20174
4.24743 126.956 3.21621
16.5494 122.95 -13.3665
-24.6187 126.303 3.43892
29.1682 124.672 -8.12388
-15.8691 122.984 -10.2354
-3.98591 126.925 3.70386
1.36677 127.267 4.49305
25.4793 124.376 -9.05837
-0.778448 123.35 -10.5859
25.5501 124.451 -8.93631
-21.0097 126.68 4.11251
19.5362 123.235 -13.1297
8.13342 122.916 -13.5411
21.0303 124.532 -8.61098
21.5681 124.898 -7.3821
19.9126 124.156 -10.0823
-9.82316 123.499 -9.82396
20.465 124.048 -10.705
-28.5836 125.638 0.115812
-15.9108 123.392 -9.84903
25.5299 125.302 -6.59216
-10.7591 123.474 -10.1112
10.4204 126.005 -2.46837
20.3664 123.816 -11.8414
-16.9028 123.979 -7.75999
14.0121 126.285 -2.03093
29.2329 125.154 -7.92313
-10.783 127.266 4.05917
-15.357 124.055 -7.8202
-12.3654 123.29 -11.0955
18.18 123.401 -13.643
-22.4371 124.447 -5.72846
17.7425 127.265 1.16967
-0.0845064 127.608 4.1014
19.5117 125.369 -6.55337
-27.4647 125.003 -3.51721
3.17555 127.774 4.09645
0.69632 127.779 4.31837
-15.4575 124.208 -7.9583
-5.25594 123.916 -10.1215
19.2749 126.776 -1.54645
26.9372 125.225 -8.26565
-19.8995 127.421 4.62439
-15.2883 124.354 -7.60588
0.643805 123.707 -11.8135
-1.5557 127.777 3.9767
21.8845 125.498 -7.06269
27.0553 125.566 -7.43026
19.246 124.78 -9.69269
-8.30953 124.09 -9.69745
22.5764 125.831 -6.04747
27.3615 125.558 -7.69669
19.7988 123.992 -12.9975
-14.8934 123.777 -10.5223
9.78679 123.544 -13.8209
17.4839 127.852 1.81869
-14.3493 123.805 -10.6347
-14.5077 127.285 2.71643
3.76433 123.32 -14.3694
13.4238 126.842 -2.09773
30.0936 125.94 -7.31937
-25.627 127.371 3.5283
-15.4178 124.58 -8.23851
-20.7741 124.969 -6.26386
8.33291 123.931 -13.1263
15.1737 127.343 -0.753842
-20.0585 127.864 4.52026
-5.58476 128.114 4.07392
-19.2521 127.94 4.65295
21.4343 125.88 -7.21148
18.2449 124.723 -11.5189
19.433 124.501 -12.5405
15.4677 127.829 0.531922
10.2382 123.986 -13.7653
0.207043 128.446 4.31537
9.84797 126.975 -2.2743
-26.9953 125.655 -3.90272
-12.5603 127.911 3.35358
-16.4067 125.65 -5.07435
-6.33502 128.451 4.69402
17.8189 125.63 -8.68065
19.8652 127.374 -2.22823
4.40218 123.939 -13.9804
-26.9326 125.788 -3.93549
-23.0575 127.747 2.99818
27.1201 126.585 -6.68704
18.095 126.365 -6.67663
18.0938 126.37 -6.66963
29.4181 126.066 -8.94877
-0.384438 128.77 4.29785
-20.6539 125.398 -6.71967
16.7134 124.633 -13.3356
-22.132 125.644 -5.69313
1.47358 124.67 -11.7236
27.8915 126.621 -6.83721
16.4421 124.019 -15.7384
15.5677 123.649 -17.0873
10.5056 127.367 -2.36041
30.0708 126.796 -6.45925
17.688 128.587 1.53863
17.3489 126.396 -6.92999
19.9166 126.131 -8.26587
-20.9 128.302 3.8901
-6.25527 125.049 -10.0246
17.3615 126.496 -6.77241
-1.51164 125.395 -9.22308
23.2645 127.298 -4.40855
-27.1861 126.587 -2.28035
-27.1117 126.556 -2.47276
-15.2995 125.205 -8.81227
-2.68422 128.792 3.72528
19.8127 125.069 -12.8536
29.0977 126.252 -9.25738
-8.45464 125.133 -9.98974
15.8296 123.999 -16.7046
21.6425 127.453 -4.08675
-16.9315 126.358 -4.61276
21.7072 126.869 -6.42583
14.4574 128.013 -1.33734
14.8331 128.135 -0.913694
-20.5667 125.672 -6.9624
16.4624 124.323 -15.7391
-14.9656 125.311 -8.93528
23.5771 125.344 -12.6911
-1.06056 129.066 3.97541
17.1029 126.836 -6.35508
-16.5842 125.864 -6.82063
2.57985 129.232 4.23572
29.6944 126.628 -8.53694
17.2829 126.977 -6.06673
-3.78337 125.681 -9.02569
0.258691 129.286 4.17315
16.8567 126.829 -6.86765
28.9387 127.526 -5.6844
4.80249 129.181 2.93238
6.91901 125.246 -12.4393
-14.8573 125.763 -8.44101
7.93339 125.261 -12.5837
16.8109 126.431 -9.19062
7.59494 128.703 0.410286
18.8308 126.055 -10.8668
16.7157 125.473 -12.9134
-16.9941 126.835 -4.42589
-21.5115 128.788 3.29886
-23.2958 126.436 -5.64478
19.8715 125.49 -13.476
16.5615 127.038 -7.31022
-17.0923 126.921 -4.66116
-10.6451 129.287 3.74818
18.4484 125.768 -12.5891
18.5427 125.654 -13.1939
-24.32 128.769 2.83302
-22.9148 128.825 2.88521
16.871 126.497 -9.93172
-14.558 126.069 -8.58432
10.907 128.365 -2.26911
12.9959 128.487 -2.02116
-12.5242 129.337 3.66087
27.6917 128.101 -4.98793
20.5022 128.636 -2.27643
16.8389 129.607 1.75093
3.02757 125.422 -13.0298
17.2748 129.638 1.74132
18.2127 127.483 -6.78315
11.0858 125.28 -14.5828
-3.20297 129.548 3.17641
17.426 125.416 -14.7256
21.3347 127.67 -6.51969
-4.42407 129.489 2.89267
4.3261 129.83 3.33398
-22.5594 129.078 2.93066
-11.6546 126.09 -9.59683
-13.1 125.882 -10.2733
17.6855 127.823 -5.81443
-6.11074 129.606 3.32462
-14.5533 126.407 -8.33196
16.912 126.585 -10.7187
-5.53888 129.636 2.9828
12.0196 125.242 -15.6
-10.6477 126.178 -10.0469
19.7869 129.234 -1.36454
21.7083 128.065 -6.12747
17.1842 130.021 1.74441
0.19351 126.539 -9.97959
25.4034 126.982 -10.735
-25.8961 128.337 -0.632949
19.7478 127.045 -10.0239
16.796 125.742 -14.7467
29.2398 128.251 -6.46667
-19.8211 127.06 -6.33785
21.725 126.436 -12.7685
4.62157 130.184 3.16862
17.6901 126.055 -13.9552
18.238 127.87 -7.15605
-16.9598 127.705 -4.7324
8.09207 129.416 -0.649874
4.79977 126.287 -12.3441
9.45834 129.201 -1.64838
12.0426 125.458 -16.326
-10.0345 126.468 -10.4308
20.4875 129.383 -2.25613
-24.771 128.242 -2.39696
17.9409 126.462 -13.3998
1.17745 130.502 3.72314
10.6427 125.867 -15.0071
22.6406 128.991 -4.28849
-26.6109 129.084 0.697183
19.0409 128.334 -6.67242
13.1578 125.535 -16.8906
19.207 126.21 -14.9923
28.838 128.74 -6.22994
17.4998 126.923 -12.1625
-27.1894 129.352 1.40244
12.9626 125.632 -16.9877
8.52543 129.702 -0.970453
-4.96231 130.415 3.06793
-16.46 127.9 -5.5697
2.13864 126.896 -11.248
15.4434 127.777 -9.1681
17.3772 128.846 -5.2962
-21.6902 130.065 3.07924
-6.69474 127.179 -9.55383
17.8325 128.798 -5.75275
-15.4017 127.738 -6.63845
9.43902 126.6 -13.4381
29.3205 128.419 -8.43986
18.1173 128.733 -6.17118
18.8566 126.511 -14.9851
-2.53879 130.631 2.74548
-17.1739 130.562 3.68175
18.9271 128.176 -9.02986
-26.8819 129.773 1.48497
12.362 129.874 -2.03391
9.33088 126.917 -13.2732
-16.3052 128.185 -5.93204
27.0079 129.847 -3.87951
16.3597 128.971 -6.23615
27.0603 128.475 -9.28288
-23.2658 128.622 -3.86726
14.671 127.086 -13.4949
25.789 128.446 -9.39647
15.0831 130.997 1.40632
24.7214 128.248 -10.0895
17.8128 130.691 -0.0753183
2.34961 127.472 -11.0101
13.6293 126.286 -16.6683
21.3458 129.076 -6.80017
15.1748 127.272 -13.3225
17.8988 129.274 -5.92997
17.5703 129.353 -5.60772
-24.9836 129.451 -1.24903
14.977 126.546 -16.2792
17.6244 129.114 -6.71664
21.537 129.34 -6.27953
23.9829 127.804 -12.4499
21.8343 127.787 -12.3432
-9.02306 131.122 3.36887
11.9888 126.417 -16.8002
23.9128 127.851 -12.4907
-20.8548 130.856 3.33509
-22.8456 128.719 -4.71053
14.6886 127.425 -13.3582
-21.469 130.901 3.42472
18.5614 128.796 -8.66932
19.0796 128.337 -10.4842
-16.0872 128.631 -6.01638
22.2217 127.62 -13.6195
-6.99072 131.199 2.93008
-16.4657 128.903 -4.97699
15.6562 127.072 -15.1428
-3.49574 128.369 -8.3827
-19.3298 128.383 -6.83782
15.3021 126.833 -16.2806
-14.674 128.481 -7.09496
-26.2073 130.639 2.25241
-14.0869 128.122 -8.60492
-16.5514 131.481 4.50795
-13.1581 128.02 -9.13288
3.43266 127.762 -11.8401
21.6261 129.858 -5.62817
-11.3169 127.852 -10.2092
-18.9375 128.573 -6.81949
14.9056 128.915 -8.79759
1.43157 128.305 -9.91085
-1.9179 128.745 -7.98838
14.0338 126.905 -16.5978
-22.4673 129.069 -4.86876
-0.380522 128.721 -8.59609
-22.3059 128.855 -6.0075
-3.58489 131.617 2.76944
-16.3899 131.825 4.75942
-8.86961 131.635 3.24215
10.1258 127.273 -15.3755
17.0224 130.001 -5.59363
23.2499 128.379 -12.4513
17.6203 127.916 -13.7438
27.5797 129.849 -7.34145
4.6536 128.229 -11.4043
28.0074 129.649 -8.36718
-15.7155 129.222 -5.78411
25.6379 128.69 -11.8763
17.0829 127.854 -14.3373
-10.9594 128.164 -10.5897
8.50926 131.218 -0.783422
-0.588657 128.998 -8.42414
7.00887 131.898 1.95034
-0.388626 131.869 2.53838
-7.34565 128.659 -9.1984
2.70443 128.525 -10.817
-18.3622 131.851 3.66582
13.9756 131.469 -1.02329
14.9217 127.924 -14.7312
27.904 129.947 -8.24278
4.49634 128.564 -11.2858
-9.2037 132.006 3.20685
9.1486 131.329 -1.26093
18.3674 128.077 -14.6772
12.0709 131.258 -1.91061
25.1727 128.955 -12.0811
17.0767 130.394 -5.78273
-3.76245 132.121 2.83369
10.4703 131.251 -1.99313
-12.1162 128.518 -10.3767
8.55946 131.573 -0.685946
-3.35814 132.157 2.68401
-7.94554 128.918 -9.38093
26.4906 130.968 -4.88652
18.7426 128.241 -14.6466
-7.93173 128.953 -9.37843
7.74079 128.883 -11.2306
15.3673 128.563 -13.2646
2.51287 128.94 -10.5723
8.07227 131.887 0.186752
-3.80363 132.304 2.8484
-22.4585 132.117 3.63476
8.52018 131.828 -0.545765
5.692 129.134 -10.7225
20.8499 128.489 -14.7527
20.8376 131.28 -4.08197
7.47631 132.286 0.945697
16.0237 128.959 -12.6656
-7.74105 129.246 -9.33611
7.81889 132.185 0.425024
26.8273 129.587 -11.4472
23.6522 131.876 -2.48027
26.8121 129.704 -11.1846
25.4659 129.502 -11.8518
-20.865 132.408 3.78618
20.9313 129.235 -12.4808
-4.53866 132.674 3.01467
-15.4888 130.45 -4.71861
20.8352 129.369 -12.4833
17.3149 132.746 0.610331
-9.21638 132.733 2.93104
-16.2484 130.642 -4.41882
18.1299 128.932 -14.5025
8.43114 129.269 -12.5703
19.6083 132.343 -2.06746
16.9725 129.388 -13.156
-18.647 133.089 4.21415
-15.7684 133.381 5.03582
-6.1111 129.991 -8.90984
-18.6386 130.565 -5.69783
-5.40487 130.107 -8.74967
14.95 130.066 -11.0744
18.2029 130.735 -8.87411
8.78882 129.237 -13.7234
-25.4619 132.774 3.02996
16.164 130.584 -9.49353
14.5795 130.427 -10.009
-24.0877 131.949 -0.557192
-23.1989 131.552 -2.23135
-2.38126 130.701 -7.54493
-15.4845 131.194 -4.45474
-17.5695 130.888 -5.43237
15.2645 129.875 -12.5348
14.0902 132.909 -0.885136
16.7293 129.845 -12.941
4.12158 130.191 -10.4048
19.035 133.075 -0.821259
-16.3443 133.753 5.18755
-9.08522 133.372 2.99007
13.9188 132.918 -1.01985
-3.00652 133.434 2.43041
-24.83 132.498 0.899747
-10.5814 133.729 4.00337
18.5752 133.343 -0.305179
15.2468 130.03 -12.7966
-6.23455 133.581 2.85789
15.2 133.977 2.2735
-0.1796 130.926 -7.97832
27.9151 131.541 -8.35937
24.1914 130.564 -11.7895
16.0583 129.826 -13.917
-0.711405 131.059 -7.59989
-17.7355 133.956 5.14193
18.6501 131.131 -9.25201
8.94868 133.257 -0.152327
13.733 129.059 -16.7717
14.3682 133.579 0.482128
-13.7248 134.072 5.09543
-22.4806 131.672 -3.27667
14.5337 130.923 -9.91856
-0.926529 131.185 -7.44864
-19.3511 131.449 -5.00938
15.9406 130.569 -11.9377
26.6749 130.99 -11.4636
-24.3533 132.872 0.6719
14.7136 130.873 -10.7955
22.9902 131.257 -10.2001
12.8404 133.327 -1.3292
15.5259 130.671 -11.8348
-12.1263 130.881 -8.36874
-22.9715 132.354 -1.68715
26.6704 131.079 -11.4298
-11.9779 130.374 -10.4795
14.276 133.88 0.386176
17.9785 134.036 0.575542
22.2214 131.358 -10.2949
-6.1393 134.091 2.93903
-2.69882 131.494 -7.42843
-20.6749 131.638 -5.16326
-18.9748 134.296 4.86389
6.21436 134.538 3.28232
-8.49893 134.102 3.03238
15.9629 130.345 -13.8965
8.1774 130.414 -12.8892
-17.9638 131.694 -5.44896
5.23109 131.256 -9.50463
2.8666 131.251 -9.33698
17.7042 131.411 -10.256
-9.12555 134.182 2.9566
-12.4456 134.604 4.83026
-24.5139 133.833 3.04355
21.8937 133.749 -1.83781
-7.17292 134.299 3.00093
-14.0992 131.646 -6.58016
-2.12336 131.797 -7.28973
28.3809 132.046 -9.34145
-3.3779 134.297 2.17171
23.8324 133.735 -2.65864
6.56246 134.889 3.28656
1.44167 134.494 2.02788
18.0614 131.729 -10.2699
14.5129 131.956 -9.13506
14.5583 131.83 -9.70112
-10.7501 130.994 -10.4887
-2.42686 134.437 1.84786
20.7729 130.843 -14.3049
14.5161 132.078 -9.0565
17.5286 131.803 -10.6052
-0.0464422 132.124 -7.7192
17.1574 130.782 -14.5737
-6.10501 131.764 -8.62339
18.2321 132.224 -9.28775
15.6084 130.853 -14.2971
26.8521 132.995 -7.23351
16.261 131.867 -10.6171
19.6633 134.294 -1.65464
-10.9462 134.792 3.21651
-20.1087 135.157 5.2891
15.5521 131.02 -14.198
26.638 132.181 -10.8803
16.6134 131.866 -11.1392
17.6505 130.992 -14.642
-12.7249 135.39 5.09485
7.98161 134.695 0.365286
-15.192 135.377 5.07954
12.2496 130.59 -16.1008
-9.2894 134.94 2.67672
-11.6257 131.674 -9.69761
14.5434 132.556 -8.89493
5.0574 135.334 2.63008
-3.92168 132.509 -7.45201
10.7509 134.389 -1.68507
26.8851 133.406 -7.28329
3.64689 135.325 2.21616
-11.493 135.224 3.29047
-22.4871 135.257 4.43953
27.6859 132.819 -9.86705
27.5935 132.794 -9.95517
-6.44945 135.309 2.91896
25.76 134.643 -2.79077
0.518281 135.199 1.69206
17.1667 133.009 -8.35241
18.1055 132.67 -9.82432
-12.6103 132.755 -6.52974
19.1782 135.038 -0.853774
-7.54522 132.191 -9.33611
28.4136 133.029 -9.72062
23.5054 132.869 -9.88738
11.7291 134.72 -1.65583
19.6262 132.285 -11.8415
11.3955 131.202 -15.3279
-24.1174 135.042 2.7983
-7.36626 135.52 2.87922
17.7771 131.656 -14.5281
2.84157 135.585 1.9637
14.768 132.453 -11.2224
25.88 134.983 -2.69045
-16.8807 136.124 5.7705
4.32941 132.788 -9.09422
-23.4435 135.505 3.8654
21.9177 135.111 -2.05023
8.86635 131.71 -14.0493
14.3621 135.799 1.0957
2.94405 133.065 -8.29456
-23.5331 135.534 3.7041
-17.8163 133.253 -5.62021
9.30771 135.296 -0.440529
-11.2126 132.448 -9.39412
0.646887 133.269 -7.57982
-14.5811 133.612 -4.90308
19.7366 135.366 -1.51577
4.33218 133.028 -9.10929
-7.17611 132.745 -9.08041
7.70359 135.977 1.6449
-6.05842 135.93 2.8003
1.85832 135.871 1.71582
15.3545 132.542 -12.3834
18.1616 132.337 -13.4902
8.0598 135.697 0.27526
-22.9393 135.905 4.05207
-1.07005 133.619 -6.85814
-11.7344 136.052 3.44792
-0.203952 135.817 1.4149
-13.5994 136.517 5.36563
-4.49958 135.886 2.03641
-0.8246 135.844 1.40016
26.0783 133.399 -10.6959
15.7785 136.581 2.44507
-5.41481 133.403 -7.71922
10.7071 135.444 -1.48178
1.9405 133.551 -7.91136
18.9572 135.845 -0.860104
18.7404 135.915 -0.698409
-13.7549 133.923 -5.43727
14.9948 133.824 -8.71696
-21.3014 134.395 -3.11678
15.7609 132.925 -12.5216
25.5139 134.015 -9.53121
-15.4175 136.874 5.39998
-17.6044 136.91 5.62251
7.29938 132.98 -11.9578
-23.6965 135.887 1.95491
-10.0732 133.195 -9.81861
-5.99945 136.547 2.62718
-7.83265 133.384 -9.37373
10.3052 132.614 -14.0992
-10.157 133.304 -9.54243
-14.5644 137.077 5.3609
28.4193 134.228 -9.77824
-21.5086 135.15 -1.42198
20.1297 133.463 -11.9981
5.39984 136.913 2.6701
1.80452 136.559 1.63915
-14.8272 137.123 5.36361
4.06913 133.936 -8.8197
-8.35152 133.414 -9.75387
26.2415 134.136 -10.4543
23.4176 134.433 -9.07229
14.9924 134.25 -8.98904
-18.213 134.747 -3.98385
12.5048 136.222 -1.34062
-19.6104 134.48 -4.93576
-8.20583 133.566 -9.61965
1.5118 134.5 -7.05292
14.2558 136.9 0.899286
19.9363 133.662 -12.1043
15.8481 133.394 -12.7728
-3.71332 134.395 -7.07533
-9.82112 136.884 2.98033
21.2296 133.926 -11.5358
-17.4315 137.46 5.57488
-22.2385 135.874 -0.114927
-23.0066 136.162 0.971438
12.7481 136.516 -1.29949
22.225 134.321 -10.665
-0.737556 134.889 -6.45178
-14.0255 134.903 -5.13563
17.5245 134.237 -11.1459
17.3896 134.328 -10.8553
10.0146 133.428 -13.7424
13.4325 136.958 -0.676066
13.2707 133.019 -15.7889
6.40176 137.796 3.0227
17.308 134.488 -10.9125
4.2443 134.692 -8.99445
25.8148 135.134 -9.39453
13.0778 133.161 -15.7656
-4.53615 137.393 2.18036
17.3046 137.616 0.884596
-2.77587 137.18 1.13688
-18.793 135.402 -4.13431
18.4071 134.013 -13.0832
20.4206 134.398 -11.9696
17.3765 137.716 0.888512
15.3308 137.974 2.07364
22.5672 135.057 -9.87018
-7.34893 134.502 -9.13681
-22.6888 136.864 1.34615
16.6123 134.04 -13.3524
25.5375 135.451 -8.87731
-20.6635 136.365 -0.956329
4.15683 134.943 -8.86461
1.33758 135.445 -6.73389
4.04193 135.01 -8.72197
-9.83889 134.566 -9.0822
13.9933 137.664 0.389364
-6.70999 134.753 -8.907
4.4803 137.989 2.39884
18.314 137.875 0.592801
26.4084 136.706 -4.74451
-10.7961 134.905 -8.32619
27.0633 136.017 -7.74718
5.28662 138.198 2.65032
14.0115 137.854 0.414749
11.671 137.458 -1.16538
25.6086 135.923 -8.45842
18.5823 138.111 0.565952
-5.37162 135.285 -7.96045
19.2986 134.724 -12.5505
12.4503 137.544 -1.09525
15.8182 134.624 -12.6784
-12.3642 135.468 -6.71506
-21.2295 137.1 0.399383
21.7892 137.805 -1.21212
15.255 138.507 2.04352
6.95601 134.615 -12.126
-15.9683 138.743 5.81877
15.6258 135.702 -9.0781
5.1743 138.486 2.56528
-20.6579 137.046 -0.614599
14.7904 134.733 -13.0578
-17.6031 138.767 5.55207
23.7825 138.003 -1.42633
21.2316 138.018 -1.12486
27.0425 136.442 -7.77989
16.4132 135.612 -9.95577
17.037 135.438 -10.7032
-0.278531 138.061 1.02273
-0.878525 136.189 -6.13955
7.5786 138.289 1.06948
13.4165 138.013 -0.681606
6.52584 135.056 -11.375
-22.4879 138.056 2.87861
16.7725 138.759 1.72594
-2.01292 136.294 -6.20897
9.24712 138.196 -0.0125314
16.3869 135.191 -12.2783
22.4046 138.29 -1.15784
8.00834 138.558 0.919783
17.3639 138.948 1.38484
16.3294 136.03 -9.81462
-21.7542 137.94 1.1312
4.14933 138.961 2.36631
-2.21998 136.544 -6.30635
4.24509 138.972 2.37391
9.22179 135.227 -12.5125
-12.9378 136.45 -5.69639
14.7111 135.233 -13.148
1.05125 136.709 -6.43615
14.4874 135.061 -14.2086
17.3252 136.275 -9.85896
15.5836 136.176 -10.1533
-15.1864 137.332 -2.77508
-14.3742 139.582 5.62985
27.0132 137.885 -4.9976
23.0063 138.769 -1.22268
-13.7872 139.532 5.21587
-7.87203 138.741 1.59913
2.3387 136.798 -6.92139
-20.8606 138.226 0.650996
12.9479 138.723 -0.825681
25.6064 137.46 -7.08724
-19.0019 139.515 5.09168
-17.3876 137.684 -2.10406
0.771329 137.071 -6.28548
-21.4455 139.115 3.4614
13.0553 135.32 -14.7273
-17.6562 137.984 -1.56555
-17.8526 139.894 5.62694
6.80504 135.988 -11.7778
15.9875 136.939 -9.17162
17.6079 136.775 -9.96977
13.3477 135.403 -14.8314
14.1601 135.501 -14.7473
22.0553 137.243 -9.03286
4.86104 139.815 2.41434
-8.04763 136.463 -9.46233
-11.151 136.855 -7.66464
15.1695 140.041 1.96159
6.63516 140.151 3.11331
5.46168 136.687 -10.1525
17.557 140.063 1.58536
-12.3618 137.274 -6.26297
-13.9738 138.132 -2.89024
16.8176 137.124 -9.78105
-20.2365 138.686 -0.398626
-18.2994 138.629 -0.807614
5.10637 136.986 -9.83275
-10.7541 140.009 3.28214
-13.9767 138.241 -3.2243
21.1158 137.345 -10.078
-19.1638 140.314 5.02651
14.2226 139.987 0.516546
4.34171 140.229 2.3679
-2.18462 139.605 0.601455
20.4514 137.211 -10.8204
17.066 137.768 -8.43261
3.07322 137.708 -7.37233
9.54634 139.972 0.52723
14.8179 140.418 1.54448
19.4745 140.391 0.874922
17.1152 137.23 -11.1368
9.70915 140.093 0.471977
-17.4706 140.749 5.59338
16.4199 136.94 -12.3833
-12.5836 140.521 4.11487
6.23118 137.017 -11.1635
12.8078 136.498 -13.8291
8.08932 136.949 -11.7034
16.5139 137.609 -9.99631
23.7272 138.768 -6.44656
-13.4554 140.746 4.72675
-9.24242 140.106 1.83348
25.2825 138.954 -6.04423
16.3204 137.843 -9.55894
22.133 138.207 -8.90706
-18.6138 140.844 5.15143
16.1499 138.07 -9.08084
9.22198 137.222 -11.9021
21.6564 138.188 -9.39984
-12.3466 138.08 -6.57947
3.81392 140.823 2.37073
16.5554 138.377 -8.32753
-12.991 140.988 4.54559
-15.2928 139.291 -1.75292
23.8981 140.459 -1.09526
-2.32664 138.448 -6.28092
6.82437 141.26 3.31614
15.3016 137.214 -13.1115
7.53216 140.775 1.28437
5.80804 141.131 2.81717
20.7679 138.073 -10.3986
-7.90419 137.835 -8.81681
17.2765 141.286 1.96798
9.21013 137.483 -11.8518
-19.905 140.959 4.30426
24.7681 139.705 -5.06987
-1.35308 140.497 0.42136
4.49004 141.223 2.49449
20.1255 141.169 0.767048
17.5887 138.473 -9.40289
-4.15819 140.569 0.715938
21.8958 140.905 -0.543985
-6.43917 140.931 2.27614
16.3405 138.505 -9.33052
25.9863 140.258 -3.59352
-20.0197 141.071 3.93591
16.6631 138.14 -11.3407
-18.8297 141.555 4.91556
21.7922 138.897 -9.23148
14.1953 141.399 1.09239
6.87973 141.851 3.40373
-14.3552 139.954 -1.84773
13.8657 137.48 -14.1027
19.7635 138.394 -11.1994
9.30453 141.199 0.512893
-18.0574 141.728 5.19213
-16.0829 141.926 5.69534
5.08794 141.713 2.62203
22.418 139.257 -8.56608
16.0916 139.281 -7.861
-17.8149 140.357 -0.533614
-17.6515 140.373 -0.590726
-8.70276 138.641 -8.2907
7.06134 142.119 3.47605
-12.2427 141.767 3.99625
8.6805 141.448 0.732189
23.0782 139.769 -7.27235
-0.817429 141.198 0.475797
3.61146 141.655 1.78801
16.6581 139.788 -6.7734
-9.07124 138.799 -8.09376
-9.66161 141.544 2.42526
22.695 139.623 -8.09388
-14.4771 140.423 -1.4633
-16.3325 140.523 -0.94879
16.3009 138.569 -11.6203
-14.2028 140.391 -1.77226
-5.36433 141.457 1.35455
15.2042 138.243 -13.1667
-18.2581 140.747 -0.314201
-2.42477 139.717 -5.85701
-13.5634 139.95 -3.94631
-7.92758 141.617 1.8325
3.3045 139.327 -8.09295
16.1419 140.106 -6.38385
-3.33551 139.713 -6.13636
-0.283807 139.998 -5.46376
20.1521 139.183 -10.5945
16.6137 139.101 -10.7089
-6.23451 141.903 1.97525
3.26223 141.974 1.31877
10.1725 141.836 0.0692762
-13.56 140.197 -4.09034
14.3818 142.403 1.61929
16.037 140.363 -6.38412
-10.2494 142.112 2.87103
17.7423 139.836 -8.60947
-4.44598 139.886 -6.27865
-7.08973 139.304 -8.33909
17.5264 140.207 -7.43824
13.5312 142.223 0.585359
7.69793 142.476 2.09896
-10.9373 142.328 3.31988
-16.492 141.114 -0.868178
-11.1141 142.396 3.41247
-4.53783 140.055 -6.27476
-18.1059 142.616 4.82807
-6.40604 139.62 -7.91326
-16.8428 141.259 -0.752777
8.09045 142.329 0.853715
-18.4884 142.625 4.34534
1.57885 140.333 -6.43744
4.6217 142.709 1.97274
-5.71796 140.094 -7.13981
-14.9375 141.454 -1.07581
20.8058 142.885 0.932098
17.0752 140.832 -6.66112
-13.6757 141.356 -1.84596
18.1849 140.114 -9.81772
4.87941 139.86 -9.62203
7.2859 143.364 3.43673
-3.79541 140.634 -5.98486
15.3039 139.65 -11.6442
15.2957 139.635 -11.8596
14.1516 143.106 1.47506
-6.01668 142.573 1.36416
20.4511 140.443 -9.37666
12.9394 139.281 -13.2229
20.045 140.398 -9.68307
-13.3902 141.239 -3.21352
-18.4791 143.016 4.01333
11.4815 139.468 -12.5183
-10.3802 140.326 -7.15043
10.055 142.759 0.0545286
18.3794 140.49 -9.4782
-10.901 140.535 -6.46785
-6.22735 142.824 1.71089
-5.42356 142.573 0.635686
4.58692 143.116 1.5674
-8.3076 140.25 -8.22402
-7.6295 142.873 1.75294
3.87859 143.09 1.02584
-7.25378 143.084 1.90706
20.9208 141.074 -8.57164
15.6249 141.36 -7.17384
17.7982 141.526 -6.92815
-13.9718 143.921 5.32238
8.00191 143.428 1.29238
12.9754 143.346 0.264106
-12.4047 143.777 4.27169
-12.2431 141.356 -5.16769
-18.7765 142.822 1.02522
-1.63017 143.092 -0.0894886
-1.47064 143.125 -0.0622628
17.3622 142.006 -6.21882
24.9983 142.889 -3.57522
0.0555138 143.312 0.234425
6.98677 140.542 -11.1088
3.41664 141.27 -8.10628
21.7546 141.815 -7.81357
-4.0611 143.155 -0.189048
-18.165 143.002 0.438231
13.2877 143.886 0.704764
23.6315 142.54 -5.59163
0.336244 143.485 0.25016
-9.58904 143.772 2.23248
5.79977 144.098 1.80205
7.54444 144.473 2.99846
1.98131 143.79 0.890278
5.22367 141.165 -9.61179
11.0009 140.655 -12.211
17.7364 142.394 -6.30268
24.0909 142.946 -4.82813
22.2071 142.226 -7.43317
22.2892 142.282 -7.37863
-9.60284 141.602 -6.89969
-8.39321 143.869 1.59837
-17.3205 144.319 4.05185
21.0819 142.309 -7.47295
22.8571 144.152 -0.698485
-13.3273 144.65 4.54582
-18.0626 143.538 0.724537
-14.245 144.727 4.90975
8.02347 144.349 1.28904
6.78739 141.197 -10.8405
-11.1902 144.444 3.34244
15.6546 144.748 1.89387
14.8603 142.468 -6.7934
-17.8827 144.402 3.37914
18.0384 144.872 1.65606
7.70539 144.999 2.95399
-16.3283 143.571 -0.205032
21.1272 144.784 0.712703
12.2044 144.35 -0.181806
-11.0236 144.714 3.20126
24.2624 143.732 -4.0912
-10.5977 144.706 2.87694
9.21292 141.548 -11.5234
23.7144 143.68 -4.77316
8.30165 144.807 0.8794
20.9975 143.19 -6.69342
8.12626 144.961 1.01563
-14.0002 144.075 -0.365661
-11.9751 143.137 -4.70761
19.5966 145.536 1.28171
19.2142 145.583 1.41965
22.413 145.097 -0.852448
7.28581 145.66 2.66563
5.73334 142.47 -9.85689
-16.48 144.572 0.355283
-14.0824 144.483 -0.261612
23.1682 144.309 -4.99038
-8.24029 142.898 -7.36954
23.4074 144.416 -4.63563
11.0586 145.352 0.122844
21.805 144.076 -5.82671
18.6245 145.913 1.50046
-12.1588 143.883 -3.56884
14.4466 143.915 -6.11576
-6.76909 145.35 1.42352
-6.24195 143.349 -6.45609
16.7477 144.541 -4.19521
22.129 144.32 -5.57676
-12.4296 145.926 3.93637
14.1946 143.552 -8.27353
23.1813 145.384 -2.12351
8.5078 145.816 0.902421
17.827 144.282 -5.89309
-15.9519 145.908 3.56254
-16.4163 145.873 3.41074
15.7352 144.677 -4.31002
22.302 144.587 -5.31732
-7.62116 145.613 1.51749
-1.60821 144.227 -4.69798
-15.6628 145.132 0.107067
-16.3996 145.617 1.73192
-14.7666 146.232 3.86503
12.3888 145.981 0.197794
6.90216 143.168 -10.1978
19.2802 146.438 1.07518
17.9022 146.62 1.75032
-13.438 146.529 4.01659
-15.8351 145.794 1.26738
-16.1189 146.313 3.22194
20.8371 146.55 0.168338
-5.48452 144.359 -5.72673
22.2688 145.272 -4.99986
18.553 144.896 -6.12052
-11.9386 146.707 3.61149
18.5112 146.916 1.36616
13.347 144.098 -9.13148
8.14983 146.66 1.18794
8.49406 146.615 0.936284
12.6141 143.689 -10.6911
17.8931 145.215 -5.5745
8.67484 143.647 -10.7094
-7.6016 146.478 1.65173
8.43803 146.748 0.957507
-8.91628 144.408 -6.53024
13.7163 144.477 -8.62405
9.86995 143.923 -10.8906
17.4924 145.926 -4.40519
4.41161 144.737 -8.14641
11.9445 144.608 -9.71174
-15.0813 146.746 0.894968
7.64098 147.878 2.72258
-13.0783 147.601 3.55339
12.6021 145.185 -8.61187
4.51546 145.179 -8.146
11.231 147.771 0.538709
21.3386 147.658 -1.34181
-7.83919 147.755 1.75739
-6.87567 145.677 -6.41168
15.2167 148.328 1.48047
18.5607 148.183 0.556563
21.6892 147.71 -1.70647
-6.88593 145.804 -6.37956
8.54577 148.162 0.988665
11.6302 145.619 -9.15177
-8.05723 145.86 -6.36695
1.23938 146.393 -5.87567
15.7756 148.691 1.42844
20.5504 147.556 -3.71305
-4.90665 146.631 -4.86605
-12.0743 147.288 -1.78416
-11.5355 148.651 3.06888
11.2027 148.692 0.705765
18.0384 148.859 0.641408
1.43165 146.796 -5.95923
-14.1714 148.385 1.61691
-14.0891 148.469 1.65194
-3.12077 147.304 -3.93338
5.44566 146.413 -8.31557
20.3975 148.527 -1.77254
-9.12011 146.696 -5.96732
-6.4964 146.781 -5.93427
-8.18545 148.792 1.87819
-11.7953 147.57 -2.46166
-12.0108 147.849 -1.46768
10.8371 146.475 -8.96807
-0.933866 147.38 -4.38713
-9.77716 146.832 -5.66359
20.2469 148.487 -2.71421
12.13 149.25 0.758415
8.49888 149.387 1.45484
18.7147 149.179 -0.414032
8.43808 146.756 -9.08595
16.1668 148.823 -1.92544
-8.8135 147.28 -5.73494
-13.3652 149.087 1.58631
3.61576 147.28 -7.18136
17.1908 149.068 -2.34968
-9.89118 147.642 -5.23603
13.4781 148.347 -4.938
17.9082 149.63 -0.579206
9.91487 147.249 -8.96597
9.39704 147.227 -9.08171
9.14434 147.24 -9.01947
12.5696 147.713 -7.54271
-11.6605 149.71 2.2725
3.85171 147.721 -7.05657
15.6313 150.159 1.0563
18.2505 149.556 -1.71677
10.4338 147.587 -8.60773
15.9224 149.535 -1.67116
6.45948 147.642 -8.02665
-8.84287 147.951 -5.37309
9.04697 150.226 1.45249
15.75 149.639 -1.55127
-11.4348 148.672 -2.63894
9.52042 147.799 -8.45855
-12.1474 149.885 1.57289
14.1254 149.197 -3.94064
-11.6464 149.135 -1.72279
5.07822 148.142 -7.18962
8.68016 148.074 -7.94435
17.0398 150.144 -0.854643
-7.24884 148.461 -5.08776
2.67331 148.443 -6.18916
-11.0983 148.905 -3.23739
-11.3528 149.198 -2.4188
1.37258 148.684 -5.63708
-8.01174 148.635 -4.99263
10.8819 148.347 -7.99139
-11.9709 149.664 -0.842262
16.7686 150.325 -1.27211
16.9527 150.244 -1.66359
16.6064 150.51 -1.0262
2.89688 148.9 -6.0655
14.01 150.109 -3.11145
-12.1212 150.292 -0.0100346
9.47776 148.961 -7.37138
11.2263 151.286 1.1385
-11.4089 150.589 0.496153
1.7146 149.432 -5.42496
15.6441 151.037 -0.774265
12.7896 150.847 -1.47226
0.0534541 149.744 -4.64931
-5.60515 149.855 -4.25723
-8.97513 149.911 -3.79477
9.23589 151.753 1.34391
-9.77818 150.084 -3.27343
8.98303 149.587 -7.00635
-7.07183 149.947 -4.2521
-11.1383 150.691 -1.28925
12.2069 150.431 -4.67546
12.0394 150.329 -5.10039
12.9388 151.364 -1.23307
13.1097 151.892 0.495775
-9.60126 150.45 -2.91358
11.2469 150.194 -6.31867
-9.82014 150.633 -2.6063
-10.9452 151.067 -0.91972
-10.9802 151.312 -0.201731
-6.778 150.616 -3.92331
11.3067 151.333 -3.03011
13.0533 152.266 0.16697
8.88225 150.425 -6.55597
-1.76662 150.967 -3.49042
-10.3938 151.547 -0.989897
-9.82478 152.014 0.101809
8.43801 152.965 1.96893
8.04763 153.081 2.182
-2.38964 151.404 -3.24327
-6.31672 151.294 -3.58579
12.8851 152.549 -0.728836
-7.14217 151.623 -2.96021
0.371269 151.726 -4.25244
-4.73055 152.048 -2.53682
-2.85639 152.001 -3.01931
-1.04188 151.916 -3.67089
8.81119 153.598 1.68923
5.17692 151.995 -4.44737
9.24312 152.647 -2.44788
7.54603 152.111 -4.75325
-7.73784 153.226 0.651611
6.41808 152.303 -4.34984
-7.93386 153.336 0.441
-0.344376 152.591 -3.45918
-3.96982 152.823 -2.52596
7.70877 153.243 -2.36236
0.49012 152.823 -3.42661
4.44138 153.263 -3.16399
5.52005 153.383 -3.01289
-6.13717 153.623 -1.03985
-1.1118 153.322 -2.77935
0.761918 153.492 -2.845
4.48419 153.719 -2.43795
-5.69586 153.824 -1.07734
-7.54875 154.088 0.0437847
6.08162 154.075 -1.56092
2.26302 153.787 -2.43029
7.68725 154.623 0.139857
-5.7253 154.026 -0.924165
8.29685 155.001 1.44335
0.0145664 154.202 -2.109
-0.285317 154.258 -2.07891
5.05809 155.32 -1.3735
